<?xml version="1.0" encoding="UTF-8" standalone="no"?>
<!-- Created with Inkscape (http://www.inkscape.org/) -->

<svg
   xmlns:dc="http://purl.org/dc/elements/1.1/"
   xmlns:cc="http://creativecommons.org/ns#"
   xmlns:rdf="http://www.w3.org/1999/02/22-rdf-syntax-ns#"
   xmlns:svg="http://www.w3.org/2000/svg"
   xmlns="http://www.w3.org/2000/svg"
   xmlns:sodipodi="http://sodipodi.sourceforge.net/DTD/sodipodi-0.dtd"
   xmlns:inkscape="http://www.inkscape.org/namespaces/inkscape"
   width="152"
   height="250"
   viewBox="0 0 152 250"
   id="svg5032"
   version="1.1"
   inkscape:version="0.91 r13725"
   sodipodi:docname="ana.svg">
  <defs
     id="defs5034" />
  <sodipodi:namedview
     id="base"
     pagecolor="#ffffff"
     bordercolor="#666666"
     borderopacity="1.0"
     inkscape:pageopacity="0.0"
     inkscape:pageshadow="2"
     inkscape:zoom="4.3712235"
     inkscape:cx="74.136855"
     inkscape:cy="61.480057"
     inkscape:document-units="px"
     inkscape:current-layer="layer1"
     showgrid="false"
     units="px"
     inkscape:window-width="1366"
     inkscape:window-height="706"
     inkscape:window-x="-8"
     inkscape:window-y="-8"
     inkscape:window-maximized="1"
     showguides="true" />
  <metadata
     id="metadata5037">
    <rdf:RDF>
      <cc:Work
         rdf:about="">
        <dc:format>image/svg+xml</dc:format>
        <dc:type
           rdf:resource="http://purl.org/dc/dcmitype/StillImage" />
        <dc:title />
      </cc:Work>
    </rdf:RDF>
  </metadata>
  <g
     inkscape:label="Layer 1"
     inkscape:groupmode="layer"
     id="layer1"
     transform="translate(0,-802.36216)">
    <path
       style="fill:#ff8080;fill-opacity:1;stroke:#000000;stroke-opacity:0.9888268"
       id="path5729"
       d="m -100.11527,1045.9414 c 1.600338,0.5411 3.258864,0.8771 4.876962,1.3507 1.221135,0.2897 2.4248,0.6426 3.647363,0.9254 1.028512,0.4206 2.106167,0.6295 3.207143,0.7285 1.215584,-0.02 2.392526,0.1748 3.58686,0.3652 1.310949,0.4564 2.633903,0.8743 3.958898,1.2929 0.863001,0.4209 1.929835,0.7399 2.529689,1.5362 0.939627,3.0076 0.345344,0.5912 -6.907687,4.4049 -0.06183,0.033 -1.422078,-0.4669 -1.605928,-0.5184 -1.023969,-0.2309 -2.04901,-0.1879 -3.018436,-0.618 -0.85728,-0.3158 -1.679196,-0.7223 -2.545876,-1.0107 -0.855616,-0.1346 -1.641487,-0.4836 -2.492491,-0.645 -0.761997,-0.02 -1.465448,-0.283 -2.199099,-0.4551 0,0 6.441346,-4.4453 6.441346,-4.4453 l 0,0 c 0.723631,0.1881 1.448964,0.3293 2.188162,0.4421 0.857336,0.2205 1.6997,0.4992 2.55381,0.7298 0.843696,0.3419 1.68405,0.689 2.53237,1.02 0.979031,0.2769 2.021531,0.2389 2.992544,0.5691 0.2949,0.09 0.584983,0.197 0.88454,0.2697 0.460855,0.1118 0.711815,0.037 0.658198,0.071 -6.446021,4.1665 -8.381698,2.2656 -6.275036,4.1906 -0.290841,-0.5576 -1.634262,-0.8971 -2.151549,-1.1794 -1.294276,-0.427 -2.595033,-0.8588 -3.919707,-1.1758 -1.182356,-0.1925 -2.366386,-0.2602 -3.560883,-0.3378 -1.122504,-0.1492 -2.198314,-0.4551 -3.272805,-0.8085 -1.206904,-0.3217 -2.418458,-0.6254 -3.616708,-0.9781 -1.62318,-0.4502 -3.24697,-0.947 -4.90908,-1.2217 0,0 6.4174,-4.5025 6.4174,-4.5025 z"
       inkscape:connector-curvature="0" />
    <rect
       style="fill:#ffffff;fill-opacity:1;stroke:#000000;stroke-opacity:0.9888268"
       id="rect5748"
       width="0.52910054"
       height="24.867725"
       x="-138.62434"
       y="875.64258" />
    <path
       style="fill:#000000;fill-opacity:1;stroke:#000000;stroke-width:0.15195978;stroke-opacity:0.9888268"
       d=""
       id="path5816"
       inkscape:connector-curvature="0"
       transform="translate(0,802.36216)" />
    <path
       style="fill:#000000;fill-opacity:1;stroke:#000000;stroke-width:0.15195978;stroke-opacity:0.9888268"
       d=""
       id="path5818"
       inkscape:connector-curvature="0"
       transform="translate(0,802.36216)" />
    <path
       style="fill:#f9f9f9;fill-opacity:1;stroke:#000000;stroke-width:0.15195978;stroke-opacity:0.9888268"
       d=""
       id="path5824"
       inkscape:connector-curvature="0"
       transform="translate(0,802.36216)" />
    <ellipse
       style="fill:#de8787;fill-opacity:1;stroke:#000000;stroke-width:1.91495216;stroke-opacity:0.9888268"
       id="path4138"
       cx="74.866707"
       cy="901.11255"
       rx="17.767839"
       ry="19.928356" />
    <path
       style="fill:#550000;fill-opacity:1;stroke:#000000;stroke-width:1.91495216;stroke-opacity:0.9888268"
       id="path4156"
       d="m 90.260541,872.61933 c 0.985787,1.47326 2.034782,2.86697 3.172557,4.16387 0.87026,1.33078 1.943181,2.34695 3.003272,3.41269 1.061465,0.749 1.826356,1.93337 2.742553,2.89796 0.966617,1.18428 1.687367,2.58493 2.315997,4.06273 0.8792,2.21973 1.60197,4.5226 2.18559,6.88407 1.05678,5.24098 2.35015,10.40377 3.65249,15.55846 0.71416,2.997 1.54316,6.02152 1.49147,9.17656 -0.11205,1.62283 -0.75384,2.95771 -1.65244,4.10639 -1.04028,0.80507 -1.82333,1.95129 -2.52878,3.17005 -0.8062,1.3641 -1.58326,2.79264 -2.12957,4.34469 -0.43022,2.26125 -1.30023,4.3141 -2.11314,6.3923 -0.935916,2.1104 -1.705101,4.28445 -2.114558,6.63758 -0.273611,1.91153 -0.277715,3.85817 -0.286721,5.79274 0.126876,1.81085 0.372401,3.60932 0.815612,5.34334 0.436879,1.30997 1.01535,2.37457 1.780237,3.40282 0.92531,0.91083 1.76327,1.94166 2.65636,2.8994 0.97168,1.02741 1.65194,2.34061 2.47542,3.53041 0.80156,1.28583 1.38053,2.74316 1.8072,4.26843 0,0 -10.180752,6.91703 -10.180752,6.91703 l 0,0 c -0.376583,-1.35475 -0.907716,-2.64073 -1.634308,-3.76615 -0.793248,-1.13523 -1.449226,-2.39666 -2.392658,-3.36848 -0.902696,-1.01782 -1.848636,-1.9673 -2.736284,-3.00609 -0.881879,-1.18174 -1.485289,-2.49688 -2.007974,-3.96787 -0.47898,-1.87655 -0.728624,-3.80227 -0.961194,-5.74798 4.75e-4,-2.01437 -0.0078,-4.03691 0.206445,-6.03805 0.336249,-2.48675 0.996318,-4.83457 2.055974,-7.00651 0.763457,-2.01572 1.726255,-3.98954 2.054812,-6.19683 0.408479,-1.75934 1.213448,-3.23148 1.993946,-4.77021 0.800923,-1.1754 1.333789,-2.60525 2.352501,-3.54562 1.06336,-0.56238 1.684385,-1.6883 2.126192,-2.9743 0.317488,-3.03381 -0.417526,-5.98577 -1.014017,-8.91231 -1.175905,-5.17736 -2.46443,-10.30989 -3.787329,-15.43216 -0.613442,-2.24807 -1.401778,-4.41216 -2.241944,-6.54444 -0.586248,-1.30906 -1.207147,-2.59909 -2.11118,-3.62301 -0.877699,-0.98735 -1.722593,-2.01907 -2.720155,-2.83108 -1.098712,-1.06125 -2.072028,-2.25929 -3.010833,-3.53377 -1.182434,-1.36657 -2.223978,-2.89381 -3.348809,-4.3298 0,0 10.084018,-7.36686 10.084018,-7.36686 z"
       inkscape:connector-curvature="0" />
    <path
       style="fill:#550000;fill-opacity:1;stroke:#000000;stroke-width:1.91495216;stroke-opacity:0.9888268"
       id="path4158"
       d="m 76.630734,875.44923 c -1.792285,0.33272 -3.5982,0.51286 -5.407306,0.62616 -1.687392,0.0886 -3.376641,0.091 -5.06524,0.0938 -1.583004,-3e-4 -3.166007,-0.004 -4.74901,-0.004 -1.692878,-0.075 -3.314791,-0.0633 -4.952081,0.49347 -2.571531,0.77561 -5.006453,2.1137 -7.3573,3.58915 -0.428538,0.25458 -0.857077,0.50916 -1.285617,0.76374 -0.399708,0.20969 -0.807712,0.39708 -1.19912,0.62941 -0.336003,0.1995 -1.304189,0.89216 -0.980396,0.66416 16.431245,-11.56969 10.75485,-8.48289 7.90365,-5.12732 -1.762928,2.35364 -2.504021,5.42157 -3.353127,8.37082 -0.865149,2.92795 -1.466897,5.94795 -1.775072,9.03745 -0.145739,2.25392 -0.518337,4.46878 -0.720429,6.71567 -0.165845,2.02821 -0.193333,4.06754 -0.210135,6.10421 0.217296,1.68379 0.398598,3.38901 0.681085,5.05898 0.354829,1.61722 0.496535,3.30938 1.150356,4.79949 0.465954,1.29904 1.110495,2.44188 1.772382,3.5926 0.828967,1.0736 1.529208,2.33581 1.993738,3.70129 0.783307,1.71255 1.121593,3.56579 1.315943,5.49436 0.175068,2.14131 0.190536,4.29531 0.202138,6.44535 -0.03213,2.14708 -0.708963,4.09542 -1.614058,5.88829 -1.0077,1.8098 -2.244789,3.37566 -3.464777,4.96198 -0.992924,1.26639 -1.778427,2.71549 -2.570975,4.1675 -0.754518,1.19999 -1.323716,2.37627 -1.602586,3.86192 -0.245109,1.80914 -0.236168,3.65121 -0.245272,5.47984 0.02245,0.25363 0.0449,0.50726 0.06736,0.76089 0,0 -10.323429,6.69454 -10.323429,6.69454 l 0,0 c -0.04098,-0.31669 -0.08193,-0.63338 -0.122911,-0.95007 -3.64e-4,-1.89603 -0.01312,-3.79694 0.131638,-5.6866 0.168175,-1.59439 0.397789,-3.20827 1.40573,-4.3488 0.734057,-1.58697 1.592114,-3.04585 2.533661,-4.45616 1.18841,-1.59 2.509902,-3.0164 3.503875,-4.8161 1.039628,-1.38949 1.705637,-3.17984 1.935054,-5.05023 0.0016,-2.10312 0.01053,-4.21006 -0.129892,-6.30781 -0.160771,-1.79945 -0.452788,-3.52629 -1.205292,-5.11096 -0.434429,-1.27305 -1.154355,-2.3728 -1.887949,-3.40728 -0.698389,-1.19728 -1.343387,-2.41818 -1.840291,-3.76463 -0.687063,-1.62201 -0.92292,-3.39021 -1.265365,-5.15516 -0.346404,-1.7619 -0.503571,-3.58059 -0.798634,-5.35784 0.01312,-2.08205 0.03426,-4.16652 0.184839,-6.24184 0.18264,-2.2613 0.523919,-4.49064 0.728906,-6.74292 0.302019,-3.22042 0.930157,-6.36135 1.829187,-9.41124 0.834362,-2.98916 1.401331,-6.18018 2.974735,-8.74684 3.516942,-5.99887 10.012745,-8.02598 15.239378,-11.31545 2.451498,-1.41207 4.956162,-2.73673 7.619152,-3.4152 1.709246,-0.36304 3.423818,-0.31255 5.154526,-0.28852 1.581268,0.002 3.162538,0.006 4.743805,0.004 1.667957,-0.006 3.336913,-0.0192 5.002592,-0.13788 1.811767,-0.15057 3.626871,-0.35914 5.399316,-0.86675 0,0 -9.346788,8.71177 -9.346788,8.71177 z"
       inkscape:connector-curvature="0" />
    <path
       style="fill:#550000;fill-opacity:1;stroke:#000000;stroke-width:1.91495216;stroke-opacity:0.9888268"
       id="path4160"
       d="m 86.268454,866.96792 c 1.681545,0.32733 3.339065,0.69999 4.717628,1.98761 0.836869,1.32205 1.631049,2.52575 2.916391,3.15772 1.184515,0.6651 1.760968,1.89121 2.173709,3.33926 0,0 -10.235622,6.93301 -10.235622,6.93301 l 0,0 c -0.282956,-1.1617 -0.738748,-1.89044 -1.680924,-2.3621 -1.222096,-0.8436 -2.124957,-2.02141 -3.010972,-3.34205 -1.357134,-1.00683 -2.961827,-1.16818 -4.499032,-1.4626 0,0 9.618822,-8.25085 9.618822,-8.25085 z"
       inkscape:connector-curvature="0" />
    <path
       style="fill:#550000;fill-opacity:1;stroke:#000000;stroke-width:1.91495216;stroke-opacity:0.9888268"
       id="path4162"
       d="m 74.106985,882.0156 c -2.175973,0.0858 -4.317491,-0.2396 -6.47195,-0.55888 -1.801583,-0.27975 -3.615552,-0.37664 -5.429423,-0.422 -2.064583,0.29824 -3.921581,1.54206 -5.798493,2.55611 -3.470981,2.64633 -8.885785,6.13713 7.766101,-5.44344 1.159212,-0.80618 -1.118672,0.99183 -1.501438,1.4225 -0.94693,1.39229 -1.92685,2.7399 -2.842654,4.16518 -1.19539,1.84471 -2.059135,3.97272 -2.80008,6.13782 -0.562602,2.09227 -0.998801,4.24285 -1.307467,6.41417 -0.265507,2.06394 -0.315272,4.15493 -0.344288,6.2402 0.01261,2.10327 0.92158,3.81341 1.839946,5.49552 1.265834,1.56976 2.442735,3.26421 3.746427,4.78623 1.102288,1.49696 2.196648,2.99696 3.44678,4.30986 0.987603,1.20966 1.811531,2.57467 2.315961,4.17666 0.620432,1.74652 0.934525,3.59539 1.124926,5.47658 0.159908,1.95924 0.163585,3.93058 0.170592,5.8976 -0.02161,1.85399 -0.515893,3.59457 -1.286281,5.16732 -1.542987,2.26033 -3.737995,3.65527 -5.63874,5.41937 -1.384616,1.35149 -2.735623,2.76145 -3.992287,4.2919 -1.363075,1.60409 -2.393085,3.57063 -3.300153,5.59045 -0.495438,1.12314 -0.804883,2.33276 -1.095337,3.55172 0,0 -10.464527,6.14163 -10.464527,6.14163 l 0,0 c 0.265386,-1.31574 0.548851,-2.62427 1.029295,-3.85277 0.848271,-2.1374 1.84036,-4.13061 3.020526,-6.00113 1.41278,-1.41951 2.632284,-3.13243 4.101756,-4.48582 0.716499,-0.65335 1.392268,-1.37311 2.113893,-2.01786 1.146424,-1.02427 2.474586,-1.73378 3.524788,-2.92503 0.880615,-1.26651 1.397176,-2.71384 1.612332,-4.3681 -0.0014,-1.91891 0.0047,-3.84089 -0.11472,-5.75548 -0.14553,-1.77253 -0.392935,-3.52457 -1.023056,-5.14751 -0.398757,-1.39645 -1.158185,-2.55575 -2.002438,-3.59562 -1.208767,-1.39132 -2.34289,-2.87007 -3.446787,-4.38731 -1.315851,-1.64129 -2.616402,-3.31386 -3.852281,-5.04318 -1.05228,-1.91201 -2.064332,-3.87067 -2.209722,-6.23915 0.02291,-2.15201 0.06348,-4.30869 0.298531,-6.44458 0.275,-2.26669 0.704762,-4.48373 1.202171,-6.68956 0.67607,-2.28065 1.570465,-4.47939 2.641114,-6.5178 0.911353,-1.40218 1.739994,-2.87058 2.784106,-4.13423 0.389951,-0.80322 0.745768,-1.32915 1.40988,-1.81495 3.917468,-2.86567 7.953224,-6.163 12.153481,-8.67037 1.957051,-1.05467 3.975651,-2.13747 6.154369,-2.09264 1.817748,0.0907 3.631295,0.26492 5.433659,0.57756 2.160937,0.32766 4.320763,0.48579 6.498773,0.32158 0,0 -9.467278,8.46745 -9.467278,8.46745 z"
       inkscape:connector-curvature="0" />
    <path
       style="fill:#420000;fill-opacity:1;stroke:#000000;stroke-width:1.91495216;stroke-opacity:0.9888268"
       id="path4164"
       d="m 98.171402,869.13987 c 1.693952,1.25333 3.246138,2.70185 4.789178,4.21145 1.86376,1.81943 3.52656,3.95628 5.05358,6.19588 1.38458,1.77108 2.59187,3.74304 3.99581,5.48865 0.89178,1.42805 1.82175,2.82919 2.61082,4.35206 1.14465,1.97452 2.05194,4.09865 2.80854,6.33347 0.64489,2.45 1.24301,4.90832 1.60604,7.4467 0.26288,2.08728 0.30698,4.20216 0.3053,6.31028 -0.001,2.38987 -0.0169,4.77947 -0.013,7.16936 0.005,2.10189 0.01,4.2038 0.0122,6.3057 0.0836,2.0763 -0.12294,4.1196 -0.49951,6.13805 -0.40123,1.77268 -0.7712,3.54609 -1.24644,5.29101 -0.47958,1.80766 -1.18213,3.50297 -1.65603,5.31207 -0.53052,1.95098 -0.4505,3.78292 -0.0506,5.74018 0.74218,2.00069 1.81211,3.76652 3.01185,5.38384 0.76086,1.39446 1.92491,2.07297 3.11224,2.77615 1.32449,0.70006 2.66761,1.44983 3.92892,2.31794 1.03182,0.80792 2.0751,1.58991 3.10726,2.39785 0,0 -9.75458,7.7383 -9.75458,7.7383 l 0,0 c -1.0266,-0.7765 -2.04192,-1.58149 -3.10717,-2.27596 -1.30242,-0.79811 -2.61265,-1.57674 -3.94891,-2.28472 -1.26553,-0.85893 -2.48186,-1.7337 -3.29477,-3.2687 -1.26144,-1.83925 -2.43703,-3.76972 -3.25469,-5.97109 -0.49137,-2.17032 -0.79858,-4.17648 -0.26796,-6.40392 0.3803,-1.85589 1.01642,-3.57022 1.61801,-5.32787 0.41554,-1.76598 0.97616,-3.45785 1.28848,-5.26501 0.50297,-1.86598 0.71677,-3.82888 0.6411,-5.79233 0.003,-2.10983 0.009,-4.21969 0.0214,-6.32951 0.0114,-2.38267 0.011,-4.76522 0.002,-7.14788 -0.0253,-2.04213 -0.0147,-4.09089 -0.21721,-6.12175 -0.28646,-2.45048 -0.81912,-4.81673 -1.46168,-7.16131 -0.72664,-2.1582 -1.58968,-4.20912 -2.72946,-6.08634 -0.77658,-1.43076 -1.71779,-2.71861 -2.52587,-4.12027 -1.3381,-1.84006 -2.552618,-3.81201 -3.912397,-5.63026 -1.515219,-2.14718 -3.158181,-4.17891 -4.98223,-5.9312 -1.464697,-1.44375 -2.998618,-2.82738 -4.724309,-3.76283 0,0 9.734264,-8.02799 9.734264,-8.02799 z"
       inkscape:connector-curvature="0" />
    <path
       style="fill:#550000;fill-opacity:1;stroke:#000000;stroke-width:1.91495216;stroke-opacity:0.9888268"
       id="path4166"
       d="m 60.905351,878.58388 c -0.244791,0.0896 -0.494842,0.15971 -0.734372,0.26889 -0.607251,0.27649 -1.213615,0.55969 -1.802393,0.89123 -0.290583,0.16363 -1.116711,0.76542 -0.839488,0.56978 10.044256,-7.0881 12.081384,-8.60917 8.354276,-5.84479 -0.70294,5.4608 -10.025969,6.27453 -14.035964,9.40015 -3.52434,2.32621 -8.223764,5.5481 8.330352,-5.92683 0.191974,-0.13303 -0.346645,0.33486 -0.519579,0.50291 -0.636299,0.61827 -0.348316,0.31315 -0.942532,1.00998 -1.001961,1.00176 -2.071492,1.90347 -2.987661,3.0307 -0.864077,1.77229 -1.398097,3.75854 -2.054071,5.65669 -0.763674,2.13838 -1.458155,4.30191 -1.883313,6.5811 -0.278866,1.91323 -0.420865,3.8722 -0.310259,5.81338 0.119413,1.78841 0.559185,3.43287 1.290243,4.97399 0.68605,1.4622 1.513836,2.85761 2.496171,4.0409 0.728979,1.26319 1.932011,1.76432 2.941167,2.59191 1.41424,0.78863 2.70845,1.72074 3.861964,3.01319 1.327644,1.22014 2.182444,2.94187 2.827004,4.78614 0.574556,1.88804 0.674495,3.90382 0.738386,5.89757 0.01092,1.94066 0.155991,3.89282 -0.205913,5.79451 -0.380141,1.62064 -1.200251,2.93144 -2.038472,4.22502 -3.562069,4.06856 -9.254718,7.24206 -12.771291,9.76367 -3.236203,2.23553 -8.513033,5.88412 8.796703,-6.24725 0.211159,-0.14814 -0.410548,0.32118 -0.604991,0.50054 -0.701109,0.64678 -1.324294,1.37481 -1.920403,2.16075 -0.966329,1.38183 -1.836243,2.84955 -2.6793,4.34522 -0.350108,0.68745 -0.762993,1.32031 -1.153565,1.97258 0,0 -10.77075,5.59073 -10.77075,5.59073 l 0,0 c 0.477815,-0.55407 0.795117,-1.19741 1.245385,-1.78462 0.777679,-1.60804 1.664869,-3.09892 2.665203,-4.50853 3.179965,-5.54444 9.076841,-7.59605 13.523408,-11.07654 -3.160673,2.27628 -6.321345,4.55256 -9.482016,6.82886 0.156715,-0.12556 0.324919,-0.23165 0.47015,-0.37663 0.449973,-0.44916 0.877314,-0.93209 1.364529,-1.32841 0.160667,-0.13061 0.345929,-0.20843 0.518894,-0.31265 0.95113,-0.973 1.746758,-2.28665 2.269235,-3.66006 0.672223,-1.6688 0.382394,-3.52513 0.413331,-5.33739 -0.03648,-1.82583 -0.07141,-3.68167 -0.542446,-5.43233 -0.553139,-1.66924 -1.359634,-3.13577 -2.538591,-4.23589 -1.157713,-1.17857 -2.509905,-1.88229 -3.803416,-2.79675 -1.126344,-0.81857 -2.308174,-1.54158 -3.100754,-2.87899 -0.989336,-1.32803 -1.875508,-2.78131 -2.599354,-4.34908 -0.839217,-1.7056 -1.360613,-3.52144 -1.527574,-5.51614 -0.234704,-2.06484 -0.05452,-4.16697 0.166363,-6.22639 0.366495,-2.38528 1.042091,-4.61841 1.777087,-6.86392 0.740223,-1.90735 1.317474,-3.902 1.928299,-5.87541 0.398657,-0.99679 0.703407,-1.26539 1.378848,-1.93886 0.489805,-0.4884 0.838194,-1.16305 1.47489,-1.40349 1.548786,-1.53232 -0.617389,0.66835 0.922398,-1.09929 3.43337,-3.9414 7.977623,-6.24757 12.155403,-8.89917 4.122765,-2.02787 11.167834,-7.26973 -5.920361,4.73692 4.922645,-3.57783 9.648905,-7.63955 15.069429,-9.9437 0,0 -9.210281,8.9158 -9.210281,8.9158 z"
       inkscape:connector-curvature="0" />
    <path
       style="fill:#f4d7d7;fill-opacity:1;stroke:#000000;stroke-width:1.91495216;stroke-opacity:0.9888268"
       id="path4192"
       d="m 90.870476,875.41179 c 0.447833,0.56595 0.959963,1.03733 1.450683,1.54188 0.457998,0.51198 0.914952,1.01668 1.34121,1.56954 0.427104,0.46946 0.820945,0.97953 1.245691,1.45269 0.440978,0.54408 0.815696,1.15948 1.209995,1.75364 0.330838,0.48991 0.718345,0.90847 1.072506,1.37036 0.343557,0.55263 0.779457,0.97475 1.248407,1.3534 0.349976,0.4734 0.724882,0.91959 1.059669,1.40946 0.331252,0.56122 0.691683,1.09312 1.031943,1.64678 0.50599,1.00424 0.94586,2.05903 1.36197,3.12351 0.66905,1.54417 1.07388,3.22772 1.62875,4.83357 0.39618,0.96729 0.78543,1.95055 1.47263,2.65269 0.60954,0.36158 1.12081,0.85262 1.59763,1.43619 0.52876,0.74167 0.9875,1.55922 1.3665,2.42812 0.33243,0.77529 0.64191,1.56534 0.87879,2.39257 0.24334,0.92895 0.3622,1.89748 0.56127,2.83977 0.19375,0.74731 0.31589,1.51211 0.36507,2.29311 0.0428,0.80884 0.0388,1.61948 0.0381,2.42951 7.1e-4,1.09047 0.008,2.17552 -0.12226,3.25563 -0.15409,1.14984 -0.51137,2.21397 -0.91579,3.25779 -0.26726,0.84849 -0.66992,1.60771 -1.04443,2.38636 -0.53162,1.05933 -1.14966,2.04816 -1.73839,3.05984 -0.8333,1.48166 -1.883,2.74385 -2.8782,4.05605 -0.99972,1.40317 -2.08196,2.71859 -3.03247,4.1738 -0.434304,0.74478 -0.964574,1.40578 -1.265423,2.25331 -0.200849,0.74262 -0.185727,1.53866 -0.189164,2.31225 0.0013,0.78688 0.01606,1.57359 0.01312,2.36044 -0.03504,0.98515 0.06681,1.96262 0.151261,2.93989 0.07334,0.8741 0.381391,1.64988 0.715189,2.40991 0.428737,0.94983 0.957477,1.81128 1.529017,2.63577 0.49566,0.77811 1.00918,1.53776 1.50507,2.31505 0.3782,0.5297 0.75019,1.07159 1.09549,1.63482 0.42873,0.74367 0.90398,1.44186 1.33248,2.1854 0.60506,0.94282 1.06683,1.98939 1.52466,3.04422 0.32695,0.80218 0.6143,1.6342 0.86286,2.47843 0,0 -3.60593,2.45062 -3.60593,2.45062 l 0,0 c -0.21998,-0.8313 -0.47647,-1.6546 -0.78271,-2.44287 -0.44703,-1.03614 -0.90622,-2.05782 -1.50869,-2.97413 -0.44314,-0.72715 -0.92022,-1.42175 -1.35615,-2.15594 -0.34886,-0.55843 -0.735077,-1.08144 -1.090955,-1.6334 -0.481898,-0.77758 -0.961767,-1.55594 -1.452326,-2.32561 -0.592503,-0.85177 -1.154148,-1.72895 -1.612639,-2.70124 -0.353295,-0.82214 -0.686315,-1.65637 -0.773199,-2.59588 -0.07434,-0.98883 -0.212765,-1.97293 -0.191089,-2.96832 -0.0085,-0.78944 -0.0059,-1.57898 -0.0078,-2.36849 0.0014,-0.8199 -0.02722,-1.65372 0.109662,-2.46037 0.242333,-0.96493 0.785017,-1.65973 1.28588,-2.43901 0.952655,-1.50538 2.082935,-2.81884 3.104796,-4.25156 0.95565,-1.29451 1.9669,-2.53508 2.80543,-3.95254 0.57809,-0.99081 1.15797,-1.98103 1.71461,-2.98952 0.35127,-0.79204 0.79443,-1.51511 1.06296,-2.35862 0.39996,-1.01505 0.81865,-2.01688 0.99093,-3.13817 0.13825,-1.05122 0.13276,-2.09889 0.10986,-3.16173 -8.5e-4,-0.7971 2.8e-4,-1.59489 -0.0304,-2.39123 -0.0459,-0.75391 -0.13534,-1.49931 -0.31715,-2.22415 -0.19193,-0.92964 -0.31809,-1.88007 -0.54096,-2.80065 -0.23645,-0.8012 -0.54542,-1.56709 -0.85381,-2.32938 -0.34511,-0.83217 -0.79238,-1.59368 -1.29754,-2.29062 -0.48801,-0.56107 -1.04787,-0.96004 -1.60142,-1.412 -0.68716,-0.81158 -1.0992,-1.84175 -1.47809,-2.90705 -0.528378,-1.60474 -0.970283,-3.25844 -1.648831,-4.7819 -0.422709,-1.02043 -0.854737,-2.04108 -1.372118,-2.99451 -0.35647,-0.53053 -0.70091,-1.07105 -1.040761,-1.61669 -0.320404,-0.44875 -0.654373,-0.88682 -1.003816,-1.301 -0.470486,-0.42565 -0.917628,-0.87925 -1.288473,-1.4394 -0.37054,-0.46187 -0.75733,-0.90046 -1.086813,-1.41078 -0.376937,-0.57747 -0.733975,-1.1791 -1.173677,-1.6879 -0.433261,-0.47786 -0.832843,-0.99769 -1.259226,-1.48456 -0.422046,-0.53067 -0.865144,-1.03162 -1.317394,-1.52302 -0.488532,-0.50073 -0.969294,-1.01597 -1.469818,-1.49606 0,0 3.503766,-2.72807 3.503766,-2.72807 z"
       inkscape:connector-curvature="0" />
    <ellipse
       style="fill:#f4d7d7;fill-opacity:1;stroke:#000000;stroke-width:1.91495216;stroke-opacity:0.9888268"
       id="path4194"
       cx="67.068222"
       cy="895.21198"
       rx="1.8147655"
       ry="3.0932508" />
    <ellipse
       style="fill:#f4d7d7;fill-opacity:1;stroke:#000000;stroke-width:1.91495216;stroke-opacity:0.9888268"
       id="path4196"
       cx="82.56353"
       cy="895.38379"
       rx="1.9543629"
       ry="2.9214039" />
    <path
       style="fill:none;fill-rule:evenodd;stroke:#000000;stroke-width:1.91495216px;stroke-linecap:butt;stroke-linejoin:miter;stroke-opacity:1"
       d="m 71.954131,906.55392 0,0.34369"
       id="path4198"
       inkscape:connector-curvature="0" />
    <path
       style="fill:#550000;fill-rule:evenodd;stroke:#000000;stroke-width:1.91495216px;stroke-linecap:butt;stroke-linejoin:miter;stroke-opacity:1"
       d="m 76.248653,906.70228 c 0.05251,0 0.727248,0 0.987102,0"
       id="path4202"
       inkscape:connector-curvature="0" />
    <path
       style="fill:#550000;fill-opacity:1;stroke:#000000;stroke-width:0.21904075;stroke-opacity:0.9888268"
       d="m 104.96662,923.23588 c 0.0421,-0.11885 0.39902,-0.98183 0.79309,-1.9177 1.0832,-2.57251 1.35317,-3.96588 1.35317,-6.98406 0,-5.40287 -1.45419,-10.83032 -3.49002,-13.02575 -1.96654,-2.12072 -2.17979,-2.43957 -2.7254,-4.07512 -1.045923,-3.13531 -2.237045,-6.143 -2.974237,-7.51019 -0.404487,-0.75016 -2.566681,-3.64736 -4.804872,-6.43821 l -4.069444,-5.07426 0.843171,-0.64792 c 0.712385,-0.54741 0.896118,-0.59963 1.184524,-0.33664 0.672427,0.61318 7.636347,9.36127 8.291046,10.41525 0.781372,1.2579 1.778322,3.6306 2.615312,6.2244 0.94634,2.93259 1.50161,4.12075 2.27854,4.87544 2.30813,2.24214 3.14069,3.8178 3.98226,7.53661 0.47614,2.10402 0.54339,2.82713 0.53997,5.80575 -0.004,3.30387 -0.0225,3.45481 -0.64756,5.21184 -0.60804,1.70926 -2.62726,5.68581 -3.05077,6.00802 -0.10745,0.0817 -0.16091,0.0513 -0.11877,-0.0675 z"
       id="path4204"
       inkscape:connector-curvature="0" />
    <path
       style="fill:#550000;fill-opacity:1;stroke:#000000;stroke-width:0.21904075;stroke-opacity:0.9888268"
       d="m 103.50411,957.58957 c -0.4104,-0.9685 -2.07041,-3.82639 -3.68892,-6.35087 -1.61851,-2.52448 -3.131284,-5.12953 -3.361727,-5.78894 -0.331576,-0.94884 -0.443308,-1.89904 -0.535569,-4.55463 -0.108376,-3.11909 -0.0863,-3.43059 0.313036,-4.41828 0.236289,-0.58443 0.675394,-1.41429 0.975791,-1.84414 l 0.546175,-0.78154 -0.07777,2.96881 c -0.09752,3.72234 0.171093,6.15635 0.86594,7.84696 0.294982,0.71771 1.36651,2.56828 2.381174,4.11241 1.01466,1.54413 2.32546,3.59784 2.91289,4.56385 1.14526,1.88335 2.32589,4.52741 2.16483,4.84824 -0.0851,0.1696 -1.53444,1.16298 -1.69246,1.1601 -0.0315,-4.8e-4 -0.393,-0.79346 -0.80339,-1.76197 z"
       id="path4206"
       inkscape:connector-curvature="0" />
    <path
       style="fill:#000080;fill-rule:evenodd;stroke:#000000;stroke-width:1.91495216px;stroke-linecap:butt;stroke-linejoin:miter;stroke-opacity:1"
       d="m 69.141517,912.53501 c 0.263225,0.16194 0.537324,0.29965 0.789682,0.48602 0.07981,0.059 0.114187,0.19186 0.19742,0.24305 0.157941,0.097 0.434325,-0.0972 0.59226,0 0.08325,0.0511 0.114187,0.19186 0.197422,0.24302 0.05885,0.0364 0.13162,0 0.19742,0 0.06581,0 0.131619,0 0.19742,0 0.329035,0 0.658069,0 0.987102,0 0.06581,0 0.131621,0 0.197421,0 0.06581,0 0.150882,-0.0573 0.197421,0 0.04653,0.0575 -0.04653,0.18564 0,0.24305 0.0987,0.12146 0.493551,-0.12146 0.59226,0 0.04653,0.0573 -0.04653,0.18564 0,0.24301 0.0987,0.12146 0.493552,-0.12146 0.592264,0 0.04653,0.0575 -0.04653,0.18564 0,0.24303 0.04653,0.0575 0.131619,0 0.197419,0 0.526454,0 1.052909,0 1.579364,0 0.197419,0 0.394841,0 0.592261,0 0.06581,0 0.263228,0 0.197422,0 -0.131621,0 -0.526456,0 -0.394842,0 0.526455,0 1.052909,0 1.579363,0 0.06581,0 0.150882,0.0575 0.197422,0 0.04653,-0.0573 -0.04653,-0.18564 0,-0.24303 0.06594,-0.0812 0.328897,0.0812 0.39484,0 0.04653,-0.0575 -0.02942,-0.17072 0,-0.24301 0.410808,-1.01144 -0.01364,0.25978 0.39484,-0.24305 0.04653,-0.0573 -0.04653,-0.18565 0,-0.24302 0.04653,-0.0575 0.150882,0.0573 0.197421,0 0.40847,-0.50285 -0.624195,0.0192 0.19742,-0.48606 0.526456,0 -0.06581,0.081 0.197421,-0.24301 0.04653,-0.0575 0.150882,0.0573 0.197421,0 0.04653,-0.0575 -0.04653,-0.18565 0,-0.24305 0.04653,-0.0575 0.150881,0.0575 0.19742,0 0.04653,-0.0575 -0.06581,-0.24302 0,-0.24302 0.06581,0 0,0.32403 0,0.24302 0,-0.16214 0,-0.32403 0,-0.48607 0,-0.081 -0.06581,-0.24301 0,-0.24301 0.06581,0 0,0.16213 0,0.24301"
       id="path4212"
       inkscape:connector-curvature="0" />
    <ellipse
       style="fill:#000080;fill-opacity:1;stroke:#000000;stroke-width:1.91495216;stroke-opacity:0.9888268"
       id="path4214"
       cx="76.051231"
       cy="956.03705"
       rx="4.9355116"
       ry="25.27499" />
    <path
       style="fill:none;fill-rule:evenodd;stroke:#000000;stroke-width:1.91495216px;stroke-linecap:butt;stroke-linejoin:miter;stroke-opacity:1"
       d="m 75.06413,921.52705 c 0,1.13412 0,2.26825 0,3.4024 0,0.16213 0,0.64807 0,0.48606 0,-0.32406 0,-1.29615 0,-0.97212 0,0.64806 0,1.29615 0,1.94421 0,0.16214 0.13162,0.48607 0,0.48607 -0.131621,0 0,-0.64807 0,-0.48607 0,0.97213 0,1.94424 0,2.91636 0,0.16214 0.13162,0.48607 0,0.48607 -0.131621,0 -0.131621,-0.48607 0,-0.48607 0.18613,0 0.228362,0.3836 0.394841,0.48607 0.117723,0.0724 0.263228,0 0.39484,0 0.131621,0 0.263229,0 0.394842,0"
       id="path4221"
       inkscape:connector-curvature="0" />
    <path
       style="fill:none;fill-rule:evenodd;stroke:#000000;stroke-width:1.91495216px;stroke-linecap:butt;stroke-linejoin:miter;stroke-opacity:1"
       d="m 71.510562,932.70637 c -1.707048,-0.52536 -1.036707,-0.48606 -1.974204,-0.48606 -0.131621,0 -0.394841,0.16213 -0.394841,0 0,-0.16214 0.394841,-0.16214 0.394841,0 0,0.22911 -0.311601,0.28111 -0.394841,0.48606 -0.05885,0.14497 0,0.32402 0,0.48604 0,0.16214 0.13162,0.48607 0,0.48607 -0.13162,0 0,-0.64809 0,-0.48607 0,0.81011 0,1.6202 0,2.43028 0,0.17855 -0.01587,1.92468 0,1.94426 0.09306,0.11455 0.301774,-0.11456 0.394841,0 0.09306,0.11455 -0.09306,0.37148 0,0.48606 0.09306,0.11456 0.301775,-0.11456 0.394841,0 0.09306,0.11456 -0.09306,0.37149 0,0.48604 0.131465,0.16195 0.658214,-0.16194 0.78968,0 0.09306,0.11456 -0.09306,0.37151 0,0.48607 0.09306,0.11455 0.301778,-0.11456 0.394842,0 0.09306,0.11455 0,0.32404 0,0.48606 0,0.16195 0,0.32402 0,0.48605 0,0.16213 0.09306,0.37148 0,0.48604 -0.09306,0.11456 -0.301775,-0.11456 -0.394842,0 -0.526454,0.6481 0.65807,0.48606 -0.394838,0.48606"
       id="path4223"
       inkscape:connector-curvature="0" />
    <path
       style="fill:none;fill-rule:evenodd;stroke:#000000;stroke-width:1.91495216px;stroke-linecap:butt;stroke-linejoin:miter;stroke-opacity:1"
       d="m 78.222858,931.73424 c 0.526454,-0.48606 1.114039,-0.88535 1.579363,-1.45815 0.09306,-0.11456 -0.09306,-0.37151 0,-0.48606 0.09306,-0.11456 0.263228,0 0.394841,0 0.131621,0 0.394841,-0.16214 0.394841,0 0,0.16213 -0.526454,0 -0.394841,0 0.263229,0 0.554244,-0.14497 0.789683,0 0.117723,0.0724 0.131619,0.48606 0,0.48606 -0.131621,0 0,-0.64808 0,-0.48606 0,2.21266 -0.186131,0.0278 0.394841,1.45815 0.11771,0.28982 -0.186131,0.74299 0,0.97213 0.09306,0.11455 0.301775,-0.11456 0.39484,0 0.18613,0.22911 -0.117723,0.68228 0,0.9721 0.08325,0.20505 0.311602,0.28113 0.394842,0.48607 0.05885,0.14497 0,0.32404 0,0.48606 0,0.16213 0,0.32404 0,0.48606 0,0.16214 0.13162,0.48605 0,0.48605 -0.13162,0 0.13162,-0.48605 0,-0.48605 -0.18613,0 -0.228362,0.38358 -0.394842,0.48605 -0.117723,0.0724 -0.301776,-0.11456 -0.39484,0 -0.09306,0.11456 -0.131621,0.48604 0,0.48604 0.186128,0 0.58097,-0.48604 0.39484,-0.48604 -1.403898,0 -0.485851,1.08414 -0.789681,1.45817 -0.526454,0.64808 -0.394842,-0.81009 -0.394842,0.48606"
       id="path4225"
       inkscape:connector-curvature="0" />
    <path
       style="fill:none;fill-rule:evenodd;stroke:#000000;stroke-width:1.91495216px;stroke-linecap:butt;stroke-linejoin:miter;stroke-opacity:1"
       d="m 79.012539,929.79003 c 0.526456,0 1.05291,0 1.579364,0 0.408469,0 0.54573,-0.11456 0.789683,0.48606 0.05886,0.14497 0,0.32402 0,0.48606 0,0.16195 0.13162,0.48603 0,0.48603 -0.131621,0 0,-0.64807 0,-0.48603 0,0.32403 0,0.64807 0,0.97209 0,0.16214 0,0.32406 0,0.48607 0,0.16213 0.13162,0.48606 0,0.48606 -0.131621,0 0,-0.64807 0,-0.48606 0,0.32402 0,0.64808 0,0.9721 0,0.16214 0.09306,0.37151 0,0.48607 -0.09306,0.11455 -0.301777,-0.11456 -0.394841,0 -0.13188,0.16232 0.131878,0.80975 0,0.97212 -0.09306,0.11456 -0.301777,-0.11455 -0.394842,0 -0.09306,0.11456 0.13162,0.48605 0,0.48605 -0.13162,0 0,-0.32404 0,-0.48605"
       id="path4227"
       inkscape:connector-curvature="0" />
    <path
       style="fill:none;fill-rule:evenodd;stroke:#000000;stroke-width:1.91495216px;stroke-linecap:butt;stroke-linejoin:miter;stroke-opacity:1"
       d="m 70.720879,931.24818 c 0.526456,0.32406 1.05291,0.64808 1.579364,0.97213 -0.526454,-0.32405 -1.052909,-0.64809 -1.579364,-0.97213 z"
       id="path4229"
       inkscape:connector-curvature="0" />
    <path
       style="fill:#000080;fill-rule:evenodd;stroke:#000000;stroke-width:1.91495216px;stroke-linecap:butt;stroke-linejoin:miter;stroke-opacity:1"
       d="m 72.300243,931.73424 c 0.526455,-0.16213 1.44775,-1.13413 1.579366,-0.48606 0.131619,0.64808 -1.052911,0.32406 -1.579366,0.48606 z"
       id="path4231"
       inkscape:connector-curvature="0" />
    <path
       style="fill:#000000;fill-opacity:1;stroke:#000000;stroke-width:0.4380815;stroke-opacity:0.9888268"
       d="m 72.641645,981.7642 c -1.163423,-1.54537 -2.391579,-6.15359 -3.045383,-11.42672 -0.567627,-4.57804 -0.711979,-18.70108 -0.247159,-24.18136 0.252614,-2.97836 0.206768,-3.52391 -0.296131,-3.52391 -0.354568,0 -0.595018,-0.4438 -0.595018,-1.09825 0,-0.60401 -0.355357,-1.37139 -0.789682,-1.7053 -0.467591,-0.35948 -0.7968,-1.15061 -0.807132,-1.93965 -0.01708,-1.30695 -0.03207,-1.29848 -0.778804,0.44145 -0.454463,1.05891 -1.919604,2.80584 -3.634828,4.33388 -6.193632,5.51771 -9.697212,10.26213 -10.372288,14.0458 -0.221556,1.24178 -0.773746,1.76309 -3.88172,3.66461 -1.992883,1.21932 -6.19976,3.95478 -9.348616,6.07882 -3.148857,2.12401 -5.878603,3.86682 -6.066105,3.87289 -0.187503,0.006 -0.272645,-2.25931 -0.189203,-5.03419 l 0.151709,-5.04517 1.744001,-3.09629 c 0.959199,-1.70294 2.715578,-4.40323 3.903061,-6.00066 3.134091,-4.21608 3.763887,-6.25893 3.515187,-11.40224 -0.220895,-4.56827 -0.604486,-5.98176 -2.522907,-9.29661 -2.93387,-5.06944 -4.486062,-11.26291 -4.482334,-17.88514 0.0031,-5.48903 1.421963,-15.44562 3.070504,-21.54654 2.510485,-9.29078 4.642405,-11.79148 14.89294,-17.46895 10.229383,-5.66574 9.283302,-5.39522 20.531728,-5.87089 5.429062,-0.2296 10.404059,-0.41914 11.055545,-0.42121 2.282901,-0.006 4.435063,1.07575 5.961423,3 0.826869,1.04241 1.746265,1.89531 2.043098,1.89531 0.296832,0 1.343492,-0.68079 2.325905,-1.51287 l 1.786205,-1.51286 2.737799,2.30283 c 4.5124,3.79546 12.89146,15.21442 15.8669,21.62336 0.5585,1.20299 1.48444,4.15577 2.05763,6.56178 0.92754,3.89332 1.06607,5.47054 1.2594,14.33868 0.25603,11.7441 -0.0625,14.95689 -2.26773,22.87615 -1.78315,6.40343 -1.87528,7.6313 -0.7793,10.38687 1.28008,3.21842 3.31881,5.41576 7.21199,7.77311 2.00741,1.21546 4.14998,2.70669 4.76126,3.31382 l 1.11146,1.10387 -5.35014,4.24441 -5.35013,4.24442 -4.84265,-3.15671 c -2.66347,-1.73622 -5.21734,-3.72208 -5.67528,-4.41304 -0.67381,-1.0167 -0.87704,-1.11383 -1.0655,-0.50926 -0.12809,0.4109 -0.81948,1.11441 -1.53643,1.56337 -0.71695,0.44899 -1.36938,0.88779 -1.44985,0.97511 -0.0805,0.0873 0.41066,1.02451 1.0914,2.08258 1.13089,1.75773 2.62811,5.36436 2.33547,5.62588 -0.61006,0.54517 -11.125335,7.54137 -11.19108,7.44585 -0.04765,-0.0692 -0.488358,-1.11018 -0.979333,-2.31317 -0.490972,-1.20299 -2.106874,-3.65896 -3.590891,-5.45773 -1.484022,-1.79874 -3.13477,-4.09538 -3.668329,-5.10359 -1.315764,-2.4863 -1.970122,-7.06795 -1.718514,-12.03262 0.178121,-3.51463 0.455181,-4.74671 1.990173,-8.85022 0.980785,-2.62191 1.987897,-5.57167 2.238028,-6.55503 0.629732,-2.47567 3.171465,-7.13949 4.896968,-8.98541 1.289387,-1.37938 1.437856,-1.78487 1.437856,-3.92713 0,-2.08937 -1.037467,-7.36519 -3.398194,-17.28079 -0.368976,-1.54978 -0.786563,-2.64342 -0.927979,-2.43028 -0.141406,0.21313 -0.474657,1.45273 -0.740543,2.75472 -0.694039,3.39854 -2.15601,6.20186 -4.814529,9.23178 -2.740707,3.12361 -5.494286,4.8394 -9.279994,5.7825 l -2.752431,0.6857 -0.06416,2.87479 c -0.08713,3.90416 0.144617,4.84043 1.367931,5.52657 0.912968,0.51207 1.13002,0.45815 1.710993,-0.42507 0.723786,-1.10032 2.488915,-1.35994 2.953583,-0.43438 0.159374,0.31742 0.501951,1.70083 0.761289,3.07422 0.452966,2.39875 0.432094,2.54347 -0.530129,3.67583 -0.550911,0.64834 -1.149523,1.12411 -1.330247,1.05728 -0.429422,-0.15878 -0.427289,-0.11381 0.261342,5.51049 0.784126,6.40427 0.773549,19.73578 -0.02088,26.32206 -1.279467,10.6074 -3.915618,15.18612 -6.651217,11.55245 z m 3.630028,-3.54358 c 3.238217,-9.36383 3.011326,-35.26237 -0.381245,-43.51759 -0.984568,-2.39576 -1.83699,-2.20616 -2.995797,0.66633 -1.47387,3.65346 -2.102823,8.74616 -2.337657,18.92822 -0.241192,10.45784 0.392104,18.1814 1.896706,23.13185 1.45993,4.80345 2.365563,4.99112 3.817993,0.79119 z m 25.846467,-7.12441 c 1.46585,-0.99797 2.66518,-1.97159 2.66518,-2.16358 0,-0.93992 -2.52152,-4.97925 -4.70277,-7.5336 -2.527348,-2.95963 -3.68978,-5.2107 -4.117918,-7.97441 -0.136505,-0.88112 -0.715996,-2.35709 -1.28777,-3.27988 -1.530701,-2.47049 -2.094856,-4.87847 -2.114283,-9.02439 -0.02002,-4.27222 0.411148,-5.30619 4.4129,-10.58244 2.838424,-3.74244 4.408151,-6.34188 5.674911,-9.3976 0.76516,-1.84576 0.95041,-3.03647 0.95041,-6.10901 0,-5.62955 -0.83447,-8.52815 -3.34478,-11.61839 -1.459274,-1.7964 -2.345566,-3.43372 -2.968289,-5.48355 -1.289965,-4.24621 -2.839687,-6.99941 -6.535493,-11.61085 l -3.280216,-4.09288 -1.809454,1.30538 -1.809453,1.30541 -0.356017,-1.15273 c -0.395678,-1.28115 -2.024451,-2.78078 -3.020223,-2.78078 -0.839038,0 2.194592,4.11023 6.043043,8.18766 2.410895,2.55433 3.102541,3.6538 4.416228,7.02014 1.452652,3.72241 4.893801,16.79198 6.169999,23.43376 1.025125,5.33511 0.560132,8.42049 -1.522156,10.10007 -1.299492,1.04815 -3.716539,5.64049 -4.597586,8.73527 -0.399457,1.40315 -1.411458,4.30099 -2.248896,6.43965 -1.517978,3.87666 -1.522602,3.90694 -1.519885,9.96419 0.0031,7.38143 0.119257,7.70784 4.955862,13.95039 1.905766,2.45976 3.583212,4.93066 3.727657,5.4909 l 0.262628,1.01864 1.645599,-1.16644 c 0.905079,-0.64155 2.844932,-1.98295 4.310772,-2.98093 z m -64.90703,-5.53579 c 1.612787,-1.03413 2.59236,-1.98986 2.736385,-2.66984 0.123391,-0.58251 0.875657,-2.65535 1.671726,-4.60632 1.023556,-2.50851 1.262851,-3.45558 0.81718,-3.23424 -0.346616,0.17202 -0.836255,0.41714 -1.088091,0.5445 -0.251833,0.12724 -0.574151,-0.21942 -0.716256,-0.77059 -0.19288,-0.74811 0.301662,-1.91817 1.950866,-4.6157 2.490034,-4.07281 4.099569,-5.95053 6.722847,-7.84302 2.945295,-2.12482 3.490179,-4.67151 2.542759,-11.88445 -0.586401,-4.46442 -1.32136,-5.70833 -5.021015,-8.49799 -2.388932,-1.80134 -3.697577,-3.20016 -5.009437,-5.35464 -2.268055,-3.72488 -2.973732,-6.3142 -2.970988,-10.90137 0.0026,-4.30705 0.305948,-5.84544 2.48185,-12.58555 1.705466,-5.28285 1.510497,-4.99017 7.584391,-11.38551 0.217163,-0.22864 -0.827719,0.26662 -2.321962,1.10059 -1.928496,1.07634 -2.839305,1.36551 -3.138987,0.99662 -0.598193,-0.73639 -0.173549,-1.15766 4.746304,-4.70852 4.827509,-3.48422 5.06734,-3.96825 0.633931,-1.27936 -3.647172,2.21205 -6.555821,5.32289 -7.797699,8.3398 -2.474965,6.01243 -4.536935,17.87907 -4.551842,26.19584 -0.01209,6.71535 1.547014,13.20972 4.061174,16.91718 1.683573,2.48265 2.306016,4.57405 2.749353,9.23785 0.584762,6.15152 -0.01825,8.58215 -3.195787,12.88121 -1.261705,1.70705 -3.078322,4.41605 -4.036926,6.02005 -1.625852,2.72045 -1.753074,3.15702 -1.894091,6.49948 -0.08314,1.97071 0.0026,3.50022 0.190543,3.3989 0.187944,-0.10131 1.472141,-0.90905 2.853772,-1.79492 z m 84.70793,-3.06812 c 2.0729,-1.64158 3.67125,-3.17915 3.5519,-3.41685 -0.11935,-0.23773 -1.98251,-1.52288 -4.14036,-2.85589 -3.48139,-2.15068 -4.12234,-2.75645 -5.68985,-5.37769 -3.18606,-5.32781 -3.21452,-6.74109 -0.33162,-16.47264 l 1.5119,-5.10361 0.002,-12.39448 c 0.002,-11.43801 -0.0665,-12.68735 -0.89113,-16.19022 -1.572,-6.67738 -3.4718,-10.34596 -9.93737,-19.18939 -3.41595,-4.67223 -8.277102,-9.8253 -9.26608,-9.82248 -0.239069,6.7e-4 -1.716369,1.05127 -3.282892,2.33468 l -2.848221,2.33348 4.344317,5.32069 c 3.703911,4.53639 4.609096,5.96558 6.140486,9.69524 0.9879,2.40597 2.59917,5.57655 3.58062,7.04569 3.29819,4.93713 4.76117,10.31633 4.30833,15.84118 -0.12946,1.58081 -0.39345,6.9206 -0.58654,11.86622 -0.36511,9.35187 -0.48151,10.05255 -3.16724,19.06563 -1.06289,3.567 -1.04086,5.3887 0.10153,8.39665 1.53355,4.03791 3.95044,6.84555 8.15063,9.4684 2.06304,1.28827 3.96009,2.3643 4.21566,2.39115 0.25557,0.0267 2.16068,-1.29423 4.23355,-2.93576 z m -75.500471,-3.15837 3.822695,-2.25604 1.278936,-3.21286 c 1.466214,-3.68335 5.154853,-8.50189 8.872914,-11.59083 4.818425,-4.00314 5.697235,-6.36694 5.065089,-13.62401 l -0.327443,-3.7591 -0.231072,4.1315 c -0.325314,5.81653 -1.352951,7.83724 -5.939789,11.67979 -1.237999,1.03711 -3.260563,3.50525 -4.643124,5.666 -2.125136,3.3213 -2.787578,4.00969 -5.000812,5.19662 -1.534286,0.82283 -3.101107,2.11748 -3.930829,3.24807 -1.422342,1.93808 -3.629397,6.77479 -3.092044,6.77615 0.166536,4.1e-4 2.022997,-1.01446 4.125479,-2.25529 z m 57.359071,0.71833 c 0.55312,-0.31024 1.00501,-0.80238 1.0042,-1.09362 -0.002,-0.8692 -1.51426,-3.67962 -4.33765,-8.06346 -1.463474,-2.27231 -2.951487,-4.83149 -3.306699,-5.68705 -0.896223,-2.15864 -0.905116,-9.68085 -0.01329,-11.24824 1.270464,-2.23287 0.206849,-1.5079 -1.374347,0.93681 -1.592831,2.46266 -1.627233,2.59605 -1.627233,6.30917 0,2.08635 0.187129,4.39924 0.415843,5.13977 0.228715,0.74053 1.686491,3.32481 3.239508,5.74281 1.553011,2.41802 3.246698,5.32597 3.763748,6.46213 1.0694,2.34994 0.91203,2.24423 2.23593,1.50168 l 1e-5,0 z m -3.73241,-1.52877 c 0,-0.0817 -0.444198,-0.88974 -0.987105,-1.79561 -0.542907,-0.90587 -0.987103,-1.41533 -0.987103,-1.13211 0,0.28322 0.368253,1.09125 0.81834,1.79564 0.731515,1.14482 1.155868,1.56043 1.155868,1.13208 z m -51.724163,-8.59212 c 1.917197,-0.97573 4.604806,-3.7368 4.164721,-4.27858 -0.0892,-0.10989 -1.614937,0.80612 -3.390546,2.03534 -1.775615,1.22923 -3.417332,2.23494 -3.648265,2.23494 -0.520908,0 -1.864001,1.45987 -1.864001,2.02608 0,0.22951 0.577455,0.1181 1.283233,-0.24766 0.705776,-0.3657 2.260463,-1.16226 3.454858,-1.77012 z m 54.709423,-0.61588 c 0.0173,-2.19757 0.32692,-3.90114 1.11923,-6.15882 1.78576,-5.08845 2.60951,-9.87397 2.59275,-15.06242 l -0.015,-4.66133 -1.86044,2.45841 c -1.02324,1.35213 -2.16073,3.2113 -2.52776,4.13149 -2.428008,6.08743 -4.268201,11.67359 -4.268201,12.9567 0,1.09907 0.6607,2.5501 2.467761,5.41974 1.35726,2.15533 2.46775,3.92674 2.46775,3.93644 0,0.0112 0.0107,-1.34938 0.024,-3.02021 l -1e-5,0 z M 70.958626,936.47541 c 0.524532,-2.09694 0.575763,-2.8405 0.21464,-3.11527 -0.260885,-0.19844 -0.734949,-0.0399 -1.053474,0.35207 -0.318525,0.3921 -0.808041,0.6048 -1.08781,0.47263 -0.576906,-0.27251 -0.968868,0.69187 -0.968868,2.38382 0,0.9778 1.252982,2.66113 1.980803,2.66113 0.124145,0 0.53577,-1.23947 0.914709,-2.75438 z m -14.739298,1.29531 1.549348,-0.97302 0.425806,0.9794 c 0.413458,0.95105 0.470954,0.93478 1.983199,-0.56123 0.856567,-0.84738 1.940113,-2.51394 2.40788,-3.70344 0.746515,-1.89836 0.823814,-2.71302 0.632324,-6.66416 -0.332983,-6.87063 -1.755999,-9.49194 -7.032156,-12.95379 -2.889254,-1.89571 -5.544299,-5.70326 -6.535276,-9.37213 -1.032726,-3.82343 -0.573971,-8.79688 1.353067,-14.66884 0.869834,-2.65053 1.515501,-4.9041 1.434815,-5.00801 -0.08068,-0.10392 -1.378649,0.60803 -2.88436,1.58204 -1.505709,0.97405 -2.981641,1.6557 -3.279844,1.51483 -1.005113,-0.47479 -1.846397,0.95806 -3.429532,5.84105 -2.121291,6.54289 -2.534246,8.81473 -2.360655,12.98689 0.245322,5.89617 2.620756,10.28735 7.414986,13.7072 5.357482,3.82162 6.42699,6.00508 6.495158,13.2602 0.02586,2.75183 0.09852,5.00394 0.161445,5.00467 0.06295,9.9e-4 0.811646,-0.43651 1.663786,-0.97166 z m 42.641377,-2.42938 c 0.443153,-1.06933 0.71067,-1.94424 0.594483,-1.94424 -0.256345,0 -1.775457,3.01163 -1.777529,3.52393 -0.0031,0.8237 0.422885,0.25458 1.183046,-1.57969 z m -19.921126,-2.7622 c -0.128956,-0.43451 -0.401928,-0.44059 -1.117459,-0.0248 -0.926036,0.53797 -0.933252,0.58918 -0.32852,2.33233 l 0.618305,1.7823 0.499154,-1.75739 c 0.274537,-0.96657 0.422369,-2.01614 0.32852,-2.33235 l 0,0 z m -8.393634,-0.82792 c 1.00026,-0.37059 1.916892,-0.55286 2.036959,-0.40505 0.120063,0.14795 0.2183,-1.73626 0.2183,-4.1868 l 0,-4.45553 -1.346767,0 c -0.74072,0 -2.391094,-0.40012 -3.667499,-0.88915 l -2.320739,-0.88918 0.693306,2.46886 c 0.381318,1.35785 0.699105,3.26173 0.706195,4.23082 0.02243,3.06399 0.450602,4.79981 1.184016,4.79981 0.372665,0 1.495969,-0.30322 2.496229,-0.67378 z m 31.915185,-5.28044 c 1.6901,-2.41392 3.97475,-6.81645 4.51436,-8.69919 1.07039,-3.73468 0.54337,-10.35058 -1.14445,-14.3665 -0.36006,-0.85673 -1.35866,-2.25412 -2.2191,-3.10534 -1.16325,-1.15076 -1.88072,-2.4964 -2.7977,-5.24714 -1.708864,-5.12622 -2.510092,-6.50781 -7.216145,-12.44316 l -4.118562,-5.1944 -1.276832,0.81281 -1.276837,0.81281 4.579149,5.70733 c 4.263899,5.3144 4.713408,6.06038 6.529345,10.8356 1.339466,3.52228 2.325102,5.45692 3.147342,6.17764 0.6661,0.58388 1.75489,2.44407 2.45449,4.19348 1.0652,2.66359 1.28714,3.84488 1.4522,7.72962 0.21358,5.02648 -0.19561,6.99178 -2.22996,10.71018 -0.58819,1.07512 -1.20575,2.22817 -1.37236,2.56232 -0.50416,1.0112 0.1578,0.68122 0.97506,-0.48606 z m -23.480957,-6.43123 c 2.839079,-1.04268 6.546726,-4.22946 8.256354,-7.09649 2.096184,-3.51526 2.937676,-6.61585 2.937676,-10.82423 0,-6.14809 -1.508516,-8.80961 -9.615583,-16.96509 -1.123599,-1.13032 -6.544694,-2.53575 -7.107686,-1.8427 -0.227052,0.27951 -1.597166,0.50821 -3.044695,0.50821 -2.218653,0 -3.065733,0.26719 -5.39527,1.70186 -3.306214,2.03614 -6.0445,5.44351 -7.531259,9.37147 -0.896368,2.36817 -1.051164,3.4264 -1.046426,7.15382 0.007,5.54476 0.738252,7.64208 4.272032,12.25347 2.716831,3.54532 5.507678,5.54222 9.030289,6.46133 2.191646,0.57183 6.675633,0.22181 9.244568,-0.72165 z M 55.64185,910.4875 c -0.572591,-0.8377 -1.387938,-2.36005 -1.811883,-3.38304 -1.561675,-3.76831 -0.688739,-12.50568 1.894914,-18.9665 1.471518,-3.67977 1.47438,-3.69867 0.493004,-3.26136 -1.81143,0.80726 -2.393744,1.72483 -3.845493,6.0596 -1.25995,3.7621 -1.444617,4.82675 -1.463383,8.43687 -0.02566,4.93817 0.615124,6.883 3.40317,10.32873 2.116969,2.61635 2.89538,3.07629 1.329671,0.7857 z m 0.733536,-16.46092 c 1.553112,-3.79681 3.422698,-6.42181 6.19957,-8.70453 2.652013,-2.18006 2.526629,-2.63495 -0.656708,-2.38248 -1.842971,0.14628 -1.948264,0.2399 -3.587447,3.19324 -2.366161,4.26315 -3.359014,8.42472 -3.506703,14.69845 l -0.120141,5.10359 0.288978,-4.61753 c 0.225357,-3.60099 0.529707,-5.20605 1.382453,-7.29074 z m -3.13855,-12.70224 c 0.206303,-0.23178 0.253392,-0.42143 0.104644,-0.42143 -0.38676,0 -4.230729,2.95039 -4.230729,3.24723 0,0.26874 3.513481,-2.13753 4.126088,-2.8258 z m 22.528203,-2.45199 c 1.839748,-1.65147 3.302421,-3.05506 3.250384,-3.11911 -0.05204,-0.0642 -2.226659,-0.3859 -4.83249,-0.71518 -4.210225,-0.53202 -4.97973,-0.50789 -6.909502,0.21661 -1.887964,0.7088 -2.335349,1.13094 -3.425029,3.23173 -1.425121,2.74747 -1.451422,2.71159 2.240505,3.054 6.142095,0.56961 6.037068,0.59858 9.676132,-2.66805 z m 2.220529,2.34988 c -0.34153,-0.5066 -0.219704,-0.77643 0.543917,-1.20473 1.028422,-0.57683 1.341607,-1.55468 0.490464,-1.53136 -0.271454,0.009 -1.167996,0.64204 -1.992316,1.41022 -1.529578,1.42545 -1.425551,1.86298 0.461297,1.94028 0.740668,0.0304 0.844624,-0.0981 0.496638,-0.61441 z m 7.845386,-0.31182 c 0,-0.20609 -0.266518,-0.64684 -0.592261,-0.97963 -0.325743,-0.33281 -0.592261,-0.77596 -0.592261,-0.98481 0,-0.20885 1.438274,-1.51551 3.196161,-2.90366 l 3.196167,-2.52392 -1.123252,-1.47119 c -1.216063,-1.5928 -3.166185,-2.80968 -4.502663,-2.80968 -0.461076,0 -1.917501,0.92957 -3.236511,2.06575 l -2.398193,2.06573 2.240294,0.24303 2.240291,0.24304 -1.994381,1.66971 -1.994383,1.66972 0.905004,1.10109 c 2.159394,2.62732 4.655988,4.02941 4.655988,2.61482 z m -23.098193,-8.16402 5.132931,-3.13968 -2.443595,0.29091 c -1.386727,0.16512 -3.973191,1.04454 -5.980175,2.0334 -3.190025,1.57174 -3.553111,1.88115 -3.705296,3.15762 -0.156077,1.30902 -0.09254,1.39194 0.847243,1.10625 0.558777,-0.16978 3.325778,-1.72168 6.148892,-3.4485 z m 16.483953,-1.52495 c 1.031162,-0.91382 1.830715,-1.67935 1.776785,-1.7012 -0.05394,-0.0218 -2.910622,0.0306 -6.348202,0.11661 -5.49085,0.13731 -6.221194,0.24918 -6.011807,0.92089 0.131085,0.42054 -0.01743,1.11575 -0.330053,1.54491 -0.518607,0.71197 -0.147636,0.78031 4.235019,0.78031 l 4.803418,0 1.87484,-1.66148 z"
       id="path4233"
       inkscape:connector-curvature="0" />
    <path
       style="fill:none;fill-rule:evenodd;stroke:#000000;stroke-width:1.91495216px;stroke-linecap:butt;stroke-linejoin:miter;stroke-opacity:1"
       d="m 69.536358,939.02512 c -0.526454,0 -1.063132,-0.12706 -1.579364,0 -0.182515,0.045 -0.263227,0.32404 -0.394841,0.48606 -0.131621,0.16195 -0.311601,0.28111 -0.394842,0.48605 -0.05885,0.14496 0.09306,0.37148 0,0.48604 -0.09306,0.11456 -0.277121,-0.0724 -0.394841,0 -0.166484,0.10243 -0.263226,0.32406 -0.394841,0.48606 -0.13162,0.16214 -0.311601,0.28111 -0.394839,0.48607 -0.05885,0.14496 0.05886,0.34113 0,0.48606 -0.821618,2.02286 0.02725,-0.51961 -0.789683,0.48606 -0.09306,0.11456 0.05886,0.34113 0,0.48607 -0.266565,0.65627 -0.523115,0.31579 -0.789681,0.97209 -0.272313,0.67045 0.478174,0.43477 -0.394841,0.97212 -0.117723,0.0724 -0.301776,-0.11456 -0.394842,0 -0.18613,0.22913 0.117723,0.68228 0,0.97211 -0.08324,0.20503 -0.3116,0.28111 -0.394841,0.48606 -0.07828,0.19272 0.08072,1.3588 0,1.45819 -0.09306,0.11456 -0.301775,-0.11455 -0.394841,0 -0.09306,0.11456 0.05886,0.34113 0,0.48605 -0.08324,0.20504 -0.311601,0.28113 -0.39484,0.48604 -0.11771,0.28984 0.186129,0.743 0,0.97213 -0.09306,0.11455 -0.301776,-0.11456 -0.39484,0 -0.09306,0.11455 0.05885,0.34115 0,0.48606 -0.08325,0.20503 -0.311602,0.28111 -0.394842,0.48605 -0.05886,0.14496 0.09306,0.3715 0,0.48606 -0.09306,0.11456 -0.301776,-0.11456 -0.394841,0 -0.09306,0.11456 0.09306,0.37151 0,0.48606 -0.09306,0.11456 -0.301776,-0.11455 -0.39484,0 -0.08072,0.0995 0.07827,1.26546 0,1.45815 -0.08324,0.20503 -0.311602,0.28115 -0.394841,0.48607 -0.157941,0.38886 0.157939,1.06935 0,1.45819 -0.08324,0.20502 -0.311601,0.28111 -0.394842,0.48604 -0.05886,0.14497 0.09306,0.37151 0,0.48607 -0.09306,0.11455 -0.301774,-0.11456 -0.394841,0 -0.08072,0.0994 0.07827,1.26545 0,1.45815 -0.08324,0.20504 -0.311601,0.28115 -0.394841,0.48606 -0.05886,0.14497 0.09306,0.37151 0,0.48606 -0.09306,0.11456 -0.301775,-0.11455 -0.394842,0 -0.186128,0.22915 0.186131,0.743 0,0.97213 -0.09306,0.11456 -0.301774,-0.11456 -0.39484,0 -0.19742,0.24301 0.197421,1.21514 0,1.45817 -0.526454,0.64807 -0.39484,-0.81008 -0.39484,0.48607"
       id="path4235"
       inkscape:connector-curvature="0" />
    <path
       style="fill:none;fill-rule:evenodd;stroke:#000000;stroke-width:1.91495216px;stroke-linecap:butt;stroke-linejoin:miter;stroke-opacity:1"
       d="m 58.085971,958.95347 c -0.394841,0.64808 -0.789681,1.29615 -1.184522,1.94423 -0.131621,0 -0.301778,-0.11455 -0.394842,0 -0.09306,0.11456 0.09306,0.37149 0,0.48607 -0.81694,1.00567 0.03193,-1.53682 -0.789682,0.48604 -0.05886,0.14497 0.09306,0.37149 0,0.48604 -0.09306,0.11456 -0.301775,-0.11455 -0.394842,0 -0.09306,0.11456 0.09306,0.37151 0,0.48607 -0.09306,0.11455 -0.301774,-0.11456 -0.39484,0 -0.09306,0.11455 0.09306,0.3715 0,0.48606 -0.186129,0.22913 -0.603552,-0.22911 -0.789681,0 -0.09306,0.11456 0.09306,0.37151 0,0.48606 -0.18613,0.22914 -0.603553,-0.22913 -0.789682,0 -0.526454,0.64809 0.658068,0.48607 -0.394841,0.48607"
       id="path4239"
       inkscape:connector-curvature="0" />
    <path
       style="fill:none;fill-rule:evenodd;stroke:#000000;stroke-width:1.91495216px;stroke-linecap:butt;stroke-linejoin:miter;stroke-opacity:1"
       d="m 57.69113,966.73039 c 0,-0.48607 0,-0.97211 0,-1.45817 0,-0.32405 0,0.64806 0,0.9721 0,0.47913 0,-0.49298 0,-0.9721 0,-1.66389 -0.109558,-3.25985 0.394841,-4.86058 0.658067,0.64806 1.316137,1.29617 1.974204,1.94421 0,0.16214 -0.05886,0.34117 0,0.48607 0.08324,0.20504 0.311601,0.28111 0.394842,0.48606 0.05885,0.14497 -0.09306,0.37151 0,0.48606 0.09306,0.11456 0.301776,-0.11455 0.394841,0 0.197419,0.24302 -0.197422,1.21514 0,1.45818 0.526454,0.64806 0.39484,-0.81009 0.39484,0.48606"
       id="path4241"
       inkscape:connector-curvature="0" />
    <path
       style="fill:#000080;fill-rule:evenodd;stroke:#000000;stroke-width:1.91495216px;stroke-linecap:butt;stroke-linejoin:miter;stroke-opacity:1"
       d="m 70.720879,970.61884 c -0.263225,0.64808 -0.436524,1.36458 -0.78968,1.94423 -0.07897,0.12967 -0.301777,-0.11456 -0.394841,0 -0.09306,0.11456 0.05885,0.34115 0,0.48606 -0.08325,0.20503 -0.291595,0.29543 -0.394841,0.48607 -0.163239,0.30143 -0.186742,0.71592 -0.394842,0.97212 -0.208099,0.25617 -0.626436,0.18471 -0.789681,0.48605 -0.146015,0.2696 0.117723,0.68228 0,0.97211 -0.166484,0.40988 -0.566325,0.6055 -0.789683,0.97212 -0.176577,0.28983 -0.186741,0.71594 -0.394841,0.97211 -0.09306,0.11456 -0.301775,-0.11456 -0.394841,0 -0.816939,1.00567 1.248393,-0.0394 -0.394839,0.97213 -0.117723,0.0724 -0.301777,-0.11456 -0.394841,0 -0.09306,0.11455 0.09306,0.37147 0,0.48606 -0.09306,0.11456 -0.301778,-0.11456 -0.394842,0 -0.816939,1.00565 1.248392,-0.0394 -0.394841,0.97209 -0.235438,0.14497 -0.603551,-0.22911 -0.789681,0 -0.09306,0.11456 0.09306,0.37151 0,0.48606 -0.09306,0.11456 -0.277123,-0.0724 -0.394842,0 -0.166484,0.10243 -0.22836,0.38358 -0.394841,0.48607 -0.11771,0.0724 -0.277121,-0.0724 -0.394841,0 -0.166484,0.10243 -0.263226,0.32402 -0.39484,0.48606 0,0.16213 0.117722,0.4136 0,0.48604 -0.235438,0.14497 -0.554244,-0.14496 -0.789682,0 -0.117723,0.0724 0.09306,0.37151 0,0.48607 -0.09306,0.11455 -0.285331,-0.0899 -0.394841,0 -0.263227,0.32404 -0.526454,0.64806 -0.789681,0.97212 -0.131621,0 -0.277123,-0.0724 -0.394842,0 -1.643233,1.01142 0.422099,-0.0336 -0.394841,0.97209 -0.09306,0.11456 -0.301775,-0.11455 -0.394841,0 -0.09306,0.11456 0.09306,0.37151 0,0.48607 -0.816939,1.00567 0.03193,-1.5368 -0.789682,0.48606 -0.11771,0.28982 0.235438,0.82719 0,0.97213 -0.235438,0.14496 -0.570662,-0.17968 -0.789681,0 -0.24487,0.20097 -0.231595,0.67066 -0.39484,0.9721 -0.103253,0.19059 -0.291596,0.29541 -0.394841,0.48607 -0.163241,0.30143 -0.231597,0.67068 -0.394842,0.9721 -0.103253,0.19057 -0.291596,0.29541 -0.394841,0.48605 -0.163239,0.30145 -0.186742,0.71596 -0.394841,0.97213 -0.09306,0.11455 -0.301775,-0.11456 -0.394842,0 -0.208099,0.25616 -0.301774,0.62841 -0.39484,0.97212 -0.04162,0.15355 0.09306,0.37149 0,0.48605 -0.09306,0.11455 -0.301776,-0.11456 -0.394841,0 -0.09306,0.11455 0.09306,0.37148 0,0.48606 -0.09306,0.11456 -0.301776,-0.11456 -0.39484,0 -0.01274,0.0149 0,1.34029 0,1.45817 0,0.64809 0,1.29615 0,1.94424 0,0.16213 0.131621,0.48606 0,0.48606 -0.13162,0 0,-0.64809 0,-0.48606 0,0.48606 0,0.9721 0,1.45815 0,0.33807 -0.0714,2.25452 0,2.4303 0.08324,0.20502 0.311601,0.2811 0.39484,0.4861 0.05886,0.1449 -0.09306,0.3715 0,0.486 0.09306,0.1146 0.277124,-0.072 0.394841,0 0.166484,0.1025 0.228362,0.3836 0.39484,0.4861 0.117723,0.072 0.301777,-0.1146 0.394842,0 0.09306,0.1145 -0.09306,0.3715 0,0.486 0.132311,0.1631 0.657376,-0.1629 0.789682,0 0.09306,0.1146 -0.09306,0.3715 0,0.4861 0.09306,0.1145 0.277121,-0.072 0.394842,0 0.166483,0.1024 0.22836,0.3836 0.394841,0.486 0.120154,0.074 1.006702,0 1.184521,0 0.789682,0 1.579364,0 2.369047,0 0.658067,0 1.316135,0 1.974203,0 0.13162,0 0.263228,0 0.394841,0 0.131621,0 0.277122,-0.072 0.394841,0 0.798559,0.4916 0.126616,1.128 0.394842,1.4582 0.09306,0.1146 0.301776,-0.1145 0.394841,0 0.08072,0.1 -0.07827,1.2655 0,1.4582 0.166484,0.4099 0.623201,0.5622 0.789681,0.9721 0.105502,0.2598 -0.105502,0.7123 0,0.9721 0.08325,0.205 0.311601,0.2811 0.394842,0.4861 0.05886,0.1449 -0.09306,0.3715 0,0.486 0.09306,0.1146 0.277122,-0.072 0.394841,0 0.166484,0.1025 0.22836,0.3836 0.394839,0.4861 0.103812,0.064 1.372894,0 1.579365,0 0.279864,0 2.266959,0.063 2.369047,0 0.332957,-0.205 0.45672,-0.7672 0.78968,-0.9721 0.117723,-0.072 0.277123,0.072 0.394841,0 0.166484,-0.1025 0.263227,-0.3241 0.394841,-0.4861 0.13162,-0.1619 0.311601,-0.2811 0.39484,-0.486 0.05886,-0.145 -0.05885,-0.3412 0,-0.4861 0.436508,-1.0747 0.245056,-0.151 0.789683,-0.4861 0.166484,-0.1024 0.22836,-0.3836 0.394841,-0.486 0.11771,-0.072 0.301775,0.1146 0.394842,0 0.09306,-0.1146 -0.09306,-0.3715 0,-0.4861 0.09306,-0.1145 0.277121,0.072 0.39484,0 0.166485,-0.1024 0.228361,-0.3835 0.39484,-0.486 0.05391,-0.033 2.315121,-0.033 2.369046,0 1.643232,1.0114 -0.422098,-0.034 0.394842,0.9721 0.09306,0.1146 0.301774,-0.1146 0.394841,0 0.09306,0.1146 -0.09306,0.3715 0,0.486 0.186128,0.2292 0.554244,-0.1449 0.78968,0 1.643235,1.0115 -0.422099,-0.034 0.394841,0.9722 0.09306,0.1145 0.301776,-0.1146 0.394842,0 0.09306,0.1145 -0.09306,0.3715 0,0.486 0.19742,0.2431 0.987101,-0.243 1.184522,0 0.09306,0.1146 0,0.3241 0,0.4861 0.13162,0 0.301775,-0.1146 0.394842,0 0.09306,0.1145 -0.09306,0.3715 0,0.486 0.01274,0.015 1.088762,0 1.184523,0 0.206469,0 1.475543,0.064 1.579362,0 0.166484,-0.1024 0.263229,-0.324 0.394842,-0.486 0.131619,-0.1622 0.3116,-0.2811 0.394841,-0.4861 0.05886,-0.145 -0.09306,-0.3715 0,-0.486 0.09306,-0.1146 0.277121,0.072 0.394841,0 0.166484,-0.1025 0.263226,-0.3241 0.39484,-0.4861 0.131621,-0.162 0.311602,-0.2811 0.394842,-0.4861 0.05885,-0.1449 -0.09306,-0.3714 0,-0.486 0.09306,-0.1146 0.301776,0.1146 0.394841,0 0.09306,-0.1146 0,-0.3241 0,-0.4861 0.131621,0 0.277122,0.072 0.39484,0 0.166484,-0.1024 0.263227,-0.324 0.39484,-0.486 0.131621,-0.1622 0.311603,-0.2811 0.394841,-0.4861 0.05885,-0.145 -0.09306,-0.3715 0,-0.486 0.580972,0 0.301778,0.1145 0.789683,-0.4861 0.131619,-0.1621 0.263228,-0.324 0.394841,-0.4861 0,-0.1621 -0.09306,-0.3715 0,-0.486 0.09306,-0.1146 0.263227,0 0.394842,0 0.177819,0 1.064358,-0.074 1.184522,0 0.166484,0.1024 0.22836,0.3836 0.394839,0.486 0.235439,0.145 0.603555,-0.2291 0.789683,0 0.09306,0.1146 -0.09306,0.3715 0,0.4861 0.01587,0.019 1.434365,0 1.579364,0 0.526454,0 1.052908,0 1.579362,0 0.131621,0 0.394842,-0.1621 0.394842,0 0,0.1621 -0.526455,0 -0.394842,0 0.263229,0 0.554247,0.145 0.789683,0 0.117723,-0.072 0,-0.324 0,-0.4861 0,-0.1621 0,-0.324 0,-0.486 0,-0.8101 0,-1.6202 0,-2.4303 0,-0.16214 0,-0.32403 0,-0.48607 0,-0.16213 -0.05885,-0.34113 0,-0.48604 0.08325,-0.20505 0.311601,-0.28113 0.394841,-0.48607 0.117723,-0.28982 -0.18613,-0.74297 0,-0.97212 0.09306,-0.11456 0.263227,0 0.394842,0 0.789681,0 1.579364,0 2.369044,0 0.13162,0 0.301777,0.11455 0.394841,0 0.09306,-0.11456 0,-0.32403 0,-0.48605 0,-0.16213 0,-0.64808 0,-0.48604 0,0.32402 0,1.29615 0,0.97209 0,-0.11232 0.07052,-2.74274 0,-2.91634 -0.08324,-0.20503 -0.311601,-0.28112 -0.394841,-0.48605 -0.05886,-0.14497 0.09306,-0.37151 0,-0.48606 -0.186128,-0.22913 -0.554244,0.14497 -0.78968,0 -0.166484,-0.10243 -0.228363,-0.3836 -0.394842,-0.48607 -0.117722,-0.0724 -0.301777,0.11456 -0.394841,0 -0.131757,-0.16213 0.131759,-0.8099 0,-0.9721 -0.09306,-0.11456 -0.277121,0.0724 -0.394841,0 -0.166484,-0.10243 -0.263227,-0.32405 -0.39484,-0.48605 -0.131621,-0.16213 -0.311601,-0.28113 -0.394842,-0.48606 -0.05886,-0.14497 0.05885,-0.34113 0,-0.48606 -0.08324,-0.20503 -0.263225,-0.32403 -0.394841,-0.48607 -0.131619,-0.16213 -0.22836,-0.38358 -0.394841,-0.48606 -0.11771,-0.0724 -0.301775,0.11456 -0.394842,0 -0.186128,-0.22911 0.186131,-0.74298 0,-0.97211 -0.09306,-0.11456 -0.277121,0.0724 -0.394838,0 -0.166484,-0.10243 -0.263229,-0.32404 -0.394842,-0.48604 -0.131619,-0.16214 -0.311602,-0.28113 -0.394841,-0.48607 -0.05886,-0.14496 0.05885,-0.34115 0,-0.48606 -0.821617,-2.02284 0.02725,0.51961 -0.789681,-0.48604 -0.09306,-0.11456 0.05885,-0.34116 0,-0.48607 -0.08325,-0.20502 -0.311601,-0.28111 -0.394842,-0.48606 -0.05885,-0.14497 0.09306,-0.37151 0,-0.48606 -0.09306,-0.11456 -0.301776,0.11455 -0.394841,0 -0.131879,-0.16232 0.131879,-0.80976 0,-0.97211 -0.09306,-0.11456 -0.301775,0.11455 -0.394841,0 -0.09306,-0.11456 0.09306,-0.37149 0,-0.48605 -0.09306,-0.11455 -0.301775,0.11456 -0.394842,0 -0.131671,-0.16213 0.131673,-0.81003 0,-0.97212 -0.09306,-0.11456 -0.301774,0.11455 -0.394841,0 -0.09306,-0.11456 0.09306,-0.37149 0,-0.48607 -0.09306,-0.11455 -0.301775,0.11456 -0.394839,0 -0.09306,-0.11455 0.09306,-0.37148 0,-0.48604 -0.81694,-1.00567 0.03193,1.53679 -0.789682,-0.48606 -0.272314,-0.67044 0.478173,-0.43478 -0.39484,-0.97213 -0.117723,-0.0724 -0.301778,0.11456 -0.394842,0 -0.09306,-0.11456 0.09306,-0.37147 0,-0.48606 -0.09306,-0.11456 -0.301777,0.11455 -0.394841,0 -0.09306,-0.11456 0.05886,-0.34114 0,-0.48603 -0.08324,-0.20504 -0.311601,-0.28115 -0.394841,-0.48606 -0.05885,-0.14497 0.04163,-0.33237 0,-0.48607 -0.09306,-0.3437 -0.301775,-0.62843 -0.394842,-0.97212 -0.04161,-0.15355 0.05885,-0.34114 0,-0.48605 -0.08324,-0.20504 -0.3116,-0.28113 -0.394841,-0.48606 -0.15794,-0.38884 0.157941,-1.06933 0,-1.45817 -0.08325,-0.20503 -0.311601,-0.28113 -0.39484,-0.48605 -0.11771,-0.28986 0.186129,-0.74299 0,-0.97212 -0.186129,-0.22913 -0.603552,0.22913 -0.789681,0 -0.18613,-0.22913 0.117709,-0.6823 0,-0.97213 -0.08324,-0.20503 -0.311602,-0.28111 -0.394842,-0.48604 -0.05885,-0.14497 0.05885,-0.34115 0,-0.48607 -0.05242,-0.12892 -1.079687,-1.39363 -1.184522,-1.45817 -0.117723,-0.0724 -0.301778,0.11456 -0.394842,0 -0.09306,-0.11455 0.09306,-0.37149 0,-0.48604 -0.09306,-0.11456 -0.263226,0 -0.394841,0 -0.13162,0 -0.263226,0 -0.39484,0 -0.789681,0 -1.579363,0 -2.369046,0 -0.13162,0 -0.263228,0 -0.394841,0 -0.131619,0 -0.277121,0.0724 -0.394841,0 -0.166484,-0.10243 -0.22836,-0.3836 -0.39484,-0.48607 -0.142787,-0.0879 -1.699577,0 -1.974204,0 -1.184524,0 -2.369047,0 -3.553568,0 -0.226635,0 -1.449972,-0.0955 -1.579366,0 -0.564288,0.41679 -1.052908,0.97211 -1.579364,1.45816 z"
       id="path4247"
       inkscape:connector-curvature="0" />
    <path
       style="fill:none;fill-rule:evenodd;stroke:#000000;stroke-width:1.91495216px;stroke-linecap:butt;stroke-linejoin:miter;stroke-opacity:1"
       d="m 66.77247,1009.0174 c 0,1.9442 0,3.8885 0,5.8327 0,0.3247 0,0.6474 0,0.9721 0,0.1621 0.131621,0.486 0,0.486 -0.162083,0 0.42128,-2.5279 -0.394841,0.4861 -0.04162,0.1536 0.09306,0.3715 0,0.4861 -0.09306,0.1145 -0.301775,-0.1146 -0.394839,0 -0.197422,0.243 0.197419,1.2151 0,1.4582 -0.09306,0.1145 -0.301777,-0.1146 -0.394841,0 -0.01587,0.019 0,1.7657 0,1.9442 0,0.1621 0,0.6481 0,0.486 0,-0.324 0,-1.2961 0,-0.9721 0,0.1125 0.07052,2.7427 0,2.9164 -0.08324,0.205 -0.311601,0.2811 -0.394842,0.486 -0.117722,0.2899 0.18613,0.743 0,0.9721 -0.09306,0.1146 -0.335981,-0.1449 -0.394841,0 -0.39484,0.9721 0.197421,0.7291 0,1.4582 -0.33555,1.2392 -1.104824,2.2341 -1.579364,3.4024 -0.43646,1.0746 -0.394841,1.1157 -0.394841,1.9442 0,0.162 0,0.3241 0,0.4861 0,0.1619 0.09306,0.3715 0,0.4861 -0.09306,0.1145 -0.301775,-0.1146 -0.39484,0 -0.138593,0.1705 0.136366,2.0945 0,2.4302 -0.08324,0.2051 -0.311602,0.2811 -0.39484,0.4861 -0.05886,0.145 0,0.324 0,0.4861 0,0.3799 0.07193,3.1367 0,3.4024 -0.953334,3.5207 0.113848,-0.7664 -0.789683,1.4581 -0.18613,0.4583 -0.293898,0.9611 -0.39484,1.4582 -0.06385,0.3144 0.117723,0.6823 0,0.9721 -0.08324,0.205 -0.311602,0.2811 -0.394841,0.4861 -0.05886,0.1449 0.09306,0.3715 0,0.486 -0.09306,0.1146 -0.301778,-0.1145 -0.394842,0 -0.09306,0.1146 0.09306,0.3715 0,0.4861 -0.18613,0.2291 -0.554243,-0.145 -0.789682,0 -0.166484,0.1024 -0.228361,0.3836 -0.394842,0.4861 -0.213044,0.1311 -0.576635,-0.1312 -0.78968,0 -0.166484,0.1024 -0.228363,0.3835 -0.394841,0.486 -0.315872,0.1944 -0.86865,-0.1944 -1.184523,0 -0.166484,0.1024 -0.22836,0.3836 -0.394841,0.486 -0.117723,0.072 -0.263229,0 -0.394841,0 -0.13162,0 -0.263226,0 -0.394842,0 -0.658067,0 -1.316135,0 -1.974203,0 -0.262681,0 -0.527004,0 -0.789682,0 -0.13162,0 -0.394842,0.1622 -0.394842,0 0,-0.1619 0.263229,0 0.394842,0"
       id="path4249"
       inkscape:connector-curvature="0" />
    <path
       style="fill:none;fill-rule:evenodd;stroke:#000000;stroke-width:1.91495216px;stroke-linecap:butt;stroke-linejoin:miter;stroke-opacity:1"
       d="m 81.776426,1009.5034 c 0,2.2683 0,4.5366 0,6.8048 0,0.1786 0.01587,1.9247 0,1.9443 -0.09306,0.1145 -0.335981,-0.145 -0.39484,0 -0.117723,0.2898 0,0.6481 0,0.9721 0,0.4709 0.07847,2.6265 0,2.9163 -0.09306,0.3437 -0.323464,0.6207 -0.394841,0.9722 -0.06385,0.3143 0.05163,0.6543 0,0.9721 -0.08162,0.5024 -0.326418,0.9528 -0.394842,1.4581 -0.09303,0.6871 0,1.6796 0,2.4303 0,1.7822 0,3.5645 0,5.3466 0,1.9443 0,3.8885 0,5.8328 0,0.3247 0,0.6474 0,0.9721 0,0.1619 0.13162,0.486 0,0.486 -0.13162,0 0,-0.6481 0,-0.486 0,0.648 0,1.2961 0,1.9442 0,0.1621 0.13162,0.4861 0,0.4861 -0.13162,0 -0.13162,-0.4861 0,-0.4861 0.186131,0 0.228361,0.3836 0.394842,0.4861 0.235436,0.1449 0.603552,-0.2292 0.789681,0 0.131759,0.1621 -0.131757,0.8099 0,0.9721 0.09306,0.1145 0.301776,-0.1146 0.394842,0 0.09306,0.1145 -0.09306,0.3715 0,0.486 0.186129,0.2292 0.554243,-0.1449 0.789681,0 0.166484,0.1025 0.228361,0.3836 0.39484,0.4861 0.103812,0.064 1.372895,0 1.579365,0 1.184523,0 2.369044,0 3.553568,0 0.13162,0 0.263227,0 0.394842,0 0.131619,0 0.39484,-0.1621 0.39484,0 0,0.1619 -0.526455,0 -0.39484,0 0.263225,0 0.526454,0 0.789681,0 0.263227,0 0.526454,0 0.78968,0"
       id="path4251"
       inkscape:connector-curvature="0" />
    <path
       style="fill:#ffaaaa;fill-opacity:1;stroke:#000000;stroke-width:0.4380815;stroke-opacity:0.9888268"
       d="m 71.328329,919.27517 c -2.976824,-0.72326 -5.240542,-2.31421 -8.071982,-5.67305 -3.891787,-4.61665 -4.705312,-6.77153 -4.705312,-12.46344 0,-5.62134 0.763901,-8.02986 3.78233,-11.92544 3.197688,-4.12693 5.659991,-5.45252 11.152501,-6.00401 3.689423,-0.37046 4.752234,-0.31593 6.317455,0.32415 2.405494,0.9837 8.227995,7.13923 10.03695,10.61104 1.263078,2.42414 1.320775,2.73841 1.315085,7.16292 -0.0055,4.33474 -0.09117,4.8219 -1.353171,7.69986 -2.525446,5.75927 -7.191706,9.52406 -12.786143,10.31601 -3.598509,0.50941 -3.38599,0.5112 -5.687713,-0.0481 z m 8.345189,-5.27231 c 0.608693,-0.7821 1.035222,-1.80785 0.95773,-2.30318 -0.170626,-1.09074 -1.491427,-1.48982 -1.944426,-0.58753 -0.245304,0.4886 -1.489454,0.6554 -4.888835,0.6554 -4.090373,0 -4.583671,0.0925 -4.791717,0.89953 -0.127551,0.49474 -0.06828,1.10098 0.131742,1.3472 0.553555,0.68144 3.541844,1.28611 6.649333,1.34544 2.588776,0.0494 2.867411,-0.0478 3.886167,-1.35686 z m -2.331644,-7.33892 c 0,-1.33219 -0.87921,-1.88378 -1.226558,-0.7695 -0.326801,1.04838 0.127915,2.35447 0.733216,2.10608 0.271338,-0.11138 0.493342,-0.7128 0.493342,-1.33658 z m -4.54067,0 c 0,-0.26732 -0.444196,-0.48606 -0.987102,-0.48606 -0.542905,0 -0.987102,0.21874 -0.987102,0.48606 0,0.26735 0.444197,0.48607 0.987102,0.48607 0.542906,0 0.987102,-0.21872 0.987102,-0.48607 z m -3.670353,-8.58928 c 1.565673,-2.94155 0.363834,-7.08607 -2.05484,-7.08607 -2.470765,0 -3.812917,4.91125 -2.011719,7.36134 1.118545,1.52152 3.184638,1.38166 4.066559,-0.27527 z m 15.391422,0.24158 c 1.283249,-1.48405 1.256442,-4.39828 -0.05532,-6.01308 -1.288999,-1.58678 -2.392315,-1.50432 -3.847997,0.28767 -1.028371,1.26595 -1.169591,1.73294 -0.973607,3.21966 0.126082,0.95642 0.530883,2.14926 0.899567,2.65075 0.906934,1.23369 2.846366,1.16298 3.977352,-0.14496 z"
       id="path4253"
       inkscape:connector-curvature="0" />
    <path
       style="fill:none;fill-rule:evenodd;stroke:#000000;stroke-width:1.91495216px;stroke-linecap:butt;stroke-linejoin:miter;stroke-opacity:1"
       d="m 82.566108,932.70637 c 1.684655,1.55538 1.579364,0.64808 1.579364,1.94423 0,0.16214 -0.09306,0.37147 0,0.48605 0.09306,0.11456 0.301777,-0.11456 0.394841,0 0.09306,0.11456 -0.09306,0.37149 0,0.48604 0.09306,0.11456 0.301775,-0.11455 0.394841,0 0.09306,0.11456 0,0.32406 0,0.48607 0,0.97212 0,1.94425 0,2.91636 0,0.16213 0,0.32404 0,0.48606 0,0.16195 -0.09306,0.37147 0,0.48605 0.09306,0.11455 0.301775,-0.11456 0.39484,0 0.09306,0.11455 -0.05885,0.34115 0,0.48604 0.08325,0.20504 0.311602,0.28113 0.394842,0.48606 0.117709,0.28983 -0.18613,0.743 0,0.97213 0.09306,0.11456 0.301776,-0.11456 0.394841,0 0.09306,0.11456 -0.09306,0.37149 0,0.48606 0.09306,0.11456 0.301775,-0.11455 0.39484,0 0.208099,0.25617 0.301776,0.6284 0.39484,0.97211 0.04162,0.15355 -0.09306,0.37149 0,0.48605 0.09306,0.11455 0.301777,-0.11456 0.394841,0 0.09306,0.11455 -0.05885,0.34115 0,0.48606 0.821618,2.02287 -0.02725,-0.51961 0.789683,0.48606 0.09306,0.11456 -0.05885,0.34115 0,0.48605 0.08324,0.20504 0.311601,0.28113 0.394841,0.48606 0.07827,0.19271 -0.08072,1.35882 0,1.45819 0.09306,0.11456 0.301776,-0.11456 0.394842,0 0.197419,0.24301 -0.197422,1.21514 0,1.45815 0.09306,0.11456 0.301774,-0.11456 0.39484,0 0.09306,0.11456 -0.09306,0.37151 0,0.48606 0.09306,0.11456 0.301776,-0.11455 0.394841,0 0.186129,0.22916 -0.186131,0.743 0,0.97213 0.09306,0.11456 0.277122,-0.0724 0.394841,0 0.166484,0.10243 0.263226,0.32402 0.394839,0.48605 0.131621,0.16213 0.311603,0.28111 0.394841,0.48606 0.05886,0.14497 -0.09306,0.37151 0,0.48606 0.09306,0.11456 0.301778,-0.11455 0.394842,0 0.18613,0.22913 -0.186128,0.74298 0,0.97213 0.09306,0.11456 0.301777,-0.11456 0.394841,0 0.09306,0.11456 -0.09306,0.37147 0,0.48602 0.09306,0.11456 0.301777,-0.11455 0.394841,0 0.09306,0.11456 -0.09306,0.37151 0,0.48607 0.09306,0.11455 0.301776,-0.11456 0.394842,0 0.186129,0.22915 -0.186131,0.74299 0,0.97212 0.09306,0.11456 0.301776,-0.11455 0.39484,0 0.09306,0.11456 -0.09306,0.37149 0,0.48607 1.052908,0 -0.13162,-0.16214 0.394841,0.48604 0.09306,0.11456 0.301776,-0.11455 0.394841,0 0.09306,0.11456 0.131621,0.48607 0,0.48607 -0.131619,0 0,-0.32403 0,-0.48607 0.131621,0.64807 0.288417,1.28919 0.394842,1.94422 0.05163,0.31777 0,0.6481 0,0.97212 0,0.81009 0,1.62022 0,2.4303 0,1.95187 0,4.44577 0,5.83269"
       id="path4257"
       inkscape:connector-curvature="0" />
    <path
       style="fill:none;fill-rule:evenodd;stroke:#000000;stroke-width:1.91495216px;stroke-linecap:butt;stroke-linejoin:miter;stroke-opacity:1"
       d="m 94.806176,957.00925 c 0.263228,0.64807 0.526457,1.29615 0.789682,1.94422 0.13162,0 0.301776,-0.11456 0.394842,0 0.09306,0.11455 -0.09306,0.37149 0,0.48606 0.09306,0.11456 0.301776,-0.11456 0.39484,0 0.18613,0.22911 -0.18613,0.743 0,0.97211 0.81694,1.00567 -0.03193,-1.53679 0.789682,0.48606 0.117723,0.28983 -0.18613,0.74298 0,0.97211 0.09306,0.11456 0.301775,-0.11456 0.394842,0 0.186128,0.22913 -0.117723,0.68228 0,0.97211 0.08324,0.20504 0.3116,0.28111 0.394841,0.48606 0.05885,0.14497 -0.09306,0.37151 0,0.48606 0.526454,0.64809 0.394839,-0.81008 0.394839,0.48607"
       id="path4259"
       inkscape:connector-curvature="0" />
    <path
       style="fill:none;fill-rule:evenodd;stroke:#000000;stroke-width:1.91495216px;stroke-linecap:butt;stroke-linejoin:miter;stroke-opacity:1"
       d="m 94.806176,955.06502 c 1.316137,0 2.632272,0 3.948409,0 0.177821,0 1.06436,-0.0739 1.184524,0 0.975811,0.60062 -0.136298,0.48604 0.789681,0.48604"
       id="path4261"
       inkscape:connector-curvature="0" />
    <path
       sodipodi:type="star"
       style="fill:#550000;fill-opacity:1;stroke:#000000;stroke-opacity:0.9888268"
       id="path4265"
       sodipodi:sides="5"
       sodipodi:cx="67.715591"
       sodipodi:cy="867.97443"
       sodipodi:r1="3.9491634"
       sodipodi:r2="1.9745818"
       sodipodi:arg1="1.7454685"
       sodipodi:arg2="2.3737871"
       inkscape:flatsided="false"
       inkscape:rounded="0"
       inkscape:randomized="0"
       d="m 67.029285,871.8635 -0.73428,-2.51761 -2.490221,-0.82239 2.167484,-1.47633 0.01262,-2.62247 2.073859,1.60519 2.498019,-0.79839 -0.885769,2.46839 1.531243,2.12904 -2.621294,-0.0796 z"
       inkscape:transform-center-x="0.36603923"
       inkscape:transform-center-y="0.36056572"
       transform="matrix(1.7259379,0,0,2.124666,-23.251259,-971.23439)" />
    <path
       style="fill:#550000;fill-opacity:1;stroke:#000000;stroke-width:1.91495216;stroke-opacity:0.9888268"
       id="path4267"
       d="m 98.262315,887.69264 c 1.141788,1.19895 2.279215,2.40638 3.409045,3.62341 0.73579,1.00377 1.66038,1.74275 2.47377,2.63601 0.58407,0.7457 0.67991,1.71035 0.73679,2.69576 0.0166,1.17735 0.19273,2.34038 0.29508,3.50957 0.14258,0.97218 0.27444,1.94716 0.51886,2.88914 0.16952,0.85197 0.42257,1.67579 0.71647,2.4734 0.3941,0.71187 0.76037,1.44128 1.14484,2.15993 0.49943,1.06051 0.98295,2.13835 1.44345,3.22716 0.58562,1.19446 1.11853,2.41828 1.60166,3.68081 0.41849,1.23769 0.6277,2.52136 0.34218,3.82848 -0.20834,0.7766 -0.67595,1.35821 -1.10206,1.96112 -0.61702,0.87451 -1.16758,1.81972 -1.69709,2.77638 -0.82196,1.59382 -1.11311,3.47541 -1.5002,5.27488 -0.4828,2.26398 -0.75101,4.58359 -0.89985,6.91368 -0.0846,2.20728 -0.60222,4.35315 -1.00867,6.49513 -0.56235,3.04862 -0.84124,6.15777 -0.98515,9.27429 -0.0155,1.09943 -0.20205,2.4153 0.48115,3.2657 0.79845,0.49524 1.58926,1.00202 2.41717,1.41935 0.90526,0.43721 1.80971,0.78359 2.77443,0.94302 0.90017,0.0791 1.78505,0.10504 2.67337,0.3035 0.46308,0.2279 0.93951,0.39262 1.37748,0.68609 0,0 -4.87685,3.95729 -4.87685,3.95729 l 0,0 c -0.40877,-0.214 -0.82728,-0.41102 -1.26178,-0.52998 -0.88162,-0.16101 -1.77654,-0.12855 -2.65672,-0.31309 -0.98624,-0.22325 -1.92201,-0.6254 -2.84988,-1.09122 -0.88658,-0.48334 -1.79946,-0.95205 -2.589336,-1.6509 -0.786298,-1.13752 -0.669894,-2.44013 -0.570452,-3.86009 0.229679,-3.15631 0.539008,-6.30597 1.042269,-9.41595 0.334959,-2.09777 0.739929,-4.19335 0.886069,-6.32696 0.19913,-2.3788 0.52303,-4.73986 0.95541,-7.07152 0.3635,-1.81708 0.56391,-3.72551 1.28078,-5.39571 0.4844,-1.00683 1.08902,-1.90806 1.63476,-2.86492 0.40853,-0.56377 0.81134,-1.11428 1.19384,-1.69911 0.43053,-1.27688 0.32996,-2.08195 -0.054,-3.39631 -0.48711,-1.25309 -1.09592,-2.41427 -1.65129,-3.62124 -0.43899,-1.07216 -0.89703,-2.14254 -1.42031,-3.15448 -0.40102,-0.75251 -0.83185,-1.4751 -1.21216,-2.24421 -0.29811,-0.82552 -0.55766,-1.67506 -0.74386,-2.54976 -0.25307,-0.99399 -0.38257,-2.01629 -0.55102,-3.03667 -0.08642,-1.17885 -0.267282,-2.34439 -0.31209,-3.52595 -0.03745,-0.78807 -0.05231,-1.60504 -0.527182,-2.2038 -0.800563,-0.88882 -1.639895,-1.72598 -2.369749,-2.70829 -1.122603,-1.22645 -2.259922,-2.45722 -3.514301,-3.47586 0,0 4.955073,-3.85808 4.955073,-3.85808 z"
       inkscape:connector-curvature="0" />
    <path
       style="fill:#ffff00;fill-opacity:1;stroke:#000000;stroke-width:0.4380815;stroke-opacity:0.9888268"
       d="m 92.329444,876.7298 c -0.30951,-1.52989 -0.61223,-1.95281 -1.661688,-2.3215 -1.535725,-0.53954 -1.597555,-0.91698 -0.319124,-1.94816 0.715982,-0.57752 0.99543,-1.2923 1.085812,-2.77736 l 0.121714,-1.9997 1.092143,1.06166 c 0.899212,0.8741 1.380517,1.00168 2.724587,0.72214 1.488222,-0.30953 1.6058,-0.25951 1.33082,0.56616 -0.675923,2.02955 -0.65112,2.62336 0.168779,4.04082 l 0.85747,1.48241 -1.478782,0 c -1.17392,0 -1.691594,0.3138 -2.511031,1.52211 l -1.032241,1.52211 -0.378455,-1.87069 z"
       id="path4271"
       inkscape:connector-curvature="0" />
    <path
       sodipodi:type="star"
       style="fill:#ffff00;fill-opacity:1;stroke:#000000;stroke-opacity:0.9888268"
       id="path4273"
       sodipodi:sides="5"
       sodipodi:cx="50.786697"
       sodipodi:cy="919.21869"
       sodipodi:r1="3.4008942"
       sodipodi:r2="1.7004471"
       sodipodi:arg1="1.2277724"
       sodipodi:arg2="1.8560909"
       inkscape:flatsided="false"
       inkscape:rounded="0"
       inkscape:randomized="0"
       d="m 51.930542,922.42145 -1.622419,-1.57105 -2.213968,0.44586 0.992804,-2.02849 -1.108189,-1.96784 2.236005,0.31738 1.529071,-1.66205 0.389123,2.22464 2.053206,0.94064 -1.995514,1.05753 z"
       inkscape:transform-center-x="-0.51048836"
       inkscape:transform-center-y="-0.064370716"
       transform="matrix(1.7259379,0,0,2.124666,-23.251259,-971.23439)" />
    <path
       sodipodi:type="star"
       style="fill:#ffff00;fill-opacity:1;stroke:#000000;stroke-opacity:0.9888268"
       id="path4275"
       sodipodi:sides="5"
       sodipodi:cx="57.878532"
       sodipodi:cy="918.30359"
       sodipodi:r1="3.6887877"
       sodipodi:r2="1.8443938"
       sodipodi:arg1="1.6951513"
       sodipodi:arg2="2.3234699"
       inkscape:flatsided="false"
       inkscape:rounded="0"
       inkscape:randomized="0"
       d="m 57.420995,921.96389 -0.803276,-2.31414 -2.361728,-0.65021 1.952658,-1.47907 -0.111433,-2.44706 2.010085,1.40003 2.292859,-0.86216 -0.710357,2.34433 1.528497,1.91422 -2.44911,0.0489 z"
       inkscape:transform-center-x="0.24402636"
       inkscape:transform-center-y="0.45700408"
       transform="matrix(1.7259379,0,0,2.124666,-23.251259,-971.23439)" />
    <path
       sodipodi:type="star"
       style="fill:#ffff00;fill-opacity:1;stroke:#000000;stroke-opacity:0.9888268"
       id="path4277"
       sodipodi:sides="5"
       sodipodi:cx="64.512833"
       sodipodi:cy="918.76111"
       sodipodi:r1="2.866466"
       sodipodi:r2="1.4332331"
       sodipodi:arg1="1.0714496"
       sodipodi:arg2="1.6997681"
       inkscape:flatsided="false"
       inkscape:rounded="0"
       inkscape:randomized="0"
       d="m 65.885446,921.27757 -1.556948,-1.09513 -1.784798,0.66173 0.560405,-1.81916 -1.180877,-1.49296 1.903298,-0.0292 1.054976,-1.58443 0.615897,1.80113 1.832888,0.51372 -1.522652,1.14234 z"
       inkscape:transform-center-x="-0.19662613"
       inkscape:transform-center-y="-0.34646255"
       transform="matrix(1.7259379,0,0,2.124666,-23.251259,-971.23439)" />
    <path
       sodipodi:type="star"
       style="fill:#ffff00;fill-opacity:1;stroke:#000000;stroke-opacity:0.9888268"
       id="path4279"
       sodipodi:sides="5"
       sodipodi:cx="48.956547"
       sodipodi:cy="925.85297"
       sodipodi:r1="2.829715"
       sodipodi:r2="1.4148575"
       sodipodi:arg1="1.815775"
       sodipodi:arg2="2.4440935"
       inkscape:flatsided="false"
       inkscape:rounded="0"
       inkscape:randomized="0"
       d="m 48.27024,928.59819 -0.398112,-1.83646 -1.738527,-0.71316 1.623553,-0.94612 0.141023,-1.87382 1.401523,1.25172 1.825684,-0.44492 -0.757364,1.71973 0.987312,1.59884 -1.8696,-0.18887 z"
       inkscape:transform-center-x="0.3660386"
       inkscape:transform-center-y="0.12849852"
       transform="matrix(1.7259379,0,0,2.124666,-23.251259,-971.23439)" />
    <path
       sodipodi:type="star"
       style="fill:#ffff00;fill-opacity:1;stroke:#000000;stroke-opacity:0.9888268"
       id="path4281"
       sodipodi:sides="5"
       sodipodi:cx="55.590843"
       sodipodi:cy="925.16663"
       sodipodi:r1="3.724088"
       sodipodi:r2="1.8620439"
       sodipodi:arg1="1.3854484"
       sodipodi:arg2="2.0137669"
       inkscape:flatsided="false"
       inkscape:rounded="0"
       inkscape:randomized="0"
       d="m 56.27715,928.82693 -1.484426,-1.97798 -2.470955,0.10149 1.422457,-2.023 -0.860088,-2.31866 2.363552,0.72769 1.939391,-1.53449 0.0383,2.47274 2.058698,1.37029 -2.339882,0.80054 z"
       inkscape:transform-center-x="-0.36603648"
       inkscape:transform-center-y="0.31415592"
       transform="matrix(1.7259379,0,0,2.124666,-23.251259,-971.23439)" />
    <path
       sodipodi:type="star"
       style="fill:#ffff00;fill-opacity:1;stroke:#000000;stroke-opacity:0.9888268"
       id="path4283"
       sodipodi:sides="5"
       sodipodi:cx="64.7416"
       sodipodi:cy="924.70911"
       sodipodi:r1="2.9739957"
       sodipodi:r2="1.4869978"
       sodipodi:arg1="1.9655874"
       sodipodi:arg2="2.593906"
       inkscape:flatsided="false"
       inkscape:rounded="0"
       inkscape:randomized="0"
       d="m 63.597756,927.45433 -0.125653,-1.97092 -1.694836,-1.01384 1.835634,-0.72855 0.440485,-1.92518 1.260136,1.52065 1.967071,-0.17598 -1.056826,1.66837 0.775232,1.81641 -1.913292,-0.48955 z"
       inkscape:transform-center-x="0.36705648"
       inkscape:transform-center-y="-0.157199"
       transform="matrix(1.7259379,0,0,2.124666,-23.251259,-971.23439)" />
    <path
       sodipodi:type="star"
       style="fill:#000080;fill-opacity:1;stroke:#000000;stroke-opacity:0.9888268"
       id="path4285"
       sodipodi:sides="5"
       sodipodi:cx="56.963455"
       sodipodi:cy="904.57745"
       sodipodi:r1="3.4315336"
       sodipodi:r2="1.7157668"
       sodipodi:arg1="1.5707963"
       sodipodi:arg2="2.1991149"
       inkscape:flatsided="false"
       inkscape:rounded="0"
       inkscape:randomized="0"
       d="m 56.963455,908.00899 -1.008502,-2.04345 -2.25508,-0.32768 1.631791,-1.59061 -0.385214,-2.24597 2.017005,1.06041 2.017005,-1.06041 -0.385214,2.24597 1.631792,1.59061 -2.25508,0.32768 z"
       inkscape:transform-center-y="0.69628606"
       transform="matrix(1.7259379,0,0,2.124666,-23.251259,-971.23439)" />
    <path
       style="fill:#ffff00;fill-opacity:1;stroke:#000000;stroke-width:0.2287689;stroke-opacity:0.9888268"
       d=""
       id="path4289"
       inkscape:connector-curvature="0"
       transform="translate(0,802.36216)" />
    <path
       style="fill:#ffeb00;fill-opacity:1;stroke:#000000;stroke-width:0.4380815;stroke-opacity:0.9888268"
       d="m 74.380568,953.81152 c -0.393642,-1.16988 -0.728967,-1.45817 -1.696092,-1.45817 l -1.205448,0 0.911283,-1.19412 c 0.703218,-0.92147 0.856155,-1.53341 0.669834,-2.68021 -0.241153,-1.48433 -0.240135,-1.4853 0.840373,-0.79745 0.940385,0.59864 1.229762,0.59325 2.213429,-0.0412 l 1.131613,-0.72989 -0.179678,1.50705 c -0.125212,1.0503 0.03895,1.75063 0.541708,2.31072 0.987263,1.09988 0.904659,1.62512 -0.255576,1.62512 -0.686165,0 -1.159287,0.43405 -1.589502,1.45817 -0.336898,0.80201 -0.675261,1.45819 -0.751921,1.45819 -0.07667,0 -0.360169,-0.65618 -0.630023,-1.45819 z"
       id="path4291"
       inkscape:connector-curvature="0" />
    <path
       style="fill:#2b0000;fill-opacity:1;stroke:#000000;stroke-width:1.91495216;stroke-opacity:0.9888268"
       id="path4297"
       d="m 63.685024,883.29681 c -1.223217,-0.15523 -2.348892,0.15 -3.447815,0.7945 -2.090096,1.20721 -0.778429,0.47054 3.990179,-2.86361 0.132276,-0.0924 -0.263183,0.18782 -0.393508,0.28449 -0.357514,0.26491 -0.677234,0.54696 -0.99573,0.87764 -0.519844,0.47403 -1.024321,0.97119 -1.536543,1.457 -0.456689,0.44569 -0.856085,1.0341 -1.097731,1.69086 -0.0052,0.0465 -0.02438,0.0938 -0.01571,0.13956 0.01639,0.0855 1.109303,0.18583 1.247636,0.19654 0.821111,0.041 1.643206,0.0263 2.464742,0.0213 0.266312,-0.039 0.53806,0.0327 0.804385,-0.006 0.339792,-0.0489 0.549894,-0.29417 0.829753,-0.50442 -1.59235,1.12403 -3.1847,2.24805 -4.777049,3.37208 0.464571,-0.45221 0.787562,-1.11375 1.055945,-1.75657 0.119556,-0.66521 0.558154,-1.30923 0.521543,-2.00715 -0.132812,-0.18079 -0.190754,0.002 -0.266948,0.15448 0,0 4.71327,-4.31053 4.71327,-4.31053 l 0,0 c 0.339153,0.16381 0.549621,0.32687 0.720825,0.74596 0.201371,0.8977 -0.189856,1.57726 -0.387284,2.41932 -0.22181,0.7614 -0.577065,1.40618 -0.92398,2.08098 -3.775419,2.74611 -3.922616,4.07086 -6.997545,4.02498 -0.833017,0.002 -1.66786,0.0112 -2.498578,-0.0767 -0.761415,-0.11567 -1.636325,-0.26796 -1.772685,-1.38253 0.09251,-0.8411 0.538506,-1.48543 0.955474,-2.13281 0.51367,-0.49632 1.000497,-1.0249 1.557905,-1.44423 0.413421,-0.41285 0.209327,-0.18993 0.609706,-0.67225 0.184746,-0.18717 0.570373,-0.47188 0.774417,-0.61582 5.497999,-3.87884 3.512561,-2.79668 5.94533,-4.08721 1.183034,-0.52198 2.389254,-0.67478 3.643927,-0.62437 0,0 -4.723995,4.22509 -4.723995,4.22509 z"
       inkscape:connector-curvature="0" />
    <path
       style="fill:#2b0000;fill-opacity:1;stroke:#000000;stroke-width:1.91495216;stroke-opacity:0.9888268"
       id="path4299"
       d="m 67.677806,877.66279 c -0.935304,1.68948 -1.965832,3.29404 -2.939787,4.95 -0.817401,1.47821 -1.743547,2.8558 -2.616261,4.28305 -1.00617,1.47651 -2.08413,2.87841 -3.16569,4.2713 -1.466965,1.95176 -2.856197,3.99646 -4.154529,6.12141 -1.043295,1.63023 -1.976304,3.35658 -2.918601,5.07484 -0.803946,1.34279 -1.231316,2.47252 -1.60958,4.07439 -0.530279,2.03508 -0.799068,4.14193 -0.95995,6.26345 -0.09023,1.25784 -0.08904,2.52076 -0.100978,3.78214 -0.06871,1.12407 0.172692,2.14834 0.529563,3.16385 0.662746,1.45041 1.660883,2.66344 2.659513,3.77133 0.831815,1.28608 2.019373,1.99237 3.088447,2.90672 1.002161,0.8091 1.623481,2.04189 2.274161,3.24199 0.683821,1.26665 1.301182,2.58052 1.909292,3.90306 0.413989,0.91283 0.542564,1.92451 0.590706,2.95201 -0.007,1.23288 -0.241921,2.43524 -0.456142,3.63202 -0.06422,0.95832 -0.418759,1.75123 -0.786332,2.56982 -0.441143,0.73398 -0.955106,1.40037 -1.452845,2.07708 -0.774244,1.08269 -1.461672,2.25689 -2.180853,3.39559 -0.547604,0.77076 -1.004035,1.62512 -1.523803,2.42222 -0.262025,0.46843 -0.505453,0.95304 -0.743655,1.44043 0,0 -5.316557,2.92957 -5.316557,2.92957 l 0,0 c 0.216572,-0.53006 0.480253,-1.00634 0.706785,-1.52603 0.478852,-0.85761 1.026036,-1.669 1.572407,-2.46157 0.709019,-1.14584 1.463658,-2.25044 2.109637,-3.4547 0.531908,-0.60211 0.94773,-1.32839 1.470235,-1.94442 0.433867,-0.63194 0.836109,-1.52157 0.922611,-2.34563 0.203743,-1.14405 0.444299,-2.27458 0.512387,-3.44815 -0.04236,-0.92254 -0.105736,-1.845 -0.459957,-2.68033 -0.563119,-1.32818 -1.131731,-2.65094 -1.834923,-3.87832 -0.623259,-1.12769 -1.252538,-2.23794 -2.203121,-2.98785 -1.077052,-0.92718 -2.194,-1.78675 -3.054601,-3.03917 -1.059392,-1.18542 -2.12995,-2.45052 -2.86608,-3.9727 -0.385563,-1.0974 -0.7021,-2.20445 -0.639726,-3.42471 -0.0057,-1.29579 0.02789,-2.59231 0.135849,-3.88205 0.192324,-2.14821 0.442427,-4.29551 0.931063,-6.3763 0.35644,-1.70318 0.600532,-2.85087 1.489764,-4.27119 1.003732,-1.72876 1.945958,-3.51232 3.040217,-5.16027 1.256351,-2.15075 2.646343,-4.18359 4.066085,-6.17234 1.057547,-1.36394 2.088522,-2.75669 3.113736,-4.1566 0.894334,-1.44502 1.855344,-2.82455 2.705791,-4.31115 0.935678,-1.61676 1.951631,-3.17299 2.80849,-4.8527 0,0 5.347234,-2.88009 5.347234,-2.88009 z"
       inkscape:connector-curvature="0" />
    <path
       style="fill:#2b0000;fill-opacity:1;stroke:#000000;stroke-width:1.91495216;stroke-opacity:0.9888268"
       id="path4301"
       d="m 95.816805,903.23152 c -0.214749,1.07942 -0.29002,2.19014 -0.34582,3.29628 -0.04362,1.02448 -0.046,2.05064 -0.04789,3.07624 -2.8e-4,0.97332 0.0013,1.9466 0.0021,2.91988 7.15e-4,0.97138 8.26e-4,1.94276 9.05e-4,2.91414 0.0074,1.09475 -0.01118,2.18927 -0.01485,3.28393 -0.03667,1.40885 0.155024,2.80511 0.275032,4.20197 0.03987,0.89605 0.211989,1.7683 0.488298,2.59508 0.375175,0.7899 0.586955,1.64576 0.715271,2.5407 0.111755,0.96852 0.115382,1.9489 0.12109,2.92511 -0.01364,0.84553 -0.192471,1.65271 -0.471264,2.41903 -0.204572,0.40589 -0.09954,0.20183 -0.315343,0.61202 0,0 -5.387521,2.81203 -5.387521,2.81203 l 0,0 c 0.270466,-0.29433 0.151847,-0.12408 0.351158,-0.51562 0.410294,-0.58176 0.510358,-1.33391 0.636,-2.07002 -0.0021,-0.94146 9.84e-4,-1.88597 -0.08364,-2.82295 -0.101472,-0.85027 -0.290496,-1.6525 -0.665773,-2.38759 -0.296759,-0.89572 -0.498941,-1.83759 -0.524817,-2.81063 -0.09579,-1.42158 -0.28036,-2.83693 -0.297209,-4.26341 -0.0036,-1.08843 -0.0222,-2.17676 -0.01485,-3.26529 -7.1e-5,-0.97115 -1.79e-4,-1.94235 -7.86e-4,-2.91352 -6.61e-4,-0.97433 -0.0021,-1.94868 -0.0014,-2.92304 0.0022,-1.04038 0.0053,-2.08118 0.04619,-3.12061 0.05126,-1.12246 0.133621,-2.24161 0.260558,-3.35529 0,0 5.274445,-3.14848 5.274445,-3.14848 z"
       inkscape:connector-curvature="0" />
    <path
       style="fill:#550000;fill-opacity:1;stroke:#000000;stroke-width:1.91495216;stroke-opacity:0.9888268"
       id="path4305"
       d="m 77.733845,875.89117 c 0.877868,0.37404 1.747339,0.76911 2.656166,1.0172 0.701837,0.36584 1.430488,0.56737 2.185613,0.65781 0.749128,0.0276 1.472569,0.0425 2.203201,0.25148 0.682227,0.28257 1.412838,0.43864 2.083646,0.76216 0.674278,0.28148 1.321382,0.62429 2.0204,0.80786 0.714549,0.0576 1.381184,0.37099 2.082878,0.52122 0.723369,0.12537 1.455477,0.13284 2.18457,0.14254 0.777019,-0.0272 1.527084,-0.0218 2.284985,0.19057 0.634598,0.18153 1.26231,0.49582 1.783323,0.98222 0.59004,0.46649 1.055745,1.12683 1.59285,1.67709 0.223271,0.29479 0.469716,0.54633 0.692983,0.84095 0,0 -4.991653,3.74559 -4.991653,3.74559 l 0,0 c -0.21407,-0.26921 -0.439994,-0.52157 -0.655838,-0.78863 -0.504098,-0.55726 -0.982421,-1.16359 -1.562141,-1.60379 -0.503696,-0.37043 -1.070393,-0.616 -1.647752,-0.74249 -0.733006,-0.14553 -1.475517,-0.0646 -2.215231,-0.097 -0.754399,-0.0228 -1.5129,-0.0524 -2.254655,-0.23962 -0.696093,-0.19294 -1.383728,-0.42082 -2.09007,-0.55411 -0.697888,-0.23954 -1.370071,-0.57242 -2.056588,-0.85622 -0.676682,-0.24458 -1.352906,-0.50211 -2.042983,-0.68115 -0.718501,-0.15224 -1.450321,-0.0838 -2.171955,-0.21499 -0.757917,-0.14814 -1.478836,-0.43074 -2.201736,-0.74344 -0.926664,-0.30956 -1.829416,-0.71477 -2.747144,-1.06125 0,0 4.867131,-4.01402 4.867131,-4.01402 z"
       inkscape:connector-curvature="0" />
    <path
       sodipodi:type="star"
       style="fill:#ffff00;fill-opacity:1;stroke:#000000;stroke-opacity:0.9888268"
       id="path4419"
       sodipodi:sides="5"
       sodipodi:cx="49.642853"
       sodipodi:cy="888.10608"
       sodipodi:r1="2.5164578"
       sodipodi:r2="1.258229"
       sodipodi:arg1="1.5707963"
       sodipodi:arg2="2.1991149"
       inkscape:flatsided="false"
       inkscape:rounded="0"
       inkscape:randomized="0"
       d="m 49.642853,890.62254 -0.739569,-1.49853 -1.653725,-0.2403 1.196647,-1.16645 -0.28249,-1.64704 1.479137,0.77763 1.479137,-0.77763 -0.28249,1.64705 1.196646,1.16644 -1.653725,0.2403 z"
       inkscape:transform-center-y="0.51062731"
       transform="matrix(1.7259379,0,0,2.124666,-23.251259,-971.23439)" />
    <path
       sodipodi:type="star"
       style="fill:#ffff00;fill-opacity:1;stroke:#000000;stroke-opacity:0.9888268"
       id="path4423"
       sodipodi:sides="5"
       sodipodi:cx="65.199135"
       sodipodi:cy="887.4198"
       sodipodi:r1="2.557714"
       sodipodi:r2="1.278857"
       sodipodi:arg1="0.46364761"
       sodipodi:arg2="1.0919661"
       inkscape:flatsided="false"
       inkscape:rounded="0"
       inkscape:randomized="0"
       d="m 67.486824,888.56364 -1.698467,-0.009 -0.970148,1.39416 -0.516472,-1.61806 -1.625716,-0.49185 1.379269,-0.9912 -0.0346,-1.69814 1.368907,1.00547 1.604332,-0.55766 -0.533238,1.61261 z"
       inkscape:transform-center-x="0.20316612"
       inkscape:transform-center-y="0.275351"
       transform="matrix(1.7259379,0,0,2.124666,-23.251259,-971.23439)" />
  </g>
</svg>
