<?xml version="1.0" encoding="UTF-8" standalone="no"?>
<!-- Created with Inkscape (http://www.inkscape.org/) -->

<svg
   xmlns:dc="http://purl.org/dc/elements/1.1/"
   xmlns:cc="http://creativecommons.org/ns#"
   xmlns:rdf="http://www.w3.org/1999/02/22-rdf-syntax-ns#"
   xmlns:svg="http://www.w3.org/2000/svg"
   xmlns="http://www.w3.org/2000/svg"
   xmlns:sodipodi="http://sodipodi.sourceforge.net/DTD/sodipodi-0.dtd"
   xmlns:inkscape="http://www.inkscape.org/namespaces/inkscape"
   width="70"
   height="70"
   viewBox="0 0 69.999999 69.999999"
   id="svg2"
   version="1.1"
   inkscape:version="0.91 r13725"
   sodipodi:docname="bomba.svg">
  <defs
     id="defs4" />
  <sodipodi:namedview
     id="base"
     pagecolor="#ffffff"
     bordercolor="#666666"
     borderopacity="1.0"
     inkscape:pageopacity="0.0"
     inkscape:pageshadow="2"
     inkscape:zoom="5.6990943"
     inkscape:cx="33.992456"
     inkscape:cy="34.531282"
     inkscape:document-units="px"
     inkscape:current-layer="layer1"
     showgrid="false"
     units="px"
     inkscape:window-width="1366"
     inkscape:window-height="706"
     inkscape:window-x="-8"
     inkscape:window-y="-8"
     inkscape:window-maximized="1" />
  <metadata
     id="metadata7">
    <rdf:RDF>
      <cc:Work
         rdf:about="">
        <dc:format>image/svg+xml</dc:format>
        <dc:type
           rdf:resource="http://purl.org/dc/dcmitype/StillImage" />
        <dc:title></dc:title>
      </cc:Work>
    </rdf:RDF>
  </metadata>
  <g
     inkscape:label="Layer 1"
     inkscape:groupmode="layer"
     id="layer1"
     transform="translate(0,-982.3622)">
    <ellipse
       style="fill:#ac9d93;fill-opacity:1;stroke:#e30000;stroke-width:2.38624072;stroke-opacity:1"
       id="path3336"
       cx="35.005562"
       cy="1020.6028"
       rx="27.46925"
       ry="28.609781" />
    <path
       style="fill:#784421;fill-opacity:1;stroke:none;stroke-opacity:1"
       id="path4142"
       d="m 47.745231,994.68434 c 0.10038,-0.38063 0.112889,-0.77562 0.192383,-1.16005 0.04794,-0.32415 0.191382,-0.61291 0.336981,-0.9016 0.153209,-0.26589 0.349942,-0.50187 0.540772,-0.74117 0.217138,-0.33155 0.488533,-0.61682 0.775601,-0.88752 0.968941,-1.02194 2.244416,-1.70299 3.555402,-2.22512 0.294255,-0.0848 0.05975,-0.004 0.31615,-0.12724 0.04702,-0.0226 0.189424,-0.087 0.144247,-0.0609 -4.414534,2.55291 -3.24618,1.83442 -2.323749,1.32116 0.211371,-0.16487 0.42389,-0.33166 0.610275,-0.52526 0.993229,-0.85984 2.170605,-1.53801 3.39321,-2.01497 -0.05161,0.14367 0.631029,-0.31615 0.447904,-0.21226 -0.843164,0.47832 -3.38376,1.89136 -2.519011,1.45327 3.715681,-1.88239 1.732151,-1.28 2.964891,-1.64637 0.33182,-0.0977 0.65964,-0.18505 1.005377,-0.22454 0.353603,-0.0318 0.709004,-0.0312 1.063712,-0.032 0.351543,2.7e-4 0.703084,0.001 1.054626,0.002 0.122408,1.6e-4 0.206921,0.0158 0.319909,-0.0392 0.03989,-0.0194 0.143608,-0.10359 0.104909,-0.0819 -0.858897,0.48909 -1.717794,0.97818 -2.576691,1.46727 0.119266,-0.0856 0.06806,-0.033 0.151732,-0.15948 0.09464,-0.22115 -0.116031,-0.18233 -0.257736,-0.14598 -0.180141,0.054 -0.376931,0.0216 -0.55824,0.0594 -0.09239,0.0193 -0.17753,0.0643 -0.267527,0.0927 -0.186659,0.0402 -0.377182,0.0715 -0.544346,0.17021 -0.1313,0.11229 -0.06119,0.0625 -0.210284,0.14937 -0.25676,0.0956 -0.516114,0.18408 -0.763468,0.30521 4.706652,-2.5673 2.840658,-1.72005 1.892243,-1.01803 -0.28463,0.19008 -0.553584,0.4017 -0.82986,0.60319 -0.231192,0.19025 -0.457395,0.38396 -0.706012,0.55201 -0.219892,0.17097 -0.42128,0.36321 -0.615513,0.56283 -0.257371,0.21744 -0.460058,0.48773 -0.66045,0.75601 -0.238413,0.28471 -0.438004,0.59768 -0.622289,0.91923 -0.154221,0.25192 -0.260403,0.51102 -0.33294,0.79633 -0.12019,0.38758 -0.24606,0.77376 -0.375752,1.15841 -0.169511,0.46422 -0.324309,0.93348 -0.488812,1.39943 -0.352172,1.18677 -2.416051,2.95423 -3.170904,1.63347 -0.179767,-0.25642 -0.252799,-0.55511 -0.300522,-0.85935 -0.03874,-0.34797 -0.05215,-0.69953 -0.03585,-1.04927 0.03052,-0.28317 0.145014,-0.54941 0.285354,-0.79478 0.123997,-0.27888 0.306744,-0.52081 0.485632,-0.76637 0.257892,-0.29688 0.460941,-0.63431 0.696293,-0.94764 0.288409,-0.33327 0.613213,-0.63456 0.928315,-0.94282 0.268526,-0.25055 0.546839,-0.48558 0.833851,-0.71374 1.202781,-0.0753 2.183701,-1.61067 3.468601,-1.83716 0.210934,-0.041 0.430241,-0.004 0.634986,-0.0768 0.110346,-0.0395 0.214903,-0.0938 0.324436,-0.13551 0.346404,-0.12317 0.712607,-0.15433 1.076854,-0.17268 0.353938,-0.0593 0.689029,-0.17966 1.036652,-0.26322 0.218449,-0.0785 0.479318,-0.0103 0.686155,-0.12409 0.478463,-0.26318 -0.209544,0.0511 0.208841,-0.13332 0.188095,0.0215 0.319981,0.2401 0.282812,0.42518 -0.01354,0.0674 -0.116101,0.15694 -0.155926,0.19774 -0.908872,0.81947 -2.371314,1.43927 -3.228176,1.93106 -0.353152,0.20268 0.06558,-0.0109 -0.29115,0.16517 -0.131309,0.11695 -0.306355,0.14419 -0.45885,0.2158 -0.145328,0.0683 -0.261505,0.14551 -0.417096,0.19666 -0.299059,0.0416 -0.564521,0.1696 -0.862958,0.21873 -0.316524,0.006 -0.587169,0.10078 -0.845111,0.28039 -0.981238,0.5173 -0.668022,0.35453 2.367393,-1.36743 0.04956,-0.0281 -0.09501,0.0631 -0.140162,0.0978 -0.127965,0.0985 -0.230814,0.22038 -0.341453,0.33692 -0.240179,0.2403 -0.353609,0.54315 -0.469443,0.85382 -0.123651,0.29943 -0.237791,0.60777 -0.412391,0.88197 -0.156584,0.23799 -0.243101,0.51101 -0.399006,0.74948 -0.161074,0.24154 -0.306955,0.4937 -0.49341,0.71694 -0.191162,0.26162 -0.410447,0.49989 -0.648675,0.71892 -0.193101,0.18202 -0.373337,0.37843 -0.572508,0.55373 -0.874531,0.91207 -2.4787,1.59152 -3.326802,2.08465 -0.31958,0.0904 -0.643453,0.14579 -0.945725,-0.0121 -0.274981,-0.14053 -0.449855,-0.41274 -0.621529,-0.66029 -0.210456,-0.3439 -0.228536,-0.73708 -0.178309,-1.12597 0.084,-0.36623 0.354757,-0.62441 0.621555,-0.86998 0.947883,-0.8087 2.141408,-1.2721 3.184327,-1.93442 0.825088,-0.52398 -1.691995,0.97903 -2.540209,1.46468 -0.04077,0.0233 0.07842,-0.0517 0.117636,-0.0776 0.933532,-0.52945 1.857583,-1.07599 2.800596,-1.58836 0.05,-0.0272 0.113489,-0.0119 0.168851,-0.0251 0.05803,-0.0138 0.114727,-0.0333 0.170126,-0.0554 0.204412,-0.0815 0.407077,-0.15812 0.614717,-0.23366 0.0793,-0.0361 0.160031,-0.0693 0.237909,-0.10835 1.468026,-0.73691 -3.344361,1.94471 -1.958658,1.12342 0.06936,-0.0411 0.137976,-0.0835 0.207719,-0.12397 0.94513,-0.54841 1.891256,-1.0951 2.836884,-1.64266 0.961568,-0.45992 2.336725,-1.2921 -2.137758,1.25022 -0.05414,0.0308 0.103872,-0.0688 0.153931,-0.10583 0.127858,-0.0946 0.192374,-0.15531 0.313097,-0.26064 0.305714,-0.25074 0.556997,-0.55615 0.851297,-0.81913 0.218931,-0.19312 0.428081,-0.39635 0.64451,-0.59198 1.024887,-0.66751 0.109694,-0.0748 2.926118,-1.68695 0.04758,-0.0272 0.191177,-0.1074 0.143676,-0.08 -0.833482,0.4802 -3.327677,1.93144 -2.501633,1.43855 0.304298,-0.18157 6.729014,-3.87891 0.311723,-0.18439 1.740201,-1.05996 5.675869,-3.26565 0.408016,-0.25428 -0.04207,0.024 0.08009,-0.0548 0.122171,-0.0788 2.656565,-1.51747 1.8585,-1.09838 2.935799,-1.66142 -6.638831,3.80815 0.195482,-0.1148 0.294361,-0.1702 0.837781,-0.46938 -3.339657,1.8975 -2.497047,1.43684 0.951024,-0.51993 1.881863,-1.07595 2.82236,-1.61469 0.05556,-0.0318 0.221328,-0.12892 0.165814,-0.097 -0.826103,0.47495 -1.651725,0.95074 -2.477588,1.42611 0.33716,-0.18306 0.639203,-0.41518 0.943696,-0.64629 1.084654,-0.79638 2.233123,-1.55523 3.510708,-1.98271 0.329189,-0.0362 0.608636,-0.19679 0.907872,-0.32135 0.303872,-0.19657 0.654899,-0.2631 1.008126,-0.30296 0.353959,-0.0298 0.709571,-0.0272 1.064474,-0.0268 0.301553,-0.0105 0.605848,0.0217 0.906669,-0.007 -2.245255,1.87754 -1.75592,1.84222 -3.336458,1.83635 -0.355238,-8.6e-4 -0.710478,-6.5e-4 -1.065716,-5.7e-4 -0.352571,9e-5 -0.705142,1.3e-4 -1.057712,1.6e-4 -0.229576,0.0145 -0.467592,-0.0364 -0.690909,0.0358 -0.113069,0.0366 -0.219508,0.0912 -0.330861,0.13271 -0.96131,0.32924 -2.705208,1.464 2.217273,-1.30964 0.221811,-0.12498 -0.226032,0.16196 -0.312035,0.24436 -0.158032,0.18472 -0.125563,0.38567 -0.04994,0.59796 0.074,0.19166 0.132951,0.4387 0.251263,0.1122 0.240821,-0.1679 0.54989,-0.18873 0.8341,-0.21483 0.229799,-0.0386 0.469708,0.008 0.699155,-0.0221 0.09875,-0.0129 0.19218,-0.0524 0.288614,-0.0773 0.324857,-0.0267 0.584104,-0.15912 0.869593,-0.29635 0.18976,-0.0659 0.10347,-0.0208 0.260501,-0.132 0,0 -2.42725,1.95312 -2.42725,1.95312 l 0,0 c -0.180944,0.0706 -0.09078,0.0325 -0.270389,0.11458 -0.291451,0.12671 -0.602924,0.18107 -0.91373,0.24043 -0.329478,0.0496 -0.666126,0.0212 -0.995079,0.0823 -0.285432,0.0563 -0.543816,0.15747 -0.797846,0.2984 -0.290815,-0.0471 -0.446143,-0.27084 -0.526287,-0.5434 -0.108898,-0.27937 -0.190639,-0.57571 -0.08111,-0.86938 0.06837,-0.14122 0.134215,-0.26421 0.275024,-0.34727 1.404536,-0.82846 1.943177,-1.36802 3.128076,-1.73434 0.355692,-0.1053 0.715437,-0.0992 1.083995,-0.0903 0.352415,3e-5 0.704829,7e-5 1.057244,2e-4 0.355691,10e-5 0.711383,3.8e-4 1.067074,-4.6e-4 1.499133,-0.006 1.72132,-0.38518 -1.719721,1.83444 -0.287251,-0.0448 -0.585843,0.008 -0.874891,-0.0116 -0.345963,0.003 -0.694031,0.006 -1.035828,0.0661 -0.341372,0.0737 -0.653697,0.20841 -0.964626,0.36582 -0.296919,0.13229 -0.609564,0.20226 -0.914961,0.30994 -0.100728,0.0432 -0.20416,0.0806 -0.302496,0.12901 -0.04445,0.0219 -0.171729,0.0989 -0.128961,0.0739 4.645408,-2.71739 3.050327,-1.94691 2.256382,-1.2706 -0.331399,0.19978 -0.595282,0.48925 -0.946005,0.65877 -0.94034,0.54738 -1.879567,1.09669 -2.82102,1.64215 -0.05638,0.0327 -0.228694,0.12493 -0.172366,0.0922 0.829383,-0.48218 3.328581,-1.90946 2.49163,-1.44054 -0.945634,0.52982 -1.872793,1.09213 -2.817707,1.62323 -1.054514,0.59269 8.378727,-4.81972 -0.305701,0.16624 -1.027085,0.48861 -0.138289,0.0704 2.400743,-1.4014 0.04193,-0.0243 -0.08592,0.0449 -0.127855,0.0692 -0.930272,0.53905 -1.858842,1.08103 -2.788711,1.62077 -0.78947,0.45825 3.534757,-2.08605 2.369958,-1.37208 -0.932634,0.54742 -1.891181,1.05292 -2.797904,1.64226 -0.804381,0.52283 3.321452,-1.92198 2.49052,-1.44247 -0.938668,0.54169 -1.874582,1.08813 -2.813727,1.62899 -0.04902,0.0282 -0.199468,0.10669 -0.15061,0.0782 0.841867,-0.49116 1.686276,-0.97794 2.529806,-1.46624 0.04121,-0.0239 -0.0819,0.0486 -0.122845,0.0729 -0.274059,0.12016 -0.433822,0.37931 -0.678884,0.54529 -0.373983,0.37613 0.124522,-0.11339 -0.281385,0.24629 -0.155635,0.13792 -0.268516,0.31259 -0.413881,0.45691 -0.04833,0.048 -0.108303,0.0826 -0.162455,0.12393 -1.021489,0.98925 -2.340063,1.57569 -3.594707,2.23211 0.813526,-0.4717 1.625038,-0.9469 2.44058,-1.41511 0.07112,-0.0408 -0.136973,0.0903 -0.207075,0.13283 -0.07251,0.044 -0.147109,0.0845 -0.220627,0.12677 -1.107454,0.63721 -2.165187,1.39989 -3.363866,1.8614 -1.169669,0.43 -3.25363,1.27673 1.581913,-1.11491 -1.095958,0.57566 0.414575,-0.2201 -2.906017,1.68769 -0.844312,0.48509 1.680567,-0.98407 2.52242,-1.47341 0.04553,-0.0265 -0.09123,0.0531 -0.133348,0.0847 -0.302682,0.22721 0.05361,0.004 -0.275728,0.19925 -0.251544,0.2072 -0.516755,0.42207 -0.69958,0.69152 -0.107999,0.2968 -0.101913,0.61589 0.0628,0.89248 0.141083,0.19935 0.27799,0.41832 0.52316,0.49424 0.272945,0.0241 0.551105,-0.0581 0.784472,-0.19728 -4.520301,2.64005 -2.898915,1.79708 -1.975564,1.07528 0.164523,-0.21111 0.383302,-0.37931 0.577181,-0.56253 0.209002,-0.23861 0.479145,-0.41686 0.658789,-0.68344 0.164358,-0.23294 0.368628,-0.43448 0.503345,-0.68984 0.02297,-0.0379 0.04594,-0.0758 0.06891,-0.11373 0.02738,-0.0311 0.05991,-0.0583 0.08215,-0.0932 0.109025,-0.1713 0.163184,-0.36735 0.253385,-0.548 0.05469,-0.0845 0.124623,-0.15852 0.179056,-0.2432 0.114515,-0.17816 0.13402,-0.40623 0.269814,-0.57447 0.10627,-0.32993 0.196229,-0.67913 0.41916,-0.95229 0.808566,-1.1215 2.190361,-1.5912 3.397125,-2.23486 0.291843,-0.12085 0.593501,-0.16134 0.90246,-0.21636 0.27876,-0.0807 0.558403,-0.16064 0.830654,-0.25923 0.286288,-0.14211 0.577486,-0.27238 0.853825,-0.43399 1.613469,-0.91117 -3.695346,2.20429 -1.787935,1.03852 0.0097,-0.009 0.123859,-0.12259 0.16402,-0.12086 0.08767,0.004 0.235512,0.18663 0.144481,0.25507 -0.282582,0.13421 -0.617307,0.0897 -0.909977,0.20085 -0.351021,0.0994 -0.706172,0.19108 -1.07127,0.21977 -0.35128,0.0368 -0.696526,0.10401 -1.025604,0.23701 -0.322936,0.10715 -0.65685,0.11395 -0.984742,0.19888 -1.091818,0.3941 -2.670537,1.53845 1.899463,-1.19855 -0.317581,0.19363 -0.593195,0.43622 -0.866915,0.68694 -0.334869,0.27311 -0.613845,0.60958 -0.937723,0.89447 -0.26141,0.29313 -0.443647,0.6378 -0.698738,0.9363 -0.178516,0.22594 -0.371226,0.46074 -0.48949,0.71976 -0.12171,0.22621 -0.275981,0.44242 -0.342349,0.69246 -0.076,0.31614 -0.0139,0.65281 -0.004,0.97463 0.03323,0.26685 0.08481,0.52494 0.253902,0.7429 0.0375,0.0547 0.02283,0.0627 0.04632,0.019 -0.884921,0.50192 -1.769843,1.00385 -2.654765,1.50577 -0.02643,0.0154 0.06469,9.3e-4 0.09037,-0.0156 0.08028,-0.0518 0.143637,-0.19423 0.183847,-0.26635 0.166098,-0.46797 0.342393,-0.93239 0.496082,-1.40453 0.141945,-0.36955 0.221321,-0.75821 0.360573,-1.12823 0.09241,-0.28852 0.100152,-0.60619 0.310436,-0.84688 0.14848,-0.35251 0.376717,-0.67539 0.607817,-0.97789 0.206866,-0.26993 0.38839,-0.55651 0.621788,-0.80563 0.223125,-0.17077 0.387267,-0.40173 0.610241,-0.5695 0.214538,-0.22097 0.513403,-0.33077 0.708539,-0.57453 0.273802,-0.20594 0.548318,-0.40435 0.821058,-0.61175 0.175344,-0.11128 0.09083,-0.0487 0.252678,-0.18906 0.997055,-0.69396 2.395742,-1.06624 3.193678,-1.8612 0.255113,-0.0957 0.50795,-0.20563 0.746273,-0.33651 0.248606,-0.1391 0.528326,-0.18 0.800668,-0.25377 0.288636,-0.0642 0.591073,-0.0792 0.885904,-0.0866 0.330257,0.0716 0.567064,0.30964 0.553553,0.66311 -0.27731,1.33213 -2.042062,1.98748 -3.339402,1.9515 -0.350916,-7.1e-4 -0.701843,-0.002 -1.052753,4.6e-4 -0.346538,0.005 -0.694686,0.0109 -1.03735,0.0683 -0.330278,0.0647 -0.652445,0.16476 -0.967773,0.28148 -0.04624,0.0229 -0.183301,0.0946 -0.138727,0.0686 0.83925,-0.48886 3.36578,-1.9403 2.52305,-1.45746 -1.224391,0.70151 -2.086102,1.34343 -3.266387,1.80925 -1.579439,0.85259 3.624521,-2.19599 1.923105,-1.10311 -0.206709,0.1739 -0.37442,0.39309 -0.596302,0.54856 -0.126157,0.13247 -0.05761,0.0795 -0.215909,0.17007 -1.189879,0.68075 -2.081512,1.32126 -3.245129,1.78933 -1.032394,0.56506 0.354189,-0.19227 2.34526,-1.36195 0.05064,-0.0298 -0.109335,0.0438 -0.16063,0.0724 -0.180421,0.10059 -0.322539,0.2497 -0.45115,0.40865 -0.279957,0.25794 -0.570792,0.5076 -0.785551,0.82402 -0.162934,0.25538 -0.375885,0.47307 -0.541889,0.72315 -0.184239,0.23036 -0.314919,0.52724 -0.388352,0.81086 -0.09893,0.3755 -0.140792,0.75426 -0.177013,1.14125 0,0 -2.812743,1.36391 -2.812743,1.36391 z"
       inkscape:connector-curvature="0" />
    <path
       style="fill:#ffd42a;fill-opacity:1;stroke:none;stroke-opacity:1"
       id="path4144"
       d="m 64.379785,984.81236 c 0.373872,0.16594 0.779605,0.23371 1.183145,0.27959 0.368976,0.0344 0.739911,0.0341 1.110123,0.0345 0.243746,-0.0429 0.533876,0.0637 0.770915,-0.0192 -2.218443,1.85836 -1.796367,1.84642 -3.389066,1.84164 -0.393743,0.0324 -0.647613,-0.1981 -0.840874,-0.51363 -0.173989,-0.24339 -0.312041,-0.51132 -0.16483,-0.79744 0.984707,-0.60052 2.472994,-2.28551 3.60555,-1.2272 0.309553,0.34832 0.447266,0.81493 0.613827,1.24299 0.08875,0.38976 0.276686,0.73916 0.436164,1.10099 0.119855,0.30196 0.192673,0.61366 -0.0068,0.89262 -1.292966,0.80536 -2.327321,1.80401 -3.790229,1.55359 -0.35453,-0.11151 -0.665974,-0.33223 -0.927494,-0.59259 -0.22817,-0.27238 -0.278902,-0.61401 -0.308806,-0.95588 -0.02017,-0.35076 -0.01522,-0.70235 -0.01355,-1.05351 0.01438,-0.20813 -0.0401,-0.62929 0.189987,-0.7598 0.931963,-0.52863 1.881469,-1.02571 2.822203,-1.53856 0.317006,0.0456 0.609083,0.19992 0.904293,0.31898 0.185255,0.0732 0.412377,0.26633 0.628053,0.2199 0.03157,-0.007 0.108385,-0.0701 0.08018,-0.0544 -0.886584,0.49474 -1.770427,0.99438 -2.655641,1.49156 0.01662,0.0326 0.05099,0.0611 0.04986,0.0976 -9.24e-4,0.0297 -0.06218,0.005 -0.200801,-0.0223 -0.209081,-0.0411 -0.417217,-0.0645 -0.629255,-0.0837 -0.14736,-0.009 -0.252836,-0.0304 -0.395233,0.0158 -0.04865,0.0158 -0.179197,0.0987 -0.134596,0.0737 0.856355,-0.4799 1.71271,-0.95979 2.569065,-1.43968 -0.101303,0.0441 -0.0661,0.014 -0.117928,0.0734 0.252452,0.24634 0.672366,0.2563 1.003756,0.28966 0.547493,0.0233 1.101956,0.072 1.646849,-0.001 0.919901,-0.39036 2.837517,-1.55212 -2.171583,1.26145 -0.0323,0.0181 0.139346,-0.0611 0.112417,-0.18061 -0.312573,-0.0802 -0.641282,-0.13306 -0.961283,-0.0822 -0.225389,0.0305 -0.427016,0.13105 -0.616428,0.24876 -0.04411,0.0274 -0.181255,0.10146 -0.136256,0.0755 0.847287,-0.48806 1.695422,-0.97465 2.543133,-1.46198 -0.205825,0.13927 -0.373028,0.33678 -0.444698,0.57624 0.01586,0.26951 0.206439,0.50451 0.347674,0.72707 0.190157,0.20589 0.365122,0.42664 0.571511,0.61663 0.179607,0.22331 0.307748,0.3084 0.588952,0.24825 0.556152,-0.97014 0.06446,-0.0701 -2.510067,1.37392 -0.03542,0.0199 0.06126,-0.0544 0.08476,-0.0875 0.03059,-0.0431 0.05263,-0.0918 0.07607,-0.13914 0.08417,-0.17013 0.07544,-0.16776 0.134171,-0.35288 0.09831,-0.35631 0.08092,-0.7294 0.22674,-1.0719 -0.02501,-0.0393 0.0756,-0.0935 0.05704,-0.14049 -0.05397,-0.1367 -0.554792,-0.51638 -0.675658,-0.61897 -0.371324,-0.33149 -0.793094,-0.60969 -1.257894,-0.78978 -0.337647,-0.11034 -0.694093,-0.11533 -1.045603,-0.11985 -0.09074,0.0365 -0.19182,0.0415 -0.282815,0.0771 -0.0459,0.018 -0.174061,0.0925 -0.131178,0.0682 0.849652,-0.48147 1.700344,-0.9611 2.551565,-1.43978 0.04289,-0.0241 -0.08396,0.0514 -0.126515,0.0761 -0.929691,0.53973 -1.860135,1.07817 -2.790202,1.61725 6.008587,-3.46605 0.536671,-0.30601 -0.28397,0.15192 -0.848928,0.47371 1.684727,-0.97058 2.529135,-1.4523 0.331053,-0.18886 -0.292923,0.18776 -0.351033,0.23102 -0.197309,0.19135 -0.216225,0.47663 -0.323441,0.7185 -0.986087,0.77505 -2.574352,2.56912 -2.994113,1.14611 0,0 2.747118,-1.48932 2.747118,-1.48932 l 0,0 c 0.0162,0.0815 0.02939,0.12458 -0.01248,0.004 -0.877003,0.51313 -1.754006,1.02627 -2.631009,1.5394 0.293524,-0.10835 0.214552,-0.47184 0.340986,-0.71066 0.09555,-0.14952 0.172038,-0.22117 0.325201,-0.31005 0.931442,-0.54053 1.871064,-1.06724 2.793802,-1.62249 0.03116,-0.0187 -7.227474,4.18165 0.281012,-0.16314 -0.84392,0.4903 -1.685656,0.98437 -2.531759,1.47089 -0.04332,0.0249 0.07958,-0.0609 0.122937,-0.0858 0.875269,-0.5017 2.048935,-1.6677 3.28509,-1.64332 0.378141,0.0205 0.756337,0.0624 1.104782,0.22281 0.467494,0.23017 0.89398,0.52917 1.280587,0.87894 0.267082,0.22216 0.859211,0.59706 0.890056,0.97407 0.0035,0.0431 -0.0224,0.0836 -0.03359,0.12544 -0.04593,0.079 -0.108166,0.14914 -0.144522,0.23299 -0.106594,0.24584 -0.04207,0.53673 -0.125644,0.78957 -0.297028,1.36075 -1.223302,2.48225 -3.107074,2.37301 -0.296096,-0.0517 -0.527171,-0.21978 -0.716114,-0.45073 -0.211921,-0.21765 -0.417683,-0.44348 -0.60767,-0.68017 -0.17837,-0.28498 -0.374558,-0.575 -0.446074,-0.90766 -0.0074,-0.33812 0.134246,-0.56183 0.337757,-0.81783 0.710821,-0.4174 2.329493,-1.76531 3.606567,-1.84181 0.422831,0.0245 0.895487,0.0542 1.189381,0.39598 0.04248,0.0987 0.185034,0.44005 0.04007,0.53442 -1.088371,0.70852 -1.95802,1.58741 -3.187399,1.73634 -0.561822,0.0182 -1.126631,0.003 -1.68624,-0.0502 -0.483246,-0.0749 -0.982378,-0.16913 -1.25112,-0.62315 -0.01954,-0.0724 -0.05453,-0.14227 -0.05862,-0.21712 -0.0032,-0.0578 -0.0117,-0.13904 0.03749,-0.16956 1.717748,-1.06571 1.987218,-1.73161 3.384874,-1.57132 0.320858,0.0435 0.823152,0.0597 1.037843,0.34756 0.05073,0.068 0.07481,0.15232 0.112217,0.22848 -2.495307,1.4492 -1.985497,1.98983 -3.526129,1.29252 -0.254763,-0.10337 -0.526979,-0.2402 -0.805057,-0.16142 0.8558,-0.49451 1.718262,-0.97767 2.567401,-1.48353 0.03612,-0.0215 -0.08354,0.0132 -0.123137,0.0274 -0.20242,0.0724 -0.215109,0.27236 -0.205374,0.45968 -0.0018,0.34346 -0.0065,0.6871 0.0053,1.03044 0.01518,0.26301 0.02157,0.54465 0.201447,0.75466 0.228825,0.20943 0.483263,0.39694 0.801777,0.42735 1.346756,0.021 2.689154,-0.95912 -1.646427,1.37624 0.36041,-0.0432 0.304264,-0.20183 0.205485,-0.50252 -0.151343,-0.37047 -0.333254,-0.72862 -0.42165,-1.1227 -0.141181,-0.37935 -0.264282,-0.8025 -0.553961,-1.0961 -0.159478,-0.11418 -0.311502,-0.16068 -0.507539,-0.10983 -0.04224,0.011 -0.161189,0.0654 -0.12357,0.0433 0.855398,-0.50308 1.719297,-0.99158 2.578945,-1.48737 -0.395886,-0.0351 -0.190623,0.13756 -0.06015,0.36593 0.159886,0.25121 0.379341,0.27178 0.663577,0.25281 1.598617,-0.004 1.272383,-0.24474 -1.671688,1.84361 -0.240005,-0.0366 -0.492638,-0.004 -0.736741,-0.0173 -0.376494,-0.006 -0.753946,-0.016 -1.126937,-0.0724 -0.412352,-0.0684 -0.812087,-0.18182 -1.218076,-0.27722 0,0 2.564751,-1.78713 2.564751,-1.78713 z"
       inkscape:connector-curvature="0" />
    <path
       style="fill:#ffd42a;fill-opacity:1;stroke:none;stroke-opacity:1"
       id="path4146"
       d="m 60.400361,986.21238 c 0.799778,-1.18466 2.478941,-1.75698 3.569018,-2.37749 0.362158,-0.11245 0.742906,-0.11816 1.11858,-0.12266 0.353302,-5.5e-4 0.706593,0.003 1.059888,0.005 0.350736,0.002 0.701475,0.002 1.052214,0.002 0.292396,10e-5 0.584793,7e-5 0.877189,6e-5 0,0 -2.512206,1.82523 -2.512206,1.82523 l 0,0 c -0.292451,-10e-6 -0.584903,0 -0.877354,-2.8e-4 -0.351024,-4.2e-4 -0.70205,-0.001 -1.053068,-0.003 -0.350826,-0.002 -0.70181,-0.007 -1.052537,0.004 -0.355761,0.0186 -0.713844,0.0522 -1.034857,0.2213 0.824549,-0.47993 1.650752,-0.95703 2.473647,-1.43978 0.0598,-0.0351 -0.12504,0.0605 -0.184187,0.0967 -0.22256,0.13615 -0.414745,0.32726 -0.582716,0.5244 0,0 -2.853611,1.26476 -2.853611,1.26476 z"
       inkscape:connector-curvature="0" />
    <path
       style="fill:#ffd42a;fill-opacity:1;stroke:none;stroke-opacity:1"
       id="path4148"
       d="m 63.660286,985.46792 c 0.395961,0.0138 0.79234,0.01 1.188481,0.009 0.373887,-0.001 0.747776,-0.002 1.121665,-0.002 0.236244,-0.002 0.466846,-0.0136 0.698216,0.0361 0,0 -2.541505,1.79455 -2.541505,1.79455 l 0,0 c -0.222657,-0.009 -0.445394,-0.005 -0.668206,-0.006 -0.3718,-3.7e-4 -0.743598,-0.001 -1.115396,-0.002 -0.404233,-0.001 -0.80867,-0.005 -1.21274,0.009 0,0 2.529485,-1.83778 2.529485,-1.83778 z"
       inkscape:connector-curvature="0" />
    <path
       style="fill:#ff0000;fill-opacity:1;stroke:none;stroke-opacity:1"
       id="path4152"
       d="m 63.308584,984.92561 c 0.413624,-0.0243 0.810153,0.0657 1.205308,0.17471 0.389637,0.0954 0.765297,0.24443 1.126053,0.41865 0.305299,0.13153 0.594487,0.30735 0.841038,0.53087 0.255509,0.18707 0.468094,0.42061 0.698428,0.63602 0.214401,0.21956 0.413257,0.45539 0.636998,0.66551 0.118477,0.13328 0.05744,0.0716 0.182133,0.186 0,0 -1.179962,0.72782 -1.179962,0.72782 l 0,0 c -0.127125,-0.12305 -0.06654,-0.0603 -0.182107,-0.18783 -0.217556,-0.21517 -0.418065,-0.44689 -0.631594,-0.66608 -0.230517,-0.21426 -0.44642,-0.44292 -0.700545,-0.63056 -0.242429,-0.20922 -0.518333,-0.37657 -0.813044,-0.50196 -0.358506,-0.16367 -0.726853,-0.30805 -1.111009,-0.39976 -0.392389,-0.10415 -0.788083,-0.16801 -1.195912,-0.1366 0,0 1.124215,-0.81679 1.124215,-0.81679 z"
       inkscape:connector-curvature="0" />
    <path
       style="fill:#ff0000;fill-opacity:1;stroke:none;stroke-opacity:1"
       id="path4154"
       d="m 66.986804,983.65964 c 0.215805,0.31394 0.504182,0.55587 0.792366,0.79832 0.226811,0.22407 0.490881,0.39701 0.74674,0.58281 0.231757,0.1536 0.509392,0.19937 0.769046,0.28867 0,0 -1.146921,0.77661 -1.146921,0.77661 l 0,0 c -0.270211,-0.0928 -0.558725,-0.14424 -0.790739,-0.3224 -0.26149,-0.18389 -0.514319,-0.37617 -0.748968,-0.59456 -0.295653,-0.25052 -0.576227,-0.51414 -0.816542,-0.82027 0,0 1.195018,-0.70918 1.195018,-0.70918 z"
       inkscape:connector-curvature="0" />
    <path
       style="fill:#ff0000;fill-opacity:1;stroke:none;stroke-opacity:1"
       id="path4156"
       d="m 64.54096,987.4821 c 0.328696,0.19177 0.676146,0.33904 1.006805,0.52983 0.282177,0.20602 0.612703,0.3176 0.931,0.45257 0.123706,0.0719 0.240726,0.14422 0.351408,0.23467 0,0 -1.173255,0.73844 -1.173255,0.73844 l 0,0 c -0.1043,-0.0782 -0.213024,-0.14694 -0.329336,-0.20642 -0.320176,-0.14087 -0.650096,-0.26158 -0.936016,-0.46885 -0.334869,-0.19585 -0.695177,-0.33365 -1.025019,-0.53743 0,0 1.174413,-0.74281 1.174413,-0.74281 z"
       inkscape:connector-curvature="0" />
    <path
       style="fill:#ffffff;fill-rule:evenodd;stroke:#000000;stroke-width:1px;stroke-linecap:butt;stroke-linejoin:miter;stroke-opacity:1"
       d="m 28.776502,1019.199 c -0.350933,0 -0.701866,0 -1.052799,0 -0.05849,0 -0.134108,0.041 -0.175466,0 -0.04136,-0.041 0.02616,-0.1231 0,-0.1754 -0.365125,-0.7303 0.01211,0.1875 -0.350933,-0.1755 -0.04136,-0.041 0.04136,-0.1341 0,-0.1755 -0.04136,-0.041 -0.134109,0.041 -0.175466,0 -0.04136,-0.041 0.02616,-0.1231 0,-0.1754 -0.07398,-0.148 -0.27695,-0.203 -0.350933,-0.351 -0.03173,-0.063 0,-0.7553 0,-0.8773 0,-0.7603 0,-1.5207 0,-2.2811 0,-0.2924 0,-0.5848 0,-0.8773 0,-0.058 0,-0.117 0,-0.1755 0,-0.058 0.02616,-0.1231 0,-0.1754 -0.03699,-0.074 -0.138475,-0.1015 -0.175467,-0.1755 -0.02616,-0.052 0,-0.117 0,-0.1755 0,-0.1169 0,-0.2339 0,-0.3509 0,-0.2924 0,-0.5849 0,-0.8773 0,-0.079 -0.0267,-0.473 0,-0.5264 0.365125,-0.7303 -0.01211,0.1876 0.350933,-0.1755 0.04136,-0.041 -0.04136,-0.1341 0,-0.1755 0.04136,-0.041 0.134109,0.041 0.175467,0 0.08272,-0.083 -0.08272,-0.2682 0,-0.3509 0.04136,-0.041 0.134108,0.041 0.175466,0 0.04136,-0.041 -0.04136,-0.1341 0,-0.1755 0.363046,-0.363 -0.01419,0.5548 0.350933,-0.1754 0.02616,-0.052 -0.04136,-0.1341 0,-0.1755 0.04136,-0.041 0.134109,0.041 0.175466,0 0.04136,-0.041 -0.04136,-0.1341 0,-0.1755 0.08272,-0.083 0.268218,0.083 0.350933,0 0.04136,-0.041 -0.04136,-0.1341 0,-0.1754 0.04136,-0.041 0.123153,0.026 0.175467,0 0.730249,-0.3651 -0.18758,0.012 0.175466,-0.351 0.04136,-0.041 0.123153,0.026 0.175467,0 0.07398,-0.037 0.101483,-0.1384 0.175466,-0.1754 0.05231,-0.026 0.134109,0.041 0.175467,0 0.04136,-0.041 -0.04136,-0.1341 0,-0.1755 0.09248,-0.092 0.258454,-0.083 0.350933,-0.1755 0.09248,-0.092 0.08299,-0.2584 0.175466,-0.3509 0.09248,-0.092 0.233956,-0.117 0.350933,-0.1755 0.116978,-0.058 0.233956,-0.1169 0.350933,-0.1754 0.350933,-0.1755 0.680578,-0.4023 1.052799,-0.5264 0.110975,-0.037 0.239958,0.037 0.350933,0 0.07847,-0.026 0.101483,-0.1385 0.175466,-0.1755 0.05231,-0.026 0.11998,0.019 0.175467,0 0.124073,-0.041 0.226859,-0.1341 0.350933,-0.1755 0.120691,-0.04 0.422871,0.052 0.526399,0 0.07398,-0.037 0.101484,-0.1384 0.175467,-0.1754 0.06345,-0.032 0.755288,0 0.877332,0 0.643377,0 1.286754,0 1.930131,0 0.350933,0 0.701866,0 1.052799,0 0.116978,0 0.246305,-0.052 0.350933,0 0.05231,0.026 -0.04136,0.1341 0,0.1754 0.08272,0.083 0.239958,-0.037 0.350933,0 1.270977,0.4237 -0.276642,-0.051 0.5264,0.351 0.05231,0.026 0.123152,-0.026 0.175466,0 0.07398,0.037 0.101483,0.1385 0.175467,0.1754 0.140373,0.07 0.386026,-0.07 0.526399,0 0.05231,0.026 -0.04136,0.1342 0,0.1755 0.04136,0.041 0.134109,-0.041 0.175467,0 0.09248,0.092 0.08299,0.2585 0.175466,0.3509 0.04136,0.041 0.134109,-0.041 0.175466,0 0.09248,0.092 0.102921,0.2422 0.175467,0.351 0.04588,0.069 0.138475,0.1015 0.175466,0.1754 0.02616,0.052 -0.02616,0.1232 0,0.1755 0.07398,0.148 0.27695,0.203 0.350933,0.3509 0.05231,0.1047 -0.08272,0.2683 0,0.351 0.04136,0.041 0.134109,-0.041 0.175467,0 0.08773,0.088 -0.08773,0.4386 0,0.5264 0.04136,0.041 0.134109,-0.041 0.175466,0 0.08272,0.083 -0.08272,0.2682 0,0.3509 0.04136,0.041 0.134109,-0.041 0.175467,0 0.05433,0.054 -0.05433,0.823 0,0.8773 0.04136,0.041 0.134108,-0.041 0.175466,0 0.0056,0.01 0,0.4839 0,0.5264 0,0.9359 0,1.8717 0,2.8075 0,0.083 0.008,0.8694 0,0.8773 -0.04136,0.041 -0.134108,-0.041 -0.175466,0 -0.08272,0.083 0.08272,0.2683 0,0.351 -0.04136,0.041 -0.134109,-0.041 -0.175467,0 -0.04222,0.042 0.04222,0.6596 0,0.7018 -0.04136,0.041 -0.134108,-0.041 -0.175466,0 -0.04136,0.041 0,0.117 0,0.1755 0,0.058 0,0.117 0,0.1755 0,0.4115 0.04136,-0.083 -0.175467,0.3509 -0.02616,0.052 0.04136,0.1341 0,0.1755 -0.04136,0.041 -0.134108,-0.041 -0.175466,0 -0.08773,0.088 0.08773,0.4386 0,0.5264 -0.04136,0.041 -0.134109,-0.041 -0.175467,0 -0.03587,0.036 0.03479,0.4568 0,0.5264 -0.03699,0.074 -0.138474,0.1015 -0.175466,0.1754 -0.05231,0.1047 0.05231,0.2463 0,0.351 -0.365125,0.7302 0.01211,-0.1876 -0.350933,0.1754 -0.08773,0.088 0.08773,0.4387 0,0.5264 -0.04136,0.041 -0.134109,-0.041 -0.175466,0 -0.08773,0.088 0.08773,0.4387 0,0.5264 -0.04136,0.041 -0.134109,-0.041 -0.175467,0 -0.04222,0.042 0.04222,0.6597 0,0.7019 -0.04136,0.041 -0.134109,-0.041 -0.175466,0 -0.04136,0.041 0.02616,0.1232 0,0.1755 -0.07398,0.1479 -0.27695,0.2029 -0.350933,0.3509 -0.02616,0.052 0.04136,0.1341 0,0.1755 -0.04136,0.041 -0.123153,-0.026 -0.175467,0 -0.387966,0.1939 -0.05445,0.1089 -0.175466,0.3509 -0.03699,0.074 -0.138475,0.1015 -0.175467,0.1755 -0.05231,0.1046 0.116978,0.3509 0,0.3509 -0.05849,0 0.05849,-0.1755 0,-0.1755 -0.365125,0 -0.0706,0.2461 -0.175466,0.351 -0.04136,0.041 -0.134109,-0.041 -0.175467,0 -0.08773,0.088 0.08773,0.4386 0,0.5264 -0.04136,0.041 -0.134108,-0.041 -0.175466,0 -0.04222,0.042 0.04222,0.6596 0,0.7018 -0.04136,0.041 -0.14931,-0.052 -0.175467,0 -0.07847,0.157 0.07847,0.3695 0,0.5264 -0.03699,0.074 -0.138475,0.1015 -0.175466,0.1755 -0.04759,0.095 0.04801,0.6539 0,0.7019 -0.04136,0.041 -0.134109,-0.041 -0.175467,0 -0.04136,0.041 0.04136,0.1341 0,0.1754 -0.04136,0.041 -0.134108,-0.041 -0.175466,0 -0.04136,0.041 0.04136,0.1341 0,0.1755 -0.04136,0.041 -0.123153,-0.026 -0.175467,0 -0.147966,0.074 -0.202966,0.2769 -0.350933,0.3509 -0.05231,0.026 -0.123152,-0.026 -0.175466,0 -0.07398,0.037 -0.101483,0.1385 -0.175467,0.1755 -0.05231,0.026 -0.119979,-0.018 -0.175466,0 -0.124074,0.041 -0.226859,0.1341 -0.350933,0.1755 -0.05549,0.019 -0.119979,-0.018 -0.175466,0 -0.124074,0.041 -0.22686,0.1341 -0.350933,0.1754 -0.05549,0.018 -0.134109,-0.041 -0.175467,0 -0.04136,0.041 0.04136,0.1341 0,0.1755 -0.04136,0.041 -0.116978,0 -0.175466,0 -0.05849,0 -0.116978,0 -0.175467,0 -0.350933,0 -0.701866,0 -1.052799,0 -0.07902,0 -0.472999,-0.027 -0.526399,0 -0.07398,0.037 -0.101483,0.1385 -0.175467,0.1755 -0.04537,0.023 -0.928427,0 -1.052798,0 -0.274626,0 -1.027085,0 -1.754665,0 -0.08273,0 -0.86938,0.01 -0.877333,0 -0.04136,-0.041 0.04136,-0.1341 0,-0.1755 -0.363046,-0.3631 0.01419,0.5548 -0.350933,-0.1755 -0.02616,-0.052 0.02616,-0.1231 0,-0.1754 -0.03699,-0.074 -0.138475,-0.1015 -0.175466,-0.1755 -0.02616,-0.052 0.04136,-0.1341 0,-0.1755 -0.363046,-0.363 0.01419,0.5548 -0.350933,-0.1754 -0.03173,-0.063 0,-0.7553 0,-0.8774 0,-0.4094 0,-0.8188 0,-1.2282 0,-0.059 -0.04136,-0.1341 0,-0.1755 0.04136,-0.041 0.134109,0.041 0.175466,0 0.08272,-0.083 -0.05231,-0.2463 0,-0.3509 0.03699,-0.074 0.138475,-0.1015 0.175467,-0.1755 0.02616,-0.052 -0.02616,-0.1232 0,-0.1755 0.10528,-0.2105 0.421119,-0.3158 0.526399,-0.5264 0.05231,-0.1046 -0.08272,-0.2682 0,-0.3509 0.04136,-0.041 0.134109,0.041 0.175467,0 0.04136,-0.041 -0.04136,-0.1341 0,-0.1755 0.04136,-0.041 0.134108,0.041 0.175466,0 0.04136,-0.041 0,-0.1169 0,-0.1754 0,-0.351 0,-0.7019 0,-1.0528 0,-0.2925 0,-0.5849 0,-0.8774 0,-0.058 0.04136,-0.1341 0,-0.1754 -0.04136,-0.041 -0.134108,0.041 -0.175466,0 -0.02127,-0.021 0.01801,-0.2789 0,-0.351 -0.155381,-0.6215 -0.202863,-0.7018 -0.877333,-0.7018"
       id="path4158"
       inkscape:connector-curvature="0" />
    <path
       style="fill:none;fill-rule:evenodd;stroke:#000000;stroke-width:1px;stroke-linecap:butt;stroke-linejoin:miter;stroke-opacity:1"
       d="m 31.057567,1027.2705 c 0,-1.7692 0,-4.2202 0,-5.4395"
       id="path4160"
       inkscape:connector-curvature="0" />
    <path
       style="fill:none;fill-rule:evenodd;stroke:#000000;stroke-width:1px;stroke-linecap:butt;stroke-linejoin:miter;stroke-opacity:1"
       d="m 34.39143,1026.9196 c 0,-0.4679 0,-0.9359 0,-1.4038 0,-0.8773 0,-1.7546 0,-2.632 0,-0.2924 0,-0.5849 0,-0.8773 0,-0.117 0,-0.4679 0,-0.3509 0,0.1169 0,0.4679 0,0.3509 0,-0.1755 0,-0.3509 0,-0.5264"
       id="path4162"
       inkscape:connector-curvature="0" />
    <path
       style="fill:#ffffff;fill-rule:evenodd;stroke:#000000;stroke-width:1px;stroke-linecap:butt;stroke-linejoin:miter;stroke-opacity:1"
       d="m 26.319972,1015.8652 c -0.233956,-0.117 -0.49261,-0.194 -0.701866,-0.351 -0.04679,-0.035 0.02616,-0.1231 0,-0.1754 -0.03699,-0.074 -0.138475,-0.1015 -0.175467,-0.1755 -0.02616,-0.052 0.04136,-0.1341 0,-0.1755 -0.04136,-0.041 -0.123152,0.026 -0.175466,0 -0.07398,-0.037 -0.101484,-0.1384 -0.175467,-0.1754 -0.05231,-0.026 -0.134108,0.041 -0.175466,0 -0.04136,-0.041 0.04136,-0.1341 0,-0.1755 -0.684799,-0.6848 -0.09423,0.041 -0.5264,-0.1755 -0.07398,-0.037 -0.101483,-0.1384 -0.175466,-0.1754 -0.05231,-0.026 -0.134109,0.041 -0.175467,0 -0.04136,-0.041 0.04136,-0.1341 0,-0.1755 -0.04136,-0.041 -0.134108,0.041 -0.175466,0 -0.04136,-0.041 0.04136,-0.1341 0,-0.1755 -0.08272,-0.083 -0.268217,0.083 -0.350933,0 -0.04136,-0.041 0.04136,-0.1341 0,-0.1754 -0.04136,-0.041 -0.123152,0.026 -0.175466,0 -0.07398,-0.037 -0.101484,-0.1385 -0.175467,-0.1755 -0.05231,-0.026 -0.123152,0.026 -0.175466,0 -0.73025,-0.3651 0.187579,0.012 -0.175467,-0.3509 -0.04136,-0.041 -0.134109,0.041 -0.175466,0 -0.04136,-0.041 0.04136,-0.1341 0,-0.1755 -0.08272,-0.083 -0.268218,0.083 -0.350933,0 -0.04136,-0.041 0.04136,-0.1341 0,-0.1755 -0.04136,-0.041 -0.134109,0.041 -0.175467,0 -0.04136,-0.041 0.04136,-0.1341 0,-0.1754 -0.08272,-0.083 -0.268217,0.083 -0.350933,0 -0.04136,-0.041 0.04136,-0.1341 0,-0.1755 -0.04136,-0.041 -0.134108,0.041 -0.175466,0 -0.04136,-0.041 0,-0.117 0,-0.1755 -0.05849,0 -0.134109,0.041 -0.175467,0 -0.04136,-0.041 0.04136,-0.1341 0,-0.1754 -0.04136,-0.041 -0.123152,0.026 -0.175466,0 -0.07398,-0.037 -0.101484,-0.1385 -0.175467,-0.1755 -0.05231,-0.026 -0.134108,0.041 -0.175466,0 -0.04136,-0.041 0.04136,-0.1341 0,-0.1755 -0.08272,-0.083 -0.268217,0.083 -0.350933,0 -0.04136,-0.041 0.04136,-0.1341 0,-0.1754 -0.04136,-0.041 -0.134109,0.041 -0.175467,0 -0.04136,-0.041 0.04136,-0.1341 0,-0.1755 -0.04136,-0.041 -0.175466,0.058 -0.175466,0 0,-0.059 0.233955,0 0.175466,0 -0.116977,0 -0.233955,0 -0.350933,0 -0.05849,0 -0.134108,0.041 -0.175466,0 -0.04136,-0.041 0.04136,-0.1341 0,-0.1755 -0.233955,-0.2339 -0.175466,0.2925 -0.175466,-0.1754 0.204297,-1.3732 -0.654612,-0.1282 -0.877333,-0.351 -0.04136,-0.041 0.04136,-0.1341 0,-0.1754 -0.04136,-0.041 -0.134109,0.041 -0.175466,0 -0.04136,-0.041 0,-0.117 0,-0.1755 0,-0.058 0,-0.117 0,-0.1755 0,-0.2924 0,-0.5848 0,-0.8773 0,-0.058 -0.04136,-0.1341 0,-0.1755 0.46791,0 -0.05849,0.058 0.175466,-0.1754 0.08272,-0.083 0.268217,0.083 0.350933,0 0.04136,-0.041 -0.04136,-0.1341 0,-0.1755 0.04136,-0.041 0.116978,0 0.175467,0 0.292444,0 0.584888,0 0.877332,0 0.06444,0 0.694805,-0.01 0.701866,0 0.08272,0.083 -0.08272,0.2682 0,0.3509 0.08272,0.083 0.268217,-0.083 0.350933,0 0.04136,0.041 -0.04136,0.1342 0,0.1755 0.04136,0.041 0.123152,-0.026 0.175466,0 0.07398,0.037 0.09275,0.1755 0.175467,0.1755 0.05849,0 0,-0.117 0,-0.1755 0,-0.058 0.04136,-0.1341 0,-0.1755 -0.04136,-0.041 -0.134109,0.041 -0.175467,0 -0.04136,-0.041 0.02616,-0.1231 0,-0.1754 -0.210085,-0.4202 -0.350933,0.1106 -0.350933,-0.351 0,-0.083 0.008,-0.8693 0,-0.8773 -0.04136,-0.041 -0.134108,0.041 -0.175466,0 -0.04136,-0.041 0,-0.117 0,-0.1755 0,-0.058 0,-0.1169 0,-0.1754 0,-0.117 0,-0.234 0,-0.351 0,-0.058 -0.05849,-0.1754 0,-0.1754 0.05849,0 0,0.2339 0,0.1754 0,-0.2386 -0.09449,-0.5668 0.175466,-0.7018 0.03599,-0.018 0.501654,-0.025 0.5264,0 0.04136,0.041 -0.04136,0.1341 0,0.1754 0.04136,0.041 0.134108,-0.041 0.175466,0 0.04136,0.041 -0.04136,0.1342 0,0.1755 0.04136,0.041 0.134109,-0.041 0.175467,0 0.04136,0.041 -0.04136,0.1341 0,0.1755 0.04136,0.041 0.134108,-0.041 0.175466,0 0.173094,0.1731 -0.359544,0.3509 0.175467,0.3509 0.46791,0 -0.05849,-0.058 0.175466,0.1755 0.04136,0.041 0.134109,-0.041 0.175467,0 0.08272,0.083 -0.08272,0.2682 0,0.3509 0.04136,0.041 0.134108,-0.041 0.175466,0 0.04136,0.041 -0.04136,0.1341 0,0.1755 0.04136,0.041 0.134109,-0.041 0.175467,0 0.04136,0.041 -0.04136,0.1341 0,0.1754 0.04136,0.041 0.134108,-0.041 0.175466,0 0.08272,0.083 -0.08272,0.2683 0,0.351 0.04136,0.041 0.116978,0 0.175467,0 0,0.058 -0.04136,0.1341 0,0.1754 0.04136,0.041 0.134108,-0.041 0.175466,0 0.04136,0.041 -0.02616,0.1232 0,0.1755 0.03699,0.074 0.138475,0.1015 0.175466,0.1755 0.02616,0.052 -0.04136,0.1341 0,0.1754 0.08272,0.083 0.268218,-0.083 0.350933,0 0.04136,0.041 -0.02616,0.1232 0,0.1755 0.03699,0.074 0.138475,0.1015 0.175467,0.1755 0.02616,0.052 -0.04136,0.1341 0,0.1754 0.04136,0.041 0.134109,-0.041 0.175466,0 0.04136,0.041 -0.04136,0.1342 0,0.1755 0.04136,0.041 0.134109,-0.041 0.175467,0 0.04136,0.041 -0.04136,0.1341 0,0.1755 0.08272,0.083 0.268217,-0.083 0.350933,0 0.04136,0.041 -0.04136,0.1341 0,0.1754 0.04136,0.041 0.134108,-0.041 0.175466,0 0.04136,0.041 -0.04136,0.1342 0,0.1755 0.04136,0.041 0.134109,-0.041 0.175467,0 0.04136,0.041 -0.04136,0.1341 0,0.1755 0.363046,0.363 -0.01419,-0.5548 0.350933,0.1754 0.02616,0.052 -0.04136,0.1342 0,0.1755 0.04136,0.041 0.134108,-0.041 0.175466,0 0.04136,0.041 -0.04136,0.1341 0,0.1755 0.08272,0.083 0.268217,-0.083 0.350933,0 0.08272,0.083 -0.08272,0.2682 0,0.3509 0.04136,0.041 0.123153,-0.026 0.175467,0 0.07398,0.037 0.233955,0.117 0.175466,0.1755 -0.05849,0.058 -0.258182,-0.1755 -0.175466,-0.1755 0.130785,0 0.233955,0.117 0.350933,0.1755"
       id="path4164"
       inkscape:connector-curvature="0" />
    <path
       style="fill:#ffffff;fill-rule:evenodd;stroke:#000000;stroke-width:1px;stroke-linecap:butt;stroke-linejoin:miter;stroke-opacity:1"
       d="m 40.35729,1011.303 c 0.05849,-0.2339 0.06762,-0.4861 0.175466,-0.7018 0.02616,-0.052 0.134109,0.041 0.175467,0 0.04136,-0.041 -0.04136,-0.1341 0,-0.1755 0.04136,-0.041 0.134108,0.041 0.175466,0 0.04136,-0.041 -0.04136,-0.1341 0,-0.1755 0.04136,-0.041 0.123153,0.026 0.175467,0 0.07398,-0.037 0.101483,-0.1384 0.175466,-0.1754 0.05231,-0.026 0.134109,0.041 0.175467,0 0.04136,-0.041 -0.04136,-0.1341 0,-0.1755 0.04136,-0.041 0.123152,0.026 0.175466,0 0.07398,-0.037 0.101484,-0.1385 0.175467,-0.1755 0.05231,-0.026 0.123152,0.026 0.175466,0 0.147967,-0.074 0.193991,-0.2986 0.350933,-0.3509 0.110975,-0.037 0.246305,0.052 0.350933,0 0.05231,-0.026 -0.05231,-0.1493 0,-0.1755 0.104628,-0.052 0.246305,0.052 0.350933,0 0.05231,-0.026 -0.04136,-0.1341 0,-0.1754 0.04136,-0.041 0.134109,0.041 0.175467,0 0.04136,-0.041 0,-0.117 0,-0.1755 0.05849,0 0.134108,0.041 0.175466,0 0.04136,-0.041 -0.02616,-0.1231 0,-0.1755 0.03699,-0.074 0.138475,-0.1014 0.175466,-0.1754 0.02616,-0.052 -0.04136,-0.1341 0,-0.1755 0.04136,-0.041 0.134109,0.041 0.175467,0 0.04136,-0.041 -0.04136,-0.1341 0,-0.1755 0.04136,-0.041 0.119979,0.019 0.175466,0 0.124074,-0.041 0.242114,-0.1029 0.350933,-0.1754 0.250479,0.1146 0.15167,-0.3272 0.175467,-0.351 0.08272,-0.083 0.246305,0.052 0.350933,0 0.07398,-0.037 0.101483,-0.1384 0.175466,-0.1754 0.05231,-0.026 0.134109,0.041 0.175467,0 0.04136,-0.041 -0.04136,-0.1341 0,-0.1755 0.04136,-0.041 0.134108,0.041 0.175466,0 0.04136,-0.041 -0.04136,-0.1341 0,-0.1755 0.03587,-0.036 0.456829,0.035 0.5264,0 0.07398,-0.037 0.101483,-0.1384 0.175466,-0.1754 0.05231,-0.026 0.116978,0 0.175467,0 0.05849,0 0.116977,0 0.175466,0 0.350933,0 0.701866,0 1.052799,0 0.05849,0 0.134109,-0.041 0.175466,0 0.0056,0.01 0,0.4838 0,0.5264 0,0.058 0,0.117 0,0.1754 0,0.058 -0.02616,0.1232 0,0.1755 0.03699,0.074 0.138475,0.1015 0.175467,0.1755 0.02616,0.052 0,0.117 0,0.1754 0,0.058 0,0.117 0,0.1755 0,0.2925 0,0.5849 0,0.8773 0,0.058 0,0.117 0,0.1755 0,0.059 0.04136,0.1341 0,0.1755 -0.04136,0.041 -0.123153,-0.026 -0.175467,0 -0.07398,0.037 -0.101483,0.1385 -0.175466,0.1754 -0.05231,0.026 -0.123152,-0.026 -0.175466,0 -0.07398,0.037 -0.101484,0.1385 -0.175467,0.1755 -0.05231,0.026 -0.134109,-0.041 -0.175466,0 -0.04136,0.041 0.04136,0.1341 0,0.1755 -0.04136,0.041 -0.116978,0 -0.175467,0 -0.05849,0 -0.116978,0 -0.175466,0 -0.485901,0 0.134967,0.1754 -0.350933,0.1754 -0.05849,0 -0.175467,0.059 -0.175467,0 0,-0.058 0.116978,0 0.175467,0 0.33645,0 0.271657,0.079 0.526399,-0.1754 0.05849,-0.058 0.101483,-0.1385 0.175467,-0.1755 0.104628,-0.052 0.246305,0.052 0.350933,0 0.07398,-0.037 0.101483,-0.1385 0.175466,-0.1755 0.09519,-0.048 0.653854,0.048 0.701866,0 0.04136,-0.041 -0.04136,-0.1341 0,-0.1754 0.04136,-0.041 0.116978,0 0.175466,0 0.350933,0 0.701866,0 1.052799,0 0.06444,0 0.694805,-0.01 0.701866,0 0.03587,0.036 -0.03478,0.4568 0,0.5264 0.03699,0.074 0.138475,0.1015 0.175467,0.1754 0.03173,0.064 0,0.7553 0,0.8774 0,0.058 0.04136,0.1341 0,0.1754 -0.09248,0.092 -0.22686,0.1342 -0.350933,0.1755 -0.05549,0.018 -0.134109,-0.041 -0.175467,0 -0.04136,0.041 0.04136,0.1341 0,0.1755 -0.04136,0.041 -0.134108,-0.041 -0.175466,0 -0.04136,0.041 0.04136,0.1341 0,0.1754 -0.08773,0.088 -0.438666,-0.088 -0.5264,0 -0.04136,0.041 0.04136,0.1342 0,0.1755 -0.04136,0.041 -0.134108,-0.041 -0.175466,0 -0.04136,0.041 0.04136,0.1341 0,0.1755 -0.08272,0.083 -0.268217,-0.083 -0.350933,0 -0.04136,0.041 0.04136,0.1341 0,0.1754 -0.08773,0.088 -0.438666,-0.088 -0.5264,0 -0.04136,0.041 0.04136,0.1342 0,0.1755 -0.08272,0.083 -0.246305,-0.052 -0.350933,0 -0.07398,0.037 -0.101483,0.1385 -0.175466,0.1755 -0.05231,0.026 -0.116978,0 -0.175466,0 -0.116978,0.058 -0.242114,0.1029 -0.350933,0.1754 -0.06882,0.046 -0.101484,0.1385 -0.175467,0.1755 -0.106547,0.053 -0.946252,-0.053 -1.052799,0 -0.433648,0.2168 0.06057,0.1755 -0.350933,0.1755 -0.07902,0 -0.472999,-0.027 -0.526399,0 -0.07398,0.037 -0.101483,0.1385 -0.175467,0.1754 -0.04614,0.023 -0.610111,0 -0.701866,0 -0.05849,0 -0.116977,0 -0.175466,0 -0.05849,0 -0.175467,0.058 -0.175467,0 0,-0.058 0.224133,-0.032 0.175467,0 -0.217639,0.1451 -0.459004,0.2538 -0.701866,0.351 -0.0543,0.022 -0.116978,0 -0.175466,0 -0.116978,0 -0.233956,0 -0.350933,0 -0.04896,0 -1.089624,0 -0.5264,0"
       id="path4166"
       inkscape:connector-curvature="0" />
    <path
       style="fill:#ffffff;fill-rule:evenodd;stroke:#000000;stroke-width:1px;stroke-linecap:butt;stroke-linejoin:miter;stroke-opacity:1"
       d="m 39.655424,1019.7254 c 0.703188,-0.086 0.233571,0.8181 0.350933,1.0528 0.03699,0.074 0.138475,0.1015 0.175466,0.1755 0.02616,0.052 -0.02616,0.1232 0,0.1755 0.114936,0.2298 0.235998,0.121 0.350933,0.3509 0.05231,0.1046 -0.08272,0.2682 0,0.3509 0.04136,0.041 0.134109,-0.041 0.175467,0 0.04136,0.041 -0.04136,0.1341 0,0.1755 0.363046,0.363 -0.01419,-0.5548 0.350933,0.1755 0.02616,0.052 -0.02616,0.1231 0,0.1754 0.03699,0.074 0.138475,0.1015 0.175466,0.1755 0.02616,0.052 -0.04136,0.1341 0,0.1755 0.04136,0.041 0.134109,-0.041 0.175467,0 0.363046,0.363 -0.554783,-0.014 0.175466,0.3509 0.05231,0.026 0.134109,-0.041 0.175467,0 0.08272,0.083 -0.08272,0.2682 0,0.3509 0.04136,0.041 0.134108,-0.041 0.175466,0 0.08272,0.083 -0.08272,0.2682 0,0.351 0.04136,0.041 0.134109,-0.041 0.175467,0 0.04136,0.041 -0.04136,0.1341 0,0.1754 0.04136,0.041 0.134108,-0.041 0.175466,0 0.08272,0.083 -0.08272,0.2682 0,0.351 0.04136,0.041 0.134109,-0.041 0.175467,0 0.08272,0.083 -0.08272,0.2682 0,0.3509 0.04136,0.041 0.134108,-0.041 0.175466,0 0.08272,0.083 -0.08272,0.2682 0,0.3509 0.08272,0.083 0.268217,-0.083 0.350933,0 0.08773,0.088 -0.08773,0.4387 0,0.5264 0.04136,0.041 0.134109,-0.041 0.175467,0 0.08272,0.083 -0.08272,0.2682 0,0.351 0.04136,0.041 0.134108,-0.041 0.175466,0 0.0056,0.01 0,0.4838 0,0.5264 0,0.059 0,0.1169 0,0.1754 0,0.058 0.04136,0.1341 0,0.1755 -0.04136,0.041 -0.134109,-0.041 -0.175466,0 -0.04136,0.041 0.04136,0.1341 0,0.1755 -0.04136,0.041 -0.123153,-0.026 -0.175467,0 -0.07398,0.037 -0.101483,0.1384 -0.175466,0.1754 -0.0534,0.027 -0.447377,0 -0.5264,0 -0.05849,0 -0.116978,0 -0.175466,0 -0.05849,0 -0.134109,0.041 -0.175467,0 -0.04136,-0.041 0.04136,-0.1341 0,-0.1754 -0.04136,-0.041 -0.123152,0.026 -0.175466,0 -0.07398,-0.037 -0.101484,-0.1385 -0.175467,-0.1755 -0.104628,-0.052 -0.246305,0.052 -0.350933,0 -0.07398,-0.037 -0.101483,-0.1385 -0.175466,-0.1755 -0.05231,-0.026 -0.175467,0.058 -0.175467,0 0,-0.059 0.116978,0 0.175467,0 0.233955,0 0.46791,0 0.701866,0 0.05849,0 0.116977,0 0.175466,0 0.05849,0 0.134109,-0.041 0.175467,0 0.363046,0.3631 -0.554783,-0.014 0.175466,0.351 0.05231,0.026 0.14931,-0.052 0.175467,0 0.05231,0.1046 -0.03699,0.2399 0,0.3509 0.02616,0.078 0.138475,0.1015 0.175466,0.1755 0.216083,0.4321 -0.509333,-0.1584 0.175467,0.5264 0.04136,0.041 0.149309,-0.052 0.175466,0 0.03729,0.074 0,0.7303 0,0.8773 0,0.043 0.0056,0.5207 0,0.5264 -0.0071,0.01 -0.637428,0 -0.701866,0 -0.06444,0 -0.694805,0.01 -0.701866,0 -0.04136,-0.041 0.04136,-0.1341 0,-0.1755 -0.08272,-0.083 -0.246305,0.052 -0.350933,0 -0.07398,-0.037 -0.101483,-0.1384 -0.175466,-0.1754 -0.104628,-0.052 -0.268217,0.083 -0.350933,0 -0.363047,-0.3631 0.554783,0.014 -0.175467,-0.351 -0.05231,-0.026 -0.134108,0.041 -0.175466,0 -0.08272,-0.083 0.08272,-0.2682 0,-0.3509 -0.04136,-0.041 -0.14931,0.052 -0.175467,0 -0.07455,-0.1491 0.05814,-0.7029 0,-0.8773 -0.216824,-0.6505 -0.175466,0.2138 -0.175466,-0.351 0,-0.2924 0,-0.5849 0,-0.8773 0,-0.058 0.04136,-0.1341 0,-0.1755 -0.04136,-0.041 -0.134109,0.041 -0.175467,0 -0.04136,-0.041 0.04136,-0.1341 0,-0.1754 -0.04136,-0.041 -0.134108,0.041 -0.175466,0 -0.04136,-0.041 0.04136,-0.1341 0,-0.1755 -0.04136,-0.041 -0.134109,0.041 -0.175467,0 -0.04136,-0.041 0.04136,-0.1341 0,-0.1755 -0.08272,-0.083 -0.268217,0.083 -0.350932,0 -0.04136,-0.041 0.04136,-0.1341 0,-0.1754 -0.08272,-0.083 -0.268218,0.083 -0.350933,0 -0.04136,-0.041 0.02616,-0.1232 0,-0.1755 -0.365125,-0.7303 0.01211,0.1876 -0.350933,-0.1755 -0.04136,-0.041 0.04136,-0.1341 0,-0.1754 -0.04136,-0.041 -0.134109,0.041 -0.175467,0 -0.04136,-0.041 0,-0.117 0,-0.1755 0,-0.059 0,-0.234 0,-0.1755 0,0.117 0,0.4679 0,0.351 0,-0.1755 0,-0.351 0,-0.5264 0,-0.059 0.04136,-0.1341 0,-0.1755 -0.08272,-0.083 -0.268217,0.083 -0.350933,0 -0.04136,-0.041 0,-0.117 0,-0.1755 0,-0.058 -0.05849,-0.1754 0,-0.1754 0.05849,0 0,0.1169 0,0.1754"
       id="path4168"
       inkscape:connector-curvature="0" />
    <path
       style="fill:#ffffff;fill-rule:evenodd;stroke:#000000;stroke-width:1px;stroke-linecap:butt;stroke-linejoin:miter;stroke-opacity:1"
       d="m 28.601036,1022.5329 c -0.233955,0.117 -0.459004,0.2538 -0.701866,0.3509 -0.07871,0.032 -0.42725,0 -0.526399,0 -0.409422,0 -0.818844,0 -1.228266,0 -0.05849,0 -0.116977,0 -0.175466,0 -0.05849,0 -0.134109,-0.041 -0.175467,0 -0.04136,0.041 0.04136,0.1341 0,0.1755 -0.08773,0.088 -0.438666,-0.088 -0.526399,0 -0.04136,0.041 0.04136,0.1341 0,0.1755 -0.08272,0.083 -0.246305,-0.052 -0.350933,0 -0.07398,0.037 -0.101483,0.1384 -0.175467,0.1754 -0.104628,0.052 -0.239958,-0.037 -0.350933,0 -0.318687,0.1063 -0.325639,0.1502 -0.526399,0.351 -0.05849,0.058 -0.101483,0.1384 -0.175467,0.1754 -0.09519,0.048 -0.653854,-0.048 -0.701865,0 -0.04136,0.041 0.04136,0.1341 0,0.1755 -0.04136,0.041 -0.123153,-0.026 -0.175467,0 -0.21056,0.1053 -0.31584,0.4211 -0.526399,0.5264 -0.05231,0.026 -0.134109,-0.041 -0.175467,0 -0.04136,0.041 0.04136,0.1341 0,0.1755 -0.04136,0.041 -0.134108,-0.041 -0.175466,0 -0.363047,0.363 0.554783,-0.014 -0.175467,0.3509 -0.46791,0 0.05849,-0.059 -0.175466,0.1755 -0.04136,0.041 -0.134109,-0.041 -0.175467,0 -0.363046,0.363 0.554783,-0.014 -0.175466,0.3509 -0.05231,0.026 -0.134109,-0.041 -0.175467,0 -0.08272,0.083 0.08272,0.2682 0,0.3509 -0.04136,0.041 -0.134108,-0.041 -0.175466,0 -0.04136,0.041 0.04136,0.1341 0,0.1755 -0.04136,0.041 -0.134109,-0.041 -0.175467,0 -0.09248,0.092 -0.10292,0.2421 -0.175466,0.3509 -0.04588,0.069 -0.138475,0.1015 -0.175467,0.1755 -0.02616,0.052 0.04136,0.1341 0,0.1755 -0.04136,0.041 -0.134108,-0.041 -0.175466,0 -0.08272,0.083 0.116978,0.3509 0,0.3509 -0.05849,0 -0.05849,-0.1755 0,-0.1755 0.08272,0 0.101483,0.1385 0.175466,0.1755 0.05231,0.026 0.116978,0 0.175467,0 0.116978,0 0.233955,0 0.350933,0 0.05849,0 0.175466,-0.059 0.175466,0 0,0.058 -0.175466,-0.059 -0.175466,0 0,0.083 0.175466,0.093 0.175466,0.1755 0,0.059 -0.116977,0 -0.175466,0 -0.175467,0 -0.350933,0 -0.5264,0 -0.05849,0 -0.233955,0 -0.175466,0 0.116978,0 0.467911,0 0.350933,0 -0.291405,0 -0.552096,-0.1241 -0.701866,0.1754 -0.05231,0.1047 0.08272,0.2682 0,0.351 -0.04136,0.041 -0.134109,-0.041 -0.175466,0 -0.04136,0.041 0,0.1169 0,0.1754 0,0.4679 0,0.9358 0,1.4038 0,0.058 0,0.1169 0,0.1754 0,0.058 -0.04136,0.1341 0,0.1755 0.0056,0.01 0.483844,0 0.526399,0 0.09175,0 0.655728,0.023 0.701866,0 0.07398,-0.037 0.101483,-0.1385 0.175466,-0.1755 0.104628,-0.052 0.246305,0.052 0.350933,0 0.07398,-0.037 0.101484,-0.1385 0.175467,-0.1754 0.104628,-0.052 0.246305,0.052 0.350933,0 0.07398,-0.037 0.101483,-0.1385 0.175466,-0.1755 0.05231,-0.026 0.134109,0.041 0.175467,0 0.04136,-0.041 -0.04136,-0.1341 0,-0.1755 0.08272,-0.083 0.268217,0.083 0.350933,0 0.04136,-0.041 -0.04136,-0.1341 0,-0.1754 0.04136,-0.041 0.116977,0 0.175466,0 0.116978,0 0.246305,0.052 0.350933,0 0.05231,-0.026 -0.04136,-0.1341 0,-0.1755 0.04136,-0.041 0.116978,0 0.175467,0 0.05849,0 0.116977,0 0.175466,0 0.05849,0 0.134109,-0.041 0.175466,0 0.04136,0.041 0.05849,0.1755 0,0.1755 -0.05849,0 0.02616,-0.2278 0,-0.1755 -0.08272,0.1654 -0.09275,0.361 -0.175466,0.5264 -0.07398,0.148 -0.27695,0.203 -0.350933,0.3509 -0.02616,0.052 0.04136,0.1341 0,0.1755 -0.04136,0.041 -0.134109,-0.041 -0.175466,0 -0.04136,0.041 0.02616,0.1231 0,0.1755 -0.03699,0.074 -0.138475,0.1014 -0.175467,0.1754 -0.02616,0.052 0,0.117 0,0.1755 -0.05849,0.058 -0.138475,0.1015 -0.175466,0.1755 -0.02616,0.052 0.04136,0.1341 0,0.1754 -0.04136,0.041 -0.134109,-0.041 -0.175467,0 -0.0056,0.01 0,0.4839 0,0.5264 0,0.059 -0.04136,0.1341 0,0.1755 0.04136,0.041 0.116978,0 0.175467,0 0.05849,0 0.116977,0 0.175466,0 0.409422,0 0.818844,0 1.228265,0 0.05849,0 0.134109,0.041 0.175467,0 0.04136,-0.041 -0.04136,-0.1341 0,-0.1755 0.04136,-0.041 0.123152,0.026 0.175466,0 0.73025,-0.3651 -0.18758,0.012 0.175467,-0.3509 0.04136,-0.041 0.134109,0.041 0.175466,0 0.04136,-0.041 -0.04136,-0.1341 0,-0.1755 0.04136,-0.041 0.134109,0.041 0.175467,0 0.04136,-0.041 -0.04136,-0.1341 0,-0.1754 0.04136,-0.041 0.134108,0.041 0.175466,0 0.08773,-0.088 -0.08773,-0.4387 0,-0.5264 0.04136,-0.041 0.134109,0.041 0.175467,0 0.08272,-0.083 -0.05231,-0.2463 0,-0.351 0.03699,-0.074 0.138475,-0.1015 0.175466,-0.1754 0.02616,-0.052 -0.04136,-0.1342 0,-0.1755 0.09248,-0.092 0.258454,-0.083 0.350933,-0.1755 0.04136,-0.041 -0.02616,-0.1231 0,-0.1754 0.03699,-0.074 0.138475,-0.1015 0.175467,-0.1755 0.02616,-0.052 -0.04136,-0.1341 0,-0.1755 0.04136,-0.041 0.134108,0.041 0.175466,0 0.04136,-0.041 -0.02616,-0.1231 0,-0.1754 0.10528,-0.2106 0.42112,-0.3159 0.5264,-0.5264 0.05231,-0.1047 -0.08272,-0.2683 0,-0.351 0.04136,-0.041 0.134108,0.041 0.175466,0 0.04136,-0.041 -0.02616,-0.1231 0,-0.1754 0.03699,-0.074 0.116978,-0.117 0.175467,-0.1755 0.05849,-0.059 0.138474,-0.1015 0.175466,-0.1755 0.04759,-0.095 -0.04801,-0.6538 0,-0.7018 0.04136,-0.041 0.134109,0.041 0.175467,0 0.233955,-0.234 -0.292445,-0.1755 0.175466,-0.1755"
       id="path4170"
       inkscape:connector-curvature="0" />
    <path
       style="fill:none;fill-rule:evenodd;stroke:#000000;stroke-width:1px;stroke-linecap:butt;stroke-linejoin:miter;stroke-opacity:1"
       d="m 31.4085,1012.8822 c -0.292445,0 -0.584889,0 -0.877333,0 -0.233955,0 -0.46791,0 -0.701866,0 -0.05849,0 -0.134108,-0.041 -0.175466,0 -0.04136,0.041 0,0.117 0,0.1755 0,0.079 -0.0267,0.473 0,0.5264 0.121777,0.2436 0.312211,0.1755 0.526399,0.1755 0.05849,0 0.123153,-0.026 0.175467,0 0.07398,0.037 0.101483,0.1384 0.175466,0.1754 0.06346,0.032 0.755289,0 0.877333,0 0.05849,0 0.134108,0.041 0.175466,0 0.04136,-0.041 -0.02616,-0.1231 0,-0.1754 0.07134,-0.1427 0.278341,-0.1452 0.175466,-0.351 -0.09431,-0.1886 -0.157099,-0.4433 -0.350932,-0.5264 -0.268799,-0.1152 -0.584889,0 -0.877333,0 -0.409422,0 -0.818843,0 -1.228265,0 -0.05849,0 -0.116978,0 -0.175467,0 -0.05849,0 -0.134108,-0.041 -0.175466,0 -0.04136,0.041 0,0.117 0,0.1755 0,0.083 -0.008,0.8694 0,0.8773 0.0056,0.01 0.483844,0 0.526399,0 0.409422,0 0.818844,0 1.228266,0 0.05849,0 0.134108,0.041 0.175466,0 0.04136,-0.041 -0.04136,-0.1341 0,-0.1754 0.04136,-0.041 0.116978,0 0.175467,0 0,-0.058 -0.02616,-0.1232 0,-0.1755 0.03699,-0.074 0.101483,-0.1385 0.175466,-0.1755 0.05231,-0.026 0.156971,0.056 0.175467,0 0.05549,-0.1664 0.156942,-0.4479 0,-0.5264 -0.215697,-0.1078 -0.465394,0.1282 -0.701866,0.1755 -0.06003,0.012 -0.508443,-0.018 -0.5264,0 -0.0056,0.01 0,0.4839 0,0.5264 0,0.058 0,0.117 0,0.1755 0,0.058 -0.04136,0.1341 0,0.1754 0.04136,0.041 0.116978,0 0.175467,0 0.05849,0 0.116977,0 0.175466,0 0.05849,0 0.116978,0 0.175467,0 0.05849,0 0.149309,0.052 0.175466,0 0.05231,-0.1046 -0.05231,-0.2463 0,-0.3509 0.130785,-0.2616 0.657185,-0.4403 0.5264,-0.7019 -0.116978,-0.2339 -0.448106,0.2875 -0.701866,0.351 -0.05674,0.014 0.02616,-0.1232 0,-0.1755 -0.03699,-0.074 -0.101484,-0.1385 -0.175467,-0.1755 -0.04614,-0.023 -0.610111,0 -0.701866,0"
       id="path4172"
       inkscape:connector-curvature="0" />
    <path
       style="fill:none;fill-rule:evenodd;stroke:#000000;stroke-width:1px;stroke-linecap:butt;stroke-linejoin:miter;stroke-opacity:1"
       d="m 37.023427,1013.5841 c -0.233956,-0.117 -0.467911,-0.2339 -0.701866,-0.3509 0,-0.058 0.04136,-0.1341 0,-0.1755 -0.04201,-0.042 -0.701866,0.04 -0.701866,0 0,-0.058 0.175466,-0.058 0.175466,0 0,0.069 -0.328784,0.1976 -0.175466,0.3509 0.04136,0.041 0.116978,0 0.175466,0 0.05849,0 0.116978,0 0.175467,0 0.175466,0 0.35434,-0.034 0.526399,0 0.181367,0.036 0.341442,0.1755 0.5264,0.1755 0.241155,0 0.465393,-0.1282 0.701866,-0.1755 0.08775,-0.017 0.676646,0.025 0.701866,0 0.0056,-0.01 0,-0.4838 0,-0.5264 0,-0.058 0.04136,-0.1341 0,-0.1754 -0.0056,-0.01 -0.483844,0 -0.5264,0 -0.584888,0 -1.169776,0 -1.754665,0 -0.116977,0 -0.233955,0 -0.350933,0 -0.05849,0 -0.175466,0.058 -0.175466,0 0,-0.059 0.175466,0.058 0.175466,0 0,-0.083 -0.175466,-0.093 -0.175466,-0.1755 0,-0.117 0.246305,0.052 0.350933,0 0.07398,-0.037 0.101483,-0.1385 0.175466,-0.1755 0.04614,-0.023 0.610111,0 0.701866,0 0.467911,0 0.935822,0 1.403732,0 0.05849,0 0.116978,0 0.175467,0 0.05849,0 0.134108,-0.041 0.175466,0 0.04136,0.041 0,0.117 0,0.1755 0,0.058 0.02616,0.1232 0,0.1755 -0.03699,0.074 -0.101483,0.1385 -0.175466,0.1754 -0.05231,0.026 -0.134109,-0.041 -0.175467,0 -0.04136,0.041 0.04136,0.1342 0,0.1755 -0.03816,0.038 -0.461361,-0.039 -0.526399,0 -0.250769,0.1505 -0.467911,0.3509 -0.701866,0.5264 z"
       id="path4174"
       inkscape:connector-curvature="0" />
    <path
       style="fill:none;fill-rule:evenodd;stroke:#000000;stroke-width:1px;stroke-linecap:butt;stroke-linejoin:miter;stroke-opacity:1"
       d="m 32.285832,1018.8481 c 1.059151,0.09 -0.03542,-0.6664 0.175466,-0.8773 0.363047,-0.3631 -0.01419,0.5548 0.350933,-0.1755 0.05231,-0.1046 -0.08272,-0.2682 0,-0.3509 0.04136,-0.041 0.134109,0.041 0.175467,0 0.08272,-0.083 -0.05231,-0.2463 0,-0.351 0.03699,-0.074 0.138475,-0.1014 0.175466,-0.1754 0.02616,-0.052 -0.04136,-0.1341 0,-0.1755 0.04136,-0.041 0.134109,0.041 0.175467,0 0.04136,-0.041 -0.04136,-0.1341 0,-0.1755 0.04136,-0.041 0.134108,0.041 0.175466,0 0.04136,-0.041 -0.04136,-0.1341 0,-0.1754 0.04136,-0.041 0.134109,0.041 0.175467,0 0.04136,-0.041 -0.04136,-0.1341 0,-0.1755 0.04136,-0.041 0.116977,0 0.175466,0 0.05849,0 0.175467,-0.058 0.175467,0 0,0.058 -0.175467,-0.058 -0.175467,0 0,0.083 0.138475,0.1015 0.175467,0.1755 0.05231,0.1046 -0.03699,0.2399 0,0.3509 0.04136,0.1241 0.134108,0.2269 0.175466,0.3509 0.0519,0.1558 -0.05745,0.7625 0,0.8774 0.03699,0.074 0.138475,0.1015 0.175467,0.1754 0.02616,0.052 -0.04136,0.1341 0,0.1755 0.04136,0.041 0.134108,-0.041 0.175466,0 0.04136,0.041 0,0.117 0,0.1755 0,0.058 0,0.1169 0,0.1754 0,0.058 0,0.117 0,0.1755 0,0.058 0.05849,0.1755 0,0.1755 -0.05849,0 0,-0.234 0,-0.1755 0,0.117 0,0.234 0,0.3509 0,0.059 0.04136,0.1341 0,0.1755 -0.0056,0.01 -0.483844,0 -0.526399,0 -0.292444,0 -0.584889,0 -0.877333,0 -0.05849,0 -0.134108,0.041 -0.175466,0 -0.04136,-0.041 -0.05849,-0.1755 0,-0.1755 0.08272,0 0.249449,0.2125 0.175466,0.1755 -0.30504,-0.1525 -0.584888,-0.3509 -0.877332,-0.5264 z"
       id="path4176"
       inkscape:connector-curvature="0" />
    <path
       style="fill:none;fill-rule:evenodd;stroke:#000000;stroke-width:1px;stroke-linecap:butt;stroke-linejoin:miter;stroke-opacity:1"
       d="m 34.39143,1018.3217 c -0.233956,-0.117 -0.459005,-0.2538 -0.701866,-0.3509 -0.05431,-0.022 -0.134109,-0.041 -0.175467,0 -0.0056,0.01 0,0.4838 0,0.5264 0,0.058 0.05849,0.1754 0,0.1754 -0.05849,0 0,-0.1169 0,-0.1754 0,-0.2925 0,-0.5849 0,-0.8774 0,-0.059 0.04136,-0.1341 0,-0.1754 -0.04136,-0.041 -0.116977,0 -0.175466,0 -0.05849,0 -0.134109,-0.041 -0.175467,0 -0.04136,0.041 0.04136,0.1341 0,0.1754 -0.04136,0.041 -0.134108,-0.041 -0.175466,0 -0.0071,0.01 0,0.6375 0,0.7019 0,0.058 -0.04136,0.1341 0,0.1755 0.08272,0.083 0.268217,-0.083 0.350933,0 0.04136,0.041 -0.04136,0.1341 0,0.1754 0.04136,0.041 0.134108,-0.041 0.175466,0 0.04136,0.041 -0.04136,0.1341 0,0.1755 0.04136,0.041 0.116978,0 0.175467,0 0.05849,0 0.233955,0 0.175466,0 -0.116977,0 -0.46791,0 -0.350933,0 0.175467,0 0.359938,-0.056 0.5264,0 0.05549,0.018 0.05849,0.1755 0,0.1755 -0.05849,0 -0.04136,-0.2169 0,-0.1755 0.09248,0.092 0.08299,0.2585 0.175466,0.3509 0.04136,0.041 0.134109,0.041 0.175467,0 0.04136,-0.041 0,-0.1169 0,-0.1754 0,-0.058 0,-0.117 0,-0.1755 0,-0.9279 0.124073,-0.1855 -0.5264,-1.0528 -0.03509,-0.047 0.04136,-0.1341 0,-0.1755 -0.04136,-0.041 -0.116977,0 -0.175466,0 -0.233956,0 -0.467911,0 -0.701866,0 -0.05849,0 -0.175467,0.058 -0.175467,0 0,-0.059 0.116978,0 0.175467,0"
       id="path4178"
       inkscape:connector-curvature="0" />
  </g>
</svg>
