<?xml version="1.0" encoding="UTF-8" standalone="no"?>
<!-- Created with Inkscape (http://www.inkscape.org/) -->

<svg
   xmlns:dc="http://purl.org/dc/elements/1.1/"
   xmlns:cc="http://creativecommons.org/ns#"
   xmlns:rdf="http://www.w3.org/1999/02/22-rdf-syntax-ns#"
   xmlns:svg="http://www.w3.org/2000/svg"
   xmlns="http://www.w3.org/2000/svg"
   xmlns:sodipodi="http://sodipodi.sourceforge.net/DTD/sodipodi-0.dtd"
   xmlns:inkscape="http://www.inkscape.org/namespaces/inkscape"
   width="152"
   height="250"
   viewBox="0 0 152 250"
   id="svg5032"
   version="1.1"
   inkscape:version="0.91 r13725"
   sodipodi:docname="diana_celeovecek.svg">
  <defs
     id="defs5034" />
  <sodipodi:namedview
     id="base"
     pagecolor="#ffffff"
     bordercolor="#666666"
     borderopacity="1.0"
     inkscape:pageopacity="0.0"
     inkscape:pageshadow="2"
     inkscape:zoom="1.89"
     inkscape:cx="85.029904"
     inkscape:cy="124.15037"
     inkscape:document-units="px"
     inkscape:current-layer="layer1"
     showgrid="false"
     units="px"
     inkscape:window-width="1366"
     inkscape:window-height="706"
     inkscape:window-x="-8"
     inkscape:window-y="-8"
     inkscape:window-maximized="1" />
  <metadata
     id="metadata5037">
    <rdf:RDF>
      <cc:Work
         rdf:about="">
        <dc:format>image/svg+xml</dc:format>
        <dc:type
           rdf:resource="http://purl.org/dc/dcmitype/StillImage" />
        <dc:title></dc:title>
      </cc:Work>
    </rdf:RDF>
  </metadata>
  <g
     inkscape:label="Layer 1"
     inkscape:groupmode="layer"
     id="layer1"
     transform="translate(0,-802.36216)">
    <ellipse
       style="fill:#deaa87;fill-opacity:1;stroke:#000000;stroke-width:2.68391085;stroke-opacity:1"
       id="path5610"
       cx="47.533222"
       cy="843.94464"
       rx="18.812683"
       ry="19.12751" />
    <path
       style="fill:none;fill-rule:evenodd;stroke:#000000;stroke-width:2.68391085px;stroke-linecap:butt;stroke-linejoin:miter;stroke-opacity:1"
       d="m 68.259067,843.59681 c 0.212584,-0.92736 0.245762,-1.92715 0.637719,-2.78216 0.09505,-0.20736 0.425143,0 0.637717,0 0.85029,0 1.700582,0 2.550871,0 0.212584,0 0.850292,0 0.63772,0 -0.425148,0 -1.700582,0 -1.275438,0 0.637718,0 1.275438,0 1.913158,0 0.212557,0 0.487404,0.16394 0.637715,0 0.150307,-0.16394 -0.150308,-0.53163 0,-0.69556 0.06376,-0.0693 1.849381,-0.0693 1.913153,0 0.150308,0.16393 0,0.46374 0,0.69556 0,0.23178 0,0.46368 0,0.69554 0,1.62294 0,3.24589 0,4.86883 0,0.23179 0.150308,0.53158 0,0.69555 -0.150306,0.16394 -0.487404,-0.16394 -0.637716,0 -0.150308,0.16394 0.150308,0.53157 0,0.69554 -0.153456,0.16747 -2.39742,-0.16747 -2.550872,0 -0.150308,0.16394 0.150308,0.53159 0,0.69555 -0.150308,0.16393 -0.425148,0 -0.63772,0 -0.212557,0 -0.850289,0 -0.637718,0 3.962001,0 -2.60259,0 -3.188589,0"
       id="path5612"
       inkscape:connector-curvature="0" />
    <path
       style="fill:#ffff00;fill-rule:evenodd;stroke:#000000;stroke-width:2.68391085px;stroke-linecap:butt;stroke-linejoin:miter;stroke-opacity:1"
       d="m 26.169675,840.81465 c -1.062861,0 -2.125723,0 -3.188586,0 -0.212584,0 -0.487406,-0.16394 -0.637718,0 -0.02571,0.0281 0,2.52674 0,2.78216 0,2.62763 0,-3.09129 0,1.39109 0,0.23179 0,0.4637 0,0.69558 0,0.23177 0.212558,0.69554 0,0.69554 -0.212585,0 0,-0.92742 0,-0.69554 0,0.46368 -0.190118,0.97633 0,1.39109 0.05265,0.11482 1.743485,0 1.913155,0 2.288214,0 2.755282,0 3.826305,0"
       id="path5614"
       inkscape:connector-curvature="0" />
    <path
       style="fill:#ffff00;fill-opacity:1;stroke:#000000;stroke-width:2.68391085;stroke-opacity:1"
       id="path5616"
       d="m 41.145746,815.49711 c -1.447382,0.23797 -2.905773,0.36694 -4.366741,0.448 -1.319698,0.16084 -2.691258,-0.1336 -3.984337,0.21109 -2.844797,2.14935 -0.07076,0.0339 7.275738,-4.44003 0.143173,-0.0872 -0.279286,0.19127 -0.400394,0.31174 -0.405352,0.40356 -0.570612,0.91111 -0.743569,1.45928 -0.293915,1.3027 -0.285136,2.65489 -0.295273,3.98793 0.04606,1.33646 0.01082,2.64664 -0.222989,3.9595 -0.226977,1.27631 -0.550932,2.52948 -0.841003,3.7905 -0.297965,1.34118 -0.988952,2.49444 -1.56856,3.70185 -0.535864,1.1007 -1.196017,2.10779 -2.011563,2.98 -2.565321,1.51269 -7.177315,5.4418 -11.073908,6.18388 -0.264958,0.23274 -0.62105,0.24669 -0.908603,0.42123 -0.135673,0.0826 -0.500759,0.39819 -0.365659,0.31473 10.850417,-6.7025 9.625352,-6.7921 7.042578,-4.17408 -3.002685,1.95484 -5.906315,5.11737 -9.535921,5.58662 -0.584678,0.0756 -1.100452,0.0713 -1.665213,0.26488 -0.167987,0.0507 -0.334647,0.10624 -0.503971,0.15061 -0.927975,0.24475 -0.146037,-0.0523 -0.949499,0.37314 -0.146171,0.0771 -0.588805,0.29812 -0.448005,0.20957 9.692426,-6.09078 10.147755,-6.40162 7.3251,-4.51548 -0.848721,0.45505 -1.20917,1.37673 -1.596014,2.26076 -0.457127,0.98235 -0.815738,1.96032 -0.992635,3.04764 -0.120712,1.26479 -0.232011,2.55461 -0.112071,3.82355 0.229111,1.30104 0.336594,2.61391 0.64692,3.89614 0.255091,1.16538 0.414708,2.33332 0.829649,3.44841 0.604938,1.29144 1.348649,2.49287 2.070515,3.70802 0.756762,1.25868 1.579005,2.47087 2.523131,3.57057 0.693979,1.00063 1.5027,1.88052 2.366401,2.70428 1.064187,0.9054 2.346848,1.3496 3.607674,1.82331 1.316535,0.39666 2.631766,0.88002 3.767309,1.72213 1.005489,1.0035 1.272841,2.49235 1.569912,3.88252 0.29647,1.50208 0.371427,3.03804 0.414965,4.56905 0.0031,1.39734 0.128784,2.80259 -0.163101,4.17249 -0.207186,0.58613 -0.43018,1.16172 -0.439834,1.79591 0,0 -8.384851,4.79089 -8.384851,4.79089 l 0,0 c -0.133011,-0.78361 -0.06605,-1.51147 0.291292,-2.22613 0.547056,-1.20524 0.300004,-2.54906 0.332272,-3.85686 -0.02391,-1.47021 -0.06065,-2.94754 -0.315643,-4.3961 -0.222373,-1.10173 -0.413455,-2.40131 -1.231876,-3.16954 -1.128078,-0.71778 -2.369647,-1.13804 -3.610626,-1.56253 -1.352017,-0.55011 -2.729337,-1.06888 -3.837148,-2.11993 -0.88629,-0.8511 -1.687553,-1.79882 -2.413697,-2.81478 -0.936158,-1.1772 -1.794707,-2.41546 -2.573737,-3.72194 -0.759145,-1.2609 -1.536123,-2.50897 -2.193236,-3.83821 -0.468511,-1.15149 -0.65901,-2.35554 -0.887119,-3.58323 -0.321746,-1.32315 -0.449609,-2.66961 -0.708411,-4.00817 -0.192296,-1.3447 -0.06463,-2.71794 -0.0038,-4.07209 0.11136,-1.13801 0.257675,-2.29698 0.88191,-3.25437 0.157643,-0.54409 0.3858,-0.94644 0.603921,-1.45057 0.221038,-0.51082 0.293733,-1.0589 0.745757,-1.42248 3.503988,-2.34684 6.815776,-5.34724 10.900107,-6.15496 4.022182,-0.52325 7.648514,-3.91594 -5.093317,4.17319 0.513865,-0.32577 0.276423,-0.13232 0.711253,-0.58232 2.829038,-1.90447 6.181549,-5.03786 9.802206,-6.02391 3.479619,-1.15031 8.739427,-4.82014 -5.192284,3.85278 0.967749,-0.57077 1.651822,-1.57386 2.167877,-2.61721 0.613164,-0.97019 1.316988,-2.37167 1.655056,-3.48572 0.43257,-1.16391 0.568566,-2.47368 0.88233,-3.67926 0.233449,-1.26798 0.456575,-2.48823 0.325391,-3.79648 8.56e-4,-1.4058 -0.0098,-2.81933 0.177042,-4.21376 0.845894,-4.70782 5.428716,-7.22893 9.912582,-7.90844 1.330663,-0.0555 2.663958,-0.022 3.993511,-0.12103 1.463114,-0.10799 2.928922,-0.25704 4.360286,-0.62021 0,0 -7.548123,6.23326 -7.548123,6.23326 z"
       inkscape:connector-curvature="0" />
    <path
       style="fill:#ffff00;fill-opacity:1;stroke:#000000;stroke-width:2.68391085;stroke-opacity:1"
       id="path5618"
       d="m 55.897098,807.58666 c -0.06219,1.5927 -0.04511,3.18786 -0.04044,4.78166 -0.0409,1.15229 0.09879,2.29294 0.723203,3.24586 0.74033,0.62925 1.765575,0.58795 2.661569,0.62989 1.07829,0.38785 2.225478,0.41797 3.309317,0.75232 1.2014,0.52231 2.366967,1.10539 3.238415,2.17036 0.723437,0.81283 1.359626,1.675 1.760523,2.72522 0.40961,1.21647 0.330725,2.52303 0.492137,3.78421 0.174356,0.94058 0.289403,1.99836 0.996989,2.64958 0.646499,0.83712 1.560068,0.96297 2.502193,1.05923 1.41334,10e-4 2.785832,0.36797 4.181856,0.56442 1.326841,0.0997 2.623701,0.1838 3.927713,0.46756 1.351913,0.19376 2.661288,0.52434 3.835426,1.29786 0.945757,0.6448 1.970716,1.15072 2.902753,1.81312 1.092764,1.13893 1.638208,2.75524 2.089024,4.29395 0.368187,1.53418 0.759552,3.05503 0.985478,4.62341 0.192432,1.48062 0.191583,2.97704 0.197498,4.46877 0.0051,1.54021 0.0063,3.08047 0.0067,4.62068 0.175443,2.02362 -0.752106,3.50712 -1.944813,4.9397 -1.038774,1.01528 -2.181277,1.9003 -3.321411,2.77434 -1.116209,0.73378 -1.923011,1.77458 -2.695325,2.89013 -0.570864,1.02699 -1.131453,2.0632 -1.664821,3.11472 -0.664673,1.14572 -0.950365,2.42943 -1.109489,3.75561 -0.127744,1.16666 -0.09878,1.94328 0.718562,2.73584 0.922893,0.50349 1.924832,0.90242 2.92363,1.21099 0,0 -7.795175,5.78516 -7.795175,5.78516 l 0,0 c -1.09345,-0.41958 -2.245957,-0.79727 -3.162776,-1.5947 -0.913394,-0.99206 -1.260798,-2.16736 -1.110461,-3.57935 0.115274,-1.42614 0.308281,-2.85265 0.940434,-4.13139 0.562426,-1.0527 1.100558,-2.12498 1.626349,-3.19398 0.701562,-1.21278 1.482515,-2.38508 2.571601,-3.22081 1.143823,-0.90338 2.294055,-1.78278 3.457095,-2.65797 1.170425,-1.12718 2.329754,-2.34527 2.192855,-4.17676 0.0056,-1.54085 0.01641,-3.0817 0.01367,-4.6226 -0.01139,-1.44577 -0.02108,-2.89534 -0.155482,-4.33503 -0.182467,-1.53022 -0.552729,-3.00441 -0.889937,-4.49967 -0.352451,-1.31209 -0.790625,-2.73146 -1.804238,-3.61539 -0.953142,-0.59072 -1.889604,-1.20892 -2.846919,-1.79222 -1.152801,-0.60252 -2.412602,-0.80055 -3.664331,-1.0276 -1.291957,-0.23107 -2.604474,-0.21615 -3.898495,-0.43965 -1.394074,-0.2318 -2.782212,-0.47308 -4.192509,-0.55464 -1.116411,-0.21923 -2.115835,-0.61938 -2.875924,-1.58756 -0.754314,-0.91366 -1.089025,-2.01722 -1.266097,-3.22159 -0.196728,-1.18394 -0.08555,-2.41062 -0.405451,-3.57566 -0.332069,-0.93952 -0.962488,-1.66738 -1.579123,-2.40257 -0.787068,-0.86508 -1.856062,-1.34174 -2.917922,-1.66812 -1.077547,-0.201 -2.148262,-0.44034 -3.226951,-0.62439 -1.178909,-0.13058 -2.350314,-0.33901 -3.152542,-1.38995 -0.684559,-1.14858 -1.00471,-2.44 -0.931225,-3.81738 0.0047,-1.57879 0.02261,-3.15908 -0.04043,-4.73672 0,0 8.437398,-4.68889 8.437398,-4.68889 z"
       inkscape:connector-curvature="0" />
    <path
       style="fill:#ffff00;fill-opacity:1;stroke:#000000;stroke-width:2.68391085;stroke-opacity:1"
       id="path5620"
       d="m 41.931802,810.19741 c 0.51506,1.17298 1.269691,2.21297 2.33355,2.82012 1.061863,0.33738 1.961717,1.07231 2.599,2.04583 0.511574,0.81462 1.10875,1.55091 1.669235,2.32348 0.693105,0.77576 1.55143,1.32601 2.286116,2.04922 0.813578,0.81529 1.716306,1.25768 2.787259,1.49417 0.588915,0.10862 1.185672,0.1355 1.78096,0.16643 0,0 -7.650728,5.97155 -7.650728,5.97155 l 0,0 c -0.633471,-0.0658 -1.268717,-0.12962 -1.885265,-0.31348 -1.14412,-0.38513 -2.15659,-0.99235 -3.044674,-1.87936 -0.800122,-0.72573 -1.692487,-1.34064 -2.385235,-2.19726 -0.581794,-0.77324 -1.158078,-1.54697 -1.687418,-2.36432 -0.601495,-0.855 -1.502025,-1.28056 -2.376994,-1.72611 -1.146521,-0.85937 -1.994833,-2.04865 -2.68708,-3.35874 0,0 8.261274,-5.03166 8.261274,-5.03166 z"
       inkscape:connector-curvature="0" />
    <path
       style="fill:#ffff00;fill-opacity:1;stroke:#000000;stroke-width:2.68391085;stroke-opacity:1"
       id="path5622"
       d="m 70.629116,844.27919 c 0.705044,1.29601 1.076097,2.73745 1.557932,4.13389 0.364762,1.04316 0.883917,2.01572 1.385574,2.98732 0.695675,1.08984 1.036249,2.33024 1.246704,3.62147 0.179863,1.38894 0.183063,2.79485 0.19093,4.19464 0.0169,1.5507 0.04373,3.08976 -0.22988,4.61621 -0.290507,1.42712 -0.78825,2.77689 -1.297347,4.12297 -0.240339,0.49517 -0.428039,1.03409 -0.777277,1.45699 -0.154159,0.18672 -0.654008,0.63879 -0.849005,0.76028 -2.860272,1.78233 -5.742744,3.52197 -8.614116,5.28292 -3.53738,0.87777 -9.633285,5.36922 4.808383,-3.604 -1.045363,0.54721 -0.199345,1.39828 0.405179,1.92957 0.907234,0.85138 1.747874,1.82048 2.798031,2.46268 0,0 -7.922325,5.56593 -7.922325,5.56593 l 0,0 c -1.025497,-0.76943 -1.926639,-1.71551 -2.863757,-2.60585 -0.92308,-0.92863 -1.925981,-2.22578 -1.210813,-3.63471 4.305013,-2.70078 7.118932,-5.01502 11.375154,-6.48969 -2.52442,1.59667 -5.048842,3.19337 -7.573261,4.79005 0.427446,-0.21242 0.924128,-0.4613 1.289269,-0.7925 0.318136,-0.28851 0.358168,-0.48646 0.542705,-0.88739 0.678241,-1.19721 1.047111,-2.60528 1.438698,-3.93707 0.399418,-1.43424 0.306609,-2.88985 0.302481,-4.37607 -0.0021,-1.34954 0.0051,-2.70344 -0.129779,-4.04685 -0.160022,-1.18859 -0.444125,-2.31085 -1.115453,-3.28995 -0.522622,-1.02053 -1.053486,-2.05058 -1.421626,-3.15004 -0.466146,-1.39438 -0.778718,-2.85351 -1.597673,-4.07915 0,0 8.261276,-5.03165 8.261276,-5.03165 z"
       inkscape:connector-curvature="0" />
    <path
       style="fill:#ffff00;fill-opacity:1;stroke:#000000;stroke-width:2.68391085;stroke-opacity:1"
       id="path5624"
       d="m 25.888818,810.46054 c -0.248486,1.45534 -0.496984,2.89343 -1.033019,4.26002 -0.339838,1.06424 -0.89366,1.99427 -1.458936,2.92421 -0.301129,0.64285 -0.794795,1.54827 0.04043,1.86776 1.100843,0.1231 2.112454,0.54303 3.12788,0.99478 1.072666,0.32668 1.908395,1.16934 2.496491,2.17322 0.586862,1.25741 0.607814,2.67039 0.645815,4.04839 0.04838,1.47897 0.08131,2.94414 -0.253625,4.38601 -0.326871,0.78164 -0.787462,1.67646 -1.496872,2.12867 -8.430383,5.37372 -5.419565,4.55063 -9.240025,5.50805 -1.428174,0.23749 -2.882978,0.21944 -4.324757,0.22628 -1.110453,0.0894 -2.386556,0.20452 -3.415642,0.70954 -2.6919969,1.92645 -6.8231154,4.15765 6.717104,-4.1594 0.16404,-0.10083 -0.310082,0.23371 -0.45543,0.36429 -0.373726,0.33551 -0.466012,0.48294 -0.786354,0.88053 -0.829677,0.83766 -1.091225,1.92425 -1.330261,3.07918 -0.28221,1.09181 -0.527118,2.18632 -0.860452,3.26112 -0.285719,1.22653 -0.537736,2.46166 -0.850125,3.68167 -0.408543,1.19908 -0.945266,2.32122 -1.245667,3.56242 -0.263339,1.31351 -0.283369,2.66309 -0.303976,4.00155 0.01441,1.3717 -0.06066,2.74881 0.04945,4.11656 0.118121,1.39994 0.648573,2.61445 1.327893,3.77848 0.601218,0.99445 1.47694,1.64166 2.298505,2.38434 0.837431,0.65835 1.8692,0.86486 2.829053,1.2363 1.284956,0.67042 2.603388,1.29967 3.818466,2.11447 1.276316,0.82478 2.133628,1.84626 2.802584,3.27776 0.623438,1.45824 0.711857,3.07098 1.0205,4.62229 0.238927,1.23564 0.691551,2.39203 0.924808,3.6322 0.11136,0.65581 0.150425,1.3212 0.191179,1.98535 0,0 -8.361675,4.71523 -8.361675,4.71523 l 0,0 c -0.02941,-0.62186 -0.05611,-1.2449 -0.143792,-1.86124 -0.202718,-1.24463 -0.661669,-2.3932 -0.888929,-3.62821 -0.285192,-1.4687 -0.374402,-2.98976 -0.896712,-4.39017 -0.58746,-1.24467 -1.414009,-2.08582 -2.531238,-2.78437 -1.200537,-0.7469 -2.457523,-1.40903 -3.756452,-1.9251 -1.0434077,-0.41557 -2.1441262,-0.69391 -2.9938665,-1.53136 -0.917934,-0.79242 -1.7987903,-1.59581 -2.441571,-2.68426 -0.7349416,-1.29202 -1.3438318,-2.64466 -1.5248996,-4.17489 -0.1943632,-1.40116 -0.079601,-2.82366 -0.1085695,-4.23759 0.00982,-1.39866 0.017623,-2.8039 0.2109667,-4.18987 0.2251504,-1.30322 0.6407964,-2.4915 1.188562,-3.67045 0.4665641,-1.14062 0.617202,-2.41815 0.8530471,-3.63339 0.278423,-1.09284 0.6742355,-2.12783 0.8733858,-3.24747 0.387878,-1.17894 0.3303035,-2.5307 1.1599356,-3.51833 0.3758822,-0.42554 0.6926655,-1.13479 1.1584253,-1.44287 1.9988401,-1.32205 6.2025481,-4.61241 9.5205111,-5.91044 1.170498,-0.23656 2.338209,-0.51936 3.537967,-0.43776 1.398586,-0.0219 2.830341,-0.0127 4.173715,-0.49263 3.232637,-1.52193 0.422609,-0.22749 -6.959924,4.52403 -0.171901,0.1107 0.364743,-0.17966 0.534937,-0.29358 0.476192,-0.31827 0.831193,-0.76767 1.169587,-1.2432 0.631328,-1.23733 0.468098,-2.67798 0.461918,-4.04628 -0.03169,-1.18111 -0.01607,-2.42122 -0.454234,-3.52397 -0.517948,-0.85279 -1.278752,-1.35502 -2.168471,-1.65147 -1.068303,-0.45834 -2.213057,-0.60362 -3.252279,-1.1293 -1.008508,-0.88268 -1.182434,-1.93422 -0.706953,-3.24159 0.42305,-1.01738 1.216411,-1.77412 1.51491,-2.86573 0.563642,-1.28765 1.04303,-2.56636 1.07779,-4.02436 0,0 8.518899,-4.50542 8.518899,-4.50542 z"
       inkscape:connector-curvature="0" />
    <ellipse
       style="fill:#e3dbdb;fill-opacity:1;stroke:#000000;stroke-width:2.68391085;stroke-opacity:1"
       id="path5628"
       cx="38.924049"
       cy="840.8147"
       rx="2.5508721"
       ry="4.173275" />
    <ellipse
       style="fill:#e3dbdb;fill-opacity:1;stroke:#000000;stroke-width:2.68391085;stroke-opacity:1"
       id="path5632"
       cx="56.62072"
       cy="841.68408"
       rx="2.7103014"
       ry="3.9993885" />
    <path
       style="fill:none;fill-rule:evenodd;stroke:#000000;stroke-width:2.68391085px;stroke-linecap:butt;stroke-linejoin:miter;stroke-opacity:1"
       d="m 45.620076,852.29114 0,-1.39111"
       id="path5634"
       inkscape:connector-curvature="0" />
    <path
       style="fill:#ff00ff;fill-rule:evenodd;stroke:#000000;stroke-width:2.68391085px;stroke-linecap:butt;stroke-linejoin:miter;stroke-opacity:1"
       d="m 50.402963,851.24784 1.913154,0"
       id="path5636"
       inkscape:connector-curvature="0" />
    <path
       style="fill:none;fill-rule:evenodd;stroke:#aa0000;stroke-width:2.68391085px;stroke-linecap:butt;stroke-linejoin:miter;stroke-opacity:1"
       d="m 41.793771,856.46442 c 0.53143,0 1.062862,0 1.594293,0 0.106292,0 0.243707,-0.0817 0.31886,0 0.425144,0.4637 -0.531432,0.34776 0.318856,0.34776 0.106292,0 0.425149,0 0.318862,0 -0.212583,0 -0.637718,-0.23179 -0.637718,0 0,0.95766 0.727765,0.098 0.956576,0.34777 0.07515,0.0822 -0.07515,0.26576 0,0.34777 0.159452,0.17388 0.797146,-0.17387 0.956576,0 0.07515,0.0819 -0.07515,0.26574 0,0.34776 0.0131,0.0143 1.158342,0 1.275438,0 0.106292,0 0.425142,0 0.31886,0 -0.212584,0 -0.850291,0 -0.637717,0 0.318857,0 0.637717,0 0.956576,0 0.106291,0 0.318858,-0.11594 0.318858,0 0,0.11642 -0.425147,0 -0.318858,0 0.212583,0 0.425146,0 0.637717,0 0.106292,0 0.31886,-0.11594 0.31886,0 0,0.11642 -0.425148,0 -0.31886,0 0.425146,0 0.85029,0 1.275435,0 0.106291,0 0.212583,0 0.318858,0 0.106292,0 0.318859,-0.11594 0.318859,0 0,0.11642 -0.425144,0 -0.318859,0 0.212585,0 0.425148,0 0.63772,0 0.106292,0 0.318859,-0.11594 0.318859,0 0,0.11642 -0.425146,0 -0.318859,0 0.212584,0 0.425145,0 0.637716,0 0.106292,0 0.212586,0 0.31886,0 0.106292,0 0.318859,-0.11594 0.318859,0 0,0.11642 -0.425145,0 -0.318859,0 0.212587,0 0.447591,0.10369 0.637719,0 0.19012,-0.10369 -0.150307,-0.53156 0,-0.69553 0.07515,-0.0817 0.243707,0.0822 0.318859,0 0.106377,-0.1161 -0.106378,-0.57951 0,-0.69553 0.106263,-0.11546 0.531455,0.11594 0.637717,0 0.07516,-0.0817 -0.07515,-0.26571 0,-0.34779 0.07516,-0.0822 0.212581,0 0.31886,0 0.106292,0 0.212583,0 0.318857,0"
       id="path5640"
       inkscape:connector-curvature="0" />
    <ellipse
       style="fill:#ff00ff;fill-opacity:1;stroke:#000000;stroke-width:2.68391085;stroke-opacity:1"
       id="path5644"
       cx="47.533222"
       cy="901.15326"
       rx="4.1451664"
       ry="24.170218" />
    <path
       style="fill:#b3b100;fill-opacity:1;fill-rule:evenodd;stroke:#000000;stroke-width:2.68391085px;stroke-linecap:butt;stroke-linejoin:miter;stroke-opacity:1"
       d="m 48.808666,863.4199 c -0.649498,1.05294 -0.637716,1.16424 -0.637716,2.08662 0,0.92736 0.106292,-0.11626 -0.318859,0.34779 -0.07516,0.0819 0,0.23177 0,0.34776 0,0.1161 0,0.23178 0,0.34775 0,1.50705 0,3.01406 0,4.52106 0,0.92738 0,1.85479 0,2.78221 0,0.11626 0,0.23176 0,0.34776 0,0.11626 0.106292,0.34776 0,0.34776 -0.106292,0 0,-0.23177 0,-0.34776"
       id="path5652"
       inkscape:connector-curvature="0" />
    <path
       style="fill:#ff00ff;fill-rule:evenodd;stroke:#000000;stroke-width:1.50463104px;stroke-linecap:butt;stroke-linejoin:miter;stroke-opacity:1"
       d="m 41.63081,912.34058 c -0.235489,0.13152 -0.49584,0.21815 -0.706469,0.39464 -0.0471,0.0394 0.03265,0.14266 0,0.19734 -0.09237,0.15474 -0.260867,0.23984 -0.353235,0.39464 -0.03265,0.0547 0.04164,0.15077 0,0.19733 -0.04162,0.0464 -0.117751,0 -0.176616,0 -0.117751,0.19733 -0.2744,0.37179 -0.353235,0.59198 0,0.89829 0.08326,0.0111 -0.176618,0.59198 -0.02633,0.0589 0.04162,0.15077 0,0.19732 -0.09308,0.10401 -0.24792,0.1091 -0.353234,0.19734 -0.13321,0.11164 -0.235489,0.2631 -0.353234,0.39464 -0.303345,0.33891 -0.746647,0.90416 -1.059704,1.18396 -0.10279,0.0919 -0.26015,0.0933 -0.353234,0.19733 -0.09308,0.10401 -0.0713,0.30641 -0.176618,0.39466 -0.148937,0.12485 -0.384478,0.0674 -0.529851,0.19732 -0.165754,0.14823 -0.220633,0.40679 -0.353236,0.59198 -0.28911,0.40375 -0.786697,0.77726 -1.059704,1.18396 -0.07899,0.11768 -0.08353,0.29066 -0.176616,0.39465 -0.09308,0.10401 -0.243702,0.11578 -0.353235,0.19732 -0.259888,0.19357 -0.446583,0.59573 -0.70647,0.7893 -0.109538,0.0816 -0.260149,0.0934 -0.353235,0.19734 -0.150095,0.16769 -0.203137,0.42429 -0.353234,0.59198 -0.150096,0.16769 -0.379756,0.22695 -0.529851,0.39465 -0.09308,0.10402 -0.08353,0.29065 -0.176618,0.39465 -0.04162,0.0466 -0.12763,-0.0364 -0.176617,0 -0.138548,0.10321 -0.220021,0.28302 -0.353234,0.39465 -0.10531,0.0883 -0.228348,0.15077 -0.353235,0.19732 -0.05586,0.0208 -0.134989,-0.0464 -0.176618,0 -0.09308,0.10402 -0.06709,0.31307 -0.176618,0.39466 -0.09796,0.073 -0.241532,-0.0417 -0.353234,0 -0.15797,0.0589 -0.214684,0.29146 -0.353235,0.39466 -0.109537,0.0816 -0.260148,0.0934 -0.353234,0.19732 -0.04162,0.0464 0.04164,0.15077 0,0.19732 -0.09308,0.10401 -0.243702,0.11578 -0.353235,0.19734 -0.06928,0.0515 -0.117751,0.13152 -0.176616,0.19732 -0.05888,0.0658 -0.139388,0.11419 -0.176618,0.19733 -0.02633,0.0589 0.05266,0.1679 0,0.19733 -0.10531,0.0588 -0.247921,-0.0589 -0.353235,0 -0.05265,0.0294 0.02634,0.13852 0,0.19732 -0.03724,0.0832 -0.139388,0.11419 -0.176618,0.19733 -0.02632,0.0589 0.05265,0.1679 0,0.19732 -0.105309,0.0589 -0.247919,-0.0588 -0.353234,0 -0.05266,0.0294 0.01862,0.13487 0,0.19732 -0.04162,0.13948 -0.08353,0.29067 -0.176617,0.39466 -0.09308,0.10401 -0.243701,0.11578 -0.353234,0.19732 -0.439324,0.32723 -0.0203,0.0453 -0.176618,0.39466 -0.0869,0.19417 -0.619571,0.59513 -0.706469,0.7893 -0.07065,0.15792 0.07065,0.43413 0,0.59199 -0.02633,0.0589 -0.13499,-0.0466 -0.176617,0 -0.04164,0.0464 0.01862,0.13487 0,0.19732 -0.426438,1.42933 0.05092,-0.31111 -0.353234,0.59198 -0.03502,0.0783 0.03611,0.55163 0,0.59198 -0.04162,0.0464 -0.150289,-0.0589 -0.176618,0 -0.05266,0.11769 0.02855,0.26703 0,0.39466 -0.03193,0.14266 -0.13499,0.25511 -0.176618,0.39464 -0.01862,0.0623 0.04164,0.15077 0,0.19733 -0.05822,0.065 -0.57866,-0.0476 -0.706469,0 -0.15797,0.0589 -0.204298,0.31145 -0.353235,0.39465 -0.105309,0.0588 -0.24792,-0.0589 -0.353234,0 -0.05046,0.0281 -0.302779,0.36647 -0.353235,0.39465 -0.105309,0.0588 -0.24792,-0.0588 -0.353234,0 -0.07446,0.0417 -0.10215,0.1557 -0.176618,0.19734 -0.09434,0.0526 -0.258897,-0.0526 -0.353234,0 -0.07446,0.0417 -0.10215,0.1557 -0.176617,0.19732 -0.05265,0.0294 -0.123957,-0.0294 -0.176618,0 -0.07446,0.0417 -0.10215,0.1557 -0.176617,0.19732 -0.05265,0.0294 -0.123957,-0.0294 -0.176617,0 -0.07446,0.0417 -0.10215,0.1557 -0.176617,0.19734 -0.10531,0.0588 -0.269978,-0.093 -0.353235,0 -0.04164,0.0464 0.04162,0.15077 0,0.19732 -0.06165,0.0689 -0.493196,-0.0819 -0.529852,0 -0.05266,0.11769 0,0.2631 0,0.39466 0,0.39464 0,0.7893 0,1.18395 0,0.13725 -0.03194,0.91528 0,0.98664 0.117836,0.2633 0.235397,0.13137 0.353235,0.39464 0.05265,0.11769 -0.08326,0.30164 0,0.39466 0.04164,0.0464 0.134989,-0.0464 0.176617,0 0.04162,0.0464 -0.04164,0.15077 0,0.19732 0.08326,0.093 0.269977,-0.093 0.353235,0 0.04162,0.0464 -0.02633,0.13852 0,0.19733 0.195254,0.4363 0.109609,0.0612 0.353234,0.19733 0.808309,0.45154 -0.749461,-0.0817 0.529852,0.39465 0.05586,0.0208 0.117751,0 0.176617,0 0.117751,0 0.241532,-0.0417 0.353235,0 0.07899,0.0294 0.10215,0.1557 0.176618,0.19732 0.15797,0.0883 0.371879,-0.0883 0.529851,0 0.05266,0.0294 -0.04162,0.15077 0,0.19732 0.04164,0.0464 0.117751,0 0.176618,0 0.125182,0 1.014039,-0.0254 1.059703,0 0.07446,0.0417 0.10215,0.1557 0.176617,0.19734 0.111004,0.062 0.595462,-0.062 0.70647,0 0.07446,0.0417 0.10215,0.1557 0.176617,0.19732 0.157972,0.0883 0.371881,-0.0883 0.529852,0 0.05265,0.0294 -0.04162,0.15077 0,0.19734 0.04251,0.0476 0.66397,-0.0476 0.706469,0 0.04162,0.0464 -0.04162,0.15077 0,0.19732 0.04162,0.0464 0.117751,0 0.176617,0 0.05888,0 0.117751,0 0.176618,0 0.53852,0 0.0024,0.19999 0.176616,0.39466 0.04164,0.0464 0.13499,-0.0464 0.176618,0 0,0.5262 -0.05887,-0.0659 0.176618,0.19732 0.04162,0.0464 -0.02633,0.13852 0,0.19732 0.03724,0.0832 0.139388,0.11419 0.176617,0.19733 0.02633,0.0589 -0.04162,0.15077 0,0.19733 0.04162,0.0466 0.134989,-0.0464 0.176618,0 0.04162,0.0466 -0.04164,0.15077 0,0.19732 0.05856,0.0654 0.294678,-0.0654 0.353234,0 0.04162,0.0464 -0.04162,0.15077 0,0.19733 0.04162,0.0466 0.123958,-0.0294 0.176617,0 0.07446,0.0417 0.102149,0.1557 0.176618,0.19732 0.105309,0.0589 0.24792,-0.0588 0.353234,0 0.808308,0.45155 -0.749461,-0.0817 0.529851,0.39466 0.111701,0.0417 0.247921,-0.0588 0.353236,0 0.07446,0.0417 0.09764,0.16792 0.176617,0.19732 0.084,0.0313 1.254569,0 1.412938,0 0.353234,0 0.706469,0 1.059705,0 0.117751,0 0.239005,0.032 0.353234,0 0.127716,-0.0356 0.228346,-0.15077 0.353235,-0.19732 0.05584,-0.0208 0.123957,0.0294 0.176616,0 0.07446,-0.0417 0.09764,-0.16791 0.176618,-0.19734 0.111701,-0.0417 0.247921,0.0589 0.353235,0 0.05265,-0.0294 0,-0.13152 0,-0.19732 0.117751,-0.0658 0.228347,-0.15077 0.353234,-0.19732 0.111701,-0.0417 0.247921,0.0589 0.353235,0 0.07446,-0.0417 0.107345,-0.14568 0.176618,-0.19733 0.109537,-0.0816 0.260148,-0.0934 0.353234,-0.19732 0.04162,-0.0464 -0.05266,-0.16792 0,-0.19733 0.15797,-0.0883 0.371879,0.0883 0.529851,0 0.197982,-0.11053 0.155253,-0.28406 0.353235,-0.39465 0.05254,-0.0294 0.985407,0 1.059704,0 0.412106,0 0.824213,0 1.23632,0 0.117751,0 0.235491,0 0.353235,0 0.05888,0 0.120769,-0.0208 0.176618,0 0.738924,-0.35733 0.204298,0.31145 0.353234,0.39465 0.10531,0.0589 0.241532,-0.0417 0.353235,0 0.07899,0.0294 0.107345,0.14569 0.176618,0.19733 1.280578,0.71536 -0.279257,-0.20801 0.529851,0.39465 0.109537,0.0816 0.235491,0.13153 0.353234,0.19732 0.235491,0.13153 0.462015,0.28542 0.706469,0.39466 0.172856,0.0773 0.356997,0.12008 0.529853,0.19732 0.122221,0.0545 0.222915,0.17654 0.353234,0.19732 0.291404,0.0466 0.589934,-0.0297 0.883087,0 0.713272,0.0725 1.405667,0.32821 2.119407,0.39466 0.528022,0.0491 1.059704,0 1.589556,0 1.000831,0 2.001663,0 3.002494,0 0.06485,0 0.699362,0.008 0.706469,0 0.04164,-0.0464 -0.04162,-0.15077 0,-0.19732 0.04164,-0.0464 0.123958,0.0294 0.176618,0 0.173797,-0.0972 0.532672,-0.69222 0.706469,-0.78932 0.05265,-0.0294 0.13499,0.0464 0.176617,0 0.09308,-0.10401 0.08353,-0.29064 0.176618,-0.39464 0.04162,-0.0464 0.134989,0.0466 0.176618,0 0.04162,-0.0464 -0.04162,-0.15077 0,-0.19733 0.0172,-0.0193 0.608141,0.0219 0.706469,0 0.182555,-0.0407 0.346213,-0.16313 0.529851,-0.19732 0.174215,-0.0325 0.353234,0 0.529852,0 0.529852,0 1.059703,0 1.589556,0 0.353234,0 0.706469,0 1.059703,0 0.05888,0 0.13499,-0.0464 0.176618,0 0.04162,0.0466 -0.04164,0.15077 0,0.19732 0.08831,0.0986 0.441542,-0.0986 0.529851,0 0.04164,0.0464 -0.04162,0.15077 0,0.19733 0.05886,0.0657 0.294376,-0.0657 0.353235,0 0.04164,0.0466 -0.04162,0.15077 0,0.19732 0.04164,0.0464 0.134989,-0.0464 0.176618,0 0.04162,0.0464 -0.04164,0.15077 0,0.19732 0.04162,0.0464 0.134989,-0.0466 0.176616,0 0.04162,0.0464 -0.04162,0.15077 0,0.19734 0.05886,0.0658 0.294376,-0.0657 0.353235,0 0.365428,0.40827 -0.558421,-0.0159 0.176618,0.39464 0.05266,0.0294 0.117751,0 0.176616,0 0.05888,0.0658 0.10215,0.1557 0.176618,0.19734 0.07002,0.0391 0.493745,-0.0404 0.529853,0 0.235489,0.2631 -0.294363,0.19732 0.176616,0.19732 0.294362,0 0.588725,0 0.883087,0 0.05888,0 0.13499,0.0464 0.176617,0 0.04162,-0.0464 -0.04162,-0.15077 0,-0.19732 0.04162,-0.0464 0.134989,0.0464 0.176618,0 0.08326,-0.093 -0.05265,-0.277 0,-0.39466 0.367519,-0.82122 -0.01224,0.21095 0.353234,-0.19732 0.08326,-0.093 -0.08326,-0.30163 0,-0.39466 0.04162,-0.0464 0.13499,0.0464 0.176617,0 0.04164,-0.0464 -0.04162,-0.15077 0,-0.19732 0.04164,-0.0464 0.134989,0.0466 0.176618,0 0.04162,-0.0464 -0.04162,-0.15077 0,-0.19733 0.05886,-0.0657 0.294376,0.0658 0.353234,0 0.04162,-0.0464 -0.02633,-0.13853 0,-0.19732 0.03724,-0.0832 0.117751,-0.13153 0.176618,-0.19733 0.05888,-0.0658 0.10215,-0.1557 0.176617,-0.19733 0.05266,-0.0294 0.123957,0.0294 0.176618,0 0.07446,-0.0417 0.102149,-0.1557 0.176616,-0.19732 0.05266,-0.0294 0.123958,0.0294 0.176618,0 0.07446,-0.0417 0.10215,-0.1557 0.176617,-0.19732 0.04643,-0.0259 0.614113,0 0.706469,0 0.529852,0 1.059705,0 1.589556,0 0.05888,0 0.117751,0 0.176618,0 0.05888,0 0.134989,0.0464 0.176616,0 0.04164,-0.0464 -0.04162,-0.15077 0,-0.19734 0.04164,-0.0466 0.13499,0.0464 0.176618,0 0.04162,-0.0466 -0.02633,-0.13852 0,-0.19732 0.03724,-0.0832 0.139388,-0.11419 0.176617,-0.19732 0.01979,-0.0442 0,-0.74243 0,-0.78932 0,-0.65775 0,-1.31551 0,-1.97325 0,-0.0658 0,-0.13153 0,-0.19734 0,-0.0658 -0.02634,-0.13852 0,-0.19732 0.03724,-0.0832 0.139388,-0.11419 0.176618,-0.19734 0.03502,-0.0782 -0.0361,-0.55163 0,-0.59197 0.04162,-0.0464 0.134989,0.0464 0.176616,0 0.04164,-0.0464 0,-0.13153 0,-0.19732 0,-0.1398 0.02283,-1.13294 0,-1.18396 -0.367519,-0.82122 0.01224,0.21095 -0.353234,-0.19732 -0.08326,-0.093 0.08326,-0.30164 0,-0.39466 -0.04162,-0.0464 -0.13499,0.0464 -0.176617,0 -0.04164,-0.0464 0.04162,-0.15077 0,-0.19732 -0.04164,-0.0464 -0.134989,0.0464 -0.176618,0 -0.08326,-0.093 0.08326,-0.30163 0,-0.39466 -0.04162,-0.0464 -0.134989,0.0464 -0.176616,0 -0.04162,-0.0464 0.02633,-0.13852 0,-0.19733 -0.03724,-0.0832 -0.117751,-0.13153 -0.176618,-0.19732 -0.05888,-0.0658 -0.10215,-0.1557 -0.176617,-0.19733 -0.05266,-0.0294 -0.123957,0.0294 -0.176618,0 -0.148937,-0.0832 -0.204298,-0.31146 -0.353234,-0.39465 -0.05266,-0.0294 -0.13499,0.0466 -0.176617,0 -0.04164,-0.0464 0.02634,-0.13853 0,-0.19732 -0.03724,-0.0832 -0.139388,-0.11419 -0.176618,-0.19734 -0.02633,-0.0588 0.02634,-0.13852 0,-0.19732 -0.367519,-0.82122 0.01224,0.21095 -0.353234,-0.19732 -0.04162,-0.0464 0.02633,-0.13853 0,-0.19734 -0.03724,-0.0832 -0.139388,-0.11419 -0.176618,-0.19732 -0.02634,-0.0588 0.01862,-0.13486 0,-0.19732 -0.04162,-0.13948 -0.13499,-0.25513 -0.176617,-0.39466 -0.01862,-0.0623 0.02633,-0.13852 0,-0.19732 -0.585765,-0.65445 0.08326,0.18603 -0.176618,-0.39465 -0.03724,-0.0832 -0.139388,-0.1142 -0.176616,-0.19734 -0.02634,-0.0589 0.02633,-0.13853 0,-0.19732 -0.03724,-0.0832 -0.139388,-0.11419 -0.176618,-0.19732 -0.02634,-0.0589 0.04164,-0.15077 0,-0.19734 -0.04162,-0.0464 -0.13499,0.0464 -0.176617,0 -0.04162,-0.0464 0.04162,-0.15077 0,-0.19732 -0.04162,-0.0464 -0.123957,0.0294 -0.176618,0 -0.07307,-0.0409 -0.479943,-0.50834 -0.529851,-0.59198 -0.07302,-0.1223 -0.08353,-0.29064 -0.176618,-0.39466 -0.09308,-0.10401 -0.270998,-0.0825 -0.353234,-0.19732 -0.164473,-0.2297 -0.222608,-0.53391 -0.353235,-0.7893 -0.625519,-1.22301 -0.108427,0.0915 -1.059703,-1.57861 -0.212027,-0.37226 -0.340741,-0.7966 -0.529853,-1.18396 -0.328763,-0.6734 -0.719072,-1.30727 -1.059703,-1.97327 -0.06531,-0.12771 -0.09764,-0.27698 -0.176618,-0.39465 -0.09991,-0.14887 -0.278766,-0.22826 -0.353235,-0.39465 -0.279808,-0.62523 0.365493,-0.18364 -0.176616,-0.78931 -0.09308,-0.10401 -0.26015,-0.0934 -0.353235,-0.19732 -0.08326,-0.093 0.05266,-0.277 0,-0.39466 -0.117395,-0.26233 -0.235833,-0.13232 -0.353234,-0.39464 -0.02634,-0.0588 0.04162,-0.15077 0,-0.19734 -0.04164,-0.0464 -0.123958,0.0294 -0.176618,0 -0.07446,-0.0417 -0.10215,-0.1557 -0.176617,-0.19732 -0.11143,-0.0622 -0.771664,0.0622 -0.883087,0 -0.07446,-0.0417 -0.102149,-0.1557 -0.176618,-0.19733 -0.05265,-0.0294 -0.123957,0.0294 -0.176616,0 -0.07446,-0.0417 -0.10215,-0.1557 -0.176618,-0.19732 -0.114733,-0.0641 -0.771056,0.0627 -0.883086,0 -0.07446,-0.0417 -0.09764,-0.16792 -0.176618,-0.19733 -0.804012,0 -0.01011,0.093 -0.529852,-0.19733 -0.10531,-0.0589 -0.24792,0.0588 -0.353234,0 -0.07446,-0.0417 -0.10215,-0.1557 -0.176617,-0.19732 -0.435,-0.243 0.159438,0.57278 -0.529852,-0.19732 -0.04162,-0.0464 0.04162,-0.15077 0,-0.19734 -0.04162,-0.0464 -0.123958,0.0294 -0.176617,0 -0.07446,-0.0417 -0.10215,-0.1557 -0.176618,-0.19732 -0.10531,-0.0589 -0.269976,0.093 -0.353234,0 -0.04162,-0.0466 0.02633,-0.13852 0,-0.19732 -0.36752,-0.82124 0.01224,0.21095 -0.353235,-0.19734 -0.04162,-0.0464 0.04162,-0.15077 0,-0.19732 -0.04162,-0.0464 -0.134989,0.0464 -0.176618,0 -0.04162,-0.0464 0.02634,-0.13852 0,-0.19732 -0.03724,-0.0832 -0.139388,-0.11419 -0.176616,-0.19734 -0.02634,-0.0588 0.04162,-0.15077 0,-0.19732 -0.04162,-0.0464 -0.13499,0.0466 -0.176618,0 -0.04162,-0.0464 0,-0.13152 0,-0.19732 -0.05888,0 -0.13499,0.0464 -0.176617,0 -0.0425,-0.0476 0.04251,-0.74182 0,-0.78931 -0.04164,-0.0466 -0.134989,0.0464 -0.176618,0 -0.08326,-0.093 0.08326,-0.30164 0,-0.39466 -0.235489,-0.2631 -0.176616,0.32888 -0.176616,-0.19732 -0.176618,0.13152 -0.339995,0.28859 -0.529853,0.39466 -0.06387,0.0356 -0.760241,0 -0.883087,0 -0.765341,0 -1.530683,0 -2.296025,0 -1.47181,0 -2.943621,0 -4.415432,0 -0.470979,0 -0.941958,0 -1.412938,0 -0.176618,0 -0.367515,0.0778 -0.529852,0 -0.315526,-0.15109 -0.588725,-0.39466 -0.883087,-0.59198 z"
       id="path5679"
       inkscape:connector-curvature="0" />
    <path
       style="fill:none;fill-rule:evenodd;stroke:#000000;stroke-width:1.50463104px;stroke-linecap:butt;stroke-linejoin:miter;stroke-opacity:1"
       d="m 50.638293,880.17637 c 0,-0.2631 -0.05711,-0.53405 0,-0.78929 0.01428,-0.0638 0.13499,0.0464 0.176617,0 0.08831,-0.0986 -0.08831,-0.49333 0,-0.592 0.04164,-0.0464 0.134989,0.0464 0.176618,0 0.04162,-0.0464 -0.04162,-0.15077 0,-0.19732 0.04162,-0.0464 0.134989,0.0464 0.176616,0 0.08326,-0.093 -0.08326,-0.30163 0,-0.39464 0.04164,-0.0466 0.13499,0.0464 0.176618,0 0.08326,-0.093 -0.08326,-0.30164 0,-0.39466 0.04162,-0.0466 0.13499,0.0464 0.176618,0 0.04162,-0.0466 -0.04164,-0.15077 0,-0.19733 0.04162,-0.0464 0.13499,0.0464 0.176617,0 0.04162,-0.0464 -0.02634,-0.13853 0,-0.19733 0.03724,-0.0832 0.117751,-0.13152 0.176618,-0.19732 0.05888,-0.0658 0.117736,-0.2631 0.176616,-0.19733 0.05888,0.0658 -0.259875,0.19733 -0.176616,0.19733 0.131644,0 0.228346,-0.15077 0.353234,-0.19733 0.11116,-0.0413 0.72389,0 0.883086,0 0.09236,0 0.660029,-0.0259 0.706469,0 0.07446,0.0417 0.102149,0.1557 0.176618,0.19733 0.05265,0.0294 0.134989,-0.0464 0.176618,0 0.04162,0.0464 0,0.13153 0,0.19732 0,0.0658 0,0.13153 0,0.19733 0,0.78931 0,1.57861 0,2.36792 0,0.0479 0.0057,0.58564 0,0.59198 -0.04162,0.0464 -0.13499,-0.0464 -0.176618,0 -0.105239,0.11753 0.176276,0.59198 -0.176618,0.59198 -0.05888,0 0,-0.13153 0,-0.19734 0,-0.0658 0,-0.13152 0,-0.19732 0,-0.0479 -0.0057,-0.58563 0,-0.59198 0.04162,-0.0464 0.134989,0.0464 0.176618,0 0.365428,-0.40827 -0.558422,0.0159 0.176618,-0.39465 0.05265,-0.0294 0.123957,0.0294 0.176616,0 0.07446,-0.0417 0.10215,-0.1557 0.176618,-0.19732 0.06387,-0.0356 0.760241,0 0.883086,0 0.05888,0 0.117751,0 0.176617,0 0.05888,0 0.13499,-0.0464 0.176617,0 0.04164,0.0464 -0.04162,0.15077 0,0.19732 0.04164,0.0464 0.134989,-0.0464 0.176618,0 0.04162,0.0464 0,0.13152 0,0.19733 0,0.0658 0,0.13153 0,0.19732 0,0.0725 0.0071,0.78137 0,0.7893 -0.04162,0.0466 -0.134989,-0.0464 -0.176618,0 -0.08326,0.093 0.08326,0.30164 0,0.39466 -0.04162,0.0466 -0.117751,0 -0.176617,0 -0.23549,0.2631 -0.498426,0.49877 -0.706468,0.7893 -0.706469,0.98663 -0.529853,0.98663 -1.059705,1.77595 -0.110933,0.16524 -0.457587,0.4305 -0.529851,0.59198 -0.02634,0.0588 0.04162,0.15077 0,0.19732 -0.04162,0.0464 -0.13499,0.0464 -0.176618,0 -0.04162,-0.0464 0,-0.13153 0,-0.19732 0,-0.0658 -0.04162,-0.15077 0,-0.19734 0.04164,-0.0464 0.134989,0.0464 0.176618,0 0.08326,-0.093 -0.08326,-0.30162 0,-0.39464 0.05886,-0.0657 0.294376,0.0657 0.353234,0 0.04162,-0.0464 -0.04162,-0.15077 0,-0.19734 0.04162,-0.0464 0.123957,0.0294 0.176617,0 0.07446,-0.0417 0.102149,-0.1557 0.176618,-0.19732 0.06387,-0.0356 0.760242,0 0.883087,0 0.04283,0 0.524171,-0.006 0.529851,0 0.04164,0.0464 0,0.13153 0,0.19732 0,0.46044 0,0.92086 0,1.3813 0,0.5262 0.05888,-0.0659 -0.176617,0.19732 -0.08326,0.093 0.08326,0.30163 0,0.39465 -0.04164,0.0464 -0.134989,-0.0464 -0.176618,0 -0.04162,0.0464 0.02634,0.13853 0,0.19732 -0.404154,0.9031 0.07321,-0.83732 -0.353234,0.59198 -0.01862,0.0624 0.02633,0.13853 0,0.19734 -0.36752,0.82122 0.01224,-0.21095 -0.353235,0.19732 -0.04162,0.0464 0.04164,0.15077 0,0.19732 -0.04162,0.0464 -0.134989,-0.0464 -0.176616,0 -0.04162,0.0464 0.04162,0.15077 0,0.19734 -0.24212,0.27051 -0.582599,0.19732 -0.883087,0.19732 -0.05888,0 -0.13499,-0.0464 -0.176618,0 -0.04162,0.0464 0.04164,0.15077 0,0.19732 -0.04162,0.0464 -0.117751,0 -0.176617,0 -0.05888,0 -0.117751,0 -0.176618,0 -0.05888,0 -0.235489,0 -0.176616,0 0.117736,0 0.470978,0 0.353234,0 -0.176618,0 -0.353234,0 -0.529852,0"
       id="path5681"
       inkscape:connector-curvature="0" />
    <path
       style="fill:#ff00ff;fill-rule:evenodd;stroke:#000000;stroke-width:1.50463104px;stroke-linecap:butt;stroke-linejoin:miter;stroke-opacity:1"
       d="m 45.516391,878.40044 c 0.387644,-1.98744 -0.64035,-0.32078 -0.883086,-0.59198 -0.04164,-0.0466 0.04162,-0.15077 0,-0.19733 -0.03611,-0.0404 -0.459825,0.0391 -0.529852,0 -0.07446,-0.0417 -0.10215,-0.1557 -0.176618,-0.19733 -0.10531,-0.0588 -0.247919,0.0589 -0.353235,0 -0.07446,-0.0417 -0.102149,-0.1557 -0.176616,-0.19732 -0.05266,-0.0294 -0.117751,0 -0.176618,0 -0.05888,0 -0.117751,0 -0.176617,0 -0.294361,0 -0.588725,0 -0.883087,0 -0.04283,0 -0.524171,-0.006 -0.529852,0 -0.04162,0.0464 0.04162,0.15077 0,0.19732 -0.04162,0.0464 -0.134989,-0.0464 -0.176617,0 -0.04162,0.0464 0,0.13153 0,0.19733 0,0.0658 0,0.13152 0,0.19733 0,0.5262 0,1.0524 0,1.57862 0,0.0658 0,0.13152 0,0.19732 0,0.0658 -0.04162,0.15077 0,0.19732 0.04162,0.0464 0.13499,-0.0464 0.176617,0 0.04162,0.0464 0.04162,0.15077 0,0.19733 -0.04162,0.0464 -0.117751,0 -0.176617,0 -0.353234,0 -0.706469,0 -1.059703,0 -0.05888,0 -0.134989,-0.0466 -0.176618,0 -0.04162,0.0464 0,0.13153 0,0.19732 0,0.13726 -0.03193,0.91528 0,0.98664 0.03724,0.0832 0.139388,0.11419 0.176618,0.19732 0.061,0.1363 -0.06199,0.91737 0,0.98664 0.04162,0.0464 0.134989,-0.0464 0.176616,0 0.04164,0.0464 -0.04162,0.15077 0,0.19732 0.04164,0.0464 0.123958,-0.0294 0.176618,0 0.07446,0.0417 0.10215,0.1557 0.176617,0.19733 0.09582,0.0536 0.658143,-0.0539 0.706469,0 0.04162,0.0464 0.04162,0.15077 0,0.19732 -0.008,0.01 -0.799811,0 -0.883086,0 -0.05888,0 -0.134989,-0.0466 -0.176618,0 -0.04162,0.0464 0.04164,0.15077 0,0.19732 -0.04162,0.0466 -0.134989,-0.0464 -0.176616,0 -0.04162,0.0466 0.05888,0.19734 0,0.19734 -0.05888,0 0,-0.2631 0,-0.19734 0,0.13153 0,0.2631 0,0.39466 0,0.0658 0,0.13153 0,0.19732 0,0.0658 -0.02633,0.13853 0,0.19734 0.03724,0.0832 0.139388,0.11419 0.176616,0.19732 0.02634,0.0589 -0.04162,0.15077 0,0.19732 0.04164,0.0464 0.13499,-0.0464 0.176618,0 0.04162,0.0464 -0.02633,0.13852 0,0.19734 0.195256,0.43629 0.109609,0.0612 0.353235,0.19732 0.05009,0.028 0.303145,0.36667 0.353234,0.39466 0.141296,0.0789 0.388559,-0.0789 0.529853,0 0.07446,0.0417 0.102149,0.1557 0.176616,0.19732 0.04567,0.0254 0.934518,0 1.059704,0"
       id="path5683"
       inkscape:connector-curvature="0" />
    <path
       style="fill:#000000;fill-opacity:1;stroke:#000000;stroke-width:0.18668491;stroke-opacity:0.9888268"
       d="m 46.226148,941.03731 c -0.291419,-0.0829 -0.865367,-0.16114 -1.27544,-0.17398 -0.748054,-0.0234 -1.956486,-0.56036 -3.365505,-1.49536 -1.242397,-0.82444 -2.464293,-0.71556 -4.572637,0.40744 l -1.705995,0.9087 -1.86983,-0.0802 c -1.59252,-0.0683 -2.003935,-0.15772 -2.774064,-0.60301 -0.49733,-0.28755 -1.116509,-0.80468 -1.375957,-1.14917 -0.364328,-0.48375 -0.75889,-0.71058 -1.733082,-0.99633 -0.693746,-0.2035 -1.441678,-0.36999 -1.662073,-0.36999 -0.68699,0 -2.428107,-0.57582 -2.890592,-0.95597 -0.937732,-0.7708 -1.236321,-1.54495 -1.236321,-3.20542 0,-1.01353 0.07526,-1.59221 0.220772,-1.69742 0.121423,-0.0878 0.816854,-0.4341 1.5454,-0.76954 2.828578,-1.30237 2.696633,-1.18946 3.251229,-2.78203 0.276299,-0.79341 0.574294,-1.44257 0.662208,-1.44257 0.08791,0 0.211434,-0.1554 0.274486,-0.34532 0.22889,-0.68948 2.871006,-3.39848 3.897698,-3.99637 0.37133,-0.21624 1.760428,-1.56995 3.086888,-3.00823 1.326458,-1.43829 2.894067,-3.0895 3.483575,-3.66936 0.589508,-0.57987 1.180851,-1.34582 1.314096,-1.70211 0.297484,-0.79546 1.298466,-1.97473 1.838823,-2.16635 0.260378,-0.0923 0.559081,-0.0252 0.856255,0.1923 l 0.456379,0.33409 -0.112072,-1.15636 c -0.246741,-2.54596 -0.332807,-14.22326 -0.129238,-17.53446 0.194915,-3.17037 0.467294,-6.19991 0.640681,-7.12596 0.06878,-0.36738 -0.02218,-0.43012 -0.766399,-0.52859 -1.989024,-0.2632 -2.412035,-0.91253 -2.578723,-3.95842 -0.127132,-2.32314 -0.02921,-2.69319 0.712687,-2.69319 0.389772,0 0.419919,-0.0757 0.419919,-1.05471 0,-1.54057 0.309728,-1.79366 1.979203,-1.61726 2.277491,0.24064 2.649103,0.20125 3.388234,-0.35915 0.377763,-0.28641 0.767548,-0.52075 0.866187,-0.52075 0.09863,0 0.04781,-0.16239 -0.112954,-0.36086 -0.254625,-0.31435 -0.2923,-0.96171 -0.2923,-5.02254 0,-3.1218 0.06781,-4.82798 0.205307,-5.16511 0.112925,-0.27689 0.156406,-0.55807 0.09664,-0.62485 -0.05977,-0.0668 -0.807849,-0.20002 -1.6624,-0.29609 -6.051546,-0.68033 -11.571944,-4.28373 -14.874083,-9.70894 -0.726429,-1.19348 -1.867083,-3.89525 -2.158543,-5.11277 l -0.220934,-0.9229 -3.100358,-0.0578 c -1.705196,-0.0318 -3.114868,-0.0564 -3.132605,-0.0547 -0.01774,0.002 0.166262,0.94934 0.408886,2.10581 0.408739,1.94826 0.545498,2.28131 1.862305,4.53537 1.450784,2.48339 2.253547,3.62557 4.108987,5.84634 1.19854,1.43453 2.277735,2.11529 4.605351,2.90509 4.219377,1.43171 5.247106,2.64875 6.020575,7.12955 0.430852,2.49598 0.442992,8.11596 0.02013,9.31839 -0.167007,0.47489 -0.303651,1.06401 -0.303651,1.30914 0,0.38552 -0.697583,0.84289 -5.166056,3.38712 -5.797594,3.30099 -5.332894,3.21715 -5.532244,0.99816 -0.0889,-0.98954 -0.03301,-1.47864 0.285811,-2.50133 0.365216,-1.17152 0.387785,-1.49671 0.287585,-4.14386 -0.149441,-3.94795 -0.665489,-6.12846 -1.450383,-6.12846 -0.269729,0 0.01711,1.80218 0.706665,4.43984 0.255351,0.97677 0.509139,2.44192 0.563974,3.25589 l 0.0997,1.47994 -5.249528,2.92124 c -2.88724,1.60667 -5.282417,2.88448 -5.322614,2.83957 -0.0402,-0.0449 -0.146274,-1.00428 -0.235723,-2.13192 -0.08945,-1.12765 -0.285669,-2.43764 -0.436042,-2.91108 -0.150373,-0.47344 -0.479446,-1.98299 -0.731273,-3.35454 -0.481744,-2.6238 -0.802683,-3.43042 -1.700854,-4.2748 -0.75619,-0.7109 -2.91896,-1.89883 -4.8193315,-2.64708 -2.0411123,-0.80366 -2.7369777,-1.26881 -4.2690816,-2.85362 -0.9296592,-0.96165 -1.4376953,-1.69429 -1.9749912,-2.84813 -1.1126544,-2.38943 -1.2626247,-3.29724 -1.2590958,-7.62162 0.00356,-4.27451 0.1747517,-5.49318 1.1369035,-8.09003 0.3514295,-0.94851 0.7456634,-2.27075 0.8760735,-2.93832 0.1304058,-0.66757 0.48972,-2.19052 0.7984662,-3.38435 0.3087462,-1.19382 0.674459,-2.62215 0.812694,-3.17406 0.138235,-0.55192 0.5907023,-1.50894 1.0054813,-2.12671 0.6363409,-0.94778 1.2217478,-1.4507 3.7476666,-3.2196 3.697562,-2.5894 6.459139,-4.14495 8.010806,-4.51236 0.650245,-0.15397 1.241873,-0.28149 1.314727,-0.28337 0.196201,-0.005 0.158729,-1.76442 -0.05597,-2.62827 -0.218353,-0.87851 -0.841237,-1.37856 -2.284203,-1.83376 -2.271859,-0.71667 -2.759981,-0.95423 -3.382909,-1.6464 -1.258676,-1.39857 -1.267029,-3.3544 -0.02295,-5.37503 0.33926,-0.55103 0.728829,-1.30133 0.865709,-1.66734 l 0.248871,-0.66547 1.31254,0 1.31254,0 -0.44489,1.13462 c -0.24469,0.62405 -0.762724,1.68355 -1.151188,2.35446 -0.816486,1.41013 -0.861387,2.17308 -0.150656,2.55992 0.242848,0.13217 1.243819,0.5112 2.224376,0.84227 2.974606,1.00435 3.957229,2.36445 3.957229,5.47744 l 0,1.24681 1.162501,0 c 0.791678,0 1.58496,-0.16292 2.486882,-0.51072 0.757355,-0.29205 1.499448,-0.46162 1.733272,-0.39606 0.570924,0.1601 0.622488,-0.0976 0.621348,-3.10522 -0.0012,-3.12017 -0.178837,-3.95108 -1.040752,-4.86769 -0.671675,-0.7143 -3.065699,-1.77594 -4.004798,-1.77594 -0.610125,0 -1.664922,-1.16491 -1.664922,-1.83873 0,-1.03184 0.121111,-1.12116 1.520144,-1.12116 0.785935,0 1.288157,0.0789 1.261579,0.19821 -0.02428,0.10902 0.668332,0.47512 1.539147,0.81356 0.870816,0.33844 1.87516,0.82119 2.231875,1.07278 l 0.648573,0.45743 0.108299,-0.60501 c 0.05957,-0.33276 0.108299,-0.90471 0.108299,-1.271 l 0,-0.66597 1.722019,0.0161 c 1.645486,0.0154 1.696508,0.0286 1.148012,0.29656 l -0.574006,0.28045 0,2.64155 c 0,1.45285 -0.113267,3.33952 -0.25172,4.19262 -0.138448,0.85309 -0.282793,2.32032 -0.320767,3.2605 l -0.06904,1.70943 0.806463,-0.3592 c 0.443556,-0.19756 1.190573,-0.54501 1.66004,-0.77213 0.469465,-0.22711 0.986071,-0.41301 1.148012,-0.41312 0.510382,-3.4e-4 1.712277,-2.81072 2.317231,-5.41836 0.301126,-1.298 0.511044,-2.46614 0.466486,-2.59588 -0.04455,-0.12973 -0.553216,-0.51707 -1.130351,-0.86075 -0.577134,-0.34368 -1.313409,-0.92927 -1.636167,-1.30132 l -0.586832,-0.67645 2.000744,0 c 2.451796,0 2.715678,0.14759 4.361987,2.43969 2.007528,2.79501 5.185047,5.25604 6.786242,5.25604 0.377599,0 1.175303,-0.50746 2.81925,-1.79348 1.260959,-0.98642 2.292651,-1.82819 2.292651,-1.87059 0,-0.0424 -0.328753,-0.26449 -0.730563,-0.49352 -0.401809,-0.22902 -1.494629,-1.09659 -2.428487,-1.92794 l -1.697925,-1.51153 1.805677,-0.0562 1.805679,-0.0562 0.90404,0.69479 c 1.184759,0.91053 1.730759,1.05587 4.651075,1.23805 l 2.44911,0.15279 -1.259896,0.9695 c -0.692943,0.53323 -1.259894,0.99524 -1.259894,1.0267 0,0.0315 0.276215,0.20365 0.613812,0.38263 1.329036,0.70462 3.104897,2.89349 3.455436,4.25906 0.08443,0.32892 0.236838,1.43293 0.338682,2.45335 0.223722,2.24162 0.55923,3.2463 1.339779,4.01199 0.76657,0.75198 1.30307,0.86102 8.401225,1.70761 3.316685,0.39558 4.824131,0.86701 6.942191,2.17108 1.919386,1.18174 2.528693,1.81089 3.228499,3.33361 0.562758,1.22451 1.41178,4.93947 1.642107,7.18515 0.283439,2.76352 0.226857,9.24117 -0.09118,10.43766 -0.379473,1.42765 -1.634322,2.87512 -4.215666,4.86276 -2.145429,1.65199 -2.152236,1.65973 -2.471946,2.8109 -0.819434,2.95051 -2.04677,5.10664 -3.382121,5.94156 -0.258271,0.16148 -0.333854,0.51713 -0.393226,1.8502 l -0.07349,1.65029 0.93682,0.57786 c 0.515251,0.31781 0.840275,0.6138 0.722274,0.65775 -0.393497,0.14654 -0.221514,0.3957 0.493886,0.71551 l 0.708439,0.3167 2.558982,-1.90483 c 1.40744,-1.04765 2.555923,-1.95749 2.552179,-2.02187 -0.0037,-0.0644 -0.255402,-0.29465 -0.559246,-0.51171 -1.078028,-0.77012 -1.28871,-1.31415 -1.285855,-3.32034 0.0033,-2.30527 0.305289,-3.31848 1.862936,-6.24999 1.193873,-2.24688 2.595303,-4.12425 3.612877,-4.83985 1.545143,-1.0866 3.773174,-3.11388 4.252121,-3.869 0.860885,-1.35728 0.954836,-1.90886 0.954836,-5.60585 0,-4.51977 -0.242127,-6.92808 -0.987625,-9.82341 -0.925581,-3.59473 -1.261245,-4.15298 -3.269171,-5.43702 -2.779525,-1.77747 -2.858887,-1.796 -13.201559,-3.08231 -1.381719,-0.17184 -2.242944,-0.62748 -2.99836,-1.58631 -0.814751,-1.03413 -1.035831,-1.77751 -1.288794,-4.33355 -0.107587,-1.08709 -0.336742,-2.28343 -0.510272,-2.66391 -0.82563,-1.81028 -2.63039,-3.36192 -4.50174,-3.87036 -0.815619,-0.2216 -0.671616,-0.24121 1.884893,-0.25671 l 2.767981,-0.0168 0.725121,0.9373 c 1.022844,1.32214 1.749743,3.06728 1.869873,4.48918 0.338035,4.00113 0.6256,4.4923 2.756513,4.70831 1.207507,0.1224 2.356764,0.27744 7.509799,1.01309 2.50717,0.35792 3.682236,0.80619 6.09576,2.32542 1.523015,0.95868 2.077632,1.42786 2.565309,2.17011 0.859629,1.30836 1.537577,3.20319 2.214238,6.1887 l 0.575167,2.5377 3.53e-4,5.72246 3.54e-4,5.72247 -0.521358,1.1496 c -0.706589,1.55803 -1.903962,2.88608 -4.423926,4.90672 -2.275548,1.82466 -2.818756,2.49762 -4.324379,5.35729 -1.022462,1.94199 -1.676931,4.55008 -1.308673,5.21512 0.184913,0.33394 1.854929,1.0518 4.115611,1.76912 l 1.131821,0.35913 -5.194018,3.81977 -5.194142,3.81978 -0.794778,-0.22471 c -0.437135,-0.1236 -1.399934,-0.56391 -2.139559,-0.97847 l -1.344776,-0.75375 -3.722661,2.61589 -3.722664,2.6159 -0.760931,-0.61028 c -1.147294,-0.92015 -3.115136,-2.84332 -3.644146,-3.56142 -0.257929,-0.35012 -0.608849,-0.75262 -0.779821,-0.89444 -0.398519,-0.33056 -0.41971,-1.90208 -0.0397,-2.94471 0.242297,-0.6648 0.589987,-0.95178 3.26742,-2.69693 1.647949,-1.07413 2.99627,-1.96278 2.99627,-1.9748 0,-0.0121 0.238433,-0.80505 0.529853,-1.76231 0.510925,-1.6783 0.529697,-1.86502 0.525533,-5.22761 -0.005,-3.98014 -0.121167,-4.74394 -0.984396,-6.46854 l -0.620893,-1.24044 -1.447068,1.62719 c -3.000276,3.37372 -7.082906,5.68475 -11.399754,6.45299 -0.64581,0.11494 -1.247817,0.29067 -1.33779,0.39054 -0.334312,0.37108 -0.51567,2.37172 -0.562881,6.20942 -0.0267,2.17059 -0.053,4.05406 -0.05843,4.18549 -0.0054,0.13144 -0.166751,0.40226 -0.358481,0.60183 -0.345257,0.35937 -0.343533,0.3662 0.179831,0.71161 0.290641,0.19181 0.758134,0.7981 1.038876,1.34729 l 0.510442,0.99855 0.269562,-0.56784 c 0.148258,-0.31231 0.476674,-0.81203 0.729813,-1.11048 0.406278,-0.47902 0.589428,-0.54265 1.561816,-0.54265 1.515674,0 1.886632,0.31259 1.886632,1.5898 0,0.97463 5.3e-4,0.97544 0.590787,0.97544 0.788822,0 1.175386,0.51023 1.175386,1.55139 0,0.68829 -0.107516,0.9498 -0.630885,1.53454 -0.623182,0.69626 -0.626417,0.70836 -0.264927,0.99125 0.593471,0.46442 0.510338,2.15475 -0.172454,3.50645 -0.635988,1.25904 -1.058553,1.60859 -2.169677,1.79475 l -0.824255,0.13809 0,-0.69193 c 0,-0.70768 0.215571,-0.93149 0.897208,-0.93149 0.212097,0 0.535155,-0.34994 0.865285,-0.9373 0.852841,-1.51734 0.612361,-2.23431 -0.340457,-1.01504 -0.505788,0.64723 -0.987702,0.70581 -1.296649,0.15761 -0.273753,-0.48575 0.01011,-1.35452 0.557319,-1.70536 0.271374,-0.17401 0.622473,-0.56764 0.780222,-0.87473 0.270351,-0.52629 0.268253,-0.55834 -0.03658,-0.55834 -0.542767,0 -0.768882,-0.50132 -0.643595,-1.42691 0.06272,-0.46329 0.158352,-1.26413 0.212531,-1.77965 l 0.09851,-0.9373 -0.632992,0 c -0.545888,0 -0.694055,0.10807 -1.07675,0.78539 -0.244065,0.43196 -0.443758,0.8696 -0.443758,0.97253 0,0.10293 -0.124883,0.32668 -0.277506,0.4972 -0.252262,0.28184 -0.244035,0.45793 0.09046,1.93579 0.415084,1.8339 0.957537,5.84321 1.248439,9.22728 0.317598,3.69467 0.421322,12.73392 0.192191,16.74899 -0.113837,1.99473 -0.166211,3.67233 -0.116385,3.72799 0.04982,0.0557 0.211723,-0.0111 0.359778,-0.1484 0.228211,-0.21161 0.269195,-0.17892 0.269195,0.21472 0,0.25538 0.167614,0.91615 0.372476,1.46837 0.428114,1.15402 1.486326,2.08086 2.806636,2.45822 1.405403,0.40168 2.020655,0.56866 2.499534,0.67839 0.431878,0.099 1.739281,1.7959 1.739281,2.2575 0,0.0956 0.348002,0.82797 0.773337,1.62748 0.425336,0.79952 0.985391,1.85325 1.244567,2.34164 0.742181,1.39854 1.278985,2.19912 2.130862,3.17791 0.434961,0.49977 0.93537,1.25454 1.112019,1.67728 0.499958,1.19643 1.089772,2.20304 1.358319,2.31818 0.134534,0.0577 0.576274,0.57366 0.981653,1.14664 0.729119,1.03056 0.735778,1.05457 0.618694,2.23134 -0.0651,0.65426 -0.172723,2.00199 -0.23917,2.99495 -0.162732,2.43183 -0.32816,2.63446 -2.150843,2.63446 -1.201657,0 -1.426396,0.0603 -1.961813,0.52658 -0.332578,0.28962 -0.821487,0.8668 -1.086466,1.28262 -0.432435,0.67861 -0.560649,0.75604 -1.251878,0.75604 -0.981502,0 -1.851055,-0.32522 -2.412368,-0.90226 -0.650408,-0.66863 -1.287598,-0.87393 -2.704911,-0.8715 -1.952269,0.003 -2.44932,0.15473 -3.298097,1.00448 l -0.768387,0.76928 -3.10499,-0.0233 c -1.707742,-0.0129 -3.343419,-0.0911 -3.634837,-0.17398 z m 6.976119,-1.95099 c 0.874666,-0.87568 1.401183,-1.00891 3.987306,-1.00891 1.816136,0 2.297621,0.14334 3.235535,0.96323 0.350291,0.30622 0.862434,0.61799 1.138092,0.69284 0.440425,0.11958 0.587589,0.0264 1.213675,-0.76824 1.007729,-1.27908 1.79373,-1.67713 3.311682,-1.67713 l 1.243357,0 0.0011,-1.52928 c 5.3e-4,-0.84111 0.08316,-1.85988 0.183607,-2.26395 0.232388,-0.93487 -0.04141,-1.56971 -1.23919,-2.87321 -0.478734,-0.521 -1.070373,-1.4319 -1.314754,-2.02424 -0.24438,-0.59234 -0.810284,-1.52096 -1.257563,-2.06361 -0.939182,-1.13943 -1.821689,-2.53889 -2.488715,-3.94653 -0.257138,-0.54265 -0.751188,-1.47501 -1.09789,-2.07192 -0.346701,-0.59692 -0.803665,-1.43845 -1.015474,-1.87007 -0.488651,-0.99577 -0.769685,-1.14283 -3.237612,-1.69415 -0.623971,-0.1394 -1.262207,-0.39343 -1.418306,-0.56453 -0.156095,-0.17111 -0.48009,-0.42832 -0.719986,-0.57159 -0.437968,-0.26151 -1.407647,-1.64717 -1.407647,-2.0114 0,-0.12349 -1.84183,-0.19469 -5.035991,-0.19469 -3.553432,0 -5.133896,-0.0683 -5.368565,-0.23205 -0.282231,-0.19692 -0.401335,-0.14465 -0.7868,0.34532 -0.249824,0.31756 -0.456736,0.71694 -0.459805,0.88752 -0.0048,0.26732 -2.666803,3.34039 -2.893555,3.34039 -0.04528,0 -1.133152,1.15447 -2.417492,2.56549 -1.28434,1.41102 -2.755092,2.83392 -3.268341,3.162 -0.513247,0.32809 -1.555958,1.3342 -2.317136,2.23582 -1.156307,1.36964 -1.472039,1.89342 -1.919417,3.18421 -0.294501,0.84971 -0.652152,1.60936 -0.794778,1.68813 -0.142626,0.0788 -0.65671,0.32487 -1.142407,0.5469 -2.96677,1.35619 -2.914185,1.31622 -2.914185,2.21505 0,1.22089 0.779032,2.01373 2.296025,2.33671 3.944643,0.83986 4.41037,1.00546 4.820728,1.71414 0.575606,0.99406 1.697835,1.52967 3.391976,1.61889 1.475046,0.0777 1.684915,0.007 3.97389,-1.34742 0.486853,-0.28798 1.020137,-0.36766 2.510583,-0.37513 1.660886,-0.008 1.913667,0.0349 2.066072,0.35304 0.250706,0.52337 2.324328,1.6067 3.127869,1.63409 0.376639,0.0129 0.923231,0.0911 1.214649,0.17398 0.291418,0.0829 1.768141,0.16114 3.281604,0.17398 l 2.751754,0.0233 0.766144,-0.76703 z M 50.086478,911.3223 c 0.06108,-0.49795 0.195257,-2.98303 0.298154,-5.5224 0.279527,-6.89835 -0.129552,-15.51391 -0.987766,-20.80328 -0.49234,-3.03441 -1.476907,-6.51177 -1.843719,-6.51177 -0.07191,0 -0.344548,0.53227 -0.605858,1.18282 -1.670301,4.15833 -2.687116,16.10416 -2.246836,26.39644 0.119473,2.79304 0.262602,5.32244 0.318048,5.6209 l 0.100812,0.54265 2.428046,0 2.428047,0 0.111075,-0.90536 z m -5.626092,-29.49926 c 0.63118,-1.88967 1.147601,-3.45599 1.147601,-3.48071 0,-0.0247 -0.218564,0.003 -0.485698,0.0606 -0.267133,0.0581 -0.833471,-0.033 -1.258527,-0.20226 -0.425056,-0.16931 -1.012591,-0.30784 -1.305634,-0.30784 l -0.532807,0 0.107673,1.15097 c 0.122434,1.30868 -0.03133,1.6116 -0.818043,1.6116 -0.395614,0 -0.488826,0.0716 -0.40622,0.31213 0.05896,0.17167 0.107203,0.47656 0.107203,0.67754 0,0.24798 0.150347,0.38547 0.467884,0.42784 0.937573,0.12512 1.009393,1.35364 0.08808,1.50678 -0.805482,0.13388 -0.271576,0.74484 0.821577,0.94014 0.590042,0.10541 0.741862,0.21487 0.741862,0.53486 0,0.22128 0.03993,0.35772 0.08873,0.3032 0.0488,-0.0545 0.60514,-1.64522 1.23632,-3.53489 z m -21.549098,0.56178 c 2.374231,-1.32343 2.915561,-1.70166 2.915561,-2.03716 0,-0.22659 -0.201802,-1.1602 -0.448451,-2.0747 -0.246648,-0.91449 -0.599471,-2.52568 -0.784051,-3.58042 -0.422474,-2.41415 -0.835332,-3.45911 -1.764854,-4.46696 -0.805909,-0.87381 -4.081867,-2.83894 -5.534973,-3.32023 -2.835575,-0.93918 -5.029067,-3.1986 -6.163191,-6.34843 -0.371349,-1.03136 -0.401271,-1.41439 -0.403019,-5.15926 -0.002,-4.37357 0.107089,-5.19762 0.998936,-7.54296 0.418808,-1.10137 1.51276,-5.2169 1.871216,-7.03967 0.09014,-0.45835 0.06789,-0.46948 -0.683139,-0.3415 -0.426973,0.0728 -1.213442,0.39869 -1.747709,0.72427 -0.534268,0.32559 -1.4285449,0.83445 -1.9872843,1.13081 -0.7416234,0.39336 -1.0437817,0.67201 -1.1192081,1.03214 -0.056826,0.27133 -0.330164,1.33689 -0.6074184,2.36792 -0.2772543,1.03103 -0.6376091,2.54058 -0.8007879,3.35455 -0.1631803,0.81397 -0.607276,2.29588 -0.9868807,3.29315 -0.8683595,2.28126 -1.1024935,4.2358 -0.9942628,8.30008 l 0.080142,3.00953 0.7366769,1.66099 c 0.886452,1.99869 2.4880009,3.78312 3.9626727,4.41515 0.506866,0.21723 1.3984406,0.59514 1.9812776,0.83978 1.838987,0.77189 4.122145,2.17037 5.026544,3.07885 1.129492,1.13458 1.69385,2.45838 2.135363,5.00886 0.196561,1.13547 0.517737,2.68607 0.713725,3.44578 0.468591,1.8164 0.487065,1.8746 0.595081,1.8746 0.05086,0 1.404478,-0.73133 3.008035,-1.62517 z m 13.623769,-2.99024 c 0.40178,-1.35148 0.245992,-7.07161 -0.247899,-9.1023 -0.604719,-2.48635 -0.819051,-2.6962 -3.940088,-3.85775 -3.709637,-1.38061 -4.450173,-1.91677 -6.915808,-5.00716 -1.556355,-1.9507 -3.990716,-5.81194 -4.708211,-7.46787 -0.420146,-0.96967 -1.100106,-3.93379 -1.525999,-6.65222 -0.214047,-1.36624 -0.262749,-2.39634 -0.17959,-3.79853 0.130135,-2.19416 0.177925,-2.13823 -1.403317,-1.64226 -2.014875,0.63198 -1.939987,0.5456 -2.481099,2.8616 -0.26804,1.14723 -0.793047,2.95343 -1.166685,4.01377 -0.373637,1.06035 -0.67934,2.23841 -0.67934,2.61793 0,0.98869 0.825674,5.11857 1.224968,6.12708 0.395972,1.00012 2.877409,5.13374 3.810532,6.34764 0.480192,0.62469 1.23107,1.17244 2.93155,2.1385 1.848902,1.05039 2.498963,1.53899 3.399724,2.55532 0.889296,1.0034 1.34991,1.3524 2.285894,1.73198 1.43522,0.58204 1.916998,0.92441 2.473854,1.75804 0.94668,1.4172 1.355376,3.91377 1.357257,8.29095 l 0.0014,3.10708 2.73708,-1.52524 2.737083,-1.52524 0.288761,-0.97132 -8e-5,0 z m 18.50934,1.54275 c 0.350181,-0.39124 0.355501,-0.67655 0.01267,-0.67655 -0.145708,0 -0.264926,0.0815 -0.264926,0.18119 0,0.0997 -0.04824,0.32165 -0.107202,0.49332 -0.136513,0.39745 0.0048,0.39825 0.359514,0.002 l 0,-10e-6 z m 11.375625,-2.84714 2.689255,-1.8746 -0.83969,-0.83863 c -0.46183,-0.46125 -0.890568,-0.83864 -0.952752,-0.83864 -0.06218,0 -0.830057,0.44578 -1.706385,0.99061 -0.876332,0.54483 -2.139013,1.20148 -2.805962,1.4592 -1.68564,0.65138 -1.852792,0.73567 -1.794105,0.90478 0.128896,0.37143 2.200503,2.17055 2.445704,2.12402 0.151074,-0.0287 1.484844,-0.8957 2.963935,-1.92674 z m 5.044436,-9.2938 c 0.575622,-0.50588 1.130096,-1.7131 1.803684,-3.92706 0.495226,-1.62771 0.510099,-1.79097 0.50336,-5.52514 -0.0081,-4.49059 -0.144125,-5.20224 -1.498858,-7.84195 -0.759702,-1.48028 -1.1037,-2.34386 -1.929639,-4.84421 -0.163317,-0.49441 -0.222597,-0.52696 -0.580933,-0.31907 -2.585594,1.50005 -5.609268,3.41344 -5.609268,3.54956 0,0.51006 1.418117,4.2824 2.21938,5.9038 0.509518,1.03103 1.029948,2.36298 1.156512,2.95989 0.265032,1.24996 0.329259,7.60023 0.09348,9.2432 -0.15008,1.04582 -0.148197,1.05231 0.23803,0.82138 0.214118,-0.12803 0.821527,-0.39893 1.349793,-0.60199 l 0.960489,-0.3692 0.291287,0.68245 c 0.341629,0.80041 0.384263,0.81182 1.002676,0.26834 z M 52.142827,861.1134 c 4.010668,-1.16825 7.774101,-3.86962 9.978039,-7.16217 l 0.505905,-0.7558 -0.33308,-1.0948 c -0.183195,-0.60215 -0.631198,-1.57029 -0.995566,-2.15143 l -0.662482,-1.05661 0.74303,-0.47916 c 0.408667,-0.26354 1.377317,-0.86646 2.152556,-1.33983 1.404571,-0.85763 1.410057,-0.86411 1.561137,-1.84277 0.312479,-2.02414 -0.609664,-7.33076 -1.453873,-8.36654 -0.154256,-0.18926 -0.72722,-0.49305 -1.273251,-0.67509 -1.867384,-0.62256 -3.48603,-2.88921 -3.786581,-5.30249 -0.104296,-0.83744 -0.198389,-0.9896 -0.941319,-1.52224 -1.379848,-0.98926 -3.507646,-1.99739 -5.270011,-2.49687 l -1.671973,-0.47386 -1.275455,0.9851 c -1.006351,0.77727 -1.423414,0.98511 -1.976726,0.98511 -0.973051,0 -2.619752,-0.50744 -3.619481,-1.11536 l -0.83934,-0.51039 -1.293288,0.43682 c -1.682486,0.56826 -4.292672,2.07623 -4.742008,2.73957 -1.437933,2.12279 -1.970679,2.76925 -2.739745,3.32455 -0.481927,0.34798 -1.097383,0.82331 -1.367682,1.0563 -0.619815,0.53427 -2.119071,3.97737 -2.500547,5.74263 -1.204498,5.5737 0.268042,11.36077 3.963394,15.5761 2.722135,3.10517 5.882633,4.95087 9.969975,5.82237 1.876647,0.40013 5.961221,0.23239 7.868372,-0.32314 z m 25.454131,-1.20156 c 0.545949,-0.4097 1.327234,-1.1696 1.736185,-1.68867 l 0.743552,-0.94377 -0.07438,-5.43004 c -0.07325,-5.34808 -0.08266,-5.46338 -0.623312,-7.63808 -0.66762,-2.68546 -1.114905,-3.7087 -1.792239,-4.10003 l -0.515342,-0.29774 -0.0014,3.89397 -0.0014,3.89396 -0.710913,0.74089 c -0.626923,0.65319 -0.816424,0.74089 -1.601004,0.74089 -0.489458,0 -0.88972,0.0666 -0.889471,0.14799 1.76e-4,0.0814 0.280369,0.66663 0.622486,1.30052 1.285705,2.38222 1.673085,4.22374 1.673085,7.95349 0,1.9143 0.04904,2.42873 0.220771,2.31619 0.121424,-0.0796 0.667459,-0.47988 1.213406,-0.88958 z M 74.426854,846.1914 c 0.271687,-0.2747 0.322988,-0.63847 0.322988,-2.29036 0,-1.70965 -0.03616,-1.94829 -0.279373,-1.84402 -0.153653,0.0659 -1.29706,0.11977 -2.540903,0.11977 l -2.261534,0 -0.07776,0.59198 c -0.04278,0.32559 -0.04863,0.59198 -0.01295,0.59198 0.03562,0 0.390282,-0.18554 0.788147,-0.41232 0.842216,-0.48004 0.727706,-0.59335 1.750675,1.73224 0.591995,1.34581 0.790324,1.62946 1.186584,1.69704 0.261681,0.0446 0.549004,0.0944 0.638494,0.1107 0.08949,0.0163 0.308055,-0.11738 0.485699,-0.29701 l 6e-6,0 z m -46.726319,-3.07829 c 0.01614,-2.19642 0.09143,-2.88117 0.471758,-4.28999 0.248906,-0.92202 0.436063,-1.69483 0.41591,-1.71735 -0.02016,-0.0225 -0.473241,0.19908 -1.006857,0.49245 -0.533616,0.29336 -1.484454,0.79978 -2.112977,1.12536 l -1.142767,0.59198 0.838932,0.0602 0.838933,0.0602 0,1.37047 0,1.37048 -1.236321,0 -1.236322,0 0,1.77593 0,1.77594 2.075254,-9.9e-4 2.075253,-9.8e-4 0.0192,-2.61359 0,0 z m 40.672649,1.05808 c 0.645092,-0.38398 0.601104,-0.49056 -0.290645,-0.70425 -0.549984,-0.13179 -0.574007,-0.11212 -0.574007,0.47011 0,0.70108 0.05512,0.71601 0.864652,0.23414 z m -0.0083,-4.54372 c 0.200703,-0.12001 1.317578,-0.21324 2.554342,-0.21324 1.70476,0 2.245394,-0.0642 2.410326,-0.28624 0.120968,-0.16284 0.606141,-0.31388 1.125484,-0.35037 l 0.912861,-0.0641 -0.61816,-0.3217 c -0.339989,-0.17693 -1.063855,-0.4135 -1.608594,-0.52571 -1.323752,-0.27268 -6.529111,-0.87068 -6.626991,-0.76132 -0.0426,0.0476 0.123943,0.86302 0.370101,1.81205 0.246157,0.94904 0.449301,1.91538 0.451435,2.14743 0.0027,0.29438 0.10494,0.17324 0.33822,-0.40081 0.183888,-0.45249 0.494827,-0.91867 0.690978,-1.03596 l -2e-6,0 z m -50.3093,-2.38383 c 0,-0.10853 -0.07479,-0.19733 -0.166195,-0.19733 -0.0914,0 -0.215313,0.0888 -0.275349,0.19733 -0.06003,0.10852 0.01475,0.19732 0.166194,0.19732 0.151442,0 0.27535,-0.0888 0.27535,-0.19732 z m 1.602924,-2.29768 0.428174,-0.52174 -0.605282,0.12914 c -0.732059,0.15619 -0.757098,0.18017 -0.616301,0.5901 0.152776,0.44481 0.295421,0.4093 0.793409,-0.1975 z m 37.23651,-9.42279 c -0.622443,-0.64695 -2.318841,-1.5004 -2.982326,-1.5004 -0.810388,0 -0.429835,0.40156 0.833925,0.87995 0.753497,0.28524 1.648166,0.6886 1.988155,0.89636 0.861798,0.52662 0.888366,0.48087 0.160246,-0.27591 z m -16.280085,-0.79028 c 0.02232,-0.0244 -0.271844,-0.37515 -0.653696,-0.77942 l -0.69428,-0.73504 -0.195748,0.84616 c -0.107658,0.46538 -0.234091,0.99443 -0.280955,1.17566 -0.07644,0.29562 0.01096,0.28876 0.849445,-0.0667 0.514058,-0.21792 0.952914,-0.41621 0.975234,-0.44062 z"
       id="path5685"
       inkscape:connector-curvature="0" />
    <path
       style="fill:#ff00ff;fill-rule:evenodd;stroke:#000000;stroke-width:1.50463104px;stroke-linecap:butt;stroke-linejoin:miter;stroke-opacity:1"
       d="m 53.640787,887.87211 c -0.419795,-0.20019 -0.667505,-0.19734 -1.059703,-0.19734 -0.05888,0 -0.176618,0.0658 -0.176618,0 0,-0.0658 0.23549,0 0.176618,0 -0.176618,0 -0.353235,0 -0.529853,0 -0.05888,0 -0.176616,0.0658 -0.176616,0 0,-0.0658 0.176616,0.0658 0.176616,0 0,-0.093 -0.139388,-0.11419 -0.176616,-0.19732 -0.02633,-0.0589 0,-0.13153 0,-0.19732 0,-0.0658 -0.05888,-0.19734 0,-0.19734 0.05888,0 0,0.26312 0,0.19734 0,-0.32888 0,-0.65776 0,-0.98664 0,-0.0658 0,-0.13152 0,-0.19732 0,-0.0658 0.04162,-0.15077 0,-0.19734 -0.04164,-0.0464 -0.13499,0.0464 -0.176618,0 -0.08326,-0.093 0.08326,-0.30163 0,-0.39464 -0.04162,-0.0464 -0.13499,0.0464 -0.176617,0 -0.04164,-0.0464 0.01862,-0.13486 0,-0.19733 -0.426439,-1.42931 0.05092,0.31111 -0.353236,-0.59198 -0.04709,-0.10529 0.04709,-0.28944 0,-0.39466 -0.03724,-0.0832 -0.139388,-0.11419 -0.176616,-0.19732 -0.05266,-0.11769 0.05265,-0.27698 0,-0.39466 -0.03724,-0.0832 -0.139388,-0.11419 -0.176618,-0.19732 -0.02632,-0.0588 0.02633,-0.13852 0,-0.19732 -0.03724,-0.0832 -0.139388,-0.11419 -0.176617,-0.19734 -0.03502,-0.0782 0.03611,-0.55162 0,-0.59197 -0.04164,-0.0464 -0.134989,0.0464 -0.176618,0 -0.008,-0.01 0,-0.8936 0,-0.98662 0,-0.13153 0,-0.26312 0,-0.39466 0,-0.0658 -0.05888,-0.19734 0,-0.19734 0.05888,0 0,0.26312 0,0.19734 0,-0.2631 0,-0.52622 0,-0.78931 0,-0.39465 0,-0.7893 0,-1.18396 0,-0.0658 -0.04162,-0.15077 0,-0.19732 0.08326,-0.093 0.247921,0.0588 0.353235,0 0.148936,-0.0832 0.204297,-0.31145 0.353234,-0.39466 0.05266,-0.0294 0.13499,0.0464 0.176618,0 0.04162,-0.0464 -0.04162,-0.15077 0,-0.19732 0.04162,-0.0464 0.13499,0.0466 0.176618,0 0.08326,-0.093 -0.08326,-0.30164 0,-0.39466 0.04162,-0.0464 0.13499,0.0466 0.176617,0 0.08831,-0.0986 -0.08831,-0.49331 0,-0.59198 0.04162,-0.0464 0.117751,0 0.176618,0 0,-0.0658 -0.02633,-0.13852 0,-0.19732 0.03724,-0.0832 0.139388,-0.11419 0.176616,-0.19733 0.05266,-0.11769 -0.08326,-0.30164 0,-0.39464 0.08326,-0.093 0.269976,0.093 0.353235,0 0.04162,-0.0464 -0.04162,-0.15077 0,-0.19734 0.0057,-0.006 0.487018,0 0.529852,0 0.05888,0 0.117737,0 0.176617,0 0.05888,0 0.176618,-0.0658 0.176618,0 0,0.0658 -0.235491,0 -0.176618,0 0.003,0 0.44006,0 0.529852,0 0.06485,0 0.699362,-0.008 0.706469,0 0.04164,0.0464 -0.04162,0.15077 0,0.19734 0.04164,0.0464 0.13499,-0.0464 0.176618,0 0.04162,0.0464 0,0.13152 0,0.19732 0,0.0658 0,0.13152 0,0.19732 0,0.0658 0.05888,0.19733 0,0.19733 -0.05888,0 0,-0.2631 0,-0.19733 0,0.2631 0,0.52621 0,0.78931 0,0.0658 0.04162,0.15077 0,0.19732 -0.04164,0.0466 -0.150289,-0.0588 -0.176618,0 -0.05266,0.11769 0,0.2631 0,0.39466 0,0.0658 0.04164,0.15077 0,0.19732 -0.04162,0.0464 -0.150289,-0.0588 -0.176616,0 -0.03754,0.0838 0,0.82128 0,0.98664 0,0.0658 0.05888,0.19732 0,0.19732 -0.05888,0 0,-0.13153 0,-0.19732 0,-0.5262 -0.05888,0.0658 0.176616,-0.19732 0.04164,-0.0464 -0.04162,-0.15077 0,-0.19734 0.04164,-0.0464 0.13499,0.0464 0.176618,0 0.04162,-0.0464 -0.02633,-0.13852 0,-0.19732 0.367519,-0.82124 -0.01224,0.21095 0.353235,-0.19734 0.04162,-0.0464 -0.04164,-0.15077 0,-0.19732 0.05896,-0.0658 0.294273,0.0658 0.353234,0 0.04162,-0.0464 -0.04164,-0.15077 0,-0.19732 0.0071,-0.008 0.641609,0 0.706469,0 0.05887,0 0.117751,0 0.176617,0 0.05888,0 0.134989,-0.0464 0.176617,0 0.0057,0.006 0,0.54412 0,0.59198 0,0.0658 0.05888,0.19732 0,0.19732 -0.05887,0 0,-0.2631 0,-0.19732 0,0.13152 0,0.2631 0,0.39466 0,0.0658 0.02634,0.13852 0,0.19732 -0.03724,0.0832 -0.139388,0.11419 -0.176617,0.19732 -0.02633,0.0588 0.04164,0.15077 0,0.19733 -0.04162,0.0464 -0.13499,-0.0466 -0.176617,0 -0.04162,0.0464 0.04162,0.15077 0,0.19732 -0.04162,0.0464 -0.134989,-0.0464 -0.176618,0 -0.04162,0.0464 0.04164,0.15077 0,0.19733 -0.04162,0.0464 -0.123957,-0.0294 -0.176617,0 -0.07446,0.0417 -0.117751,0.13152 -0.176617,0.19733 -0.05888,0.0658 -0.139388,0.11419 -0.176617,0.19732 -0.02633,0.0588 0.04162,0.15077 0,0.19732 -0.08326,0.093 -0.247921,-0.0588 -0.353234,0 -0.07446,0.0417 -0.10215,0.1557 -0.176618,0.19734 -0.05266,0.0294 -0.13499,-0.0464 -0.176617,0 -0.04164,0.0464 0.04162,0.15077 0,0.19732 -0.04164,0.0466 -0.134989,-0.0464 -0.176618,0 -0.04162,0.0466 0.04164,0.15077 0,0.19734 -0.04162,0.0464 -0.134989,-0.0466 -0.176616,0 -0.04162,0.0464 0,0.13152 0,0.19732 0,0.0658 -0.04162,0.15077 0,0.19732 0.08326,0.093 0.247919,-0.0589 0.353234,0 0.07446,0.0417 0.10215,0.1557 0.176617,0.19732 0.105309,0.0588 0.269976,-0.093 0.353234,0 0.04164,0.0466 -0.04162,0.15077 0,0.19734 0.04164,0.0464 0.134989,-0.0464 0.176618,0 0.04162,0.0464 -0.04164,0.15077 0,0.19732 0.08326,0.093 0.269976,-0.093 0.353234,0 0.04162,0.0464 0,0.13152 0,0.19733 0,0.32888 0,0.65774 0,0.98662 0,0.0725 0.0071,0.78137 0,0.78932 -0.04164,0.0464 -0.134989,-0.0464 -0.176617,0 -0.08326,0.093 0.08326,0.30163 0,0.39464 -0.04162,0.0466 -0.13499,-0.0464 -0.176617,0 -0.365428,0.40829 0.558422,-0.0159 -0.176618,0.39466 -0.05266,0.0294 -0.134989,-0.0464 -0.176616,0 -0.04164,0.0464 0.04162,0.15077 0,0.19733 -0.04164,0.0464 -0.13499,-0.0464 -0.176618,0 -0.365427,0.40827 0.558421,-0.0159 -0.176617,0.39464 -0.05266,0.0294 -0.117751,0 -0.176618,0 -0.05888,0.0659 -0.10215,0.1557 -0.176616,0.19734 -0.05266,0.0294 -0.13499,-0.0464 -0.176618,0 -0.04162,0.0464 0.04162,0.15077 0,0.19732 -0.05886,0.0657 -0.294377,-0.0657 -0.353235,0 -0.04162,0.0464 0.04162,0.15077 0,0.19732 -0.08831,0.0986 -0.441543,-0.0986 -0.529852,0 -0.04162,0.0466 0.04164,0.15077 0,0.19734 -0.05896,0.0658 -0.294274,-0.0658 -0.353235,0 -0.04162,0.0464 0.04164,0.15077 0,0.19732 -0.0425,0.0476 -0.663969,-0.0476 -0.706469,0 -0.04162,0.0464 0.04164,0.15077 0,0.19732 -0.0071,0.008 -0.641609,0 -0.706469,0 -0.05888,0 -0.134989,0.0464 -0.176618,0 -0.04162,-0.0464 0,-0.13152 0,-0.19732"
       id="path5687"
       inkscape:connector-curvature="0" />
    <path
       style="fill:none;fill-rule:evenodd;stroke:#000000;stroke-width:1.50463104px;stroke-linecap:butt;stroke-linejoin:miter;stroke-opacity:1"
       d="m 55.760194,882.54429 c 0.47098,0 0.94196,0 1.412939,0 0.05888,0 0.117751,0 0.176617,0 0.05888,0 0.123957,-0.0294 0.176618,0 0.07446,0.0417 0.102149,0.1557 0.176616,0.19733 0.05266,0.0294 0.13499,-0.0464 0.176618,0 0.04162,0.0464 -0.04164,0.15077 0,0.19732 0.05896,0.0658 0.294274,-0.0658 0.353235,0 0.04162,0.0464 -0.04164,0.15077 0,0.19732 0.04162,0.0466 0.134989,-0.0464 0.176616,0 0.365429,0.40829 -0.55842,-0.0159 0.176618,0.39466 0.05266,0.0294 0.123958,-0.0294 0.176618,0 0.07446,0.0417 0.10215,0.1557 0.176617,0.19732 0.05266,0.0294 0.134989,-0.0464 0.176618,0 0.04162,0.0464 -0.04164,0.15077 0,0.19734 0.04162,0.0464 0.123957,-0.0294 0.176616,0 0.07446,0.0417 0.10215,0.1557 0.176618,0.19732 0.05266,0.0294 0.13499,-0.0464 0.176617,0 0.04164,0.0464 -0.04162,0.15077 0,0.19732 0.04164,0.0464 0.134989,-0.0464 0.176618,0 0.04162,0.0464 -0.04164,0.15077 0,0.19734 0.09308,0.10401 0.260148,0.0933 0.353234,0.19732 0.04162,0.0464 -0.04164,0.15077 0,0.19732 0.04162,0.0466 0.123958,-0.0294 0.176617,0 0.07446,0.0417 0.102149,0.1557 0.176618,0.19734 0.05266,0.0294 0.134989,-0.0464 0.176616,0 0.04164,0.0464 -0.04162,0.15077 0,0.19732 0.04164,0.0464 0.13499,-0.0464 0.176618,0 0.04162,0.0464 -0.04162,0.15077 0,0.19733 0.04162,0.0464 0.13499,-0.0464 0.176617,0 0.04164,0.0464 -0.02633,0.13853 0,0.19732 0.03724,0.0832 0.130434,0.11992 0.176618,0.19732 0.07303,0.12247 0.09764,0.277 0.176618,0.39466 0.09991,0.14886 0.253324,0.24583 0.353234,0.39466 0.07899,0.11769 0.103588,0.27228 0.176617,0.39464 0.04618,0.0774 0.130434,0.11992 0.176618,0.19734 0.28193,0.47247 0.176616,0.5293 0.176616,1.18395 0,0.13153 -0.08326,0.30164 0,0.39466 0.03794,0.0425 0.825429,0 0.883087,0 0.07607,0 1.01191,-0.0267 1.059704,0 0.07446,0.0417 0.102149,0.1557 0.176618,0.19732 0.05265,0.0294 0.134989,-0.0464 0.176616,0 0.04164,0.0466 -0.04162,0.15077 0,0.19732 0.04164,0.0464 0.123958,-0.0294 0.176618,0 0.07446,0.0417 0.10215,0.1557 0.176617,0.19734 0.05266,0.0294 0.134989,-0.0464 0.176618,0 0.08326,0.093 -0.08326,0.30163 0,0.39464 0.04162,0.0464 0.134989,-0.0464 0.176616,0 0.04162,0.0464 -0.02633,0.13852 0,0.19734 0.03724,0.0832 0.139388,0.11419 0.176618,0.19732 0.02633,0.0588 -0.02633,0.13852 0,0.19732 0.03724,0.0832 0.139388,0.11419 0.176617,0.19734 0.02633,0.0588 -0.04162,0.15077 0,0.19732 0.04164,0.0464 0.134989,-0.0464 0.176618,0 0.0361,0.0404 -0.03502,0.51374 0,0.59197 0.03724,0.0832 0.139388,0.1142 0.176616,0.19734 0.05266,0.11769 -0.08326,0.30162 0,0.39464 0.04164,0.0466 0.123958,-0.0294 0.176618,0 0.735039,0.41061 -0.18881,-0.0143 0.176618,0.39466 0.04162,0.0466 0.13499,-0.0464 0.176617,0 0.05886,0.0658 -0.05886,0.32889 0,0.39466 0.04164,0.0464 0.134989,-0.0464 0.176618,0 0.08831,0.0986 -0.08831,0.49331 0,0.59198 0.04162,0.0464 0.134989,-0.0464 0.176616,0 0.04164,0.0464 -0.02633,0.13852 0,0.19732 0.03724,0.0832 0.139388,0.11419 0.176618,0.19732 0.05265,0.11769 -0.08326,0.30163 0,0.39465 0.04162,0.0466 0.13499,-0.0464 0.176617,0 0.08326,0.093 -0.05266,0.277 0,0.39466 0.367519,0.82122 -0.01224,-0.21095 0.353234,0.19732 0.04164,0.0464 -0.04162,0.15077 0,0.19734 0.04164,0.0464 0.13499,-0.0464 0.176618,0 0.04162,0.0464 -0.04164,0.15077 0,0.19732 0.04162,0.0464 0.13499,-0.0464 0.176617,0 0.08326,0.093 -0.08326,0.30164 0,0.39466 0.365428,0.40827 -0.01429,-0.6239 0.353234,0.19732 0.05266,0.11769 -0.08326,0.30163 0,0.39466 0.04164,0.0464 0.13499,-0.0464 0.176618,0 0.08326,0.093 -0.05266,0.27698 0,0.39464 0.03724,0.0832 0.139388,0.11419 0.176618,0.19733 0.02634,0.0589 -0.04162,0.15077 0,0.19732 0.04162,0.0464 0.13499,-0.0466 0.176617,0 0.08831,0.0986 -0.08831,0.49333 0,0.59198 0.04162,0.0464 0.134989,-0.0464 0.176618,0 0.04162,0.0464 0,0.13153 0,0.19734 0,0.0658 0,0.13153 0,0.19732 0,0.5262 0,1.0524 0,1.57861"
       id="path5689"
       inkscape:connector-curvature="0" />
    <path
       style="fill:none;fill-rule:evenodd;stroke:#000000;stroke-width:1.50463104px;stroke-linecap:butt;stroke-linejoin:miter;stroke-opacity:1"
       d="m 40.217872,881.55767 c -0.294362,0.13152 -0.619295,0.19816 -0.883086,0.39464 -0.109537,0.0816 -0.08353,0.29066 -0.176617,0.39466 -0.09308,0.10401 -0.247921,0.1091 -0.353235,0.19732 -0.13321,0.11164 -0.220022,0.28302 -0.353234,0.39465 -0.10531,0.0883 -0.243702,0.11579 -0.353235,0.19732 -0.138548,0.10322 -0.204298,0.31147 -0.353234,0.39466 -0.05265,0.0294 -0.117751,0 -0.176618,0 -0.05888,0.0658 -0.10215,0.1557 -0.176617,0.19732 -0.05266,0.0294 -0.134989,-0.0464 -0.176618,0 -0.04162,0.0464 0.04162,0.15077 0,0.19734 -0.04162,0.0464 -0.134989,-0.0464 -0.176616,0 -0.04162,0.0464 0.04162,0.15077 0,0.19732 -0.04162,0.0464 -0.13499,-0.0464 -0.176618,0 -0.04162,0.0464 0.04162,0.15077 0,0.19732 -0.365429,0.40829 0.01429,-0.6239 -0.353235,0.19734 -0.02633,0.0588 0.04162,0.15077 0,0.19732 -0.04162,0.0464 -0.134989,-0.0464 -0.176618,0 -0.04162,0.0464 0.04162,0.15077 0,0.19732 -0.04162,0.0466 -0.134989,-0.0464 -0.176616,0 -0.04162,0.0466 0.04162,0.15077 0,0.19734 -0.04162,0.0464 -0.123958,-0.0294 -0.176618,0 -0.735039,0.41061 0.18881,-0.0143 -0.176617,0.39465 -0.04164,0.0464 -0.134989,-0.0464 -0.176618,0 -0.04162,0.0464 0.04162,0.15077 0,0.19732 -0.365427,0.40828 0.01428,-0.62389 -0.353234,0.19732 -0.02633,0.0589 0,0.13153 0,0.19734 -0.05888,0.13153 -0.103602,0.27228 -0.176617,0.39464 -0.09237,0.15475 -0.253325,0.24583 -0.353234,0.39466 -0.409076,0.60939 -0.231793,0.53205 -0.706471,0.98664 -2.960115,2.83474 0.860886,-0.90019 -1.589554,1.38127 -0.721016,0.67131 -0.06159,0.0918 -0.529853,0.78932 -0.09991,0.14886 -0.235489,0.2631 -0.353234,0.39464 -0.05888,0.0658 -0.10215,0.1557 -0.176618,0.19734 -0.05266,0.0294 -0.13499,-0.0464 -0.176617,0 -0.04164,0.0464 0.04162,0.15077 0,0.19732 -0.08326,0.093 -0.269976,-0.093 -0.353234,0 -0.04162,0.0464 0.04162,0.15077 0,0.19733 -0.04162,0.0464 -0.13499,-0.0464 -0.176618,0 -0.04162,0.0464 0.02633,0.13853 0,0.19732 -0.03724,0.0832 -0.117751,0.13153 -0.176617,0.19732 -0.05887,0.0658 -0.117751,0.13153 -0.176618,0.19734 -0.05888,0.0658 -0.102149,0.1557 -0.176616,0.19732 -0.05266,0.0294 -0.150289,-0.0588 -0.176618,0 -0.05266,0.11769 0.05266,0.27699 0,0.39466 -0.02633,0.0588 -0.123958,-0.0294 -0.176617,0 -0.73504,0.41061 0.18881,-0.0143 -0.176618,0.39464 -0.04162,0.0464 -0.134989,-0.0466 -0.176618,0 -0.04162,0.0464 0.02633,0.13852 0,0.19734 -0.03724,0.0832 -0.139388,0.11419 -0.176616,0.19732 -0.05266,0.11769 0.05265,0.27698 0,0.39466 -0.03724,0.0832 -0.139388,0.11419 -0.176618,0.19732 -0.02633,0.0588 0.01862,0.13486 0,0.19732 -0.08326,0.27906 -0.301599,0.50086 -0.353235,0.78931 -0.03463,0.19349 0,0.39466 0,0.59198 0,0.59198 0,1.18396 0,1.77593 0,0.13153 0,0.2631 0,0.39466 0,0.0658 0.05888,0.19732 0,0.19732 -0.05888,0 0,-0.2631 0,-0.19732 0,0.13153 0,0.2631 0,0.39466"
       id="path5691"
       inkscape:connector-curvature="0" />
    <path
       style="fill:none;fill-rule:evenodd;stroke:#000000;stroke-width:1.50463104px;stroke-linecap:butt;stroke-linejoin:miter;stroke-opacity:1"
       d="m 68.47664,897.14644 c -0.05888,0.26311 -0.05173,0.55676 -0.176618,0.78931 -0.06773,0.12612 -0.2437,0.11578 -0.353234,0.19732 -0.439325,0.32723 -0.02029,0.0453 -0.176617,0.39466 -0.367519,0.82122 0.01224,-0.21095 -0.353234,0.19732 -0.04162,0.0464 0.04162,0.15077 0,0.19734 -0.04162,0.0464 -0.13499,-0.0464 -0.176618,0 -0.04162,0.0464 0.04164,0.15077 0,0.19732 -0.04162,0.0464 -0.13499,-0.0464 -0.176617,0 -0.09308,0.10401 -0.134989,0.25511 -0.176618,0.39465 -0.01862,0.0624 0.04164,0.15077 0,0.19732 -0.04162,0.0464 -0.134989,-0.0464 -0.176616,0 -0.08326,0.093 0.08326,0.30164 0,0.39466 -0.04164,0.0464 -0.13499,-0.0464 -0.176618,0 -0.04162,0.0464 0.04164,0.15077 0,0.19732 -0.04162,0.0464 -0.13499,-0.0464 -0.176617,0 -0.04164,0.0464 0,0.13153 0,0.19732 0,0.0658 0,0.13153 0,0.19734 0,0.65776 0,1.31551 0,1.97326 0,0.65775 0,1.31551 0,1.97327 0,0.13168 0,0.26302 0,0.39465 0,0.0659 0.05888,0.19732 0,0.19732 -0.05888,0 0,-0.13152 0,-0.19732 0,-0.26311 0,-0.52621 0,-0.78931 0,-0.0658 0.04162,-0.15077 0,-0.19732 -0.04164,-0.0464 -0.134989,0.0464 -0.176618,0 -0.0071,-0.008 0,-0.71684 0,-0.78932 0,-0.13152 0,-0.2631 0,-0.39464 0,-0.0658 -0.05888,-0.19733 0,-0.19733 0.05888,0 0,0.13152 0,0.19733 0,0.13153 0,0.2631 0,0.39464 0,0.0658 0,0.13153 0,0.19734 0,0.0658 0.05888,0.19732 0,0.19732 -0.05888,0 0,-0.2631 0,-0.19732 0,0.13153 0,0.2631 0,0.39464"
       id="path5693"
       inkscape:connector-curvature="0" />
    <path
       style="fill:none;fill-rule:evenodd;stroke:#000000;stroke-width:1.50463104px;stroke-linecap:butt;stroke-linejoin:miter;stroke-opacity:1"
       d="m 68.123406,898.72505 c 1.382125,-0.22972 0.129053,0.73616 0.353234,0.98663 0.365428,0.40828 -0.01429,-0.62389 0.353235,0.19733 0.0555,0.12405 -0.0555,0.66528 0,0.78931 0.03724,0.0832 0.150289,0.1091 0.176618,0.19732 0.05586,0.18721 0,0.39466 0,0.59198 0,0.32888 0,0.65776 0,0.98663 0,0.0889 -0.02688,0.53193 0,0.59198 0.218246,0.48768 0.176616,-0.0681 0.176616,0.39466 0,0.0658 0,0.13153 0,0.19732 0,0.0658 -0.02633,0.13852 0,0.19732 0.03724,0.0832 0.139388,0.11419 0.176618,0.19734 0.02688,0.0601 0,0.50311 0,0.59198 0,0.0658 0,0.13152 0,0.19732 0,0.0658 0.05888,0.19733 0,0.19733 -0.05888,0 0,-0.13152 0,-0.19733"
       id="path5695"
       inkscape:connector-curvature="0" />
    <path
       style="fill:none;fill-rule:evenodd;stroke:#000000;stroke-width:1.50463104px;stroke-linecap:butt;stroke-linejoin:miter;stroke-opacity:1"
       d="m 69.359727,898.13307 c 0.05888,0.2631 0.05173,0.55675 0.176617,0.78932 0.06773,0.12611 0.243701,0.11578 0.353234,0.19732 0.160777,0.11975 0.37331,0.50453 0.529853,0.59197 0.05265,0.0294 0.134989,-0.0464 0.176616,0 0.04162,0.0464 -0.04162,0.15077 0,0.19733 0.05902,0.066 0.294217,-0.066 0.353236,0 0.04162,0.0464 -0.04164,0.15077 0,0.19733 0.08326,0.093 0.269976,-0.093 0.353234,0 0.04162,0.0464 -0.02633,0.13853 0,0.19732 0.36752,0.82124 -0.01224,-0.21095 0.353235,0.19732 0.04162,0.0464 -0.04164,0.15077 0,0.19734 0.04162,0.0464 0.134989,-0.0464 0.176617,0 0.04164,0.0464 -0.04162,0.15077 0,0.19732 0.04164,0.0466 0.134989,-0.0464 0.176617,0 0.04162,0.0466 -0.02633,0.13852 0,0.19732 0.117396,0.26234 0.235834,0.13232 0.353235,0.39466 0.05266,0.11769 -0.08326,0.30163 0,0.39466 0.04162,0.0464 0.134989,-0.0464 0.176617,0 0.08831,0.0986 -0.08831,0.49331 0,0.59197 0.04164,0.0464 0.134989,-0.0466 0.176617,0 0.04162,0.0464 -0.04162,0.15077 0,0.19733 0.23549,0.2631 0.176617,-0.32888 0.176617,0.19733"
       id="path5697"
       inkscape:connector-curvature="0" />
    <path
       style="fill:none;fill-rule:evenodd;stroke:#000000;stroke-width:1.50463104px;stroke-linecap:butt;stroke-linejoin:miter;stroke-opacity:1"
       d="m 28.384513,896.15982 c -0.235489,0.13152 -0.47098,0.2631 -0.706469,0.39464 0,0.0658 0.04162,0.15077 0,0.19733 -0.04162,0.0464 -0.13499,-0.0464 -0.176617,0 -0.365428,0.40828 0.558421,-0.0159 -0.176618,0.39465 -0.05265,0.0294 -0.134989,-0.0464 -0.176616,0 0,0.29035 0.04162,0.15077 -0.176618,0.39465 -0.09298,0.10386 -0.482688,0.4866 -0.529853,0.59198 -0.05265,0.11769 0.08326,0.30164 0,0.39466 -0.04162,0.0464 -0.134989,-0.0464 -0.176616,0 -0.08326,0.093 0.05266,0.27698 0,0.39466 -0.03724,0.0832 -0.139388,0.11419 -0.176618,0.19732 -0.02634,0.0588 0.04164,0.15077 0,0.19732 -0.04162,0.0466 -0.13499,-0.0464 -0.176617,0 -0.04164,0.0466 0,0.13152 0,0.19733 0,0.5262 0,1.0524 0,1.5786"
       id="path5699"
       inkscape:connector-curvature="0" />
    <path
       style="fill:none;fill-rule:evenodd;stroke:#000000;stroke-width:1.50463104px;stroke-linecap:butt;stroke-linejoin:miter;stroke-opacity:1"
       d="m 28.914365,901.68496 c 0,-0.10322 0.02322,-0.73747 0,-0.78932 -0.03722,-0.0832 -0.139373,-0.11419 -0.176618,-0.19732 -0.02633,-0.0588 0,-0.13153 0,-0.19734 0,-0.0658 0,-0.13152 0,-0.19732 0,-0.19732 0,-0.39465 0,-0.59198 0,-0.13152 0,0.26314 0,0.39466 0,0.0657 0,-0.13152 0,-0.19733 0,-0.2631 0,-0.5262 0,-0.7893 0,-0.0659 0,-0.13153 0,-0.19732 0,-0.0658 0.04164,-0.15093 0,-0.19734 -0.04162,-0.0464 -0.134989,0.0464 -0.176616,0 -0.04164,-0.0466 0,-0.13153 0,-0.19732 0,-0.56606 0.02884,-1.02468 -0.176618,-1.57862 0.787242,-0.21988 0.534829,-0.38909 0.883087,0 0.05887,0.0658 0.102149,0.1557 0.176616,0.19733 0.05265,0.0294 0.13499,-0.0464 0.176618,0 0.04162,0.0466 -0.04162,0.15077 0,0.19733 0.365428,0.40827 -0.01428,-0.6239 0.353235,0.19732 0.02633,0.0588 0,0.13153 0,0.19732 0.05888,0.0658 0.139388,0.11419 0.176618,0.19734 0.02633,0.0589 -0.04164,0.15077 0,0.19732 0.08326,0.093 0.269976,-0.093 0.353234,0 0.04162,0.0464 -0.02633,0.13852 0,0.19734 0.367519,0.82122 -0.01224,-0.21095 0.353235,0.19732 0.08326,0.093 -0.08326,0.30163 0,0.39466 0.04162,0.0464 0.134989,-0.0464 0.176616,0 0.04162,0.0464 -0.04162,0.15077 0,0.19732 0.04162,0.0464 0.13499,-0.0464 0.176618,0 0.04162,0.0464 0,0.13152 0,0.19732 0,0.0658 0,0.13152 0,0.19733"
       id="path5701"
       inkscape:connector-curvature="0" />
    <path
       style="fill:none;fill-rule:evenodd;stroke:#000000;stroke-width:1.50463104px;stroke-linecap:butt;stroke-linejoin:miter;stroke-opacity:1"
       d="m 40.217872,938.38765 c 0,1.57861 0,3.15723 0,4.73584 0,0.32888 0,0.65776 0,0.98663 0,0.0658 0,0.13153 0,0.19733 0,0.0658 -0.02634,0.13852 0,0.19732 0.03724,0.0832 0.139388,0.11419 0.176618,0.19733 0.02633,0.0589 -0.02633,0.13853 0,0.19732 0.03724,0.0832 0.139388,0.11419 0.176616,0.19732 0.02634,0.0589 0,0.13153 0,0.19734 0,0.0658 0,0.13153 0,0.19732 0,0.19732 0,0.39466 0,0.59198 0,0.92086 0,1.84171 0,2.76257 0,2.17059 0,4.34118 0,6.51178 0,0.46042 0,0.92085 0,1.38127 0,0.19734 0,0.39466 0,0.59198 0,0.0658 0.05888,0.19734 0,0.19734 -0.05888,0 0,-0.26312 0,-0.19734 0,1.11819 0,2.23637 0,3.35455 0,0.39466 0,0.78931 0,1.18395 0,0.0659 0.05888,0.19734 0,0.19734 -0.05888,0 0,-0.13152 0,-0.19734"
       id="path5707"
       inkscape:connector-curvature="0" />
    <path
       style="fill:none;fill-rule:evenodd;stroke:#000000;stroke-width:1.50463104px;stroke-linecap:butt;stroke-linejoin:miter;stroke-opacity:1"
       d="m 46.399478,941.54488 c 0,0.92085 0,1.84171 0,2.76257 0,0.52619 -0.05888,-0.0659 0.176616,0.19732 0.04164,0.0464 0.05888,0.19733 0,0.19733 -0.08326,0 -0.235489,-0.26311 -0.176616,-0.19733 0.117751,0.13152 0.214685,0.29145 0.353234,0.39465 0.04898,0.0364 0.13499,-0.0464 0.176618,0 0.04162,0.0464 0,0.13153 0,0.19732 0,0.0659 0,0.13153 0,0.19734 0,0.72352 0,1.44706 0,2.17059 0,1.24974 0,2.49946 0,3.74919 0,0.52622 0,1.05242 0,1.57862 0,0.0658 0,0.13152 0,0.19733 0,0.0657 -0.04162,0.15077 0,0.19732 0.04162,0.0464 0.13499,-0.0464 0.176617,0 0.04841,0.0541 -0.0414,0.84788 0,0.98664 0.04162,0.13948 0.134989,0.25511 0.176618,0.39464 0.01862,0.0623 -0.04164,0.15077 0,0.19734 0.04162,0.0464 0.150287,-0.0589 0.176616,0 0.07899,0.17648 0,0.39464 0,0.59198 0,0.46042 0,0.92085 0,1.38127 0,1.57862 0,3.15723 0,4.73584"
       id="path5709"
       inkscape:connector-curvature="0" />
    <path
       style="fill:none;fill-rule:evenodd;stroke:#000000;stroke-width:1.50463104px;stroke-linecap:butt;stroke-linejoin:miter;stroke-opacity:1"
       d="m 11.605869,965.22403 -0.353234,-0.19732"
       id="path5711"
       inkscape:connector-curvature="0" />
    <path
       style="fill:none;fill-rule:evenodd;stroke:#000000;stroke-width:1.50463104px;stroke-linecap:butt;stroke-linejoin:miter;stroke-opacity:1"
       d="m 34.566119,963.84276 c 0.647596,0 1.295194,0 1.94279,0 0.05888,0 0.117751,0 0.176617,0 0.05888,0 0.134989,0.0464 0.176618,0 0.04162,-0.0464 -0.04162,-0.15077 0,-0.19732 0.05856,-0.0654 0.294677,0.0654 0.353234,0 0.04162,-0.0464 -0.04162,-0.15077 0,-0.19734 0.08326,-0.093 0.269976,0.093 0.353235,0 0.04164,-0.0464 -0.04162,-0.15077 0,-0.19732 0.08326,-0.093 0.269976,0.093 0.353234,0 0.04164,-0.0466 -0.04162,-0.15077 0,-0.19732 0.04164,-0.0464 0.117751,0 0.176618,0 0.353235,0 0.706469,0 1.059704,0 0.05888,0 0.134989,0.0464 0.176617,0 0.04162,-0.0464 -0.02633,-0.13853 0,-0.19734 0.03724,-0.0832 0.139388,-0.11419 0.176617,-0.19732 0.02633,-0.0589 -0.04162,-0.15077 0,-0.19734 0.04162,-0.0464 0.117751,0 0.176618,0 0.489087,0 -0.135858,-0.19732 0.353234,-0.19732 0.05888,0 0.117751,0 0.176617,0 0.05888,0 0.176618,-0.0658 0.176618,0 0,0.0658 -0.235491,0 -0.176618,0 0.117751,0 0.235491,0 0.353234,0"
       id="path5715"
       inkscape:connector-curvature="0" />
    <path
       style="fill:none;fill-rule:evenodd;stroke:#000000;stroke-width:1.50463104px;stroke-linecap:butt;stroke-linejoin:miter;stroke-opacity:1"
       d="m 47.105947,960.48821 c 0.235489,0.19732 0.47098,0.39466 0.706469,0.59198 0,0.0658 -0.04162,0.15077 0,0.19732 0.08326,0.093 0.24792,-0.0589 0.353234,0 0.07446,0.0417 0.10215,0.1557 0.176618,0.19733 0.10531,0.0589 0.269976,-0.093 0.353235,0 0.04162,0.0464 -0.04162,0.15077 0,0.19732 0.08326,0.093 0.269976,-0.093 0.353234,0 0.04162,0.0464 -0.04162,0.15077 0,0.19732 0.04162,0.0466 0.117751,0 0.176618,0 0.294362,0 0.588724,0 0.883086,0 0.05888,0 0.134989,-0.0464 0.176618,0 0.04162,0.0466 -0.04162,0.15077 0,0.19734 0.04251,0.0474 0.663969,-0.0476 0.706469,0 0.04162,0.0464 -0.04162,0.15077 0,0.19732 0.0071,0.008 0.641609,0 0.706469,0 0.117751,0 0.235489,0 0.353234,0 0.05888,0 0.176618,-0.0658 0.176618,0 0,0.0658 -0.235491,0 -0.176618,0 0.176618,0 0.353235,0 0.529853,0"
       id="path5717"
       inkscape:connector-curvature="0" />
    <path
       style="fill:#ffff00;fill-rule:evenodd;stroke:#000000;stroke-width:1.50463104px;stroke-linecap:butt;stroke-linejoin:miter;stroke-opacity:1"
       d="m 46.576094,941.93953 c 0,-0.32888 0,-0.65775 0,-0.98663 0,-0.0658 0.04164,-0.15077 0,-0.19732 -0.04162,-0.0464 -0.117751,0 -0.176616,0"
       id="path5719"
       inkscape:connector-curvature="0" />
    <path
       sodipodi:type="star"
       style="fill:#ff00ff;fill-opacity:1;stroke:#000000;stroke-opacity:0.9888268"
       id="path5723"
       sodipodi:sides="5"
       sodipodi:cx="71.094139"
       sodipodi:cy="815.13354"
       sodipodi:r1="4.5974226"
       sodipodi:r2="2.2987113"
       sodipodi:arg1="1.5167948"
       sodipodi:arg2="2.1451134"
       inkscape:flatsided="false"
       inkscape:rounded="0"
       inkscape:randomized="0"
       d="m 71.342286,819.72427 -1.496948,-2.66081 -3.040552,-0.2753 2.067995,-2.24592 -0.677755,-2.97681 2.77504,1.27275 2.621676,-1.56446 -0.352926,3.03252 2.29804,2.00991 -2.99316,0.60145 z"
       inkscape:transform-center-x="-0.10915714"
       inkscape:transform-center-y="0.58117954"
       transform="matrix(1.4234889,0,0,1.5903985,-38.553443,-476.00073)" />
  </g>
</svg>
