<?xml version="1.0" encoding="UTF-8" standalone="no"?>
<!-- Created with Inkscape (http://www.inkscape.org/) -->

<svg
   xmlns:dc="http://purl.org/dc/elements/1.1/"
   xmlns:cc="http://creativecommons.org/ns#"
   xmlns:rdf="http://www.w3.org/1999/02/22-rdf-syntax-ns#"
   xmlns:svg="http://www.w3.org/2000/svg"
   xmlns="http://www.w3.org/2000/svg"
   xmlns:sodipodi="http://sodipodi.sourceforge.net/DTD/sodipodi-0.dtd"
   xmlns:inkscape="http://www.inkscape.org/namespaces/inkscape"
   width="87"
   height="43"
   viewBox="0 0 87 43"
   id="svg4622"
   version="1.1"
   inkscape:version="0.91 r13725"
   sodipodi:docname="dvagalaza.svg">
  <defs
     id="defs4624" />
  <sodipodi:namedview
     id="base"
     pagecolor="#ffffff"
     bordercolor="#666666"
     borderopacity="1.0"
     inkscape:pageopacity="0.0"
     inkscape:pageshadow="2"
     inkscape:zoom="5.3803028"
     inkscape:cx="79.682509"
     inkscape:cy="24.315506"
     inkscape:document-units="px"
     inkscape:current-layer="layer1"
     showgrid="false"
     units="px"
     inkscape:window-width="1366"
     inkscape:window-height="706"
     inkscape:window-x="-8"
     inkscape:window-y="-8"
     inkscape:window-maximized="1"
     showguides="false" />
  <metadata
     id="metadata4627">
    <rdf:RDF>
      <cc:Work
         rdf:about="">
        <dc:format>image/svg+xml</dc:format>
        <dc:type
           rdf:resource="http://purl.org/dc/dcmitype/StillImage" />
        <dc:title></dc:title>
      </cc:Work>
    </rdf:RDF>
  </metadata>
  <g
     inkscape:label="Layer 1"
     inkscape:groupmode="layer"
     id="layer1"
     transform="translate(0,-1009.3622)">
    <path
       style="fill:#00ff00;fill-rule:evenodd;stroke:none;stroke-width:0.99806201px;stroke-linecap:butt;stroke-linejoin:miter;stroke-opacity:1"
       d="m 60.234887,1035.1884 c -59.60382993,17.3585 -59.60382993,17.3585 -59.60382993,17.3585 l -0.25728,-35.1489 z"
       id="path3701"
       inkscape:connector-curvature="0" />
    <ellipse
       style="fill:#ffd5d5;fill-opacity:1;stroke:none;stroke-opacity:1"
       id="path4506"
       cx="18.525194"
       cy="1026.1968"
       rx="13.861386"
       ry="10.728589" />
    <path
       style="fill:none;fill-rule:evenodd;stroke:#000000;stroke-width:1.16382313px;stroke-linecap:butt;stroke-linejoin:miter;stroke-opacity:1"
       d="m 19.40762,1021.2856 c 0.33003,1.7881 0.9901,3.5211 0.9901,5.3643 0,0.447 -0.66007,0 -0.9901,0 -0.33003,0 -0.9901,0.447 -0.9901,0 0,-0.4471 0.75673,-0.3161 0.9901,0 0.23337,0.316 -0.23337,1.025 0,1.3411 0.49505,0.6705 2.475249,-0.6706 2.970299,0 0.23337,0.316 -0.23337,1.0249 0,1.3411 0.23337,0.316 0.75673,-0.3162 0.9901,0 0.23337,0.316 -0.23337,1.0249 0,1.3411 0.23337,0.316 0.9901,-0.4472 0.9901,0 0,0.4469 -0.66007,0 -0.9901,0 -0.33004,0 -0.66007,0 -0.9901,0 -2.640269,0 0.33003,0.4469 -0.9901,-1.3411 -0.23337,-0.3162 -0.756729,0.316 -0.990099,0 -0.23337,-0.3162 0.23337,-1.0251 0,-1.3411 -0.68702,-0.9307 -2.43556,1.7428 -1.9802,-1.3411 0.26687,-1.8074 -0.37066,-5.3643 0.9901,-5.3643 1.36076,0 0.38155,3.7158 0.9901,5.3643 0.29519,0.7996 1.513459,-0.6322 1.980199,0 0.23337,0.316 -0.23337,1.025 0,1.3411 0.23337,0.316 0.75673,-0.3161 0.9901,0 0.23337,0.316 -0.23337,1.0249 0,1.3411 0.23337,0.316 0.9901,-0.4471 0.9901,0 0,0.447 -0.66007,0 -0.9901,0 -0.33004,0 -0.66007,0 -0.9901,0 -0.33004,0 -0.75673,0.316 -0.9901,0 -0.23337,-0.3162 0.23337,-1.0251 0,-1.3411 -0.23337,-0.3161 -0.660069,0 -0.990099,0 0,-0.4471 0.23337,-1.0251 0,-1.3411 -0.23337,-0.3161 -0.91005,0.4336 -0.9901,0 -0.32018,-1.7348 -1.32013,-5.3643 0,-5.3643 1.32013,0 0,3.5761 0,5.3643 0,0.447 0,0.894 0,1.3411 0,4.9553 0,3.6017 0,6.7052"
       id="path4508"
       inkscape:connector-curvature="0" />
    <path
       style="fill:#00ff00;fill-rule:evenodd;stroke:none;stroke-width:0.99806201px;stroke-linecap:butt;stroke-linejoin:miter;stroke-opacity:1"
       d="m 26.460401,1035.0409 c 59.60385,-17.3585 59.60385,-17.3585 59.60385,-17.3585 l 0.2573,35.149 z"
       id="path3701-6"
       inkscape:connector-curvature="0" />
    <ellipse
       style="fill:#ffd5d5;fill-opacity:1;stroke:none;stroke-opacity:1"
       id="path4506-5"
       cx="65.977448"
       cy="1025.8584"
       rx="13.861386"
       ry="10.728589" />
    <path
       style="fill:none;fill-rule:evenodd;stroke:#000000;stroke-width:1.16382313px;stroke-linecap:butt;stroke-linejoin:miter;stroke-opacity:1"
       d="m 64.795476,1019.2561 c 0.33,1.7881 0.9901,3.5211 0.9901,5.3643 0,0.447 -0.6601,0 -0.9901,0 -0.33,0 -0.9901,0.447 -0.9901,0 0,-0.4471 0.7567,-0.3161 0.9901,0 0.2334,0.316 -0.2334,1.025 0,1.3411 0.495,0.6705 2.4752,-0.6706 2.9703,0 0.2334,0.316 -0.2334,1.0249 0,1.3411 0.2334,0.316 0.7567,-0.3162 0.9901,0 0.2334,0.316 -0.2334,1.0249 0,1.3411 0.2334,0.316 0.9901,-0.4472 0.9901,0 0,0.4469 -0.6601,0 -0.9901,0 -0.3301,0 -0.6601,0 -0.9901,0 -2.6403,0 0.33,0.4469 -0.9901,-1.3411 -0.2334,-0.3162 -0.7567,0.316 -0.9901,0 -0.2334,-0.3162 0.2334,-1.0251 0,-1.3411 -0.687,-0.9307 -2.4356,1.7428 -1.9802,-1.3411 0.2669,-1.8074 -0.3707,-5.3643 0.9901,-5.3643 1.3607,0 0.3815,3.7158 0.9901,5.3643 0.2952,0.7996 1.5134,-0.6322 1.9802,0 0.2334,0.316 -0.2334,1.025 0,1.3411 0.2334,0.316 0.7567,-0.3161 0.9901,0 0.2334,0.316 -0.2334,1.0249 0,1.3411 0.2334,0.316 0.9901,-0.4471 0.9901,0 0,0.447 -0.6601,0 -0.9901,0 -0.3301,0 -0.6601,0 -0.9901,0 -0.3301,0 -0.7567,0.316 -0.9901,0 -0.2334,-0.3162 0.2334,-1.0251 0,-1.3411 -0.2334,-0.3161 -0.6601,0 -0.9901,0 0,-0.4471 0.2334,-1.0251 0,-1.3411 -0.2334,-0.3161 -0.9101,0.4336 -0.9901,0 -0.3202,-1.7348 -1.3201,-5.3643 0,-5.3643 1.3201,0 0,3.5761 0,5.3643 0,0.447 0,0.894 0,1.3411 0,4.9553 0,3.6017 0,6.7052"
       id="path4508-8"
       inkscape:connector-curvature="0"
       inkscape:transform-center-x="5.8180471"
       inkscape:transform-center-y="0.10298584" />
    <path
       style="fill:#ffff00;fill-opacity:1;stroke:#ffff00;stroke-opacity:1"
       id="path4205"
       d="m 25.870584,1016.4029 c 0.353765,-0.5441 0.649311,-1.1258 0.950667,-1.7003 0.232396,-0.4173 0.361941,-0.9458 0.756789,-1.2444 0.377918,-0.1824 0.734997,-0.4164 1.133754,-0.5471 0.07309,-0.024 0.138085,0.068 0.203382,0.109 0.386938,0.2409 0.730508,0.5745 1.07643,0.8688 0.596842,0.5489 1.212864,1.073 1.863972,1.5561 0.458227,0.3539 0.942729,0.6727 1.401208,1.0257 0.1669,0.073 0.532749,0.5868 0.705856,0.3424 -0.293172,0.1626 -0.571222,0.3562 -0.879514,0.4879 -0.04966,0.021 0.05443,-0.094 0.07446,-0.1438 0.03196,-0.08 0.05744,-0.1627 0.08105,-0.2455 0.0934,-0.3279 0.164393,-0.6645 0.241693,-0.9964 0.09892,-0.5409 0.23544,-1.067 0.488696,-1.5559 0.347955,-0.6107 0.972055,-0.8884 1.651684,-1.0997 0.08896,-0.028 0.171506,0.073 0.257259,0.1092 0.11335,0.086 0.232382,0.1654 0.34005,0.2587 0.581038,0.5031 1.10232,1.0889 1.621621,1.6524 0.797207,0.8651 0.759027,0.8287 1.564434,1.726 1.311649,1.4787 2.778875,2.7917 4.31101,4.034 0.609377,0.4553 1.200995,1.078 1.977405,1.2272 0.04866,-0.01 0.100826,-0.01 0.14599,-0.027 0.03873,-0.017 0.135468,-0.1004 0.09722,-0.082 -0.293543,0.1406 -0.560978,0.3377 -0.866321,0.4503 -0.05069,0.019 0.04381,-0.099 0.05697,-0.1517 0.04269,-0.17 0.04723,-0.3547 0.0601,-0.5273 -0.01446,-1.3635 -0.289285,-2.7079 -0.505967,-4.0494 -0.203535,-1.3279 -0.334518,-2.6654 -0.484526,-4.0001 0.01134,-0.4421 -0.265647,-1.0828 0.03509,-1.4854 0.03559,-0.048 0.08727,-0.081 0.130898,-0.1212 0.382796,-0.1855 0.744736,-0.4223 1.148387,-0.5565 0.0995,-0.033 0.571938,0.256 0.596128,0.2707 0.438976,0.2666 0.840606,0.5814 1.243526,0.8983 0.847958,0.7261 1.717219,1.4264 2.613096,2.0925 0.669899,0.4648 1.331624,0.9525 2.06632,1.3115 0.09062,0.027 0.255342,0.1001 0.363692,0.061 0.04244,-0.015 0.141412,-0.1098 0.100269,-0.091 -0.292297,0.1325 -0.554245,0.334 -0.858883,0.4349 -0.06194,0.02 0.05651,-0.1176 0.0821,-0.1777 0.03205,-0.075 0.0605,-0.1518 0.09075,-0.2277 0.195772,-0.4765 0.253455,-0.9861 0.329706,-1.4903 0.13382,-0.6809 0.332317,-1.346 0.460901,-2.0283 0.0642,-0.3723 0.223604,-0.7109 0.383463,-1.0492 0.355399,-0.8694 0.411449,-0.711 1.465051,-1.3217 0.33363,-0.1263 0.637265,-0.018 0.962957,0.079 0.5806,0.1738 0.254306,0.063 0.850864,0.2875 0.874688,0.3205 1.692997,0.7685 2.465253,1.2856 0.497307,0.3201 0.889878,0.7179 1.086213,1.2786 0.101859,0.3759 0.09566,0.7677 0.09405,1.1539 -0.0041,0.3935 -0.0098,0.7871 -0.01262,1.1807 0.01268,0.4059 -0.02988,0.8159 0.019,1.2198 0.01613,0.043 0.03226,0.086 0.0484,0.1282 0,0 -0.972335,0.5409 -0.972335,0.5409 l 0,0 c -0.01954,-0.051 -0.03908,-0.1017 -0.05861,-0.1525 -0.05536,-0.4084 -0.0085,-0.8238 -0.02191,-1.2349 0.0012,-0.3932 0.0033,-0.7863 0.0098,-1.1794 0.0029,-0.3749 0.01322,-0.7551 -0.07512,-1.1222 -0.176803,-0.5417 -0.558316,-0.9189 -1.032083,-1.2274 -0.7646,-0.5133 -1.575724,-0.9584 -2.445917,-1.2673 -0.543666,-0.1944 -1.216315,-0.5132 -1.785518,-0.2736 1.738283,-1.0364 0.793046,-0.5746 0.610461,-0.296 -0.09341,0.1425 -0.114714,0.3132 -0.195925,0.4615 -0.165816,0.3305 -0.325698,0.6651 -0.407215,1.0279 -0.129909,0.681 -0.332462,1.344 -0.46332,2.0245 -0.07324,0.5101 -0.123806,1.0257 -0.314904,1.5101 -0.0076,0.02 -0.15368,0.4153 -0.157786,0.4187 -0.665981,0.5496 -0.870667,0.9147 -1.539116,0.6505 -0.726453,-0.3792 -1.384569,-0.8727 -2.054631,-1.3413 -0.896099,-0.6669 -1.759822,-1.3751 -2.613991,-2.0948 -0.401964,-0.3111 -0.802017,-0.6246 -1.247951,-0.8721 -0.105528,-0.059 -0.212204,-0.1172 -0.325746,-0.1581 -0.0793,-0.029 -0.305594,0.013 -0.248125,-0.049 0.21113,-0.2265 0.515564,-0.3432 0.773346,-0.5148 -0.111157,0.064 -0.198438,0.091 -0.256533,0.2183 -0.180048,0.3935 0.03381,0.8959 0.01176,1.2997 0.130397,1.3387 0.25813,2.6788 0.453452,4.0097 0.218637,1.343 0.497884,2.6838 0.56408,4.0457 -0.0029,0.071 -0.01221,0.6659 -0.07939,0.7213 -0.39845,0.3288 -0.782086,0.76 -1.305323,0.7377 -0.767557,-0.2193 -1.353017,-0.8097 -1.959562,-1.2976 -1.512974,-1.2661 -2.967145,-2.593 -4.278828,-4.0716 -0.729212,-0.8012 -0.849257,-0.9427 -1.582736,-1.712 -0.524457,-0.55 -1.06114,-1.1307 -1.659233,-1.6052 -0.105601,-0.084 -0.224184,-0.1497 -0.336277,-0.2246 -0.543962,-0.1513 -0.271477,-0.012 0.543665,-0.5776 0.04739,-0.033 -0.105637,0.047 -0.154465,0.078 -0.164421,0.1034 -0.281894,0.2523 -0.376189,0.4197 -0.262683,0.4817 -0.423216,0.993 -0.513991,1.5362 -0.07679,0.3326 -0.148856,0.6672 -0.229881,0.9987 -0.0055,0.022 -0.114894,0.4207 -0.122214,0.4264 -0.31992,0.2457 -0.680879,0.4328 -1.021318,0.6493 -0.316466,0.031 -0.518448,-0.3137 -0.767362,-0.4573 -0.456053,-0.3538 -0.937125,-0.6746 -1.392765,-1.0292 -0.646315,-0.491 -1.255834,-1.0244 -1.860687,-1.5653 -0.281404,-0.2342 -0.560736,-0.4812 -0.859066,-0.6941 -0.07,-0.05 -0.141328,-0.099 -0.218104,-0.1379 -0.05458,-0.028 -0.218378,-0.018 -0.173412,-0.06 0.232334,-0.2141 0.530842,-0.3428 0.796264,-0.5142 -0.451233,0.2009 -0.57084,0.804 -0.801971,1.1973 -0.29954,0.5717 -0.599097,1.1442 -0.917983,1.7053 0,0 -1.025318,0.4418 -1.025318,0.4418 z"
       inkscape:connector-curvature="0" />
    <path
       style="fill:#0000ff;fill-opacity:1;stroke:#3539ff;stroke-opacity:1"
       id="path4207"
       sodipodi:type="arc"
       sodipodi:cx="82.330826"
       sodipodi:cy="1027.6442"
       sodipodi:rx="0.56390977"
       sodipodi:ry="0.65789473"
       sodipodi:start="0"
       sodipodi:end="0.094951706"
       d="m 82.894736,1027.6442 a 0.56390977,0.65789473 0 0 1 -0.0025,0.062 l -0.561369,-0.062 z" />
    <path
       style="fill:#0000ff;fill-opacity:1;stroke:#3539ff;stroke-opacity:1"
       id="path4209"
       sodipodi:type="arc"
       sodipodi:cx="83.08271"
       sodipodi:cy="1033.1892"
       sodipodi:rx="0.75187969"
       sodipodi:ry="0.75187969"
       sodipodi:start="0"
       sodipodi:end="0.094951671"
       d="m 83.83459,1033.1892 a 0.75187969,0.75187969 0 0 1 -0.0034,0.071 l -0.748493,-0.071 z" />
    <path
       style="fill:#0000ff;fill-opacity:1;stroke:#3539ff;stroke-opacity:1"
       id="path4211"
       sodipodi:type="arc"
       sodipodi:cx="83.552635"
       sodipodi:cy="1037.5126"
       sodipodi:rx="0.65789473"
       sodipodi:ry="0.37593985"
       sodipodi:start="0"
       sodipodi:end="0.094951671"
       d="m 84.21053,1037.5126 a 0.65789473,0.37593985 0 0 1 -0.003,0.036 l -0.654931,-0.036 z" />
    <path
       style="fill:#0000ff;fill-opacity:1;stroke:#3539ff;stroke-opacity:1"
       id="path4213"
       sodipodi:type="arc"
       sodipodi:cx="83.646614"
       sodipodi:cy="1041.6478"
       sodipodi:rx="1.1278195"
       sodipodi:ry="0.37593985"
       sodipodi:start="0"
       sodipodi:end="0.094951671"
       d="m 84.774434,1041.6478 a 1.1278195,0.37593985 0 0 1 -0.0051,0.036 l -1.122739,-0.036 z" />
    <path
       style="fill:#0000ff;fill-opacity:1;stroke:#3539ff;stroke-opacity:1"
       id="path4215"
       sodipodi:type="arc"
       sodipodi:cx="84.398499"
       sodipodi:cy="1045.8772"
       sodipodi:rx="0.56390977"
       sodipodi:ry="0.65789473"
       sodipodi:start="0"
       sodipodi:end="0.094951671"
       d="m 84.962408,1045.8772 a 0.56390977,0.65789473 0 0 1 -0.0025,0.062 l -0.561369,-0.062 z" />
    <path
       style="fill:#0000ff;fill-opacity:1;stroke:#3539ff;stroke-opacity:1"
       id="path4217"
       sodipodi:type="arc"
       sodipodi:cx="3.1015038"
       sodipodi:cy="1029.3358"
       sodipodi:rx="0.65789473"
       sodipodi:ry="0.65789473"
       sodipodi:start="0"
       sodipodi:end="0.094951671"
       d="m 3.7593986,1029.3358 a 0.65789473,0.65789473 0 0 1 -0.00296,0.062 l -0.6549313,-0.062 z" />
    <path
       style="fill:#0000ff;fill-opacity:1;stroke:#3539ff;stroke-opacity:1"
       id="path4219"
       sodipodi:type="arc"
       sodipodi:cx="3.7593985"
       sodipodi:cy="1034.129"
       sodipodi:rx="0.56390977"
       sodipodi:ry="0.18796992"
       sodipodi:start="0"
       sodipodi:end="0.094951671"
       d="m 4.3233082,1034.129 a 0.56390977,0.18796992 0 0 1 -0.00254,0.018 l -0.5613696,-0.018 z" />
    <path
       style="fill:#0000ff;fill-opacity:1;stroke:#3539ff;stroke-opacity:1"
       id="path4221"
       sodipodi:type="arc"
       sodipodi:cx="4.7932329"
       sodipodi:cy="1038.6404"
       sodipodi:rx="0.84586465"
       sodipodi:ry="0.18796992"
       sodipodi:start="0"
       sodipodi:end="0.094951671"
       d="m 5.6390976,1038.6404 a 0.84586465,0.18796992 0 0 1 -0.00381,0.018 l -0.8420545,-0.018 z" />
    <path
       style="fill:#0000ff;fill-opacity:1;stroke:#3539ff;stroke-opacity:1"
       id="path4223"
       sodipodi:type="arc"
       sodipodi:cx="4.7932329"
       sodipodi:cy="1042.2118"
       sodipodi:rx="0.65789473"
       sodipodi:ry="0.18796992"
       sodipodi:start="0"
       sodipodi:end="0.094951671"
       d="m 5.4511276,1042.2118 a 0.65789473,0.18796992 0 0 1 -0.00296,0.018 l -0.6549312,-0.018 z" />
    <path
       style="fill:#0000ff;fill-opacity:1;stroke:#3539ff;stroke-opacity:1"
       id="path4225"
       sodipodi:type="arc"
       sodipodi:cx="5.5451126"
       sodipodi:cy="1046.3472"
       sodipodi:rx="0.093984962"
       sodipodi:ry="0.75187969"
       sodipodi:start="0"
       sodipodi:end="0.094951671"
       d="m 5.6390976,1046.3472 a 0.09398496,0.75187969 0 0 1 -4.234e-4,0.071 l -0.093562,-0.071 z" />
    <rect
       style="fill:#ff0000;fill-opacity:1;stroke:none;stroke-opacity:1"
       id="rect4231"
       width="6.5052099"
       height="6.6910734"
       x="39.774712"
       y="1032.103" />
  </g>
</svg>
