<?xml version="1.0" encoding="UTF-8" standalone="no"?>
<!-- Created with Inkscape (http://www.inkscape.org/) -->

<svg
   xmlns:dc="http://purl.org/dc/elements/1.1/"
   xmlns:cc="http://creativecommons.org/ns#"
   xmlns:rdf="http://www.w3.org/1999/02/22-rdf-syntax-ns#"
   xmlns:svg="http://www.w3.org/2000/svg"
   xmlns="http://www.w3.org/2000/svg"
   xmlns:sodipodi="http://sodipodi.sourceforge.net/DTD/sodipodi-0.dtd"
   xmlns:inkscape="http://www.inkscape.org/namespaces/inkscape"
   width="200"
   height="400"
   viewBox="0 0 200 400.00001"
   id="svg4250"
   version="1.1"
   inkscape:version="0.91 r13725"
   sodipodi:docname="gigant_ rooboti2.svg">
  <defs
     id="defs4252">
    <inkscape:perspective
       sodipodi:type="inkscape:persp3d"
       inkscape:vp_x="0 : 200 : 1"
       inkscape:vp_y="0 : 1000 : 0"
       inkscape:vp_z="200 : 200 : 1"
       inkscape:persp3d-origin="100 : 133.33334 : 1"
       id="perspective4320" />
  </defs>
  <sodipodi:namedview
     id="base"
     pagecolor="#ffffff"
     bordercolor="#666666"
     borderopacity="1.0"
     inkscape:pageopacity="0.0"
     inkscape:pageshadow="2"
     inkscape:zoom="2.0344588"
     inkscape:cx="42.040942"
     inkscape:cy="232.03603"
     inkscape:document-units="px"
     inkscape:current-layer="layer1"
     showgrid="false"
     units="px"
     inkscape:window-width="1366"
     inkscape:window-height="706"
     inkscape:window-x="-8"
     inkscape:window-y="-8"
     inkscape:window-maximized="1" />
  <metadata
     id="metadata4255">
    <rdf:RDF>
      <cc:Work
         rdf:about="">
        <dc:format>image/svg+xml</dc:format>
        <dc:type
           rdf:resource="http://purl.org/dc/dcmitype/StillImage" />
        <dc:title />
      </cc:Work>
    </rdf:RDF>
  </metadata>
  <g
     inkscape:label="Layer 1"
     inkscape:groupmode="layer"
     id="layer1"
     transform="translate(0,-652.36216)">
    <rect
       style="fill:#00ff00;fill-opacity:1;stroke:#fff800;stroke-opacity:1"
       id="rect4338"
       width="121.94095"
       height="81.293961"
       x="33.256622"
       y="736.42426" />
    <rect
       style="fill:#00ff00;fill-opacity:1;stroke:#fff800;stroke-opacity:1"
       id="rect4342"
       width="18.475901"
       height="30.485237"
       x="85.912941"
       y="817.7182" />
    <rect
       style="fill:#00ff00;fill-opacity:1;stroke:#fff800;stroke-opacity:1"
       id="rect4344"
       width="82.217758"
       height="125.63612"
       x="56.351498"
       y="848.20349" />
    <ellipse
       style="fill:#f4e3d7;fill-opacity:1;stroke:#fff800;stroke-opacity:1"
       id="path4350"
       cx="57.275291"
       cy="767.3714"
       rx="6.4665651"
       ry="6.928463" />
    <ellipse
       style="fill:#f4e3d7;fill-opacity:1;stroke:#fff800;stroke-opacity:1"
       id="path4352"
       cx="123.78854"
       cy="765.98566"
       rx="6.4665651"
       ry="7.3903604" />
    <path
       style="fill:none;fill-rule:evenodd;stroke:#000000;stroke-width:0.37076023px;stroke-linecap:butt;stroke-linejoin:miter;stroke-opacity:1"
       d="m 64.34091,792.66123 c 0.311665,0.16729 0.457747,0.34176 0.934994,0.50187 0.327389,0.10983 1.475761,0.14513 1.86999,0.25093 0.283331,0.076 0.543191,0.32383 0.934994,0.3764 0.440761,0.0591 1.429229,-0.0591 1.869989,0 0.220381,0.0296 -0.220379,0.0959 0,0.12547 0.311771,0.0418 1.558219,-0.0418 1.86999,0 0.22038,0.0296 -0.22038,0.0959 0,0.12547 0.22038,0.0296 0.714614,-0.0296 0.934994,0 0.220381,0.0296 -0.22038,0.0959 0,0.12546 0.623331,0.0837 3.116649,-0.0836 3.739979,0 0.22038,0.0296 -0.22038,0.0959 0,0.12547 0.321154,0.0431 1.548835,-0.0431 1.869989,0 0.220381,0.0296 -0.22038,0.0959 0,0.12546 0.440761,0.0591 1.429228,-0.0591 1.86999,0 0.22038,0.0296 -0.220381,0.0959 0,0.12547 0.254012,0.0341 5.922398,0 4.674973,0 -0.62333,0 -2.49332,0 -1.869989,0 6.624464,0 14.117388,0.11926 19.634887,-0.25093 3.89122,-0.26108 -0.99954,0.009 0.93499,-0.25093 0.32116,-0.0431 1.54884,0.0431 1.86999,0 0.22039,-0.0296 -0.22038,-0.0959 0,-0.12547 0.22039,-0.0296 0.71462,0.0296 0.935,0 0.22038,-0.0296 -0.22038,-0.0959 0,-0.12547 0.22038,-0.0296 0.71461,0.0296 0.93499,0 0.44077,-0.0591 -0.62333,-0.25093 0,-0.25093 0.31167,0 -0.22038,0.15504 0,0.12546 0.49279,-0.0661 0.44222,-0.1848 0.935,-0.25093 0.22038,-0.0296 0.71461,0.0296 0.93499,0 0.22039,-0.0296 -0.22038,-0.0959 0,-0.12546 0.22039,-0.0296 0.71462,0.0296 0.935,0 0.22038,-0.0296 -0.22038,-0.0959 0,-0.12547 0.31166,-0.0418 2.49331,-0.0837 2.80499,-0.12547 0.22038,-0.0296 -0.22039,-0.0959 0,-0.12547 0.22038,-0.0296 0.71461,0.0296 0.93499,0 0.44076,-0.0591 -0.44076,-0.19178 0,-0.25093 0.22038,-0.0296 0.71461,0.0296 0.935,0 0.22038,-0.0296 -0.22039,-0.0959 0,-0.12546 0.22038,-0.0296 0.93499,-0.0418 0.93499,0 0,0.0418 -0.93499,0.0418 -0.93499,0 0,-0.0591 0.54075,-0.099 0.93499,-0.12547 2.49331,0 -0.31167,0.0418 0.93499,-0.12547 0.0825,-0.0111 3.61165,0 0.93499,0 -9.98127,-0.22015 -20.656992,-0.12547 -30.854819,-0.12547 -2.265655,0 -10.543791,-0.10809 -12.154931,0 -0.394228,0.0265 -0.540766,0.099 -0.934994,0.12547 -1.456396,0.0977 -4.222055,-0.11174 -5.609968,0 -1.336252,0.10759 -2.493319,0.25094 -3.739978,0.3764 z"
       id="path4354"
       inkscape:connector-curvature="0" />
    <ellipse
       style="fill:#241f1c;fill-opacity:1;stroke:#fff800;stroke-opacity:1"
       id="path4374"
       cx="83.867279"
       cy="780.50861"
       rx="1.94508"
       ry="2.0594966" />
    <ellipse
       style="fill:#241f1c;fill-opacity:1;stroke:#fff800;stroke-opacity:1"
       id="path4376"
       cx="96.910751"
       cy="780.39423"
       rx="1.94508"
       ry="2.173913" />
    <path
       style="fill:none;fill-rule:evenodd;stroke:#000000;stroke-width:1px;stroke-linecap:butt;stroke-linejoin:miter;stroke-opacity:1"
       d="M 56.064073,875.01662 C 27.91762,891.95026 27.91762,892.17909 27.91762,892.17909 l -6.864988,40.50344 9.839817,0.45766 6.178489,-33.18078 19.679634,-8.23798 z"
       id="path4378"
       inkscape:connector-curvature="0" />
    <path
       style="fill:none;fill-rule:evenodd;stroke:#000000;stroke-width:1px;stroke-linecap:butt;stroke-linejoin:miter;stroke-opacity:1"
       d="m 21.281465,932.45369 c -7.551488,5.49199 -7.780321,5.49199 -7.780321,5.49199 l 3.203661,6.40733 4.805492,0.22883 5.720824,-2.97483 1.601831,3.4325 1.601831,-3.66133 0.686498,-8.46682 z"
       id="path4380"
       inkscape:connector-curvature="0" />
    <path
       style="fill:none;fill-rule:evenodd;stroke:#000000;stroke-width:1px;stroke-linecap:butt;stroke-linejoin:miter;stroke-opacity:1"
       d="m 138.67277,864.26147 c 30.89245,24.2563 31.12128,24.2563 31.12128,24.2563 l 5.94966,22.42563 c 0,0 0,0 0,0 l 0,0 2.05949,8.92448 -10.52631,1.60183 -5.26316,-24.71396 -24.48513,-23.11213 z"
       id="path4382"
       inkscape:connector-curvature="0" />
    <path
       style="fill:#00ff00;fill-rule:evenodd;stroke:#000000;stroke-width:1px;stroke-linecap:butt;stroke-linejoin:miter;stroke-opacity:1"
       d="m 177.57437,919.41021 c 1.60183,3.66133 1.60183,3.89017 1.60183,3.89017 l 2.746,1.37299 0,4.34783 -7.32266,1.14416 -4.34782,-3.89016 -0.22884,3.89016 -2.74599,-8.23798 z"
       id="path4384"
       inkscape:connector-curvature="0" />
    <path
       style="fill:#00ff00;fill-opacity:1;stroke:#fff800;stroke-width:0.22883295;stroke-opacity:1"
       d="m 26.132612,279.70943 c -2.264825,-0.10426 -4.159345,-0.23104 -4.210043,-0.28174 -0.08436,-0.0844 6.288707,-38.2149 6.518783,-39.00238 0.112472,-0.38495 1.276378,-1.11417 16.325923,-10.22862 l 10.654826,-6.45289 0.146012,2.10506 c 0.08031,1.15778 0.157537,4.60786 0.171624,7.66685 l 0.02561,5.56179 -1.201373,0.51959 c -0.660756,0.28577 -4.981472,2.09697 -9.601591,4.02488 l -8.400218,3.5053 -0.235174,1.16847 c -0.129345,0.64266 -1.474065,7.86184 -2.988265,16.04262 -1.514201,8.18078 -2.828504,15.0286 -2.920673,15.21739 -0.144915,0.29682 -0.724538,0.31761 -4.285445,0.15368 z"
       id="path4386"
       inkscape:connector-curvature="0"
       transform="translate(0,652.36216)" />
    <path
       style="fill:#00ff00;fill-opacity:1;stroke:#fff800;stroke-width:0.22883295;stroke-opacity:1"
       d="m 18.862948,291.51375 -1.776545,-0.0781 -1.386365,-2.76562 c -0.762501,-1.5211 -1.301728,-2.84146 -1.198284,-2.93413 0.103445,-0.0927 1.166343,-0.8687 2.361995,-1.72448 1.195652,-0.85578 2.667073,-1.91204 3.269824,-2.34724 l 1.09591,-0.79128 4.487209,0.25251 c 2.467965,0.13888 4.534879,0.30019 4.593143,0.35845 0.05826,0.0583 -0.02144,1.73274 -0.177127,3.72106 -0.218235,2.78717 -0.398997,3.87755 -0.789273,4.76098 l -0.506211,1.14586 -0.636692,-1.25858 c -0.350181,-0.69222 -0.669998,-1.29569 -0.710705,-1.34105 -0.04071,-0.0454 -1.461317,0.64972 -3.15691,1.54462 -1.695593,0.8949 -3.220265,1.60637 -3.38816,1.58104 -0.167896,-0.0253 -1.10471,-0.0812 -2.081809,-0.12409 z"
       id="path4388"
       inkscape:connector-curvature="0"
       transform="translate(0,652.36216)" />
    <path
       style="fill:#00ff00;fill-opacity:1;stroke:#fff800;stroke-width:0.22883295;stroke-opacity:1"
       d="m 165.26029,256.72966 c -1.36307,-6.3873 -2.52484,-11.8471 -2.58172,-12.13289 -0.0632,-0.31757 -4.67528,-4.83785 -11.86071,-11.62462 l -11.75731,-11.105 0,-4.456 0,-4.45601 3.18321,2.51125 c 3.24956,2.5636 21.40983,16.74869 25.00519,19.5317 1.09286,0.84594 2.04246,1.71805 2.11023,1.93803 1.32022,4.28583 7.4588,28.43384 7.4588,29.34152 0,0.30429 -0.57857,0.51058 -2.8032,0.99947 -2.53628,0.55738 -5.38096,1.05961 -6.0271,1.0641 -0.14401,9.1e-4 -1.29444,-4.89683 -2.72739,-11.61155 z"
       id="path4390"
       inkscape:connector-curvature="0"
       transform="translate(0,652.36216)" />
    <path
       style="fill:none;fill-rule:evenodd;stroke:#000000;stroke-width:1px;stroke-linecap:butt;stroke-linejoin:miter;stroke-opacity:1"
       d="m 67.963387,975.01662 c 0,54.69108 0,54.69108 0,54.69108 l -17.391305,0.6865 -6.636155,11.4416 35.926773,-0.9153 0.686499,-67.27688 -12.814645,0 z"
       id="path4392"
       inkscape:connector-curvature="0" />
    <path
       style="fill:#00ff00;fill-rule:evenodd;stroke:#000000;stroke-width:1px;stroke-linecap:butt;stroke-linejoin:miter;stroke-opacity:1"
       d="m 106.86499,973.87246 c -0.91533,67.96334 -0.91533,67.96334 -0.91533,67.96334 l 25.62929,-0.4576 0,0 -5.26316,-10.0687 -8.23799,0.4577 -0.22883,-57.66591 z"
       id="path4394"
       inkscape:connector-curvature="0" />
    <path
       style="fill:#00ff00;fill-opacity:1;stroke:#fff800;stroke-width:0.22883295;stroke-opacity:1"
       d="m 45.297328,388.31481 c 0.189233,-0.30265 1.50429,-2.55828 2.922348,-5.01251 1.418059,-2.45424 2.620277,-4.51071 2.671595,-4.56995 0.114713,-0.13242 11.843648,-0.65342 15.228771,-0.67647 l 2.459954,-0.0167 0,-28.03204 0,-28.03203 5.692741,0 5.692744,0 -0.09108,6.00686 c -0.142163,9.37563 -0.542325,50.34569 -0.540707,55.35936 l 0.0014,4.50124 -1.430206,0.12179 c -0.786613,0.067 -6.372998,0.23121 -12.414188,0.36492 -6.04119,0.13371 -13.133519,0.30898 -15.760732,0.38947 l -4.776751,0.14637 0.34406,-0.55027 7.8e-5,0 z"
       id="path4396"
       inkscape:connector-curvature="0"
       transform="translate(0,652.36216)" />
    <path
       style="fill:none;fill-rule:evenodd;stroke:#000000;stroke-width:1px;stroke-linecap:butt;stroke-linejoin:miter;stroke-opacity:1"
       d="M 98.039216,735.69549 77.45098,702.36216 53.921569,687.65628 77.45098,701.38177 Z"
       id="path4398"
       inkscape:connector-curvature="0" />
    <path
       style="fill:#00ff00;fill-rule:evenodd;stroke:#000000;stroke-width:1px;stroke-linecap:butt;stroke-linejoin:miter;stroke-opacity:1"
       d="m 52.941176,665.10726 c 1.960785,24.5098 1.960785,24.5098 1.960785,24.5098 l -23.529412,13.72549 z"
       id="path4402"
       inkscape:connector-curvature="0" />
    <ellipse
       style="fill:#ff0000;fill-opacity:1;stroke:#fff800;stroke-opacity:1"
       id="path4406"
       cx="123.83863"
       cy="767.3988"
       rx="2.0782397"
       ry="2.3227384" />
    <ellipse
       style="fill:#ff0000;fill-opacity:1;stroke:#fff800;stroke-opacity:1"
       id="path4408"
       cx="57.946209"
       cy="768.25458"
       rx="2.200489"
       ry="1.9559902" />
    <ellipse
       style="fill:#ffd5d5;fill-opacity:1;stroke:#000000;stroke-opacity:1"
       id="path4506"
       cx="95.288475"
       cy="864.763"
       rx="13.861386"
       ry="10.728589" />
    <path
       style="fill:none;fill-rule:evenodd;stroke:#000000;stroke-width:1.16382313px;stroke-linecap:butt;stroke-linejoin:miter;stroke-opacity:1"
       d="m 93.474625,858.7969 c 0.33003,1.7881 0.9901,3.5211 0.9901,5.3643 0,0.447 -0.66007,0 -0.9901,0 -0.33003,0 -0.9901,0.447 -0.9901,0 0,-0.4471 0.75673,-0.3161 0.9901,0 0.23337,0.316 -0.23337,1.025 0,1.3411 0.49505,0.6705 2.475249,-0.6706 2.970299,0 0.23337,0.316 -0.23337,1.0249 0,1.3411 0.23337,0.316 0.75673,-0.3162 0.9901,0 0.23337,0.316 -0.23337,1.0249 0,1.3411 0.23337,0.316 0.9901,-0.4472 0.9901,0 0,0.4469 -0.66007,0 -0.9901,0 -0.33004,0 -0.66007,0 -0.9901,0 -2.640269,0 0.33003,0.4469 -0.9901,-1.3411 -0.23337,-0.3162 -0.756729,0.316 -0.990099,0 -0.23337,-0.3162 0.23337,-1.0251 0,-1.3411 -0.68702,-0.9307 -2.43556,1.7428 -1.9802,-1.3411 0.26687,-1.8074 -0.37066,-5.3643 0.9901,-5.3643 1.36076,0 0.38155,3.7158 0.9901,5.3643 0.29519,0.7996 1.513459,-0.6322 1.980199,0 0.23337,0.316 -0.23337,1.025 0,1.3411 0.23337,0.316 0.75673,-0.3161 0.9901,0 0.23337,0.316 -0.23337,1.0249 0,1.3411 0.23337,0.316 0.9901,-0.4471 0.9901,0 0,0.447 -0.66007,0 -0.9901,0 -0.33004,0 -0.66007,0 -0.9901,0 -0.33004,0 -0.75673,0.316 -0.9901,0 -0.23337,-0.3162 0.23337,-1.0251 0,-1.3411 -0.23337,-0.3161 -0.660069,0 -0.990099,0 0,-0.4471 0.23337,-1.0251 0,-1.3411 -0.23337,-0.3161 -0.91005,0.4336 -0.9901,0 -0.32018,-1.7348 -1.32013,-5.3643 0,-5.3643 1.32013,0 0,3.5761 0,5.3643 0,0.447 0,0.894 0,1.3411 0,4.9553 0,3.6017 0,6.7052"
       id="path4508"
       inkscape:connector-curvature="0" />
  </g>
</svg>
