<?xml version="1.0" encoding="UTF-8" standalone="no"?>
<!-- Created with Inkscape (http://www.inkscape.org/) -->

<svg
   xmlns:dc="http://purl.org/dc/elements/1.1/"
   xmlns:cc="http://creativecommons.org/ns#"
   xmlns:rdf="http://www.w3.org/1999/02/22-rdf-syntax-ns#"
   xmlns:svg="http://www.w3.org/2000/svg"
   xmlns="http://www.w3.org/2000/svg"
   xmlns:sodipodi="http://sodipodi.sourceforge.net/DTD/sodipodi-0.dtd"
   xmlns:inkscape="http://www.inkscape.org/namespaces/inkscape"
   width="200"
   height="400"
   viewBox="0 0 200 400.00001"
   id="svg4250"
   version="1.1"
   inkscape:version="0.91 r13725"
   sodipodi:docname="gigant_ rooboti.svg">
  <defs
     id="defs4252">
    <inkscape:perspective
       sodipodi:type="inkscape:persp3d"
       inkscape:vp_x="0 : 200 : 1"
       inkscape:vp_y="0 : 1000 : 0"
       inkscape:vp_z="200 : 200 : 1"
       inkscape:persp3d-origin="100 : 133.33334 : 1"
       id="perspective4320" />
  </defs>
  <sodipodi:namedview
     id="base"
     pagecolor="#ffffff"
     bordercolor="#666666"
     borderopacity="1.0"
     inkscape:pageopacity="0.0"
     inkscape:pageshadow="2"
     inkscape:zoom="1.0074671"
     inkscape:cx="-20.821755"
     inkscape:cy="233.02862"
     inkscape:document-units="px"
     inkscape:current-layer="layer1"
     showgrid="false"
     units="px"
     inkscape:window-width="1366"
     inkscape:window-height="706"
     inkscape:window-x="-8"
     inkscape:window-y="-8"
     inkscape:window-maximized="1" />
  <metadata
     id="metadata4255">
    <rdf:RDF>
      <cc:Work
         rdf:about="">
        <dc:format>image/svg+xml</dc:format>
        <dc:type
           rdf:resource="http://purl.org/dc/dcmitype/StillImage" />
        <dc:title></dc:title>
      </cc:Work>
    </rdf:RDF>
  </metadata>
  <g
     inkscape:label="Layer 1"
     inkscape:groupmode="layer"
     id="layer1"
     transform="translate(0,-652.36216)">
    <rect
       style="fill:#00ff00;fill-opacity:1;stroke:#fff800;stroke-opacity:1"
       id="rect4338"
       width="121.94095"
       height="81.293961"
       x="33.256622"
       y="736.42426" />
    <rect
       style="fill:#00ff00;fill-opacity:1;stroke:#fff800;stroke-opacity:1"
       id="rect4342"
       width="18.475901"
       height="30.485237"
       x="85.912941"
       y="817.7182" />
    <rect
       style="fill:#00ff00;fill-opacity:1;stroke:#fff800;stroke-opacity:1"
       id="rect4344"
       width="82.217758"
       height="125.63612"
       x="56.351498"
       y="848.20349" />
    <ellipse
       style="fill:#f4e3d7;fill-opacity:1;stroke:#fff800;stroke-opacity:1"
       id="path4350"
       cx="57.275291"
       cy="767.3714"
       rx="6.4665651"
       ry="6.928463" />
    <ellipse
       style="fill:#f4e3d7;fill-opacity:1;stroke:#fff800;stroke-opacity:1"
       id="path4352"
       cx="123.78854"
       cy="765.98566"
       rx="6.4665651"
       ry="7.3903604" />
    <path
       style="fill:none;fill-rule:evenodd;stroke:#000000;stroke-width:1px;stroke-linecap:butt;stroke-linejoin:miter;stroke-opacity:1"
       d="m 64.665653,796.47093 c 0.307932,1.23173 0.452264,2.51636 0.923795,3.69518 0.323467,0.80867 1.458084,1.06858 1.84759,1.84759 0.279938,0.55988 0.536685,2.38428 0.923795,2.77139 0.435481,0.43548 1.412109,-0.43548 1.84759,0 0.217741,0.21774 -0.21774,0.70605 0,0.92379 0.308036,0.30804 1.539554,-0.30803 1.84759,0 0.217741,0.21774 -0.21774,0.70606 0,0.9238 0.217741,0.21774 0.706055,-0.21774 0.923795,0 0.217741,0.21774 -0.21774,0.70605 0,0.92379 0.615864,0.61587 3.079317,-0.61586 3.69518,0 0.217741,0.21774 -0.21774,0.70606 0,0.9238 0.317308,0.31731 1.530283,-0.31731 1.84759,0 0.217741,0.21774 -0.21774,0.70605 0,0.92379 0.435482,0.43549 1.412109,-0.43548 1.847591,0 0.21774,0.21774 -0.217741,0.70606 0,0.9238 0.250969,0.25097 5.851458,0 4.618975,0 -0.615864,0 -2.463454,0 -1.84759,0 6.545115,0 13.948286,0.87811 19.399696,-1.84759 3.84461,-1.92231 -0.98757,0.0638 0.92379,-1.84759 0.31731,-0.31731 1.53029,0.31731 1.84759,0 0.21775,-0.21774 -0.21774,-0.70606 0,-0.9238 0.21775,-0.21774 0.70606,0.21774 0.9238,0 0.21774,-0.21774 -0.21774,-0.70605 0,-0.92379 0.21774,-0.21774 0.70605,0.21774 0.92379,0 0.43549,-0.43548 -0.61586,-1.84759 0,-1.84759 0.30794,0 -0.21774,1.14153 0,0.92379 0.48689,-0.48688 0.43692,-1.3607 0.9238,-1.84759 0.21774,-0.21774 0.70605,0.21774 0.92379,0 0.21775,-0.21774 -0.21774,-0.70605 0,-0.92379 0.21775,-0.21774 0.70606,0.21774 0.9238,0 0.21774,-0.21774 -0.21774,-0.70606 0,-0.9238 0.30793,-0.30793 2.46345,-0.61586 2.77139,-0.92379 0.21774,-0.21774 -0.21775,-0.70606 0,-0.9238 0.21774,-0.21774 0.70605,0.21774 0.92379,0 0.43548,-0.43548 -0.43548,-1.41211 0,-1.84759 0.21774,-0.21774 0.70605,0.21774 0.9238,0 0.21774,-0.21774 -0.21775,-0.70605 0,-0.92379 0.21774,-0.21774 0.92379,-0.30793 0.92379,0 0,0.30793 -0.92379,0.30793 -0.92379,0 0,-0.43548 0.53428,-0.72904 0.92379,-0.9238 2.46345,0 -0.30793,0.30794 0.9238,-0.92379 0.0815,-0.0815 3.56838,0 0.92379,0 -9.86172,-1.62094 -20.409562,-0.9238 -30.485236,-0.9238 -2.238517,0 -10.417495,-0.79592 -12.009336,0 -0.389506,0.19476 -0.534289,0.72905 -0.923795,0.9238 -1.438951,0.71947 -4.171482,-0.82277 -5.54277,0 -1.320246,0.79215 -2.463453,1.84759 -3.69518,2.77138 z"
       id="path4354"
       inkscape:connector-curvature="0" />
    <path
       style="fill:none;fill-rule:evenodd;stroke:#000000;stroke-width:1px;stroke-linecap:butt;stroke-linejoin:miter;stroke-opacity:1"
       d="m 86.727689,797.44225 c 0,0.45767 0,0.91533 0,1.373 0,0.0942 -0.06057,0.62592 0,0.6865 0.05394,0.0539 0.174896,-0.0539 0.228833,0 0.185252,0.18525 0,1.53961 0,1.83066 0,0.22883 0.228833,0.6865 0,0.6865 -0.07628,0 0,-0.30511 0,-0.22883 0,0.14427 0,2.00432 0,1.373 0.554821,0.90498 1.630167,-0.10025 2.288329,0.22883 0.09649,0.0482 0.132349,0.18059 0.228833,0.22883 0.06822,0.0341 0.174897,-0.0539 0.228833,0 0.05394,0.0539 -0.05394,0.1749 0,0.22883 0.107873,0.10788 0.349793,-0.10787 0.457666,0 0.382312,0.38232 -1.044373,0.22884 -1.144165,0.22884 -0.228833,0 -0.686499,0.22883 -0.686499,0 0,-0.0763 0.160609,-0.0341 0.228833,0 0.09649,0.0482 0.124181,0.20267 0.228833,0.22883 1.62305,0 0.134048,-0.16181 0.915332,0.22883 0.204675,0.10234 0.469409,-0.0724 0.686499,0 0.102337,0.0341 0.132349,0.18059 0.228833,0.22884 0.13645,0.0682 0.349793,-0.10788 0.457666,0 0.30511,0.30511 -0.381388,0.22883 0.228833,0.22883 0.07628,0 0.228833,-0.0763 0.228833,0 0,0.0763 -0.152556,0 -0.228833,0 -0.228833,0 -0.457666,0 -0.686499,0 -0.228833,0 -0.457666,0 -0.686499,0 -0.07628,0 -0.228833,0.0763 -0.228833,0 0,-0.0763 0.152555,0 0.228833,0 0.228833,0 0.457666,0 0.686499,0 0.536654,0 -0.107873,-0.0539 0.457666,0.22883 0.190524,0.0953 0.77018,-0.14515 0.915332,0 0.05394,0.0539 -0.05394,0.1749 0,0.22883 0.05394,0.0539 0.160608,-0.0341 0.228833,0 0.09648,0.0482 0.132348,0.1806 0.228833,0.22884 0.30511,0.15255 0.228833,-0.22884 0.228833,0.22883"
       id="path4360"
       inkscape:connector-curvature="0" />
    <path
       style="fill:none;fill-rule:evenodd;stroke:#000000;stroke-width:1px;stroke-linecap:butt;stroke-linejoin:miter;stroke-opacity:1"
       d="m 86.270023,802.93424 c 0.404274,2.41323 0.228833,4.31413 0.228833,4.80549"
       id="path4362"
       inkscape:connector-curvature="0" />
    <path
       style="fill:none;fill-rule:evenodd;stroke:#000000;stroke-width:1px;stroke-linecap:butt;stroke-linejoin:miter;stroke-opacity:1"
       d="m 91.075515,804.99374 c 0.256642,0.43825 1.502211,-0.32845 1.830663,0 0.05646,0.0564 0.05646,1.31654 0,1.373 -0.107872,0.10787 -0.321216,-0.0682 -0.457665,0 -0.09649,0.0482 -0.132349,0.18059 -0.228833,0.22883 -0.337462,0.16873 -1.345291,-0.25654 -1.601831,0 -0.05394,0.0539 -0.05394,0.1749 0,0.22883 0.06057,0.0606 0.592273,0 0.686499,0 0.662067,0 0.238025,0.009 0.457666,0.22884 0.161809,0.1618 0.469409,-0.0724 0.686499,0 0.102337,0.0341 0.132348,0.18059 0.228833,0.22883 0.136449,0.0682 0.349793,-0.10787 0.457665,0 0.435801,0.4358 -2.237657,0.17816 -2.288329,0.22883 -0.05394,0.0539 0,0.15256 0,0.22883 0,0.0763 0,0.30511 0,0.22884 0,-0.15256 -0.152555,-0.45767 0,-0.45767 0.170562,0 0.108227,0.33706 0.228833,0.45767 0.114182,0.11418 0.964986,0 1.144165,0"
       id="path4364"
       inkscape:connector-curvature="0" />
    <path
       style="fill:#f4d7d7;fill-rule:evenodd;stroke:#000000;stroke-width:1px;stroke-linecap:butt;stroke-linejoin:miter;stroke-opacity:1"
       d="m 86.270023,797.89992 c -0.361338,1.40585 -0.228833,2.89878 -0.228833,4.34782 0,0.22884 0,0.45767 0,0.6865 0,0.0763 0,0.30511 0,0.22884 0,-1.275 -0.232263,-3.18652 0,-4.34783 0.06168,-0.30839 0.451219,-0.69295 0.228833,-0.91533 -0.194471,-0.19447 -0.440511,0.33467 -0.686499,0.45766 -0.13645,0.0682 -0.349793,-0.10787 -0.457666,0 -0.03566,0.0357 -0.03566,0.87967 0,0.91534 0.05394,0.0539 0.174897,-0.0539 0.228833,0 0.107873,0.10787 -0.06822,0.32121 0,0.45766 0.312958,0.62592 0.602374,1.20475 0.915332,1.83066 0.09502,0.19005 0,0.6984 0,0.91534 0,0.0763 0.07628,0.22883 0,0.22883 -0.152555,0 0,-0.30511 0,-0.45767 0,-0.53394 0,-1.06788 0,-1.60183 0,-0.38139 0,-0.76277 0,-1.14416 0,-0.53395 0,-1.06789 0,-1.60183 z"
       id="path4366"
       inkscape:connector-curvature="0" />
    <path
       style="fill:#f4d7d7;fill-opacity:1;stroke:#fff800;stroke-width:0.22883295;stroke-opacity:1"
       d="m 85.024095,157.43758 c -3.791522,-0.0791 -4.043629,-0.1117 -4.154778,-0.53674 -0.08926,-0.34131 -0.313812,-0.45249 -0.913978,-0.45249 -0.6032,0 -0.824598,-0.11069 -0.915331,-0.45766 -0.09167,-0.35056 -0.312132,-0.45767 -0.942021,-0.45767 -0.569634,0 -0.822339,-0.103 -0.822339,-0.3352 0,-0.75375 -1.446539,-0.94608 -3.26087,-0.43358 -0.292745,0.0827 -0.400457,-0.0199 -0.400457,-0.38138 0,-0.30206 -0.178111,-0.54109 -0.457666,-0.6142 -0.251716,-0.0658 -0.457666,-0.25605 -0.457666,-0.42273 0,-0.41996 -0.406606,-0.63 -1.177142,-0.60809 -0.416007,0.0118 -0.653522,-0.0977 -0.653522,-0.30132 0,-0.47331 -0.784898,-0.8083 -1.540023,-0.65728 -0.642705,0.12854 -0.673428,0.0919 -1.045857,-1.24766 -0.306649,-1.10296 -0.56544,-1.52615 -1.288718,-2.10739 -0.790923,-0.6356 -0.954863,-0.93872 -1.300402,-2.40442 l -0.395385,-1.67714 0.554071,-0.46545 c 1.34338,-1.12853 2.955396,-2.11994 3.449618,-2.12157 0.295322,-9.7e-4 1.441838,0.0764 2.547814,0.17185 2.00783,0.17335 2.011913,0.17261 2.703996,-0.49028 l 0.693129,-0.66388 15.488224,0.0708 c 13.970428,0.0638 20.358308,0.23855 23.398598,0.64004 l 1.04539,0.13805 -0.66485,0.71974 c -0.36567,0.39585 -0.86184,0.92931 -1.1026,1.18545 -0.24076,0.25614 -0.43774,0.74165 -0.43774,1.07891 0,0.37899 -0.1748,0.70674 -0.45767,0.85812 -0.25171,0.13472 -0.45766,0.43504 -0.45766,0.66739 0,0.31206 -0.27959,0.49285 -1.07001,0.69188 -0.84141,0.21187 -1.37877,0.58433 -2.51525,1.74341 -0.79489,0.81069 -1.53807,1.47398 -1.65151,1.47398 -0.31943,0 -0.49854,0.66356 -0.34463,1.27677 0.10628,0.42347 0.0473,0.5539 -0.25046,0.5539 -0.21421,0 -0.44334,0.20595 -0.50916,0.45766 -0.0658,0.25172 -0.27178,0.45767 -0.45767,0.45767 -0.18589,0 -0.39184,0.20595 -0.45766,0.45766 -0.0885,0.33845 -0.31214,0.45767 -0.85845,0.45767 -0.83477,0 -1.41625,0.52095 -1.53253,1.373 -0.0672,0.49262 -0.333,0.65762 -1.91352,1.18793 -1.009492,0.33872 -2.502627,0.72348 -3.318075,0.85502 -1.846611,0.29789 -6.864623,0.42969 -12.15524,0.31927 z m 7.354528,-1.44689 c 0,-0.12586 0.193341,-0.22883 0.429647,-0.22883 0.700193,0 0.887097,-0.48799 0.769554,-2.00923 -0.08536,-1.10472 -0.211526,-1.49092 -0.545437,-1.66962 -0.238915,-0.12786 -0.537748,-0.1686 -0.664078,-0.0905 -0.376089,0.23243 -1.591517,-0.13135 -1.591517,-0.47635 0,-0.47732 -1.368627,-1.09264 -2.345199,-1.05437 l -0.858462,0.0336 0,-1.33778 c 0,-0.73578 -0.06616,-1.97074 -0.147015,-2.74435 -0.140039,-1.33982 -0.176377,-1.40656 -0.765758,-1.40656 -0.340309,0 -0.943488,0.162 -1.340399,0.36001 -0.567379,0.28304 -0.721656,0.50561 -0.721656,1.04111 0,0.37461 0.143023,0.95917 0.317829,1.29903 0.425569,0.82739 0.858847,3.37109 0.992004,5.82387 0.104826,1.9309 0.128286,2.00229 0.658015,2.00229 0.53678,0 0.549314,-0.0444 0.549314,-1.94508 0,-1.06979 0.06099,-1.94508 0.135531,-1.94508 0.07454,0 0.397354,0.20595 0.717359,0.45767 0.320005,0.25171 0.711387,0.45766 0.869735,0.45766 0.158348,0 0.347178,0.15447 0.419624,0.34325 0.077,0.20066 0.419888,0.34325 0.825399,0.34325 0.742936,0 0.930887,0.31768 0.325416,0.55002 -0.290501,0.11148 -0.334497,0.322 -0.208355,0.99702 0.08795,0.47064 0.266275,0.98443 0.396282,1.14175 0.280373,0.33928 1.782167,0.38749 1.782167,0.0572 z"
       id="path4368"
       inkscape:connector-curvature="0"
       transform="translate(0,652.36216)" />
    <path
       style="fill:#f4d7d7;fill-rule:evenodd;stroke:#000000;stroke-width:1px;stroke-linecap:butt;stroke-linejoin:miter;stroke-opacity:1"
       d="m 70.709382,794.00976 c -0.686499,10.75515 -0.686499,11.89931 -0.686499,11.89931 l 8.009154,-12.81464 0,15.56064 8.466819,-15.33181 4.347826,16.7048 6.407323,-17.16247 6.178485,14.87414 5.26316,-15.56064 4.34783,5.49199 -12.12815,12.12815 -20.823797,0.45767 -10.297483,-4.57666 -5.720823,-8.92449 5.263157,-3.66132 z"
       id="path4370"
       inkscape:connector-curvature="0" />
    <ellipse
       style="fill:#241f1c;fill-opacity:1;stroke:#fff800;stroke-opacity:1"
       id="path4374"
       cx="83.867279"
       cy="780.50861"
       rx="1.94508"
       ry="2.0594966" />
    <ellipse
       style="fill:#241f1c;fill-opacity:1;stroke:#fff800;stroke-opacity:1"
       id="path4376"
       cx="96.910751"
       cy="780.39423"
       rx="1.94508"
       ry="2.173913" />
    <path
       style="fill:none;fill-rule:evenodd;stroke:#000000;stroke-width:1px;stroke-linecap:butt;stroke-linejoin:miter;stroke-opacity:1"
       d="M 56.064073,875.01662 C 27.91762,891.95026 27.91762,892.17909 27.91762,892.17909 l -6.864988,40.50344 9.839817,0.45766 6.178489,-33.18078 19.679634,-8.23798 z"
       id="path4378"
       inkscape:connector-curvature="0" />
    <path
       style="fill:none;fill-rule:evenodd;stroke:#000000;stroke-width:1px;stroke-linecap:butt;stroke-linejoin:miter;stroke-opacity:1"
       d="m 21.281465,932.45369 c -7.551488,5.49199 -7.780321,5.49199 -7.780321,5.49199 l 3.203661,6.40733 4.805492,0.22883 5.720824,-2.97483 1.601831,3.4325 1.601831,-3.66133 0.686498,-8.46682 z"
       id="path4380"
       inkscape:connector-curvature="0" />
    <path
       style="fill:none;fill-rule:evenodd;stroke:#000000;stroke-width:1px;stroke-linecap:butt;stroke-linejoin:miter;stroke-opacity:1"
       d="m 138.67277,864.26147 c 30.89245,24.2563 31.12128,24.2563 31.12128,24.2563 l 5.94966,22.42563 c 0,0 0,0 0,0 l 0,0 2.05949,8.92448 -10.52631,1.60183 -5.26316,-24.71396 -24.48513,-23.11213 z"
       id="path4382"
       inkscape:connector-curvature="0" />
    <path
       style="fill:#00ff00;fill-rule:evenodd;stroke:#000000;stroke-width:1px;stroke-linecap:butt;stroke-linejoin:miter;stroke-opacity:1"
       d="m 177.57437,919.41021 c 1.60183,3.66133 1.60183,3.89017 1.60183,3.89017 l 2.746,1.37299 0,4.34783 -7.32266,1.14416 -4.34782,-3.89016 -0.22884,3.89016 -2.74599,-8.23798 z"
       id="path4384"
       inkscape:connector-curvature="0" />
    <path
       style="fill:#00ff00;fill-opacity:1;stroke:#fff800;stroke-width:0.22883295;stroke-opacity:1"
       d="m 26.132612,279.70943 c -2.264825,-0.10426 -4.159345,-0.23104 -4.210043,-0.28174 -0.08436,-0.0844 6.288707,-38.2149 6.518783,-39.00238 0.112472,-0.38495 1.276378,-1.11417 16.325923,-10.22862 l 10.654826,-6.45289 0.146012,2.10506 c 0.08031,1.15778 0.157537,4.60786 0.171624,7.66685 l 0.02561,5.56179 -1.201373,0.51959 c -0.660756,0.28577 -4.981472,2.09697 -9.601591,4.02488 l -8.400218,3.5053 -0.235174,1.16847 c -0.129345,0.64266 -1.474065,7.86184 -2.988265,16.04262 -1.514201,8.18078 -2.828504,15.0286 -2.920673,15.21739 -0.144915,0.29682 -0.724538,0.31761 -4.285445,0.15368 z"
       id="path4386"
       inkscape:connector-curvature="0"
       transform="translate(0,652.36216)" />
    <path
       style="fill:#00ff00;fill-opacity:1;stroke:#fff800;stroke-width:0.22883295;stroke-opacity:1"
       d="m 18.862948,291.51375 -1.776545,-0.0781 -1.386365,-2.76562 c -0.762501,-1.5211 -1.301728,-2.84146 -1.198284,-2.93413 0.103445,-0.0927 1.166343,-0.8687 2.361995,-1.72448 1.195652,-0.85578 2.667073,-1.91204 3.269824,-2.34724 l 1.09591,-0.79128 4.487209,0.25251 c 2.467965,0.13888 4.534879,0.30019 4.593143,0.35845 0.05826,0.0583 -0.02144,1.73274 -0.177127,3.72106 -0.218235,2.78717 -0.398997,3.87755 -0.789273,4.76098 l -0.506211,1.14586 -0.636692,-1.25858 c -0.350181,-0.69222 -0.669998,-1.29569 -0.710705,-1.34105 -0.04071,-0.0454 -1.461317,0.64972 -3.15691,1.54462 -1.695593,0.8949 -3.220265,1.60637 -3.38816,1.58104 -0.167896,-0.0253 -1.10471,-0.0812 -2.081809,-0.12409 z"
       id="path4388"
       inkscape:connector-curvature="0"
       transform="translate(0,652.36216)" />
    <path
       style="fill:#00ff00;fill-opacity:1;stroke:#fff800;stroke-width:0.22883295;stroke-opacity:1"
       d="m 165.26029,256.72966 c -1.36307,-6.3873 -2.52484,-11.8471 -2.58172,-12.13289 -0.0632,-0.31757 -4.67528,-4.83785 -11.86071,-11.62462 l -11.75731,-11.105 0,-4.456 0,-4.45601 3.18321,2.51125 c 3.24956,2.5636 21.40983,16.74869 25.00519,19.5317 1.09286,0.84594 2.04246,1.71805 2.11023,1.93803 1.32022,4.28583 7.4588,28.43384 7.4588,29.34152 0,0.30429 -0.57857,0.51058 -2.8032,0.99947 -2.53628,0.55738 -5.38096,1.05961 -6.0271,1.0641 -0.14401,9.1e-4 -1.29444,-4.89683 -2.72739,-11.61155 z"
       id="path4390"
       inkscape:connector-curvature="0"
       transform="translate(0,652.36216)" />
    <path
       style="fill:none;fill-rule:evenodd;stroke:#000000;stroke-width:1px;stroke-linecap:butt;stroke-linejoin:miter;stroke-opacity:1"
       d="m 67.963387,975.01662 c 0,54.69108 0,54.69108 0,54.69108 l -17.391305,0.6865 -6.636155,11.4416 35.926773,-0.9153 0.686499,-67.27688 -12.814645,0 z"
       id="path4392"
       inkscape:connector-curvature="0" />
    <path
       style="fill:#00ff00;fill-rule:evenodd;stroke:#000000;stroke-width:1px;stroke-linecap:butt;stroke-linejoin:miter;stroke-opacity:1"
       d="m 106.86499,973.87246 c -0.91533,67.96334 -0.91533,67.96334 -0.91533,67.96334 l 25.62929,-0.4576 0,0 -5.26316,-10.0687 -8.23799,0.4577 -0.22883,-57.66591 z"
       id="path4394"
       inkscape:connector-curvature="0" />
    <path
       style="fill:#00ff00;fill-opacity:1;stroke:#fff800;stroke-width:0.22883295;stroke-opacity:1"
       d="m 45.297328,388.31481 c 0.189233,-0.30265 1.50429,-2.55828 2.922348,-5.01251 1.418059,-2.45424 2.620277,-4.51071 2.671595,-4.56995 0.114713,-0.13242 11.843648,-0.65342 15.228771,-0.67647 l 2.459954,-0.0167 0,-28.03204 0,-28.03203 5.692741,0 5.692744,0 -0.09108,6.00686 c -0.142163,9.37563 -0.542325,50.34569 -0.540707,55.35936 l 0.0014,4.50124 -1.430206,0.12179 c -0.786613,0.067 -6.372998,0.23121 -12.414188,0.36492 -6.04119,0.13371 -13.133519,0.30898 -15.760732,0.38947 l -4.776751,0.14637 0.34406,-0.55027 7.8e-5,0 z"
       id="path4396"
       inkscape:connector-curvature="0"
       transform="translate(0,652.36216)" />
    <path
       style="fill:none;fill-rule:evenodd;stroke:#000000;stroke-width:1px;stroke-linecap:butt;stroke-linejoin:miter;stroke-opacity:1"
       d="M 98.039216,735.69549 77.45098,702.36216 53.921569,687.65628 77.45098,701.38177 Z"
       id="path4398"
       inkscape:connector-curvature="0" />
    <path
       style="fill:#00ff00;fill-rule:evenodd;stroke:#000000;stroke-width:1px;stroke-linecap:butt;stroke-linejoin:miter;stroke-opacity:1"
       d="m 52.941176,665.10726 c 1.960785,24.5098 1.960785,24.5098 1.960785,24.5098 l -23.529412,13.72549 z"
       id="path4402"
       inkscape:connector-curvature="0" />
    <ellipse
       style="fill:#ff0000;fill-opacity:1;stroke:#fff800;stroke-opacity:1"
       id="path4406"
       cx="123.83863"
       cy="767.3988"
       rx="2.0782397"
       ry="2.3227384" />
    <ellipse
       style="fill:#ff0000;fill-opacity:1;stroke:#fff800;stroke-opacity:1"
       id="path4408"
       cx="57.946209"
       cy="768.25458"
       rx="2.200489"
       ry="1.9559902" />
    <ellipse
       style="fill:#ffd5d5;fill-opacity:1;stroke:#000000;stroke-opacity:1"
       id="path4506"
       cx="95.288475"
       cy="864.763"
       rx="13.861386"
       ry="10.728589" />
    <path
       style="fill:none;fill-rule:evenodd;stroke:#000000;stroke-width:1.16382313px;stroke-linecap:butt;stroke-linejoin:miter;stroke-opacity:1"
       d="m 93.474625,858.7969 c 0.33003,1.7881 0.9901,3.5211 0.9901,5.3643 0,0.447 -0.66007,0 -0.9901,0 -0.33003,0 -0.9901,0.447 -0.9901,0 0,-0.4471 0.75673,-0.3161 0.9901,0 0.23337,0.316 -0.23337,1.025 0,1.3411 0.49505,0.6705 2.475249,-0.6706 2.970299,0 0.23337,0.316 -0.23337,1.0249 0,1.3411 0.23337,0.316 0.75673,-0.3162 0.9901,0 0.23337,0.316 -0.23337,1.0249 0,1.3411 0.23337,0.316 0.9901,-0.4472 0.9901,0 0,0.4469 -0.66007,0 -0.9901,0 -0.33004,0 -0.66007,0 -0.9901,0 -2.640269,0 0.33003,0.4469 -0.9901,-1.3411 -0.23337,-0.3162 -0.756729,0.316 -0.990099,0 -0.23337,-0.3162 0.23337,-1.0251 0,-1.3411 -0.68702,-0.9307 -2.43556,1.7428 -1.9802,-1.3411 0.26687,-1.8074 -0.37066,-5.3643 0.9901,-5.3643 1.36076,0 0.38155,3.7158 0.9901,5.3643 0.29519,0.7996 1.513459,-0.6322 1.980199,0 0.23337,0.316 -0.23337,1.025 0,1.3411 0.23337,0.316 0.75673,-0.3161 0.9901,0 0.23337,0.316 -0.23337,1.0249 0,1.3411 0.23337,0.316 0.9901,-0.4471 0.9901,0 0,0.447 -0.66007,0 -0.9901,0 -0.33004,0 -0.66007,0 -0.9901,0 -0.33004,0 -0.75673,0.316 -0.9901,0 -0.23337,-0.3162 0.23337,-1.0251 0,-1.3411 -0.23337,-0.3161 -0.660069,0 -0.990099,0 0,-0.4471 0.23337,-1.0251 0,-1.3411 -0.23337,-0.3161 -0.91005,0.4336 -0.9901,0 -0.32018,-1.7348 -1.32013,-5.3643 0,-5.3643 1.32013,0 0,3.5761 0,5.3643 0,0.447 0,0.894 0,1.3411 0,4.9553 0,3.6017 0,6.7052"
       id="path4508"
       inkscape:connector-curvature="0" />
  </g>
</svg>
