<?xml version="1.0" encoding="UTF-8" standalone="no"?>
<!-- Created with Inkscape (http://www.inkscape.org/) -->

<svg
   xmlns:dc="http://purl.org/dc/elements/1.1/"
   xmlns:cc="http://creativecommons.org/ns#"
   xmlns:rdf="http://www.w3.org/1999/02/22-rdf-syntax-ns#"
   xmlns:svg="http://www.w3.org/2000/svg"
   xmlns="http://www.w3.org/2000/svg"
   xmlns:sodipodi="http://sodipodi.sourceforge.net/DTD/sodipodi-0.dtd"
   xmlns:inkscape="http://www.inkscape.org/namespaces/inkscape"
   width="50"
   height="50"
   viewBox="0 0 50 50"
   id="svg2"
   version="1.1"
   inkscape:version="0.91 r13725"
   sodipodi:docname="grib.svg">
  <defs
     id="defs4">
    <inkscape:path-effect
       effect="powerstroke"
       id="path-effect4223"
       is_visible="true"
       offset_points="0,0.5"
       sort_points="true"
       interpolator_type="Linear"
       interpolator_beta="0.2"
       start_linecap_type="zerowidth"
       linejoin_type="round"
       miter_limit="4"
       end_linecap_type="zerowidth"
       cusp_linecap_type="round" />
    <inkscape:path-effect
       effect="powerstroke"
       id="path-effect4219"
       is_visible="true"
       offset_points="0,0.5"
       sort_points="true"
       interpolator_type="Linear"
       interpolator_beta="0.2"
       start_linecap_type="zerowidth"
       linejoin_type="round"
       miter_limit="4"
       end_linecap_type="zerowidth"
       cusp_linecap_type="round" />
    <inkscape:path-effect
       effect="powerstroke"
       id="path-effect4215"
       is_visible="true"
       offset_points="0,0.5"
       sort_points="true"
       interpolator_type="Linear"
       interpolator_beta="0.2"
       start_linecap_type="zerowidth"
       linejoin_type="round"
       miter_limit="4"
       end_linecap_type="zerowidth"
       cusp_linecap_type="round" />
    <inkscape:path-effect
       effect="powerstroke"
       id="path-effect4211"
       is_visible="true"
       offset_points="0,0.5"
       sort_points="true"
       interpolator_type="Linear"
       interpolator_beta="0.2"
       start_linecap_type="zerowidth"
       linejoin_type="round"
       miter_limit="4"
       end_linecap_type="zerowidth"
       cusp_linecap_type="round" />
    <inkscape:path-effect
       effect="powerstroke"
       id="path-effect4207"
       is_visible="true"
       offset_points="0,0.5"
       sort_points="true"
       interpolator_type="Linear"
       interpolator_beta="0.2"
       start_linecap_type="zerowidth"
       linejoin_type="round"
       miter_limit="4"
       end_linecap_type="zerowidth"
       cusp_linecap_type="round" />
    <inkscape:path-effect
       effect="powerstroke"
       id="path-effect4203"
       is_visible="true"
       offset_points="0,0.5"
       sort_points="true"
       interpolator_type="Linear"
       interpolator_beta="0.2"
       start_linecap_type="zerowidth"
       linejoin_type="round"
       miter_limit="4"
       end_linecap_type="zerowidth"
       cusp_linecap_type="round" />
    <inkscape:path-effect
       effect="powerstroke"
       id="path-effect4199"
       is_visible="true"
       offset_points="0,0.5"
       sort_points="true"
       interpolator_type="Linear"
       interpolator_beta="0.2"
       start_linecap_type="zerowidth"
       linejoin_type="round"
       miter_limit="4"
       end_linecap_type="zerowidth"
       cusp_linecap_type="round" />
    <inkscape:path-effect
       effect="powerstroke"
       id="path-effect4195"
       is_visible="true"
       offset_points="0,0.5"
       sort_points="true"
       interpolator_type="Linear"
       interpolator_beta="0.2"
       start_linecap_type="zerowidth"
       linejoin_type="round"
       miter_limit="4"
       end_linecap_type="zerowidth"
       cusp_linecap_type="round" />
    <inkscape:path-effect
       effect="powerstroke"
       id="path-effect4191"
       is_visible="true"
       offset_points="0,0.5"
       sort_points="true"
       interpolator_type="Linear"
       interpolator_beta="0.2"
       start_linecap_type="zerowidth"
       linejoin_type="round"
       miter_limit="4"
       end_linecap_type="zerowidth"
       cusp_linecap_type="round" />
    <inkscape:path-effect
       effect="powerstroke"
       id="path-effect4187"
       is_visible="true"
       offset_points="0,0.5"
       sort_points="true"
       interpolator_type="Linear"
       interpolator_beta="0.2"
       start_linecap_type="zerowidth"
       linejoin_type="round"
       miter_limit="4"
       end_linecap_type="zerowidth"
       cusp_linecap_type="round" />
    <inkscape:path-effect
       effect="powerstroke"
       id="path-effect4183"
       is_visible="true"
       offset_points="0,0.5"
       sort_points="true"
       interpolator_type="Linear"
       interpolator_beta="0.2"
       start_linecap_type="zerowidth"
       linejoin_type="round"
       miter_limit="4"
       end_linecap_type="zerowidth"
       cusp_linecap_type="round" />
    <inkscape:path-effect
       effect="powerstroke"
       id="path-effect4164"
       is_visible="true"
       offset_points="0,0.5"
       sort_points="true"
       interpolator_type="Linear"
       interpolator_beta="0.2"
       start_linecap_type="zerowidth"
       linejoin_type="round"
       miter_limit="4"
       end_linecap_type="zerowidth"
       cusp_linecap_type="round" />
    <inkscape:path-effect
       effect="skeletal"
       id="path-effect4160"
       is_visible="true"
       pattern="m 0,802.36216 c 0,-2.76 2.24,-5 5,-5 2.76,0 5,2.24 5,5 0,2.76 -2.24,5 -5,5 -2.76,0 -5,-2.24 -5,-5 z"
       copytype="single_stretched"
       prop_scale="1"
       scale_y_rel="false"
       spacing="0"
       normal_offset="0"
       tang_offset="0"
       prop_units="false"
       vertical_pattern="false"
       fuse_tolerance="0" />
    <inkscape:path-effect
       effect="powerstroke"
       id="path-effect4156"
       is_visible="true"
       offset_points="0,0.5"
       sort_points="true"
       interpolator_type="Linear"
       interpolator_beta="0.2"
       start_linecap_type="zerowidth"
       linejoin_type="round"
       miter_limit="4"
       end_linecap_type="zerowidth"
       cusp_linecap_type="round" />
  </defs>
  <sodipodi:namedview
     id="base"
     pagecolor="#ffffff"
     bordercolor="#666666"
     borderopacity="1.0"
     inkscape:pageopacity="0.0"
     inkscape:pageshadow="2"
     inkscape:zoom="7.4"
     inkscape:cx="23.063371"
     inkscape:cy="26.243048"
     inkscape:document-units="px"
     inkscape:current-layer="layer1"
     showgrid="false"
     units="px"
     inkscape:window-width="1024"
     inkscape:window-height="697"
     inkscape:window-x="-4"
     inkscape:window-y="-4"
     inkscape:window-maximized="1" />
  <metadata
     id="metadata7">
    <rdf:RDF>
      <cc:Work
         rdf:about="">
        <dc:format>image/svg+xml</dc:format>
        <dc:type
           rdf:resource="http://purl.org/dc/dcmitype/StillImage" />
        <dc:title></dc:title>
      </cc:Work>
    </rdf:RDF>
  </metadata>
  <g
     inkscape:label="Layer 1"
     inkscape:groupmode="layer"
     id="layer1"
     transform="translate(0,-1002.3622)">
    <path
       style="fill:#000000;fill-opacity:1;stroke:none;stroke-opacity:1"
       id="path4601"
       d="m 11.682112,1051.6686 c -0.231553,-0 -0.457128,0.015 -0.678085,-0.063 -0.244478,-0.1146 -0.451897,-0.2855 -0.647952,-0.4684 -0.146785,-0.1802 -0.261705,-0.3863 -0.329689,-0.6087 -0.098894,-0.2041 -0.1480367,-0.4205 -0.1755756,-0.644 -0.024513,-0.2617 -0.023944,-0.5248 -0.024762,-0.7873 1.06e-4,-0.298 0.00233,-0.596 0.00242,-0.894 -1.34e-4,-0.2875 -4.547e-4,-0.5751 -6.198e-4,-0.8626 -8.855e-4,-0.2917 0.0012,-0.5834 0.00123,-0.8752 0.0087,-0.2879 -0.019085,-0.578 0.012968,-0.8646 0.057352,-0.267 0.087337,-0.5377 0.105461,-0.8097 0.00845,-0.285 0.011456,-0.5667 0.054586,-0.8489 0.07214,-0.3247 0.22061,-0.627 0.371082,-0.9218 0.105562,-0.2631 0.288351,-0.4699 0.495912,-0.6569 0.27241,-0.319 0.536729,-0.4692 0.909912,-0.6784 0.03514,-0.02 0.07028,-0.041 0.105425,-0.061 -0.07245,0.059 0.309109,-0.1539 0.233439,-0.1123 -0.42584,0.2341 -0.14205,0.059 -0.02295,-0.061 0.220475,-0.1937 0.381546,-0.2824 0.490329,-0.5669 0.07768,-0.2704 0.08043,-0.5537 0.08438,-0.8329 0.0013,-0.2735 -0.0013,-0.547 -0.0026,-0.8205 -0.0011,-0.2704 -0.0013,-0.5407 -0.0015,-0.8111 -0.02009,-0.275 0.03941,-0.5432 0.08015,-0.8133 0.03867,-0.3236 0.0475,-0.648 0.09294,-0.971 0.0735,-0.4768 0.087,-0.9597 0.09988,-1.4411 -0.0067,-0.5593 0.05519,-1.1253 -0.04998,-1.678 -0.09319,-0.335 -0.220765,-0.6566 -0.293538,-0.9978 -0.05456,-0.2876 -0.06282,-0.5806 -0.06504,-0.8724 -0.0012,-0.3049 -4.77e-4,-0.6098 -1.09e-4,-0.9148 3.41e-4,-0.2753 4.41e-4,-0.5506 5e-4,-0.8259 0.0013,-0.3029 0.0015,-0.6057 10e-4,-0.9086 -5.19e-4,-0.2823 -7.82e-4,-0.5647 -9.25e-4,-0.847 4.94e-4,-0.3164 0.002,-0.6328 0.0023,-0.9492 -0.0033,-0.3015 0.0058,-0.6032 -0.0054,-0.9045 0.0215,-0.1274 0.108712,-0.228 0.182807,-0.3293 0.238624,-0.2901 0.591674,-0.3632 0.92248,-0.4737 0.20157,-0.081 0.386784,-0.1799 0.601495,-0.227 0.109366,-0.015 0.223463,-0.038 0.32641,-0.08 0.03117,-0.013 0.118822,-0.063 0.08924,-0.047 -0.296076,0.1604 -0.36163,0.2151 -0.248215,0.1255 9.8e-4,0.1485 -0.04556,0.071 0.280838,-0.1044 0.02871,-0.015 -0.05676,0.032 -0.08406,0.05 -0.06061,0.04 -0.118285,0.084 -0.177762,0.1249 -0.26996,0.2665 -0.651771,0.2779 -0.960373,0.459 -0.172394,0.1005 -0.361187,0.1967 -0.532321,0.053 -0.167393,-0.2316 0.06838,-0.4149 0.256451,-0.5311 0.373208,-0.316 0.814941,-0.2789 1.242704,-0.4206 0.04755,-0.022 0.187209,-0.095 0.142655,-0.067 -0.06486,0.041 -0.127737,0.098 -0.20388,0.1058 -0.04614,0 0.07089,-0.06 0.101696,-0.095 0.09042,-0.1018 0.151665,-0.2286 0.21115,-0.3494 0.104314,-0.2099 0.223977,-0.4082 0.38535,-0.5787 0.337152,-0.2546 0.707525,-0.4778 1.108592,-0.6153 0.328345,-0.086 0.669363,-0.091 1.00419,-0.1416 0.310512,-0.052 0.624081,-0.078 0.938471,-0.088 0.33937,-0 0.679922,-0.023 1.018013,0.011 0.26155,0 0.507024,0.1186 0.763812,0.1457 0.09988,0.01 0.192058,-0.01 0.289452,-0.025 0.252372,-0.062 0.50806,-0.1013 0.766864,-0.1222 0.26633,-0.017 0.53335,-0.017 0.800108,-0.018 0.270272,-1e-4 0.540544,5e-4 0.810815,8e-4 0.270327,3e-4 0.540653,3e-4 0.81098,3e-4 0.282686,-5e-4 0.56537,5e-4 0.848055,9e-4 0.352182,4e-4 0.704362,0 1.056546,10e-4 0.309722,-7e-4 0.619445,-0 0.929168,-0 0.245795,0.034 0.510418,0.038 0.696141,0.2208 0.09323,0.1968 0.05089,0.4316 0.04255,0.6428 -0.01152,0.2942 -0.01533,0.5887 -0.0176,0.8832 -0.0016,0.2742 -0.0014,0.5484 -0.0014,0.8227 8.3e-5,0.2701 1.51e-4,0.5402 1.88e-4,0.8104 3e-5,0.2702 3.2e-5,0.5404 3.3e-5,0.8106 4.04e-4,0.3182 -0.0029,0.6365 -0.0026,0.9547 -0.0015,0.3474 3.78e-4,0.6948 0.0014,1.0422 0.0025,0.3072 -3.83e-4,0.6143 -0.0016,0.9215 -1.87e-4,0.328 0.0012,0.656 0.002,0.984 5.99e-4,0.2764 7.05e-4,0.5528 7.71e-4,0.8292 -4.4e-5,0.2971 -0.0015,0.5942 -0.0012,0.8913 4.77e-4,0.2873 8.62e-4,0.5746 0.0011,0.8619 1.59e-4,0.271 1.64e-4,0.5421 1.72e-4,0.8132 2e-6,0.2701 -3e-6,0.5401 -6e-6,0.8102 -2e-6,0.2702 -3e-6,0.5405 -3e-6,0.8107 -0.0025,0.3346 -0.0028,0.6693 -0.002,1.0039 9.13e-4,0.2956 0.0015,0.5912 0.0018,0.8869 7.36e-4,0.2972 -4.25e-4,0.5944 -0.0022,0.8916 -0.0029,0.3644 -5.45e-4,0.7289 7.61e-4,1.0933 0.01447,0.1308 -0.06714,0.5505 0.137476,0.5809 -0.61684,0.3136 -0.336077,0.2315 -0.280337,0.1121 0.0624,-0.1336 0.0723,-0.2103 0.172024,-0.3319 0.278246,-0.2398 0.622809,-0.4323 0.996335,-0.4226 0.229652,0.042 0.466571,0.049 0.693295,0.1038 0.230979,0.097 0.270964,0.3252 0.299046,0.5489 0.02132,0.2659 0.0163,0.533 0.01478,0.7996 -0.02236,0.3519 0.01642,0.6994 0.052,1.0488 0.03936,0.3627 0.06159,0.7268 0.07317,1.0914 -0.0098,0.4079 0.02498,0.8125 0.05995,1.2185 0.07178,0.504 0.141958,1.0081 0.18112,1.5158 0.02954,0.4849 0.02703,0.9708 0.0299,1.4563 0.0012,0.4032 0.0038,0.8065 0.0029,1.2097 1.3e-5,0.3219 0.0012,0.6438 0.0018,0.9656 0.0013,0.2877 -1.19e-4,0.5754 -7.64e-4,0.8631 -7.9e-5,0.2988 6.23e-4,0.5977 9.84e-4,0.8966 2.56e-4,0.2283 3.21e-4,0.4566 3.68e-4,0.6848 0,0 -0.344583,0.1756 -0.344583,0.1756 l 0,0 c 4.7e-5,-0.2284 1.11e-4,-0.4568 3.66e-4,-0.6852 3.59e-4,-0.2992 0.0011,-0.5984 9.7e-4,-0.8976 -6.53e-4,-0.2875 -0.0021,-0.5749 -7.25e-4,-0.8623 7.26e-4,-0.3227 0.0021,-0.6453 0.0028,-0.968 -10e-6,-0.4045 0.0046,-0.8089 0.0047,-1.2134 1.9e-5,-0.4844 -0.0023,-0.9692 -0.03062,-1.4529 -0.03645,-0.5083 -0.09805,-1.0136 -0.17764,-1.517 -0.03743,-0.4043 -0.08356,-0.8075 -0.07317,-1.2144 -0.0085,-0.3647 -0.02538,-0.7294 -0.06487,-1.0923 -0.03878,-0.3487 -0.0838,-0.6959 -0.06325,-1.0478 0.0015,-0.2647 0.0065,-0.5301 -0.01425,-0.7942 -0.02551,-0.2071 -0.05652,-0.4241 -0.275448,-0.5078 -0.225699,-0.05 -0.459614,-0.062 -0.688175,-0.097 -0.124596,0 -0.108657,-0 -0.236843,0.026 -0.04023,0.01 -0.147645,0.065 -0.119169,0.035 0.06083,-0.064 0.15122,-0.092 0.22265,-0.1446 0.06053,-0.044 -0.255986,0.1443 -0.187625,0.1241 -0.31587,0.3559 0.02987,0.3459 -0.582824,0.595 -0.207887,-0.1183 -0.138584,-0.4337 -0.147716,-0.6297 0.0013,-0.3646 0.0037,-0.7293 7.6e-4,-1.094 -0.0017,-0.2965 -0.0029,-0.593 -0.0022,-0.8894 3.08e-4,-0.2963 8.96e-4,-0.5925 0.0018,-0.8888 7.72e-4,-0.3339 4.4e-4,-0.6679 -0.002,-1.0018 -10e-7,-0.2702 -10e-7,-0.5405 -3e-6,-0.8107 -3e-6,-0.2701 -8e-6,-0.5401 -6e-6,-0.8102 7e-6,-0.2711 1.3e-5,-0.5423 1.72e-4,-0.8134 2.04e-4,-0.2876 5.89e-4,-0.5753 0.0011,-0.8629 2.89e-4,-0.2967 -0.0012,-0.5934 -0.0012,-0.8901 6.7e-5,-0.2766 1.73e-4,-0.5533 7.72e-4,-0.83 7.62e-4,-0.3287 0.0022,-0.6574 0.002,-0.9861 -0.0012,-0.3066 -0.0041,-0.6132 -0.0016,-0.9199 0.001,-0.3478 0.003,-0.6957 0.0014,-1.0436 2.31e-4,-0.3173 -0.003,-0.6346 -0.0026,-0.952 -3e-6,-0.2702 -7e-6,-0.5404 -4.1e-5,-0.8106 -3.9e-5,-0.2702 -1.16e-4,-0.5403 -1.44e-4,-0.8105 3.7e-5,-0.2744 -4e-6,-0.5489 0.002,-0.8234 0.0028,-0.2948 0.0076,-0.5895 0.01747,-0.8842 0.0058,-0.1998 0.03999,-0.4214 -0.03465,-0.6107 -0.17223,-0.1771 -0.442623,-0.1677 -0.672245,-0.1998 -0.308243,-4e-4 -0.616485,-0 -0.924728,-0 -0.353053,-5e-4 -0.706102,5e-4 -1.059154,9e-4 -0.283515,5e-4 -0.567029,0 -0.850545,9e-4 -0.270332,0 -0.540664,-10e-5 -0.810996,-4e-4 -0.270258,-3e-4 -0.540515,-9e-4 -0.810773,-6e-4 -0.266331,10e-4 -0.532977,0 -0.798758,0.021 -0.257947,0.023 -0.511835,0.067 -0.764714,0.123 -0.362197,0.042 -0.693937,-0.1056 -1.053637,-0.1308 -0.338552,-0.027 -0.678565,-0.011 -1.017854,-0.01 -0.312635,0.013 -0.624624,0.038 -0.933624,0.089 -0.334481,0.049 -0.676489,0.054 -1.00233,0.1494 -0.09447,0.034 -0.550313,0.2607 -0.103456,0.01 0.237345,-0.1349 -0.197474,0.118 -0.250822,0.1538 -0.03165,0.021 -0.06095,0.046 -0.09142,0.069 -0.164658,0.1668 -0.287667,0.36 -0.39376,0.5688 -0.198866,0.4246 -0.43066,0.6269 -0.906861,0.801 -0.152244,0.046 -0.297835,0.068 -0.45383,0.096 -0.05202,0.01 -0.103904,0.02 -0.155098,0.033 -0.05183,0.013 -0.17159,0.097 -0.153717,0.046 0.02483,-0.07 0.121783,-0.085 0.182675,-0.1279 -0.160737,0.088 -0.429517,0.2528 -0.281408,0.4589 0.16339,0.1197 0.348434,-0 0.502603,-0.089 0.111642,-0.058 0.910865,-0.3778 0.292872,-0.071 0.144617,-0.098 0.677417,-0.5437 0.715567,-0.3605 -0.27292,0.1895 -0.52111,0.3459 -0.848936,0.3855 -0.211136,0.053 -0.395582,0.1578 -0.59956,0.2294 -0.148136,0.044 -0.07243,0.024 -0.227208,0.061 -0.03687,0.011 -0.138195,0.064 -0.108599,0.039 0.43882,-0.3649 0.189823,-0.086 0.0824,-0.022 -0.07185,0.099 -0.14614,0.1934 -0.193203,0.3067 -0.01081,0.3033 -0.0023,0.6067 -0.0054,0.9101 2.75e-4,0.3156 0.0018,0.6312 0.0023,0.9468 -1.39e-4,0.2827 -3.95e-4,0.5653 -9.01e-4,0.848 -4.42e-4,0.3025 -2.4e-4,0.605 9.37e-4,0.9076 -1.63e-4,0.2755 -4.31e-4,0.551 -0.0015,0.8265 -0.0012,0.305 -0.0037,0.6099 -0.0012,0.9148 0.0052,0.2895 0.0093,0.5804 0.06088,0.8662 0.06961,0.3431 0.199028,0.6648 0.287369,1.0021 0.09872,0.558 0.02943,1.1274 0.04121,1.691 -0.0065,0.4797 -0.01044,0.9612 -0.08099,1.4368 -0.04702,0.3222 -0.0534,0.6453 -0.08794,0.9688 -0.0398,0.2685 -0.102773,0.5346 -0.08254,0.808 1.28e-4,0.2703 3.16e-4,0.5407 0.0014,0.811 0.0011,0.2738 0.0035,0.5476 0.0024,0.8214 -0.0037,0.2827 -0.0065,0.5688 -0.07811,0.8441 -0.103508,0.3051 -0.24484,0.3845 -0.484047,0.5821 -0.271824,0.286 -0.628282,0.4481 -0.975236,0.6245 0.488476,-0.3016 0.164882,-0.1051 0.106924,-0.061 -0.132776,0.1015 -0.23053,0.2394 -0.35431,0.3507 -0.212136,0.1798 -0.40019,0.3846 -0.506803,0.6458 -0.151413,0.2906 -0.299314,0.5898 -0.375413,0.9099 -0.04056,0.2812 -0.04885,0.5612 -0.05457,0.8453 -0.01739,0.2721 -0.04287,0.5442 -0.102072,0.8108 -0.043,0.2845 -0.0069,0.5755 -0.01935,0.8623 4.3e-5,0.2913 0.0021,0.5826 0.0012,0.8739 -2.46e-4,0.2879 -7.02e-4,0.5759 -0.0015,0.8638 -6.84e-4,0.2975 0,0.595 7.3e-5,0.8925 8.12e-4,0.2609 2.42e-4,0.5223 0.02432,0.7823 0.02699,0.2214 0.07616,0.4352 0.1734,0.6376 0.065,0.2159 0.175674,0.417 0.317549,0.5921 0.192324,0.1794 0.39614,0.3483 0.639552,0.4539 0.22183,0.069 0.449153,0.051 0.679186,0.046 0,0 -0.322573,0.2344 -0.322573,0.2344 z"
       inkscape:connector-curvature="0" />
    <path
       style="fill:#552200;fill-opacity:1;stroke:none;stroke-opacity:1"
       id="path4603"
       d="m 11.290861,1051.2991 c 0.237337,0 0.47473,0 0.712094,0 0.276444,10e-5 0.552889,0 0.829333,-10e-5 0.271175,0 0.54235,-10e-5 0.813525,-10e-5 0.2523,-0 0.502912,-0.017 0.739375,0.082 0.196992,0.1071 0.413363,0.146 0.63345,0.1696 0.04129,-0 0.08302,-0 0.123886,-0.01 0.186724,-0.031 0.368275,-0.1146 0.548454,-0.1685 0.341439,-0.102 0.344895,-0.097 0.708374,-0.1843 0.649477,-0.1429 1.309741,-0.2323 1.972994,-0.2763 0.415949,-0.021 0.832511,-0.02 1.248864,-0.02 0.342007,0 0.68402,0 1.026031,0 0.310605,0 0.556485,0.1555 0.806293,0.3211 0.312037,0.1938 0.692698,0.034 1.024469,-0.032 0.404189,-0.089 0.810095,-0.1357 1.222602,-0.1036 0.320515,0.07 0.642439,0.1299 0.955745,0.228 0.233899,0.048 0.423249,0.1955 0.640354,0.2841 0.250006,0.087 0.51543,0.1003 0.777447,0.1105 0.303671,0 0.603383,-0 0.903648,0.045 0.240222,0.057 0.457549,0.1704 0.684927,0.2607 0.230738,0.08 0.475953,0.09 0.717639,0.099 0.182028,-0.011 0.353058,-0.077 0.512711,-0.1614 0.03767,-0.02 0.150563,-0.08 0.112871,-0.06 -0.07864,0.041 -0.157148,0.083 -0.235723,0.1244 0.03083,-0.022 0.06023,-0.045 0.09248,-0.065 0.141694,-0.085 0.283934,-0.17 0.429068,-0.2494 0.122787,-0.067 0.259868,-0.081 0.380667,-0.1564 -0.10359,0.057 -0.203377,0.1207 -0.31077,0.1696 -0.0099,0 0.0099,-0.021 0.008,-0.032 -0.0021,-0.012 -0.01013,-0.023 -0.01918,-0.032 -0.0496,-0.046 -0.120558,-0.086 -0.17809,-0.1219 -0.02277,-0.01 -0.04554,-0.012 -0.06831,-0.019 0,0 0.326973,-0.222 0.326973,-0.222 l 0,0 c 0.02406,0.01 0.04812,0.018 0.07218,0.028 0.336304,0.2108 0.29968,0.2216 -0.137718,0.4773 -0.0899,0.047 -0.181956,0.072 -0.275975,0.1078 -0.0345,0.013 -0.131503,0.067 -0.101019,0.046 0.04441,-0.03 0.405063,-0.2438 0.14361,-0.074 -0.334075,0.2037 -0.661745,0.4458 -1.066145,0.4662 -0.245496,-0.01 -0.494388,-0.023 -0.727413,-0.1088 -0.223228,-0.092 -0.438547,-0.2024 -0.67619,-0.2558 -0.299752,-0.044 -0.599405,-0.039 -0.902067,-0.041 -0.265669,-0.012 -0.534502,-0.029 -0.786733,-0.1206 -0.214743,-0.09 -0.405472,-0.2317 -0.636626,-0.2826 -0.309477,-0.099 -0.628121,-0.1593 -0.946294,-0.2238 -0.408139,-0.03 -0.809997,0.022 -1.209807,0.1071 -0.345322,0.07 -0.731293,0.2281 -1.052985,0.015 -0.244266,-0.1639 -0.487176,-0.3042 -0.791738,-0.3037 -0.340881,-0 -0.681757,-0 -1.02264,-0 -0.413425,-0 -0.827151,-0 -1.240195,0.017 -0.656505,0.042 -1.311158,0.1205 -1.952814,0.2691 -0.383806,0.096 -0.361228,0.084 -0.721981,0.1983 -0.22803,0.072 -0.452545,0.1813 -0.696753,0.1759 -0.223196,-0.026 -0.441212,-0.07 -0.641591,-0.1769 -0.233762,-0.091 -0.480346,-0.075 -0.727283,-0.072 -0.271118,0 -0.542236,0 -0.813355,-10e-5 -0.276377,0 -0.552754,-10e-5 -0.829132,0 -0.24071,10e-5 -0.481447,-3e-4 -0.722132,0 0,0 0.322573,-0.2344 0.322573,-0.2344 z"
       inkscape:connector-curvature="0" />
    <ellipse
       style="fill:#552200;fill-opacity:1;stroke:none;stroke-opacity:1"
       id="path4605"
       cx="20.337837"
       cy="1025.4028"
       rx="16.148649"
       ry="10.202703" />
    <ellipse
       style="fill:#552200;fill-opacity:1;stroke:none;stroke-opacity:1"
       id="path4607"
       cx="21.824324"
       cy="1029.7947"
       rx="0.2027027"
       ry="1.081081" />
    <path
       style="fill:#552200;fill-opacity:1;stroke:none;stroke-opacity:1"
       id="path4609"
       d="m 4.2316856,1025.4283 c -0.00599,0.2399 -0.00527,0.4799 -0.00553,0.7199 -1.215e-4,0.2764 3.58e-5,0.5528 1.108e-4,0.8292 -2.16e-4,0.2767 9.009e-4,0.5534 -8.992e-4,0.8301 -0.00128,0.3103 9.421e-4,0.6206 -5.662e-4,0.9309 -4.391e-4,0.3374 -0.00108,0.6747 -2.698e-4,1.0121 5.492e-4,0.2086 2.851e-4,0.1054 7.932e-4,0.3099 0,0 -0.3425459,0.1745 -0.3425459,0.1745 l 0,0 c 5.081e-4,-0.205 2.44e-4,-0.1015 7.932e-4,-0.3106 8.04e-4,-0.3373 1.72e-4,-0.6746 -2.698e-4,-1.0119 -0.00151,-0.3101 7.212e-4,-0.6202 -5.661e-4,-0.9304 -0.00181,-0.2763 -6.759e-4,-0.5527 -8.993e-4,-0.8291 7.5e-5,-0.2764 2.323e-4,-0.5529 1.108e-4,-0.8293 -2.568e-4,-0.2381 5.074e-4,-0.4763 -0.00553,-0.7143 0,0 0.3552631,-0.181 0.3552631,-0.181 z"
       inkscape:connector-curvature="0" />
    <path
       style="fill:#552200;fill-opacity:1;stroke:none;stroke-opacity:1"
       id="path4611"
       d="m 10.120574,1033.8798 c 0.215303,-0.2591 0.557989,-0.3507 0.840866,-0.5154 -0.419932,-0.73 -0.217737,0.1905 -0.353027,0.2049 -0.137952,0.015 -0.298584,-0.014 -0.438203,-0.015 -0.278653,-7e-4 -0.557306,10e-4 -0.8359578,0 -0.2725986,8e-4 -0.5451983,9e-4 -0.8177977,10e-4 -0.2902648,5e-4 -0.5805249,-9e-4 -0.8707892,-9e-4 -0.321463,-0.023 -0.6267092,0.038 -0.9295463,0.1397 -0.3574113,0.1381 -0.7148987,0.2646 -1.0912777,0.3403 -0.3313831,0.052 -0.6672362,0.059 -1.0019276,0.063 -0.2845607,0.01 -0.4877195,0.025 -0.7452927,-0.1065 -0.2012768,-0.1332 -0.2187939,-0.3646 -0.2697386,-0.5796 -0.06619,-0.2633 -0.095651,-0.5323 -0.155879,-0.7968 -0.072461,-0.2877 -0.089044,-0.5835 -0.1015589,-0.8786 -0.011231,-0.3066 -0.00941,-0.6133 -0.00884,-0.92 2.014e-4,-0.3285 0.00149,-0.657 0.00103,-0.9855 -3.846e-4,-0.1979 -7.322e-4,-0.3957 -0.00101,-0.5936 0,0 0.3437478,-0.1752 0.3437478,-0.1752 l 0,0 c -3.311e-4,0.1983 -7.498e-4,0.3966 -0.00137,0.5949 -8.967e-4,0.3285 -3.628e-4,0.657 -0.00103,0.9855 3.009e-4,0.3061 2.318e-4,0.6123 0.00853,0.9183 0.011833,0.2926 0.030709,0.5857 0.1005933,0.8712 0.0607,0.2641 0.091119,0.5324 0.1573228,0.7953 0.050973,0.2022 0.06203,0.4259 0.2552426,0.549 0.2330308,0.1153 0.472734,0.1047 0.7291371,0.095 0.3324713,-0 0.666475,-0.011 0.9949749,-0.067 0.3746625,-0.078 0.7298084,-0.2082 1.0871709,-0.3428 0.3069428,-0.1 0.6156118,-0.1558 0.9400998,-0.1324 0.291096,0 0.582188,-0 0.8732845,-10e-4 0.2724678,0 0.5449357,-10e-5 0.8174028,-7e-4 0.2789337,-7e-4 0.557867,-0 0.836802,-0 0.133866,8e-4 0.32546,-0.029 0.454266,0.017 0.02397,0.01 0.08138,0.026 0.06288,0.043 -0.100868,0.095 -0.232532,0.1508 -0.348798,0.2262 -0.149751,0.072 -0.267804,0.1663 0.07855,-0.079 0.153012,-0.1083 -0.431339,0.2437 -0.245811,0.1861 0,0 -0.364051,0.1592 -0.364051,0.1592 z"
       inkscape:connector-curvature="0" />
    <path
       style="fill:#552200;fill-opacity:1;stroke:none;stroke-opacity:1"
       id="path4613"
       d="m 3.7172662,1028.6616 c 0.1254859,0.2216 0.1517833,0.4775 0.2590786,0.7062 0,0 -0.336652,0.1904 -0.336652,0.1904 l 0,0 c -0.1052214,-0.2269 -0.133025,-0.4806 -0.265274,-0.6957 0,0 0.3428474,-0.2009 0.3428474,-0.2009 z"
       inkscape:connector-curvature="0" />
    <path
       style="fill:#552200;fill-opacity:1;stroke:none;stroke-opacity:1"
       id="path4615"
       d="m 36.799253,1024.3472 c -0.02149,0.2679 0.08488,0.5085 0.202008,0.7418 0.216105,0.3821 0.40572,0.7808 0.585979,1.1811 0.177032,0.3968 0.358714,0.7912 0.537744,1.1871 0.183245,0.3979 0.374038,0.7917 0.573297,1.1818 0.173649,0.282 0.29536,0.5818 0.356918,0.9064 0.02332,0.1828 0.01384,0.091 0.02853,0.2739 0,0 -0.34315,0.1782 -0.34315,0.1782 l 0,0 c -0.01332,-0.1803 -0.0047,-0.09 -0.02606,-0.2707 -0.05745,-0.3219 -0.174021,-0.6205 -0.344358,-0.9008 -0.195418,-0.3926 -0.38633,-0.7869 -0.573219,-1.1836 -0.180463,-0.3955 -0.35789,-0.792 -0.533729,-1.1895 -0.180102,-0.3994 -0.373158,-0.7959 -0.593701,-1.1745 -0.124456,-0.2355 -0.230415,-0.4777 -0.225527,-0.7502 0,0 0.355263,-0.181 0.355263,-0.181 z"
       inkscape:connector-curvature="0" />
    <path
       style="fill:#552200;fill-opacity:1;stroke:none;stroke-opacity:1"
       id="path4617"
       d="m 31.170989,1032.9213 c 0.300814,0.02 0.595414,-0 0.887645,-0.077 0.332392,-0.089 0.671582,-0.1419 1.013842,-0.1716 0.337911,-0.02 0.676564,-0.019 1.014926,-0.019 0.334342,4e-4 0.668684,10e-4 1.003027,8e-4 0.284501,-2e-4 0.569002,-3e-4 0.853502,-4e-4 0.51815,-0.042 0.292432,-0.01 0.741795,-0.3341 0.515003,-0.3178 1.03094,-0.6418 1.616859,-0.8076 0.290475,-0.073 0.590241,-0.079 0.887808,-0.081 0.03953,-0.01 0.08011,-0.01 0.118582,-0.019 0.0331,-0.01 0.124486,-0.059 0.09427,-0.042 -0.08625,0.047 -0.168063,0.107 -0.262567,0.1339 -0.02989,0.01 0.04018,-0.048 0.05535,-0.075 0.04292,-0.077 0.04676,-0.1301 0.06567,-0.2171 0.04342,-0.3948 -0.02574,-0.7934 -0.06308,-1.1868 -0.03641,-0.2635 -0.08875,-0.4878 -0.344244,-0.6023 0,0 0.325996,-0.2154 0.325996,-0.2154 l 0,0 c 0.261808,0.1313 0.321582,0.3639 0.354395,0.6426 0.03365,0.3961 0.09879,0.7949 0.07563,1.1924 -0.06536,0.4007 -0.319079,0.5713 -0.732562,0.616 -0.293946,0 -0.590008,0.011 -0.876316,0.085 -0.558185,0.1628 -0.491816,0.1625 -0.973654,0.4402 -0.413812,0.3038 -0.85889,0.7014 -1.396705,0.6968 -0.283763,-10e-5 -0.567526,-4e-4 -0.851288,-0 -0.333773,-10e-4 -0.667545,-0 -1.001319,-0 -0.338356,3e-4 -0.677163,0 -1.014874,0.024 -0.340752,0.031 -0.678259,0.085 -1.008925,0.1749 -0.298537,0.068 -0.598639,0.086 -0.904537,0.078 0,0 0.32077,-0.2331 0.32077,-0.2331 z"
       inkscape:connector-curvature="0" />
    <path
       style="fill:#552200;fill-opacity:1;stroke:none;stroke-opacity:1"
       d="M 4.2221284,31.285416 C 3.9879874,31.003293 3.799951,29.975474 3.7964038,28.958377 c -0.0028,-0.802974 0.037855,-0.972927 0.2669667,-1.11601 0.2408129,-0.15039 0.2710735,-0.319631 0.2776394,-1.552776 l 0.00737,-1.38399 0.2597174,0.639533 c 0.7584934,1.867731 2.3487326,3.586129 4.539496,4.905338 l 0.7782569,0.468642 -1.2758339,0.0017 c -0.8914699,0.0012 -1.5339081,0.08264 -2.1324684,0.270271 -0.9784915,0.306725 -2.081509,0.352033 -2.2954186,0.09429 z"
       id="path4619"
       inkscape:connector-curvature="0"
       transform="translate(0,1002.3622)" />
    <path
       style="fill:#552200;fill-opacity:1;stroke:none;stroke-opacity:1"
       d="m 32.291911,29.968606 c 1.121055,-0.757807 2.526194,-2.189865 3.121262,-3.181057 0.629543,-1.048618 1.072602,-2.39123 1.089278,-3.300867 l 0.01363,-0.743244 1.012436,2.094595 c 0.55684,1.152027 1.046543,2.262704 1.088227,2.468171 0.04998,0.246343 0.150448,0.361405 0.294994,0.337838 0.174801,-0.0285 0.227478,0.107974 0.26005,0.673721 l 0.04085,0.709459 -0.446251,0.003 c -0.508488,0.0034 -1.458702,0.401611 -2.068996,0.867104 -0.382005,0.29137 -0.576701,0.321123 -2.503843,0.382629 -1.149296,0.03668 -2.241656,0.113001 -2.427467,0.169601 -0.185811,0.0566 0.05082,-0.159814 0.525838,-0.480918 z"
       id="path4621"
       inkscape:connector-curvature="0"
       transform="translate(0,1002.3622)" />
    <path
       style="fill:#00ff00;fill-opacity:1;stroke:none;stroke-opacity:1"
       id="path4623"
       d="m 0.63417185,1051.4416 c 0.005139,-0.2633 0.00783,-0.5268 0.00312,-0.7901 -0.007005,-0.1701 -0.0642303,-0.1892 0.3504492,-0.1925 0.0397867,-3e-4 -0.002641,0.08 -0.003537,0.1194 -0.004945,0.2195 -0.005453,0.1271 0.0103185,0.3666 0.0757767,0.3892 0.0773817,0.8194 0.27824325,1.172 0.1656758,-0.096 -0.1720943,0.1017 -0.2322051,0.09 -0.0556598,-0.011 0.05252,-0.1011 0.071217,-0.1547 0.025687,-0.074 0.044843,-0.1495 0.061489,-0.2257 0.047669,-0.2181 0.059556,-0.367 0.086047,-0.5903 0.053126,-0.586 0.06637,-1.1752 0.061237,-1.7634 -0.0056,-0.2452 -0.073411,-0.2739 0.3472907,-0.3355 0.033215,-0 -0.00362,0.067 -0.00475,0.1006 -0.00391,0.1161 -0.00509,0.2361 -0.00684,0.352 -0.00645,0.5596 -0.00765,1.1194 -0.00827,1.6791 0.00132,0.2523 3.826e-4,0.5047 0.00664,0.7571 0.00107,0.043 0.00203,0.086 0.00438,0.1291 8.246e-4,0.015 0.018603,0.038 0.00514,0.045 -0.1127488,0.057 -0.2368783,0.088 -0.3553175,0.1326 0.00947,-0.2943 0.00706,-0.5889 0.00669,-0.8832 -0.088316,-0.1907 0.3698788,-0.8445 0.4561754,-0.3452 0.046608,0.2069 0.2319477,0.2603 0.4164,0.2997 0.11892,0.028 0.2327432,0.091 0.358322,0.059 0.032631,-0.01 0.1223322,-0.056 0.091345,-0.043 -0.2984656,0.1264 -0.3026695,0.2029 -0.201763,-0.01 0.070715,-0.2621 0.1006176,-0.5382 0.092948,-0.8099 0.1186787,-0.043 0.2308534,-0.113 0.3560362,-0.1304 0.020813,-0 -0.00821,0.058 -0.056342,0.1864 -0.055729,0.1489 -0.114627,0.2909 -0.184732,0.4338 -0.2607723,0.5068 -0.5148685,0.62 -1.0125561,0.8893 -0.2792324,0.1107 -0.4664652,-0.01 -0.6297217,-0.2317 -0.1745132,-0.3063 -0.34423103,-0.6176 -0.4107767,-0.9666 -0.007413,-0.1274 0.0351288,-0.2169 0.14849021,-0.2808 0.32591439,-0.1835 0.40568719,-0.2393 0.71168519,-0.274 0.2482891,-0.049 0.4424453,0.091 0.6636555,0.1716 0.2893351,0.053 0.5673084,0.086 0.8363581,0.2124 0.328351,0.2514 0.6634792,0.4596 1.0593366,0.584 0.3207947,0.085 0.6526236,0.093 0.9782435,0.1512 0.047124,0.01 0.094279,0.016 0.1413727,0.024 0.011927,0 0.1425632,0.023 0.1718315,0.034 0.1926856,0.076 -0.2770847,0.2554 -0.413654,0.2556 -0.337296,-0 -0.6756462,0.018 -1.0116337,-0.015 -0.2809512,-0.052 -0.5141533,-0.1904 -0.7205201,-0.3825 -0.1486443,-0.183 -0.2965233,-0.3607 -0.4787021,-0.5123 -0.1499334,-0.1607 -0.3450836,-0.2633 -0.5483371,-0.3401 0.062828,-0.1106 -0.2420244,0.051 -0.1860519,0.023 0.088898,-0.044 0.1696149,-0.117 0.2680566,-0.1296 0.038413,-0 -0.040665,0.066 -0.055101,0.1023 -0.049113,0.1222 -0.039969,0.1539 -0.049455,0.2888 0.026091,0.3611 0.309503,0.5843 0.5661163,0.8016 0.22292,0.1609 0.4929776,0.3374 0.7778761,0.2668 -0.087772,0.047 -0.1695211,0.1073 -0.2633146,0.1403 -0.01671,0.01 0.059536,-0.03 0.098702,-0.158 0.04654,-0.1522 0.047753,-0.3176 0.056642,-0.4748 0.013178,-0.3527 0.00693,-0.7058 0.00359,-1.0587 0.022471,-0.2651 0.018362,-0.3091 0.3906814,-0.421 0.030726,-0.01 0.025907,0.059 0.032636,0.091 0.013464,0.063 0.021501,0.2504 0.024503,0.3013 0.039098,0.4108 0.1543317,0.8043 0.3438549,1.1696 0.1947147,0.3549 0.3217777,0.7599 0.6299562,1.0354 0.034673,0.01 0.067971,0.034 0.1040202,0.031 0.030573,-0 0.1096099,-0.054 0.080291,-0.045 -0.090436,0.028 -0.1724669,0.121 -0.2649871,0.1014 -0.050866,-0.011 0.041369,-0.096 0.054853,-0.146 0.038945,-0.1451 0.048252,-0.2834 0.064779,-0.4322 0.015853,-0.201 0.025712,-0.4025 0.025113,-0.6041 -8.76e-5,-0.029 -9.953e-4,-0.059 -0.00259,-0.089 -4.316e-4,-0.01 -0.010744,-0.02 -0.00347,-0.024 0.1159788,-0.053 0.2379737,-0.093 0.3569606,-0.1393 -0.011878,0.059 -0.00147,0.3731 0.1125739,0.2788 0.016149,-0.01 0.064831,-0.036 0.048448,-0.027 -0.760005,0.4016 0.2289377,-0.1644 0.3801397,-0.2059 0.2727835,-0.103 0.5636662,-0.1408 0.8521865,-0.1685 0.2834038,-0.023 0.5678925,-0.024 0.8520095,-0.024 0.2709409,-10e-5 0.5418812,7e-4 0.8128217,0 0.2700975,4e-4 0.5401952,4e-4 0.8102929,5e-4 0.2753369,2e-4 0.5506749,-6e-4 0.8260098,6e-4 0.304988,6e-4 0.609977,0 0.914965,-2e-4 0.275804,-3e-4 0.551608,-4e-4 0.827412,-4e-4 0.238588,0.038 0.605176,-0.093 0.799759,0.086 -0.0032,0.3119 -0.533132,0.3685 -0.786279,0.3936 -0.325298,-0.021 -0.605031,0.079 -0.897373,0.2053 -0.254335,0.095 -0.476347,0.2592 -0.7514163,0.288 -0.2007781,-0.01 -0.3822911,-0.1098 -0.5789143,-0.1534 -0.2510472,-0.033 -0.5006577,-0.048 -0.7406826,-0.1341 -0.2130746,-0.1381 -0.4577431,-0.2079 -0.6712532,-0.3432 -0.2673246,-0.1418 -0.4514784,-0.3827 -0.6393263,-0.612 -0.1975691,-0.2215 -0.5621176,-0.7073 -0.8635776,-0.7766 -0.042949,-0.01 -0.087178,0.013 -0.1307666,0.019 0.076084,-0.017 0.1789351,-0.1127 0.228253,-0.052 0.051717,0.063 -0.061965,0.1521 -0.082126,0.2314 -0.026688,0.105 -0.045526,0.2122 -0.057971,0.3198 -0.044492,0.3848 -0.00696,0.7551 0.041836,1.1365 0.1104578,0.487 0.1328857,1.0322 0.3679293,1.4832 0.1229904,0.044 0.3207561,0.1074 -0.3193116,0.1593 -0.040605,0 -0.011901,-0.081 -0.018963,-0.1208 -0.010614,-0.06 -0.02115,-0.1206 -0.034059,-0.1805 -0.045621,-0.2115 -0.060251,-0.2467 -0.1227888,-0.4615 -0.1264313,-0.4737 -0.2522854,-0.9467 -0.4040636,-1.4129 -0.023077,-0.06 -0.043737,-0.1204 -0.069231,-0.1791 -0.019488,-0.045 -0.039115,-0.09 -0.065569,-0.1313 -0.014089,-0.022 -0.031329,-0.044 -0.054718,-0.056 -0.011185,-0.01 -0.046898,0.017 -0.035571,0.012 0.341297,-0.1564 0.3257906,-0.2496 0.3005859,-0.045 0.089446,0.3304 0.3809517,0.5528 0.6683714,0.7099 0.1696067,0.088 0.3441438,0.082 0.5138257,-0 0.040835,-0.02 0.1602887,-0.086 0.1175064,-0.07 -0.072265,0.027 -0.1378908,0.069 -0.2068362,0.1036 0.3150955,-0.2031 0.6444742,-0.5157 1.0408805,-0.4416 0.2268804,0.1011 0.4496791,0.1889 0.6951341,0.2386 0.2802569,0.029 0.5526551,0.07 0.8042343,0.2012 0.2479458,0.1508 0.4178505,0.3863 0.6668665,0.5349 0.15101,0.084 0.316712,0.066 0.482054,0.056 0,0 -0.312425,0.2296 -0.312425,0.2296 l 0,0 c -0.172029,0.01 -0.34093,0.016 -0.495244,-0.075 -0.2438911,-0.1534 -0.4140775,-0.3882 -0.6646559,-0.5327 -0.2507017,-0.1243 -0.5213387,-0.1604 -0.7969292,-0.1937 -0.244835,-0.052 -0.4689834,-0.1423 -0.6998612,-0.233 -0.098346,-0.012 -0.094539,-0.019 -0.1988016,0 -0.037945,0.01 -0.1384351,0.062 -0.1116037,0.034 0.054658,-0.057 0.1357011,-0.082 0.2006901,-0.1269 0.08252,-0.057 -0.3477529,0.2113 -0.2527374,0.1643 -0.3562638,0.2218 -0.6781752,0.5275 -1.1021164,0.3195 -0.2972283,-0.1705 -0.5894829,-0.4053 -0.6983558,-0.7426 6.76e-5,-0.035 -0.025204,-0.082 2.027e-4,-0.1061 0.1161701,-0.1126 0.3002723,-0.3452 0.422405,-0.2391 0.05189,0.045 0.092464,0.1543 0.1136671,0.2062 0.024494,0.06 0.045688,0.1213 0.068533,0.1819 0.1458375,0.4688 0.2688307,0.9432 0.3987482,1.4165 0.065511,0.2115 0.1209726,0.4217 0.1738735,0.6364 0.010321,0.042 0.061551,0.092 0.033442,0.125 -0.092627,0.1079 -0.226097,0.1741 -0.350063,0.2436 -0.012316,0.01 -0.019442,-0.02 -0.029164,-0.031 -0.1878497,-0.48 -0.2354843,-1.0111 -0.337989,-1.5121 -0.049434,-0.3826 -0.087327,-0.7556 -0.053736,-1.142 0.00322,-0.037 0.058422,-0.4962 0.1136483,-0.5586 0.1201529,-0.1359 0.2891925,-0.2189 0.4337887,-0.3284 0.045709,9e-4 0.093665,-0.012 0.1371267,0 0.3197939,0.1044 0.6436574,0.5535 0.8667165,0.7905 0.1942169,0.2196 0.3814413,0.4541 0.6447922,0.5948 0.2131991,0.1297 0.452648,0.2058 0.6663575,0.3362 0.2403963,0.082 0.490474,0.091 0.7397386,0.1294 0.1919687,0.045 0.3730111,0.1442 0.5713831,0.1418 0.266791,-0.041 0.487557,-0.2006 0.738341,-0.2915 0.295697,-0.1262 0.58285,-0.211 0.908846,-0.1997 0.08921,-0.011 0.149944,-0.015 0.236855,-0.036 0.03282,-0.01 0.12316,-0.05 0.09699,-0.029 -0.446094,0.363 -0.290372,0.1826 -0.197321,0.1121 -0.158575,-0.1488 -0.570546,-0.04 -0.774451,-0.068 -0.275471,-10e-5 -0.550943,-10e-5 -0.826414,-4e-4 -0.304732,-3e-4 -0.6094654,-9e-4 -0.9141979,-2e-4 -0.2759384,0 -0.5518799,4e-4 -0.8278204,6e-4 -0.2701108,0 -0.5402217,-10e-5 -0.8103323,-5e-4 -0.2708244,-4e-4 -0.5416487,-0 -0.8124736,-0 -0.2828836,10e-4 -0.5661834,0 -0.8482522,0.026 -0.2897119,0.03 -0.5790647,0.074 -0.8526454,0.1783 -0.2003399,0.065 -0.1127004,0.045 0.1462701,-0.1211 0.024549,-0.016 -0.051742,0.027 -0.075958,0.043 -0.1643887,0.1105 -0.318305,0.2453 -0.505812,0.3166 -0.1582626,-0 -0.1450992,-0.2275 -0.152543,-0.3424 0.1192087,-0.074 0.2346482,-0.1554 0.3576261,-0.2235 0.00825,-0 -0.00361,0.018 -0.00447,0.028 -0.00286,0.031 -0.005,0.062 -0.00668,0.093 -0.010984,0.2035 -0.013616,0.4074 -0.031358,0.6105 -0.052359,0.5456 0.029587,0.5476 -0.4986579,0.885 -0.081144,0.052 -0.1271448,0.01 -0.2015061,-0.026 -0.2993028,-0.2905 -0.4321157,-0.691 -0.6319398,-1.0494 -0.1903776,-0.3697 -0.3051852,-0.7678 -0.3545503,-1.1812 -0.016529,-0.1873 -0.00765,-0.1273 -0.032979,-0.287 -0.00207,-0.013 -0.017369,-0.031 -0.00691,-0.039 0.4604636,-0.3579 0.2929539,-0.2364 0.2727518,0 0.0011,0.3538 0.00317,0.7078 -0.00442,1.0616 -0.00644,0.1378 0.00281,0.5711 -0.1300819,0.6617 -0.1318091,0.09 -0.2768519,0.1588 -0.4152778,0.2381 -0.2947829,0.037 -0.5611928,-0.1298 -0.7884068,-0.301 -0.2653609,-0.2247 -0.5531778,-0.46 -0.5853651,-0.831 0.011039,-0.401 0.1922478,-0.765 0.687274,-0.6734 0.2063634,0.081 0.4047138,0.185 0.5572065,0.3499 0.1800226,0.1544 0.3274529,0.3333 0.4782106,0.5148 0.2005302,0.186 0.4271632,0.3178 0.7002596,0.3656 0.3384086,0.03 0.6794997,0.014 1.0186235,0 0.1966156,-0.029 0.1171566,-0.029 -0.2252094,0.2093 -0.018098,0.013 -0.040821,-0.017 -0.062294,-0.022 -0.034465,-0.01 -0.069261,-0.015 -0.1040765,-0.021 -0.046913,-0.01 -0.094053,-0.016 -0.1410802,-0.024 -0.3248155,-0.057 -0.6569588,-0.066 -0.9750825,-0.1597 -0.394843,-0.1304 -0.7299531,-0.3441 -1.0667421,-0.5844 -0.2709924,-0.1206 -0.5530386,-0.1458 -0.8405475,-0.2063 -0.2164848,-0.082 -0.4062916,-0.2104 -0.6497039,-0.1585 -0.26382843,0.037 -0.38931917,0.1584 -0.038477,-0.1 0.063518,-0.047 -0.38123056,0.2643 -0.17116083,0.2424 0.0520566,0.3462 0.22398753,0.6536 0.40244693,0.9505 0.1619642,0.2135 0.338965,0.3014 0.5994539,0.1888 -0.066488,0.043 -0.1347327,0.084 -0.1994633,0.1301 -0.041194,0.029 0.088104,-0.05 0.1287686,-0.08 0.1901301,-0.1401 0.3190556,-0.3395 0.4334699,-0.5421 0.0702,-0.1409 0.080819,-0.1525 0.1345108,-0.2969 0.010098,-0.027 0.099138,-0.2999 0.09926,-0.3 0.1095501,-0.089 0.2374221,-0.1533 0.3561331,-0.23 -0.035049,0.2757 -0.02707,0.5574 -0.098924,0.828 -0.1696613,0.4493 -0.5473032,0.4924 -0.9191901,0.3747 -0.1997664,-0.047 -0.3892251,-0.1169 -0.4453298,-0.3359 -0.037402,-0.199 -0.056903,-0.093 0.3066326,-0.2861 0.014899,-0.01 -0.021357,0.027 -0.02753,0.043 -0.029593,0.075 -0.033358,0.1487 -0.04422,0.2287 -3.643e-4,0.2922 -0.00288,0.5844 0.00667,0.8764 -0.1184411,0.077 -0.2298162,0.1653 -0.3553232,0.2295 -0.01498,0.01 0.00427,-0.033 0.00514,-0.05 0.00231,-0.044 0.00331,-0.089 0.00439,-0.1336 0.00617,-0.2546 0.00542,-0.5092 0.00676,-0.7639 -4.07e-4,-0.5573 -0.00146,-1.1146 -0.00609,-1.6719 -0.0012,-0.1086 -0.00207,-0.236 -0.00509,-0.346 -8.82e-4,-0.032 -0.028146,-0.075 -0.00387,-0.097 0.4402092,-0.383 0.3508406,-0.2674 0.3462084,-0.017 -0.016246,0.5913 -0.022298,1.1832 -0.071978,1.773 -0.036671,0.3453 -0.041737,1.3464 -0.65185568,1.2362 -0.17294044,-0.373 -0.18829252,-0.795 -0.27297215,-1.1922 -0.00236,-0.025 -0.0380469,-0.4671 -0.025547,-0.4798 0.10112869,-0.1022 0.23748702,-0.1622 0.35723593,-0.2419 0.002213,-0 -0.002615,0 -0.003923,0.01 -9.5466e-4,0.023 -0.001909,0.047 -0.002864,0.07 -0.004607,0.2623 -0.002152,0.5247 0.00312,0.7869 0,0 -0.35327793,0.1801 -0.35327793,0.1801 z"
       inkscape:connector-curvature="0" />
    <path
       style="fill:#00ff00;fill-opacity:1;stroke:none;stroke-opacity:1"
       id="path4625"
       d="m 3.250889,1052.0447 c 0.013604,-0.1233 0.069064,-0.2408 0.1813114,-0.3047 1.0326688,-0.588 0.7254015,-0.4616 1.2161229,-0.6549 0.2504065,-0.076 0.506893,-0.1217 0.7609587,-0.1826 0.274773,-0.063 0.5564087,-0.081 0.8372431,-0.092 0.2464727,-0.011 0.486022,0.064 0.7294258,0.096 0.5253153,0.058 0.3957979,-0.046 -0.8916725,0.6662 -0.029656,0.016 -0.3510999,-0.1132 -0.3798412,-0.1244 -0.3979717,-0.1682 -0.7456981,-0.4275 -1.0964081,-0.6753 -0.3049789,-0.2024 -0.4952808,-0.3579 -0.8596258,-0.2159 -0.3651902,0.1743 -1.0027611,0.5391 0.636543,-0.3765 0.077278,-0.043 -0.1432151,0.099 -0.2356877,0.2325 -0.05824,0.126 -0.016338,0.1464 0.094917,0.1935 0.1150827,0.049 0.1180312,0.053 0.2355305,0.1133 0.1517995,0.08 0.2982427,0.2341 0.4751171,0.2622 0.033155,0.01 0.1290468,-0.029 0.099967,-0.012 -0.3045161,0.1756 -0.6217213,0.3283 -0.9325819,0.4924 0.031734,-0.05 0.063467,-0.1 0.095201,-0.15 0,0 1.0334767,-0.4791 1.0334767,-0.4791 l 0,0 c -0.013381,0.066 -0.026762,0.1315 -0.040143,0.1973 -1.1828229,0.6638 -0.9034397,0.8163 -1.6968123,0.3276 -0.2178703,-0.096 -0.5210524,-0.1672 -0.4328685,-0.4694 0.2767606,-0.5719 1.0180818,-0.8078 1.5851663,-1.0377 0.3701446,-0.069 0.6050777,0.1009 0.8918663,0.3185 0.3404598,0.2502 0.694319,0.4922 1.0946783,0.6361 0.1980912,0.058 0.1190258,0.038 0.30074,0.079 0.039466,0.01 0.1485797,-0 0.1184944,0.026 -0.923575,0.8291 -0.559882,0.7625 -1.0492719,0.6688 -0.2359761,-0.035 -0.4702226,-0.1033 -0.7106367,-0.083 -0.2775898,0.015 -0.5554592,0.04 -0.824957,0.1121 -0.252279,0.066 -0.5148455,0.094 -0.7562742,0.1985 -0.4493498,0.1805 -0.070784,0.035 0.7989754,-0.4906 9.829e-4,-6e-4 -0.2799434,0.1544 -0.2131649,0.1859 0,0 -1.0657895,0.5431 -1.0657895,0.5431 z"
       inkscape:connector-curvature="0" />
    <path
       style="fill:#00ff00;fill-opacity:1;stroke:none;stroke-opacity:1"
       id="path4627"
       d="m 2.7084448,1052.397 c 0.7837606,-0.6008 1.6418033,-1.1562 2.6250462,-1.3014 0.4303715,-0.058 0.8654642,-0.059 1.2988617,-0.067 0.3209377,-0.01 0.6419228,-0.01 0.9629001,-0.01 0.3075626,0.01 0.6152422,0 0.9228484,0 0.2789587,-0 0.5579205,-0 0.8368821,-0 0.3040554,-0.027 0.5895761,0.064 0.8781057,0.1443 0.320798,0.086 0.652573,0.1097 0.982972,0.1229 0.104517,0 0.173081,0.015 0.272023,-0.023 0.03413,-0.013 0.125148,-0.076 0.09321,-0.058 -0.504831,0.2853 -1.009662,0.5706 -1.514494,0.8559 0.03438,0.011 0.02093,0 0.04251,0.02 -0.1952534,-0.1255 -0.3816328,-0.2799 -0.5638335,-0.4271 -0.1791793,-0.2177 -0.4327956,-0.2795 -0.6776825,-0.3836 -0.1946507,-0.106 -0.3987072,-0.1814 -0.6046998,-0.2627 -0.1910737,-0.065 -0.4139871,-0.2182 -0.6271106,-0.1846 -0.040585,0.01 -0.147017,0.073 -0.1111376,0.053 0.4911149,-0.274 0.9846891,-0.5436 1.4770337,-0.8154 -0.1573716,0.094 -0.031663,0.068 0.084198,0.2061 0.1716595,0.7387 0.1006619,0.2468 -1.6425577,1.051 -0.00729,0 -0.1819833,-0.148 -0.2644756,-0.2002 -0.1893876,-0.1198 -0.1954381,-0.1027 -0.422839,-0.1679 -0.7308548,-0.096 -1.4705571,0.011 -2.1985197,0.09 -0.4189811,0.064 -0.6376427,-0.058 -0.959608,-0.2793 -0.2534834,-0.1593 -0.5390421,-0.1457 -0.8254402,-0.1248 -0.4054372,0 -0.773229,0.1782 -1.1460221,0.3139 -0.5416577,0.2831 -1.04889434,0.5505 1.2482094,-0.7147 0.036745,-0.02 -0.068457,0.049 -0.099201,0.077 -0.047073,0.044 -0.076783,0.079 -0.066466,0.1403 0.1631539,0.1463 0.29606,0.3143 0.3910224,0.5116 0.200014,0.8102 -1.2639607,1.5481 -1.9074373,1.0719 -0.1770621,-0.1202 -0.35649613,-0.2355 -0.51046913,-0.3856 -0.17880752,-0.1689 -0.35346072,-0.2423 -0.36192627,-0.5048 0.0166205,-0.039 0.0253697,-0.082 0.0498614,-0.1172 0.0243036,-0.034 0.0567004,-0.064 0.0932013,-0.085 1.243014,-0.7165 1.2215168,-0.9129 2.1523322,-0.9865 0.3448904,-0.045 0.6472527,0.112 0.9383727,0.2758 0.2616195,0.1433 0.5447101,0.2365 0.8184261,0.3515 0.3203934,0.1153 0.6189133,0.2808 0.9352433,0.4066 0.4019337,0.1143 0.8103678,0.1823 1.2088695,0.3132 0.4531136,0.1383 0.9223605,0.2451 1.3979309,0.2298 0.3812839,-0.047 0.766516,-0.1162 1.1394333,-0.211 0.5857982,-0.1817 1.4890268,-0.7339 -0.9598385,0.6113 -0.062116,0.034 0.1200133,-0.076 0.1764432,-0.1186 0.1747403,-0.1328 0.1732817,-0.1483 0.3159333,-0.3131 0.2419567,-0.3445 0.3130424,-0.7521 0.3443883,-1.1626 0.047371,-0.8916 1.0886365,-1.4361 1.9581765,-1.4696 0.361671,-0.039 0.699196,0 0.994015,0.2248 0.225644,0.2403 0.247003,0.5806 0.268575,0.8938 0.03695,0.2623 -0.112855,0.4105 -0.252272,0.6028 -0.08845,0.1535 -0.02536,0.3044 0.02119,0.4591 0.07224,0.1913 0.16613,0.287 0.363543,0.3341 0.07763,-0.01 0.152219,-0 0.223943,-0.044 0.0411,-0.022 0.150287,-0.1105 0.109213,-0.088 -0.478598,0.2607 -0.941944,0.5491 -1.423608,0.8041 -0.0406,0.022 0.06558,-0.065 0.09442,-0.1004 0.03167,-0.039 0.05775,-0.083 0.08662,-0.1241 0.13742,-0.2248 0.224009,-0.479 0.222494,-0.7438 -0.166606,-0.6263 -0.04476,-0.1234 1.660704,-0.8173 0.03312,-0.013 -0.0048,0.071 -0.0074,0.107 -0.0035,0.049 -0.0071,0.097 -0.0108,0.1455 -0.02079,0.2756 -0.01312,0.1272 -0.02142,0.4133 0.0041,0.3348 -0.08093,0.7587 0.179228,1.0215 0.01755,8e-4 0.04508,0.018 0.05266,0 0.01528,-0.032 0.02873,-0.1222 -0.003,-0.1063 -0.519206,0.2589 -0.990158,0.6086 -1.512172,0.8618 -0.0485,0.024 0.0387,-0.1009 0.05137,-0.1533 0.03647,-0.1508 0.04005,-0.2641 0.05326,-0.4185 -0.02181,-0.2974 0.05893,-0.6332 0.01108,-0.9266 1.989474,-1.032 1.51264,-1.2542 1.945369,-0.049 0.09491,0.2523 0.275752,0.3394 0.525674,0.3791 0.03981,0 0.08008,0.018 0.119419,0.011 0.03605,-0.01 0.06544,-0.033 0.09816,-0.049 -0.493545,0.2735 -0.98556,0.5498 -1.480635,0.8205 -0.02939,0.016 0.05943,-0.033 0.08322,-0.056 0.08115,-0.08 0.08831,-0.1452 0.128487,-0.2545 0.05344,-0.3319 0.09929,-0.684 0.04862,-1.0193 -0.22435,-0.6073 -0.07531,-0.1576 1.627446,-0.7962 0.04254,-0.016 -0.0081,0.091 -0.0051,0.1362 0.01165,0.1778 0.07902,0.3328 0.150473,0.4929 0.151738,0.2857 0.349274,0.5745 0.683928,0.6425 0.627808,-0.1954 0.283486,-0.094 -1.434341,0.7927 -0.03465,0.018 0.06616,-0.045 0.08639,-0.079 0.100714,-0.166 0.10169,-0.4009 0.119088,-0.5865 0.01341,-0.3817 0.03439,-0.7669 -0.005,-1.1478 -0.367069,-0.5351 -0.16282,-0.2111 1.628749,-0.814 0.06921,-0.023 -0.0015,0.1462 0.0031,0.2191 0.0067,0.1056 0.01672,0.211 0.03077,0.3159 0.0338,0.2522 0.0888,0.5116 0.137744,0.7608 0.09624,0.4367 0.209856,0.8807 0.426475,1.276 0.04808,0.088 0.186038,0.2823 0.246385,0.3693 0.0372,0.042 0.07125,0.087 0.111613,0.1259 0.03133,0.03 0.129125,0.1339 0.200154,0.091 0.028,-0.017 0.07438,-0.1019 0.04544,-0.087 -1.472453,0.7688 -1.830961,1.3332 -1.438059,0.7496 0.133808,-0.4271 0.121562,-0.886 0.128967,-1.3293 0.0153,-0.4357 -0.02608,-0.8708 -0.01998,-1.3062 0.02246,-0.7691 -0.130993,-0.2742 1.656796,-1.0465 0.05474,-0.024 0.03519,0.4821 0.03532,0.5059 0.04833,0.2942 0.07324,0.7311 0.41782,0.8255 0.01564,-0.023 0.02163,-0.058 0.04693,-0.07 0.179137,-0.086 0.716364,0.2341 0.859735,0.3149 0.328063,0.1652 0.751413,0.5688 1.144413,0.405 -3.004028,1.6059 -1.52154,1.2019 -1.367016,0.5782 0.06506,-0.2625 0.06756,-0.5375 0.075,-0.8059 -0.0055,-0.2171 -0.02142,-0.4413 -0.120418,-0.6393 -0.01829,-0.037 -0.09001,-0.1205 -0.0933,-0.08 -0.003,0.037 0.01869,0.073 0.02803,0.1092 2.308946,-1.3995 1.58099,-1.4007 1.481804,-0.6442 -0.02606,0.1988 -0.02713,0.4019 -0.03063,0.6019 -0.03855,0.4057 0.06176,0.7584 0.300616,1.0836 0.08593,0.078 0.179866,0.2079 0.314822,0.1634 0.03102,-0.01 0.110818,-0.069 0.08217,-0.053 -1.494825,0.8184 -1.917726,1.1902 -1.38611,0.7371 0.176354,-0.3115 0.181423,-0.6786 0.191264,-1.0274 -0.0018,-0.2704 -0.01735,-0.5415 0.09455,-0.7931 0.238689,-0.3292 1.549803,-1.447 2.111196,-0.8806 0.04776,0.048 0.08099,0.1089 0.121479,0.1633 0.228785,0.3493 0.344607,0.7561 0.498435,1.1411 0.127157,0.2746 0.343531,0.392 0.638967,0.3822 0.04965,-0.011 0.09995,-0.02 0.14894,-0.033 0.168698,-0.047 0.184453,-0.059 0.339743,-0.1441 0.05828,-0.032 0.230787,-0.1318 0.172984,-0.099 -1.389769,0.7874 -1.768617,1.0606 -1.200273,0.6613 0.68009,-0.5461 1.406072,-1.1794 2.293119,-1.2678 0.404708,-0.036 0.802874,-0 1.204442,0.043 0.110894,0.012 0.196389,0.033 0.3062,0.01 0.03687,-0.01 0.06915,-0.031 0.10372,-0.047 -0.498353,0.277 -0.99491,0.5572 -1.49506,0.8309 -0.02758,0.015 0.05642,-0.031 0.0768,-0.055 0.02393,-0.028 0.03514,-0.065 0.05271,-0.097 0.183163,-0.7327 -0.508187,-0.029 1.686181,-0.8989 0.03458,-0.014 -0.01886,0.072 -0.02788,0.108 -0.03286,0.1314 -0.03852,0.1589 -0.06947,0.2931 -0.08701,0.2825 -0.1686,0.5544 -0.07122,0.8428 0.02921,0.043 0.06111,0.1334 0.137176,0.1229 0.02071,-0 0.06602,-0.051 0.04751,-0.041 -0.515447,0.271 -1.014944,0.5731 -1.539706,0.8257 -0.04349,0.021 0.06099,-0.077 0.07782,-0.1221 0.02257,-0.061 0.02562,-0.127 0.03843,-0.1905 0.04379,-0.4063 -0.07536,-0.7709 -0.409627,-1.0115 -0.04233,-0 -0.0848,-0.011 -0.126998,-0.01 -0.154184,0.015 -0.162934,0.04 -0.294593,0.1239 -0.05037,0.032 -0.202579,0.1262 -0.150432,0.097 1.384616,-0.7716 1.789465,-1.1324 1.255631,-0.6751 -0.610568,0.5898 -1.287402,1.2622 -2.174121,1.3648 -0.240038,-0.053 -0.372095,-0.2445 -0.504625,-0.4354 -0.128511,-0.2587 -0.35944,-0.4159 -0.563509,-0.6072 -0.109748,-0.062 -0.182978,-0.1729 -0.292819,-0.2345 -0.02485,-0.014 -0.0539,-0.037 -0.0809,-0.028 -0.02206,0.01 -0.04811,0.075 -0.02774,0.064 0.530187,-0.2931 1.046321,-0.6109 1.569482,-0.9164 0.123668,0.3892 0.496365,0.6609 0.838947,0.8521 0.285963,0.1307 0.585416,0.2067 0.887701,0.1006 0.04456,-0.016 0.174517,-0.071 0.133686,-0.047 -0.472686,0.2745 -0.952462,0.5368 -1.431252,0.8006 -0.05419,0.03 0.104778,-0.066 0.157236,-0.099 0.07499,-0.047 0.14843,-0.096 0.225109,-0.1405 1.780789,-1.0241 1.130144,-0.7547 2.063502,-1.1151 0.402112,-0.1665 0.843544,-0.2058 1.250708,-0.3535 0.120604,-0.044 0.235316,-0.1025 0.355062,-0.1486 0.0403,-0 0.08318,-0.03 0.120911,-0.015 0.192721,0.077 0.173545,0.3708 0.191854,0.5262 0.04236,0.3596 0.04505,0.323 0.128337,0.7185 0.184638,0.5458 0.467698,1.5697 1.091753,1.765 0.468341,-0.5253 -0.163793,0.2007 -1.459211,0.7592 -0.05756,0.025 0.0238,-0.1239 0.02339,-0.1866 -0.0023,-0.3488 -0.08701,-0.7087 -0.13836,-1.0521 -0.09175,-0.6763 -0.20386,-1.3494 -0.314477,-2.0228 -0.01141,-0.076 -0.02092,-0.1526 -0.03424,-0.2285 -0.01577,-0.09 -0.03597,-0.1787 -0.05484,-0.2679 -0.0041,-0.02 -0.0318,-0.049 -0.01423,-0.058 1.699673,-0.924 1.578083,-1.4532 1.688856,-0.7091 -0.0027,0.4617 0.09934,0.9005 0.247945,1.335 0.2185,0.6118 0.589065,1.1411 1.00294,1.6344 0.07706,0.075 0.195737,0.21 0.306201,0.2531 0.03324,0.013 0.07135,0 0.107021,0 -0.508793,0.2628 -1.011289,0.5382 -1.526378,0.7884 -0.04015,0.019 0.07452,-0.054 0.09591,-0.093 0.03461,-0.063 0.04501,-0.1372 0.06751,-0.2059 0.103296,-0.5265 0.105003,-1.0075 -0.02957,-1.5252 -0.0573,-0.2048 -0.148987,-0.5097 -0.37975,-0.5801 -0.0854,0.6814 -0.01856,-0.023 1.548751,-0.8265 0.03419,-0.017 -0.01215,0.076 -0.01336,0.1145 -0.0064,0.2025 0.01652,0.4098 0.02702,0.6118 0.04479,0.3785 0.02511,0.7657 0.08781,1.1416 0.02542,0.081 0.07685,0.1812 0.183766,0.1568 0.07392,-0.017 0.251802,-0.1683 0.185114,-0.1322 -0.478239,0.2587 -0.947771,0.5332 -1.421657,0.7999 0.365235,-0.4085 0.392072,-1.0118 0.405691,-1.5347 -0.08315,-0.8051 -0.753261,-0.034 1.61345,-1.0033 0.03733,-0.015 -0.01088,0.08 -0.01308,0.1203 -0.0091,0.1673 -1.86e-4,0.1722 0.02045,0.3504 0.09952,0.3353 0.262566,0.7174 0.604919,0.8739 0.05069,0.023 0.108744,0.025 0.163115,0.037 0.118157,0 0.169442,0.02 0.276079,-0.037 0.03539,-0.019 0.128033,-0.096 0.09289,-0.076 -2.536707,1.3958 -1.634181,1.2375 -1.350939,0.6482 0.108868,-0.4222 0.117963,-0.8694 0.08658,-1.3028 0.533129,-0.3277 1.023568,-0.738 1.599386,-0.9831 0.08708,-0.037 0.109944,0.1542 0.160671,0.2341 0.05665,0.089 0.104115,0.1841 0.16128,0.273 0.226315,0.352 0.481298,0.68 0.747401,1.0021 0.39643,0.4431 0.886436,0.8587 1.488192,0.9803 0.08574,0.017 0.174545,0.012 0.261818,0.018 0.07741,-0 0.15617,6e-4 0.232225,-0.015 0.06866,-0.014 0.13173,-0.048 0.197594,-0.071 -0.451052,0.2496 -0.894886,0.5128 -1.353158,0.7489 -0.05514,0.028 0.09857,-0.077 0.139258,-0.1235 0.09332,-0.1074 0.116033,-0.1888 0.170081,-0.3166 0.131144,-0.4275 0.133398,-0.8833 0.109347,-1.3263 -0.113487,-1.0099 -0.592159,-0.1853 1.563059,-1.1904 0.02078,-0.01 -0.05394,0 -0.06475,0.023 -0.02649,0.05 -0.02381,0.1097 -0.03572,0.1646 -0.04818,0.4141 -0.06879,0.8369 0.04538,1.2414 0.04208,0.082 0.09285,0.2031 0.208123,0.1931 0.05357,-0 0.175311,-0.1238 0.128039,-0.098 -0.501538,0.2718 -0.992041,0.5635 -1.488061,0.8453 0.02921,-0.028 0.06344,-0.051 0.08763,-0.084 0.114289,-0.1528 0.171194,-0.3757 0.244921,-0.5477 0.143712,-0.3354 0.102316,-0.239 0.266365,-0.5915 0.439008,-0.937 0.784388,-0.9852 2.062817,-1.4631 0.06308,-0.024 0.196949,0.3552 0.19855,0.3592 0.165494,0.3461 0.198063,0.7614 0.457442,1.0544 0.0818,0.062 0.201459,0.1518 0.310268,0.084 0.02497,-0.016 0.08266,-0.082 0.05681,-0.068 -1.397879,0.7576 -1.943682,1.2204 -1.410496,0.7766 0.541032,-0.4572 0.504922,-0.4381 1.766185,-0.9366 0.05994,-0.024 0.0841,0.098 0.120951,0.1509 0.137653,0.1975 0.252062,0.4128 0.387025,0.6128 0.234676,0.2389 0.492762,0.8536 0.875981,0.8358 0.418384,-0.5262 -0.02095,0.044 -1.463161,0.7824 -0.03575,0.018 0.04682,-0.066 0.06119,-0.1038 0.07046,-0.184 0.07026,-0.3999 0.08435,-0.5929 0.03231,-0.4853 -0.02574,-0.9694 -0.128593,-1.443 -0.268038,-0.8131 -0.530397,-0.2234 1.551335,-1.0735 0.04134,-0.017 -0.004,0.089 -0.0022,0.134 0.0026,0.065 0.0103,0.1299 0.01545,0.1948 0.04582,0.4782 0.0796,0.9571 0.110412,1.4364 -0.148508,-0.1581 0.114145,0.3753 0.09904,0.278 -0.132812,-0.8559 -1.820595,1.5454 -1.562593,0.6516 0.02901,-0.4611 0.170142,-0.8973 0.321836,-1.3297 0.345025,-0.7335 1.361289,-1.6998 2.154462,-1.406 0.06236,0.023 0.116423,0.064 0.174634,0.097 0.353701,0.2999 0.600256,0.7017 0.891552,1.0584 0.09802,0.088 0.212849,0.2321 0.353853,0.2574 0.03211,0.01 0.124753,-0.034 0.0962,-0.018 -1.61568,0.8932 -1.87618,1.215 -1.399143,0.6773 0.166719,-0.4651 0.184681,-0.9759 0.152446,-1.4656 -0.164555,-0.7036 -1.02843,0.1762 1.624371,-0.922 0.04037,-0.017 -0.01841,0.086 -0.02381,0.1289 -0.02207,0.177 -0.01406,0.1551 0.0053,0.332 0.05609,0.4414 0.313496,0.8077 0.555223,1.1674 0.03617,-0.019 0.118998,0.1695 0.191824,0.139 0.02545,-0.011 0.04888,-0.092 0.02429,-0.079 -0.520126,0.2645 -1.001635,0.6039 -1.532493,0.8461 -0.05359,0.025 0.04064,-0.1114 0.04987,-0.1695 0.01386,-0.087 0.01268,-0.1765 0.01901,-0.2647 0.0035,-0.3069 -0.05558,-0.6077 -0.120826,-0.9059 -0.04175,-0.1908 -0.06812,-0.3928 -0.186634,-0.552 -0.05321,0.68 -0.02046,-0.017 1.581798,-0.7727 0.03623,-0.017 -0.02766,0.076 -0.03258,0.1157 -0.0069,0.056 -0.0071,0.113 -0.0027,0.1693 0.01877,0.2411 0.04709,0.2776 0.123835,0.5203 0.271922,0.6537 0.719955,1.1844 1.287561,1.5981 0.07846,0.044 0.153253,0.095 0.235381,0.1317 0.09894,0.044 0.280613,0.1006 0.397684,0.079 0.04767,-0.01 0.171945,-0.089 0.12942,-0.066 -1.496165,0.8162 -1.749036,1.2325 -1.34575,0.6417 0.155873,-0.4061 0.142977,-0.8477 0.136357,-1.2757 -0.01193,-0.2743 0.01896,-0.5776 -0.141471,-0.8152 -0.162736,-0.1338 -0.393664,-0.1501 -0.593929,-0.1157 -0.05173,-0.046 -0.399724,0.1632 -0.362854,0.1425 0.478682,-0.269 0.949509,-0.5519 1.43122,-0.8153 0.04154,-0.023 -0.07614,0.057 -0.108391,0.092 -0.03265,0.035 -0.05664,0.077 -0.08496,0.116 -0.04973,0.1185 -0.185864,0.314 -0.09902,0.4476 0.0371,0.057 0.100619,0.092 0.151264,0.1373 0.210002,0.1087 0.418959,0.2663 0.658367,0.3063 0.13849,0.023 0.263718,-0.01 0.399009,-0.032 0.517476,-0.2515 1.526066,-0.729 -0.778291,0.4679 -0.09955,0.052 0.183416,-0.1292 0.273582,-0.196 0.307113,-0.2273 0.257734,-0.1953 0.555624,-0.4567 0.4038,-0.3441 0.723123,-0.7671 1.050115,-1.1804 0.556738,-0.2796 1.083562,-0.6292 1.670215,-0.8389 0.06826,-0.024 0.07641,0.2371 0.07881,0.4825 0.0034,0.3482 -0.007,0.6969 -0.01683,1.0448 -0.02738,0.5156 -0.06432,1.0365 -0.190083,1.5387 -0.0132,0.055 -0.02713,0.1096 -0.0396,0.1646 -0.01371,0.06 -0.0437,0.1783 -0.04075,0.2499 6.73e-4,0.016 0.02887,0.04 0.01422,0.047 -1.718634,0.8491 -1.663516,1.3947 -1.690529,0.6659 0.02338,-0.3893 0.01767,-0.779 0.02056,-1.1687 -0.02329,-0.2514 0.09546,-0.7126 -0.186776,-0.856 -0.02496,0.01 -0.05411,0 -0.0749,0.018 -0.02754,0.02 -0.0917,0.097 -0.06171,0.081 0.487843,-0.2594 0.957855,-0.5512 1.443019,-0.8156 0.04458,-0.024 -0.08245,0.06 -0.119533,0.094 -0.09371,0.088 -0.111375,0.1279 -0.180757,0.2333 -0.111415,-0.012 -0.104657,0.5363 0.01288,0.3122 -0.523207,0.2835 -1.046344,0.5671 -1.569621,0.8505 -0.03063,0.017 0.04384,0.027 0.09902,-0.1039 0.04002,-0.095 0.05518,-0.2033 0.0709,-0.3044 0,0 1.616552,-0.8249 1.616552,-0.8249 l 0,0 c 0.03049,0.2604 0.02616,0.038 -0.01799,0.2357 -0.202391,0.9079 0.521044,0.1856 -1.706508,1.2323 -0.246725,-0.1601 -0.259392,-0.4105 -0.142965,-0.6671 0.362237,-0.7341 1.402936,-1.673 2.178699,-1.3054 0.253112,0.2852 0.21068,0.6636 0.204465,1.0231 0.0019,0.3729 -0.01276,0.7478 0.04053,1.1181 0.12935,0.6809 0.03004,0.041 -1.647595,0.9328 -0.01564,0.01 0.04079,0 0.05201,-0.011 0.0965,-0.1177 0.05525,-0.3109 0.126868,-0.4397 0.150556,-0.5058 0.290038,-1.0175 0.303667,-1.5502 0.01506,-0.3327 0.01503,-0.6572 -0.03822,-0.9874 -0.01108,-0.069 -0.02928,-0.1361 -0.04644,-0.2036 -0.0039,-0.015 -0.03023,-0.036 -0.01667,-0.044 0.504516,-0.3063 1.024852,-0.5857 1.537278,-0.8786 -0.200983,0.1133 -0.311455,0.2809 -0.463765,0.4527 -0.236764,0.267 -0.475544,0.5344 -0.738551,0.776 -0.763953,0.7517 -1.486893,1.097 -2.493628,1.6737 -0.08233,0.047 -0.168887,0.088 -0.257932,0.1204 -0.07531,0.028 -0.15539,0.04 -0.233085,0.06 -0.07866,0 -0.157309,0.017 -0.235985,0.013 -0.343846,-0.017 -0.644528,-0.2216 -0.940436,-0.3747 -0.327866,-0.2466 -0.311426,-0.4459 -0.169433,-0.8115 0.385809,-0.8051 1.363133,-1.2171 2.221485,-1.3353 0.268404,0.01 0.534417,0.053 0.709525,0.2774 0.154739,0.2851 0.162186,0.6057 0.145215,0.9242 -0.01298,0.4469 -0.02626,0.8965 -0.09759,1.3384 -0.01735,0.063 0.0017,0.1522 -0.05206,0.1897 -0.487148,0.3392 -1.24973,1.2456 -1.977625,0.9318 -0.200746,-0.087 -0.251553,-0.1381 -0.435028,-0.2681 -0.547325,-0.4683 -0.99422,-1.0371 -1.334214,-1.673 -0.572721,-1.1885 -0.289514,-0.9494 1.354334,-1.8332 0.03138,-0.017 0.03219,0.064 0.04829,0.095 0.04752,0.5227 0.179849,1.0313 0.24954,1.5507 0.0098,0.085 0.0186,0.1704 0.02926,0.2554 0.0085,0.068 0.0822,0.1612 0.02824,0.2031 -1.074344,0.8353 -1.37627,1.5422 -1.858726,0.7387 -0.23484,-0.3877 -0.511015,-0.7658 -0.609453,-1.2165 -0.0065,-0.027 -0.08041,-0.4477 -0.07841,-0.4489 2.327389,-1.4031 1.773697,-1.4403 1.62101,-0.7246 -0.0524,0.5061 -0.06025,1.0162 -0.11411,1.5224 -0.170494,1.1523 -1.625959,1.5688 -2.185773,0.7266 -0.242509,-0.3539 -0.475222,-0.7461 -0.855215,-0.9674 -0.04877,-0.011 -0.09629,-0.033 -0.146323,-0.033 -0.04468,-2e-4 -0.167917,0.056 -0.13015,0.032 3.323535,-2.1013 1.397018,-0.9464 1.120378,-0.5931 -0.04396,0.056 -0.07766,0.1196 -0.116483,0.1794 -0.158187,0.4047 -0.315261,0.8166 -0.284205,1.26 0.0044,0.047 0.05049,0.1116 0.01312,0.1398 -0.253239,0.1908 -1.288556,1.603 -1.677304,0.9368 -0.02331,-0.04 -0.02734,-0.1814 -0.02935,-0.2072 -0.005,-0.065 -0.01,-0.1295 -0.01496,-0.1943 -0.005,-0.4708 -0.02141,-0.9448 -0.117854,-1.4072 -0.01527,-0.058 -0.02728,-0.1172 -0.04582,-0.1743 -0.01363,-0.042 -0.08757,-0.099 -0.05046,-0.1225 2.409677,-1.5547 1.525537,-1.4201 1.64417,-0.6138 0.07942,0.4895 0.134739,0.9852 0.139272,1.4814 8.65e-4,0.8612 0.06062,2.1933 -1.746775,1.7302 -0.37642,-0.2341 -0.549244,-0.68 -0.852181,-0.9906 -0.11701,-0.1575 -0.186828,-0.2576 -0.313581,-0.4051 -0.03916,-0.046 -0.07596,-0.094 -0.122929,-0.1318 -0.02398,-0.019 -0.111224,-0.018 -0.08538,-0.034 0.490227,-0.3137 1.006482,-0.5846 1.509723,-0.877 -0.03052,0.02 -0.06105,0.04 -0.09157,0.06 -0.698951,0.6603 -1.471433,1.4848 -2.178357,0.8103 -0.247929,-0.3385 -0.266393,-0.7319 -0.464396,-1.096 -0.396181,-0.6636 -0.640038,0.1397 1.313286,-1.0522 0.05619,-0.034 -0.126511,0.045 -0.177007,0.088 -0.16542,0.1383 -0.232898,0.3103 -0.332957,0.4953 -0.167382,0.4059 -0.301041,0.821 -0.429251,1.2391 -0.541647,0.3209 -1.701175,1.6339 -2.111851,0.5883 -0.08303,-0.4248 -0.05703,-0.8558 -0.07309,-1.2863 -0.0051,-0.053 -0.0063,-0.1065 -0.01518,-0.159 -0.0085,-0.051 -0.08141,-0.124 -0.03681,-0.1492 1.981099,-1.1211 1.628166,-1.2918 1.737607,-0.2939 0.03804,0.4597 0.0082,0.9258 -0.05442,1.3823 -0.05011,0.1539 -0.06774,0.2343 -0.149202,0.3769 -0.425644,0.7453 -1.405126,1.219 -2.251032,1.1387 -0.70694,-0.1714 -1.269391,-0.5946 -1.720023,-1.1612 -0.271395,-0.3237 -0.535903,-0.655 -0.824934,-0.9634 -0.06848,-0.073 -0.131806,-0.1528 -0.211724,-0.2132 -0.03136,-0.024 -0.145229,-0.01 -0.113376,-0.032 0.469088,-0.3389 0.972998,-0.6269 1.459497,-0.9403 -0.11137,0.4307 -0.01185,0.8857 -0.05375,1.3258 -0.13124,0.8029 -0.658336,0.6512 -1.70206,1.2554 -0.122444,0.071 -0.304732,0 -0.424073,-0.027 -0.426991,-0.2331 -0.686078,-0.6165 -0.848187,-1.0708 -0.01012,-0.037 -0.112262,-0.4374 -0.104206,-0.4422 2.406279,-1.4328 1.729732,-1.3921 1.56626,-0.6204 -0.06116,0.5366 -0.02961,1.1291 -0.273638,1.6199 -0.549908,0.3365 -1.093109,0.6843 -1.649724,1.0096 -0.04025,0.024 -0.08911,0.032 -0.1357,0.034 -0.218058,0.01 -0.367063,-0.1537 -0.411319,-0.3524 -0.03856,-0.3894 1.51e-4,-0.7835 -0.04554,-1.1732 -0.02196,-0.1949 -0.04368,-0.389 -0.08652,-0.5807 -0.0099,-0.044 -0.06975,-0.1042 -0.03374,-0.1317 1.496038,-1.1428 1.076382,-1.4201 1.651687,-0.9886 0.22005,0.1979 0.343872,0.4506 0.381603,0.7455 0.09512,0.5267 0.09233,1.0561 0.05783,1.5894 -0.005,0.093 -0.01794,0.3953 -0.03209,0.4042 -1.470284,0.9223 -1.403416,1.3146 -2.072124,0.499 -0.387647,-0.5308 -0.727894,-1.097 -0.984381,-1.7034 -0.177139,-0.4151 -0.35994,-0.8303 -0.404534,-1.2836 -0.213459,-0.636 -0.03099,-0.04 1.616275,-0.9426 0.01494,-0.01 -0.03587,0.01 -0.04449,0.025 -0.04533,0.077 -0.03351,0.2062 -0.03135,0.2824 0.0022,0.079 0.0086,0.1576 0.01283,0.2363 0.05112,0.6869 0.144316,1.37 0.239788,2.0518 0.06936,0.3432 0.152846,0.6724 0.251979,1.0078 0.02154,0.073 0.119697,0.1712 0.06115,0.2197 -1.405126,1.1638 -1.02319,1.2967 -1.699618,0.9944 -0.183249,-0.1899 -0.288732,-0.4032 -0.406862,-0.6401 -0.215205,-0.4317 -0.41675,-0.8705 -0.595896,-1.3184 -0.05215,-0.1291 -0.107953,-0.2567 -0.156451,-0.3872 -0.03559,-0.096 -0.109213,-0.4517 -0.180348,-0.5461 -0.02008,-0.027 -0.09993,0.1855 -0.09595,0.028 -0.494828,0.1587 -1.01518,0.2244 -1.496175,0.4289 -0.110634,0.051 -0.434728,0.2173 -0.331902,0.1522 0.388804,-0.2463 0.792627,-0.468 1.19189,-0.697 0.111984,-0.064 -0.208696,0.1528 -0.320396,0.2175 -1.653422,0.9578 -1.055637,0.7927 -1.814571,0.9854 -0.334633,0.035 -0.648357,-0.06 -0.93392,-0.2366 -0.380284,-0.2647 -0.715411,-0.5939 -1.00366,-0.9561 1.63971,-1.0984 1.175241,-1.3906 2.010369,-0.6836 0.214709,0.1944 0.429118,0.3873 0.586649,0.6339 0.09394,0.1198 0.22293,0.2989 0.396744,0.2447 0.572332,-0.2863 0.161381,-0.083 -1.363988,0.8073 -0.03665,0.021 0.0739,-0.042 0.107785,-0.068 0.123195,-0.093 0.20469,-0.2252 0.331438,-0.3142 0.566383,-0.5812 0.109189,-0.1331 1.77384,-1.118 0.226788,-0.1342 0.471684,-0.1837 0.70877,-0.046 0.321464,0.3083 0.471958,0.7268 0.46917,1.1718 0.0025,0.094 0.01469,0.3688 -0.0048,0.3821 -0.955979,0.6517 -1.441776,1.4928 -1.905288,0.6776 -0.116172,-0.3354 -0.09359,-0.6011 0.02182,-0.9351 0.01285,-0.044 0.03059,-0.088 0.03856,-0.1334 0.0091,-0.052 0.0069,-0.2158 0.01667,-0.2213 2.240377,-1.27 1.80654,-1.4211 1.619338,-0.6925 -0.0033,0.017 -0.04276,0.2458 -0.06551,0.26 -1.147296,0.716 -1.192974,1.0391 -2.072694,0.8989 -0.392826,-0.054 -0.788194,-0.076 -1.17975,0.01 -0.620584,0.1685 -1.388937,0.7431 1.150492,-0.7388 0.0395,-0.023 -0.08028,0.044 -0.117935,0.07 -0.09108,0.063 -0.165226,0.1347 -0.247399,0.2085 -0.669242,0.4696 -0.230723,0.1679 -1.822337,1.0926 -0.228843,0.1329 -0.486589,0.2167 -0.752144,0.2181 -0.350493,-0.061 -0.595991,-0.2206 -0.724093,-0.5659 -0.136786,-0.3692 -0.223395,-0.7711 -0.476531,-1.0827 -0.09047,-0.085 -0.0952,-0.1159 -0.217786,-0.1364 -0.129113,-0.022 -0.232287,0.06 -0.195453,0.038 1.401056,-0.8415 2.005833,-1.0764 1.384076,-0.8296 -0.208285,0.1712 -0.172371,0.4717 -0.182962,0.7167 -0.01725,0.3693 -0.03522,0.7445 -0.132072,1.1028 -0.243109,0.7506 -0.0346,0.2242 -1.717732,1.0887 -0.03816,0.02 -0.08702,-0 -0.127946,-0.014 -0.147718,-0.046 -0.25384,-0.1828 -0.348166,-0.2949 -0.237693,-0.3801 -0.365452,-0.7309 -0.333542,-1.1876 0.0091,-1.3633 -0.304396,-0.6979 1.582026,-1.9149 0.02976,0.027 0.06377,0.051 0.08927,0.082 0.14943,0.1842 0.121136,0.6993 0.151416,0.9169 -0.0026,0.3258 0.02954,0.6634 -0.007,0.9879 -0.0057,0.05 0.01386,0.1215 -0.02852,0.1491 -0.532725,0.3477 -1.103519,0.6331 -1.655279,0.9496 -0.417511,-0.066 -0.745977,-0.3771 -1.124543,-0.544 -0.204457,-0.09 -0.407874,-0.1801 -0.635658,-0.189 -0.08579,-0 -0.170087,0.042 -0.255437,0.033 -0.03763,-0 -0.06948,-0.03 -0.104219,-0.045 -0.295893,-0.2619 -0.387195,-0.6289 -0.464458,-1.0041 -0.03509,-0.3523 0.0047,-0.018 -0.04465,-0.303 -0.105537,-0.6104 1.075391,-0.6151 1.618085,-0.9137 0.01809,-0.01 -0.03519,0.024 -0.04562,0.042 -0.01897,0.032 -0.02696,0.07 -0.04044,0.1051 -0.08087,0.4327 -0.02645,0.8838 -0.04655,1.3215 0.002,0.4489 0.01255,0.8993 -0.02615,1.347 -0.109935,0.7039 -1.111711,1.4338 -1.7632,1.1145 -0.142459,-0.07 -0.230004,-0.2236 -0.314281,-0.3483 -0.296482,-0.5506 -0.484575,-1.1373 -0.598068,-1.7532 -0.07861,-0.3451 -0.16108,-0.688 -0.277616,-1.0228 -0.02141,-0.062 -0.125227,-0.1433 -0.0724,-0.1814 0.506887,-0.3652 1.075003,-0.6375 1.623657,-0.9363 0.02021,-0.011 -0.01579,0.043 -0.02369,0.065 -0.0324,0.3936 -0.01093,0.7898 -0.03591,1.184 -0.04468,0.8691 -0.03649,2.2253 -1.838982,1.6664 -0.324536,-0.1786 -0.549764,-0.455 -0.720331,-0.7821 -0.526687,-1.0828 -0.209027,-0.743 1.40366,-1.5933 0.01952,-0.01 -0.01065,0.043 -0.01597,0.064 -0.04847,0.3539 -0.01741,0.7161 -0.06651,1.0708 -0.01085,0.1192 -0.009,0.2097 -0.05327,0.3207 -0.279931,0.7027 -1.251241,1.1624 -1.988844,1.0147 -0.294917,-0.085 -0.498782,-0.2484 -0.59567,-0.5501 -0.05373,-0.1617 -0.103288,-0.3297 -0.170258,-0.4865 -0.31746,-0.7431 -1.197184,0.3691 1.486881,-1.0838 -0.01812,0.01 -0.04289,0.01 -0.05436,0.022 -0.152077,0.2091 -0.04238,0.6362 -0.09211,0.877 -0.0045,0.1178 -0.0168,0.5879 -0.01904,0.5896 -0.470125,0.364 -1.239553,1.5367 -1.756662,0.9342 -0.193391,-0.3592 -0.182526,-0.7497 -0.176892,-1.1486 -0.02835,-1.161 -0.370514,-0.4598 1.616997,-1.4925 0.01323,-0.01 -0.01617,0.025 -0.02426,0.038 -0.07821,0.2774 -0.07653,0.5758 -0.230136,0.8305 -0.433858,0.7586 -0.393427,0.4478 -1.801402,1.2688 -0.128309,0.075 -0.293378,0.062 -0.429526,0.027 -0.238388,-0.088 -0.374057,-0.2388 -0.466763,-0.4753 -0.06637,-0.196 -0.146807,-0.3853 -0.08743,-0.5958 0.03821,-0.083 0.04538,-0.1134 0.103805,-0.1839 0.09684,-0.1167 0.226729,-0.1577 0.222183,-0.3383 -0.01034,-0.2595 -0.009,-0.5504 -0.195334,-0.7523 -0.270545,-0.1898 -0.5928119,-0.1684 -0.9051152,-0.1027 -0.6689946,0.2643 -0.1238189,0.057 1.3228212,-0.8088 0.02983,-0.018 -0.06575,0.025 -0.09406,0.045 -0.117598,0.084 -0.14771,0.2224 -0.170976,0.3558 -0.0391,0.4392 -0.103616,0.8732 -0.324084,1.2641 -0.125786,0.1835 -0.2600733,0.3732 -0.4570413,0.4896 -0.7657033,0.4528 -1.3022169,0.8888 -2.0878384,1.0921 -0.379442,0.077 -0.7622992,0.1699 -1.151187,0.1671 -0.4803263,-0.03 -0.9463993,-0.1418 -1.4059061,-0.2825 -0.416172,-0.1114 -0.8497115,-0.1481 -1.2524491,-0.3044 -0.3181448,-0.1331 -0.6315901,-0.2771 -0.95732,-0.391 -0.2807362,-0.1082 -0.5572938,-0.2274 -0.8211017,-0.3729 -0.2810561,-0.1419 -0.5540034,-0.2492 -0.8755537,-0.1896 -0.1157833,0.015 -0.2059847,0.024 -0.31900436,0.055 -0.0492447,0.014 -0.18835101,0.077 -0.14471596,0.051 2.32677592,-1.4173 1.87370902,-0.951 1.26190792,-0.7835 -0.1234951,0.1057 0.1870978,0.2719 0.2485379,0.3505 0.1539594,0.1318 0.328966,0.2381 0.5025963,0.342 0.1239795,0.038 0.209123,-0.034 0.2007194,-0.029 -0.4994612,0.3098 -1.0002205,0.6175 -1.5003307,0.9262 0.072733,-0.032 0.048153,-0.01 0.074088,-0.08 -0.060614,-0.2215 -0.2700069,-0.3324 -0.4039949,-0.5071 -0.058748,-0.1329 -0.079652,-0.2149 0.0066,-0.3452 0.027337,-0.041 0.053669,-0.088 0.095871,-0.1135 1.4367689,-0.882 1.0910958,-0.7328 1.8167062,-1.0282 0.3791504,-0.1425 0.7670962,-0.2617 1.1759938,-0.2701 0.3285922,-0.013 0.6557501,-0.01 0.9320005,0.1961 0.2467023,0.1748 0.4735824,0.283 0.7901686,0.2484 0.7487055,-0.041 1.5046029,-0.1315 2.2521217,-0.055 0.095641,0.026 0.1932527,0.045 0.2869221,0.077 0.1292155,0.044 0.2436435,0.126 0.3733838,0.1687 0.032956,0.011 0.1322453,-0.01 0.1033302,0.012 -1.4793644,0.9805 -2.011749,0.5932 -1.4456161,0.972 -0.023562,-0.061 0.00347,-0.01 -0.084622,-0.079 -0.1350253,-0.1121 -0.1917495,-0.2478 -0.098748,-0.4088 1.7651249,-0.9916 1.2349314,-1.1144 2.4531244,-0.7266 0.2200814,0.064 0.4129145,0.1716 0.6187425,0.2691 0.257044,0.1081 0.496922,0.2278 0.692992,0.4337 0.210783,0.1697 0.443254,0.3077 0.655108,0.4745 0.411018,0.7966 -1.237049,1.2322 -1.9670997,1.161 -0.336327,-0.027 -0.6705243,-0.074 -0.9981245,-0.1568 -0.2843485,-0.074 -0.5706973,-0.1125 -0.8652744,-0.096 -0.2769901,-2e-4 -0.5539808,-7e-4 -0.8309672,-0 -0.308816,-0 -0.6176743,-0.01 -0.9264763,-3e-4 -0.3109841,-0 -0.6219309,-0.01 -0.9329161,-0.011 -0.422793,0 -0.8474711,0.01 -1.265319,0.08 -0.1904928,0.041 -0.2449087,0.047 -0.4270028,0.1108 -0.064526,0.023 -0.248609,0.1122 -0.1904406,0.076 2.3312584,-1.4407 1.615618,-0.9368 1.0936017,-0.6445 0,0 -1.7071244,0.7071 -1.7071244,0.7071 z"
       inkscape:connector-curvature="0" />
    <path
       style="fill:#00ff00;fill-opacity:1;stroke:none;stroke-opacity:1"
       id="path4629"
       d="m 27.196502,1046.3803 c -0.215977,-0.02 -0.419057,0.027 -0.59947,0.1466 1.454593,-0.763 0.505154,-0.4222 0.514648,-0.1953 0.0022,0.053 0.0776,0.1067 0.111461,0.1349 0.218837,0.066 0.942909,-0.3924 -0.536492,0.3437 -0.01984,0.01 0.03282,-0.031 0.04411,-0.05 0.03246,-0.055 0.04094,-0.1183 0.05456,-0.179 0.0089,-0.034 0.0171,-0.069 0.02655,-0.1028 0.0044,-0.016 0.0426,-0.2071 0.06754,-0.2189 0.757312,-0.3565 0.775491,-0.5611 0.711104,-0.2312 -0.09623,0.1824 -0.217126,0.3492 -0.297361,0.5401 -0.0045,0.012 -0.0012,0.035 -0.01344,0.034 -0.0286,-9e-4 -0.03336,-0.063 -0.01425,-0.085 0.01933,-0.021 0.176054,-0.034 0.226045,-0.051 0.33073,-0.2004 -0.200331,0.1232 -0.494495,0.2668 -0.02386,0.012 0.03725,-0.039 0.05126,-0.061 0.03956,-0.064 -0.0045,-0.104 -0.04616,-0.1481 -0.100844,-0.034 -0.191739,-7e-4 -0.294667,-0.036 0,0 0.653608,-0.449 0.653608,-0.449 l 0,0 c 0.109366,0.019 0.221495,6e-4 0.314617,0.077 0.0486,0.056 0.08827,0.085 0.101394,0.1617 0.05157,0.3026 -0.65915,0.549 -0.905346,0.6666 -0.0357,0.01 -0.439377,0.1237 -0.296953,-0.05 0.09403,-0.1809 0.186521,-0.3618 0.293666,-0.5355 0.219714,-0.2228 0.04823,-0.055 0.742208,-0.4228 0.01272,-0.01 -0.02328,0.018 -0.03066,0.03 -0.0493,0.083 -0.05461,0.1837 -0.09177,0.2711 -0.06053,0.4415 -0.417649,0.915 -0.934338,0.6441 -0.466239,-0.4199 0.296885,-0.6202 0.648149,-0.8459 0.202447,-0.1001 0.41435,-0.1327 0.639628,-0.1256 0,0 -0.645144,0.4687 -0.645144,0.4687 z"
       inkscape:connector-curvature="0" />
    <path
       style="fill:#00ff00;fill-opacity:1;stroke:none;stroke-opacity:1"
       id="path4631"
       d="m 28.304695,1045.3595 c -0.119752,0.186 -0.200437,0.4022 -0.182999,0.6252 0.0038,0.01 0.01443,0.04 0.01139,0.03 -0.09274,-0.312 -0.120632,0.048 -0.689653,0.3178 -0.03899,0.019 0.01742,-0.085 0.02217,-0.1275 0,0 0.711812,-0.3515 0.711812,-0.3515 l 0,0 c -0.0063,0.045 0.0236,0.1079 -0.01241,0.1355 -0.02227,0.017 -0.67991,0.7555 -0.743522,0.3565 -0.0037,-0.2339 0.04952,-0.4578 0.155114,-0.6674 0,0 0.728102,-0.3186 0.728102,-0.3186 z"
       inkscape:connector-curvature="0" />
    <path
       style="fill:#00ff00;fill-opacity:1;stroke:none;stroke-opacity:1"
       id="path4633"
       d="m 28.598506,1044.3918 c 0.01644,0.1514 -0.05335,0.3378 0.004,0.4835 -1.105155,0.5825 -0.626988,0.5062 -0.720183,0.094 0.239398,-0.1112 0.47125,-0.2404 0.718192,-0.3336 2.65e-4,-10e-5 -0.0032,0.026 -0.0065,0.1507 -0.0031,0.1153 -0.0038,0.2306 -0.0048,0.3459 -0.02689,0.2338 -0.116209,0.472 -0.250222,0.666 -0.677537,0.6257 -0.860059,0.6804 -0.860316,0.056 0.0043,-0.2825 0.0093,-0.565 0.01202,-0.8476 0.0023,-0.2742 0.0025,-0.5485 0.0026,-0.8227 8e-5,-0.2703 1.1e-5,-0.5406 -2.1e-5,-0.811 -0.01597,-0.4079 -0.128057,-0.1835 0.70241,-0.5038 0.01957,-0.01 -0.0031,0.042 -0.0041,0.063 -0.0014,0.029 -0.0021,0.058 -0.0031,0.088 -0.0059,0.2513 -0.0058,0.5028 -0.0062,0.7542 -1.96e-4,0.2732 -3.7e-5,0.5464 3.6e-5,0.8196 -0.05745,0.037 0.07986,0.4692 0.05398,0.2918 0,0 -0.634194,0.4957 -0.634194,0.4957 l 0,0 c -0.125462,-0.1017 -0.106525,-0.2887 -0.108823,-0.4364 7.3e-5,-0.2732 2.32e-4,-0.5464 3.5e-5,-0.8197 -3.62e-4,-0.2493 -1.91e-4,-0.4986 -0.0061,-0.7479 -0.001,-0.028 -0.0017,-0.056 -0.0031,-0.085 -9.81e-4,-0.02 -0.02062,-0.048 -0.0041,-0.059 0.865246,-0.5481 0.714344,-0.623 0.702489,-0.212 3e-5,0.2704 1.03e-4,0.5408 -8.4e-5,0.8112 -3.07e-4,0.2746 -7.59e-4,0.5493 -0.0036,0.8239 -0.0032,0.2814 -0.0094,0.5627 -0.009,0.8441 0.01262,0.4992 0.127179,0.2018 -0.622972,0.6462 -0.0244,0.014 0.04947,-0.028 0.0742,-0.042 0.152858,-0.1676 0.226703,-0.4028 0.276211,-0.6205 -0.0057,-0.6671 -0.166477,-0.4127 0.70687,-0.8835 -0.08951,0.4873 0.32502,0.1696 -0.720183,0.64 0.04359,-0.1552 -0.0033,-0.3294 0.004,-0.4874 0,0 0.710526,-0.3621 0.710526,-0.3621 z"
       inkscape:connector-curvature="0" />
    <path
       style="fill:#00ff00;fill-opacity:1;stroke:none;stroke-opacity:1"
       id="path4635"
       d="m 27.202464,1043.1816 c -0.06402,-0.2136 -0.0666,-0.3905 0.06547,-0.5732 0.130581,-0.142 0.281176,-0.2633 0.422232,-0.3944 0.498704,-0.4461 0.837799,-0.7385 0.892897,-0.151 0.01232,0.2555 0.0083,0.5115 0.0073,0.7673 0.01368,0.4119 0.122814,0.1898 -0.704098,0.5095 -0.01938,0.01 0.0028,-0.042 0.0037,-0.062 0.0013,-0.029 0.002,-0.058 0.0029,-0.087 -0.002,-0.2436 0.02285,-0.4894 -0.0097,-0.7314 -0.03196,-0.2333 -0.166192,-0.4304 -0.325579,-0.5977 -0.127681,-0.1163 -0.25383,-0.1189 -0.404671,-0.051 -0.03442,0.016 -0.134899,0.068 -0.102124,0.049 0.190808,-0.1093 0.38429,-0.214 0.576436,-0.3209 -0.170855,0.1495 -0.300869,0.3361 -0.399289,0.5393 -0.04782,0.1632 -0.174047,0.422 -0.04979,0.5782 0.534618,-0.3166 -0.928417,0.6533 -0.361779,0.1743 0.190129,-0.1061 0.29518,-0.2428 0.356689,-0.449 0.002,-0.034 0.01399,-0.1151 -0.0051,-0.154 -0.01449,-0.029 -0.07433,0.049 -0.05281,0.038 0.603289,-0.3052 0.793264,-0.5194 0.563148,-0.2761 -0.08088,0.1461 -0.212196,0.4061 -0.05636,0.5421 0.273983,-0.018 0.8188,-0.3063 -0.355278,0.2676 -0.02982,0.015 0.04958,-0.045 0.06971,-0.071 0.02132,-0.028 0.03583,-0.061 0.05374,-0.091 0.06938,-0.145 0.230212,-0.34 0.105749,-0.4923 -0.227284,-0.061 -0.86104,0.3061 0.397011,-0.3021 0.07972,-0.039 -0.131609,0.1186 -0.194166,0.1813 -0.102036,0.1261 -0.287532,0.3166 -0.236183,0.5 -0.237346,0.1113 -0.474692,0.2226 -0.712038,0.3338 0,0 0.7126,-0.3654 0.7126,-0.3654 l 0,0 c -0.236724,0.1354 -0.473448,0.2708 -0.710172,0.4062 -0.01752,-0.219 0.09338,-0.4168 0.231405,-0.5783 0.300891,-0.3066 0.769023,-0.8388 1.190833,-0.5783 0.1352,0.1932 0.03643,0.3888 -0.07374,0.5737 -0.16811,0.389 -0.339943,0.3533 -0.860648,0.6385 -0.0912,0.05 -0.206669,0.03 -0.293463,-0.014 -0.153769,-0.1926 -0.0795,-0.4313 0.0098,-0.6405 0.198004,-0.338 0.970986,-0.8537 0.919524,-0.2552 -0.04701,0.211 -0.121517,0.3971 -0.331126,0.4917 -0.319382,0.2536 -0.237067,0.1961 -0.869727,0.5482 -0.06462,0.036 -0.13145,0.019 -0.182752,-0.028 -0.11789,-0.1981 -0.03051,-0.4512 0.02847,-0.6565 0.09075,-0.2166 0.221755,-0.4038 0.379761,-0.577 0.130448,-0.077 0.751477,-0.5953 1.106809,-0.4974 0.100487,0.028 0.133762,0.068 0.213106,0.1309 0.166856,0.1815 0.314586,0.3894 0.349866,0.6391 0.03284,0.2438 0.01087,0.4906 0.0232,0.736 0.0011,0.028 0.0018,0.056 0.0033,0.084 0.001,0.019 0.02044,0.047 0.0042,0.057 -0.872562,0.5492 -0.713968,0.6193 -0.700542,0.207 5.73e-4,-0.2516 0.004,-0.5037 -0.01314,-0.7549 -0.04817,-0.4243 -0.245827,-0.074 0.588043,-0.5568 0.02186,-0.013 -0.04086,0.03 -0.06129,0.045 -0.130861,0.1394 -0.284789,0.255 -0.425277,0.3842 -0.154202,0.191 -0.181211,0.2511 -0.08914,0.499 0,0 -0.697879,0.3844 -0.697879,0.3844 z"
       inkscape:connector-curvature="0" />
    <path
       style="fill:none;fill-rule:evenodd;stroke:#000000;stroke-width:1px;stroke-linecap:butt;stroke-linejoin:miter;stroke-opacity:1"
       d="m 26.891892,1042.7676 c 0.225225,0 0.45045,0 0.675676,0 0.04504,0 0.135135,-0.045 0.135135,0 0,0.045 -0.135135,0.045 -0.135135,0 0,-0.064 0.09009,-0.09 0.135135,-0.1351"
       id="path4637"
       inkscape:connector-curvature="0" />
    <path
       style="fill:none;fill-rule:evenodd;stroke:#000000;stroke-width:1px;stroke-linecap:butt;stroke-linejoin:miter;stroke-opacity:1"
       d="m 27.567568,1041.6865 -0.270271,0"
       id="path4639"
       inkscape:connector-curvature="0" />
    <path
       style="fill:none;fill-rule:evenodd;stroke:#000000;stroke-width:1px;stroke-linecap:butt;stroke-linejoin:miter;stroke-opacity:1"
       d="m 28.108108,1041.9568 c 0,-0.7207 0,-0.7207 0,0 z"
       id="path4641"
       inkscape:connector-curvature="0" />
    <path
       style="fill:none;fill-rule:evenodd;stroke:#000000;stroke-width:1px;stroke-linecap:butt;stroke-linejoin:miter;stroke-opacity:1"
       d="m 25.810811,1043.173 c 0.576576,0.4324 0.54054,0.1802 0.54054,0.5406 0,0.045 0.04504,0.1351 0,0.1351 -0.09009,0 0.0637,-0.2066 0,-0.2703 -0.159258,-0.1592 -0.428797,-0.2098 -0.54054,-0.4054 -0.08939,-0.1564 0.0437,-0.3657 0,-0.5405 -0.01093,-0.044 -0.103284,0.032 -0.135135,0 -0.03185,-0.032 0,-0.09 0,-0.1352 0,-0.045 0,-0.09 0,-0.1351 0,-0.045 -0.04504,-0.1351 0,-0.1351 0.04505,0 -0.04504,0.1351 0,0.1351 0.198367,0 0.135135,0.032 0.135135,-0.1351"
       id="path4643"
       inkscape:connector-curvature="0" />
  </g>
</svg>
