<?xml version="1.0" encoding="UTF-8" standalone="no"?>
<!-- Created with Inkscape (http://www.inkscape.org/) -->

<svg
   xmlns:dc="http://purl.org/dc/elements/1.1/"
   xmlns:cc="http://creativecommons.org/ns#"
   xmlns:rdf="http://www.w3.org/1999/02/22-rdf-syntax-ns#"
   xmlns:svg="http://www.w3.org/2000/svg"
   xmlns="http://www.w3.org/2000/svg"
   xmlns:sodipodi="http://sodipodi.sourceforge.net/DTD/sodipodi-0.dtd"
   xmlns:inkscape="http://www.inkscape.org/namespaces/inkscape"
   width="50"
   height="50"
   viewBox="0 0 50 50"
   id="svg2"
   version="1.1"
   inkscape:version="0.91 r13725"
   sodipodi:docname="gusenica.svg">
  <defs
     id="defs4">
    <inkscape:path-effect
       effect="powerstroke"
       id="path-effect4223"
       is_visible="true"
       offset_points="0,0.5"
       sort_points="true"
       interpolator_type="Linear"
       interpolator_beta="0.2"
       start_linecap_type="zerowidth"
       linejoin_type="round"
       miter_limit="4"
       end_linecap_type="zerowidth"
       cusp_linecap_type="round" />
    <inkscape:path-effect
       effect="powerstroke"
       id="path-effect4219"
       is_visible="true"
       offset_points="0,0.5"
       sort_points="true"
       interpolator_type="Linear"
       interpolator_beta="0.2"
       start_linecap_type="zerowidth"
       linejoin_type="round"
       miter_limit="4"
       end_linecap_type="zerowidth"
       cusp_linecap_type="round" />
    <inkscape:path-effect
       effect="powerstroke"
       id="path-effect4215"
       is_visible="true"
       offset_points="0,0.5"
       sort_points="true"
       interpolator_type="Linear"
       interpolator_beta="0.2"
       start_linecap_type="zerowidth"
       linejoin_type="round"
       miter_limit="4"
       end_linecap_type="zerowidth"
       cusp_linecap_type="round" />
    <inkscape:path-effect
       effect="powerstroke"
       id="path-effect4211"
       is_visible="true"
       offset_points="0,0.5"
       sort_points="true"
       interpolator_type="Linear"
       interpolator_beta="0.2"
       start_linecap_type="zerowidth"
       linejoin_type="round"
       miter_limit="4"
       end_linecap_type="zerowidth"
       cusp_linecap_type="round" />
    <inkscape:path-effect
       effect="powerstroke"
       id="path-effect4207"
       is_visible="true"
       offset_points="0,0.5"
       sort_points="true"
       interpolator_type="Linear"
       interpolator_beta="0.2"
       start_linecap_type="zerowidth"
       linejoin_type="round"
       miter_limit="4"
       end_linecap_type="zerowidth"
       cusp_linecap_type="round" />
    <inkscape:path-effect
       effect="powerstroke"
       id="path-effect4203"
       is_visible="true"
       offset_points="0,0.5"
       sort_points="true"
       interpolator_type="Linear"
       interpolator_beta="0.2"
       start_linecap_type="zerowidth"
       linejoin_type="round"
       miter_limit="4"
       end_linecap_type="zerowidth"
       cusp_linecap_type="round" />
    <inkscape:path-effect
       effect="powerstroke"
       id="path-effect4199"
       is_visible="true"
       offset_points="0,0.5"
       sort_points="true"
       interpolator_type="Linear"
       interpolator_beta="0.2"
       start_linecap_type="zerowidth"
       linejoin_type="round"
       miter_limit="4"
       end_linecap_type="zerowidth"
       cusp_linecap_type="round" />
    <inkscape:path-effect
       effect="powerstroke"
       id="path-effect4195"
       is_visible="true"
       offset_points="0,0.5"
       sort_points="true"
       interpolator_type="Linear"
       interpolator_beta="0.2"
       start_linecap_type="zerowidth"
       linejoin_type="round"
       miter_limit="4"
       end_linecap_type="zerowidth"
       cusp_linecap_type="round" />
    <inkscape:path-effect
       effect="powerstroke"
       id="path-effect4191"
       is_visible="true"
       offset_points="0,0.5"
       sort_points="true"
       interpolator_type="Linear"
       interpolator_beta="0.2"
       start_linecap_type="zerowidth"
       linejoin_type="round"
       miter_limit="4"
       end_linecap_type="zerowidth"
       cusp_linecap_type="round" />
    <inkscape:path-effect
       effect="powerstroke"
       id="path-effect4187"
       is_visible="true"
       offset_points="0,0.5"
       sort_points="true"
       interpolator_type="Linear"
       interpolator_beta="0.2"
       start_linecap_type="zerowidth"
       linejoin_type="round"
       miter_limit="4"
       end_linecap_type="zerowidth"
       cusp_linecap_type="round" />
    <inkscape:path-effect
       effect="powerstroke"
       id="path-effect4183"
       is_visible="true"
       offset_points="0,0.5"
       sort_points="true"
       interpolator_type="Linear"
       interpolator_beta="0.2"
       start_linecap_type="zerowidth"
       linejoin_type="round"
       miter_limit="4"
       end_linecap_type="zerowidth"
       cusp_linecap_type="round" />
    <inkscape:path-effect
       effect="powerstroke"
       id="path-effect4164"
       is_visible="true"
       offset_points="0,0.5"
       sort_points="true"
       interpolator_type="Linear"
       interpolator_beta="0.2"
       start_linecap_type="zerowidth"
       linejoin_type="round"
       miter_limit="4"
       end_linecap_type="zerowidth"
       cusp_linecap_type="round" />
    <inkscape:path-effect
       effect="skeletal"
       id="path-effect4160"
       is_visible="true"
       pattern="m 0,802.36216 c 0,-2.76 2.24,-5 5,-5 2.76,0 5,2.24 5,5 0,2.76 -2.24,5 -5,5 -2.76,0 -5,-2.24 -5,-5 z"
       copytype="single_stretched"
       prop_scale="1"
       scale_y_rel="false"
       spacing="0"
       normal_offset="0"
       tang_offset="0"
       prop_units="false"
       vertical_pattern="false"
       fuse_tolerance="0" />
    <inkscape:path-effect
       effect="powerstroke"
       id="path-effect4156"
       is_visible="true"
       offset_points="0,0.5"
       sort_points="true"
       interpolator_type="Linear"
       interpolator_beta="0.2"
       start_linecap_type="zerowidth"
       linejoin_type="round"
       miter_limit="4"
       end_linecap_type="zerowidth"
       cusp_linecap_type="round" />
  </defs>
  <sodipodi:namedview
     id="base"
     pagecolor="#ffffff"
     bordercolor="#666666"
     borderopacity="1.0"
     inkscape:pageopacity="0.0"
     inkscape:pageshadow="2"
     inkscape:zoom="9.1100744"
     inkscape:cx="23.063371"
     inkscape:cy="26.243048"
     inkscape:document-units="px"
     inkscape:current-layer="layer1"
     showgrid="false"
     units="px"
     inkscape:window-width="1024"
     inkscape:window-height="697"
     inkscape:window-x="-4"
     inkscape:window-y="-4"
     inkscape:window-maximized="1" />
  <metadata
     id="metadata7">
    <rdf:RDF>
      <cc:Work
         rdf:about="">
        <dc:format>image/svg+xml</dc:format>
        <dc:type
           rdf:resource="http://purl.org/dc/dcmitype/StillImage" />
        <dc:title></dc:title>
      </cc:Work>
    </rdf:RDF>
  </metadata>
  <g
     inkscape:label="Layer 1"
     inkscape:groupmode="layer"
     id="layer1"
     transform="translate(0,-1002.3622)">
    <path
       style="fill:#66ff00;fill-opacity:1;stroke:none;stroke-opacity:1"
       id="path4645"
       d="m 15.738793,1010.3347 c -0.03528,0.3226 -0.03236,0.6483 -0.02908,0.9724 -0.0099,0.3313 0.01368,0.662 0.08115,0.9865 0.06479,0.2393 0.103161,0.4841 0.163433,0.7244 0.06573,0.2522 0.288276,0.4011 0.469642,0.5704 0.369515,0.374 0.682074,0.7971 1.042931,1.1788 0.359917,0.3541 0.773188,0.6461 1.192947,0.9238 0.222235,0.1747 0.467049,0.2907 0.744069,0.3404 0.254216,0.031 0.500557,-0.077 0.748048,-0.1265 0.300328,-0.055 0.602166,-0.046 0.899834,-0.1173 0.339225,-0.1519 0.706246,-0.1995 1.064377,-0.2853 0.430367,-0.1042 0.844419,-0.2373 1.226263,-0.4636 -1.266874,0.7602 -0.727438,0.4578 -0.490665,0.1554 0.107589,-0.1374 0.187579,-0.2854 0.268535,-0.4392 0.156182,-0.2815 0.315206,-0.5611 0.45516,-0.8512 0.175874,-0.3081 0.258293,-0.6447 0.303459,-0.993 0.03326,-0.3214 0.03711,-0.6456 0.03722,-0.9686 0.0081,-0.4138 0.01346,-0.8277 0.0064,-1.2416 -0.007,-0.2952 -0.0144,-0.5905 -0.01811,-0.8858 0.01387,-0.2327 -0.06712,-0.4444 -0.176628,-0.645 -0.148593,-0.2572 -0.268854,-0.5288 -0.411017,-0.7894 -0.147032,-0.2771 -0.317857,-0.5381 -0.558978,-0.7413 -0.24339,-0.1419 -0.500265,-0.2566 -0.738563,-0.407 -0.229792,-0.1707 -0.480687,-0.3 -0.754763,-0.3809 -0.229323,-0.058 -0.466482,-0.064 -0.701718,-0.067 -0.320731,-0.01 -0.641505,-0.01 -0.962295,-0.01 -0.293173,0.013 -0.600337,-0.031 -0.88738,0.052 -0.06927,0.02 -0.134467,0.052 -0.201701,0.078 -0.610267,0.2959 -1.204682,0.6233 -1.800653,0.9467 -0.67192,0.3875 0.109955,-0.065 0.353257,-0.1895 0.05956,-0.03 -0.111274,0.074 -0.166394,0.112 -0.137996,0.095 -0.270849,0.1961 -0.405224,0.2958 -0.233582,0.164 -0.401742,0.3891 -0.564415,0.619 -0.08907,0.1384 -0.260674,0.2823 -0.23875,0.4625 0.08767,0.2077 0.09729,0.432 0.1097,0.6541 0.01577,0.324 0.02293,0.6485 0.02959,0.9729 0.0046,0.2381 0.0054,0.4764 0.0058,0.7146 0.0017,0.1928 -0.01857,0.405 0.09232,0.573 0.01339,0.015 0.02408,0.033 0.04016,0.045 0.148259,0.1123 0.342877,0.1939 0.499564,0.2909 0.07251,0.045 0.669681,0.4323 0.708634,0.4575 0.68528,0.4383 1.435496,0.7772 2.247226,0.8908 0.183638,0.026 0.369701,0.029 0.554551,0.044 0.507389,0 1.022856,-0.044 1.501028,-0.2273 0.124233,-0.048 0.478862,-0.2324 0.357878,-0.177 -0.598224,0.2741 -0.658009,0.4157 -0.322102,0.01 0.355006,-0.6218 0.359335,-1.353 0.377254,-2.0497 0.0223,-0.661 -0.0055,-1.3447 -0.315579,-1.9456 -0.05921,-0.1148 -0.136913,-0.219 -0.20537,-0.3284 -0.08719,-0.095 -0.16483,-0.2004 -0.26158,-0.286 -0.401025,-0.3548 -0.965454,-0.5514 -1.492272,-0.6027 -0.133112,-0.013 -0.267438,-0 -0.401158,-0.01 -0.375861,0.022 -0.756115,0.071 -1.108082,0.2131 -0.09695,0.039 -0.373087,0.1892 -0.279648,0.1422 0.683756,-0.3437 0.755936,-0.4867 0.450619,-0.112 -0.294437,0.5667 -0.308975,1.217 -0.265901,1.8405 0.04117,0.1972 0.037,0.2542 0.136323,0.4309 0.178467,0.3175 0.606994,0.6816 0.863144,0.9358 0.544922,0.5309 1.045883,1.1138 1.652216,1.5786 0.412612,0.3163 0.577124,0.3893 1.025742,0.6435 0.464121,0.2106 0.944083,0.4277 1.449621,0.5214 0.120654,0.022 0.244199,0.036 0.366817,0.031 0.09888,-0 0.368428,-0.1183 0.291533,-0.056 -0.182362,0.1477 -0.416178,0.217 -0.624267,0.3255 0.05833,-0.079 0.128897,-0.1512 0.174987,-0.2383 0.272758,-0.5155 0.283706,-1.2884 0.268878,-1.8582 -0.104481,-0.7741 -0.424723,-1.3082 -1.017773,-1.8167 -0.133691,-0.1147 -0.281047,-0.2123 -0.42157,-0.3185 -0.624683,-0.42 -1.301451,-0.7467 -2.025804,-0.9532 -0.418896,-0.1195 -0.573087,-0.136 -0.995069,-0.2106 -0.419297,-0.029 -0.838015,-0.021 -1.23726,0.1249 -0.107525,0.039 -0.411251,0.2016 -0.310376,0.1474 0.699948,-0.3764 0.70038,-0.4204 0.377239,-0.088 -0.272144,0.339 -0.370474,0.7442 -0.406165,1.1674 0.0055,0.088 -0.0018,0.1534 0.04443,0.2319 0.13056,0.2217 0.433044,0.3414 0.647052,0.4524 0.425274,0.2262 0.890177,0.3531 1.355098,0.4676 0.266099,0.058 0.533863,0.105 0.794248,-0 0.06236,-0.026 0.23785,-0.1294 0.177678,-0.098 -0.228912,0.118 -0.455969,0.2395 -0.683953,0.3592 0.05562,-0.064 0.119253,-0.1227 0.166859,-0.1933 0.266204,-0.3946 0.392197,-1.0078 0.385622,-1.4751 -0.0021,-0.1514 -0.03228,-0.3012 -0.04842,-0.4518 -0.03855,-0.1366 -0.06252,-0.2783 -0.115652,-0.4099 -0.155799,-0.3861 -0.539065,-0.8392 -0.985143,-0.8881 -0.101079,-0.011 -0.201841,0.025 -0.302762,0.037 -0.09663,0.063 -0.401423,0.1593 -0.28988,0.188 0.160409,0.041 0.388804,-0.2803 0.476763,-0.14 0.09316,0.1487 -0.203513,0.2867 -0.288735,0.44 -0.261854,0.4711 -0.398672,0.977 -0.529131,1.4949 -0.0122,0.2087 -0.04206,0.4172 -0.03659,0.6262 0.02273,0.8694 0.302831,1.7072 0.734711,2.4525 0.05792,0.077 0.110673,0.1573 0.173759,0.2297 0.04618,0.053 0.179378,0.1873 0.268744,0.2075 0.02605,0.01 0.1008,-0.034 0.07732,-0.021 -0.920241,0.4993 -0.874886,0.787 -0.886233,0.3308 -0.28599,-1.4247 -0.774357,-2.7975 -1.301888,-4.1478 -0.285786,-0.6432 -0.581011,-1.2921 -1.00326,-1.8602 -0.08609,-0.1159 -0.305,-0.4158 -0.501885,-0.4489 -0.05205,-0.01 -0.09615,0.044 -0.144231,0.065 0.254911,-0.1093 0.487393,-0.325 0.764731,-0.3279 0.112306,-0 -0.0808,0.2109 -0.102098,0.3211 -0.02678,0.1387 -0.03756,0.2805 -0.04133,0.4217 -0.01495,0.5602 0.103435,1.0264 0.254398,1.5596 0.169675,0.4364 0.366086,0.8725 0.643319,1.2533 0.183145,0.2516 0.41431,0.476 0.641206,0.6873 0.131241,0.1367 0.500764,0.3671 0.536682,0.569 0.0052,0.029 -0.0042,0.059 -0.0063,0.089 -0.325503,0.1961 -0.638954,0.4137 -0.97651,0.5882 -0.03479,0.018 -0.07803,-0.011 -0.115023,-0.024 -0.333947,-0.1159 -0.501233,-0.5053 -0.676936,-0.781 -0.201257,-0.306 -0.374772,-0.6294 -0.576775,-0.9348 -0.08637,-0.1306 -0.19215,-0.3158 -0.339283,-0.3912 0.313821,-0.1605 0.608657,-0.3653 0.941464,-0.4814 0.04583,-0.016 0.01575,0.096 0.03104,0.1423 0.02615,0.079 0.05738,0.156 0.09289,0.231 0.131815,0.2785 0.311419,0.5166 0.496466,0.7607 0.251811,0.3614 0.644598,0.5791 0.926739,0.9096 0.202976,0.1997 0.257091,0.4733 0.295754,0.7442 0.001,0.1255 -0.0304,0.2753 -0.148137,0.349 -0.369782,0.2313 -0.748579,0.6874 -1.171865,0.5821 -0.06357,-0.016 -0.119836,-0.053 -0.179754,-0.079 -0.577082,-0.4563 -0.925178,-1.1153 -1.228612,-1.7704 -0.24366,-0.5345 -0.381396,-1.1001 -0.45128,-1.6805 -0.01694,-0.2548 -0.0983,-0.5557 0.09044,-0.7639 0.330871,-0.1702 0.648435,-0.3693 0.992615,-0.5108 0.0306,-0.013 0.112481,0.1091 0.143339,0.1919 0.08298,0.2228 0.09487,0.483 0.136962,0.7151 0.124912,0.6961 0.282742,1.3458 0.534017,2.0071 0.135688,0.3489 0.311199,0.6776 0.505149,0.9968 0.17039,0.2506 0.2975,0.5275 0.435849,0.7963 0.115112,0.2189 0.189368,0.4686 0.393732,0.6211 0.197321,0.099 0.425881,0.091 0.641426,0.097 0.28538,0.02 0.564107,-0.017 0.8453,-0.058 0.205742,-0.029 0.417557,-0.013 0.620752,-0.061 0.322912,-0.075 0.758467,-0.382 -0.631692,0.3797 0.250927,-0.1739 0.414543,-0.4253 0.55406,-0.6903 0.127617,-0.2307 0.163356,-0.4859 0.190549,-0.7436 -0.0031,-0.062 -0.0018,-0.1238 -0.0092,-0.1852 -0.01975,-0.1624 -0.05972,-0.282 -0.09784,-0.4423 -0.07047,-0.2961 -0.135778,-0.5936 -0.19864,-0.8914 -0.0986,-0.4698 -0.185758,-0.9513 -0.414358,-1.3782 -0.18558,-0.3463 -0.497185,-0.5979 -0.800953,-0.8362 -0.218392,-0.135 -0.441423,-0.3172 -0.713315,-0.3205 -0.0689,-9e-4 -0.139557,0.013 -0.202863,0.04 -0.06101,0.026 -0.223446,0.1403 -0.161357,0.1168 0.239216,-0.091 0.465036,-0.2134 0.697553,-0.3201 -0.04785,0.1052 -0.109821,0.205 -0.143539,0.3155 -0.197032,0.6458 -0.127368,1.3627 0.04078,2.0047 0.04527,0.1729 0.108141,0.3407 0.162211,0.511 0.355801,0.9352 1.001641,1.7098 1.524982,2.5508 0.217405,0.328 0.415829,0.6691 0.639781,0.9928 0.118486,0.1713 0.227679,0.3291 0.406912,0.4361 0.395198,-0.1999 -0.523164,0.3171 -0.809232,0.4194 -0.05302,0.019 0.04769,-0.1034 0.05743,-0.1588 0.01772,-0.1009 0.02134,-0.2039 0.0243,-0.3063 0.01327,-0.4585 -0.01199,-0.6793 -0.04,-1.1619 -0.07158,-1.0696 -0.31388,-2.1201 -0.636551,-3.14 -0.09302,-0.294 -0.290273,-0.8825 -0.497147,-1.1725 -0.04502,-0.063 -0.122595,-0.095 -0.183892,-0.1423 -0.233037,0.4393 0.06511,-0.1885 0.753003,-0.1997 0.104294,-0 -0.01781,0.2083 -0.01554,0.3126 0.0072,0.3326 0.07895,0.6599 0.148283,0.9835 0.0868,0.3994 0.302858,0.7685 0.343929,1.1773 -0.332478,1.2691 -1.341934,0.549 -1.907088,0.26 -0.283643,-0.1142 -0.601634,-0.2968 -0.921137,-0.2781 -0.04654,0 -0.175079,0.06 -0.135114,0.036 0.266429,-0.1601 0.545656,-0.2977 0.818484,-0.4466 -0.137939,0.1384 0.02635,0.3508 0.106687,0.4818 0.131396,0.2172 0.188789,0.4682 0.319665,0.6858 0.101811,0.1795 0.223548,0.3456 0.295519,0.5401 0.06034,0.2013 0.06395,0.4128 0.06828,0.6212 0.01075,0.1457 -0.01821,0.3187 0.01724,0.4506 -0.0066,-0.022 -0.01949,-0.042 -0.01974,-0.064 -8.03e-4,-0.072 0.301782,-0.076 0.341477,-0.08 0.216348,-0.01 0.446618,-0.066 0.648702,0.031 0.126608,0.1538 0.05489,0.3287 -0.05571,0.4672 -0.02289,0.018 -0.0433,0.04 -0.06868,0.054 -0.32899,0.1867 -0.65771,0.3742 -0.993489,0.5484 -0.05854,0.03 -0.22159,0.044 -0.284171,0.019 -0.0234,-0.01 -0.03819,-0.033 -0.05729,-0.049 -0.0031,-0.037 -0.02042,-0.075 -0.0092,-0.1107 0.01069,-0.034 0.03957,-0.061 0.06971,-0.08 0.33161,-0.2025 0.673064,-0.3885 1.011016,-0.5802 0.132801,-0.075 0.272504,-0.1326 0.404618,-0.2097 0.230502,-0.1498 0.505646,-0.1666 0.764544,-0.2309 0.332974,-0.1569 0.916444,-0.4347 -0.59616,0.3471 -0.02844,0.015 0.04646,-0.044 0.06589,-0.07 0.04854,-0.063 0.05529,-0.097 0.08379,-0.1705 0.09484,-0.3316 -0.09588,-0.6445 -0.246047,-0.9283 -0.203904,-0.3498 -0.442346,-0.6759 -0.84896,-0.7834 -0.04806,0.01 -0.09893,0 -0.144191,0.017 -0.04757,0.018 -0.172268,0.1076 -0.126488,0.085 0.249658,-0.121 0.475742,-0.2956 0.739263,-0.3824 0.06818,-0.023 -0.08664,0.1152 -0.120309,0.1786 -0.104302,0.1964 -0.104734,0.2699 -0.153691,0.4883 -0.05442,0.5707 0.202815,1.0601 0.585357,1.4621 0.216467,0.2123 0.475385,0.3908 0.786973,0.393 -0.07383,0.1152 0.457741,-0.2226 0.318362,-0.1457 -0.25979,0.1434 -0.511272,0.302 -0.775068,0.4379 -0.04502,0.023 0.07946,-0.063 0.115847,-0.098 0.04101,-0.04 0.07728,-0.084 0.115912,-0.1261 0.255107,-0.3303 0.309932,-0.7452 0.345963,-1.1484 0.0318,-0.2607 -0.03414,-0.5388 0.08362,-0.7817 0.385137,-0.4909 0.89922,-0.6393 1.447195,-0.6438 0.246466,0.014 0.495606,-0.013 0.740061,0.024 0.414641,0.092 -0.123649,0.4683 -0.236417,0.5671 -0.364223,0.3043 -0.718204,0.6202 -1.048734,0.9609 -0.06155,0.075 -0.108321,0.1227 -0.153656,0.2073 -0.01351,0.025 -0.02464,0.052 -0.03135,0.08 -0.0012,0 0.0087,0.018 0.0091,0.013 0.0019,-0.025 0.0185,-0.085 -0.0044,-0.075 -0.292762,0.1308 -0.564821,0.3037 -0.847232,0.4556 0.405772,-0.4532 0.603169,-1.0506 0.789412,-1.619 0.166592,-0.4417 0.234965,-0.933 0.492839,-1.3351 0.261243,-0.3443 1.226313,-1.0263 1.182315,-0.3172 -0.06192,0.2082 -0.168707,0.3945 -0.222285,0.6059 -0.05444,0.2581 -0.05742,0.5225 -0.05979,0.7851 0.0037,0.2005 -0.07217,0.3787 -0.152382,0.5575 -0.08346,0.1869 -0.173411,0.3706 -0.284197,0.543 -0.333623,0.4191 -0.734921,0.5958 -1.290142,0.7846 -0.04419,0.015 -0.04667,-0.081 -0.07,-0.1212 -0.01431,-0.034 -0.0252,-0.069 -0.04292,-0.1014 -0.0081,-0.015 -0.02574,-0.052 -0.03361,-0.037 -0.01149,0.022 -0.0067,0.082 0.01531,0.072 0.313619,-0.1518 0.592676,-0.3695 0.907622,-0.5186 0.02548,-0.012 0.0053,0.056 0.01082,0.084 0.0074,0.037 0.01849,0.074 0.02773,0.1105 0.06323,0.1448 0.177445,0.3848 0.344695,0.2055 -1.44892,0.809 -0.97778,0.6454 -0.744785,0.3788 0.112195,-0.1284 0.201688,-0.2829 0.292027,-0.4268 0.135279,-0.2085 0.283702,-0.4069 0.393277,-0.6307 0.146159,-0.3843 0.152038,-0.8046 0.159625,-1.2107 0.01348,-0.3146 -0.0073,-0.6226 -0.06612,-0.9309 -0.04697,-0.2495 -0.05286,-0.5044 -0.05394,-0.7576 -0.01156,-0.3292 -0.07662,-0.6542 -0.194118,-0.9615 -0.13884,-0.4 -0.361064,-0.7631 -0.596204,-1.1129 -0.17056,-0.2486 -0.435424,-0.3944 -0.661368,-0.585 -0.104027,-0.063 -0.234197,-0.4206 -0.356011,-0.4021 -0.02191,0 -0.0348,0.027 -0.05219,0.041 0.285497,-0.1539 0.562304,-0.3251 0.856491,-0.4616 0.03667,-0.017 -0.05249,0.062 -0.07203,0.098 -0.02646,0.048 -0.04724,0.099 -0.06506,0.1508 -0.06776,0.1968 -0.09024,0.4044 -0.115721,0.6096 -0.04626,0.4119 0.108465,0.7448 0.344917,1.0676 0.195385,0.257 0.467261,0.4358 0.723078,0.6264 0.242559,0.2 0.329601,0.3651 0.637383,0.1807 -1.31544,0.7685 -0.72686,0.4726 -0.512274,0.09 0.102481,-0.1828 0.15607,-0.3774 0.207208,-0.5787 0.06608,-0.3734 -0.130482,-0.7043 -0.319518,-1.0119 -0.227968,-0.3663 -0.551381,-0.6121 -0.948701,-0.7656 -0.280117,-0.1092 -0.576299,-0.01 -0.861744,-0.071 -0.212557,-0.096 -0.359078,-0.2065 -0.587851,-0.094 0.273015,-0.1533 0.543816,-0.3105 0.819044,-0.4597 0.01374,-0.01 -0.07111,0.03 -0.144617,0.1327 -0.06094,0.085 -0.08586,0.1803 -0.110756,0.2797 -0.0305,0.2072 -0.05325,0.4219 -0.02478,0.6304 0.04644,0.2218 0.206543,0.3879 0.391104,0.5076 0.195817,0.1039 0.416667,0.1169 0.633551,0.1257 0.329087,-0.074 1.037067,-0.496 -0.680343,0.4141 -0.02532,0.013 0.04487,-0.036 0.06279,-0.059 0.07722,-0.096 0.07623,-0.143 0.117929,-0.2713 0.004,-0.1093 0.01792,-0.2186 0.01202,-0.3278 -0.06273,-1.1606 -0.542301,-2.2633 -1.031192,-3.2973 -0.320133,-0.5955 -0.710135,-1.1642 -1.251385,-1.5823 -0.259665,-0.2006 -0.502552,-0.3533 -0.842719,-0.3293 -0.128034,0.01 -0.244257,0.079 -0.366385,0.1184 0.147515,-0.063 0.341802,-0.3132 0.442545,-0.1885 0.09838,0.1218 -0.216751,0.2273 -0.309251,0.3536 -0.344539,0.4706 -0.530772,1.0283 -0.684392,1.5829 -0.115028,0.4585 -0.146843,0.9296 -0.144835,1.4003 0.0066,0.2958 0.0057,0.5916 0.0034,0.8874 0.03056,0.2215 -0.08324,0.6908 0.07534,0.8629 0.213586,-0.3068 -0.01672,0.036 -0.841515,0.4153 -0.03872,0.018 0.06102,-0.06 0.08774,-0.093 0.08444,-0.1049 0.15305,-0.2271 0.224314,-0.341 0.112248,-0.1643 0.235308,-0.3256 0.259117,-0.5283 -0.01379,-0.1526 -0.104192,-0.2798 -0.169735,-0.4131 -0.05329,-0.1084 -0.0961,-0.2248 -0.140025,-0.337 -0.033,-0.1369 -0.09677,-0.299 -0.05464,-0.4432 0.01091,-0.037 0.0236,-0.082 0.05665,-0.102 0.967952,-0.6015 0.644839,-0.6595 1.142495,-0.5143 0.282368,0.1387 0.538668,0.3154 0.840623,0.4117 0.20614,0.05 0.424953,0.087 0.608408,0.2005 0.09904,0.062 0.248291,0.1952 0.335593,0.2699 0.298017,0.2695 0.568501,0.5726 0.913319,0.7836 0.240036,0.1199 0.464073,0.2643 0.692565,0.4041 0.09716,0.044 0.203388,0.1289 0.317988,0.088 0.03187,-0.011 0.113098,-0.074 0.08318,-0.058 -0.845292,0.4436 -0.979538,0.7112 -0.743031,0.3211 0.19215,-0.7129 -0.05485,-1.436 -0.34846,-2.0825 -0.230516,-0.382 -0.522887,-0.9217 -1.034003,-0.9596 -0.07325,-0.01 -0.145988,0.016 -0.218982,0.025 -0.07202,0.033 -0.285138,0.137 -0.216064,0.098 0.205517,-0.1149 0.399913,-0.2612 0.625858,-0.3274 0.09225,-0.027 -0.140696,0.1315 -0.203998,0.2038 -0.182209,0.2082 -0.323827,0.4479 -0.461479,0.6863 -0.144613,0.2701 -0.263834,0.5489 -0.361819,0.8385 -0.03336,0.077 -0.0445,0.1176 -0.09676,0.1834 -0.230937,0.2906 -1.139717,0.7001 -1.171222,0.718 -0.01905,-0.01 -0.04326,-0.01 -0.05714,-0.024 -0.361202,-0.397 0.960752,-0.6911 1.327101,-0.8094 0.396483,-0.085 0.811131,-0.2288 1.22266,-0.1813 0.07999,0.01 0.157452,0.034 0.236178,0.051 0.391672,0.1104 0.677339,0.3599 0.844437,0.7252 0.07566,0.2052 0.09688,0.4196 -0.05484,0.5908 -0.537848,0.3062 -0.651787,0.5198 -1.077578,0.5764 -0.03284,0 -0.06594,0.01 -0.09891,0.01 -0.03449,0 -0.06921,0 -0.103475,0.01 -0.03459,0 -0.132413,0.039 -0.102539,0.021 0.253862,-0.1529 0.519411,-0.2854 0.779116,-0.4282 -0.05952,0.075 -0.131849,0.1415 -0.178562,0.225 -0.192599,0.3446 -0.416337,1.005 -0.515346,1.3324 -0.308649,1.0203 -0.488533,2.0591 -0.655922,3.1093 -0.07298,0.7107 -0.207436,1.4246 -0.196326,2.1423 0.0028,0.1802 0.02812,0.4848 0.121317,0.4932 0.04663,0 0.04295,-0.083 0.06443,-0.1248 -0.239404,0.095 -0.464089,0.3276 -0.71821,0.2854 -0.135673,-0.023 0.121807,-0.2473 0.168166,-0.3768 0.06101,-0.1704 0.110888,-0.345 0.153245,-0.521 0.166898,-0.6934 0.224913,-1.4011 0.285726,-2.1094 0.0095,-0.2526 0.0221,-0.505 0.02838,-0.7577 0.02521,-1.0135 -0.01637,-0.5478 0.0502,-1.6173 0.05688,-0.9139 0.146655,-1.8259 0.235508,-2.737 0.02845,-0.2676 0.05808,-0.535 0.08536,-0.8027 0.03205,-0.3145 0.07027,-0.7178 0.09603,-1.0444 0.0047,-0.06 -0.03845,-0.1465 0.01151,-0.1798 1.053411,-0.7018 0.961957,-0.7582 0.943119,-0.1474 -0.08532,0.7316 -0.101773,1.4683 -0.119644,2.2038 -0.02165,0.5326 0.01552,1.0658 0.05535,1.5968 0.03514,0.2903 0.0052,0.5962 0.115213,0.8724 0.144274,0.1607 0.322255,0.1193 0.493595,0.035 -0.265127,0.1467 -0.521735,0.31 -0.79538,0.4401 -0.04716,0.022 0.07789,-0.071 0.108156,-0.1133 0.03914,-0.055 0.07141,-0.1152 0.09838,-0.1771 0.105123,-0.2414 0.139077,-0.5023 0.175496,-0.7601 0.03177,-0.3552 0.111093,-0.7011 0.186022,-1.0485 0.03436,-0.2281 -0.07324,-0.4261 -0.165757,-0.627 -0.158861,-0.3237 -0.370923,-0.6072 -0.672986,-0.8063 -0.171964,-0.08 -0.299967,-0.027 -0.451254,0.063 -0.04222,0.025 -0.169628,0.1 -0.126886,0.076 0.244869,-0.1399 0.488856,-0.2813 0.733285,-0.422 -0.02566,0.024 -0.533947,0.3326 -0.406185,0.349 0.504662,0.022 1.00819,0.012 1.512229,0.051 0.521929,0.067 1.038003,0.1803 1.543819,0.3244 0.217194,0.045 0.474515,0.1721 0.686407,0.059 -1.622587,0.9016 -0.783752,0.6624 -0.741747,0.2323 0.01446,-0.148 -0.0087,-0.2359 -0.03006,-0.387 -0.106753,-0.4832 -0.239549,-0.9619 -0.443516,-1.4137 -0.05268,-0.081 -0.124216,-0.2633 -0.25941,-0.2285 -0.03337,0.01 -0.119512,0.069 -0.08921,0.052 0.8203,-0.4443 0.989117,-0.6304 0.639169,-0.2927 -0.256147,0.3155 -0.425118,0.6878 -0.540811,1.0747 -0.0717,0.2608 -0.08217,0.5315 -0.0931,0.8001 -0.0064,0.336 -0.0043,0.6721 -0.0061,1.0081 -0.0054,0.4352 -0.01099,0.8703 -0.0052,1.3055 -0.01309,0.3646 0.02098,0.7295 0.0066,1.0939 -0.007,0.2162 -0.106172,0.3915 -0.239273,0.5542 -0.13594,0.1455 -0.267607,0.2952 -0.409719,0.4348 -0.417829,0.2813 -0.916061,0.9571 -1.416301,0.6944 -0.214794,-0.2745 -0.33533,-0.6166 -0.480005,-0.9321 -0.135353,-0.3031 -0.06881,-0.148 -0.199178,-0.4654 0,0 0.85302,-0.4789 0.85302,-0.4789 l 0,0 c 0.137439,0.3103 0.06844,0.1581 0.206758,0.4568 0.132091,0.271 0.27965,0.6201 0.50429,0.8248 0.315716,0.049 1.077114,-0.5696 -0.70305,0.4772 -0.02935,0.017 0.05769,-0.036 0.08654,-0.054 0.115359,-0.09 0.05505,-0.048 0.181154,-0.1272 0.148578,-0.1261 0.259238,-0.2863 0.403884,-0.4156 0.126127,-0.1559 0.266785,-0.2936 0.283188,-0.5072 0.05882,-0.3625 0.01868,-0.7366 0.03269,-1.1023 0.0054,-0.4328 -1.91e-4,-0.8655 -0.0083,-1.2982 -0.0041,-0.334 -0.0074,-0.668 -0.01034,-1.002 -0.0022,-0.2804 0.01014,-0.5606 0.09133,-0.8314 0.123767,-0.3947 0.297568,-0.7727 0.529044,-1.1166 0.330267,-0.4439 0.136865,-0.2243 1.12335,-0.7365 0.07776,-0.04 0.175725,0 0.232219,0.053 0.07893,0.072 0.117264,0.1763 0.162757,0.2689 0.171975,0.4707 0.305541,0.9535 0.44541,1.4344 0.221528,0.8675 0.01478,0.7333 -0.945088,1.2726 -0.236277,0.027 -0.46582,-0.063 -0.687086,-0.1356 -0.476706,-0.1657 -0.970143,-0.2942 -1.473097,-0.3458 -0.33913,-0.022 -0.321145,-0.028 -0.663631,-0.022 -0.270237,0 -0.554656,0.048 -0.824742,0.022 -0.0538,-0.01 -0.105299,-0.024 -0.157948,-0.037 -0.02722,-0.03 -0.06524,-0.052 -0.08167,-0.089 -0.0739,-0.1656 0.342683,-0.3703 0.438021,-0.4567 0.339852,-0.1973 0.67902,-0.3957 1.019558,-0.5918 0.218098,-0.1256 0.419347,-0.191 0.646202,-0.043 0.290889,0.2291 0.511571,0.5299 0.693175,0.851 0.1202,0.2169 0.262112,0.4228 0.21509,0.682 -0.08631,0.3563 -0.215588,0.7016 -0.24966,1.0697 -0.02777,0.2048 -0.107445,0.9734 -0.289312,1.0953 -0.319917,0.2146 -0.662011,0.3941 -0.993017,0.5911 -0.22662,0.072 -0.44834,0.035 -0.592847,-0.1704 -0.09892,-0.3004 -0.05567,-0.6193 -0.07043,-0.9305 -0.01496,-0.5378 -0.07416,-1.0755 -0.04497,-1.6133 0.05719,-0.729 0.151945,-1.4592 0.112692,-2.1917 -0.05972,-0.4953 -0.09838,-0.3269 0.836486,-0.7277 0.07465,-0.032 -0.08653,0.1389 -0.113692,0.2154 -0.219934,0.6198 -0.261645,1.292 -0.371838,1.934 -0.07808,0.7077 -0.12941,1.1004 -0.175528,1.8139 -0.07034,1.0882 -0.03021,2.178 -0.08043,3.2669 -0.04559,0.6929 -0.0817,1.3882 -0.186974,2.0754 -0.0031,0.02 -0.13105,0.797 -0.20472,0.8724 -0.291026,0.298 -0.66094,0.5071 -0.99141,0.7606 -0.04433,-0.013 -0.108743,6e-4 -0.132989,-0.039 -0.05194,-0.084 0.01468,-0.5581 0.02126,-0.6083 0.09863,-0.7511 0.260822,-1.4923 0.38209,-2.2396 0.187088,-1.0262 0.373351,-2.0526 0.572421,-3.0765 0.06057,-0.3116 0.166799,-0.9022 0.273024,-1.246 0.02635,-0.085 0.06876,-0.1647 0.103134,-0.2471 0.340634,-0.1913 0.6754,-0.3934 1.021904,-0.5739 0.0616,-0.032 0.227008,-0.025 0.304918,-0.048 0.02887,-0.01 0.110107,-0.047 0.08454,-0.031 -0.273465,0.1687 -0.553075,0.3273 -0.829612,0.4909 0.1924,-0.095 0.196667,-0.2886 0.138724,-0.4788 -0.135173,-0.3465 -0.387812,-0.5762 -0.756091,-0.6643 -0.07333,-0.013 -0.14572,-0.033 -0.219981,-0.039 -0.413108,-0.032 -0.82842,0.113 -1.219886,0.2207 -0.06576,0.024 -0.131532,0.047 -0.19729,0.071 -0.05151,0.019 -0.103455,0.036 -0.154525,0.056 -0.414063,0.1602 -0.2396,0.2363 0.750571,-0.5057 0.01994,-0.015 -0.03952,-0.033 -0.05057,-0.055 -0.0033,-0.01 0.01041,-0.01 0.01562,-0.016 -1.824722,1.0618 -0.902878,0.5666 -0.637529,0.3608 0.06857,-0.053 0.07525,-0.081 0.119874,-0.1554 0.113935,-0.3066 0.242655,-0.6008 0.412439,-0.8826 0.492432,-0.8287 0.892343,-1.3498 1.951574,-1.6459 0.07884,0 0.159046,-0.01 0.236508,0.01 0.524191,0.1 0.774361,0.6597 1.002357,1.0741 0.280718,0.6588 0.552155,1.3678 0.498158,2.0964 -0.01523,0.049 -0.0043,0.1171 -0.0457,0.1479 -0.102067,0.076 -0.779649,0.7397 -1.199831,0.6042 -0.06631,-0.021 -0.162012,-0.079 -0.221556,-0.1126 -0.224966,-0.144 -0.457846,-0.2724 -0.684573,-0.4132 -0.325161,-0.2387 -0.584589,-0.5505 -0.895367,-0.8069 -0.129661,-0.1038 -0.188216,-0.1615 -0.335287,-0.2378 -0.192488,-0.1 -0.411277,-0.1193 -0.615314,-0.1846 -0.291741,-0.1066 -0.537011,-0.3029 -0.834537,-0.3922 -0.435612,0.012 -0.145957,0.025 0.67371,-0.4867 0.02834,-0.018 -0.06752,0.022 -0.0878,0.048 -0.08205,0.1074 -0.01712,0.2957 0.0031,0.4063 0.106232,0.268 0.283541,0.4979 0.369895,0.7715 -0.01086,0.2238 -0.111832,0.414 -0.25707,0.5822 -0.247156,0.4064 -0.787952,1.3507 -1.344692,0.9683 -0.105599,-0.2931 -0.02606,-0.6258 -0.05713,-0.9301 -0.0074,-0.2956 -0.02022,-0.5914 -0.01138,-0.8871 0.02542,-0.4968 0.09965,-0.9894 0.230028,-1.4701 0.172661,-0.5656 0.370434,-1.1349 0.701698,-1.6309 0.08586,-0.1286 0.161687,-0.2726 0.284818,-0.3661 0.352376,-0.2675 0.749996,-0.4695 1.124994,-0.7043 0.127359,-0.025 0.252352,-0.083 0.382077,-0.077 0.322084,0.016 0.571849,0.2113 0.798351,0.4165 0.508213,0.4605 0.874789,1.0483 1.184743,1.6529 0.53937,1.1342 1.064179,2.3026 1.296698,3.5441 -0.01226,0.1119 -0.0099,0.1989 -0.0566,0.3002 -0.192618,0.418 -0.752711,0.6565 -1.206619,0.6671 -0.231514,-0.016 -0.462956,-0.047 -0.662658,-0.1755 -0.200417,-0.1483 -0.374243,-0.3321 -0.442894,-0.578 -0.02926,-0.2199 -0.01023,-0.4445 0.01222,-0.6644 0.115381,-0.646 0.550664,-0.7331 1.213255,-1.0539 0.226787,-0.037 0.40565,0.062 0.612976,0.14 0.283125,0.042 0.578781,-0.02 0.848351,0.1073 0.398092,0.1874 0.722007,0.4558 0.966958,0.8257 0.214002,0.3291 0.434703,0.671 0.361223,1.0806 -0.05042,0.2188 -0.224203,0.8153 -0.40976,0.9444 -0.323009,0.2248 -0.668736,0.415 -1.003104,0.6224 -0.360314,0.1102 -0.429856,-0.06 -0.688258,-0.2771 -0.265111,-0.1964 -0.542291,-0.381 -0.732602,-0.6577 -0.241166,-0.3451 -0.408318,-0.7075 -0.364185,-1.1406 0.01092,-0.1158 0.08173,-0.8332 0.168626,-0.8929 0.312025,-0.2143 0.648866,-0.39 0.973299,-0.5849 0.240324,0.058 0.269478,0.2955 0.438432,0.4477 0.231696,0.1926 0.478883,0.3711 0.637829,0.634 0.231911,0.3598 0.467952,0.7209 0.63055,1.1186 0.120394,0.3182 0.186337,0.6506 0.215663,0.9895 0.01089,0.2461 0.02014,0.4929 0.06248,0.7361 0.04959,0.3242 0.04647,0.647 0.02526,0.9744 -0.01274,0.4096 0.0042,0.8278 -0.09897,1.2275 -0.10099,0.2308 -0.234879,0.4427 -0.389142,0.6418 -0.392509,0.6636 -0.405603,0.6267 -1.323821,1.127 -0.03268,0 -0.06514,0.017 -0.09804,0.014 -0.170604,-0.015 -0.2757,-0.2509 -0.335075,-0.3783 -0.01248,-0.036 -0.02445,-0.073 -0.03743,-0.109 -0.01188,-0.033 -0.06397,-0.076 -0.03712,-0.099 0.754296,-0.6385 0.804157,-0.9463 1.016189,-0.4332 0.250089,0.2976 0.04359,0.024 -0.827538,0.5504 -0.02775,0.017 0.06181,-0.022 0.08819,-0.041 0.08428,-0.06 0.143598,-0.1561 0.221687,-0.2234 0.129851,-0.1541 0.214499,-0.3395 0.292565,-0.5241 0.08214,-0.1675 0.162952,-0.3376 0.186026,-0.5244 0.0054,-0.2679 0.0088,-0.5375 0.04795,-0.8029 0.02236,-0.1163 0.04329,-0.2259 0.09187,-0.3345 0.02649,-0.059 0.06458,-0.113 0.08873,-0.1732 0.01103,-0.028 0.01546,-0.057 0.0232,-0.086 0.01417,-0.035 0.03411,-0.062 0.0199,-0.1012 -0.01441,-0.04 -0.05388,-0.01 -0.04916,-0.011 1.054793,-0.6387 1.096732,-0.6677 0.750787,-0.4426 -0.331132,0.3744 -0.414959,0.8938 -0.597165,1.3463 -0.179653,0.55 -0.350873,1.118 -0.661844,1.6104 -0.328409,0.2004 -0.642313,0.4268 -0.985228,0.6013 -0.06601,0.034 -0.09753,-0.1264 -0.09618,-0.1436 0.01039,-0.1324 0.125138,-0.2437 0.198203,-0.3423 0.340175,-0.344 0.710622,-0.656 1.071695,-0.9777 0.04226,-0.038 0.273532,-0.2844 0.332602,-0.3105 0.01343,-0.01 0.02947,0.01 0.04367,0.01 0.02713,-0.01 -0.201991,-0.083 -0.07811,-0.031 -0.242391,-0.026 -0.48813,-0.012 -0.731486,-0.01 -0.100551,0 -0.202963,0.01 -0.301175,0.032 -0.02894,0.01 -0.110325,0.044 -0.08496,0.028 0.690883,-0.429 1.134068,-0.6328 0.756984,-0.457 -0.197395,0.1908 -0.106782,0.5082 -0.152607,0.755 -0.04595,0.4101 -0.08665,0.8407 -0.309313,1.1985 -0.344502,0.4449 -0.53909,0.4482 -1.203478,0.8376 -0.111689,0.066 -0.229873,0.1022 -0.359946,0.098 -0.321066,-0.056 -0.574436,-0.242 -0.787488,-0.4847 -0.363458,-0.4441 -0.629539,-0.9614 -0.610432,-1.5501 0.02223,-0.1443 0.08498,-0.605 0.213899,-0.7042 0.314193,-0.2415 0.659019,-0.4409 0.998205,-0.6459 0.04622,-0.028 0.100351,-0.044 0.153957,-0.05 0.05463,-0.01 0.109793,0.01 0.164689,0.012 0.407684,0.1677 0.628481,0.5028 0.856675,0.8663 0.168661,0.2924 0.401963,0.6198 0.338845,0.9735 -0.150986,0.5761 -0.798301,0.7957 -1.332073,0.9713 -0.256849,0.052 -0.513506,0.1019 -0.737978,0.2474 -0.176599,0.092 -0.0859,0.046 -0.272232,0.1383 -0.04703,0.024 -0.185282,0.1022 -0.139869,0.075 1.8558,-1.1092 0.921951,-0.3628 0.652166,-0.4522 0.124692,-3e-4 0.326567,-0.091 0.258195,-0.048 -0.709352,0.4389 -1.132244,0.6138 -0.750521,0.4525 0.08117,-0.056 0.196798,-0.1733 0.151918,-0.2814 -0.189011,-0.069 -0.408602,-10e-4 -0.603144,0.01 -0.07058,0.013 -0.132597,0.021 -0.200695,0.044 -0.02336,0.01 -0.136133,0.083 -0.167718,0.068 -0.02365,-0.011 -0.03692,-0.037 -0.05539,-0.056 -0.05601,-0.1295 0.02356,-0.366 -0.0089,-0.5127 -0.0038,-0.1968 -0.0058,-0.3966 -0.05812,-0.5878 -0.06597,-0.1893 -0.1823,-0.3535 -0.273632,-0.5311 -0.122354,-0.22 -0.191753,-0.464 -0.3228,-0.6795 -0.119076,-0.1854 -0.258251,-0.4033 -0.182941,-0.6291 0.330287,-0.184 0.651313,-0.3856 0.990861,-0.5519 0.0611,-0.03 0.266094,0.027 0.309003,0.039 0.249195,0.072 0.485978,0.18 0.717475,0.2951 0.245335,0.1155 0.495527,0.2625 0.767874,0.3042 0.05337,0.01 0.204238,-0.033 0.161982,6e-4 -1.083868,0.8622 -0.97215,0.7325 -0.748022,0.4345 0.03923,-0.3967 -0.205715,-0.8109 -0.255983,-1.2013 -0.07614,-0.3915 -0.05336,-0.2492 -0.111508,-0.6526 -0.01655,-0.1148 -0.03497,-0.2294 -0.0482,-0.3446 -0.01186,-0.1032 -0.09183,-0.2293 -0.02704,-0.3106 0.690299,-0.8654 0.535518,-0.8808 0.993477,-0.7426 0.183583,0.4881 0.266865,1.0128 0.382148,1.5195 0.234433,1.0303 0.472058,2.0613 0.786561,3.0709 0.03752,0.2113 0.07621,0.4224 0.112551,0.6339 0.06325,0.3681 0.497984,2.2211 -0.933135,1.4939 -0.388389,-0.4563 -0.57666,-1.0521 -0.927983,-1.5348 -0.527628,-0.847 -1.142131,-1.6491 -1.505725,-2.5867 -0.294085,-0.9371 -0.513158,-1.8805 -0.221413,-2.8503 0.330512,-0.2342 0.654517,-0.4779 0.991537,-0.7026 0.05553,-0.037 0.117943,-0.067 0.183233,-0.081 0.346322,-0.074 0.658336,0.1948 0.928118,0.3625 0.323943,0.2397 0.703749,0.465 0.877224,0.8444 0.20328,0.4535 0.232273,0.959 0.359209,1.4356 0.116489,0.5068 0.289719,0.9984 0.385558,1.5088 -0.0062,0.2701 -0.03578,0.5357 -0.16405,0.7787 -0.142696,0.2727 -0.297477,0.5379 -0.536923,0.7393 -0.336402,0.1936 -0.666397,0.3988 -1.009207,0.5809 -0.176308,0.094 -0.568507,0.031 -0.768927,0.096 -0.284298,0.038 -0.568574,0.06 -0.855764,0.045 -0.238417,-0.01 -0.491529,-0 -0.694584,-0.1459 -0.195547,-0.1812 -0.279356,-0.4339 -0.39252,-0.6701 -0.136306,-0.2679 -0.271515,-0.5373 -0.438345,-0.788 -0.188779,-0.3333 -0.341179,-0.6821 -0.453655,-1.0489 -0.204284,-0.6659 -0.369414,-1.3401 -0.54358,-2.0143 -0.04307,-0.1654 -0.07563,-0.3339 -0.126834,-0.497 -0.0227,-0.072 -0.05762,-0.1699 -0.120475,-0.2239 -0.01074,-0.01 -0.05285,-0 -0.04088,-0.011 0.280229,-0.1766 0.571366,-0.3353 0.857049,-0.503 -0.02648,0.01 -0.05606,0.01 -0.07944,0.019 -0.202078,0.1212 -0.10281,0.486 -0.117382,0.6658 0.03566,0.5795 0.138937,1.1521 0.364056,1.6908 0.290263,0.6389 0.631417,1.2994 1.26973,1.6517 0.05687,0.012 0.1125,0.035 0.170612,0.036 0.04524,0 0.170283,-0.053 0.132921,-0.028 -1.968826,1.3459 -0.660542,0.4498 -0.586297,0.2935 0.015,-0.032 0.01718,-0.068 0.02577,-0.1018 -0.02904,-0.2566 -0.08021,-0.5013 -0.259845,-0.6988 -0.260267,-0.3411 -0.627903,-0.5878 -0.866938,-0.949 -0.238078,-0.3154 -0.454392,-0.6433 -0.663344,-0.9787 -0.02863,-0.046 -0.125557,-0.1039 -0.08424,-0.1389 0.276851,-0.2345 0.616789,-0.3823 0.925183,-0.5735 0.04857,0.164 0.154045,0.3226 0.23652,0.4694 0.178234,0.3173 0.358657,0.6341 0.565448,0.934 0.138184,0.183 0.24765,0.35 0.419443,0.502 0.09794,0.087 0.176701,0.1315 0.305528,0.135 0.03134,8e-4 0.117682,-0.039 0.09163,-0.021 -0.269222,0.1804 -0.55049,0.342 -0.825735,0.513 0.01638,-0.01 0.04115,-0 0.04913,-0.019 0.05816,-0.1141 -0.374582,-0.4965 -0.437648,-0.5689 -0.208192,-0.2346 -0.423318,-0.4774 -0.590573,-0.7439 -0.254193,-0.4049 -0.435524,-0.8558 -0.599955,-1.3022 -0.19584,-0.6462 -0.360019,-1.2918 -0.325532,-1.9739 0.0055,-0.109 -0.03689,-0.2474 0.04002,-0.3248 0.281361,-0.2828 0.649586,-0.4633 0.974379,-0.695 0.05011,0.01 0.108167,-3e-4 0.150317,0.028 0.141058,0.096 0.332863,0.4509 0.390314,0.5544 0.346286,0.6236 0.613913,1.2852 0.870415,1.9496 0.516957,1.3379 1.002016,2.6916 1.618568,3.988 0.196859,0.5103 0.149519,0.2172 -0.881391,0.7692 -0.07332,0.039 -0.299047,-0.2898 -0.313709,-0.3129 -0.05287,-0.083 -0.0984,-0.1714 -0.147599,-0.2571 -0.443465,-0.9971 -0.681916,-2.0723 -0.667939,-3.167 0.133232,-0.5225 0.277589,-1.0321 0.517739,-1.5181 0.07501,-0.1519 0.126801,-0.3264 0.250651,-0.4419 0.646106,-0.6024 0.822457,-0.6671 1.405545,-0.9592 0.108293,-7e-4 0.21873,-0.024 0.324877,-0 0.10677,0.022 0.206797,0.073 0.30037,0.1287 0.468509,0.2792 0.693665,0.7735 0.795257,1.2881 0.01947,0.1547 0.05142,0.3084 0.05841,0.4641 0.02068,0.4611 -0.05696,1.0729 -0.278559,1.4873 -0.03975,0.074 -0.09614,0.1385 -0.144205,0.2077 -0.291534,0.1819 -0.922408,0.7162 -1.419879,0.7618 -0.208972,0.019 -0.415398,-0.038 -0.618301,-0.076 -0.463656,-0.1206 -0.913158,-0.2876 -1.342066,-0.5019 -0.245617,-0.1179 -0.594832,-0.2343 -0.744196,-0.4846 -0.06136,-0.1029 -0.04707,-0.1661 -0.04884,-0.28 0.04968,-0.4477 0.154504,-0.8807 0.429287,-1.2491 0.447679,-0.5023 0.210116,-0.2779 1.253358,-0.8706 0.459726,-0.2611 1.020278,-0.2338 1.52482,-0.1868 0.402067,0.085 0.57899,0.1121 0.977613,0.2366 0.725765,0.2267 1.408931,0.5591 2.047067,0.9715 0.52559,0.3906 1.064854,0.7932 1.34145,1.4102 0.115919,0.2586 0.141846,0.487 0.193078,0.7616 0.02408,0.5748 0.0031,1.3477 -0.206059,1.8896 -0.03668,0.095 -0.09437,0.1806 -0.141552,0.2709 -0.353639,0.2022 -0.691521,0.4349 -1.060918,0.6067 -0.143035,0.067 -0.500706,-0.017 -0.621063,-0.049 -0.488552,-0.1329 -0.950322,-0.3544 -1.402521,-0.5767 -0.431979,-0.254 -0.627549,-0.3521 -1.030081,-0.6578 -0.614087,-0.4664 -1.124522,-1.0507 -1.717344,-1.5418 -0.478885,-0.3964 -1.03586,-0.721 -1.103973,-1.3923 -0.01094,-0.6369 -9.57e-4,-1.2973 0.231372,-1.8985 0.379253,-0.5392 0.131855,-0.2486 1.195873,-0.8706 0.411614,-0.2406 0.918585,-0.2596 1.379112,-0.2928 0.134683,0.01 0.270266,0 0.404049,0.022 0.543569,0.07 1.119678,0.2762 1.532385,0.647 0.100092,0.09 0.180139,0.2 0.270208,0.3 0.07095,0.1139 0.151798,0.2222 0.212835,0.3418 0.311422,0.6098 0.349439,1.3062 0.3373,1.9767 -0.01034,0.7077 0.0046,1.4467 -0.32701,2.0925 -0.429944,0.5819 -0.175878,0.3072 -1.268704,0.9368 -0.544961,0.3139 -1.216626,0.3083 -1.822549,0.3202 -0.479476,-0.04 -0.647289,-0.036 -1.116026,-0.1458 -0.631085,-0.1478 -1.191415,-0.4704 -1.744291,-0.7967 -0.282122,-0.1564 -0.482266,-0.2738 -0.769321,-0.4101 -0.1568,-0.074 -0.476473,-0.1639 -0.610746,-0.2706 -0.02121,-0.017 -0.03322,-0.043 -0.04984,-0.064 -0.08755,-0.1991 -0.114147,-0.4101 -0.101629,-0.6268 0.0011,-0.2401 0.0032,-0.4802 0.0068,-0.7203 0.0037,-0.3236 0.0069,-0.6476 -0.01738,-0.9706 -0.02193,-0.2152 -0.04824,-0.4282 -0.144024,-0.6251 -0.04362,-0.2171 0.08995,-0.394 0.229434,-0.549 0.16415,-0.2397 0.331233,-0.4794 0.566065,-0.6563 0.604626,-0.4421 1.233882,-0.8451 1.903483,-1.1868 0.613943,-0.3261 1.219604,-0.6692 1.848512,-0.9659 0.07531,-0.025 0.149036,-0.055 0.225942,-0.074 0.293664,-0.074 0.600313,-0.025 0.898487,-0.04 0.330553,-2e-4 0.660995,-0.01 0.991536,-0.01 0.239545,0.01 0.480464,0.024 0.710117,0.099 0.274073,0.098 0.529316,0.2342 0.767811,0.4012 0.246347,0.1458 0.503884,0.2709 0.745285,0.4246 0.238557,0.223 0.414304,0.4896 0.570627,0.7754 0.142343,0.2599 0.271483,0.5264 0.424907,0.7802 0.121546,0.2117 0.219159,0.4417 0.203489,0.6909 -0.0036,0.3012 -0.01064,0.6023 -0.0167,0.9034 -0.0056,0.4111 0.0017,0.8221 0.01111,1.2332 -0.0014,0.3277 0.0024,0.6557 -0.03417,0.982 -0.04906,0.3518 -0.108408,0.7057 -0.28679,1.0188 -0.131407,0.2976 -0.294602,0.5767 -0.457848,0.8578 -0.383851,0.7462 -0.606439,0.8813 -1.494112,1.3385 -0.38662,0.2049 -0.803775,0.3208 -1.226441,0.4287 -0.366887,0.089 -0.733608,0.1736 -1.089524,0.3015 -0.300671,0.059 -0.608121,0.058 -0.908079,0.1232 -0.258381,0.058 -0.517643,0.1624 -0.785007,0.099 -0.277665,-0.071 -0.516814,-0.2105 -0.737136,-0.3939 -0.404569,-0.2992 -0.79774,-0.6171 -1.157459,-0.9694 -0.361683,-0.3821 -0.694437,-0.7915 -1.094135,-1.1362 -0.211636,-0.1732 -0.447039,-0.3354 -0.521205,-0.6132 -0.05996,-0.2437 -0.09571,-0.4911 -0.15204,-0.7357 -0.06558,-0.3327 -0.08684,-0.6727 -0.07735,-1.0115 0.0031,-0.3141 0.0077,-0.6303 -0.02908,-0.9428 0,0 0.961919,-0.4901 0.961919,-0.4901 z"
       inkscape:connector-curvature="0" />
    <path
       style="fill:#66ff00;fill-opacity:1;stroke:none;stroke-opacity:1"
       id="path4647"
       d="m 15.650454,1007.5779 c -0.02835,-0.2741 -0.05978,-0.5403 -0.152324,-0.8011 -0.105247,-0.2671 -0.294079,-0.4777 -0.50228,-0.6689 -0.179561,-0.1513 -0.368917,-0.2906 -0.552233,-0.438 -0.186368,-0.1576 -0.357303,-0.3321 -0.533585,-0.5009 -0.202477,-0.1515 -0.385722,-0.3263 -0.606464,-0.4512 -0.108985,-0.051 -0.24686,-0.094 -0.36165,-0.032 -0.02376,0.013 -0.08935,0.06 -0.06569,0.047 0.281346,-0.1548 0.559503,-0.3153 0.839254,-0.4729 -0.158674,0.1361 -0.276148,0.311 -0.417431,0.464 -0.149583,0.1555 -0.30649,0.3046 -0.467063,0.4488 -0.163193,0.1357 -0.264584,0.3172 -0.368837,0.4976 -0.06026,0.1188 -0.148773,0.2729 0.0053,0.3463 0.179597,0.051 0.369238,0.047 0.55432,0.048 0.200883,0.01 0.369342,0.1337 0.568216,0.1437 0.02172,-0.01 0.04343,-0.017 0.06514,-0.026 0,0 -0.851796,0.6384 -0.851796,0.6384 l 0,0 c -0.02596,-0 -0.05192,-0 -0.07788,-0 -0.184533,-0.045 -0.359402,-0.1305 -0.552235,-0.1376 -0.202528,-0 -0.414793,7e-4 -0.601808,-0.088 -0.176311,-0.1343 -0.162503,-0.303 -0.07057,-0.4924 0.102416,-0.1884 0.206383,-0.3778 0.358876,-0.5315 0.163168,-0.1433 0.32204,-0.2914 0.474923,-0.4451 0.151613,-0.1411 0.25688,-0.3179 0.400464,-0.4651 0.609387,-0.3684 0.861547,-0.8087 1.441657,-0.5052 0.218468,0.1394 0.416371,0.3084 0.61911,0.4694 0.177617,0.1642 0.340299,0.3442 0.533171,0.491 0.186193,0.1473 0.372315,0.2945 0.553767,0.4472 0.213554,0.2059 0.391136,0.4474 0.508001,0.7214 0.09404,0.2536 0.140418,0.5144 0.204442,0.7754 0,0 -0.944797,0.5204 -0.944797,0.5204 z"
       inkscape:connector-curvature="0" />
    <path
       style="fill:#66ff00;fill-opacity:1;stroke:none;stroke-opacity:1"
       id="path4649"
       d="m 17.414008,1006.0115 c 0.03756,-0.4267 0.04783,-0.8554 0.0469,-1.2835 0.02252,-0.4026 0.07497,-0.8221 0.369832,-1.1188 0.532668,-0.3083 0.954446,-0.8398 1.515711,-0.483 0.146111,0.101 0.314286,0.1745 0.493968,0.1552 0.172895,-0.086 0.358265,-0.13 0.548076,-0.1576 0.223598,-0 0.430746,-0.062 0.622973,-0.1757 0.03068,-0.017 0.122238,-0.067 0.09204,-0.05 -0.268454,0.155 -1.073881,0.6197 -0.806836,0.4624 0.421125,-0.2482 0.819379,-0.5802 1.309155,-0.6634 0.323128,0.029 0.437142,0.1978 0.531568,0.4857 0.06205,0.2633 0.06076,0.5371 0.06461,0.8063 -0.01454,0.2518 0.02427,0.5083 -0.0338,0.7556 -0.256785,0.4581 -0.880249,0.836 -1.39507,0.6714 -0.192664,-0.1111 -0.389313,-0.2168 -0.57675,-0.3363 -0.0249,-0.023 -0.04979,-0.046 -0.07468,-0.068 0,0 0.896888,-0.5561 0.896888,-0.5561 l 0,0 c 0.02082,0.019 0.04164,0.037 0.06247,0.055 0.178195,0.1135 0.358185,0.2291 0.554708,0.3081 0.08775,0.011 0.101892,0.022 0.188174,0 0.02951,-0.01 0.111628,-0.046 0.0859,-0.029 -1.527084,0.9469 -0.968588,0.616 -0.696147,0.3998 0.110738,-0.2242 0.04977,-0.4878 0.06293,-0.7299 0.0014,-0.2596 0.0059,-0.5224 -0.05177,-0.7771 -0.0703,-0.2267 -0.185948,-0.3899 -0.449034,-0.3549 -0.100576,0.029 -0.118448,0.03 -0.210615,0.072 -0.03191,0.014 -0.123984,0.065 -0.09379,0.048 1.718383,-1.0133 0.327135,-0.1635 -0.27779,0.1544 -0.207254,0.089 -0.418911,0.1359 -0.643954,0.1523 -0.19251,0.039 -0.372697,0.1188 -0.566305,0.1466 -0.190724,-0.024 -0.365561,-0.089 -0.522527,-0.202 -0.112153,-0.06 -0.22207,-0.094 -0.349037,-0.057 -0.03507,0.01 -0.132407,0.061 -0.101346,0.042 0.257713,-0.1601 0.521595,-0.31 0.782392,-0.465 -0.351292,0.2445 -0.439875,0.66 -0.46919,1.0678 -8.93e-4,0.4122 0.0077,0.8252 0.0469,1.2357 0,0 -0.956544,0.4874 -0.956544,0.4874 z"
       inkscape:connector-curvature="0" />
    <path
       style="fill:#66ff00;fill-opacity:1;stroke:none;stroke-opacity:1"
       id="path4651"
       d="m 20.694926,1022.8475 c -0.112436,-0.1903 -0.188545,-0.3927 -0.250867,-0.6048 -0.07967,-0.3262 -0.147167,-0.6554 -0.204079,-0.9863 -0.06677,-0.2881 -0.120497,-0.5788 -0.153629,-0.8726 -0.02182,-0.3074 -0.11332,-0.6022 -0.170629,-0.9036 -0.05424,-0.2768 -0.06447,-0.5583 -0.0663,-0.8394 0.0028,-0.2699 -0.01836,-0.5404 0.0032,-0.8096 0.01796,-0.2103 0.07555,-0.4113 0.150326,-0.6075 0.09883,-0.2249 0.252956,-0.4203 0.404154,-0.6119 0.4667,-0.6713 0.64083,-0.659 1.499076,-1.1508 0.309192,-0.092 0.629172,-0.1305 0.947471,-0.179 0.260437,-0.019 0.510955,-0.1073 0.76941,-0.1375 0.09628,-0.011 0.246557,-0.01 0.344044,-0.01 0.371184,0.021 0.677683,0.2071 0.977454,0.4086 0.274286,0.1985 0.444172,0.4972 0.623014,0.778 0.207071,0.3125 0.427308,0.6157 0.647371,0.9193 0.262546,0.3248 0.527353,0.6506 0.727267,1.0184 0.1524,0.2945 0.173618,0.6209 0.18667,0.9452 0.01248,0.3229 0.0061,0.6461 0.0022,0.9691 4.86e-4,0.3889 0.0021,0.7717 -0.09394,1.1504 -0.08705,0.3107 -0.22889,0.6019 -0.334499,0.9063 -0.08828,0.254 -0.174963,0.5086 -0.287757,0.7529 -0.109987,0.1923 -0.191317,0.3985 -0.286678,0.5979 -0.241892,0.4726 -0.792046,0.773 -1.306916,0.8613 -0.205079,0.036 -0.382743,-0.086 -0.575295,-0.1382 -0.303722,-0.048 -0.589651,-0.1686 -0.867216,-0.2964 -0.260528,-0.1293 -0.501847,-0.2906 -0.752198,-0.4377 -0.220056,-0.1401 -0.46678,-0.2409 -0.650943,-0.4296 -0.13158,-0.1204 -0.214186,-0.2819 -0.303632,-0.4341 -0.07527,-0.1644 -0.202863,-0.2943 -0.292586,-0.4495 -0.100642,-0.172 -0.247598,-0.303 -0.393014,-0.4368 -0.239367,-0.2035 -0.514558,-0.3514 -0.725035,-0.5885 -0.143023,-0.1911 -0.192319,-0.4199 -0.193579,-0.6543 0.06021,-0.526 0.196514,-0.4095 1.034309,-0.7523 0.04652,-0.019 0.09009,0.045 0.133554,0.07 0.07573,0.044 0.149213,0.092 0.223819,0.1376 0.724462,0.4272 1.485796,0.8232 2.295016,1.066 0.129416,0.039 0.263069,0.062 0.394604,0.093 0.104785,0.01 0.209852,0.027 0.314356,0.017 0.07951,-0.01 0.297491,-0.1095 0.230073,-0.067 -0.223031,0.1415 -0.453118,0.2797 -0.702583,0.3665 -0.06362,0.022 0.08834,-0.1034 0.118956,-0.1634 0.09696,-0.19 0.09392,-0.3032 0.12393,-0.5141 0.01356,-0.7323 -0.321607,-1.3541 -0.723086,-1.9411 -0.475512,-0.6007 -1.041922,-1.023 -1.764947,-1.2732 -0.156918,-0.027 -0.279824,-0.071 -0.436468,-0.019 -0.05574,0.019 -0.203877,0.116 -0.150129,0.092 0.248091,-0.1094 0.467617,-0.3011 0.734324,-0.35 0.08759,-0.016 -0.08867,0.1551 -0.121935,0.2377 -0.03976,0.099 -0.06425,0.203 -0.09637,0.3044 -0.138344,0.5757 -0.19281,1.1702 -0.0028,1.7381 0.245031,0.3628 0.599387,0.6738 0.92338,0.9674 0.158757,0.124 0.342499,0.2763 0.558518,0.2785 0.04725,5e-4 0.178996,-0.054 0.138552,-0.03 -0.922074,0.5571 -0.946086,0.6171 -0.669228,0.2889 0.251819,-0.4891 0.358096,-1.0337 0.466673,-1.5681 0.110711,-0.5184 0.144187,-1.0475 0.175133,-1.5752 0.03176,-0.4724 0.01782,-1.018 -0.365538,-1.3584 -0.06596,-0.059 -0.145623,-0.1 -0.218435,-0.1495 -0.08795,-0.021 -0.173446,-0.061 -0.263843,-0.063 -0.101907,-0 -0.204959,0.019 -0.30144,0.051 -0.107262,0.037 -0.408415,0.1956 -0.302803,0.1545 0.168188,-0.065 0.318544,-0.2805 0.491135,-0.2278 0.127232,0.039 -0.18798,0.1895 -0.26768,0.2961 -0.0814,0.1087 -0.142379,0.2314 -0.213568,0.3471 -0.233253,0.5192 -0.421346,1.0955 -0.369327,1.6738 0.008,0.089 0.03055,0.1768 0.04582,0.2652 0.212322,0.6558 0.705871,1.1396 1.235832,1.5532 0.558003,0.3901 1.144224,0.7469 1.764349,1.0296 0.171471,0.078 0.351454,0.1346 0.539839,0.082 0.04274,-0.012 0.159787,-0.077 0.121056,-0.055 -0.851649,0.4764 -0.980198,0.668 -0.718091,0.333 0.187809,-0.4878 0.160966,-1.0344 0.167719,-1.5497 -0.005,-0.8007 -0.3379,-1.5216 -0.726444,-2.2032 -0.355419,-0.5975 -0.81519,-1.1125 -1.36677,-1.5328 -0.0606,-0.038 -0.112757,-0.095 -0.181815,-0.1136 -0.173584,-0.046 -0.403245,0.163 -0.331927,0.1403 0.23002,-0.073 0.425716,-0.301 0.666421,-0.2831 0.119502,0.01 -0.117108,0.2097 -0.162814,0.3205 -0.0499,0.1209 -0.08213,0.2484 -0.123194,0.3726 -0.174454,0.7155 -0.25821,1.4585 -0.179216,2.1924 0.128319,0.5479 0.547572,0.9463 0.895159,1.3668 0.249991,0.3448 0.566565,0.6139 0.969359,0.754 0.325016,0.1204 0.64643,0.2394 0.98579,0.313 0.104073,0.017 0.18692,0.048 0.29058,0.01 0.0364,-0.014 0.130072,-0.084 0.09561,-0.067 -0.272826,0.1415 -0.528016,0.319 -0.811452,0.4379 -0.04429,0.019 0.05146,-0.082 0.06898,-0.1265 0.02133,-0.054 0.03121,-0.1127 0.04681,-0.169 0.09144,-0.5443 0.103266,-1.1 0.03551,-1.647 -0.07045,-0.4958 -0.245885,-0.7645 -0.555014,-1.1358 -0.308526,-0.3906 -0.650628,-0.772 -1.108376,-0.9898 -0.09702,-0.046 -0.201199,-0.075 -0.301798,-0.1131 -0.279687,-0.041 -0.311208,-0.073 -0.587767,-0.01 -0.09332,0.022 -0.348893,0.1523 -0.271286,0.096 0.178934,-0.13 0.375226,-0.2391 0.580776,-0.3207 0.08838,-0.035 -0.152495,0.1141 -0.22248,0.1785 -0.06885,0.063 -0.1287,0.1358 -0.19305,0.2036 -0.37008,0.447 -0.446538,1.0078 -0.492585,1.5664 -0.0089,0.3849 0.0031,0.822 0.311806,1.1009 0.04621,0.042 0.101838,0.072 0.152757,0.1075 0.281524,0.1432 0.594067,0.203 0.884159,0.3231 0.210048,0.087 0.275421,0.1339 0.47344,0.2487 0.354697,0.2342 0.686882,0.5452 1.106884,0.6626 0.0646,0.018 0.132732,0.019 0.199098,0.029 0.05966,-0 0.120645,-6e-4 0.178985,-0.014 0.05488,-0.013 0.205922,-0.09 0.15679,-0.063 -0.237659,0.1329 -0.466894,0.2881 -0.723349,0.3797 -0.0679,0.024 0.09735,-0.1077 0.134486,-0.1695 0.113783,-0.1893 0.134452,-0.3278 0.194249,-0.5431 0.149404,-0.7941 0.157809,-1.6085 0.131036,-2.4137 -0.07877,-0.6112 -0.291977,-1.196 -0.650641,-1.7 -0.07656,-0.1076 -0.166218,-0.2052 -0.249328,-0.3079 -0.256357,-0.2638 -0.782507,-0.7338 -1.191014,-0.6803 -0.10119,0.013 -0.377772,0.1505 -0.278346,0.1275 0.183782,-0.042 0.356152,-0.1245 0.534228,-0.1867 -0.539632,0.8291 -0.736565,1.8239 -0.664189,2.805 0.01366,0.1852 0.05077,0.3679 0.07616,0.5518 0.129713,0.8167 0.449283,1.5712 0.912629,2.2507 0.266441,0.332 0.568441,0.4902 0.990843,0.4874 0.33725,-0.1489 0.527727,-0.2369 -0.693567,0.3987 -0.03912,0.02 0.07235,-0.051 0.103053,-0.083 0.14696,-0.1515 0.207362,-0.3362 0.274571,-0.531 0.08738,-0.4255 0.187799,-0.878 0.133323,-1.3155 -0.01249,-0.1003 -0.04137,-0.1979 -0.06206,-0.2969 -0.181963,-0.5933 -0.569158,-1.0649 -1.014887,-1.4811 -0.291294,-0.2583 -0.596424,-0.5215 -0.990256,-0.5903 -0.440161,0.2163 0.426695,-0.2743 0.664689,-0.3543 0.0723,-0.024 -0.09415,0.121 -0.129937,0.1884 -0.04888,0.092 -0.08797,0.1892 -0.122825,0.2874 -0.09171,0.2583 -0.114922,0.4139 -0.171006,0.6814 -0.115554,0.6829 -0.01037,1.1222 0.387379,1.6776 0.370338,0.3658 0.673555,0.803 1.083107,1.1289 0.08053,0.064 0.168877,0.1176 0.253316,0.1764 0.215344,0.1207 0.46284,0.2601 0.721064,0.1794 0.07185,-0.023 0.266543,-0.1387 0.196213,-0.1119 -0.737598,0.2816 -0.784818,0.5285 -0.507124,-0.011 0.327179,-1.0404 0.337042,-2.1523 0.314731,-3.2336 -0.03938,-1.1126 -0.438652,-2.1483 -0.849247,-3.1674 -0.328659,-0.6878 -0.586239,-1.4963 -1.12829,-2.0573 -0.05987,-0.062 -0.130553,-0.1125 -0.19583,-0.1687 0.131804,-0.2189 -0.478572,0.021 -0.3733,-0.047 0.199697,-0.1293 0.399889,-0.305 0.637218,-0.3215 0.129918,-0.01 -0.181693,0.1882 -0.256146,0.2951 -0.200198,0.2873 -0.304958,0.5619 -0.447652,0.8796 -0.316806,0.7698 -0.446986,1.5889 -0.503915,2.4138 -0.065,0.6492 0.02018,1.2859 0.137575,1.923 0.184042,0.9685 0.472598,1.9086 0.904431,2.7946 0.22448,0.3529 0.455042,0.8403 0.888815,0.9827 0.04682,0.015 0.09736,0.015 0.146035,0.023 -0.04303,0.089 0.327155,-0.1615 0.244469,-0.123 -0.252061,0.1175 -0.474474,0.3083 -0.743646,0.3781 -0.08707,0.023 0.105485,-0.1461 0.150247,-0.2241 0.122169,-0.2129 0.19148,-0.4002 0.286269,-0.6272 0.291061,-0.7795 0.452089,-1.5929 0.554082,-2.416 0.09553,-0.8911 -0.194596,-1.7216 -0.48961,-2.5453 -0.342893,-0.789 -0.696934,-1.6726 -1.400017,-2.2199 -0.09891,-0.077 -0.216352,-0.1266 -0.324528,-0.19 0.113121,-0.1862 -0.827908,0.1321 -0.618433,0.1785 0.16499,0.037 0.380836,-0.2732 0.48681,-0.1416 0.104123,0.1294 -0.182706,0.2782 -0.257534,0.4264 -0.177679,0.352 -0.221489,0.5623 -0.331481,0.9361 -0.210562,0.8104 -0.226283,1.6355 -0.138905,2.4624 0.176845,1.2393 0.594845,2.4253 1.174562,3.5322 0.135292,0.2583 0.288156,0.5071 0.432234,0.7606 0.353213,0.5554 0.736249,1.1037 1.218328,1.5573 0.09533,0.09 0.363293,0.329 0.538071,0.344 0.05481,0 0.100764,-0.044 0.151146,-0.066 -0.252915,0.1072 -0.484043,0.3236 -0.758745,0.3217 -0.11387,-8e-4 0.07638,-0.2152 0.100749,-0.3265 0.02986,-0.1363 0.04617,-0.2753 0.06148,-0.414 0.05906,-0.5351 0.0051,-0.3784 0.08483,-0.909 0.0233,-0.1552 0.05811,-0.3083 0.08716,-0.4625 0.199953,-0.7974 0.482127,-1.5698 0.671956,-2.3703 0.06754,-0.3079 0.126168,-0.6188 0.08842,-0.9338 -0.04507,-0.2075 -0.03462,-0.4269 -0.114661,-0.6251 -0.01632,-0.015 -0.02865,-0.037 -0.04894,-0.047 -0.05272,-0.025 -0.08726,0.014 -0.128843,0.038 0.262829,-0.1394 0.51298,-0.306 0.788487,-0.4183 0.066,-0.027 -0.103036,0.099 -0.145898,0.1563 -0.05245,0.07 -0.0925,0.1479 -0.138746,0.2219 -0.294503,0.6201 -0.333827,1.0894 -0.186393,1.7518 0.173808,0.4855 0.47115,0.9154 0.762098,1.3373 0.05109,0.047 0.141361,0.1522 0.225914,0.1639 0.02478,0 0.0468,-0.018 0.0702,-0.027 -0.287233,0.152 -0.564949,0.3236 -0.8617,0.456 -0.03883,0.017 0.0545,-0.066 0.07358,-0.1042 0.03236,-0.064 0.05314,-0.1341 0.0797,-0.2012 0.264849,-0.7057 0.423366,-1.4442 0.543539,-2.1864 0.08205,-0.5898 0.153284,-1.1821 0.04961,-1.7719 -0.111501,-0.4317 -0.33642,-0.8456 -0.678434,-1.1401 -0.07017,-0.061 -0.150154,-0.1085 -0.225231,-0.1627 -0.27147,-0.134 -0.614828,-0.3399 -0.935384,-0.2525 -0.06489,0.018 -0.240335,0.1204 -0.178053,0.095 0.232909,-0.095 0.460436,-0.2027 0.690654,-0.304 -0.397798,0.7418 -0.440771,1.6064 -0.478299,2.4311 -0.02542,0.7189 0.07847,1.1692 0.460115,1.7722 0.241856,0.3626 0.574316,0.65 1.009924,0.7265 0.153697,-0.01 0.176823,8e-4 0.328671,-0.043 0.359074,-0.1034 1.240963,-0.6215 -0.147312,0.1575 0.343523,-0.2044 0.530736,-0.5088 0.652832,-0.8788 0.142434,-0.5529 0.117941,-1.1246 -0.04459,-1.6712 -0.05017,-0.1687 -0.117375,-0.3318 -0.176062,-0.4977 -0.481339,-1.0149 -1.270336,-1.8459 -2.287876,-2.3368 -0.186243,-0.09 -0.385939,-0.1486 -0.578909,-0.223 -0.35882,-0.036 -0.67957,-0.1432 -1.004376,0.1035 -0.10201,0.077 0.3542,-0.2163 0.373659,-0.09 0.03047,0.1983 -0.224949,0.3344 -0.307977,0.517 -0.224426,0.4935 -0.226899,0.7455 -0.311445,1.2774 -0.0049,0.225 -0.02857,0.4504 -0.01459,0.675 0.07005,1.1253 0.516054,2.1814 1.016958,3.173 0.374749,0.6665 0.742016,1.3591 1.327768,1.8653 0.366155,0.2497 0.54152,0.1727 0.890754,-0.033 -1.318239,0.774 -0.741905,0.4794 -0.510843,0.1713 0.110404,-0.1473 0.165034,-0.3017 0.218224,-0.4756 0.112723,-0.5726 0.120175,-1.1624 0.140498,-1.7441 0.02562,-0.7661 0.0043,-1.5401 -0.311596,-2.2493 0.280783,-0.2072 -0.320867,-0.1312 -0.235979,-0.1833 1.232883,-0.7563 0.762481,-0.4477 0.552227,-0.07 -0.171004,0.307 -0.282716,0.6448 -0.405305,0.9718 -0.209437,0.5852 -0.393221,1.18 -0.519933,1.7887 0,0 -0.900239,0.4265 -0.900239,0.4265 l 0,0 c 0.231378,-0.6129 0.415076,-1.2439 0.650977,-1.8556 0.02388,-0.072 0.278052,-0.8442 0.315357,-0.9467 0.03723,-0.1024 0.03545,-0.2374 0.122349,-0.3031 0.08645,-0.065 0.85605,-0.8864 1.174828,-0.4893 0.04403,0.055 0.06475,0.1249 0.09712,0.1873 0.245082,0.7444 0.266425,1.5337 0.268692,2.3118 0.01479,0.5736 0.05396,1.1516 -0.03787,1.7212 -0.199166,0.845 -0.592815,0.8892 -1.414918,1.3809 -0.386632,0.1985 -0.592544,0.1959 -0.937504,-0.091 -0.526539,-0.5744 -0.849991,-1.2894 -1.2029,-1.9764 -0.368128,-0.8139 -0.692212,-1.6366 -0.876887,-2.5142 -0.0495,-0.2352 -0.102766,-0.471 -0.122417,-0.7106 -0.01861,-0.2269 0.0054,-0.4553 0.0081,-0.683 0.07265,-0.5536 0.06656,-0.7663 0.266002,-1.2876 0.06996,-0.1828 0.117203,-0.3926 0.259777,-0.5268 0.28519,-0.2684 1.01927,-0.8737 1.584954,-0.8858 0.177205,-0 0.349135,0.061 0.523703,0.092 0.186755,0.083 0.379551,0.1534 0.560266,0.2488 1.007635,0.532 1.83021,1.3503 2.375374,2.3478 0.300896,0.7141 0.538095,1.3721 0.380688,2.1544 -0.0979,0.3935 -0.275094,0.7215 -0.625249,0.9469 -0.563112,0.3281 -1.23888,0.876 -1.954364,0.828 -0.43903,-0.1306 -0.761822,-0.4396 -1.010263,-0.8194 -0.107905,-0.1831 -0.192986,-0.3125 -0.273341,-0.5119 -0.171907,-0.4267 -0.185226,-0.8846 -0.163975,-1.3381 0.06491,-0.8244 0.114998,-1.6686 0.393353,-2.4537 0.333216,-0.2349 0.656023,-0.4852 0.999647,-0.7046 0.05856,-0.037 0.13031,-0.053 0.199355,-0.061 0.334477,-0.037 0.663927,0.1737 0.942109,0.3223 0.07805,0.058 0.160796,0.1112 0.234155,0.1755 0.354337,0.3107 0.589415,0.7372 0.718195,1.1852 0.03799,0.2265 0.06062,0.3016 0.05817,0.535 -0.0045,0.4329 -0.08663,0.8652 -0.145293,1.2923 -0.132181,0.7253 -0.282056,1.4479 -0.465953,2.162 -0.0079,0.039 -0.06014,0.3191 -0.07771,0.3311 -0.734607,0.5047 -0.869885,0.8403 -1.273333,0.3107 -0.271884,-0.4489 -0.590917,-0.8782 -0.75129,-1.3833 -0.0525,-0.2394 -0.08939,-0.3565 -0.09775,-0.6045 -0.01394,-0.4133 0.09058,-0.8197 0.237384,-1.2024 0.289214,-0.6022 0.419447,-0.5614 1.229194,-0.9969 0.107277,-0.058 0.210082,0.061 0.256577,0.1335 0.08152,0.2095 0.0839,0.4325 0.120705,0.6528 0.0394,0.3439 -0.03879,0.6742 -0.140543,1.003 -0.248544,0.8 -0.561316,1.5814 -0.749197,2.3989 -0.06532,0.3526 -0.110753,0.5445 -0.138121,0.9014 -0.112643,1.4693 0.07817,-0.4907 -0.04036,0.8601 -0.0097,0.1104 0.03819,0.251 -0.03937,0.3301 -0.279715,0.2854 -0.647981,0.4678 -0.971972,0.7018 -0.05243,-0.01 -0.109761,0.01 -0.157279,-0.015 -0.145707,-0.07 -0.366015,-0.3428 -0.443541,-0.4394 -0.413469,-0.5149 -0.76307,-1.0775 -1.089056,-1.6506 -0.55839,-1.013 -1.068442,-2.0343 -1.470191,-3.1207 -0.07594,-0.2053 -0.155697,-0.4097 -0.21762,-0.6196 -0.04667,-0.1583 -0.07174,-0.3222 -0.107611,-0.4833 -0.05903,-0.3856 -0.08486,-0.4615 -0.09034,-0.8428 -0.0081,-0.5621 0.100101,-1.1191 0.233395,-1.6624 0.113841,-0.3899 0.15501,-0.5807 0.322803,-0.9538 0.06681,-0.1486 0.107168,-0.3216 0.225481,-0.4336 0.321586,-0.3043 0.699345,-0.5445 1.067658,-0.7902 0.32228,-0.2151 0.326855,-0.1522 0.670081,-0.094 0.100852,0.076 0.210073,0.141 0.302556,0.2266 0.657281,0.6083 1.005467,1.4779 1.410377,2.2545 0.139997,0.3313 0.222988,0.5013 0.325391,0.8397 0.169958,0.5615 0.22658,1.1522 0.19831,1.7369 -0.09491,0.8206 -0.236321,1.6366 -0.507688,2.4197 -0.04112,0.1107 -0.268689,0.7822 -0.352537,0.85 -0.308606,0.2495 -0.654436,0.4493 -0.989202,0.6624 -0.0433,0.028 -0.09232,0.048 -0.142618,0.058 -0.048,0.01 -0.09795,5e-4 -0.146932,8e-4 -0.520586,-0.1874 -0.737803,-0.6821 -0.974452,-1.1451 -0.37776,-0.9121 -0.661435,-1.8557 -0.920014,-2.808 -0.03977,-0.1633 -0.142706,-0.5707 -0.172137,-0.7472 -0.06528,-0.3913 -0.05162,-0.7895 -0.01318,-1.1826 0.09288,-0.8442 0.253094,-1.682 0.566061,-2.4753 0.103484,-0.2512 0.251887,-0.6333 0.385181,-0.8758 0.0583,-0.1061 0.101513,-0.2322 0.199283,-0.3036 0.33602,-0.2453 0.702166,-0.4506 1.078062,-0.6288 0.155006,-0.074 0.288811,0.057 0.396674,0.1282 0.0607,0.065 0.127714,0.1253 0.182098,0.1959 0.15005,0.1949 0.250928,0.4047 0.356763,0.6262 0.238147,0.4982 0.447965,1.0098 0.663549,1.518 0.436418,1.0175 0.882553,2.0528 0.894839,3.1795 -0.0043,0.5779 -0.0209,1.1549 -0.0504,1.7322 -0.01309,0.2562 -0.04686,0.8196 -0.08346,1.085 -0.01899,0.1377 -0.05269,0.2729 -0.07903,0.4094 -0.252759,0.6737 -0.05968,0.3383 -1.127635,1.0208 -0.138555,0.089 -0.298692,0.1008 -0.4551,0.066 -0.18197,-0.04 -0.333726,-0.1475 -0.490731,-0.2394 -0.508903,-0.3815 -0.930215,-0.863 -1.366064,-1.3238 -0.05532,-0.078 -0.117349,-0.1508 -0.165952,-0.2328 -0.279178,-0.471 -0.323369,-0.9997 -0.227863,-1.5299 0.161949,-0.8374 0.248389,-1.7701 1.454183,-1.7979 0.379023,0.1339 0.684304,0.3849 0.965207,0.6679 0.440104,0.4418 0.825702,0.9398 1.027382,1.5378 0.0258,0.1025 0.06032,0.2032 0.0774,0.3075 0.07227,0.4412 -0.02414,0.8997 -0.09451,1.3339 -0.04323,0.1712 -0.05576,0.2575 -0.128792,0.4148 -0.218995,0.4717 -0.792064,0.7726 -1.290329,0.8277 -0.41327,-0.047 -0.753229,-0.2544 -0.982023,-0.6067 -0.421125,-0.7257 -0.711246,-1.5094 -0.823664,-2.3452 -0.02025,-0.1899 -0.04967,-0.3791 -0.06076,-0.5697 -0.05655,-0.9725 0.09707,-1.9504 0.543054,-2.8221 0.02794,-0.02 0.922087,-0.8361 1.375158,-0.8395 0.421616,-0 0.925233,0.4756 1.191759,0.7557 0.484857,0.6076 0.874105,1.2626 0.93602,2.0561 0.01641,0.8074 -0.02111,1.617 -0.09319,2.4211 -0.0398,0.2222 -0.04809,0.354 -0.137997,0.5575 -0.237676,0.5379 -0.911939,0.8772 -1.48538,0.8388 -0.491196,-0.132 -0.886373,-0.4458 -1.296539,-0.7344 -0.165647,-0.088 -0.29384,-0.1632 -0.468252,-0.2318 -0.305199,-0.12 -0.636399,-0.1717 -0.925681,-0.3328 -0.05408,-0.043 -0.113654,-0.08 -0.162239,-0.1295 -0.309982,-0.3143 -0.321414,-0.774 -0.312117,-1.187 0.04475,-0.5716 0.09454,-1.1538 0.461746,-1.6223 0.471777,-0.5354 0.706863,-0.628 1.488974,-1.0258 0.146806,-0.075 0.419108,-0.1048 0.579558,-0.091 0.103194,0.01 0.202616,0.043 0.303925,0.065 0.102365,0.042 0.208232,0.077 0.307094,0.1276 0.459734,0.2333 0.829367,0.6124 1.174952,0.986 0.328116,0.3758 0.493965,0.6981 0.552632,1.2043 0.05431,0.5489 0.05845,1.1029 0.02298,1.6534 -0.0022,0.014 -0.04175,0.3102 -0.06977,0.3316 -0.578657,0.4416 -0.790179,0.7387 -1.372487,0.6042 -0.34043,-0.088 -0.673046,-0.2009 -1.00404,-0.3192 -0.392456,-0.1804 -0.693343,-0.4821 -0.947375,-0.8284 -0.346668,-0.4455 -0.800393,-0.8459 -0.917966,-1.4204 -0.03763,-0.7531 0.05797,-1.5063 0.205367,-2.2444 0.01443,-0.053 0.164058,-0.6443 0.22598,-0.7024 0.30164,-0.2832 0.660484,-0.4992 1.003318,-0.7309 0.130133,-0.088 0.24883,-0.1134 0.394621,-0.047 0.06513,0.03 0.11355,0.087 0.170326,0.1309 0.517693,0.4666 0.966418,0.9971 1.313354,1.6045 0.391565,0.6912 0.767609,1.4082 0.796838,2.2201 -5.43e-4,0.5192 0.02889,1.0499 -0.06867,1.5614 -0.02015,0.043 -0.02097,0.1033 -0.06044,0.1305 -0.229774,0.1584 -0.814724,0.6911 -1.274573,0.6122 -0.153201,-0.026 -0.229532,-0.077 -0.37082,-0.1459 -0.594704,-0.3276 -1.173499,-0.6881 -1.733043,-1.0722 -0.549973,-0.4306 -1.057966,-0.9239 -1.308053,-1.5927 -0.01526,-0.094 -0.03872,-0.1876 -0.04579,-0.2828 -0.0447,-0.6018 0.172147,-1.1958 0.395345,-1.7417 0.463428,-0.8234 0.544192,-0.7762 1.554667,-1.3678 0.308955,-0.181 0.6238,-0.2218 0.953509,-0.081 0.07728,0.057 0.162466,0.104 0.231852,0.1702 0.381298,0.3637 0.408245,0.9293 0.401242,1.4205 -0.01009,0.5359 -0.06578,1.0692 -0.177452,1.5941 -0.110392,0.5312 -0.213995,1.0656 -0.399221,1.5775 -0.24157,0.4918 -0.08146,0.242 -1.093198,0.7335 -0.189234,0.092 -0.572925,-0.2547 -0.693128,-0.3504 -0.140187,-0.1297 -0.270618,-0.2526 -0.4151,-0.3778 -0.213576,-0.185 -0.451384,-0.3493 -0.559798,-0.622 -0.148128,-0.5978 -0.09555,-1.2058 0.01989,-1.8065 0.008,-0.036 0.101116,-0.507 0.156736,-0.5552 0.300992,-0.2609 0.647056,-0.4653 0.982866,-0.6795 0.04997,-0.032 0.110196,-0.048 0.16903,-0.055 0.148601,-0.018 0.283157,0.038 0.422027,0.078 0.685485,0.3048 1.284938,0.7562 1.753321,1.3463 0.413121,0.5973 0.782067,1.2277 0.799818,1.9749 -0.0098,0.1531 -0.02448,0.6303 -0.173388,0.7365 -0.224584,0.1603 -0.790751,0.6532 -1.244452,0.6255 -0.09747,-0.01 -0.192036,-0.036 -0.288054,-0.053 -0.942001,-0.3127 -1.822102,-0.7803 -2.746064,-1.1401 -0.08848,-0.032 -0.175098,-0.069 -0.265448,-0.095 -0.04524,-0.013 -0.176881,0.01 -0.139618,-0.021 0.263951,-0.2036 0.56595,-0.3524 0.849957,-0.527 0.01406,-0.01 -0.03046,0.016 -0.03998,0.029 -0.02441,0.035 -0.03539,0.114 -0.04272,0.1497 -0.03085,0.2062 0.02709,0.4171 0.140359,0.5908 0.199207,0.2389 0.471099,0.3852 0.709959,0.5796 0.166831,0.1338 0.334948,0.2585 0.435968,0.4521 0.08893,0.154 0.212133,0.2863 0.289437,0.448 0.09141,0.1422 0.164513,0.2986 0.287991,0.4168 0.173032,0.181 0.406353,0.2869 0.617589,0.416 0.249614,0.1406 0.483594,0.3078 0.742383,0.4326 0.280383,0.1265 0.567483,0.2324 0.874659,0.2713 0.184325,0.051 0.356281,0.1507 0.551201,0.09 0.394601,-0.1299 0.07183,-0.03 -0.738375,0.4562 -0.02437,0.015 0.05317,-0.021 0.07754,-0.036 0.08249,-0.05 0.132923,-0.126 0.172121,-0.2118 0.114736,-0.1898 0.170636,-0.4091 0.293207,-0.5954 0.120921,-0.2431 0.219709,-0.4922 0.310188,-0.7483 0.0951,-0.3107 0.247626,-0.5995 0.348666,-0.9083 0.113225,-0.3679 0.118643,-0.74 0.09945,-1.1227 -6.04e-4,-0.3215 0.0013,-0.6429 -0.0014,-0.9644 -0.01197,-0.3089 -0.03403,-0.6219 -0.160377,-0.9088 -0.181473,-0.3703 -0.439589,-0.6975 -0.701888,-1.0139 -0.231283,-0.3 -0.468341,-0.5952 -0.673577,-0.9141 -0.164951,-0.2734 -0.343437,-0.5449 -0.599667,-0.7417 -0.289165,-0.1955 -0.583957,-0.3597 -0.944785,-0.3568 -0.368624,0.01 -0.7242,0.095 -1.088099,0.1463 -0.323779,0.056 -0.654396,0.1014 -0.959736,0.2287 1.581896,-0.9336 0.799925,-0.5323 0.561747,-0.2981 -0.119901,0.1178 -0.20916,0.2605 -0.308728,0.3947 -0.140281,0.1817 -0.278451,0.3696 -0.380905,0.5755 -0.09893,0.178 -0.147406,0.3835 -0.178483,0.5834 -0.03832,0.2652 -0.01353,0.5359 -0.01999,0.8031 0.0082,0.2758 0.01499,0.5524 0.05692,0.8256 0.05261,0.3042 0.140665,0.6006 0.183378,0.9067 0.02323,0.2951 0.06857,0.5866 0.136017,0.8749 0.04598,0.3266 0.1201,0.6478 0.209103,0.9652 0.07044,0.1986 0.132657,0.3955 0.271642,0.5596 0,0 -0.928302,0.544 -0.928302,0.544 z"
       inkscape:connector-curvature="0" />
    <path
       style="fill:#66ff00;fill-opacity:1;stroke:none;stroke-opacity:1"
       id="path4653"
       d="m 24.646595,1031.1899 c -0.07434,-0.1771 -0.1959,-0.3264 -0.315496,-0.4742 -0.138314,-0.184 -0.277002,-0.3665 -0.401192,-0.5604 -0.157953,-0.259 -0.243597,-0.5538 -0.326356,-0.8435 -0.06927,-0.3039 -0.173914,-0.598 -0.249943,-0.8998 -0.07978,-0.3421 -0.175308,-0.6801 -0.248215,-1.0238 -0.03752,-0.2364 -0.114455,-0.4882 -0.0078,-0.7148 0.114866,-0.1379 0.269237,-0.2307 0.371322,-0.3792 0.0911,-0.1751 0.09626,-0.3753 0.103795,-0.5683 -0.0064,-0.1975 0.04637,-0.3887 0.0754,-0.5825 0.03324,-0.2494 0.176958,-0.4318 0.36164,-0.5911 0.525334,-0.3838 2.240913,-1.2827 0.518359,-0.3246 -0.102672,0.057 0.197833,-0.1269 0.29372,-0.1948 0.493219,-0.3586 0.995789,-0.7538 1.590586,-0.9155 0.281475,-0.057 0.5594,-0.016 0.825555,0.083 0.248457,0.1034 0.456891,0.2676 0.66768,0.4306 0.290539,0.1901 0.489226,0.4763 0.703712,0.7427 0.219652,0.2701 0.349483,0.5848 0.431745,0.9193 0.06498,0.3028 0.06368,0.6142 0.06998,0.9224 -0.0038,0.3459 -0.0057,0.6918 -0.0093,1.0377 -0.0062,0.3392 -0.0956,0.6649 -0.246249,0.9669 -0.130279,0.1874 -0.284646,0.355 -0.393881,0.5565 -0.09433,0.1704 -0.175016,0.3503 -0.293752,0.5054 -0.116723,0.1232 -0.219645,0.2575 -0.304335,0.4044 -0.106544,0.1724 -0.201859,0.353 -0.340947,0.5018 -0.508235,0.4483 -0.893313,0.6226 -1.472937,0.64 -0.256041,0.01 -0.496257,-0.076 -0.695028,-0.2329 -0.253587,-0.2569 -0.392999,-0.5975 -0.51839,-0.9303 -0.09499,-0.289 -0.224501,-0.5657 -0.312053,-0.8573 -0.12949,-0.5591 -0.231604,-0.2241 0.849898,-0.8421 0.02208,-0.013 0.04021,0.032 0.06257,0.044 0.01993,0.011 0.04226,0.016 0.06339,0.025 0.144634,0.043 0.287933,0.067 0.43052,9e-4 0.04554,-0.021 0.17289,-0.1026 0.128808,-0.078 -0.246499,0.1351 -0.490782,0.2743 -0.736173,0.4114 0.294099,-0.2302 0.515351,-0.5325 0.659881,-0.8746 0.156777,-0.3764 1.84e-4,-0.7001 -0.183428,-1.0306 -0.233765,-0.3459 -0.43378,-0.7163 -0.733415,-1.0108 -0.107964,-0.085 -0.235037,-0.169 -0.37637,-0.1849 -0.303714,-0.034 -1.086007,0.4999 0.431322,-0.3302 -0.452401,0.439 -0.471776,1.0916 -0.42204,1.6807 0.106928,0.5456 0.308019,1.1273 0.747226,1.499 0.06161,0.052 0.132714,0.092 0.199071,0.1379 0.172976,0.087 0.319889,0.1373 0.500506,0.048 0.04868,-0.024 0.186277,-0.1119 0.138234,-0.087 -0.7616,0.4028 -0.957384,0.6058 -0.60653,0.2795 0.290845,-0.3588 0.591811,-0.7074 0.902616,-1.0493 0.4669,-0.4802 0.704705,-0.9015 0.904264,-1.5383 0.103828,-0.3523 0.168462,-0.7684 -0.223712,-0.9583 -0.06919,-0.034 -0.144902,-0.052 -0.217353,-0.077 -0.604727,-0.1551 -1.172091,0.01 -1.732946,0.2345 -0.621422,0.3341 0.303151,-0.1866 0.467597,-0.2524 0.06146,-0.025 -0.09588,0.092 -0.135119,0.1455 -0.139266,0.1892 -0.183676,0.4083 -0.231685,0.6323 -0.04536,0.3416 -0.08958,0.7501 0.137461,1.0433 0.03581,0.046 0.08356,0.082 0.125342,0.1229 0.245253,0.1676 0.549352,0.1862 0.824094,0.2779 0.253491,0.085 0.26838,0.1103 0.500803,0.2475 0.223972,0.1203 0.581774,0.5171 0.830266,0.5567 0.04757,0.01 0.183003,-0.052 0.141941,-0.027 -0.242199,0.1486 -0.501337,0.2675 -0.752005,0.4013 0.392785,-0.3415 0.500791,-0.8764 0.590156,-1.3658 0.0691,-0.4551 0.08605,-0.9357 -0.07648,-1.3751 -0.09049,-0.2446 -0.188439,-0.3683 -0.330386,-0.5885 -0.534846,-0.7595 -1.204513,-1.4127 -1.953969,-1.9577 -0.228411,-0.1302 -0.520472,-0.3644 -0.810598,-0.2612 -0.07905,0.028 -0.287203,0.1673 -0.20669,0.1437 0.647466,-0.1899 0.781234,-0.516 0.418493,0.038 -0.388777,0.7569 -0.469378,1.6107 -0.49011,2.4482 0.05255,0.1453 0.08967,0.2971 0.157666,0.4359 0.306288,0.6251 0.970058,1.2094 1.428145,1.7418 0.439862,0.5086 0.725799,1.1209 1.085136,1.6829 0.118721,0.1405 0.24985,0.2987 0.430864,0.3627 0.04278,0.015 0.08969,0.023 0.134856,0.018 0.04109,-0 0.151953,-0.063 0.116207,-0.043 -0.255074,0.1473 -0.517023,0.2825 -0.775535,0.4237 0.391206,-0.3775 0.428068,-0.9641 0.483934,-1.4752 0.05876,-0.6171 -0.08711,-1.2071 -0.28959,-1.7834 -0.148615,-0.3676 -0.268664,-0.7615 -0.518422,-1.0756 -0.07741,-0.075 -0.148797,-0.1328 -0.255271,-0.074 -0.03446,0.019 -0.13078,0.086 -0.0955,0.069 0.812869,-0.3994 0.912373,-0.6429 0.603226,-0.1564 -0.403055,0.9997 -0.327085,2.0821 -0.154804,3.1219 0.139648,0.52 0.228014,1.165 0.686698,1.514 0.02643,0 0.05525,0.011 0.0793,0 0.02191,-0.01 0.0664,-0.067 0.04483,-0.057 -0.289226,0.1437 -0.550223,0.3476 -0.853535,0.4585 -0.05482,0.02 0.04215,-0.1093 0.05475,-0.1663 0.04518,-0.2045 0.06165,-0.4723 0.08025,-0.6731 0.04281,-0.8628 0.100479,-1.7365 -0.03677,-2.5945 -0.02325,-0.1453 -0.06019,-0.2882 -0.09028,-0.4323 -0.145034,-0.5511 -0.419399,-1.0543 -0.891306,-1.3843 -0.08078,-0.03 -0.155302,-0.074 -0.24554,-0.05 -0.03394,0.01 -0.121453,0.07 -0.09056,0.053 0.270912,-0.1448 0.530825,-0.3116 0.810693,-0.4382 0.04386,-0.02 -0.06412,0.072 -0.09065,0.1124 -0.0281,0.043 -0.04837,0.09 -0.07256,0.1346 -0.03194,0.084 -0.077,0.1745 -0.07883,0.2681 -0.0024,0.1214 0.08364,-0.075 0.02369,-0.048 -0.286161,0.1269 -0.538063,0.3238 -0.825386,0.448 -0.05898,0.026 0.08421,-0.097 0.12631,-0.1456 0.208078,-0.3483 0.38128,-0.7669 0.362797,-1.182 -0.0033,-0.074 -0.02149,-0.1463 -0.03223,-0.2195 -0.0527,-0.2044 -0.151838,-0.3904 -0.246099,-0.5775 -0.02528,-0.05 -0.100231,-0.2209 -0.156928,-0.2699 -0.01276,-0.011 -0.03368,-0 -0.05052,-0 0.295046,-0.1415 0.569039,-0.3399 0.885137,-0.4244 0.07677,-0.02 -0.07439,0.1409 -0.102675,0.2151 -0.04302,0.113 -0.07705,0.2293 -0.110751,0.3453 -0.126515,0.4357 -0.208787,0.876 -0.283791,1.3228 -0.100823,0.7045 -0.16142,1.4153 -0.109816,2.126 0.01739,0.3167 0.113379,0.6203 0.170517,0.9306 4.96e-4,0.01 0.05857,0.5735 0.08252,0.4295 0.04532,-0.073 0.07377,0.1727 0.07495,0.1936 0,0 -0.949013,0.4935 -0.949013,0.4935 l 0,0 c -0.01111,-0.097 0.0088,-0.064 -0.03195,-0.085 -0.11168,-0.1528 -0.06066,-0.3666 -0.09751,-0.5432 -0.04555,-0.323 -0.126446,-0.643 -0.119351,-0.9713 -0.0038,-0.7324 0.0728,-1.4607 0.184086,-2.1843 0.07069,-0.4372 0.151544,-0.8712 0.233017,-1.3065 0.02038,-0.1088 0.03875,-0.218 0.05757,-0.3272 0.01226,-0.071 -0.02128,-0.1692 0.03569,-0.2134 0.300173,-0.2332 0.655341,-0.3852 0.983011,-0.5778 0.08194,0.1065 0.122629,0.2332 0.178216,0.3551 0.0912,0.2001 0.198993,0.394 0.249726,0.6099 0.01246,0.08 0.03384,0.1592 0.03737,0.24 0.01732,0.3975 -0.15135,0.8649 -0.314772,1.2213 -0.02908,0.052 -0.03856,0.1212 -0.08725,0.1551 -0.318106,0.2212 -0.649168,0.4267 -0.996433,0.5986 -0.09055,0.045 -0.108299,-0.1283 -0.106419,-0.1522 0.0032,-0.04 0.07393,-0.2731 0.08068,-0.2961 0.009,-0.021 0.105677,-0.2568 0.132281,-0.2753 0.315454,-0.2185 0.64759,-0.4129 0.982941,-0.5995 0.03423,-0.019 0.07785,-0.016 0.116863,-0.013 0.09588,0.01 0.169867,0.065 0.25016,0.1107 0.445738,0.392 0.691567,0.9314 0.819001,1.5056 0.02459,0.1498 0.05534,0.2987 0.07378,0.4493 0.10489,0.8569 0.05022,1.7213 0.08856,2.5814 6.17e-4,0.023 0.02312,0.8059 0.0028,0.8232 -0.31435,0.2673 -0.713455,0.8294 -1.110919,0.5718 -0.38719,-0.4578 -0.464047,-1.0831 -0.568869,-1.6533 -0.133554,-1.0394 -0.203652,-2.0922 0.02984,-3.1246 0.243195,-0.6001 0.0468,-0.2495 1.095954,-0.8925 0.17025,-0.1044 0.320213,-0 0.428589,0.1291 0.223036,0.3446 0.341418,0.7476 0.479154,1.1312 0.201668,0.5926 0.326101,1.2002 0.286543,1.8307 -0.03649,0.5205 -0.06992,1.0775 -0.368757,1.5237 -0.338613,0.1918 -0.667977,0.4009 -1.015838,0.5753 -0.231034,0.1158 -0.603459,-0.3176 -0.701482,-0.4725 -0.317242,-0.5802 -0.588573,-1.1922 -1.012712,-1.707 -0.592462,-0.7039 -1.298324,-1.3518 -1.609407,-2.24 0.02373,-0.8401 0.07983,-1.7001 0.436126,-2.4747 0.35721,-0.6513 0.122626,-0.3315 1.196971,-1.0313 0.07483,-0.049 0.157366,-0.093 0.245491,-0.1073 0.296534,-0.049 0.560109,0.2117 0.781821,0.3532 0.718288,0.5952 1.380003,1.2635 1.984751,1.9731 0.07136,0.1012 0.151331,0.1969 0.214067,0.3037 0.302942,0.5156 0.293192,1.1338 0.248649,1.7103 -0.0669,0.4986 -0.167966,1.0183 -0.495254,1.4178 -0.344326,0.1908 -0.675252,0.4081 -1.032978,0.5724 -0.09675,0.044 -0.254688,-0.085 -0.312005,-0.1268 -0.21535,-0.1572 -0.411301,-0.3409 -0.640135,-0.4799 -0.08094,-0.043 -0.158535,-0.094 -0.242809,-0.1306 -0.368759,-0.1606 -0.80223,-0.151 -1.134042,-0.3961 -0.04483,-0.049 -0.09625,-0.093 -0.134502,-0.1474 -0.227871,-0.3243 -0.196444,-0.7434 -0.151387,-1.1148 0.03926,-0.2299 0.07022,-0.468 0.194433,-0.6718 0.287305,-0.4714 0.874236,-0.6538 1.356736,-0.8841 0.573763,-0.2062 1.178148,-0.3426 1.783447,-0.1856 0.18078,0.065 0.293521,0.08 0.428676,0.2225 0.252762,0.266 0.144978,0.6473 0.06045,0.9566 -0.200909,0.6251 -0.399562,1.0933 -0.870322,1.568 -0.299693,0.3372 -0.599173,0.6736 -0.864585,1.0391 -0.381664,0.412 -0.126069,0.1603 -1.125355,0.7471 -0.235649,0.1383 -0.461634,0.075 -0.674238,-0.074 -0.06574,-0.053 -0.136925,-0.1006 -0.197228,-0.1601 -0.419802,-0.4136 -0.594034,-1.0206 -0.746177,-1.5702 -0.06566,-0.5981 -0.067,-1.2413 0.308492,-1.746 0.662334,-0.3824 1.134431,-0.9567 1.757385,-0.3814 0.278125,0.3206 0.486941,0.6928 0.72571,1.0424 0.202553,0.3402 0.399447,0.7003 0.246034,1.1014 -0.140493,0.3549 -0.355778,0.6667 -0.635489,0.9284 -0.337904,0.201 -0.672531,0.4076 -1.01371,0.603 -0.204126,0.1169 -0.420946,0.091 -0.638906,0.038 -0.02285,-0 -0.04531,-0.016 -0.06854,-0.014 -0.01187,10e-4 -0.03783,0.029 -0.02788,0.022 1.07672,-0.7118 0.805316,-0.8836 0.915463,-0.3339 0.07414,0.2941 0.188005,0.5764 0.282367,0.8643 0.110718,0.3161 0.253044,0.6392 0.509975,0.8639 0.201662,0.1296 0.421984,0.1977 0.66396,0.169 0.101381,-0.01 0.203014,-0.013 0.30192,-0.039 0.03022,-0.01 0.115688,-0.045 0.08915,-0.029 -0.686106,0.4246 -1.127997,0.6199 -0.742167,0.4464 0.164167,-0.118 0.251454,-0.3006 0.355562,-0.4693 0.08326,-0.1544 0.170011,-0.3013 0.294153,-0.4274 0.147561,-0.1301 0.205683,-0.3184 0.312208,-0.4802 0.09734,-0.2166 0.245168,-0.4002 0.410386,-0.5697 0.17316,-0.2782 0.258937,-0.6014 0.283009,-0.9272 -0.0019,-0.343 1.02e-4,-0.686 -0.0052,-1.029 3.96e-4,-0.3021 -0.0035,-0.6059 -0.05599,-0.9043 -0.06993,-0.3216 -0.196536,-0.6228 -0.391956,-0.8898 -0.209714,-0.2645 -0.433145,-0.5215 -0.72211,-0.7023 -0.202603,-0.1542 -0.397214,-0.3203 -0.640576,-0.4083 -0.261987,-0.082 -0.531385,-0.1045 -0.797514,-0.022 -0.341875,0.1223 -0.838154,0.44 0.558455,-0.3625 0.04135,-0.024 -0.08123,0.05 -0.12041,0.077 -0.08661,0.06 -0.16621,0.13 -0.25586,0.1859 -0.405685,0.3093 -0.859945,0.5401 -1.303621,0.7937 -0.249759,0.1428 0.494543,-0.2941 0.744311,-0.4369 0.08144,-0.047 -0.306977,0.1985 -0.235486,0.1541 -0.18409,0.121 -0.337699,0.2872 -0.381205,0.5096 -0.02286,0.1931 -0.07997,0.3809 -0.08427,0.5747 -0.004,0.2051 -0.0056,0.4147 -0.07385,0.6106 -0.07926,0.1696 -0.213973,0.2804 -0.363532,0.3886 -0.184167,0.1646 -0.08215,0.4404 -0.06383,0.6551 0.05971,0.3444 0.15519,0.6801 0.249216,1.0165 0.07681,0.3007 0.179928,0.5942 0.245884,0.8979 0.08305,0.2795 0.164433,0.5619 0.325558,0.8084 0.127772,0.1875 0.265008,0.3684 0.404534,0.547 0.121198,0.1517 0.238503,0.305 0.34268,0.4692 0,0 -0.928302,0.544 -0.928302,0.544 z"
       inkscape:connector-curvature="0" />
    <path
       style="fill:#66ff00;fill-opacity:1;stroke:none;stroke-opacity:1"
       id="path4655"
       d="m 27.185591,1037.3119 c -0.210053,-0.067 -0.349356,-0.2303 -0.461564,-0.4113 -0.19936,-0.3074 -0.309148,-0.6601 -0.453583,-0.9942 -0.128292,-0.3584 -0.281614,-0.7067 -0.449159,-1.0483 -0.159885,-0.3064 -0.297599,-0.6238 -0.45443,-0.9313 -0.138737,-0.2495 -0.220354,-0.5197 -0.279512,-0.7971 -0.06879,-0.2951 -0.133076,-0.5905 -0.169852,-0.8915 -0.02598,-0.2251 0.05864,-0.4258 0.148617,-0.6259 0.111858,-0.3254 0.261039,-0.6273 0.454287,-0.9116 0.408587,-0.499 1.003839,-0.8836 1.637859,-1.0179 0.25589,-0.04 0.515643,-0.026 0.773419,-0.021 0.3495,0.019 0.618832,0.1 0.853151,0.3686 0.146006,0.2392 0.210368,0.5175 0.309282,0.7785 0.140171,0.2928 0.258626,0.5943 0.377997,0.896 0.139212,0.3773 0.31421,0.7391 0.462943,1.1126 0.164007,0.3734 0.306982,0.7581 0.398679,1.156 0.06488,0.4237 0.074,0.8538 0.08182,1.2817 4.8e-5,0.4232 2.2e-5,0.8464 -0.0017,1.2696 -0.0016,0.3352 -0.0646,0.6514 -0.222083,0.9463 -0.3098,0.4488 -0.859622,0.7564 -1.403581,0.8144 -0.25094,0.03 -0.38573,0.011 -0.614303,-0.088 -0.384861,-0.2211 -0.818911,-0.3185 -1.243041,-0.4343 -0.515082,-0.1342 -0.923105,-0.2828 -1.23194,-0.7317 -0.198716,-0.3416 -0.0056,-0.6376 0.221509,-0.9013 0.198476,-0.2016 0.391076,-0.4088 0.585566,-0.6142 0.454365,-0.3667 2.159666,-1.2212 0.32993,-0.2147 -0.05093,0.028 0.08866,-0.076 0.126872,-0.1196 0.121279,-0.1925 0.118137,-0.4266 0.129307,-0.6462 -0.01447,-0.4499 -0.02619,-0.9006 -0.03936,-1.3511 -0.032,-0.4109 -0.05141,-0.8808 -0.382642,-1.1706 -0.102882,-0.043 -0.181318,-0.054 -0.282042,-7e-4 -0.0342,0.018 -0.132034,0.081 -0.09777,0.063 0.806655,-0.4242 0.958959,-0.6513 0.667611,-0.2852 -0.27204,0.4297 -0.375918,0.9264 -0.443302,1.4229 -0.04913,0.4781 0.06657,0.7378 0.290809,1.1404 0.333554,0.7258 0.746518,1.3998 1.275132,1.9985 0.172878,0.1513 0.373137,0.2968 0.614148,0.2003 0.06077,-0.024 0.224006,-0.1338 0.16362,-0.1086 -0.237682,0.099 -0.443571,0.2912 -0.697939,0.3321 -0.09353,0.015 0.09774,-0.1623 0.146603,-0.2435 0.283575,-0.67 0.479979,-1.3897 0.560374,-2.1144 0.01744,-0.1572 0.01914,-0.3158 0.02871,-0.4737 0.01601,-0.9727 -0.372794,-1.6984 -0.838341,-2.5161 -0.494967,-0.8061 -1.107268,-1.5179 -1.79955,-2.1585 -0.139196,-0.1115 -0.325147,-0.2863 -0.506649,-0.3445 -0.170148,-0.054 -1.560292,0.1795 0.559492,-0.3812 0.07889,-0.021 -0.09656,0.1336 -0.126778,0.2094 -0.04524,0.1135 -0.06503,0.2355 -0.09754,0.3533 -0.09455,0.5407 -0.129091,1.1036 0.02797,1.6371 0.07487,0.2543 0.140221,0.3464 0.264434,0.5742 0.548889,0.7512 1.045293,1.5377 1.553656,2.3164 0.518109,0.7307 1.037963,1.462 1.603509,2.1572 0.146078,0.1365 0.276986,0.3489 0.475047,0.424 0.118558,0.045 0.240948,-0.059 0.194942,-0.034 -0.271044,0.1462 -0.543912,0.2891 -0.815868,0.4336 0.312692,-0.4107 0.371706,-0.9401 0.429339,-1.4371 0.03163,-0.4641 7.42e-4,-0.9453 -0.209653,-1.3696 -0.122339,-0.2468 -0.307413,-0.4736 -0.470022,-0.6924 -0.46503,-0.5488 -0.975421,-1.0814 -1.582765,-1.4754 -0.109478,-0.071 -0.225844,-0.1309 -0.338766,-0.1963 -0.265255,-0.1011 -0.553102,-0.3146 -0.856425,-0.2763 -0.06701,0.01 -0.24684,0.1091 -0.187457,0.077 0.815992,-0.4421 0.856017,-0.5675 0.574155,-0.1613 -0.194255,0.4462 -0.306604,0.9479 -0.236985,1.4342 0.07471,0.2656 0.319357,0.3814 0.538914,0.5143 0.327974,0.1915 0.668635,0.3497 0.983329,0.5635 0.150496,0.089 0.29566,0.1955 0.477239,0.2039 0.04633,0 0.09467,0 0.138508,-0.013 0.04511,-0.016 0.163441,-0.098 0.121088,-0.076 -0.251608,0.1307 -0.499483,0.2685 -0.749224,0.4027 0.303643,-0.3264 0.393705,-0.763 0.463131,-1.1888 0.04966,-0.4934 0.07765,-0.9939 0.03423,-1.4888 -0.04262,-0.2983 -0.191081,-0.5376 -0.399378,-0.7473 -0.239905,-0.1716 -0.537581,-0.429 -0.857576,-0.3501 -0.05728,0.014 -0.108391,0.047 -0.162586,0.07 0.242458,-0.1309 0.471188,-0.2914 0.727373,-0.3929 0.06205,-0.025 -0.0933,0.097 -0.126869,0.1549 -0.04379,0.075 -0.07629,0.1572 -0.102948,0.2401 -0.117953,0.3667 -0.130353,0.7054 -0.124351,1.0858 0.06884,0.8061 0.553409,1.4674 0.906271,2.169 0.400309,0.786 0.64896,1.6347 0.930859,2.4671 0.191521,0.5319 0.358593,1.0985 0.697795,1.5593 0.0321,0.03 0.06142,0.064 0.09631,0.091 0.07472,0.058 0.08923,0.07 0.175315,0.054 0.02575,-0 0.09753,-0.037 0.07477,-0.024 -0.926917,0.5254 -1.076645,0.6706 -0.777808,0.3998 0.274637,-0.3619 0.224789,-0.7633 0.156925,-1.1864 -0.240256,-0.8752 -0.780574,-1.6193 -1.324003,-2.3306 -0.396587,-0.481 -0.831609,-0.977 -1.398433,-1.2581 -0.05658,0 -0.116189,-0.011 -0.169743,0.01 -0.05044,0.017 -0.177089,0.1172 -0.128372,0.095 0.25659,-0.1143 0.482469,-0.306 0.754868,-0.3745 0.07467,-0.019 -0.07269,0.1364 -0.09795,0.2092 -0.07286,0.2098 -0.08825,0.3908 -0.121096,0.6108 -0.03546,0.8046 0.297538,1.3922 0.749933,2.0215 0.283357,0.3557 0.596355,0.6803 1.045972,0.7987 0.0371,-8e-4 0.07502,0.01 0.111295,-0 0.02883,-0.01 0.05311,-0.026 0.07967,-0.039 -0.283562,0.1566 -0.562462,0.3219 -0.850686,0.4698 -0.02456,0.013 0.04114,-0.038 0.05516,-0.062 0.06323,-0.1071 0.08357,-0.2372 0.11369,-0.3542 0.0055,-0.1154 0.01901,-0.2306 0.01638,-0.346 -0.02669,-1.1743 -0.369351,-2.3916 -0.691336,-3.5132 -0.161558,-0.4929 -0.336192,-0.9863 -0.593691,-1.4388 -0.02166,-0.038 -0.169105,-0.2834 -0.244969,-0.3269 -0.01835,-0.011 -0.04085,0.011 -0.06127,0.016 0.296391,-0.1503 0.578389,-0.3333 0.889172,-0.4511 0.04218,-0.016 -0.03464,0.084 -0.04,0.1293 -0.0078,0.065 -0.0041,0.131 0.001,0.1962 0.01958,0.247 0.104343,0.4744 0.182097,0.7072 0.155107,0.5031 0.274856,1.0147 0.348577,1.5358 0.0292,0.4705 0.100653,0.9467 0.06072,1.4181 -0.01703,0.054 -0.02816,0.1095 -0.05109,0.1609 -0.02793,0.063 -0.107396,0.1826 -0.170816,0.2207 -0.515552,0.3095 -0.740055,0.6299 -1.234508,0.5579 -0.228575,-0.05 -0.376487,-0.09 -0.445403,-0.3322 0,0 0.932789,-0.5045 0.932789,-0.5045 l 0,0 c 0.03869,0.1917 0.197662,0.1968 0.366958,0.2256 0.376729,-0.01 0.791202,-0.3702 -0.58154,0.4414 -0.03777,0.022 0.07579,-0.045 0.108681,-0.074 0.103452,-0.091 0.104694,-0.1241 0.167823,-0.248 0.08245,-0.4634 0.013,-0.9434 -0.02053,-1.409 -0.06777,-0.5153 -0.181153,-1.024 -0.338863,-1.5195 -0.105942,-0.304 -0.209359,-0.5954 -0.247956,-0.9169 -0.0065,-0.054 -0.05705,-0.1303 -0.01363,-0.1636 0.298139,-0.2285 0.6478,-0.3806 0.9717,-0.5709 0.121599,0.1215 0.168481,0.2986 0.223141,0.458 0.172665,0.5035 0.313284,1.0177 0.44425,1.5334 0.196725,0.7663 0.398083,1.5313 0.597257,2.2969 0.08096,0.3112 0.218908,0.8067 0.277797,1.1415 0.0197,0.112 0.02513,0.2261 0.0377,0.3392 -0.0015,0.026 -0.02043,0.4243 -0.07317,0.4592 -0.508904,0.3366 -0.707894,0.6556 -1.179987,0.5429 -0.427811,-0.1786 -0.744528,-0.5237 -1.005764,-0.8986 -0.420843,-0.6296 -0.778468,-1.3025 -0.783147,-2.0808 0.009,-0.1116 0.04325,-0.7607 0.134407,-0.8388 0.299157,-0.2563 0.642866,-0.4561 0.976485,-0.6656 0.04631,-0.029 0.102716,-0.045 0.15739,-0.046 0.06014,-0 0.117296,0.027 0.175945,0.04 0.534248,0.3438 0.952261,0.8442 1.341198,1.3396 0.538198,0.7307 1.035365,1.5024 1.366095,2.3517 0.114297,0.4022 0.220681,0.8277 -0.0087,1.2116 -0.177778,0.3198 -0.877673,0.8238 -1.225924,0.6028 -0.09354,-0.059 -0.120792,-0.1086 -0.190778,-0.195 -0.286976,-0.5082 -0.419306,-1.0894 -0.611703,-1.6363 -0.265167,-0.8336 -0.502085,-1.6819 -0.928376,-2.4522 -0.370273,-0.708 -0.846209,-1.3854 -0.930691,-2.2016 -0.01825,-0.3692 -0.01732,-0.7253 0.05428,-1.0902 0.01439,-0.073 0.08378,-0.3748 0.171217,-0.4361 0.32296,-0.2263 0.678826,-0.4017 1.018239,-0.6025 0.06043,-0.014 0.119342,-0.038 0.181283,-0.043 0.34062,-0.024 0.643703,0.238 0.910748,0.4093 0.232387,0.2269 0.390181,0.4874 0.426121,0.8172 0.02116,0.5092 -0.04522,1.0191 -0.06886,1.5274 -0.0408,0.4404 -0.110516,0.8686 -0.382486,1.2329 -0.334673,0.2067 -0.66314,0.4238 -1.004019,0.6201 -0.263451,0.1517 -0.56439,-0.084 -0.779059,-0.2104 -0.316513,-0.2095 -0.660076,-0.3679 -0.992217,-0.5506 -0.261367,-0.1491 -0.525431,-0.2736 -0.579969,-0.6003 -0.03848,-0.5104 0.08163,-1.0205 0.235844,-1.5045 0.273164,-0.5549 0.09489,-0.2912 1.123138,-0.8516 0.05931,-0.032 0.132751,-0.036 0.200165,-0.031 0.296382,0.018 0.557238,0.2331 0.817576,0.3455 0.747214,0.4739 1.360603,1.0232 1.918055,1.713 0.173308,0.2155 0.380043,0.4508 0.512305,0.6975 0.229952,0.429 0.266235,0.9246 0.245799,1.4009 -0.04111,0.5002 -0.07972,1.0042 -0.310376,1.46 -0.328701,0.1993 -0.648292,0.4145 -0.986103,0.5979 -0.03325,0.018 -0.07667,0.01 -0.113497,-7e-4 -0.226928,-0.054 -0.394397,-0.3833 -0.53435,-0.5393 -0.50993,-0.7348 -0.999484,-1.4834 -1.50788,-2.2193 -0.3032,-0.443 -0.602669,-0.8912 -0.924819,-1.3209 -0.40463,-0.5397 -0.150834,-0.1743 -0.531878,-0.6642 -0.07099,-0.091 -0.136925,-0.1864 -0.205388,-0.2796 -0.04804,-0.095 -0.103593,-0.1869 -0.144103,-0.2855 -0.259192,-0.6309 -0.211414,-1.3284 -0.15948,-1.9922 0.0023,-0.019 0.04312,-0.5382 0.117784,-0.5941 0.986831,-0.738 1.000631,-0.7654 1.670596,-0.1281 0.661576,0.6757 1.265302,1.4037 1.783245,2.1965 0.496093,0.8262 0.88689,1.5675 0.861087,2.563 -0.05802,0.8768 -0.207573,1.7501 -0.490052,2.5842 -0.277882,0.6044 -0.07246,0.2723 -1.115907,0.9377 -0.118667,0.076 -0.255771,0.1056 -0.39335,0.066 -0.181457,-0.053 -0.269907,-0.1796 -0.399442,-0.308 -0.476143,-0.6388 -0.894748,-1.3173 -1.342232,-1.9761 -0.261659,-0.4266 -0.357976,-0.6949 -0.306699,-1.2079 0.0784,-0.4954 0.166709,-0.9951 0.391231,-1.449 0.283099,-0.4793 0.06459,-0.1615 1.08044,-0.7728 0.152511,-0.092 0.316851,-0.053 0.451305,0.047 0.307342,0.3495 0.308824,0.8362 0.340013,1.2788 0.02523,0.4415 0.09653,0.8775 0.119701,1.3178 -5.45e-4,0.2321 0.0052,0.4747 -0.08411,0.6929 -0.233701,0.4028 -0.636191,0.4642 -1.096709,0.7308 -0.0293,0.017 -0.118908,0.065 -0.08983,0.047 0.27038,-0.1613 0.541597,-0.3211 0.813848,-0.4792 0.02931,-0.017 -0.05659,0.037 -0.08489,0.056 -0.214052,0.1966 -0.400162,0.4222 -0.614373,0.6193 -0.217567,0.2332 -0.435521,0.4447 -0.277772,0.7808 0.258181,0.4309 0.658894,0.5868 1.132115,0.7081 0.450065,0.1103 0.909652,0.1981 1.335016,0.3881 0.190558,0.073 0.378857,0.078 0.580433,0.043 0.399043,-0.081 0.666487,-0.3466 -0.625334,0.4297 -0.02765,0.017 0.05967,-0.025 0.08701,-0.042 0.07942,-0.05 0.09,-0.074 0.150607,-0.1466 0.172595,-0.2922 0.283758,-0.5674 0.28127,-0.917 2.17e-4,-0.4223 0.0044,-0.8446 -4.12e-4,-1.2668 -0.0026,-0.4209 -0.0021,-0.8447 -0.07833,-1.2603 -0.08346,-0.3955 -0.215708,-0.7771 -0.383551,-1.145 -0.153374,-0.3711 -0.328382,-0.7326 -0.464463,-1.1108 -0.130058,-0.2983 -0.266003,-0.5922 -0.41224,-0.8825 -0.0863,-0.2517 -0.147771,-0.5178 -0.281933,-0.7487 -0.211473,-0.2325 -0.490556,-0.2993 -0.798738,-0.3012 -0.257373,0 -0.51817,-0 -0.771337,0.051 -0.361032,0.1041 -0.799434,0.4047 0.517764,-0.3618 0.04687,-0.027 -0.09376,0.055 -0.137405,0.087 -0.132445,0.098 -0.159022,0.1386 -0.272376,0.2612 -0.194752,0.2687 -0.336468,0.5535 -0.421102,0.875 -0.08256,0.1879 -0.178135,0.3707 -0.181288,0.5814 0.02564,0.2995 0.07255,0.5966 0.156397,0.8858 0.05916,0.2675 0.149716,0.5287 0.261736,0.7787 0.146721,0.3133 0.297118,0.6246 0.449551,0.9353 0.159817,0.3466 0.31556,0.6954 0.447175,1.0539 0.139939,0.3279 0.249051,0.6752 0.462138,0.9655 0.112786,0.144 0.244177,0.3074 0.44493,0.3005 0,0 -0.873405,0.6346 -0.873405,0.6346 z"
       inkscape:connector-curvature="0" />
    <path
       style="fill:none;fill-rule:evenodd;stroke:#000000;stroke-width:1px;stroke-linecap:butt;stroke-linejoin:miter;stroke-opacity:1"
       d="m 15.257834,1010.3208 c -0.146358,0.037 -0.304139,0.042 -0.439075,0.1098 -0.03273,0.016 0,0.073 0,0.1098 0,0.1463 0,0.2927 0,0.439 0,0.037 0,0.073 0,0.1098 0,0.037 -0.03659,0.1098 0,0.1098 0.211279,0 0.05919,-0.3548 0.109769,-0.4391 0.09413,-0.1569 0.329306,-0.2561 0.329306,-0.4391 0,-0.5982 -0.301866,-0.5351 -0.439075,-0.3293 -0.04538,0.068 -0.07318,0.1464 -0.109768,0.2196 -0.03659,0.073 -0.08992,0.1401 -0.109769,0.2195 -0.01775,0.071 0.01775,0.1485 0,0.2195 -0.01984,0.079 -0.0839,0.142 -0.109768,0.2196 -0.01157,0.035 0,0.073 0,0.1097 0,0.2562 0,0.5123 0,0.7684 0,0.037 0,0.073 0,0.1098 0,0.037 -0.02587,0.084 0,0.1098 0.02587,0.026 0.07318,0 0.109768,0 0.03659,0 0.09341,0.033 0.109769,0 0.03273,-0.066 -0.03273,-0.1541 0,-0.2196 0.01636,-0.033 0.0839,0.026 0.109768,0 0.428398,-0.4284 -0.02541,-0.059 0.109769,-0.3293 0.02314,-0.046 0.09341,-0.061 0.109768,-0.1098 0.02314,-0.069 0,-0.1463 0,-0.2195 0,-0.037 -0.01636,-0.077 0,-0.1098 0.02314,-0.046 0.08663,-0.063 0.109769,-0.1097 0.01636,-0.033 -0.0072,-0.074 0,-0.1098 0.02959,-0.1479 0.260631,-0.4391 0.109769,-0.4391 -0.206982,0 -0.292717,0.2927 -0.439075,0.4391 -0.03659,0.037 -0.09341,0.061 -0.109768,0.1098 -0.02314,0.069 0.03273,0.1541 0,0.2195 -0.01636,0.033 -0.07704,-0.016 -0.109769,0 -0.04628,0.023 -0.08663,0.063 -0.109768,0.1098 -0.01636,0.033 0,0.073 0,0.1097 0,0.037 -0.02587,0.084 0,0.1098 0.02587,0.026 0.07318,0 0.109768,0 0.03659,0 0.146358,0 0.109769,0 -0.07318,0 -0.219537,0.073 -0.219537,0 0,-0.082 0.161684,-0.052 0.219537,-0.1098 0.02587,-0.026 0,-0.073 0,-0.1097 0,-0.1098 0,-0.2196 0,-0.3293 0,-0.1464 0,-0.2927 0,-0.4391 0,-0.037 -0.03659,-0.1098 0,-0.1098 0.03659,0 0,0.073 0,0.1098 0,0.073 0,0.1464 0,0.2195 0,0.037 0,0.073 0,0.1098 0,0.037 0.03659,0.1098 0,0.1098 -0.03659,0 0,-0.073 0,-0.1098"
       id="path4657"
       inkscape:connector-curvature="0" />
    <path
       style="fill:none;fill-rule:evenodd;stroke:#000000;stroke-width:1px;stroke-linecap:butt;stroke-linejoin:miter;stroke-opacity:1"
       d="m 17.014131,1010.5404 c 0,0.2561 0,0.5122 0,0.7683 0,0.183 0,0.3659 0,0.5489 0,0.073 0,0.1463 0,0.2195 0,0.037 -0.02587,0.084 0,0.1098 0.02587,0.026 0.0839,0.026 0.109769,0 0.02587,-0.026 0,-0.073 0,-0.1098 0,-0.073 0,-0.1463 0,-0.2195 0,-0.1045 0.04005,-1.3172 -0.109769,-1.3172 -0.543372,0 -0.439074,0.6832 -0.439074,0.9879 0,0.037 0,0.073 0,0.1098 0,0.037 -0.01636,0.077 0,0.1097 0.04628,0.093 0.173254,0.127 0.219537,0.2196 0.0084,0.017 -0.04785,0.3771 0.109768,0.2195 0.05489,-0.055 -0.05488,-0.2744 0,-0.3293 0.02587,-0.026 0.0839,0.026 0.109769,0 0.02587,-0.026 -0.02587,-0.084 0,-0.1098 0.02587,-0.026 0.0839,0.026 0.109769,0 0.02587,-0.026 -0.01636,-0.077 0,-0.1097 0.04628,-0.093 0.173254,-0.127 0.219537,-0.2196 0.01636,-0.033 0,-0.073 0,-0.1098 0,-0.037 0,-0.073 0,-0.1097 0,-0.3531 -0.0023,-0.2226 -0.329306,-0.6586 -0.109769,-0.1464 -0.199942,-0.3097 -0.329306,-0.4391 -0.02587,-0.026 -0.0839,0.026 -0.109768,0 -0.02587,-0.026 -0.03659,-0.1098 0,-0.1098 0.03659,0 0,0.073 0,0.1098 0,0.037 0,0.073 0,0.1098 0,0.1463 0,0.2927 0,0.439 0,0.5855 0,1.1709 0,1.7563 0,0.037 0,0.073 0,0.1098 0,0.037 -0.02587,0.084 0,0.1098 0.02587,0.026 0.0839,0.026 0.109768,0 0.02587,-0.026 0,-0.073 0,-0.1098 0,-0.2195 0,-0.4391 0,-0.6586 0,-0.037 0,-0.073 0,-0.1098 0,-0.037 -0.02587,-0.084 0,-0.1097 0.02587,-0.026 0.0839,0.026 0.109769,0 0.05488,-0.055 -0.05488,-0.2745 0,-0.3294 0.02587,-0.026 0.0839,0.026 0.109768,0 0.01123,-0.011 -0.0075,-0.2917 0,-0.3293 0.02959,-0.1479 0.0568,-0.2978 0.109769,-0.439 0.05746,-0.1532 0.158765,-0.2872 0.219537,-0.4391 0.01359,-0.034 0.02587,-0.084 0,-0.1098 -0.02587,-0.026 -0.0839,-0.026 -0.109768,0 -0.02587,0.026 -0.03659,0.1098 0,0.1098 0.05175,0 0.122318,-0.16 0.109768,-0.1098 -0.483129,1.9325 -0.01283,-0.5944 -0.329306,0.9879 -0.01405,0.07 0.02014,0.5287 0,0.5489 -0.02587,0.026 -0.08389,-0.026 -0.109768,0 -0.02587,0.026 0,0.073 0,0.1098 0,0.027 -0.0035,0.3257 0,0.3293 0.02587,0.026 0.109768,-0.037 0.109768,0 0,0.037 -0.135641,0.026 -0.109768,0 0.05785,-0.058 0.161684,-0.052 0.219537,-0.1098 0.05175,-0.052 -0.02314,-0.1501 0,-0.2195 0.05175,-0.1553 0.167792,-0.2839 0.219537,-0.4391 0.01157,-0.035 -0.01636,-0.077 0,-0.1098 0.02314,-0.046 0.128987,-0.062 0.109769,-0.1098 -0.06795,-0.1698 -0.458669,-0.3097 -0.329306,-0.439 0.129364,-0.1294 0.275441,0.2475 0.439074,0.3293 0.03273,0.016 -0.01636,-0.077 0,-0.1098 0.02314,-0.046 0.08663,-0.063 0.109769,-0.1098 0.01419,-0.028 0,-0.5808 0,-0.6586 0,-0.037 0.02587,-0.084 0,-0.1097 -0.0035,-0 -0.302684,0 -0.329306,0 -0.05175,0 -0.543868,-0 -0.548843,0 -0.02587,0.026 0.02587,0.084 0,0.1097 -0.02587,0.026 -0.0839,-0.026 -0.109768,0 -0.02587,0.026 0,0.073 0,0.1098 0,0.1098 0,0.2195 0,0.3293 0,0.1098 0,0.2195 0,0.3293 0,0.037 -0.03273,0.1261 0,0.1098 0.163633,-0.082 0.309711,-0.4587 0.439074,-0.3293 0.129364,0.1293 -0.23518,0.2822 -0.329306,0.439 -0.01882,0.031 0,0.073 0,0.1098 0,0.037 0,0.073 0,0.1098 0,0.037 0,0.1463 0,0.1097 0,-0.073 0,-0.2927 0,-0.2195 0,0.1098 -0.03471,0.2252 0,0.3293 0.0117,0.035 0.299615,-0.03 0.329306,0 0.146358,0.1464 -0.182948,0.1098 0.109769,0.1098"
       id="path4659"
       inkscape:connector-curvature="0" />
    <path
       style="fill:none;fill-rule:evenodd;stroke:#000000;stroke-width:1px;stroke-linecap:butt;stroke-linejoin:miter;stroke-opacity:1"
       d="m 15.257834,1010.4306 c 0.146358,0.073 0.308167,0.1214 0.439074,0.2195 0.02927,0.022 -0.02587,0.084 0,0.1098 0.02587,0.026 0.07704,-0.016 0.109769,0 0.04628,0.023 0.06349,0.087 0.109768,0.1098 0.03273,0.016 0.0839,-0.026 0.109769,0 0.02587,0.026 -0.02587,0.084 0,0.1097 0.0035,0 0.302684,0 0.329305,0 0.03063,0 0.681649,0 0.329306,0"
       id="path4661"
       inkscape:connector-curvature="0" />
    <path
       style="fill:none;fill-rule:evenodd;stroke:#000000;stroke-width:1px;stroke-linecap:butt;stroke-linejoin:miter;stroke-opacity:1"
       d="m 19.42904,1020.2 c -0.109769,0.1464 -0.23518,0.2822 -0.329306,0.4391 -0.01883,0.031 -0.02587,0.084 0,0.1097 0.02587,0.026 0.0839,0.026 0.109769,0 0.02587,-0.026 -0.01359,-0.076 0,-0.1097 0.06077,-0.152 0.365895,-0.3659 0.219537,-0.4391 -0.163633,-0.082 -0.282198,0.2352 -0.439074,0.3293 -0.03138,0.019 -0.07318,0 -0.109769,0 -0.334693,0 -0.0015,-0.1112 -0.109769,-0.2195 -0.02587,-0.026 -0.08389,0.026 -0.109768,0 -0.02587,-0.026 0.02587,-0.084 0,-0.1098 -0.01098,-0.011 -0.318329,-0.011 -0.329306,0 -0.02587,0.026 0.03659,0.1098 0,0.1098 -0.03659,0 0,-0.1464 0,-0.1098 0,0.073 0,0.1464 0,0.2195 0,0.037 0,-0.073 0,-0.1097 0,-0.074 0,-0.146 0,-0.2196 0,-0.027 0.0035,-0.3257 0,-0.3293 -0.02587,-0.026 -0.0839,0.026 -0.109769,0 -0.02244,-0.022 0.02176,-0.2858 0,-0.3293 -0.228415,-0.4568 0.0076,0.1174 -0.219537,-0.1097 -0.02587,-0.026 0.02587,-0.084 0,-0.1098 -0.02587,-0.026 -0.0839,0.026 -0.109768,0 -0.02587,-0.026 -0.03659,-0.1098 0,-0.1098 0.03659,0 0,0.073 0,0.1098 0,0.037 0.03659,0.1098 0,0.1098 -0.03659,0 0,-0.073 0,-0.1098"
       id="path4663"
       inkscape:connector-curvature="0" />
    <path
       style="fill:none;fill-rule:evenodd;stroke:#000000;stroke-width:1px;stroke-linecap:butt;stroke-linejoin:miter;stroke-opacity:1"
       d="m 20.746263,1022.5051 c -0.146358,0.1098 -0.282198,0.2352 -0.439074,0.3294 -0.03597,0.021 -0.376069,0 -0.439075,0 -0.03659,0 -0.146358,0 -0.109768,0 0.07318,0 0.292716,0 0.219537,0 -0.146358,0 -0.292716,0 -0.439074,0 -0.07635,0 -0.509147,0.02 -0.548843,0 -0.456831,-0.2285 0.117346,0.01 -0.109769,-0.2196 -0.02587,-0.026 -0.0839,0.026 -0.109769,0 -0.02587,-0.026 0.02587,-0.084 0,-0.1098 -0.02587,-0.026 -0.08389,0.026 -0.109768,0 -0.02587,-0.026 0,-0.073 0,-0.1097 0,-0.183 0,-0.3659 0,-0.5489 0,-0.037 0,-0.073 0,-0.1097 0,-0.037 -0.03659,-0.1098 0,-0.1098 0.03659,0 0,0.073 0,0.1098 0,0.037 0,0.073 0,0.1097"
       id="path4665"
       inkscape:connector-curvature="0" />
    <path
       style="fill:none;fill-rule:evenodd;stroke:#000000;stroke-width:1px;stroke-linecap:butt;stroke-linejoin:miter;stroke-opacity:1"
       d="m 22.941635,1025.0298 c -0.327267,0.1057 0.08182,0.3852 0,0.5489 -0.04628,0.092 -0.173255,0.1269 -0.219537,0.2195 -0.05175,0.1035 -0.02795,0.2475 -0.109769,0.3293 -0.08182,0.082 -0.225815,0.058 -0.329306,0.1098 -0.04628,0.023 -0.06068,0.093 -0.109768,0.1097 -0.06244,0.021 -0.445459,0 -0.548843,0 -0.07318,0 -0.292717,0 -0.219537,0 0.07318,0 0.292716,0 0.219537,0 -0.109769,0 -0.22517,0.035 -0.329306,0 -0.03471,-0.012 0.02587,-0.084 0,-0.1097 -0.02587,-0.026 -0.0839,0.026 -0.109769,0 -0.02587,-0.026 0.01636,-0.077 0,-0.1098 -0.04628,-0.093 -0.173254,-0.127 -0.219537,-0.2195 -0.04909,-0.098 0.04909,-0.2312 0,-0.3293 -0.01636,-0.033 -0.0839,0.026 -0.109768,0 -0.05175,-0.052 0.05175,-0.1678 0,-0.2196 -0.02587,-0.026 -0.0839,0.026 -0.109769,0 -0.0035,-0 0,-0.3027 0,-0.3293 0,-0.037 -0.03659,-0.1097 0,-0.1097 0.03659,0 0,0.073 0,0.1097"
       id="path4667"
       inkscape:connector-curvature="0" />
    <path
       style="fill:none;fill-rule:evenodd;stroke:#000000;stroke-width:1px;stroke-linecap:butt;stroke-linejoin:miter;stroke-opacity:1"
       d="m 23.600246,1029.3108 -1.097686,0.1098 c -0.219537,0 -0.439074,0 -0.658611,0 -0.03659,0 -0.0839,0.026 -0.109769,0 -0.02587,-0.026 0.02587,-0.084 0,-0.1098 -0.005,-0 -0.497087,0 -0.548843,0 -0.03659,0 -0.0839,0.026 -0.109768,0 -0.02587,-0.026 0,-0.073 0,-0.1098 0,-0.037 0,-0.073 0,-0.1097 0,-0.3293 0,-0.6587 0,-0.988 0,-0.036 0,-0.073 0,-0.1097 0,-0.037 -0.02587,-0.084 0,-0.1098 0.02587,-0.026 0.07318,0 0.109768,0"
       id="path4669"
       inkscape:connector-curvature="0" />
    <path
       style="fill:none;fill-rule:evenodd;stroke:#000000;stroke-width:1px;stroke-linecap:butt;stroke-linejoin:miter;stroke-opacity:1"
       d="m 24.697932,1032.4941 c -0.146358,-0.037 -0.292716,-0.073 -0.439074,-0.1098 0,-0.037 0.02587,-0.084 0,-0.1098 -0.05175,-0.052 -0.167792,0.052 -0.219537,0 -0.02587,-0.026 0.02587,-0.084 0,-0.1097 -0.02587,-0.026 -0.0839,0.026 -0.109769,0 -0.02587,-0.026 0.02587,-0.084 0,-0.1098 -0.0044,-0 -0.398763,0 -0.439074,0 -0.109769,0 -0.219538,0 -0.329306,0 -0.03659,0 -0.146358,0 -0.109769,0 0.07318,0 0.292717,0 0.219537,0 -0.146358,0 -0.292716,0 -0.439074,0 -0.03659,0 -0.0839,-0.026 -0.109768,0 -0.02587,0.026 0.03273,0.093 0,0.1098 -0.06545,0.033 -0.150114,-0.023 -0.219538,0 -0.04909,0.016 -0.06349,0.087 -0.109768,0.1097 -0.03341,0.017 -0.279871,0 -0.329306,0 -0.03659,0 -0.0839,0.026 -0.109769,0 -0.02587,-0.026 0,-0.073 0,-0.1097 0,-0.037 0,-0.073 0,-0.1098 0,-0.2927 -0.03659,0.037 0.109769,-0.1098 0.03853,-0.039 -0.03791,-0.473 0,-0.5488 0.02314,-0.046 0.08663,-0.063 0.109769,-0.1098 0.01636,-0.033 0,-0.073 0,-0.1097 0,-0.1464 0,-0.2928 0,-0.4391 0,-0.037 0,-0.073 0,-0.1098 0,-0.037 -0.03659,-0.1097 0,-0.1097 0.03659,0 0,0.073 0,0.1097 0,0.037 0,0.073 0,0.1098"
       id="path4671"
       inkscape:connector-curvature="0" />
    <path
       style="fill:none;fill-rule:evenodd;stroke:#000000;stroke-width:1px;stroke-linecap:butt;stroke-linejoin:miter;stroke-opacity:1"
       d="m 25.795618,1034.6895 c -0.746055,0 -0.822454,0 -1.317223,0 -0.04943,0 -0.295899,-0.017 -0.329306,0 -0.04628,0.023 -0.06671,0.081 -0.109768,0.1097 -1.172643,0.7818 -0.796902,0.3579 -1.975835,1.5368 -0.734303,0.7343 -0.376089,0.7504 -1.207454,0.9879 -0.07036,0.02 -0.158649,0.041 -0.219538,0 -0.06808,-0.045 -0.07318,-0.1464 -0.109768,-0.2195 -0.03659,-0.073 -0.0839,-0.142 -0.109769,-0.2196 -0.02064,-0.062 0,-0.2571 0,-0.3293 0,-0.1829 0,-0.3659 0,-0.5488 0,-0.066 -0.02587,-0.2196 0.109769,-0.2196 0.03659,0 -0.02587,0.084 0,0.1098 0.01098,0.011 0.318329,0.011 0.329306,0 0.005,-0 0,-0.4971 0,-0.5488 0,-0.2927 0,-0.5855 0,-0.8782 0,-0.1097 0,-0.2195 0,-0.3293 0,-0.037 0,-0.1463 0,-0.1098 0,0.073 0,0.1464 0,0.2196"
       id="path4673"
       inkscape:connector-curvature="0" />
    <path
       style="fill:none;fill-rule:evenodd;stroke:#000000;stroke-width:1px;stroke-linecap:butt;stroke-linejoin:miter;stroke-opacity:1"
       d="m 15.257834,1014.1627 c 0.0023,0.1943 0.908716,0.07 0.987917,0.1098 0.04628,0.023 0.06349,0.087 0.109768,0.1098 0.02886,0.014 0.381675,0 0.439075,0 0.04031,0 0.434657,-0 0.439074,0 0.02587,0.026 -0.02587,0.084 0,0.1097 0.02587,0.026 0.07704,-0.016 0.109769,0 0.08747,0.044 0.16274,0.2764 0.329306,0.1098 0.05175,-0.052 -0.03273,-0.1541 0,-0.2195 0.01636,-0.033 0.09341,0.033 0.109768,0 0.03273,-0.066 -0.03273,-0.1541 0,-0.2196 0.01636,-0.033 0.07704,0.016 0.109769,0 0.04628,-0.023 0.07318,-0.073 0.109768,-0.1097 0.03659,-0.037 0.08663,-0.063 0.109769,-0.1098 0.01636,-0.033 -0.01636,-0.077 0,-0.1098 0.02314,-0.046 0.08663,-0.063 0.109768,-0.1097 0.01985,-0.04 0,-0.4725 0,-0.5489"
       id="path4675"
       inkscape:connector-curvature="0" />
  </g>
</svg>
