<?xml version="1.0" encoding="UTF-8" standalone="no"?>
<!-- Created with Inkscape (http://www.inkscape.org/) -->

<svg
   xmlns:dc="http://purl.org/dc/elements/1.1/"
   xmlns:cc="http://creativecommons.org/ns#"
   xmlns:rdf="http://www.w3.org/1999/02/22-rdf-syntax-ns#"
   xmlns:svg="http://www.w3.org/2000/svg"
   xmlns="http://www.w3.org/2000/svg"
   xmlns:sodipodi="http://sodipodi.sourceforge.net/DTD/sodipodi-0.dtd"
   xmlns:inkscape="http://www.inkscape.org/namespaces/inkscape"
   width="50"
   height="50"
   viewBox="0 0 50 50"
   id="svg2"
   version="1.1"
   inkscape:version="0.91 r13725"
   sodipodi:docname="icecream.svg">
  <defs
     id="defs4">
    <inkscape:path-effect
       effect="powerstroke"
       id="path-effect4223"
       is_visible="true"
       offset_points="0,0.5"
       sort_points="true"
       interpolator_type="Linear"
       interpolator_beta="0.2"
       start_linecap_type="zerowidth"
       linejoin_type="round"
       miter_limit="4"
       end_linecap_type="zerowidth"
       cusp_linecap_type="round" />
    <inkscape:path-effect
       effect="powerstroke"
       id="path-effect4219"
       is_visible="true"
       offset_points="0,0.5"
       sort_points="true"
       interpolator_type="Linear"
       interpolator_beta="0.2"
       start_linecap_type="zerowidth"
       linejoin_type="round"
       miter_limit="4"
       end_linecap_type="zerowidth"
       cusp_linecap_type="round" />
    <inkscape:path-effect
       effect="powerstroke"
       id="path-effect4215"
       is_visible="true"
       offset_points="0,0.5"
       sort_points="true"
       interpolator_type="Linear"
       interpolator_beta="0.2"
       start_linecap_type="zerowidth"
       linejoin_type="round"
       miter_limit="4"
       end_linecap_type="zerowidth"
       cusp_linecap_type="round" />
    <inkscape:path-effect
       effect="powerstroke"
       id="path-effect4211"
       is_visible="true"
       offset_points="0,0.5"
       sort_points="true"
       interpolator_type="Linear"
       interpolator_beta="0.2"
       start_linecap_type="zerowidth"
       linejoin_type="round"
       miter_limit="4"
       end_linecap_type="zerowidth"
       cusp_linecap_type="round" />
    <inkscape:path-effect
       effect="powerstroke"
       id="path-effect4207"
       is_visible="true"
       offset_points="0,0.5"
       sort_points="true"
       interpolator_type="Linear"
       interpolator_beta="0.2"
       start_linecap_type="zerowidth"
       linejoin_type="round"
       miter_limit="4"
       end_linecap_type="zerowidth"
       cusp_linecap_type="round" />
    <inkscape:path-effect
       effect="powerstroke"
       id="path-effect4203"
       is_visible="true"
       offset_points="0,0.5"
       sort_points="true"
       interpolator_type="Linear"
       interpolator_beta="0.2"
       start_linecap_type="zerowidth"
       linejoin_type="round"
       miter_limit="4"
       end_linecap_type="zerowidth"
       cusp_linecap_type="round" />
    <inkscape:path-effect
       effect="powerstroke"
       id="path-effect4199"
       is_visible="true"
       offset_points="0,0.5"
       sort_points="true"
       interpolator_type="Linear"
       interpolator_beta="0.2"
       start_linecap_type="zerowidth"
       linejoin_type="round"
       miter_limit="4"
       end_linecap_type="zerowidth"
       cusp_linecap_type="round" />
    <inkscape:path-effect
       effect="powerstroke"
       id="path-effect4195"
       is_visible="true"
       offset_points="0,0.5"
       sort_points="true"
       interpolator_type="Linear"
       interpolator_beta="0.2"
       start_linecap_type="zerowidth"
       linejoin_type="round"
       miter_limit="4"
       end_linecap_type="zerowidth"
       cusp_linecap_type="round" />
    <inkscape:path-effect
       effect="powerstroke"
       id="path-effect4191"
       is_visible="true"
       offset_points="0,0.5"
       sort_points="true"
       interpolator_type="Linear"
       interpolator_beta="0.2"
       start_linecap_type="zerowidth"
       linejoin_type="round"
       miter_limit="4"
       end_linecap_type="zerowidth"
       cusp_linecap_type="round" />
    <inkscape:path-effect
       effect="powerstroke"
       id="path-effect4187"
       is_visible="true"
       offset_points="0,0.5"
       sort_points="true"
       interpolator_type="Linear"
       interpolator_beta="0.2"
       start_linecap_type="zerowidth"
       linejoin_type="round"
       miter_limit="4"
       end_linecap_type="zerowidth"
       cusp_linecap_type="round" />
    <inkscape:path-effect
       effect="powerstroke"
       id="path-effect4183"
       is_visible="true"
       offset_points="0,0.5"
       sort_points="true"
       interpolator_type="Linear"
       interpolator_beta="0.2"
       start_linecap_type="zerowidth"
       linejoin_type="round"
       miter_limit="4"
       end_linecap_type="zerowidth"
       cusp_linecap_type="round" />
    <inkscape:path-effect
       effect="powerstroke"
       id="path-effect4164"
       is_visible="true"
       offset_points="0,0.5"
       sort_points="true"
       interpolator_type="Linear"
       interpolator_beta="0.2"
       start_linecap_type="zerowidth"
       linejoin_type="round"
       miter_limit="4"
       end_linecap_type="zerowidth"
       cusp_linecap_type="round" />
    <inkscape:path-effect
       effect="skeletal"
       id="path-effect4160"
       is_visible="true"
       pattern="m 0,802.36216 c 0,-2.76 2.24,-5 5,-5 2.76,0 5,2.24 5,5 0,2.76 -2.24,5 -5,5 -2.76,0 -5,-2.24 -5,-5 z"
       copytype="single_stretched"
       prop_scale="1"
       scale_y_rel="false"
       spacing="0"
       normal_offset="0"
       tang_offset="0"
       prop_units="false"
       vertical_pattern="false"
       fuse_tolerance="0" />
    <inkscape:path-effect
       effect="powerstroke"
       id="path-effect4156"
       is_visible="true"
       offset_points="0,0.5"
       sort_points="true"
       interpolator_type="Linear"
       interpolator_beta="0.2"
       start_linecap_type="zerowidth"
       linejoin_type="round"
       miter_limit="4"
       end_linecap_type="zerowidth"
       cusp_linecap_type="round" />
  </defs>
  <sodipodi:namedview
     id="base"
     pagecolor="#ffffff"
     bordercolor="#666666"
     borderopacity="1.0"
     inkscape:pageopacity="0.0"
     inkscape:pageshadow="2"
     inkscape:zoom="9.1100744"
     inkscape:cx="23.063371"
     inkscape:cy="26.243048"
     inkscape:document-units="px"
     inkscape:current-layer="layer1"
     showgrid="false"
     units="px"
     inkscape:window-width="1024"
     inkscape:window-height="697"
     inkscape:window-x="-4"
     inkscape:window-y="-4"
     inkscape:window-maximized="1" />
  <metadata
     id="metadata7">
    <rdf:RDF>
      <cc:Work
         rdf:about="">
        <dc:format>image/svg+xml</dc:format>
        <dc:type
           rdf:resource="http://purl.org/dc/dcmitype/StillImage" />
        <dc:title></dc:title>
      </cc:Work>
    </rdf:RDF>
  </metadata>
  <g
     inkscape:label="Layer 1"
     inkscape:groupmode="layer"
     id="layer1"
     transform="translate(0,-1002.3622)">
    <path
       style="fill:#ffeeaa;fill-rule:evenodd;stroke:#000000;stroke-width:1px;stroke-linecap:butt;stroke-linejoin:miter;stroke-opacity:1"
       d="m 18.002048,1051.8134 c -0.109768,-0.1464 -0.247489,-0.2755 -0.329305,-0.4391 -0.03273,-0.065 0,-0.1464 0,-0.2196 -0.03659,-0.073 -0.06439,-0.1514 -0.109769,-0.2195 -0.0287,-0.043 -0.08106,-0.067 -0.109769,-0.1098 -0.04538,-0.068 -0.06438,-0.1514 -0.109768,-0.2195 -0.0287,-0.043 -0.08663,-0.063 -0.109769,-0.1098 -0.03273,-0.065 0.05175,-0.1678 0,-0.2195 -0.02587,-0.026 -0.0839,0.026 -0.109768,0 -0.02587,-0.026 0.01636,-0.077 0,-0.1098 -0.02314,-0.046 -0.08107,-0.067 -0.109769,-0.1097 -0.04538,-0.068 -0.07318,-0.1464 -0.109769,-0.2196 -0.03659,-0.073 -0.08389,-0.1419 -0.109768,-0.2195 -0.01157,-0.035 0.01157,-0.075 0,-0.1098 -0.02587,-0.078 -0.08993,-0.1401 -0.109769,-0.2195 -0.04305,-0.1722 0.04305,-0.3767 0,-0.5489 -0.01984,-0.079 -0.08993,-0.1401 -0.109768,-0.2195 -0.01775,-0.071 0.02314,-0.1501 0,-0.2195 -0.01636,-0.049 -0.08663,-0.063 -0.109769,-0.1098 -0.01636,-0.033 0,-0.073 0,-0.1098 0,-0.09 0.01606,-0.6265 0,-0.6586 -0.01636,-0.033 -0.0839,0.026 -0.109769,0 -0.0035,-0 0,-0.3027 0,-0.3293 0,-0.3293 0,-0.6586 0,-0.9879 0,-0.1098 0.03471,-0.2252 0,-0.3293 -0.114207,-0.3426 -0.07318,0.037 -0.219537,-0.1098 -0.02587,-0.026 0,-0.073 0,-0.1098 0,-0.073 0.03273,-0.154 0,-0.2195 -0.01636,-0.033 -0.0839,0.026 -0.109768,0 -0.03399,-0.034 0.03399,-0.5148 0,-0.5488 -0.05488,-0.055 -0.274422,0.055 -0.329306,0 -0.02587,-0.026 0.01636,-0.077 0,-0.1098 -0.02314,-0.046 -0.08107,-0.067 -0.109769,-0.1098 -0.04538,-0.068 -0.06438,-0.1514 -0.109768,-0.2195 -0.05741,-0.086 -0.186811,-0.1214 -0.219537,-0.2195 -0.02314,-0.07 0.02314,-0.1502 0,-0.2196 -0.01636,-0.049 -0.09341,-0.061 -0.109769,-0.1097 -0.02314,-0.07 0.01435,-0.1478 0,-0.2196 -0.02269,-0.1134 -0.09075,-0.2152 -0.109769,-0.3293 -0.01805,-0.1083 0.01362,-0.2204 0,-0.3293 -0.138996,-1.112 -0.113216,0.065 -0.219537,-1.3172 -0.01684,-0.2189 0.02424,-0.4404 0,-0.6586 -0.02556,-0.23 -0.174153,-0.4317 -0.219537,-0.6586 -0.01435,-0.072 0,-0.1464 0,-0.2196 0,-0.037 0.01636,-0.077 0,-0.1098 -0.02314,-0.046 -0.08663,-0.063 -0.109768,-0.1097 -0.04391,-0.088 0.04391,-0.2415 0,-0.3293 -0.02314,-0.046 -0.08663,-0.063 -0.109769,-0.1098 -0.03273,-0.065 0.03273,-0.1541 0,-0.2195 -0.02314,-0.046 -0.09341,-0.061 -0.109769,-0.1098 -0.02314,-0.069 0.02314,-0.1501 0,-0.2195 -0.01636,-0.049 -0.09341,-0.061 -0.109768,-0.1098 -0.02314,-0.069 0.01775,-0.1485 0,-0.2195 -0.01984,-0.079 -0.0839,-0.142 -0.109769,-0.2196 -0.01157,-0.035 0,-0.073 0,-0.1097 -0.03659,-0.073 -0.0839,-0.142 -0.109768,-0.2196 -0.03471,-0.1041 0.02153,-0.2217 0,-0.3293 -0.02269,-0.1134 -0.08708,-0.2158 -0.109769,-0.3293 -0.02181,-0.109 0,-0.5782 0,-0.6586 0,-0.073 0.01435,-0.1478 0,-0.2195 -0.02269,-0.1135 -0.08708,-0.2159 -0.109769,-0.3294 -0.01435,-0.072 0,-0.1463 0,-0.2195 -0.03659,-0.073 -0.0839,-0.1419 -0.109768,-0.2195 -0.01157,-0.035 0.01636,-0.077 0,-0.1098 -0.02314,-0.046 -0.08663,-0.063 -0.109769,-0.1098 -0.02344,-0.047 0,-0.5054 0,-0.5488 0,-0.183 0,-0.3659 0,-0.5488 0,-0.1098 0,-0.2196 0,-0.3294 0,-0.036 0.01636,-0.077 0,-0.1097 -0.02314,-0.046 -0.09341,-0.061 -0.109768,-0.1098 -0.02314,-0.069 0.02314,-0.1501 0,-0.2195 -0.01636,-0.049 -0.07318,-0.073 -0.109769,-0.1098 -0.03659,-0.037 -0.07318,-0.073 -0.109769,-0.1098 -0.138142,-0.1381 -0.246559,-0.2322 -0.329305,-0.439 -0.02718,-0.068 0.03273,-0.1541 0,-0.2196 -0.04628,-0.092 -0.162131,-0.1334 -0.219537,-0.2195 -0.0203,-0.03 0.0089,-0.074 0,-0.1098 -0.02806,-0.1122 -0.05802,-0.2258 -0.109769,-0.3293 -0.02314,-0.046 -0.08663,-0.063 -0.109769,-0.1098 -0.01636,-0.033 0.01157,-0.075 0,-0.1097 -0.02587,-0.078 -0.0839,-0.1419 -0.109768,-0.2196 -0.01157,-0.035 0.02587,-0.084 0,-0.1097 -0.02587,-0.026 -0.08947,0.03 -0.109769,0 -0.26519,-0.3978 -0.02611,-0.2142 -0.109768,-0.5489 -0.05915,-0.2366 -0.28146,-0.3096 -0.329306,-0.5488 -0.02153,-0.1077 0.02153,-0.2217 0,-0.3293 -0.0503,-0.2515 -0.255416,-0.2903 -0.329306,-0.5489 -0.04021,-0.1407 0.01616,-0.2936 0,-0.439 -0.05553,-0.4998 -0.210543,-0.8125 -0.329306,-1.3173 -0.0023,-0.01 -0.228819,-1.2353 -0.329305,-1.5367 -0.02587,-0.078 -0.07318,-0.1464 -0.109769,-0.2196 -0.03659,-0.073 -0.08993,-0.1401 -0.109769,-0.2195 -9.17e-4,-0 5.83e-4,-0.3287 0,-0.3293 -0.02587,-0.026 -0.0839,0.026 -0.109768,0 -0.02587,-0.026 0.01636,-0.077 0,-0.1098 -0.364057,-0.364 0.05175,0.1035 -0.109769,-0.2195 -0.02314,-0.046 -0.0934,-0.061 -0.109768,-0.1098 -0.02314,-0.069 0.02314,-0.1501 0,-0.2195 -0.03273,-0.098 -0.186811,-0.1214 -0.2195376,-0.2196 -0.023141,-0.069 0.023142,-0.1501 0,-0.2195 -0.016363,-0.049 -0.073179,-0.073 -0.1097685,-0.1098 -0.03659,-0.073 -0.089925,-0.1401 -0.1097686,-0.2195 -0.034019,-0.1361 0.034019,-0.303 0,-0.4391 -0.019844,-0.079 -0.083896,-0.1419 -0.1097686,-0.2195 -0.023141,-0.069 0.023141,-0.1501 0,-0.2195 -0.025873,-0.078 -0.083896,-0.142 -0.1097686,-0.2196 -0.011571,-0.035 0.016363,-0.077 0,-0.1098 -0.023141,-0.046 -0.086627,-0.063 -0.1097686,-0.1097 -0.043907,-0.088 0.043907,-0.2415 0,-0.3293 -0.016363,-0.033 -0.083896,0.026 -0.1097686,0 -0.025873,-0.026 0.025873,-0.084 0,-0.1098 -0.025873,-0.026 -0.083896,0.026 -0.1097686,0 -0.025873,-0.026 0.025873,-0.084 0,-0.1098 -0.051745,-0.052 -0.1677917,0.052 -0.2195371,0 -0.051745,-0.052 0.032727,-0.154 0,-0.2195 -0.023141,-0.046 -0.093405,-0.061 -0.1097686,-0.1098 -0.041051,-0.1231 0.044967,-0.6784 0,-0.7683 -0.016363,-0.033 -0.083896,0.026 -0.1097686,0 -0.054884,-0.055 0.054884,-0.2745 0,-0.3294 -0.025873,-0.026 -0.083896,0.026 -0.1097686,0 -0.025873,-0.026 0.016363,-0.077 0,-0.1097 -0.023141,-0.046 -0.086627,-0.063 -0.1097686,-0.1098 -0.016363,-0.033 0.025873,-0.084 0,-0.1098 -0.025873,-0.026 -0.083896,0.026 -0.1097686,0 -0.051745,-0.052 0.032727,-0.154 0,-0.2195 -0.023141,-0.046 -0.086627,-0.064 -0.1097686,-0.1098 -0.021761,-0.043 0.022441,-0.3068 0,-0.3293 -0.025873,-0.026 -0.1097686,0.037 -0.1097686,0 0,-0.037 0.073179,0 0.1097686,0 0.1463581,0 0.2927163,0 0.4390744,0 0.3293057,0 0.6586115,0 0.9879173,0 0.073179,0 0.1463581,0 0.2195371,0 0.03659,0 0.077042,-0.016 0.1097686,0 0.04628,0.023 0.06671,0.081 0.109769,0.1098 0.06808,0.045 0.146358,0.073 0.219537,0.1098 0.07318,0.037 0.141919,0.084 0.219537,0.1097 0.06942,0.023 0.146358,0 0.219537,0 0.219537,0 0.439074,0 0.658612,0 0.0374,0 0.379667,-0.02 0.439074,0 0.07762,0.026 0.141919,0.084 0.219537,0.1098 0.06193,0.021 0.257176,0 0.329306,0 0.365895,0 0.731791,0 1.097686,0 0.0864,0 0.540029,0.01 0.548843,0 0.02587,-0.026 -0.02587,-0.084 0,-0.1098 0.05175,-0.052 0.154084,0.033 0.219537,0 0.145778,-0.073 0.07376,-0.1466 0.219537,-0.2195 0.03273,-0.016 0.07318,0 0.109769,0 0.03659,0 0.07318,0 0.109768,0 0.219537,0 0.439075,0 0.658612,0 0.07318,0 0.146358,0 0.219537,0 0.03659,0 0.0839,0.026 0.109769,0 0.227115,-0.2271 -0.347062,0.01 0.109768,-0.2195 0.03341,-0.017 0.279871,0 0.329306,0 0.219537,0 0.439074,0 0.658611,0 0.256127,0 0.512254,0 0.768381,0 0.07318,0 0.146358,0 0.219537,0 0.03659,0 0.07506,-0.012 0.109768,0 0.07762,0.026 0.141919,0.084 0.219537,0.1097 0.07164,0.024 0.527371,0 0.658612,0 0.219537,0 0.439074,0 0.658612,0 0.182947,0 0.366646,0.017 0.548842,0 0.221652,-0.02 0.436815,-0.091 0.658612,-0.1097 1.594802,-0.1329 -0.539591,0.2869 1.866066,-0.2196 0.258261,-0.054 1.07751,-0.2905 1.426992,-0.3293 0.145463,-0.016 0.292716,0 0.439074,0 0.329306,0 0.658611,0 0.987917,0 0.109769,0 0.219537,0 0.329306,0 0.03659,0 0.07318,0 0.109769,0 0.03659,0 0.08389,0.026 0.109768,0 0.02587,-0.026 0,-0.073 0,-0.1098 0,-0.2479 0.03273,0.033 -0.219537,-0.2195 -0.02587,-0.026 0.07427,-0.01 0.109769,0 0.112251,0.028 0.221875,0.067 0.329305,0.1098 0.397147,0.1588 0.03116,0.1097 0.548843,0.1097 0.475664,0 0.951328,0 1.426992,0 0.07635,0 0.509147,-0.02 0.548843,0 0.04628,0.023 0.06349,0.087 0.109768,0.1098 0.0246,0.012 0.41299,0 0.439075,0 0.256126,0 0.512253,0 0.76838,0 0.103384,0 0.4864,0.021 0.548843,0 0.04909,-0.016 0.06068,-0.093 0.109768,-0.1098 0.104136,-0.035 0.219538,0 0.329306,0 0.182948,0 0.365895,0 0.548843,0 0.03659,0 0.07318,0 0.109769,0 0.03659,0 0.0839,0.026 0.109768,0 0.146358,-0.1463 -0.232854,-0.1053 0.109769,-0.2195 0.0048,-0 0.547124,-8e-4 0.548843,0 0.03273,0.016 -0.02587,0.084 0,0.1098 0.02587,0.026 0.07318,0 0.109768,0 0.03659,0 0.07318,0 0.109769,0 0.475664,0 0.951328,0 1.426992,0 0.02662,0 0.325775,0 0.329305,0 0.05175,-0.052 -0.07318,-0.2196 0,-0.2196 0.03659,0 0,0.073 0,0.1098 0,0.037 0,0.073 0,0.1098 0,0.04 0.0044,0.4346 0,0.4391 -0.02587,0.026 -0.0839,-0.026 -0.109768,0 -0.02587,0.026 0.01636,0.077 0,0.1097 -0.02314,0.046 -0.08663,0.063 -0.109769,0.1098 -0.03273,0.065 0.05175,0.1678 0,0.2195 -0.02587,0.026 -0.0839,-0.026 -0.109768,0 -0.02587,0.026 0.01636,0.077 0,0.1098 -0.04628,0.093 -0.173255,0.127 -0.219538,0.2195 -0.03273,0.066 0.03273,0.1541 0,0.2196 -0.0531,0.1062 -0.166437,0.1133 -0.219537,0.2195 -0.01636,0.033 0.01636,0.077 0,0.1098 -0.02314,0.046 -0.08663,0.063 -0.109768,0.1097 -0.01636,0.033 0,0.073 0,0.1098 0,0.1098 0.02662,0.2228 0,0.3293 -0.01255,0.05 -0.08663,0.063 -0.109769,0.1098 -0.01636,0.033 0.01157,0.075 0,0.1098 -0.02587,0.078 -0.0839,0.1419 -0.109768,0.2195 -0.01157,0.035 0.02587,0.084 0,0.1098 -0.02587,0.026 -0.0839,-0.026 -0.109769,0 -0.02587,0.026 0.02587,0.084 0,0.1097 -0.02587,0.026 -0.0839,-0.026 -0.109769,0 -0.05174,0.052 0.03273,0.1541 0,0.2196 -0.02314,0.046 -0.08106,0.067 -0.109768,0.1097 -0.205211,-0.018 -0.0744,0.2586 -0.109769,0.3293 -0.02314,0.046 -0.08107,0.067 -0.109768,0.1098 -0.04538,0.068 -0.06439,0.1515 -0.109769,0.2195 -0.0287,0.043 -0.08663,0.064 -0.109769,0.1098 -0.01636,0.033 0.01157,0.075 0,0.1098 -0.02587,0.078 -0.08389,0.1419 -0.109768,0.2195 -0.01157,0.035 0.01636,0.077 0,0.1098 -0.02314,0.046 -0.08663,0.064 -0.109769,0.1098 -0.01636,0.033 0.01636,0.077 0,0.1097 -0.02314,0.046 -0.08663,0.063 -0.109768,0.1098 -0.01636,0.033 0.01636,0.077 0,0.1098 -0.02314,0.046 -0.08663,0.063 -0.109769,0.1097 -0.01636,0.033 0.01157,0.075 0,0.1098 -0.02587,0.078 -0.08993,0.1402 -0.109769,0.2195 -0.01775,0.071 0.01775,0.1486 0,0.2196 -0.01984,0.079 -0.0839,0.1419 -0.109768,0.2195 -0.01157,0.035 0.01157,0.075 0,0.1098 -0.05175,0.1552 -0.167792,0.2838 -0.219537,0.4391 -0.01157,0.035 0.01636,0.077 0,0.1097 -0.02314,0.046 -0.08663,0.064 -0.109769,0.1098 -0.01636,0.033 0.01636,0.077 0,0.1098 -0.02314,0.046 -0.08663,0.063 -0.109768,0.1097 -0.02944,0.059 0.02944,0.1607 0,0.2196 -0.02314,0.046 -0.09341,0.061 -0.109769,0.1097 -1.66e-4,5e-4 1.05e-4,0.3292 0,0.3293 -0.02587,0.026 -0.09341,-0.033 -0.109769,0 -0.03273,0.065 0,0.1464 0,0.2196 0,0.037 0.02587,0.084 0,0.1098 -0.02587,0.026 -0.0839,-0.026 -0.109768,0 -0.02587,0.026 0.01636,0.077 0,0.1097 -0.04628,0.093 -0.173255,0.127 -0.219537,0.2196 -0.01636,0.033 0.01157,0.075 0,0.1097 -0.02587,0.078 -0.0839,0.1419 -0.109769,0.2196 -0.01157,0.035 0.01636,0.077 0,0.1097 -0.02314,0.046 -0.09341,0.061 -0.109769,0.1098 -0.02314,0.069 0.02314,0.1501 0,0.2195 -0.01636,0.049 -0.07318,0.073 -0.109768,0.1098 -0.03659,0.073 -0.08993,0.1402 -0.109769,0.2195 -0.01775,0.071 0.02314,0.1502 0,0.2196 -0.03273,0.098 -0.162131,0.1334 -0.219537,0.2195 -0.369686,0.5545 -8.48e-4,0 -0.109769,0.3293 -0.05175,0.1553 -0.187446,0.2786 -0.219537,0.4391 -0.02153,0.1076 0.02153,0.2217 0,0.3293 -0.03209,0.1605 -0.167791,0.2838 -0.219537,0.4391 -0.01157,0.035 0.01636,0.077 0,0.1097 -0.07432,0.1487 -0.145215,0.071 -0.219537,0.2196 -0.01636,0.033 0.02587,0.084 0,0.1098 -0.227115,0.2271 0.0089,-0.3471 -0.219537,0.1097 -0.01636,0.033 0.01157,0.075 0,0.1098 -0.265033,0.7951 0.03165,-0.1731 -0.219537,0.3293 -0.05175,0.1035 -0.05024,0.2301 -0.109769,0.3293 -0.05325,0.089 -0.166292,0.1308 -0.219537,0.2195 -0.05953,0.099 -0.07318,0.2196 -0.109769,0.3293 -0.182947,0.2196 -0.398425,0.4157 -0.548843,0.6587 -0.327404,0.5288 -0.599972,1.0901 -0.878148,1.6465 -0.01636,0.033 0.01157,0.075 0,0.1098 -0.02587,0.078 -0.0839,0.1419 -0.109769,0.2195 -0.02366,0.071 0,0.429 0,0.5488 0,0.073 0,0.1464 0,0.2196 0,0.073 0.02314,0.1501 0,0.2195 -0.01636,0.049 -0.09341,0.061 -0.109769,0.1098 -0.02314,0.069 0,0.1463 0,0.2195 0,0.037 0.01636,0.077 0,0.1098 -0.02314,0.046 -0.08663,0.064 -0.109768,0.1097 -0.01636,0.033 0.01636,0.077 0,0.1098 -0.02314,0.046 -0.08663,0.063 -0.109769,0.1098 -0.02176,0.043 0.02244,0.3069 0,0.3293 -0.02587,0.026 -0.0839,-0.026 -0.109768,0 -0.02244,0.022 0.02176,0.2858 0,0.3293 -0.02314,0.046 -0.08663,0.063 -0.109769,0.1098 -0.01636,0.033 0,0.073 0,0.1097 -0.03659,0.037 -0.08663,0.063 -0.109768,0.1098 -0.01636,0.033 0.02587,0.084 0,0.1098 -0.02587,0.026 -0.0839,-0.026 -0.109769,0 -0.02587,0.026 0.01636,0.077 0,0.1097 -0.02314,0.046 -0.08663,0.063 -0.109769,0.1098 -0.03273,0.065 0.03273,0.1541 0,0.2195 -0.02314,0.046 -0.07318,0.073 -0.109768,0.1098 0,0.073 0.02314,0.1501 0,0.2196 -0.01636,0.049 -0.08663,0.063 -0.109769,0.1097 -0.01636,0.033 0.01157,0.075 0,0.1098 -0.02587,0.078 -0.0839,0.1419 -0.109768,0.2195 -0.01157,0.035 0.01636,0.077 0,0.1098 -0.02314,0.046 -0.08663,0.063 -0.109769,0.1098 -0.01636,0.033 0.02587,0.084 0,0.1097 -0.02587,0.026 -0.09341,-0.033 -0.109769,0 -0.03273,0.066 0.02314,0.1501 0,0.2196 -0.01636,0.049 -0.08663,0.063 -0.109768,0.1097 -0.05175,0.1035 -0.05802,0.2259 -0.109769,0.3293 -0.02314,0.046 -0.0934,0.061 -0.109768,0.1098 -0.02314,0.069 0.01775,0.1486 0,0.2195 -0.01984,0.079 -0.07318,0.1464 -0.109769,0.2196 -0.07318,0.1463 -0.167792,0.2838 -0.219537,0.4391 -0.01157,0.035 0,0.073 0,0.1097 -0.03659,0.1098 -0.0668,0.2219 -0.109769,0.3293 -0.0061,0.015 -0.218501,0.4339 -0.219537,0.4391 -0.02153,0.1076 0.01805,0.221 0,0.3293 -0.01902,0.1141 -0.07318,0.2196 -0.109768,0.3293 -0.07318,0.2196 -0.133593,0.4438 -0.219538,0.6586 -0.03039,0.076 -0.07318,0.1464 -0.109768,0.2196 -0.03659,0.073 -0.06439,0.1514 -0.109769,0.2195 -0.0287,0.043 -0.09341,0.061 -0.109768,0.1098 -0.02314,0.069 0.02314,0.1501 0,0.2195 -0.01271,0.038 -0.52525,0.5231 -0.548843,0.5489 -0.332634,0.3628 -0.644773,0.7447 -0.987918,1.0976 -0.937835,0.9647 -1.938517,1.8681 -2.853983,2.854 -0.04979,0.054 0,0.1464 0,0.2196 0,0.3659 0,0.7318 0,1.0976 0,0.037 0,0.073 0,0.1098 0,0.037 0.02587,0.084 0,0.1098 -0.02587,0.026 -0.0839,-0.026 -0.109768,0 -0.02244,0.022 0.02176,0.2858 0,0.3293 -0.02314,0.046 -0.08663,0.063 -0.109769,0.1098 -0.01636,0.033 0.01636,0.077 0,0.1097 -0.02314,0.046 -0.08663,0.063 -0.109769,0.1098 -0.01636,0.033 0.01636,0.077 0,0.1098 -0.02314,0.046 -0.08663,0.063 -0.109768,0.1097 -0.01636,0.033 0,0.073 0,0.1098 0,0.073 0.02314,0.1501 0,0.2195 -0.01636,0.049 -0.09341,0.061 -0.109769,0.1098 -0.02314,0.069 0.03273,0.1541 0,0.2195 -0.01636,0.033 -0.07704,-0.016 -0.109768,0 -0.242705,0.1214 -0.03406,0.068 -0.109769,0.2196 -0.02314,0.046 -0.08663,0.063 -0.109769,0.1098 -0.01636,0.033 0.02587,0.084 0,0.1097 -0.02587,0.026 -0.09341,-0.033 -0.109768,0 -0.03273,0.065 0.03273,0.1541 0,0.2196 -0.01636,0.033 -0.0839,-0.026 -0.109769,0 -0.02587,0.026 0.02587,0.084 0,0.1097 -0.02587,0.026 -0.0839,-0.026 -0.109768,0 -0.02587,0.026 0.0355,0.1187 0,0.1098 -0.158748,-0.04 -0.323368,-0.3352 -0.439075,-0.2195 -0.115706,0.1157 0.179851,0.2803 0.219537,0.439 0.0089,0.035 -0.0839,-0.026 -0.109768,0 -0.227115,0.2271 0.347062,-0.01 -0.109769,0.2196 -0.03273,0.016 -0.07318,0 -0.109768,0 -0.03659,0 -0.0839,0.026 -0.109769,0 -0.02587,-0.026 0.01636,-0.077 0,-0.1098 -0.02314,-0.046 -0.128986,-0.062 -0.109768,-0.1098 0.06794,-0.1698 0.411122,-0.2754 0.329305,-0.439 -0.07318,-0.1464 -0.280326,0.1798 -0.439074,0.2195 -0.0355,0.01 0,-0.073 0,-0.1098 0,-0.037 0,-0.073 0,-0.1097 0,-0.037 0,-0.073 0,-0.1098 0,-0.037 -0.03659,-0.1098 0,-0.1098 0.03659,0 0,0.073 0,0.1098"
       id="path4677"
       inkscape:connector-curvature="0" />
    <ellipse
       style="fill:#aa00d4;fill-opacity:1;stroke:none;stroke-opacity:1"
       id="path4679"
       cx="16.575056"
       cy="1011.5283"
       rx="6.1470408"
       ry="7.4642639" />
    <ellipse
       style="fill:#e580ff;fill-opacity:1;stroke:none;stroke-opacity:1"
       id="path4681"
       cx="33.369652"
       cy="1010.4855"
       rx="5.049355"
       ry="6.4214625" />
    <ellipse
       style="fill:#ff00cc;fill-opacity:1;stroke:none;stroke-opacity:1"
       id="path4683"
       cx="25.246775"
       cy="1015.9739"
       rx="0.10976858"
       ry="0.054884292" />
    <ellipse
       style="fill:#ff00cc;fill-opacity:1;stroke:none;stroke-opacity:1"
       id="path4685"
       cx="25.795618"
       cy="1014.8214"
       rx="2.1953716"
       ry="3.732132" />
    <ellipse
       style="fill:#ff00cc;fill-opacity:1;stroke:none;stroke-opacity:1"
       id="path4687"
       cx="9.0010242"
       cy="1012.3516"
       rx="2.0856032"
       ry="5.982388" />
    <path
       style="fill:#502d16;fill-opacity:1;stroke:none;stroke-opacity:1"
       id="path4689"
       d="m 8.6346998,1018.761 c -0.1060257,-0.023 -0.1688915,0.054 -0.2556227,0.096 -0.065601,0.032 -0.09068,0.036 -0.1611814,0.058 -0.05676,-0.027 -0.1096026,0.053 -0.1644062,0.04 -0.207166,-0.05 -0.062932,-0.3022 -0.00341,-0.3967 0.4631232,-0.3955 1.0784721,-0.8042 1.7188938,-0.8256 0.2283869,0.022 0.4425397,0.1093 0.6699127,0.1466 0.249985,0.01 0.486292,0.073 0.722675,0.1491 0.190421,0.088 0.379631,0.1475 0.506847,0.3216 0.121544,0.2054 0.03324,0.3415 -0.115326,0.4952 -0.163203,0.1583 -0.277029,0.3565 -0.453796,0.5004 -0.918309,0.5237 -0.832156,0.7487 -1.4248942,0.3237 -0.1826872,-0.1708 -0.353651,-0.3514 -0.5172118,-0.541 -0.2582114,-0.2467 -0.4298313,-0.6375 -0.7765802,-0.7748 -0.2997881,0.2779 0.041056,-0.045 0.8464148,-0.4491 0.011788,-0.01 -0.042121,0.023 0.00989,0.1158 0.032815,0.059 0.063763,0.073 0.1164157,0.1123 0.2435565,0.097 0.4987526,0.133 0.7392147,0.2447 0.303751,0.1263 0.580829,0.3876 0.916577,0.4141 0.405656,-0.2385 -0.363982,0.215 -0.753292,0.4097 -0.0267,0.013 0.04078,-0.044 0.05719,-0.069 0.01984,-0.03 0.03599,-0.063 0.05101,-0.096 0.04763,-0.1041 0.05026,-0.1322 0.08058,-0.2436 0.07785,-0.3475 0.07589,-0.7054 0.08152,-1.0596 -0.0066,-0.3061 -0.07191,-0.5303 -0.250544,-0.7739 -0.02138,-0.021 -0.04271,-0.042 -0.06413,-0.063 -0.0197,-0.019 -0.07599,-0.067 -0.08583,-0.1 -0.11081,-0.366 0.616644,-0.4625 0.965,-0.6201 0.0296,-0.013 0.04873,0.043 0.0731,0.064 0.269753,0.3175 0.320227,0.7501 0.403628,1.1439 0.0881,0.2909 0.121593,0.8386 0.447076,0.9723 0.236736,-0.3261 -0.03474,0.063 -0.831922,0.4184 -0.03419,0.015 0.03438,-0.067 0.04506,-0.1028 0.06087,-0.2043 0.04357,-0.4148 0.03501,-0.6243 -0.04701,-0.4644 -0.203512,-0.9001 -0.373325,-1.3307 -0.128681,-0.2775 -0.254097,-0.5579 -0.435311,-0.8056 -0.07658,-0.09 -0.233275,-0.356 -0.333167,-0.4091 -0.0078,-0 -0.01422,0.01 -0.02133,0.016 0.310597,-0.1649 0.618771,-0.3344 0.931789,-0.4946 0.0086,-0 -0.01381,0.015 -0.01446,0.025 -0.002,0.03 0.0046,0.059 0.0068,0.089 0.01175,0.1588 0.03832,0.3116 0.06537,0.4686 0.07824,0.4558 0.221861,0.89 0.401758,1.3145 0.176446,0.4025 0.433339,0.7542 0.710442,1.0913 0.193094,0.2127 0.401074,0.3548 0.679577,0.421 0.266593,0.044 0.538298,0.041 0.807733,0.041 0.385107,-0.037 1.21344,-0.4364 -0.358002,0.3186 -0.03974,0.019 0.06359,-0.062 0.08916,-0.098 0.02596,-0.036 0.04289,-0.078 0.06434,-0.1178 0.09099,-0.2623 0.167297,-0.5276 -0.03048,-0.7558 -0.320604,-0.2174 -0.684113,-0.1295 -1.029464,-0.031 -0.343778,0.1378 -0.681639,0.2871 -1.044204,0.3679 -0.172104,0.044 -0.359374,0.01 -0.528587,0.062 -0.03161,0.011 -0.05973,0.03 -0.0896,0.044 0.287374,-0.1604 0.574749,-0.3207 0.862123,-0.4811 0.02644,-0 0.05325,-0.014 0.07931,-0.01 0.07637,0.016 0.148511,0.048 0.222767,0.072 0.09111,0.02 0.181678,0.043 0.273321,0.06 0.283073,0.054 0.568494,0.08 0.855171,0.104 0.48296,0.036 0.967654,0.035 1.451612,0.029 0.222713,0.016 0.527694,0.029 0.404144,0.3328 -0.116305,0.1497 -0.252493,0.2879 -0.40256,0.4039 -0.495292,0.3842 -0.991911,0.6552 -1.59154,0.7251 -0.27336,0.043 -0.428879,-0 -0.645981,-0.1665 -0.19556,-0.1608 -0.399546,-0.2687 -0.646254,-0.3227 -0.135516,-0 -0.275557,-0.015 -0.405605,0.034 -0.03494,0.013 -0.130943,0.072 -0.09845,0.053 0.83211,-0.4703 1.138585,-0.5903 0.820392,-0.4646 0.006,-0.021 9.66e-4,-0.05 0.01805,-0.064 0.03395,-0.029 0.08108,-0.036 0.121943,-0.053 0.0629,-0.026 0.125539,-0.054 0.189333,-0.078 0.245899,-0.093 0.499418,-0.1654 0.748503,-0.2497 0.458177,-0.1559 0.902259,-0.346 1.369382,-0.4744 0.411909,-0.1267 0.713424,-0.063 1.120683,0.01 0.515893,0.046 1.006481,0.1899 1.488851,0.3702 0.339378,0.1333 0.692615,0.2179 1.054737,0.2544 0.15724,0 0.339315,-0.099 0.489597,-0.021 -0.297038,0.2176 -0.585288,0.4478 -0.891114,0.6529 -0.01733,0.012 -0.04014,-0.012 -0.06089,-0.014 -0.150985,-0.015 -0.312013,4e-4 -0.463673,-0 -0.164429,-0 -0.32884,0 -0.493258,0 -0.05378,2e-4 -0.109023,-0.013 -0.161329,-2e-4 -0.180638,0.043 -0.507718,0.2337 -0.639568,0.3032 -0.158233,0.09 -0.320876,0.1733 -0.4747,0.2709 -0.06897,0.044 0.281294,-0.1624 0.219516,-0.1089 -0.128934,0.1115 -0.287715,0.1836 -0.424076,0.2859 -0.149468,0.1122 -0.403482,0.3305 -0.513796,0.5001 -0.04437,0.068 -0.0634,0.1498 -0.0951,0.2248 0.01001,0.066 0.004,0.1374 0.03004,0.1993 0.20623,0.4903 0.895743,0.2183 1.236503,0.091 0.421423,-0.2115 0.811788,-0.4821 1.247287,-0.666 0.254097,-0.1073 0.360958,-0.1308 0.622356,-0.2076 0.555751,-0.085 1.085716,-0.2269 1.627118,-0.3734 0.832983,-0.2137 1.669462,-0.4102 2.514738,-0.569 0.89233,-0.1627 1.810474,-0.308 2.631404,-0.7177 0.101594,-0.051 0.195492,-0.1155 0.293238,-0.1733 -0.205758,0.1076 -0.398834,0.244 -0.617273,0.3227 -0.06395,0.023 0.09659,-0.096 0.138039,-0.1501 0.15225,-0.1979 0.184646,-0.432 0.211278,-0.6718 0.0093,-0.3645 -0.14729,-0.6648 -0.365902,-0.9433 -0.155153,-0.1664 -0.355177,-0.328 -0.585417,-0.3755 -0.127942,-0.026 -0.221675,-0 -0.348385,0.017 -0.335175,0.1217 -1.043286,0.4676 0.429825,-0.2826 0.03946,-0.02 -0.06924,0.056 -0.100067,0.087 -0.05958,0.061 -0.123082,0.1536 -0.173355,0.2226 -0.142917,0.2342 -0.229137,0.492 -0.392738,0.7144 -0.176767,0.194 -0.24653,0.4246 -0.283939,0.6783 -0.03141,0.089 -0.0026,0.6298 -0.05107,0.6629 -0.309491,0.2109 -0.641038,0.3875 -0.961557,0.5812 -0.293804,-0.188 -0.498605,-0.4787 -0.743514,-0.7215 -0.24391,-0.1968 -0.429103,-0.3117 -0.737681,-0.1957 -0.391677,0.2693 0.155045,-0.1112 0.70234,-0.3774 0.03491,-0.017 -0.05247,0.058 -0.07236,0.091 -0.07598,0.1274 -0.09192,0.2655 -0.105508,0.4094 0.01734,0.2938 0.123632,0.5828 0.362371,0.7645 0.392652,-0.013 0.156474,-0.015 -0.81234,0.4548 -0.02554,0.012 0.04669,-0.035 0.06046,-0.06 0.08618,-0.1553 0.08375,-0.37 0.09949,-0.5399 -0.0031,-0.2747 -0.02285,-0.8251 -0.315238,-0.961 -0.302221,0.1213 -0.94102,0.3805 0.792533,-0.4303 0.03535,-0.016 -0.05618,0.056 -0.07448,0.09 -0.08956,0.1687 -0.103691,0.3834 -0.136245,0.5677 -0.05215,0.2881 -0.03841,0.6029 -0.240709,0.8334 -1.045528,0.5667 -0.834905,0.7441 -1.458006,0.2501 -0.177784,-0.1325 -0.388854,-0.1711 -0.603964,-0.1922 -0.0358,-0 -0.07159,-0 -0.107415,-0.01 -0.02851,-0 -0.233435,0.022 -0.250241,-0.025 -0.01519,-0.043 -0.04044,-0.1109 -0.0028,-0.1364 0.320138,-0.2168 0.679944,-0.3682 1.019916,-0.5523 0.356638,-0.064 0.71877,-0.086 1.080049,-0.1056 0.297688,-0.045 0.585317,-0.1273 0.882709,-0.1751 0.143791,-0.028 0.292847,-0.021 0.434199,-0.063 0.03933,-0.012 0.14934,-0.067 0.113919,-0.047 -0.942662,0.552 -1.042498,0.6353 -0.737226,0.398 0.155282,-0.2296 0.241352,-0.5012 0.343875,-0.7575 0.129742,-0.3214 0.294021,-0.6233 0.496791,-0.9037 0.189172,-0.2515 0.34902,-0.5225 0.519152,-0.7868 0.246605,-0.4009 0.319762,-0.3589 1.058363,-0.6569 0.07125,-0.029 0.06651,0.3843 0.06688,0.4012 0.0041,0.3728 -0.04095,0.744 -0.06701,1.1155 -0.0393,0.2834 0.03317,0.5456 0.119856,0.8111 0.109802,0.2633 0.254397,0.5071 0.413988,0.7427 0.143602,0.1825 0.340371,0.3147 0.577719,0.3094 0.358211,-0.1438 0.967941,-0.4636 -0.590956,0.3563 -0.05686,0.03 0.08723,-0.095 0.125623,-0.1461 0.112004,-0.1805 0.132786,-0.391 0.147213,-0.5979 0.0338,-0.75 -0.220017,-0.3353 0.958649,-0.9101 -0.05662,0.2724 0.07289,0.5106 0.195966,0.7447 0.282324,0.4753 0.665907,0.8735 1.139726,1.1564 0.0566,0.017 0.11107,0.044 0.169796,0.05 0.0433,0 0.0859,-0.014 0.128855,-0.021 -0.268703,0.1418 -0.526736,0.306 -0.806111,0.4254 -0.04488,0.019 0.0654,-0.074 0.08677,-0.1179 0.05215,-0.1071 0.09197,-0.3204 0.116088,-0.4275 0.101907,-0.5006 0.225215,-0.9965 0.330597,-1.4963 0.08492,-0.5638 0.326745,-0.9389 1.182024,-0.8857 0.225571,0.017 0.451663,0.024 0.677572,0.035 0.144719,-0.011 0.296488,0.025 0.440711,0.01 0.186024,-0.025 1.628735,-0.8856 -0.603657,0.359 0.582472,-0.5624 1.055703,-0.9709 1.157155,-0.2586 0.03235,0.2876 0.03354,0.5776 0.03926,0.8667 0.0096,0.3049 -0.0021,0.6039 -0.144503,0.8785 -0.311276,0.336 -0.796564,0.8296 -1.262378,0.6742 -0.02289,-0.01 -0.165117,-0.085 -0.187712,-0.097 -0.360149,-0.2599 -0.245717,-0.4925 -0.05509,-0.8355 0.3397,-0.4971 0.804828,-0.8852 1.206177,-1.329 0.221563,-0.244 0.339544,-0.5258 0.38653,-0.8473 -0.008,-0.4769 0.904353,-1.2849 1.116008,-0.6713 0.04543,0.2195 0.03943,0.445 0.04038,0.6679 -0.0045,0.3 -0.005,0.5999 -0.0022,0.8998 0.01251,0.783 -0.02697,0.5147 -1.026467,1.0424 -0.02743,-0.026 -0.05922,-0.048 -0.08228,-0.078 -0.06294,-0.082 -0.190918,-0.3254 -0.227234,-0.3956 -0.18821,-0.3636 -0.355956,-0.7371 -0.526183,-1.1093 -0.244279,-0.5568 -0.564669,-1.0771 -0.799686,-1.6379 -0.09575,-0.229 -0.117393,-0.4582 -0.02778,-0.6901 0.20178,-0.3548 0.826008,-0.5073 1.076037,-0.6034 0.05184,-0.02 0.18834,0.3403 0.200657,0.3725 0.133553,0.4426 0.15732,0.9099 0.172825,1.3694 0.01429,0.3695 0.02781,0.7391 0.03493,1.1089 0.0039,0.2318 0.004,0.4636 0.0041,0.6955 -7.3e-5,0.2179 -2.3e-4,0.4359 -3.1e-4,0.6538 0.01059,0.1765 -0.0504,0.3881 0.08273,0.5282 0.170796,0.099 0.366955,0.074 0.553349,0.048 0.262723,-0.08 0.537427,-0.1098 0.801874,-0.18 0.322893,-0.1568 0.632422,-0.3097 -0.70962,0.4062 -0.0264,0.014 0.04769,-0.037 0.06782,-0.059 0.0621,-0.068 0.08759,-0.157 0.118417,-0.2415 0.08649,-0.2137 0.10862,-0.4445 0.123569,-0.6723 0.01601,-0.1229 -0.0084,-0.2511 0.01587,-0.3732 0.08518,-0.4286 0.994136,-0.712 1.088337,-0.7669 0.375625,-0.1006 0.571174,0.2677 0.746197,0.5362 0.225712,0.3735 0.401935,0.7767 0.683369,1.1131 0.0898,0.08 0.187932,0.188 0.31751,0.1995 0.09165,0.01 0.140446,-0.074 0.119718,-0.063 -0.290354,0.1529 -0.573614,0.319 -0.86042,0.4785 0.128989,-0.3015 0.108852,-0.6534 0.110221,-0.9764 0.0098,-0.2933 -0.0094,-0.5797 -0.136156,-0.8475 -0.06035,-0.089 -0.114855,-0.2011 -0.209971,-0.2603 -0.02247,-0.014 -0.05014,-0.026 -0.07623,-0.022 -0.02215,0 -0.07129,0.054 -0.0513,0.044 0.287529,-0.1471 0.570267,-0.3033 0.8554,-0.455 -0.194951,0.4252 -0.108108,0.9087 -0.04318,1.3545 0.05297,0.3372 0.07481,0.7063 0.283493,0.9892 0.06983,0.07 0.145108,0.109 0.244763,0.075 0.02812,-0.01 0.104054,-0.057 0.07816,-0.043 -0.855402,0.48 -1.067327,0.651 -0.739784,0.3966 0.18503,-0.1768 0.347846,-0.3767 0.504391,-0.5789 0.351713,-0.3758 0.931077,-0.8021 1.464008,-0.7671 0.04067,0.011 0.08284,0.018 0.122016,0.033 0.101246,0.04 0.193627,0.1005 0.293949,0.143 0.180061,0.076 0.362655,0.1224 0.552983,0.1645 0.175663,0.024 0.353882,0.072 0.532755,0.047 0.215306,-0.029 1.664792,-0.9161 -0.658465,0.3992 -0.189644,-0.1128 -0.398965,-0.3408 -0.573683,-0.5061 -0.335845,-0.2931 -0.668142,-0.6086 -1.091902,-0.7662 -0.09282,-0.01 -0.138768,-0.028 -0.223513,0.016 -0.0268,0.014 -0.09541,0.073 -0.06877,0.059 1.229944,-0.6565 0.950167,-0.6984 0.737058,-0.3094 -0.100154,0.2248 -0.10661,0.4726 -0.119498,0.7142 -0.0061,0.2554 0.102712,0.4679 0.264327,0.6567 0.422751,0.5038 -0.367452,0.6324 -0.917691,0.8151 -0.05172,0.017 -0.07858,-0.076 -0.117877,-0.1133 -0.281216,-0.3129 -0.49243,-0.6895 -0.797622,-0.9815 -0.0636,-0.061 -0.13575,-0.1121 -0.203625,-0.1681 -0.474163,-0.2833 -1.036624,-0.3255 -1.544115,-0.5273 -0.324522,-0.1409 -0.532794,-0.4256 -0.773744,-0.6707 -0.184546,-0.178 -0.389355,-0.3161 -0.606644,-0.4481 -0.209678,-0.129 -0.428681,-0.242 -0.644093,-0.3612 -0.138339,-0.084 -0.343489,-0.2558 -0.479145,-0.091 1.561889,-0.8961 0.89393,-0.7368 0.804241,-0.3547 -0.02269,0.097 -0.02523,0.1971 -0.03011,0.2957 0.01104,0.2144 -0.05202,0.4065 -0.161271,0.5874 -0.272257,0.4224 -0.707915,0.515 -1.174393,0.7952 -0.271472,0.1631 1.102376,-0.624 0.82389,-0.4731 -0.332223,0.1799 -0.656762,0.3736 -0.985143,0.5604 0.277988,-0.1586 0.554069,-0.3207 0.833964,-0.476 0.02253,-0.012 -0.04254,0.03 -0.06117,0.047 -0.08553,0.082 -0.109387,0.1913 -0.131535,0.3025 -0.03766,0.1831 0.01267,0.2842 0.187572,0.3364 0.197699,0.039 0.400638,0.034 0.601197,0.035 0.231994,-0.022 0.414627,0.108 0.598855,0.2299 0.35768,0.1837 0.694077,0.4032 1.032829,0.619 0.190946,0.1185 0.36565,0.269 0.574545,0.3574 0.03983,0.017 0.08145,0.031 0.124291,0.037 0.02514,0 0.09752,-0.022 0.07551,-0.01 -0.296439,0.1702 -0.602346,0.3234 -0.903519,0.485 -0.0078,-0.018 -0.01078,-0.039 -0.02333,-0.054 -0.08948,-0.1091 -0.279302,-0.2626 -0.369839,-0.343 -0.3681,-0.3268 -0.73337,-0.6508 -1.115113,-0.9619 -0.534528,-0.4426 -1.110637,-0.8222 -1.797107,-0.9737 -0.358677,-0.079 -0.617964,-0.081 -0.981569,-0.1037 -0.584154,0.01 -1.245796,-0.07 -1.756957,0.2704 1.428319,-0.7932 0.804671,-0.6129 0.684738,-0.2581 -0.03368,0.1 -0.03671,0.2052 -0.04184,0.309 -0.0081,0.1076 -0.01893,0.2603 -0.126573,0.3233 -0.955467,0.5595 -0.619041,0.5005 -1.079407,0.5659 -0.302763,0.054 -0.54858,-0.097 -0.801413,-0.2437 -0.572314,-0.3168 -1.023985,-0.8 -1.49555,-1.2439 -0.22048,-0.2799 -0.569398,-0.4996 -0.686393,-0.8506 0.323682,-0.1915 0.630639,-0.4146 0.971044,-0.5746 0.042,-0.02 0.08461,0.038 0.126037,0.059 0.306473,0.1548 0.600082,0.3354 0.882719,0.5295 0.459725,0.3341 0.875606,0.7222 1.31473,1.0817 0.230942,0.1411 0.453772,0.4634 0.74919,0.4475 0.354704,-0.2407 -0.195412,0.1356 -0.786535,0.4221 -0.02763,0.013 0.03666,-0.05 0.04973,-0.077 0.04914,-0.1045 0.05693,-0.2262 0.07069,-0.3386 0.0211,-0.3016 0.01916,-0.6042 0.01497,-0.9063 -8.3e-4,-0.048 -5.32e-4,-0.095 -0.0025,-0.1428 -0.0015,-0.035 -0.0041,-0.07 -0.0077,-0.1055 -0.0021,-0.02 -0.0048,-0.041 -0.0094,-0.061 -0.0015,-0.01 -0.01495,-0.015 -0.0089,-0.018 0.997869,-0.4906 0.977229,-0.8041 0.960545,-0.344 0.0045,0.3506 0.09255,0.6863 0.192157,1.0197 0.113715,0.3889 0.304852,0.7414 0.563491,1.0514 0.178911,0.2301 0.433064,0.3594 0.682213,0.4958 0.01443,0.024 0.04036,0.045 0.04331,0.073 0.0037,0.035 0.0062,0.086 -0.02477,0.1041 -0.333359,0.1899 -0.67062,0.3849 -1.036456,0.5005 -0.07374,0.023 -0.138467,-0.069 -0.205175,-0.1083 -0.130263,-0.076 -0.548356,-0.3495 -0.650722,-0.4158 -0.821448,-0.5118 -1.748306,-0.8273 -2.707317,-0.9515 -0.213156,-0.028 -0.428226,-0.038 -0.64234,-0.056 -1.007661,-0.031 -2.013732,0.059 -3.016438,0.1478 -0.52942,0.032 -1.052271,0.1335 -1.568642,0.2507 -0.761536,0.1914 -1.502355,0.4506 -2.264256,0.6409 -0.651656,0.1349 -1.199567,0.071 -1.831213,-0.089 -0.367976,-0.1 -0.745177,-0.1507 -1.124941,-0.1734 -0.307434,0.01 -0.591028,-0.1165 -0.879897,-0.2029 -0.372032,-0.079 -0.7348579,-0.1842 -1.0948544,-0.3052 -0.2629373,-0.087 -0.4777329,-0.2675 -0.7255383,-0.385 -0.067026,-0.024 -0.1154944,-0.051 -0.1883246,-0.041 -0.023749,0 -0.087638,0.038 -0.066741,0.027 1.7673893,-0.993 0.94904,-0.6688 0.7812148,-0.3744 -0.064598,0.1913 -0.059255,0.3927 -0.029732,0.5895 0.025654,0.1861 0.082869,0.3788 0.041193,0.5663 -0.3158262,0.1882 -0.6192204,0.399 -0.9474785,0.5646 -0.087252,0.044 -0.084739,-0.23 -0.078673,-0.2513 0.037704,-0.1322 0.095169,-0.1942 0.1729895,-0.3078 0.1593415,-0.1547 0.1515417,-0.1672 0.3549359,-0.2781 0.9629744,-0.5249 1.0542388,-0.6992 1.9896056,-0.64 0.860641,0.1711 1.718907,0.3653 2.560601,0.6145 0.648287,0.1996 1.320934,0.2927 1.977931,0.4572 0.528855,0.1705 1.041487,0.3878 1.577553,0.5348 0.496838,0.097 0.987902,0.2189 1.4886,0.2953 0.28285,0.051 0.492625,-0.1 0.736541,-0.2076 0.129366,-0.057 0.528025,-0.1925 0.63465,-0.2297 1.338989,-0.4819 2.757747,-0.6773 4.151078,-0.9373 0.862896,-0.1245 1.693542,-0.4205 2.552975,-0.556 0.148823,-0.013 0.320911,-0.037 0.467114,0.016 0.115573,0.042 0.226888,0.1268 0.340236,0.1776 0.422302,0.1532 0.881919,0.1541 1.325495,0.171 0.317503,-0 0.637024,0.019 0.953701,-0.015 0.207882,-0.023 0.413324,-0.077 0.6165,-0.1247 0.324179,-0.074 0.621905,-0.2113 0.917692,-0.3586 0.31526,-0.1904 0.625988,-0.3592 0.990325,-0.4251 0.464292,-0.041 0.933593,-0.09 1.40015,-0.068 0.709417,0.143 -0.07184,0.4284 -0.667581,0.7648 -0.0053,0 -0.226199,-0.067 -0.256813,-0.077 -1.537848,-0.2969 -3.118909,-0.286 -4.679394,-0.2978 -1.2823,0.03 -2.515555,0.027 -3.769058,-0.2613 -0.424568,-0.1167 -0.830204,-0.2936 -1.26243,-0.3817 0.08288,-0.1144 -0.419481,0.1711 -0.329345,0.1181 0.181748,-0.107 0.340575,-0.3119 0.551454,-0.3101 0.181571,0 -0.301114,0.2032 -0.447235,0.311 -0.201999,0.149 -0.397886,0.3061 -0.596828,0.4592 -1.799956,1.3372 -3.568905,2.7162 -5.402047,4.0081 -0.671824,0.3949 -1.681351,1.2827 -2.513942,1.1102 -0.384819,-0.08 -0.522117,-0.2425 -0.833978,-0.4766 -0.14178,-0.1643 -0.294358,-0.3198 -0.42534,-0.4928 -0.221293,-0.2923 -0.653368,-0.9951 -0.842683,-1.2972 -0.356604,-0.5691 -0.709942,-1.1393 -1.079241,-1.7002 -0.182702,-0.226 -0.328181,-0.5105 -0.568108,-0.688 -0.02546,-0.019 -0.05528,-0.046 -0.08639,-0.04 -0.0221,0 -0.04807,0.072 -0.02794,0.061 0.300674,-0.1499 0.588165,-0.3249 0.882247,-0.4874 -0.05043,0.1755 0.127139,0.2394 0.263099,0.2771 0.24751,0.028 0.493029,0.066 0.740092,0.099 0.558846,0.072 1.122928,0.074 1.685402,0.076 0.494273,0.018 0.98786,0.051 1.481789,0.076 0.408217,0.018 0.816858,0.013 1.225326,0.019 0.535346,0.016 1.070807,0.011 1.606183,0 0.478985,-0.01 0.957908,0.01 1.436911,0.01 0.444214,-0 0.887318,-0.029 1.330164,0.011 0.381909,0.037 0.753447,0.1292 1.124336,0.2227 0,0 -0.808139,0.5552 -0.808139,0.5552 l 0,0 c -0.364458,-0.105 -0.73214,-0.2008 -1.114671,-0.2042 -0.438749,-0.01 -0.877635,-0.01 -1.316425,-0.015 -0.485214,10e-4 -0.970346,0.014 -1.455544,0.01 -0.536867,-0.01 -1.073758,-0.013 -1.610609,0 -0.410887,0 -0.821565,-0 -1.232191,-0.02 -0.47702,-0.023 -0.950294,-0.091 -1.427684,-0.1103 -0.588997,-0.01 -1.180213,0.01 -1.767612,-0.033 -0.256139,-0.035 -0.515385,-0.052 -0.768309,-0.1024 -0.200786,-0.074 -0.358215,-0.1932 -0.361971,-0.4257 0.312927,-0.2039 0.614898,-0.4257 0.93878,-0.6118 0.03966,-0.023 0.132471,0.1108 0.133808,0.1128 0.167969,0.2472 0.276595,0.5305 0.425273,0.7884 0.43481,0.829 0.878884,1.6487 1.424655,2.4121 0.144225,0.2017 0.288906,0.4042 0.453025,0.5901 0.142223,0.1611 0.309007,0.2988 0.46351,0.4482 0.360031,0.2229 0.448078,0.3327 0.859866,0.3951 0.119887,0.018 0.243781,0.016 0.363765,-0 0.129952,-0.019 0.260401,-0.1623 0.379312,-0.1065 0.08944,0.042 -0.328729,0.2184 -0.242155,0.1708 0.208423,-0.1145 0.405768,-0.2482 0.608653,-0.3723 1.848481,-1.2324 3.626268,-2.5676 5.34248,-3.9784 0.09548,-0.08 0.712225,-0.6096 0.881151,-0.7172 0.367249,-0.234 0.746816,-0.4482 1.124786,-0.6644 0.05505,-0.031 0.113162,-0.059 0.173427,-0.078 0.08482,-0.028 0.127721,-0.01 0.211575,0.01 0.401633,0.1161 0.769743,0.3182 1.16655,0.4489 1.14924,0.3269 2.336482,0.404 3.528245,0.4091 1.043531,0.028 2.08671,0.05 3.130674,0.053 0.716968,0 0.871235,-0.014 1.512879,0.011 0.119181,0 0.238055,0.015 0.357083,0.023 0.05762,0 0.115123,0.016 0.172877,0.014 0.02734,-0 0.100657,-0.04 0.07827,-0.025 -1.220518,0.8586 -0.483562,0.6091 -0.99019,0.5004 -0.457254,-0.033 -0.921427,0 -1.372195,0.083 -0.352962,0.097 -0.665172,0.2704 -0.982964,0.4495 -0.300888,0.1477 -0.607901,0.2774 -0.938767,0.3425 -0.501903,0.093 -1.005511,0.102 -1.515044,0.071 -0.477052,-0.01 -0.978454,0.037 -1.430009,-0.1454 -0.25808,-0.113 -0.444483,-0.2228 -0.74157,-0.1709 -0.792738,0.099 -1.568857,0.3165 -2.36214,0.4164 -1.443273,0.2429 -2.903824,0.4732 -4.26268,1.0423 -0.314528,0.1252 -0.403892,0.1555 -0.68958,0.2862 -0.258577,0.1183 -0.493101,0.2352 -0.785495,0.1646 -0.492676,-0.1 -0.980856,-0.2204 -1.474186,-0.3173 -0.529897,-0.1536 -1.035604,-0.3784 -1.562689,-0.542 -0.64592,-0.167 -1.30675,-0.2745 -1.940188,-0.489 -0.835567,-0.2728 -1.697398,-0.4792 -2.571935,-0.5761 -0.3044118,-8e-4 -0.3514721,-0.018 -0.6431747,0.044 -0.09079,0.019 -0.3364639,0.1389 -0.2677269,0.077 0.1788237,-0.1623 0.4121233,-0.2523 0.6114508,-0.3886 0.061522,-0.042 -0.1350358,0.064 -0.1972679,0.1053 -0.054809,0.036 -0.1014338,0.083 -0.1521507,0.125 -0.4863226,0.6511 0.3524202,0.01 -1.0609365,0.8332 0.1479296,-0.096 0.024867,-0.3734 0.017129,-0.511 -0.036892,-0.2107 -0.048233,-0.4206 -0.00801,-0.6326 0.1252626,-0.5145 0.8393817,-0.8828 1.3097705,-0.632 0.2328779,0.1271 0.4410994,0.2999 0.6935144,0.3894 0.356805,0.1289 0.722826,0.2205 1.093919,0.2992 0.286483,0.08 0.57094,0.1801 0.871894,0.1829 0.374461,0.034 0.744261,0.1007 1.105142,0.2087 0.06233,0.016 0.399568,0.104 0.463251,0.1157 0.419584,0.077 0.851885,0.063 1.270128,-0.013 0.782463,-0.1965 1.538359,-0.4758 2.318495,-0.6798 0.513147,-0.1173 1.0324,-0.2261 1.561328,-0.226 0.967773,-0.034 1.936245,-0.091 2.904785,-0.051 0.218014,0.019 0.43706,0.028 0.654042,0.057 0.979506,0.1281 1.930416,0.4585 2.796759,0.9277 0.215483,0.1131 0.485624,0.267 0.721383,0.3494 0.07404,0.026 0.285241,-0 0.229402,0.052 -0.129558,0.1278 -1.069683,0.5543 -0.722896,0.5281 0.0084,-6e-4 0.0035,-0.016 0.0053,-0.025 -0.225301,-0.177 -0.496576,-0.2968 -0.659983,-0.5478 -0.255178,-0.3258 -0.452038,-0.6913 -0.583153,-1.0845 -0.105668,-0.3333 -0.188831,-0.6712 -0.233686,-1.0183 -0.128568,-0.4573 -0.06779,-0.1094 0.935359,-0.6384 0.0086,-0 -0.0065,0.018 -0.0081,0.028 -0.0039,0.023 -0.0064,0.047 -0.0083,0.07 -0.0087,0.1094 -0.0065,0.1412 -0.0073,0.2574 -0.0011,0.3034 0.0063,0.6069 -0.0024,0.9102 -0.02724,0.603 -0.220232,1.0524 -1.123303,1.0648 -0.295787,-0.094 -0.49593,-0.3429 -0.733753,-0.5295 -0.405002,-0.3856 -0.815105,-0.7698 -1.274924,-1.0904 -0.239765,-0.1499 -0.479654,-0.292 -0.743881,-0.396 -0.06135,-0.024 -0.12358,-0.048 -0.18809,-0.061 -0.04013,-0.01 -0.155456,0.021 -0.122941,-0 0.266573,-0.2048 0.56337,-0.367 0.845054,-0.5505 -0.009,0.01 -0.02643,0.016 -0.027,0.03 -0.0099,0.2323 0.435933,0.6278 0.55412,0.8078 0.452334,0.4675 0.926852,0.916 1.52686,1.1895 0.262276,0.1208 0.513568,0.2339 0.805567,0.1519 0.394898,-0.13 0.06321,-0.027 -0.748896,0.4633 -0.02155,0.013 0.04806,-0.016 0.06953,-0.029 0.07795,-0.048 0.100419,-0.1245 0.110466,-0.2106 0.0139,-0.7532 0.249108,-0.6737 1.089932,-1.1686 0.517921,-0.2437 1.117689,-0.1382 1.670095,-0.1339 0.503997,0.043 1.000299,0.085 1.475416,0.277 0.490771,0.1981 0.892014,0.5426 1.30782,0.8591 0.396867,0.3049 0.78775,0.6215 1.200038,0.9056 0.05243,0.036 0.401064,0.2507 0.476959,0.3222 0.03637,0.034 0.05699,0.082 0.08549,0.1231 -0.311614,0.196 -0.613175,0.409 -0.934841,0.588 -0.02226,0.012 -0.04819,-0.017 -0.07104,-0.028 -0.236454,-0.1167 -0.427939,-0.3063 -0.649988,-0.4457 -0.355267,-0.2155 -0.72285,-0.3995 -1.096456,-0.5787 -0.179854,-0.1075 -0.349663,-0.2042 -0.567629,-0.1805 -0.211464,-0 -0.427606,0 -0.632066,-0.059 -0.201883,-0.091 -0.288914,-0.2388 -0.255061,-0.4634 0.07263,-0.6216 0.46695,-0.6635 1.128801,-0.9979 -2.135343,1.239 0.07038,-0.042 0.158326,-0.087 0.28153,-0.1421 -0.542945,0.3211 -0.815154,0.4804 -0.09668,0.057 0.280684,-0.1656 0.201724,-0.1891 0.107839,-0.1689 0.21387,-0.3286 0.191507,-0.5409 0.01306,-0.7312 0.04362,-0.5148 0.992759,-1.0861 0.197009,-0.034 0.365037,0.097 0.526538,0.1928 0.211798,0.1275 0.431282,0.24 0.644571,0.3649 0.219244,0.1397 0.423666,0.2916 0.605949,0.479 0.224217,0.2375 0.422188,0.5063 0.724057,0.6522 0.507209,0.2114 1.065857,0.2821 1.541887,0.5657 0.06959,0.06 0.143162,0.116 0.20877,0.1804 0.298591,0.2934 0.51042,0.6682 0.839638,0.9326 0.405163,0.2088 0.09215,0.01 -0.733538,0.5681 -0.01875,0.013 0.04557,0.019 0.06699,0.011 0.04071,-0.014 0.0038,-0.098 -6.77e-4,-0.1058 -0.01799,-0.031 -0.04476,-0.056 -0.06714,-0.084 -0.172931,-0.2086 -0.279774,-0.456 -0.289245,-0.7299 0.0031,-0.2498 0.0069,-0.5053 0.08547,-0.7448 0.191405,-0.4778 0.32149,-0.3564 1.042854,-0.7879 0.09775,-0.058 0.227572,-0.01 0.322311,0.021 0.396779,0.2176 0.731646,0.5217 1.076315,0.8117 0.141047,0.1177 0.207294,0.177 0.351864,0.2833 0.08862,0.065 0.256101,0.1317 0.324182,0.2236 0.02111,0.028 0.02764,0.065 0.04146,0.098 -0.944185,0.5904 -0.813994,0.7231 -1.681483,0.5472 -0.183636,-0.043 -0.218735,-0.046 -0.396186,-0.1055 -0.159846,-0.053 -0.315076,-0.1402 -0.4801,-0.1769 -0.03802,-0.01 -0.07753,-0.01 -0.116293,-0.011 -0.09541,0.01 -0.102517,0.01 -0.194491,0.038 -0.03143,0.011 -0.120408,0.057 -0.0919,0.04 1.483703,-0.9042 0.897728,-0.578 0.627634,-0.3383 -0.16302,0.1966 -0.314011,0.4026 -0.490858,0.5879 -0.312148,0.3662 -0.102615,0.1395 -1.064942,0.6489 -0.04894,0.026 -0.160407,0.01 -0.205899,-0.01 -0.09093,-0.034 -0.114729,-0.076 -0.180083,-0.1445 -0.192665,-0.3171 -0.216737,-0.6945 -0.259163,-1.056 -0.05107,-0.4624 -0.12836,-0.9283 -0.0507,-1.3926 0.805902,-0.5098 0.933381,-0.9406 1.357532,-0.2388 0.120792,0.2901 0.153406,0.5882 0.127941,0.9013 -0.0036,0.3359 0.0072,0.6749 -0.03848,1.0081 -0.761145,0.491 -0.88749,0.9192 -1.420521,0.3306 -0.255039,-0.3568 -0.435011,-0.7582 -0.674392,-1.1251 -0.18043,-0.2503 -0.356324,-0.5472 -0.700941,-0.3886 2.119964,-1.2746 0.757162,-0.5705 0.667129,-0.3506 -0.04736,0.1157 -0.0089,0.2503 -0.02706,0.3699 -0.0093,0.2342 -0.02133,0.4695 -0.09231,0.695 -0.106981,0.2495 0.0378,-0.099 -0.06314,0.1833 -0.166713,0.466 -0.753948,0.635 -1.197607,0.7843 -0.270171,0.056 -0.540958,0.1092 -0.810006,0.1709 -0.219826,0.021 -0.452031,0.03 -0.629622,-0.1229 -0.134594,-0.1783 -0.107994,-0.3855 -0.105483,-0.599 -5.6e-5,-0.218 -2.06e-4,-0.4361 3.14e-4,-0.6541 8.43e-4,-0.234 0.0025,-0.4679 0.0083,-0.7019 0.009,-0.3759 0.02207,-0.752 0.01214,-1.128 -0.02155,-0.4435 -0.03444,-0.8973 -0.190196,-1.3185 -0.04508,-0.093 -0.06565,-0.1596 -0.138744,-0.2312 -0.01282,-0.013 -0.06289,-0.015 -0.04777,-0.025 0.286209,-0.1827 0.591712,-0.3334 0.882803,-0.5083 0.0189,-0.011 -0.04433,0.01 -0.06404,0.017 -0.02126,0.011 -0.03754,0.029 -0.05632,0.044 -0.125069,0.1876 -0.108546,0.4246 -0.04983,0.6344 0.18039,0.5815 0.448511,1.1317 0.697002,1.6862 0.169634,0.3628 0.530283,1.1339 0.86227,1.3767 0.01869,0.014 0.04415,0.014 0.06622,0.021 -0.294676,0.1743 -0.590779,0.3463 -0.884028,0.5231 -0.0166,0.01 0.04036,-0.01 0.05359,-0.023 0.105543,-0.113 0.04574,-0.3133 0.06331,-0.4475 0.0039,-0.2987 0.0056,-0.5974 -0.0021,-0.8961 -0.004,-0.2077 -0.0043,-0.419 -0.05004,-0.6225 -0.103589,-0.2582 -0.410694,0.1794 0.868556,-0.5599 0.02059,-0.012 -0.03651,0.031 -0.04981,0.051 -0.04988,0.074 -0.05172,0.1183 -0.07339,0.2059 -0.04673,0.3504 -0.156776,0.6572 -0.40375,0.9214 -0.401727,0.444 -0.887521,0.812 -1.225081,1.3123 -0.143967,0.2665 -0.265215,0.4671 0.0417,0.6561 0.05308,0.024 0.108418,0.055 0.168219,0.06 0.02577,0 0.09902,-0.021 0.07736,-0.01 -1.423264,0.9298 -0.934268,0.5715 -0.625862,0.3671 0.186323,-0.2451 0.194457,-0.5297 0.176588,-0.8282 5.42e-4,-0.2824 2.67e-4,-0.5662 -0.04091,-0.8462 -0.01149,-0.051 -0.02105,-0.119 -0.04788,-0.168 -0.0047,-0.01 -0.01149,-0.02 -0.02137,-0.02 -0.0076,-10e-5 -0.01657,0.024 -0.01,0.02 0.293827,-0.1705 0.579146,-0.3555 0.875025,-0.5223 0.02457,-0.014 -0.0387,0.041 -0.05805,0.062 -0.96062,0.5864 -0.804644,0.665 -1.647912,0.6378 -0.231076,-9e-4 -0.461535,-0.02 -0.6926,-0.017 -0.419895,0.055 -0.05822,0.019 0.765016,-0.4917 0.01625,-0.01 -0.04002,-4e-4 -0.05664,0.01 -0.04994,0.028 -0.07166,0.106 -0.08719,0.1509 -0.01825,0.053 -0.03284,0.1068 -0.04925,0.1602 -0.128275,0.4962 -0.262109,0.9914 -0.344911,1.4979 -0.0099,0.069 -0.06059,0.5526 -0.120751,0.5939 -0.663296,0.4548 -0.778856,0.7345 -1.295975,0.4643 -0.459435,-0.3231 -0.83382,-0.7428 -1.166905,-1.1933 -0.155095,-0.2347 -0.294598,-0.463 -0.305061,-0.7516 1.134263,-0.6008 0.960203,-0.7998 0.947939,-0.052 -0.01072,0.2195 -0.0261,0.4426 -0.120407,0.6448 -0.263142,0.4704 -0.831491,0.7619 -1.35596,0.824 -0.253142,-0.053 -0.45685,-0.1853 -0.606947,-0.3988 -0.167925,-0.2412 -0.314379,-0.4955 -0.426861,-0.7676 -0.09873,-0.2765 -0.18637,-0.5527 -0.136193,-0.8508 0.0387,-0.3653 0.10244,-0.7329 0.07272,-1.1008 -0.0285,-0.2509 -0.0011,-0.052 -0.03685,-0.2411 -0.06457,-0.3408 0.597338,-0.3526 0.898682,-0.5242 0.02162,-0.012 -0.0423,0.027 -0.05965,0.045 -0.02631,0.027 -0.04688,0.059 -0.07032,0.089 -0.172336,0.2673 -0.34545,0.5329 -0.523893,0.796 -0.206456,0.2746 -0.389194,0.5615 -0.517222,0.8828 -0.09602,0.2615 -0.184464,0.5247 -0.291662,0.7818 -0.414149,0.5146 -1.005161,0.6679 -1.602488,0.7312 -0.294836,0.053 -0.58246,0.148 -0.883664,0.1605 -0.364735,0.016 -0.734737,0.037 -1.085623,0.1453 0.2678,-0.1599 0.557829,-0.2874 0.8034,-0.4797 0.03192,-0.025 -0.06578,-0.048 -0.0968,-0.074 -0.0038,-0 0.0094,0 0.0144,0 0.02626,0 0.05265,0 0.07902,0.01 0.21477,0.014 0.0061,-0 0.220766,0.016 0.229298,0.033 0.448178,0.094 0.632637,0.2419 0.08181,0.064 0.164118,0.143 0.261383,0.184 0.338667,0.1426 1.032553,-0.5257 -0.662626,0.5175 0.268793,-0.1716 0.264607,-0.5036 0.316632,-0.7899 0.09241,-0.5524 0.09948,-1.622 1.209842,-1.2299 0.260756,0.2794 0.293338,0.7137 0.314728,1.0766 -0.014,0.458 -0.0072,1.8055 -1.127479,1.1422 -0.220027,-0.2364 -0.361388,-0.5291 -0.390053,-0.8534 0.0074,-0.7456 0.412556,-0.9028 1.216014,-1.2163 0.313573,-0.052 0.560124,0.079 0.782094,0.2972 0.168821,0.1813 0.393996,0.5052 0.631366,0.59 0.02465,0.01 0.05235,-3e-4 0.07853,-5e-4 -0.278697,0.1749 -0.551432,0.3597 -0.836092,0.5247 -0.02387,0.014 0.03845,-0.042 0.04768,-0.068 0.01421,-0.04 0.01707,-0.083 0.02097,-0.1257 0.01391,-0.1511 0.0012,-0.3048 0.01853,-0.4558 0.02941,-0.2647 0.06904,-0.5219 0.255519,-0.7268 0.181268,-0.2142 0.281507,-0.4609 0.399135,-0.7131 0.07675,-0.104 0.154128,-0.2748 0.26607,-0.3455 0.447196,-0.2824 0.833484,-0.5884 1.338049,-0.6941 0.06529,-0 0.130565,-0.015 0.195876,-0.011 0.319432,0.017 0.588704,0.2301 0.796746,0.4541 0.225007,0.2991 0.416293,0.6227 0.401153,1.0104 -0.07672,0.9829 -0.437427,0.976 -1.376291,1.5462 -0.881967,0.461 -1.872994,0.6035 -2.839954,0.7902 -0.885933,0.1932 -1.762917,0.4209 -2.635307,0.6681 -0.253819,0.069 -0.508402,0.1424 -0.765254,0.1994 -0.397901,0.088 -0.126008,0.014 -0.545744,0.095 -0.09951,0.019 -0.197704,0.045 -0.296557,0.067 -0.269058,0.082 -0.341185,0.096 -0.60337,0.2116 -0.4328,0.1908 -0.822703,0.4637 -1.253754,0.6582 -0.41898,0.1397 -1.141648,0.3586 -1.371751,-0.2054 -0.03249,-0.08 -0.02592,-0.17 -0.03888,-0.255 0.03696,-0.089 0.05787,-0.1861 0.110885,-0.2664 0.226322,-0.3424 0.694323,-0.6442 1.032818,-0.8522 0.622221,-0.3825 1.1162,-0.6658 1.714708,-1.0122 0.284914,-0.1516 0.475854,-0.2841 0.782979,-0.3548 0.167333,-0.039 0.476131,0.03 0.655108,-0 0.136251,-0.01 0.273393,-0.01 0.40905,-0.024 0.02848,-0 0.05772,-0 0.08508,-0.012 0.01832,-0.01 0.0648,-0.041 0.04942,-0.029 -0.286258,0.2137 -0.574863,0.4242 -0.862295,0.6363 -0.141862,-0.01 -0.285714,0.041 -0.429353,0.016 -0.353931,-0.057 -0.693541,-0.1669 -1.024203,-0.3049 -0.489049,-0.1963 -0.96995,-0.3027 -1.496618,-0.3385 -0.370025,-0.051 -0.725727,-0.1 -1.090141,0.024 -0.457517,0.1299 -0.895869,0.3156 -1.347538,0.4638 -0.256226,0.084 -0.510293,0.168 -0.761063,0.2676 -0.06069,0.024 -0.312419,0.1406 -0.400014,0.1273 -0.04817,-0.01 -0.07886,-0.057 -0.118294,-0.086 0.03449,-0.5456 1.022658,-0.7315 1.504662,-0.673 0.25724,0.062 0.469758,0.1866 0.678357,0.3488 0.192262,0.122 0.373612,0.1484 0.599424,0.1047 0.12227,-0.019 0.242338,-0.039 0.359719,-0.08 0.03952,-0.014 0.152103,-0.069 0.116572,-0.047 -0.229003,0.1424 -1.11407,0.6626 -0.698271,0.4084 0.159288,-0.092 0.280358,-0.231 0.406267,-0.3623 0.02608,-0.02 0.06418,-0.033 0.07515,-0.064 0.02813,-0.079 -0.305461,-0.1014 -0.32182,-0.1002 -0.474701,-0.011 -0.949606,-0.023 -1.423139,-0.06 -0.38547,-0.04 -0.767468,-0.091 -1.147072,-0.171 -0.09004,-0.019 -0.184538,-0.025 -0.269216,-0.061 -0.07702,-0.033 -0.138204,-0.094 -0.207306,-0.1415 1.107533,-0.6793 0.698903,-0.5422 1.561741,-0.6686 0.346217,-0.085 0.67078,-0.2291 1.007412,-0.3439 0.385389,-0.097 0.799345,-0.1656 1.135445,0.1004 0.227978,0.2973 0.156323,0.5206 0.07863,0.8616 -0.01775,0.044 -0.08583,0.2311 -0.130974,0.2612 -0.524625,0.3502 -0.864953,0.6433 -1.440715,0.6708 -0.277275,-0 -0.556916,-3e-4 -0.829364,-0.059 -0.288661,-0.09 -0.501454,-0.2555 -0.693705,-0.4895 -0.266301,-0.356 -0.511004,-0.7234 -0.69514,-1.1303 -0.184291,-0.4268 -0.337487,-0.8626 -0.442723,-1.3162 -0.03285,-0.1506 -0.0651,-0.3018 -0.100975,-0.4517 -0.01497,-0.062 -0.05058,-0.1704 -0.05055,-0.1704 0.306057,-0.2054 0.641345,-0.3634 0.962018,-0.5451 0.123066,0.1482 0.23854,0.3059 0.347783,0.4651 0.179004,0.26 0.289248,0.558 0.418467,0.8445 0.167722,0.4431 0.295827,0.898 0.362697,1.3679 0.0711,0.5113 0.184373,1.7497 -1.008627,1.3297 -0.283545,-0.2806 -0.319992,-0.7108 -0.419018,-1.0771 -0.08018,-0.3558 -0.127079,-0.786 -0.433873,-1.0263 -0.467287,-0.026 1.206972,-0.5737 0.792083,-0.5597 -0.01378,4e-4 0.0024,0.029 0.04961,0.086 0.02203,0.027 0.04546,0.052 0.06819,0.078 0.167641,0.2554 0.243692,0.5407 0.249143,0.8475 -0.0037,0.3566 -0.0075,0.7152 -0.04993,1.0694 -0.124629,0.5915 -0.395038,1.036 -1.224653,1.0425 -0.3221974,-0.1035 -0.5931126,-0.3198 -0.906659,-0.4459 -0.2596978,-0.098 -0.5466223,-0.1037 -0.7863689,-0.249 -0.4710553,-0.4056 -0.1877428,-1.1718 0.8048705,-0.9115 0.287904,0.2369 0.4717633,0.5794 0.7575534,0.8207 0.175857,0.1729 0.361902,0.3331 0.541232,0.5021 0.08849,0.063 0.187613,0.1476 0.302917,0.151 0.0234,7e-4 0.08915,-0.023 0.0694,-0.011 -0.267104,0.1701 -0.544068,0.3241 -0.816102,0.4862 0.203589,-0.1155 0.314363,-0.3098 0.46429,-0.4836 0.106877,-0.1035 0.264232,-0.1947 0.172113,-0.3562 -0.111735,-0.1481 -0.296012,-0.1963 -0.457488,-0.2752 -0.232928,-0.073 -0.4696891,-0.116 -0.7129631,-0.1385 -0.2198028,-0.04 -0.4317749,-0.1241 -0.6561522,-0.1267 -0.137898,0.013 -0.2668949,0.041 -0.3969663,0.091 -0.049306,0.019 -0.1896313,0.092 -0.1449288,0.064 0.2014162,-0.1267 1.0705728,-0.6427 0.616376,-0.3602 -0.1400403,0.1708 -0.2094131,0.2079 0.046169,0.1201 0.1507143,-0.064 0.2853241,-0.152 0.4568665,-0.1376 0,0 -0.8734046,0.6346 -0.8734046,0.6346 z"
       inkscape:connector-curvature="0" />
    <path
       style="fill:#502d16;fill-opacity:1;stroke:none;stroke-opacity:1"
       id="path4691"
       d="m 9.7468857,1007.5268 c 0.4259133,-0.3254 0.8784793,-0.6655 1.4104213,-0.7731 0.307511,-0.1813 0.858469,-0.4235 -0.573291,0.3165 -0.04654,0.024 0.08314,-0.064 0.124998,-0.095 0.342851,-0.2581 -0.08402,0.066 0.259408,-0.1953 0.323753,-0.2032 0.632912,-0.427 0.942142,-0.6514 0.491709,-0.3771 1.026412,-0.658 1.567966,-0.9656 0.225742,-0.076 0.465721,-0.089 0.70031,-0.1231 0.343671,-0.103 0.700601,-0.1287 1.056643,-0.1483 0.473842,-0.027 0.94447,-0.034 1.414799,0.032 0.443785,0.094 0.911128,0.1448 1.31798,0.3571 0.238301,0.1862 0.242497,0.4613 0.293475,0.733 0.02199,0.2635 0.158601,0.4779 0.305716,0.6889 0.239706,0.3069 0.47683,0.6154 0.74662,0.8966 0.303658,0.2888 0.612875,0.5735 0.940527,0.8351 0.361909,0.3078 0.729986,0.6085 1.121381,0.8784 0.439032,0.266 0.851378,0.5669 1.250138,0.889 0.136312,0.081 0.232932,0.2163 0.366176,0.3014 0.294066,0.1877 1.171432,-0.046 -0.740694,0.4939 -0.05872,0.017 -0.01696,-0.1221 -0.03974,-0.1787 -0.05217,-0.1296 -0.12254,-0.2511 -0.18381,-0.3767 -0.673134,-1.2311 -1.384722,-2.446 -2.199536,-3.5891 -0.601191,-0.7981 -1.285419,-1.5391 -2.067878,-2.1622 -0.27673,-0.193 -0.603631,-0.4504 -0.949843,-0.2865 2.735125,-1.5413 -2.367062,1.3864 0.34484,-0.1669 -0.705248,0.4438 -1.334613,0.9946 -1.979278,1.5195 -0.313161,0.2383 -0.62512,0.4845 -0.96903,0.6784 -0.579656,0.3269 -0.864566,0.5976 -1.436307,0.659 -0.207537,-0.026 -0.394831,-0.1204 -0.599661,-0.1613 -0.236888,-0.036 -0.477515,-0.038 -0.716647,-0.04 -0.356164,0.033 -0.69994,0.1376 -1.045739,0.2239 -0.338107,0.1516 -1.0026658,0.4249 0.540524,-0.3198 0.03214,-0.015 -0.04647,0.055 -0.06482,0.085 -0.04026,0.067 -0.04463,0.097 -0.06353,0.1654 -0.287613,0.9994 -0.8868343,0.553 -1.3599324,0.4521 -0.1734404,-0.019 -0.3337955,0.029 -0.4892861,0.1035 -0.068027,0.033 -0.2636497,0.1469 -0.1978795,0.1099 0.7223189,-0.406 0.8437922,-0.5012 0.4583783,-0.2297 -0.2296516,0.1844 -0.457651,0.3709 -0.5805695,0.6436 -0.069601,0.1997 -0.067648,0.4129 -0.068867,0.6217 -0.00569,0.1 0.0023,0.4349 0.1763389,0.3853 0.141125,-0.082 0.2202842,0.097 0.2699376,0.2003 -0.017886,-0.019 0.052067,0.107 0.078369,0.08 0.014484,-0.015 0.025607,-0.07 0.00703,-0.061 -0.2965755,0.1422 -0.5613145,0.349 -0.8658322,0.4734 -0.048215,0.02 0.044716,-0.094 0.059947,-0.1443 0.020929,-0.068 0.032107,-0.1395 0.048161,-0.2092 0.058663,-0.4051 0.056961,-0.8184 0.2236004,-1.1982 0.3612849,-0.4859 0.9649912,-0.8035 1.5625771,-0.8847 0.316792,-0.022 0.634514,-0.01 0.951615,-0 0.694134,-0.029 1.312201,-0.3771 1.912657,-0.6921 1.232259,-0.6656 2.557839,-1.121 3.881206,-1.5644 0.521267,-0.1309 1.001958,-0.3778 1.512031,-0.5395 0.03999,-0.01 0.07981,-0.02 0.119958,-0.016 0.243278,0.024 0.550093,0.3773 0.713416,0.5299 0.445642,0.4045 0.956968,0.7265 1.437269,1.0866 0.629926,0.4724 0.632249,0.4893 1.257512,1.0129 0.956747,0.8409 1.930472,1.6786 2.74252,2.6648 0.16281,0.2205 0.321921,0.4571 0.377148,0.7308 0.01924,0.095 0.0273,0.1928 0.04481,0.2885 0.0939,0.3898 0.366846,0.6815 0.618153,0.9791 0.28153,0.3161 0.471014,0.6876 0.652735,1.0657 0.203899,0.4685 0.403199,0.9342 0.702096,1.351 0.07994,0.077 0.16865,0.1917 0.289781,0.2154 0.03133,0.01 0.06232,-0.014 0.09348,-0.021 -0.281513,0.1481 -0.553677,0.3156 -0.844539,0.4444 -0.03778,0.017 0.05463,-0.064 0.07082,-0.1017 0.02563,-0.06 0.03533,-0.1259 0.05299,-0.1889 0.173298,-1.1096 0.176211,-2.2446 0.107554,-3.3636 -0.06386,-0.2546 -0.02997,-0.5894 -0.184614,-0.822 -0.0151,-0.023 -0.04121,-0.049 -0.06826,-0.045 -0.02538,0 -0.07071,0.071 -0.04773,0.06 0.274861,-0.1348 0.539691,-0.2891 0.809536,-0.4336 -0.213993,0.199 -0.350157,0.4608 -0.548011,0.6734 -0.836372,0.7342 -1.026365,0.6264 -1.8622,0.6934 -0.09261,0.015 -0.185843,0.026 -0.27782,0.045 -0.236433,0.047 -0.469403,0.1105 -0.705176,0.161 -0.383029,0.082 -0.768076,0.1454 -1.154752,0.207 -0.490941,0.087 -0.988067,0.1145 -1.485405,0.1294 -0.300164,0.015 -0.611777,-0.01 -0.793184,-0.2712 -0.02335,-0.1015 -0.04483,-0.126 -6.65e-4,-0.231 0.167762,-0.3987 1.4031,-0.8982 1.428876,-0.9117 0.982105,-0.1879 1.96373,0.121 2.909732,0.3564 0.823532,0.1449 1.712199,0.5847 2.557536,0.5691 0.08383,-0 0.166045,-0.023 0.249067,-0.035 0.585326,-0.3138 -0.526836,0.2832 -0.593933,0.308 -0.05203,0.019 0.06076,-0.094 0.08075,-0.1456 0.08084,-0.2093 0.0812,-0.4438 0.09269,-0.664 0.01181,-0.2836 -0.04413,-0.5728 0.05143,-0.8476 0.05234,-0.1505 0.126786,-0.2541 0.209848,-0.3884 0.382477,-0.5 0.935546,-0.7175 1.482704,-1.0346 0.04811,-0.028 0.193307,-0.1101 0.144561,-0.083 -0.255149,0.1401 -0.509197,0.2822 -0.763796,0.4233 0.03743,-0.046 0.08014,-0.089 0.112293,-0.1392 0.09943,-0.1553 0.16789,-0.3284 0.254531,-0.4912 0.251372,-0.4722 0.511136,-0.9397 0.76039,-1.4131 0.190879,-0.3518 0.37177,-0.7125 0.598646,-1.0434 0.01996,-0.029 0.183047,-0.2526 0.24166,-0.2885 0.323226,-0.198 0.659283,-0.3742 0.988925,-0.5613 0.288882,0.047 0.524982,0.2401 0.763355,0.3974 0.463344,0.3079 0.929818,0.6536 1.461647,0.8316 -0.158971,0.214 0.489686,-0.1782 0.378568,-0.1183 -0.258903,0.1396 -0.509639,0.2941 -0.768983,0.4329 -0.05325,0.029 0.09791,-0.071 0.150012,-0.1016 0.349628,-0.205 0.703202,-0.4033 1.054806,-0.6049 0.312936,-0.1102 0.893953,-0.3592 1.209406,-0.1443 0.06379,0.043 0.102408,0.1155 0.153611,0.1732 0.03836,0.078 0.07993,0.1539 0.115073,0.2331 0.100033,0.2254 0.122368,0.3285 0.220868,0.5567 0.120592,0.2795 0.262386,0.5504 0.407374,0.8176 0.419008,0.7978 0.904814,1.5562 1.450891,2.2725 0.174703,0.2896 0.578939,0.6079 0.611017,0.9684 -0.153518,0.1138 -0.799401,0.83 -1.172188,0.4996 -0.05184,-0.046 -0.115842,-0.145 -0.153202,-0.1982 -0.187441,-0.3673 -0.328414,-0.7546 -0.473751,-1.1398 -0.188692,-0.5366 -0.203723,-1.1088 -0.274351,-1.6679 -0.117737,-0.8993 -0.346725,-1.7721 -0.712937,-2.6013 -0.15307,-0.2884 -0.474771,-0.9216 -0.893159,-0.8641 -0.05017,0.01 -0.09422,0.037 -0.141331,0.056 1.272716,-0.692 0.854168,-0.5191 0.590396,-0.2835 -0.196954,0.176 -0.371514,0.3766 -0.568496,0.5532 -0.735572,0.521 -1.537135,0.9455 -2.33505,1.3634 -0.435865,0.2066 -0.879032,0.4799 -1.370262,0.5285 -0.0768,0.01 -0.154328,0 -0.231492,0 -0.511894,-0.051 -0.99699,-0.2334 -1.489702,-0.3714 -0.110543,-0.021 -0.275655,-0.063 -0.394715,-0.047 -0.04359,0.01 -0.08269,0.03 -0.12404,0.045 0.263925,-0.141 0.514547,-0.3104 0.791777,-0.423 0.05251,-0.021 -0.07099,0.09 -0.09596,0.1404 -0.03021,0.062 -0.04545,0.1294 -0.06817,0.1941 -0.09256,0.331 -0.09233,0.6632 -0.04167,0.9991 0.07925,0.199 0.124967,0.4027 0.152285,0.6146 0.07676,0.7802 -0.0088,0.531 -0.974521,1.0873 -0.15544,-0.1437 -0.305079,-0.2799 -0.526944,-0.2615 -0.33136,0.1288 -0.894883,0.4295 0.598688,-0.3589 0.03616,-0.019 -0.0655,0.049 -0.09556,0.077 -0.04854,0.045 -0.112574,0.1229 -0.155456,0.1733 -0.362592,0.3442 -0.878812,0.9119 -1.356418,0.6073 -0.186916,-0.1681 -0.43537,-0.2148 -0.675761,-0.253 -0.36876,-0.024 -0.566421,-0.04 -0.868875,-0.2703 0,0 0.859606,-0.5474 0.859606,-0.5474 l 0,0 c 0.276808,0.1784 0.535252,0.1997 0.857359,0.2242 0.251684,0.05 0.501281,0.1161 0.716003,0.263 0.04414,0.016 0.07068,0.032 0.118176,0.028 0.01638,-0 0.06146,-0.022 0.04742,-0.014 -1.517817,0.9242 -0.947165,0.5995 -0.659823,0.3683 0.105256,-0.1184 0.05382,-0.056 0.153788,-0.1868 0.330254,-0.3749 0.81979,-0.6495 1.312222,-0.7248 0.123803,0.017 0.209931,0.048 0.316497,0.1144 0.0084,0.01 0.149558,0.101 0.167268,0.1079 0.01373,0.01 0.02948,-4e-4 0.04422,-6e-4 -2.188147,1.3381 -0.825998,0.7045 -0.782907,0.396 0.01565,-0.112 -0.02221,-0.2317 -0.01947,-0.3438 -0.02635,-0.2121 -0.08433,-0.4127 -0.14809,-0.6162 -0.04046,-0.3541 -0.02019,-0.7042 0.05652,-1.0534 0.0049,-0.022 0.07097,-0.3501 0.108152,-0.3769 0.788268,-0.5689 0.816789,-0.7086 1.494704,-0.5132 0.485134,0.1491 0.975593,0.3068 1.485686,0.3352 0.552268,-0.032 1.04821,-0.2727 1.52994,-0.5321 0.244234,-0.1306 1.301839,-0.7385 0.06418,-0.014 -0.144425,0.084 0.288527,-0.1699 0.428353,-0.2618 0.0612,-0.04 0.121522,-0.082 0.182283,-0.1227 0.665266,-0.5618 0.717204,-0.8827 1.723566,-1.2694 0.05445,-0.01 0.109026,-0.023 0.163339,-0.016 0.422586,0.051 0.696734,0.6775 0.849752,1.0008 0.342276,0.8436 0.550795,1.7275 0.722927,2.6203 0.110622,0.5376 0.176896,1.085 0.347911,1.6086 0.128064,0.378 0.269769,0.7557 0.485556,1.0937 0.06273,0.068 0.120005,0.1526 0.217303,0.1705 0.07144,0.013 0.115126,-0.028 0.110703,-0.025 -0.286977,0.184 -0.576763,0.3636 -0.865143,0.5454 0.172651,-0.1266 -0.348719,-0.8539 -0.417109,-0.9687 -0.497434,-0.7534 -1.008593,-1.4976 -1.495876,-2.2577 -0.292003,-0.5054 -0.492719,-1.0513 -0.775682,-1.5604 -0.04355,-0.043 -0.07827,-0.097 -0.130657,-0.1281 -0.315106,-0.188 -0.859385,0.08 -1.151661,0.2033 0.222773,-0.1307 0.443193,-0.2655 0.668319,-0.3922 0.04837,-0.027 -0.09025,0.065 -0.137649,0.094 -0.331966,0.2022 -0.66387,0.4047 -1.000247,0.5995 -0.07568,0.044 -0.16255,0.067 -0.250608,0.059 -0.05122,-0.01 -0.0998,-0.025 -0.149693,-0.038 -0.505936,-0.2517 -0.970809,-0.581 -1.472147,-0.8424 -0.218801,-0.1186 -0.48264,-0.3265 -0.74182,-0.2944 0.259349,-0.1571 0.514723,-0.3211 0.778047,-0.4715 0.05179,-0.03 -0.09866,0.068 -0.142353,0.1084 -0.37775,0.351 -0.615989,0.8283 -0.87763,1.2632 -0.20317,0.3902 -0.304606,0.5736 -0.487976,0.9698 -0.132614,0.2865 -0.235601,0.5848 -0.364834,0.8721 -0.02508,0.056 -0.05646,0.1085 -0.08469,0.1627 -0.329711,0.2015 -0.658467,0.4046 -0.989132,0.6045 -0.04444,0.027 -0.180683,0.1025 -0.136083,0.076 0.232071,-0.1384 0.463165,-0.2786 0.698542,-0.4113 0.05985,-0.034 -0.116664,0.073 -0.171594,0.1142 -0.157764,0.1185 -0.176292,0.1509 -0.309956,0.2942 -0.05988,0.091 -0.17304,0.255 -0.216931,0.3581 -0.112384,0.2641 -0.05728,0.5567 -0.07506,0.8344 -0.0033,0.1337 -0.0017,0.7793 -0.108371,0.8613 -0.744295,0.5723 -0.65208,0.529 -1.148148,0.6712 -0.906002,-0.015 -1.765818,-0.5223 -2.652035,-0.6769 -0.993265,-0.2281 -2.043236,-0.474 -3.051077,-0.1881 0.216813,-0.1371 0.435345,-0.2715 0.650437,-0.4113 0.04822,-0.031 -0.102106,0.053 -0.149659,0.086 -0.108598,0.074 -0.249202,0.1811 -0.2365,0.3253 0.137378,0.2345 0.462803,0.2078 0.698358,0.2076 0.472998,-0 0.94565,-0.03 1.414906,-0.093 0.38327,-0.055 0.761932,-0.1181 1.139493,-0.2049 0.249308,-0.057 0.494977,-0.1302 0.745165,-0.1835 0.09945,-0.021 0.200409,-0.035 0.300613,-0.052 0.21979,-0.02 0.450175,-0.024 0.665745,-0.075 0.04792,-0.012 0.181599,-0.074 0.140162,-0.047 -0.227041,0.1463 -1.137747,0.6716 -0.69809,0.4112 0.223277,-0.191 0.363359,-0.4532 0.545513,-0.6811 0.334971,-0.1978 0.657543,-0.4183 1.004913,-0.5934 0.08055,-0.041 0.14594,0.1031 0.156478,0.139 0.08641,0.2946 0.01653,0.619 0.05323,0.9175 -0.0105,1.1041 -0.02763,2.2086 0.03927,3.3116 -0.0059,0.068 -0.02034,0.3195 -0.05022,0.34 -0.835084,0.5725 -0.898449,0.8239 -1.353058,0.2444 -0.288228,-0.4249 -0.537542,-0.8749 -0.7352,-1.3492 -0.183827,-0.3668 -0.370734,-0.7326 -0.641555,-1.045 -0.254279,-0.3129 -0.552114,-0.6099 -0.667619,-1.0075 -0.03372,-0.1423 -0.03811,-0.2831 -0.06965,-0.4252 -0.04774,-0.215 -0.139951,-0.415 -0.247774,-0.6062 -0.667141,-1.0698 -1.571991,-1.9607 -2.537454,-2.7637 -0.593094,-0.4537 -0.714284,-0.5685 -1.330706,-0.9577 -0.531079,-0.3353 -1.112971,-0.5946 -1.598611,-0.9991 -0.227518,-0.1837 -0.499368,-0.4682 -0.81769,-0.3996 -0.458667,0.145 -0.904973,0.3291 -1.376182,0.4344 -1.325182,0.3946 -2.631047,0.8624 -3.837393,1.5491 -0.653604,0.3519 -1.324615,0.7554 -2.088712,0.7703 -0.3242663,0 -0.6507527,-0 -0.9729253,0.04 -0.094282,0.019 -0.1390269,0.024 -0.2298806,0.058 -0.038804,0.014 -0.1487906,0.073 -0.1134925,0.051 1.4295124,-0.8805 0.8035635,-0.5312 0.5521426,-0.2728 -0.2221574,0.3568 -0.2265788,0.7723 -0.2627457,1.1805 -0.00507,0.051 -0.033482,0.3557 -0.041028,0.3617 -0.4989099,0.4001 -0.8149324,0.9322 -1.1080625,0.4662 -0.080999,-0.1429 -0.085695,-0.103 -0.2322142,-0.1176 -0.1813063,-0.1112 -0.2333881,-0.3163 -0.2252936,-0.5196 -7.176e-4,-0.2202 -0.00528,-0.4439 0.05279,-0.6584 0.11384,-0.3124 0.3551914,-0.5122 0.6082756,-0.7177 0.4933482,-0.3634 0.2300695,-0.1794 1.2358965,-0.7551 0.2375889,-0.136 0.4957253,-0.2234 0.7716313,-0.1891 0.156389,0.032 0.07974,0.014 0.219386,0.053 0.0293,0.01 0.05815,0.018 0.08793,0.025 0.02267,0 0.08834,-0 0.06899,0.01 -0.659108,0.4345 -1.2045421,0.664 -0.835802,0.5073 0.03294,-0.076 0.057659,-0.2548 0.1263672,-0.3025 0.4255888,-0.2957 0.7634238,-0.5673 1.2313978,-0.6943 0.354783,-0.085 0.709257,-0.1939 1.075353,-0.2137 0.248766,0 0.50033,-3e-4 0.745651,0.046 0.187374,0.046 0.363297,0.136 0.55709,0.1486 0.439227,-0.059 0.555469,-0.261 -0.26702,0.2938 -0.09735,0.066 0.205126,-0.1146 0.304892,-0.1765 0.328892,-0.2042 0.42941,-0.2875 0.75215,-0.523 0.603159,-0.4856 1.176555,-1.0094 1.804717,-1.4624 2.218724,-1.2999 0.580044,-0.3384 0.201155,-0.1213 -0.03069,0.018 0.05877,-0.039 0.08891,-0.058 0.05774,-0.036 0.112312,-0.076 0.170978,-0.1099 0.329398,-0.1903 0.66203,-0.375 0.993044,-0.5625 0.371786,-0.056 0.64817,0.2058 0.913315,0.4339 0.725894,0.6824 1.368669,1.449 1.940128,2.2649 0.781689,1.1686 1.476968,2.395 2.311831,3.528 0.08823,0.1144 0.180298,0.2259 0.264678,0.3432 0.05731,0.08 0.23004,0.1783 0.160039,0.247 -0.864614,0.8492 -0.885224,0.613 -1.436528,0.1442 -0.396817,-0.3228 -0.814582,-0.6124 -1.251175,-0.8796 -0.392625,-0.2737 -0.764536,-0.5754 -1.13564,-0.8771 -0.332055,-0.2627 -0.648091,-0.5462 -0.945219,-0.8478 -0.274118,-0.2852 -0.530012,-0.5884 -0.784139,-0.8912 -0.161397,-0.2204 -0.311984,-0.4439 -0.338042,-0.7242 -0.03767,-0.2379 -0.03481,-0.4918 -0.236593,-0.6586 -0.377977,-0.2191 -0.824742,-0.2838 -1.249263,-0.3568 -0.474027,-0.042 -0.948845,-0.036 -1.423624,-0 -0.365032,0.03 -0.72502,0.084 -1.079799,0.1769 -0.232679,0.04 -0.475172,0.052 -0.691033,0.1559 1.624123,-0.9511 0.531125,-0.3245 0.187093,-0.059 -0.305711,0.221 -0.604093,0.4537 -0.930713,0.6436 -0.492292,0.3841 -1.009415,0.7681 -1.594752,0.9907 -0.3732255,0.1111 -0.7610659,0.405 0.618631,-0.4068 0.01533,-0.01 -0.216723,0.1202 -0.193464,0.1506 0,0 -1.0019673,0.392 -1.0019673,0.392 z"
       inkscape:connector-curvature="0" />
  </g>
</svg>
