<?xml version="1.0" encoding="UTF-8" standalone="no"?>
<!-- Created with Inkscape (http://www.inkscape.org/) -->

<svg
   xmlns:osb="http://www.openswatchbook.org/uri/2009/osb"
   xmlns:dc="http://purl.org/dc/elements/1.1/"
   xmlns:cc="http://creativecommons.org/ns#"
   xmlns:rdf="http://www.w3.org/1999/02/22-rdf-syntax-ns#"
   xmlns:svg="http://www.w3.org/2000/svg"
   xmlns="http://www.w3.org/2000/svg"
   xmlns:sodipodi="http://sodipodi.sourceforge.net/DTD/sodipodi-0.dtd"
   xmlns:inkscape="http://www.inkscape.org/namespaces/inkscape"
   width="220"
   height="70"
   viewBox="0 0 220 70"
   id="svg2"
   version="1.1"
   inkscape:version="0.91 r13725"
   sodipodi:docname="kosmolet_b2.svg">
  <defs
     id="defs4">
    <linearGradient
       id="linearGradient5709"
       osb:paint="solid">
      <stop
         style="stop-color:#000000;stop-opacity:1;"
         offset="0"
         id="stop5711" />
    </linearGradient>
  </defs>
  <sodipodi:namedview
     id="base"
     pagecolor="#ffffff"
     bordercolor="#666666"
     borderopacity="1.0"
     inkscape:pageopacity="0.0"
     inkscape:pageshadow="2"
     inkscape:zoom="3.5339147"
     inkscape:cx="129.02335"
     inkscape:cy="42.663088"
     inkscape:document-units="px"
     inkscape:current-layer="layer1"
     showgrid="false"
     units="px"
     inkscape:window-width="1366"
     inkscape:window-height="706"
     inkscape:window-x="-8"
     inkscape:window-y="-8"
     inkscape:window-maximized="1" />
  <metadata
     id="metadata7">
    <rdf:RDF>
      <cc:Work
         rdf:about="">
        <dc:format>image/svg+xml</dc:format>
        <dc:type
           rdf:resource="http://purl.org/dc/dcmitype/StillImage" />
        <dc:title></dc:title>
      </cc:Work>
    </rdf:RDF>
  </metadata>
  <g
     inkscape:label="Layer 1"
     inkscape:groupmode="layer"
     id="layer1"
     transform="translate(0,-982.36216)">
    <ellipse
       style="fill:#00ffff;fill-opacity:1;stroke:none;stroke-opacity:0.9888268"
       id="path4136"
       cx="135.78572"
       cy="1017.0765"
       rx="77.5"
       ry="17" />
    <path
       style="fill:#ffff00;fill-opacity:1;stroke:none;stroke-opacity:0.9888268"
       d=""
       id="path4146"
       inkscape:connector-curvature="0"
       transform="translate(0,802.36216)" />
    <ellipse
       style="fill:#e3dbdb;fill-opacity:1;stroke:#000000;stroke-opacity:1"
       id="path4148"
       cx="138.28572"
       cy="1000.0765"
       rx="38"
       ry="16" />
    <path
       style="fill:none;fill-rule:evenodd;stroke:#000000;stroke-width:1px;stroke-linecap:butt;stroke-linejoin:miter;stroke-opacity:1"
       d="m 40.005014,1017.3744 c 2.909563,0 4.728479,0 8.131728,0 0.235702,0 0.471405,0 0.707107,0 0.117851,0 0.353553,-0.1179 0.353553,0 0,0.1178 -0.471404,0 -0.353553,0 0.235702,0 0.471404,0 0.707107,0 0.117851,0 0.235702,0 0.353553,0 0.117851,0 0.248144,0.053 0.353553,0 0.149072,-0.075 0.204483,-0.279 0.353554,-0.3536 0.09296,-0.047 1.229333,0 1.414213,0 0.117852,0 0.235703,0 0.353554,0 0.117851,0 0.353553,-0.1178 0.353553,0 0,0.1179 -0.471404,0 -0.353553,0 0.235702,0 0.471404,0 0.707107,0 0.942809,0 1.885618,0 2.828427,0 0.117851,0 0.235702,0 0.353553,0 0.117851,0 0.353553,-0.1178 0.353553,0 0,0.1179 -0.471404,0 -0.353553,0 0.353553,0 0.707107,0 1.06066,0 0.117851,0 0.353554,-0.1178 0.353554,0 0,0.1179 -0.471405,0 -0.353554,0 0.235703,0 0.471405,0 0.707107,0 0.117851,0 0.353553,-0.1178 0.353553,0 0,0.1179 -0.471404,0 -0.353553,0 0.235702,0 0.471405,0 0.707107,0"
       id="path4158"
       inkscape:connector-curvature="0" />
    <path
       style="fill:none;fill-rule:evenodd;stroke:#000000;stroke-width:1px;stroke-linecap:butt;stroke-linejoin:miter;stroke-opacity:1"
       d="m 40.005014,1018.7886 c 0,0.5893 0,1.1785 0,1.7678 0,2.4618 0,3.2569 0,6.0104 0,0.4714 0,0.9428 0,1.4142 0,0.1178 0,0.2357 0,0.3536 0,0.1178 0.117851,0.3535 0,0.3535 -0.117851,0 0,-0.4714 0,-0.3535 0,0.3535 0,0.7071 0,1.0606 0,0.1179 -0.08333,0.2702 0,0.3536 0.08333,0.083 0.27022,-0.083 0.353554,0 0.08333,0.083 -0.0527,0.2481 0,0.3535 0.07453,0.1491 0.279017,0.2045 0.353553,0.3536 0.05271,0.1054 0,0.2357 0,0.3535 0,0.1179 0,0.2357 0,0.3536 0.609474,0 1.424324,0.3333 1.767767,-0.3536 0.0527,-0.1054 -0.105409,-0.3008 0,-0.3535 0.210818,-0.1054 0.4835,0.075 0.707107,0 0.316227,-0.1054 0.390879,-0.6017 0.707106,-0.7071 0.223607,-0.075 0.4835,0.074 0.707107,0 0.316228,-0.1054 0.429757,-0.5222 0.707107,-0.7071 0.322967,-0.2154 0.858,-0.3018 1.06066,-0.7071 0.05271,-0.1055 -0.08333,-0.2703 0,-0.3536 0.08333,-0.083 0.248144,0.053 0.353554,0 1.471404,-0.7357 -0.377962,0.024 0.353553,-0.7071 0.08333,-0.083 0.27022,0.083 0.353553,0 0.731515,-0.7315 -1.117851,0.029 0.353554,-0.7071 0.210818,-0.1054 0.54044,0.1667 0.707107,0 0.08333,-0.083 -0.08333,-0.2702 0,-0.3536 0.176776,-0.1767 0.883883,0.1768 1.06066,0 0.731514,-0.7315 -1.117851,0.029 0.353553,-0.7071 0.105409,-0.053 0.235702,0 0.353553,0 0.117852,-0.1178 0.204483,-0.279 0.353554,-0.3535 0.105409,-0.053 0.27022,0.083 0.353553,0 0.731515,-0.7315 -1.117851,0.029 0.353554,-0.7071 0.105409,-0.053 0.235702,0 0.353553,0 0.117851,-0.1179 0.204482,-0.2791 0.353553,-0.3536 0.10541,-0.053 0.248145,0.053 0.353554,0 1.471404,-0.7357 -0.377961,0.024 0.353553,-0.7071 0.08333,-0.083 0.248144,0.053 0.353554,0 0.149071,-0.075 0.204482,-0.279 0.353553,-0.3535 0.105409,-0.053 0.27022,0.083 0.353553,0 0.08333,-0.083 -0.08333,-0.2703 0,-0.3536 0.08333,-0.083 0.27022,0.083 0.353554,0 0.186339,-0.1863 0.167214,-0.5208 0.353553,-0.7071 0.08333,-0.083 0.27022,0.083 0.353554,0 0.08333,-0.083 -0.08333,-0.2702 0,-0.3536 0.08333,-0.083 0.248144,0.053 0.353553,0 0.225204,-0.1126 1.489956,-1.4899 1.767767,-1.7677 0.117851,-0.1179 0.235702,-0.2357 0.353553,-0.3536 0.117851,-0.1178 0.279018,-0.2045 0.353554,-0.3535 0.0527,-0.1054 -0.08333,-0.2703 0,-0.3536 0.08333,-0.083 0.27022,0.083 0.353553,0 0.08333,-0.083 -0.117851,-0.3535 0,-0.3535 0.117851,0 0,0.4714 0,0.3535 0,-0.2357 -0.105409,-0.4963 0,-0.7071 0.0527,-0.1054 0.353553,-0.1178 0.353553,0 0,0.1179 -0.353553,0.1179 -0.353553,0 0,-0.1667 0.279018,-0.2045 0.353553,-0.3535 0.05271,-0.1055 0,-0.2358 0,-0.3536"
       id="path4160"
       inkscape:connector-curvature="0" />
    <path
       style="fill:none;fill-rule:evenodd;stroke:#000000;stroke-width:1px;stroke-linecap:butt;stroke-linejoin:miter;stroke-opacity:1"
       d="m 60.935246,1010.5157 c -1.296363,0 -2.592725,0 -3.889088,0 -0.159225,0 -0.953062,0.054 -1.06066,0 -0.149071,-0.074 -0.204482,-0.2791 -0.353553,-0.3536 -0.191799,-0.096 -1.317474,0.097 -1.414214,0 -0.08333,-0.083 0.08333,-0.2702 0,-0.3535 -0.08333,-0.083 -0.248144,0.053 -0.353553,0 -0.149071,-0.075 -0.19544,-0.3009 -0.353554,-0.3536 -0.223606,-0.074 -0.471404,0 -0.707106,0 -0.117852,0 -0.248145,0.053 -0.353554,0 -0.149071,-0.074 -0.195439,-0.3008 -0.353553,-0.3535 -0.240523,-0.08 -1.580299,0.094 -1.767767,0 -0.873774,-0.4369 0.122039,-0.3536 -0.707107,-0.3536 -0.18488,0 -1.32125,0.047 -1.414213,0 -0.149072,-0.075 -0.19544,-0.3008 -0.353554,-0.3536 -0.223607,-0.074 -0.4835,0.075 -0.707107,0 -0.158114,-0.053 -0.204482,-0.279 -0.353553,-0.3535 -0.09296,-0.047 -1.229333,0 -1.414214,0 -0.159225,0 -0.953061,0.054 -1.06066,0 -0.149071,-0.075 -0.204482,-0.279 -0.353553,-0.3536 -0.210819,-0.1054 -0.496288,0.1054 -0.707107,0 -0.873773,-0.4368 0.122039,-0.3535 -0.707107,-0.3535 -0.471404,0 -0.942809,0 -1.414213,0 -0.117851,0 -0.353554,0.1178 -0.353554,0 0,-0.1179 0.353554,-0.1179 0.353554,0 0,0.1667 -0.279018,0.2045 -0.353554,0.3535 -0.0527,0.1054 0,0.2357 0,0.3536 0,0.1178 0.117851,0.3535 0,0.3535 -0.117851,0 0,-0.4714 0,-0.3535 0,0.5892 0,1.1785 0,1.7678 0,0.2459 0.06393,1.6399 0,1.7677 -0.07454,0.1491 -0.279017,0.2045 -0.353553,0.3536 -0.06393,0.1278 0,1.5218 0,1.7677 0,1.4143 0,2.8285 0,4.2427"
       id="path4162"
       inkscape:connector-curvature="0" />
    <path
       style="fill:none;fill-rule:evenodd;stroke:#000000;stroke-width:1px;stroke-linecap:butt;stroke-linejoin:miter;stroke-opacity:1"
       d="m 55.914917,1017.7279 c 0.353553,-0.4714 0.707106,-0.9428 1.06066,-1.4142 0.117851,0 0.248144,0.053 0.353553,0 0.781726,-0.3908 0.109715,-0.2194 0.353554,-0.7071 0.07453,-0.149 0.279017,-0.2045 0.353553,-0.3535 0.0527,-0.1054 -0.05271,-0.2482 0,-0.3536 0.735702,-1.4714 -0.02441,0.378 0.707107,-0.3535 0.08333,-0.083 -0.05271,-0.2482 0,-0.3536 0.149071,-0.2981 0.558035,-0.409 0.707107,-0.7071 0.0527,-0.1054 -0.05271,-0.2481 0,-0.3536 0.735702,-1.4714 -0.02441,0.378 0.707106,-0.3535 0.08333,-0.083 -0.08333,-0.2702 0,-0.3536 0.471405,-0.4714 0.353554,0.5893 0.353554,-0.3535 0,-0.1179 0,-0.2357 0,-0.3536 0,-0.1178 -0.117851,-0.3535 0,-0.3535 0.117851,0 -0.117851,0.3535 0,0.3535 0.540907,0 0.353553,-1.1294 0.353553,-1.4142 0,-0.1178 -0.117851,-0.3535 0,-0.3535 0.117851,0 0,0.2357 0,0.3535"
       id="path4164"
       inkscape:connector-curvature="0" />
    <path
       style="fill:#ffff00;fill-rule:evenodd;stroke:#000000;stroke-width:1px;stroke-linecap:butt;stroke-linejoin:miter;stroke-opacity:1"
       d="m 41.419228,1017.3744 c 0.1011,1.6667 -1.351101,-0.4167 -1.767767,0 -0.08333,0.083 0,0.2357 0,0.3535 0,0.1179 0,0.2357 0,0.3536 0,0.9428 0,1.8856 0,2.8284"
       id="path4166"
       inkscape:connector-curvature="0" />
    <ellipse
       style="fill:#ffff00;fill-opacity:1;stroke:none;stroke-opacity:0.9888268"
       id="path4170"
       cx="210.24098"
       cy="1018.7886"
       rx="1.9445436"
       ry="1.767767" />
    <path
       style="fill:none;fill-rule:evenodd;stroke:#000000;stroke-width:1px;stroke-linecap:butt;stroke-linejoin:miter;stroke-opacity:1"
       d="m 39.365747,1003.4214 c -0.353554,-0.4714 -0.707107,-0.9428 -1.06066,-1.4142 -0.117852,0 -0.27022,0.083 -0.353554,0 -0.471404,-0.4714 0.589256,-0.3536 -0.353553,-0.3536 -0.117851,0 -0.235702,0 -0.353554,0 -0.117851,0 -0.27022,0.083 -0.353553,0 -0.731515,-0.7315 1.117851,0.029 -0.353553,-0.7071 -0.10541,-0.053 -0.248145,0.053 -0.353554,0 -0.149071,-0.074 -0.214878,-0.2611 -0.353553,-0.3535 -0.219265,-0.1462 -0.487842,-0.2074 -0.707107,-0.3536 -0.138675,-0.093 -0.214878,-0.26106 -0.353553,-0.35351 -0.219265,-0.14618 -0.487843,-0.20738 -0.707107,-0.35356 -0.138675,-0.0925 -0.214878,-0.2611 -0.353554,-0.35355 -0.219264,-0.14618 -0.471404,-0.2357 -0.707106,-0.35355 -0.235703,-0.11785 -0.451452,-0.28964 -0.707107,-0.35356 -0.228665,-0.0572 -0.496288,0.10541 -0.707107,0 -1.931034,-0.96551 0.747435,-0.57581 -1.767767,-1.41421 -0.33541,-0.1118 -0.713972,0.0693 -1.06066,0 -0.516811,-0.10336 -0.914214,-0.54044 -1.414214,-0.70711 -0.111803,-0.0373 -0.248144,0.0527 -0.353553,0 -0.149071,-0.0745 -0.214878,-0.2611 -0.353553,-0.35355 -0.178047,-0.77894 -0.727327,-0.18689 -1.060661,-0.35355 -1.471404,-0.7357 0.377962,0.0244 -0.353553,-0.70711 -0.166667,-0.16667 -0.496288,0.10541 -0.707107,0 -0.149071,-0.0745 -0.204482,-0.27902 -0.353553,-0.35355 -0.105409,-0.0527 -0.27022,0.0833 -0.353553,0 -0.08333,-0.0833 0,-0.23571 0,-0.35356 0,-0.11785 0,-0.4714 0,-0.35355 0,0.0818 -0.06314,1.99504 0,2.12132 0.07453,0.14907 0.279017,0.20448 0.353553,0.35355 0.07009,0.14019 -0.07228,0.98839 0,1.06066 0.08333,0.0833 0.27022,-0.0833 0.353553,0 0.08333,0.0833 -0.0527,0.24815 0,0.35356 0.423309,0.84661 0.707107,-0.22281 0.707107,0.7071 0,0.12984 0.01423,1.39999 0,1.41422 -0.08333,0.0833 -0.235702,0 -0.353553,0 -1.654811,0 0.16324,0.21081 -1.06066,-0.70711 -0.298143,-0.22361 -0.737086,-0.16865 -1.060661,-0.35355 -0.511617,-0.29235 -0.923923,-0.7338 -1.414213,-1.06066 -0.571772,-0.38118 -1.185036,-0.69646 -1.767767,-1.06066 -0.36033,-0.22521 -0.670099,-0.53973 -1.06066,-0.70711 -0.446625,-0.19141 -0.9796,-0.13625 -1.414214,-0.35355 -0.527046,-0.26353 -0.902596,-0.76831 -1.414213,-1.06066 -0.323576,-0.1849 -0.741092,-0.16182 -1.060661,-0.35356 -0.285831,-0.17149 -0.44044,-0.5071 -0.707106,-0.7071 -0.210819,-0.15812 -0.496289,-0.19544 -0.707107,-0.35356 -0.266667,-0.2 -0.408965,-0.55803 -0.707107,-0.7071 -0.210818,-0.10541 -0.496288,0.10541 -0.707107,0 -0.105409,-0.0527 0.08333,-0.27022 0,-0.35356 -0.186339,-0.18634 -0.487842,-0.20737 -0.707107,-0.35355 -0.138675,-0.0924 -0.204482,-0.27902 -0.353553,-0.35355 -0.210818,-0.10541 -0.496288,0.10541 -0.707107,0 -0.202011,-0.10101 -0.716394,-1.05138 -1.06066,-0.70711 -0.08333,0.0833 0,0.2357 0,0.35355 0,0.61708 -0.0527,0.24815 0.353554,1.06066 1.791647,3.5833 -0.527047,-0.84327 1.767766,2.82843 0.791119,0.62885 0.598887,1.70525 1.060661,2.47487 0.171498,0.28584 0.558035,0.40897 0.707106,0.70711 0.873774,1.74755 -0.784517,-0.0774 0.353554,1.06066 0.117851,0.11785 0.300849,0.19544 0.353553,0.35355 0.07454,0.22361 0,0.47137 0,0.70707 0,0.6023 0.232524,1.3537 -1.06066,0.7071 -0.235702,-0.1178 -0.142735,-0.5489 -0.353553,-0.7071 -0.298143,-0.2236 -0.727327,-0.1869 -1.060661,-0.35351 -1.730407,-0.86521 -0.452375,-0.42767 -1.767766,-1.41422 -0.229607,-0.1722 -1.8360199,-0.96556 -2.1213208,-1.06066 -0.2236068,-0.0745 -0.4962883,0.10541 -0.7071068,0 -0.1490712,-0.0745 -0.2044822,-0.27901 -0.3535534,-0.35355 -0.2146855,-0.10734 -1.9066348,0.10734 -2.1213204,0 -0.1490712,-0.0745 -0.2044821,-0.27902 -0.3535533,-0.35355 -0.092964,-0.0465 -1.2293333,0 -1.4142136,0 -0.1178511,0 -0.2702201,-0.0833 -0.3535534,0 -0.083333,0.0833 -0.083333,0.27022 0,0.35355 0.186339,0.18634 0.5207678,0.16722 0.7071068,0.35355 0.186339,0.18634 0.207377,0.48785 0.3535534,0.70711 0.09245,0.13868 0.2535534,0.22022 0.3535534,0.35355 0.2549509,0.33994 0.4416624,0.72886 0.7071067,1.06066 0.1489413,0.78467 0.9975469,0.64397 1.4142136,1.06067 0.186339,0.1863 0.1672144,0.5208 0.3535534,0.7071 0.186339,0.1863 0.5207678,0.1672 0.7071068,0.3535 0.186339,0.1864 0.1672144,0.5208 0.3535534,0.7072 0.083333,0.083 0.27022,-0.083 0.3535534,0 0.083333,0.083 -0.052705,0.2481 0,0.3535 0.074536,0.1491 0.2357022,0.2357 0.3535534,0.3536 0.1178511,0.1178 0.2044821,0.279 0.3535533,0.3535 0.1054091,0.053 0.2702201,-0.083 0.3535531,0 0.166667,0.1667 -0.166666,0.5405 0,0.7071 0.166667,0.1667 0.707107,-0.2357 0.707107,0 0,0.5009 -1.6499157,-1.0017 0.353554,0 0.105409,0.053 -0.08333,0.2702 0,0.3536 0.186339,0.1863 0.520767,0.1672 0.707106,0.3535 0.08333,0.083 -0.08333,0.2703 0,0.3536 0.186339,0.1863 0.520768,0.1672 0.707107,0.3535 2.357023,2.3571 -1.767767,-0.8249 1.06066,1.0607 0.138675,0.093 0.204482,0.279 0.353554,0.3536 0.890598,0.4453 -0.305965,-1.3429 1.06066,0.7071 0.06537,0.098 -0.105409,0.3008 0,0.3535 0.316228,0.1581 0.744432,-0.1581 1.06066,0 0.149071,0.074 0.204482,0.279 0.353553,0.3536 0.10541,0.053 0.27022,-0.083 0.353554,0 0.08333,0.083 0.08333,0.2702 0,0.3535 -0.01423,0.014 -1.284376,0 -1.414214,0 -2.239171,0 -4.478343,0 -6.7175142,0 -0.085746,0 -1.04929,-0.011 -1.0606602,0 -0.083333,0.083 0.083333,0.2702 0,0.3536 -0.3487724,0.3487 -0.7071068,-0.7245 -0.7071068,0.3535 0,0.1179 0,0.2357 0,0.3536 0,0.1178 -0.1054092,0.3008 0,0.3535 0.2108185,0.1054 0.4882627,-0.088 0.7071068,0 0.3945267,0.1578 0.6806017,0.5171 1.0606602,0.7071 0.3333333,0.1667 0.7117109,0.2227 1.0606601,0.3536 0.5942391,0.2228 1.1554821,0.5401 1.7677671,0.7071 0.691601,0.1886 1.434692,0.1476 2.12132,0.3536 4.783782,1.4351 -2.908266,-0.018 3.535534,1.4142 0.345134,0.077 0.717663,-0.086 1.06066,0 0.255524,0.064 2.256899,0.9654 2.828427,1.0606 0.348743,0.058 0.707107,0 1.060661,0 0.707106,0 1.414213,0 2.12132,0 0.117851,0 0.235702,0 0.353553,0 0.117851,0 0.353554,-0.1178 0.353554,0 0,0.1179 -0.24175,-0.037 -0.353554,0 -0.25,0.083 -0.451451,0.2897 -0.707106,0.3536 -0.228665,0.057 -0.471405,0 -0.707107,0 -0.117851,0 -0.248144,-0.053 -0.353554,0 -0.149071,0.074 -0.204482,0.279 -0.353553,0.3535 -0.105409,0.053 -0.24175,-0.037 -0.353553,0 -0.25,0.083 -0.457107,0.2703 -0.707107,0.3536 -0.223607,0.075 -0.54044,-0.1667 -0.707107,0 -0.08333,0.083 0.08333,0.2702 0,0.3535 -0.166667,0.1667 -0.496288,-0.1054 -0.707107,0 -0.149071,0.074 -0.214878,0.2612 -0.353553,0.3536 -0.219265,0.1462 -0.520768,0.1672 -0.707107,0.3536 -0.08333,0.083 0.08333,0.2702 0,0.3535 -0.186339,0.1863 -0.487842,0.2074 -0.707107,0.3536 -0.305081,0.2034 -0.784504,0.7845 -1.06066,1.0606 -0.117851,0.1179 -0.279018,0.2045 -0.353553,0.3536 -0.0527,0.1054 0,0.2357 0,0.3535 0,0.1179 -0.08333,0.2702 0,0.3536 0.04986,0.05 0.988136,0.036 1.06066,0 0.149071,-0.074 0.204482,-0.279 0.353553,-0.3536 0.210819,-0.1054 0.4835,0.074 0.707107,0 0.639911,0.2131 0.657547,-0.5727 1.06066,-0.7071 0.223607,-0.074 0.471405,0 0.707107,0 0.353553,-0.1178 0.718115,-0.2067 1.06066,-0.3535 1.871208,-0.802 1.210736,-0.8778 3.535534,-1.4142 1.623985,-0.3748 3.339356,-0.2777 4.949748,-0.7072 0.972921,-0.2594 1.862422,-0.7765 2.828427,-1.0606 1.042383,-0.3066 2.127888,-0.4436 3.18198,-0.7071 0.832353,-0.2081 1.63595,-0.5274 2.474874,-0.7071 0.814835,-0.1746 1.666422,-0.1515 2.474874,-0.3536 0.804977,-0.2012 1.701493,-0.6739 2.474873,-1.0606 0.235703,-0.1179 0.451452,-0.2897 0.707107,-0.3536 0.228665,-0.057 0.4835,0.074 0.707107,0 0.436887,-0.1456 0.353553,-0.3928 0.353553,-0.7071"
       id="path4172"
       inkscape:connector-curvature="0" />
    <path
       style="fill:none;fill-rule:evenodd;stroke:#000000;stroke-width:1px;stroke-linecap:butt;stroke-linejoin:miter;stroke-opacity:1"
       d="m 38.590801,1015.2531 c -0.471405,0.3535 -0.954083,0.6925 -1.414214,1.0606 -0.130145,0.1041 -0.223409,0.2495 -0.353553,0.3536 -1.991921,1.5935 -1.209356,0.7137 -3.535534,2.8284 -0.616617,0.5606 -1.122803,1.2401 -1.767767,1.7678 -0.657737,0.5381 -1.453079,0.8892 -2.121321,1.4142 -0.985079,0.774 -1.812828,1.7414 -2.828427,2.4749 -6.488071,4.6858 -0.667317,-0.4114 -6.717514,4.2426 -2.685819,2.066 -0.03268,0.9002 -3.181981,2.4749 -2.462085,0.8207 0.173493,-0.2335 -1.767767,1.0606 -0.09806,0.065 -0.235702,0 -0.353553,0 -0.117851,0.1179 -0.235702,0.2358 -0.353553,0.3536 -0.26555,0.2656 -0.707107,0.7822 -0.707107,0.3536 0,-0.1667 0.235702,-0.2357 0.353553,-0.3536 0.117851,-0.1178 0.204482,-0.279 0.353554,-0.3536 0.282842,-0.1414 0.777817,0.1415 1.06066,0 0.149071,-0.074 0.204482,-0.279 0.353553,-0.3535 0.07924,-0.04 1.330199,0 1.414214,0 0.824958,0 1.649916,0 2.474873,0 0.08575,0 1.04929,-0.011 1.060661,0 0.01423,0.014 0,1.2844 0,1.4142 0,0.2357 0.07454,0.4835 0,0.7071 -0.10541,0.3162 -0.558036,0.409 -0.707107,0.7071 -0.0527,0.1054 0.02311,0.238 0,0.3536 -0.0953,0.4765 -0.220063,0.947 -0.353554,1.4142 -0.102382,0.3583 -0.215144,0.7146 -0.353553,1.0606 -0.19574,0.4894 -0.579279,0.903 -0.707107,1.4143 -0.08575,0.343 0,0.7071 0,1.0606 0,0.7071 0,1.4142 0,2.1213 0,0.2783 -0.02839,1.7394 0,1.7678 0.08333,0.083 0.235703,0 0.353554,0 0.117851,0 0.235702,0 0.353553,0 0.159226,0 0.953062,0.054 1.06066,0 1.471405,-0.7357 -0.377961,0.024 0.353554,-0.7071 0.08333,-0.083 0.27022,0.083 0.353553,0 0.08333,-0.083 -0.08333,-0.2702 0,-0.3536 0.08333,-0.083 0.27022,0.083 0.353553,0 0.08333,-0.083 -0.0527,-0.2481 0,-0.3535 0.07454,-0.1491 0.204483,-0.279 0.353554,-0.3536 0.105409,-0.053 0.235702,0 0.353553,0 0.353554,0 0.744433,-0.1581 1.06066,0 0.699748,0.3499 0.914604,1.2682 1.414214,1.7678 0.300463,0.3005 0.760197,0.4066 1.06066,0.7071 0.186339,0.1863 0.167214,0.5208 0.353553,0.7071 0.186339,0.1864 0.520768,0.1672 0.707107,0.3536 0.186339,0.1863 0.167215,0.5207 0.353554,0.7071 0.08333,0.083 0.27022,-0.083 0.353553,0 0.08333,0.083 -0.0527,0.2481 0,0.3535 0.07454,0.1491 0.204482,0.279 0.353553,0.3536 0.10541,0.053 0.235703,0 0.353554,0 0.117851,0 0.27022,0.083 0.353553,0 0.166667,-0.1667 -0.07454,-0.4835 0,-0.7071 0.08333,-0.25 0.235702,-0.4714 0.353554,-0.7071 0.235702,-0.4714 0.499493,-0.9298 0.707106,-1.4142 0.516055,-1.2042 0.415759,-1.7253 0.707107,-3.182 0.0953,-0.4765 0.235702,-0.9428 0.353554,-1.4142 0.117851,-0.4714 0.273669,-0.9349 0.353553,-1.4143 0.03875,-0.2324 -0.105409,-0.4962 0,-0.7071 0.0527,-0.1054 0.300849,0.1055 0.353553,0 0.10541,-0.2108 0,-0.4714 0,-0.7071 0,-0.1178 -0.117851,-0.3535 0,-0.3535 0.117851,0 0,0.2357 0,0.3535 0,0.1299 -0.01423,1.4 0,1.4143 0.08333,0.083 0.27022,-0.083 0.353554,0 0.166666,0.1666 -0.166667,0.5404 0,0.7071 0.08333,0.083 0.248144,-0.053 0.353553,0 1.471405,0.7357 -0.377961,-0.024 0.353554,0.7071 0.08333,0.083 0.27022,-0.083 0.353553,0 0.08333,0.083 -0.105409,0.3008 0,0.3535 0.210818,0.1054 0.496288,-0.1054 0.707107,0 0,0.3658 -0.08333,0.4887 0.353553,0.7071 0.03014,0.015 1.384075,0.015 1.414214,0 0.149071,-0.074 0.279017,-0.2045 0.353553,-0.3535 0.05989,-0.1198 0,-2.0587 0,-2.4749 0,-0.2357 0,-0.4714 0,-0.7071 0,-0.1179 -0.05271,-0.2482 0,-0.3536 0.07454,-0.149 0.279018,-0.2045 0.353553,-0.3535 0.111109,-0.2222 -0.111108,-1.192 0,-1.4142 0.07454,-0.1491 0.279018,-0.2045 0.353554,-0.3536 0.09521,-0.1904 -0.09521,-0.5167 0,-0.7071 0.07453,-0.1491 0.279018,-0.2045 0.353553,-0.3535 0.105409,-0.2109 -0.166666,-0.5405 0,-0.7072 0.08333,-0.083 0.27022,0.083 0.353554,0 0.08333,-0.083 -0.05271,-0.2481 0,-0.3535 0.04507,-0.09 0.662041,-0.617 0.707106,-0.7071 0.05271,-0.1054 -0.08333,-0.2702 0,-0.3536 0.08333,-0.083 0.27022,0.083 0.353554,0 0,-0.9428 -0.117851,0.1179 0.353553,-0.3535 0.08333,-0.083 -0.117851,-0.3536 0,-0.3536 0.117851,0 0,0.4714 0,0.3536 0,-0.2357 -0.105409,-0.4963 0,-0.7071 0.05271,-0.1054 0.27022,0.083 0.353554,0 0.08333,-0.083 -0.08333,-0.2702 0,-0.3536 0.08333,-0.083 0.27022,0.083 0.353553,0 0.08333,-0.083 -0.08333,-0.2702 0,-0.3535 0.08333,-0.083 0.27022,0.083 0.353553,0 0.08333,-0.083 -0.08333,-0.2703 0,-0.3536 0.08333,-0.083 0.248144,0.053 0.353554,0 0.149071,-0.074 0.204482,-0.279 0.353553,-0.3535 0.105409,-0.053 0.248144,0.053 0.353554,0 0.589424,-0.2948 0.159749,-0.7071 1.06066,-0.7071"
       id="path4174"
       inkscape:connector-curvature="0" />
    <path
       style="fill:#ff0000;fill-rule:evenodd;stroke:#000000;stroke-width:1px;stroke-linecap:butt;stroke-linejoin:miter;stroke-opacity:1"
       d="m 28.337752,1017.0208 c -0.824958,0.1179 -1.649916,0.2357 -2.474874,0.3536 -0.235702,0.1178 -0.451451,0.2896 -0.707106,0.3536 -0.26243,0.066 -1.305693,-0.1086 -1.414214,0 -0.08333,0.083 0.105409,0.3008 0,0.3535 -0.210818,0.1054 -0.478442,-0.057 -0.707107,0 -0.570785,0.1427 -0.701266,0.3477 -1.06066,0.7071 -0.117851,0.1179 -0.204482,0.279 -0.353553,0.3536 -0.105409,0.053 -0.235702,0 -0.353554,0 -0.117851,0 -0.235702,0 -0.353553,0 -0.342546,0 -1.910507,-0.07 -2.12132,0 -0.25,0.083 -0.457107,0.2702 -0.707107,0.3535 -0.111804,0.037 -0.235702,0 -0.353554,0 -0.507495,0 -1.749231,-0.093 -2.12132,0 -0.16169,0.04 -0.195439,0.3009 -0.353553,0.3536 -0.53033,0.1767 -1.237437,-0.1768 -1.767767,0 -0.158114,0.053 -0.19544,0.3008 -0.353554,0.3535 -0.223606,0.074 -0.478442,-0.057 -0.707106,0 -0.255655,0.064 -0.451452,0.2897 -0.707107,0.3536 -0.172248,0.043 -1.227264,-0.094 -1.414214,0 -0.149071,0.074 -0.204482,0.279 -0.3535527,0.3535 -0.210819,0.1054 -0.54044,-0.1666 -0.707107,0 -0.08333,0.083 -0.08333,0.2703 0,0.3536 0.08333,0.083 0.248144,-0.053 0.353554,0 0.149071,0.074 0.204482,0.279 0.353553,0.3535 0.1054087,0.053 0.2481437,-0.053 0.3535527,0 0.380059,0.1901 0.720726,0.4522 1.06066,0.7071 0.133334,0.1 0.19544,0.3009 0.353554,0.3536 0.223607,0.075 0.496288,-0.1054 0.707107,0 0.105409,0.053 -0.05271,0.2481 0,0.3536 0.735702,1.4714 -0.02441,-0.378 0.707106,0.3535 0.08333,0.083 -0.08333,0.2702 0,0.3536 0.08333,0.083 0.27022,-0.083 0.353554,0 0.166666,0.1666 -0.166667,0.5404 0,0.7071 0.471404,0.4714 0.353553,-0.5893 0.353553,0.3535 0,0.7071 0,1.4142 0,2.1213 0,0.1179 0.08333,0.2703 0,0.3536 -0.08333,0.083 -0.248144,-0.053 -0.353553,0 -1.172589,1.1726 0.333333,-0.1667 -0.707107,0.3535 -0.541494,0.2708 -0.276485,0.6301 -0.707107,1.0607 -0.08333,0.083 -0.248144,-0.053 -0.353553,0 -0.149071,0.074 -0.204482,0.279 -0.353554,0.3536 -0.105409,0.053 -0.27022,-0.083 -0.353553,0 -0.08333,0.083 -0.08333,0.2702 0,0.3535 0.02201,0.022 1.703753,-0.016 1.767767,0 0.255655,0.064 0.457107,0.2702 0.707107,0.3536 0.243185,0.081 0.852056,-0.1043 1.06066,0 0.149071,0.074 0.204482,0.279 0.353553,0.3535 0.09296,0.046 1.229334,0 1.414214,0 0.117851,0 0.235702,0 0.353553,0 0.117851,0 0.27022,-0.083 0.353554,0 0.08333,0.083 -0.08333,0.2702 0,0.3536 0.08333,0.083 0.235702,0 0.353553,0 0.117851,0 0.471405,0 0.353553,0 -0.235702,0 -0.942809,0 -0.707106,0 0.471404,0 0.942809,0 1.414213,0"
       id="path4176"
       inkscape:connector-curvature="0" />
    <ellipse
       style="fill:#000080;fill-opacity:1;stroke:none;stroke-opacity:0.9888268"
       id="path4196"
       cx="100.8162"
       cy="1011.8943"
       rx="1.0606601"
       ry="1.2374369" />
    <ellipse
       style="fill:#000080;fill-opacity:1;stroke:none;stroke-opacity:0.9888268"
       id="path4198"
       cx="116.01899"
       cy="1016.8441"
       rx="1.0606601"
       ry="0.88388348" />
    <ellipse
       style="fill:#000080;fill-opacity:1;stroke:none;stroke-opacity:0.9888268"
       id="path4200"
       cx="131.39857"
       cy="1019.8492"
       rx="1.2374369"
       ry="1.0606601" />
    <ellipse
       style="fill:#000080;fill-opacity:1;stroke:none;stroke-opacity:0.9888268"
       id="path4202"
       cx="149.07625"
       cy="1020.7332"
       rx="1.2374369"
       ry="0.88388348" />
    <ellipse
       style="fill:#000080;fill-opacity:1;stroke:none;stroke-opacity:0.9888268"
       id="path4204"
       cx="161.98094"
       cy="1018.4351"
       rx="1.0606601"
       ry="0.70710677" />
    <circle
       style="fill:#000080;fill-opacity:1;stroke:none;stroke-opacity:0.9888268"
       id="path4206"
       cx="171.70366"
       cy="1015.7834"
       r="0.88388348" />
    <ellipse
       style="fill:#000080;fill-opacity:1;stroke:none;stroke-opacity:0.9888268"
       id="path4208"
       cx="181.60315"
       cy="1010.6569"
       rx="0.88388348"
       ry="1.0606601" />
    <path
       style="fill:none;fill-rule:evenodd;stroke:#000000;stroke-width:1px;stroke-linecap:butt;stroke-linejoin:miter;stroke-opacity:1"
       d="m 193.44718,1028.6881 1.41422,10.2531"
       id="path4210"
       inkscape:connector-curvature="0" />
    <path
       style="fill:none;fill-rule:evenodd;stroke:#000000;stroke-width:1px;stroke-linecap:butt;stroke-linejoin:miter;stroke-opacity:1"
       d="m 188.14388,1029.7488 0,4.2426"
       id="path4212"
       inkscape:connector-curvature="0" />
    <path
       style="fill:none;fill-rule:evenodd;stroke:#000000;stroke-width:1px;stroke-linecap:butt;stroke-linejoin:miter;stroke-opacity:1"
       d="m 190.61875,1029.0417 c 0,0.7071 0,1.4142 0,2.1213 0,1.1649 0,2.3394 0,4.2426 0,0.825 0,1.6499 0,2.4749 0,0.1178 0,0.2357 0,0.3535 0,0.1179 0.11786,0.3536 0,0.3536 -0.11785,0 0,-0.4714 0,-0.3536 0,0.2358 0,0.4715 0,0.7072 0,0.1178 0.11786,0.3535 0,0.3535 -0.11785,0 0,-0.4714 0,-0.3535 0,0.2356 -0.1054,0.4962 0,0.7071 0.0527,0.1054 0.35356,-0.1179 0.35356,0 0,0.1178 -0.47141,0 -0.35356,0 0.23571,0 0.49629,-0.1055 0.70711,0 0.0584,0.029 0,0.9666 0,1.0606 0,1.5321 0,3.0641 0,4.5962"
       id="path4214"
       inkscape:connector-curvature="0" />
    <path
       style="fill:none;fill-rule:evenodd;stroke:#000000;stroke-width:1px;stroke-linecap:butt;stroke-linejoin:miter;stroke-opacity:1"
       d="m 195.21495,1038.9412 c 0,1.8856 0,3.7712 0,5.6568 0,0.086 0.0114,1.0493 0,1.0607 -0.0833,0.083 -0.2357,0 -0.35355,0 -0.82496,0 -1.64992,0 -2.47488,0 -0.2357,0 -0.4714,0 -0.70711,0 -0.11785,0 -0.35355,0.1178 -0.35355,0 0,-0.1179 0.2357,0 0.35355,0"
       id="path4216"
       inkscape:connector-curvature="0" />
    <path
       style="fill:none;fill-rule:evenodd;stroke:#000000;stroke-width:1px;stroke-linecap:butt;stroke-linejoin:miter;stroke-opacity:1"
       d="m 192.38652,1029.7488 c -0.11785,0.4714 -0.2357,0.9428 -0.35355,1.4142 0,0.2357 0.0462,0.476 0,0.7071 -0.0731,0.3654 -0.28047,0.6952 -0.35356,1.0606 -0.0462,0.2312 0.0462,0.476 0,0.7071 -0.0731,0.3655 -0.29228,0.6931 -0.35355,1.0607 -0.0969,0.5812 0,1.1785 0,1.7678 0,0.4714 0,0.9428 0,1.4142 0,0.1178 0,0.2357 0,0.3535 0,0.1179 0.11785,0.3536 0,0.3536 -0.11785,0 0,-0.2357 0,-0.3536 0,-0.7071 0,-1.4142 0,-2.1213 0,-0.7071 0,-1.4142 0,-2.1213 0,-0.1178 -0.11785,-0.3535 0,-0.3535 0.11785,0 0,0.2356 0,0.3535 0,0.1179 0,0.2357 0,0.3536 0,0.8561 0.52465,1.0379 0.70711,1.7677 0.0867,0.3469 -0.1021,1.9171 0,2.1213 0.0745,0.1491 0.27902,0.2045 0.35355,0.3536 0.10541,0.2108 -0.16667,0.5404 0,0.7071 0.0833,0.083 0.27022,0.083 0.35355,0 0.0437,-0.044 0,-1.1925 0,-1.4142 0,-1.4142 0,-2.8284 0,-4.2427 0,-0.7071 0,-1.4142 0,-2.1213 0,-0.1178 -0.11785,-0.3535 0,-0.3535 0.11786,0 0,0.2357 0,0.3535 0,0.4714 0,0.9428 0,1.4142 0,1.0607 0,2.1214 0,3.182 0,0.32 -0.0658,2.919 0,3.182 0.0404,0.1617 0.27902,0.2045 0.35356,0.3536 0.0527,0.1054 0,0.2357 0,0.3535 0,0.1179 0,0.2357 0,0.3536 0,0.1178 0.11785,0.3535 0,0.3535 -0.11785,0 0,-0.2357 0,-0.3535 0,-0.3536 0,-0.7071 0,-1.0607 0,-1.6499 0,-3.2998 0,-4.9497 0,-0.7071 0,-1.4143 0,-2.1214 0,-0.2357 0.0745,-0.4835 0,-0.7071 -0.20069,-0.602 -0.63702,-1.137 -0.70711,-1.7677 -0.0537,-0.483 -0.11785,-1.5321 0.35355,-1.4142 0.47141,0.1178 -0.35355,0.9283 -0.35355,1.4142 0,0.6009 0.26857,1.1728 0.35355,1.7677 0.05,0.35 0,0.7071 0,1.0607 0,0.9428 0,1.8856 0,2.8284 0,0.5893 -0.0731,1.1831 0,1.7678 0.0462,0.3698 0.28047,0.6952 0.35356,1.0606 0.0462,0.2312 -0.0572,0.4785 0,0.7071 0.0639,0.2557 0.30187,0.4488 0.35355,0.7072 0.0693,0.3466 -0.0858,0.7176 0,1.0606 0.0404,0.1617 0.27902,0.2045 0.35356,0.3536 0.0527,0.1054 0,0.2357 0,0.3535 0,0.2357 -0.0745,0.4835 0,0.7071 0.0527,0.1582 0.27901,0.2045 0.35355,0.3536 0.10541,0.2108 -0.16667,0.5404 0,0.7071 0.0833,0.083 0.27022,-0.083 0.35355,0 0.0833,0.083 0,0.4714 0,0.3535 0,-0.2357 -0.2357,-0.7071 0,-0.7071 0.2357,0 0,0.9428 0,0.7071 0,-3.6969 0.21082,0.1362 -0.35355,-2.1213 -0.14292,-0.5716 0.11556,-1.1899 0,-1.7677 -0.0517,-0.2584 -0.30187,-0.4487 -0.35355,-0.7071 -0.0693,-0.3467 0,-0.7072 0,-1.0607 0,-0.5893 0,-1.1785 0,-1.7678 0,-0.1178 0.0833,-0.2702 0,-0.3535 -0.0833,-0.083 -0.23571,0 -0.35356,0 -0.11785,0 -0.27022,-0.083 -0.35355,0 -0.0114,0.011 0,0.9749 0,1.0606 0,1.5321 0,3.0642 0,4.5962 0,0.4714 0,0.9428 0,1.4142 0,0.1179 0,0.2357 0,0.3536 0,0.1178 0.11785,0.3535 0,0.3535 -0.11785,0 0,-0.2357 0,-0.3535 0,-0.1179 0,-0.2357 0,-0.3536 0,-1.7916 0.10541,0.4217 -0.35356,-1.4142 -0.003,-0.012 0.002,-1.0588 0,-1.0606 -0.0833,-0.083 -0.27022,0.083 -0.35355,0 -0.18634,-0.1864 -0.27022,-0.4571 -0.35355,-0.7071 -0.0373,-0.1118 0.0833,-0.2703 0,-0.3536 -0.0833,-0.083 -0.27022,0.083 -0.35356,0 -0.0833,-0.083 -0.11785,-0.3536 0,-0.3536 0.11786,0 0,0.2357 0,0.3536 0,0.2353 0,0.4718 0,0.7071 0,0.5893 0,1.1785 0,1.7678 0,2.3452 -0.16666,-0.5 0.35356,1.0606 0.0976,0.2929 -0.11242,1.543 0,1.7678 0.0745,0.1491 0.27902,0.2045 0.35355,0.3536 0.0701,0.1401 -0.0723,0.9883 0,1.0606 0.0833,0.083 0.27022,-0.083 0.35355,0 0.0833,0.083 -0.0833,0.2702 0,0.3536 0.0833,0.083 0.23571,0 0.35356,0 0.11785,0 0.27022,0.083 0.35355,0 0.0833,-0.083 -0.0833,-0.2702 0,-0.3536 0.0833,-0.083 0.27022,0.083 0.35356,0 0.0833,-0.083 0,-0.2357 0,-0.3535 0,-0.1179 0,-0.2357 0,-0.3536 0,-0.2506 -0.0457,-2.0299 0,-2.1213 0.0745,-0.1491 0.27901,-0.2045 0.35355,-0.3536 0.0538,-0.1076 0,-0.9014 0,-1.0606 0,-0.1179 0.0833,-0.2702 0,-0.3536 -0.0833,-0.083 -0.35355,0.1179 -0.35355,0 0,-0.1178 0.4714,0 0.35355,0 -0.2357,0 -0.49629,-0.1054 -0.70711,0 -0.10541,0.053 0,0.2357 0,0.3536 0,0.1178 0,0.2357 0,0.3535 0,0.7071 0,1.4142 0,2.1213 0,0.1179 -0.0833,0.2703 0,0.3536 0.0833,0.083 0.27022,-0.083 0.35356,0 0.0833,0.083 -0.0833,0.2702 0,0.3536 0.0833,0.083 0.2357,0 0.35355,0 0,0.1178 -0.0833,0.2702 0,0.3535 0.0833,0.083 0.2357,0 0.35355,0 0.11785,0 0.27022,0.083 0.35356,0 0.0833,-0.083 0.0527,-0.2481 0,-0.3535 -0.26959,-0.5392 -0.9291,-0.3536 -1.41422,-0.3536 -0.11785,0 -0.27022,0.083 -0.35355,0 -0.0833,-0.083 0,-0.2357 0,-0.3536 0,-0.1178 0,-0.4714 0,-0.3535 0,0.2357 0,0.9428 0,0.7071 0,-1.0607 0,-2.1213 0,-3.182"
       id="path4218"
       inkscape:connector-curvature="0" />
    <path
       style="fill:none;fill-rule:evenodd;stroke:#000000;stroke-width:1px;stroke-linecap:butt;stroke-linejoin:miter;stroke-opacity:1"
       d="m 195.92206,1046.0122 c 0.9428,0 1.88561,0 2.82842,0 0.55335,0 2.06951,0 3.53554,0 0.24591,0 1.63991,0.064 1.76776,0 0.14907,-0.074 0.20449,-0.279 0.35356,-0.3535 0.1076,-0.054 0.90143,0 1.06066,0 0.11785,0 0.2357,0 0.35355,0 0.11785,0 0.35355,-0.1179 0.35355,0 0,0.1178 -0.4714,0 -0.35355,0 0.70711,0 1.41421,0 2.12132,0 0.11785,0 0.35355,-0.1179 0.35355,0 0,0.1178 -0.35355,-0.1179 -0.35355,0 0,0.1666 0.27902,0.2045 0.35355,0.3535 0.0538,0.1076 0,0.9015 0,1.0607 0,0.9428 0,1.8856 0,2.8284 0,1.6566 0,2.6316 0,3.5355 0,0.3536 0,0.7072 0,1.0607 0,0.1179 0.11786,0.3536 0,0.3536 -0.0804,0 0.0847,-1.3296 0,-1.4143 -0.0833,-0.083 -0.27022,0.083 -0.35355,0 -0.17678,-0.1767 0.17678,-0.8838 0,-1.0606 -0.0833,-0.083 -0.27022,0.083 -0.35355,0 -0.0114,-0.011 0,-0.9749 0,-1.0607 0,-0.3535 0,-0.7071 0,-1.0606 0,-0.1179 -0.11785,-0.3536 0,-0.3536 0.11785,0 0,0.4714 0,0.3536 0,-0.2357 0.10541,-0.4963 0,-0.7071 -0.0178,-0.036 -1.02692,0 -1.41422,0 -2.12132,0 -4.24264,0 -6.36396,0 -2.71057,0 -5.42115,0 -8.13173,0 -0.7071,0 -1.41421,0 -2.12132,0 -0.11785,0 -0.35355,0.1178 -0.35355,0 0,-0.1179 0.35355,0.1178 0.35355,0 0,-0.1667 -0.27901,-0.2045 -0.35355,-0.3536 -0.0538,-0.1076 0,-0.9014 0,-1.0607 0,-0.8249 0,-1.6499 0,-2.4748 0,-0.1299 -0.0142,-1.4 0,-1.4142 0.0833,-0.083 0.2357,0 0.35355,0 0.11786,0 0.23571,0 0.35356,0 0.82496,0 1.64991,0 2.47487,0 0.11785,0 0.27022,-0.083 0.35355,0 0.47141,0.4714 -0.58925,0.3535 0.35356,0.3535"
       id="path4220"
       inkscape:connector-curvature="0" />
    <path
       style="fill:none;fill-rule:evenodd;stroke:#000000;stroke-width:1px;stroke-linecap:butt;stroke-linejoin:miter;stroke-opacity:1"
       d="m 191.32586,1046.0122 c 1.88562,0 3.77124,0 5.65686,0 0.29933,0 1.22414,-0.063 1.41421,0 0.31623,0.1054 0.40896,0.5581 0.70711,0.7071 0.21081,0.1054 0.54044,-0.1666 0.7071,0 0.0833,0.083 -0.0833,0.2702 0,0.3536 0.0833,0.083 0.23571,0 0.35356,0 0.11785,0 0.2357,0 0.35355,0 1.41421,0 2.82843,0 4.24264,0 0.12984,0 1.39999,-0.014 1.41421,0 0.0833,0.083 -0.0833,0.2702 0,0.3535 0.0114,0.011 0.97492,0 1.06066,0 0.23571,0 0.47141,0 0.70711,0 0.11785,0 0.35355,-0.1178 0.35355,0 0,0.1179 -0.35355,-0.1178 -0.35355,0 0,0.1667 0.27902,0.2045 0.35355,0.3536 0.0465,0.093 0,1.2293 0,1.4142 0,0.1179 0.11786,0.3536 0,0.3536 -0.52022,0 0.81904,-1.1726 -0.35355,0"
       id="path4222"
       inkscape:connector-curvature="0" />
    <path
       style="fill:none;fill-rule:evenodd;stroke:#000000;stroke-width:1px;stroke-linecap:butt;stroke-linejoin:miter;stroke-opacity:1"
       d="m 206.1751,1047.78 c -3.56897,0 -3.91849,0 -8.13172,0 -0.70711,0 -1.41422,0 -2.12132,0 -0.11786,0 -0.23571,0 -0.35356,0 -0.11785,0 -0.24814,-0.053 -0.35355,0 -0.14907,0.074 -0.20448,0.279 -0.35355,0.3535 -0.10541,0.053 -0.23571,0 -0.35356,0 -0.11785,0 -0.2357,0 -0.35355,0 -0.58926,0 -1.17851,0 -1.76777,0 -0.11785,0 -0.2357,0 -0.35355,0 -0.11785,0 -0.35356,0.1179 -0.35356,0 0,-0.1178 0.23571,0 0.35356,0 0.4714,0 0.94281,0 1.41421,0 1.06066,0 2.12132,0 3.18198,0 1.64992,0 3.29983,0 4.94975,0 0.70711,0 1.41421,0 2.12132,0 0.32527,0 0.74246,0.064 1.06066,0 0.47648,-0.095 0.94281,-0.2357 1.41421,-0.3535 z"
       id="path4224"
       inkscape:connector-curvature="0" />
    <path
       style="fill:none;fill-rule:evenodd;stroke:#000000;stroke-width:1px;stroke-linecap:butt;stroke-linejoin:miter;stroke-opacity:1"
       d="m 189.55809,1044.2445 c 0.43246,1.0628 0.35356,2.0815 0.35356,3.1819 0,0.2353 0,0.4718 0,0.7071 0,0.1179 0.11785,0.3536 0,0.3536 -0.11785,0 0,-0.4714 0,-0.3536 0,0.2357 -0.10541,0.4963 0,0.7071 0.0527,0.1055 0.2357,0 0.35355,0 0.11785,0 0.2357,0 0.35355,0 0.11786,0 0.23571,0 0.35356,0 0.11785,0 0.27022,0.083 0.35355,0 0.0833,-0.083 -0.0833,-0.2702 0,-0.3535 0.0833,-0.083 0.24815,0.053 0.35355,0 0.14908,-0.074 0.20449,-0.279 0.35356,-0.3536 0.10541,-0.053 0.27022,0.083 0.35355,0 0.0833,-0.083 -0.0833,-0.2702 0,-0.3535 0.0967,-0.097 1.22242,0.096 1.41422,0 0.14907,-0.074 0.19543,-0.3009 0.35355,-0.3536 0.22361,-0.075 0.4835,0.074 0.70711,0 0.15811,-0.053 0.19543,-0.3008 0.35355,-0.3535 0.33541,-0.1118 0.70711,0 1.06066,0 0.11785,0 0.2357,0 0.35355,0 0.11785,0 0.35356,-0.1179 0.35356,0 0,0.1178 -0.23571,0 -0.35356,0 -0.35355,0 -0.7071,0 -1.06066,0 -0.82496,0 -1.64991,0 -2.47487,0 -0.11785,0 -0.27022,0.083 -0.35356,0 -0.4714,-0.4714 0.58926,-0.3536 -0.35355,-0.3536 -0.11785,0 -0.2357,0 -0.35355,0 -0.11785,0 -0.27022,0.083 -0.35356,0 -0.0833,-0.083 0.0833,-0.2702 0,-0.3535 -0.0833,-0.083 -0.4714,0 -0.35355,0 0.70711,0 1.41421,0 2.12132,0 0.11785,0 0.2357,0 0.35356,0 0.11785,0 0.24814,-0.053 0.35355,0 0.14907,0.074 0.20448,0.279 0.35355,0.3535 0.28284,0.1414 0.77782,-0.1414 1.06066,0 0.14907,0.074 0.20448,0.279 0.35356,0.3536 0.18869,0.094 0.5184,-0.094 0.7071,0 0.14907,0.075 0.20448,0.279 0.35356,0.3535 0.22221,0.1111 1.19199,-0.1111 1.41421,0 0.14907,0.074 0.20448,0.279 0.35355,0.3536 0.10541,0.053 0.2357,0 0.35356,0 0.11785,0 0.2357,0 0.35355,0 0.11785,0 0.35355,-0.1179 0.35355,0 0,0.1178 -0.2357,0 -0.35355,0 -0.35355,0 -0.70711,0 -1.06066,0 -2.00395,0 -1.95271,0 -3.88909,0 -0.58925,0 -1.17851,0 -1.76777,0 -0.2357,0 -0.4714,0 -0.7071,0 -0.11785,0 -0.35356,0.1178 -0.35356,0 0,-0.1179 0.35356,0.1178 0.35356,0 0,-0.1667 -0.27902,-0.2045 -0.35356,-0.3536 -0.0701,-0.1402 0.0723,-0.9884 0,-1.0606 -0.0833,-0.083 -0.27022,-0.083 -0.35355,0 -0.0833,0.083 0.0527,0.2481 0,0.3535 -0.046,0.092 -0.62993,0.4307 -0.35355,0.7071 0.0142,0.014 1.28437,0 1.41421,0 0.82496,0 1.64992,0 2.47488,0 0.11785,0 0.27022,-0.083 0.35355,0 0.0833,0.083 -0.0833,0.2702 0,0.3536 0.0967,0.097 1.22241,-0.096 1.41421,0 0.14907,0.074 0.20448,0.279 0.35356,0.3535 0.1054,0.053 0.2357,0 0.35355,0 0.11785,0.1179 0.20448,0.2791 0.35355,0.3536 0.12786,0.064 1.52186,0 1.76777,0 0.11785,0 0.27022,-0.083 0.35355,0 0.0833,0.083 -0.0833,0.2702 0,0.3535 0.0967,0.097 1.22242,-0.096 1.41422,0 0.14907,0.074 0.20448,0.2791 0.35355,0.3536 0.22305,0.1115 1.54472,-0.1115 1.76777,0 0.14907,0.075 0.20448,0.279 0.35355,0.3536 0.18805,0.094 0.51906,-0.094 0.70711,0 0.87377,0.4368 -0.12204,0.3535 0.7071,0.3535 0.1667,0 1.75175,0.016 1.76777,0 0.0833,-0.083 0,-0.2357 0,-0.3535 0,-0.825 0,-1.65 0,-2.4749 0,-0.1179 0,-0.2357 0,-0.3536 0,-0.1178 -0.11785,-0.3535 0,-0.3535 0.11785,0 0,0.2357 0,0.3535 0,0.1179 0,0.2357 0,0.3536 0,0.1667 0.016,1.7517 0,1.7678 -0.0114,0.011 -0.97491,0 -1.06066,0 -0.11785,0 -0.2357,0 -0.35355,0 -0.11785,0 -0.35356,0.1178 -0.35356,0 0,-0.1179 0.23571,0 0.35356,0 0.12983,0 1.39998,0.014 1.41421,0 0.17678,-0.1768 -0.17678,-0.8839 0,-1.0607 0.0833,-0.083 0.27022,0.083 0.35355,0 0.0142,-0.014 0,-1.2844 0,-1.4142 0,-0.1179 0,-0.2357 0,-0.3536 0,-0.1178 -0.0833,-0.2702 0,-0.3535 0.0833,-0.083 0.27022,-0.083 0.35356,0 0.0114,0.011 0,0.9749 0,1.0606 0,0.1179 0.11785,0.3536 0,0.3536 -0.11785,0 0,-0.2357 0,-0.3536"
       id="path4226"
       inkscape:connector-curvature="0" />
    <path
       style="fill:none;fill-rule:evenodd;stroke:#000000;stroke-width:1px;stroke-linecap:butt;stroke-linejoin:miter;stroke-opacity:1"
       d="m 192.74007,1048.8407 c 3.09426,0 2.84408,0 5.30331,0 0.11785,0 0.2357,0 0.35355,0 0.11785,0 0.24814,-0.053 0.35355,0 0.14907,0.074 0.20448,0.279 0.35356,0.3535 0.10541,0.053 0.27022,-0.083 0.35355,0 0.0833,0.083 -0.0833,0.2702 0,0.3536 0.0833,0.083 0.2357,0 0.35355,0 0.58926,0 1.17851,0 1.76777,0 0.58926,0 1.17851,0 1.76777,0 0.11785,0 0.2357,0 0.35355,0 0.11785,0 0.24814,0.053 0.35355,0 0.14907,-0.074 0.19544,-0.3009 0.35356,-0.3536 0.2236,-0.074 0.49629,0.1054 0.7071,0 0.10541,-0.053 -0.0833,-0.2702 0,-0.3535 0.17678,-0.1768 0.88389,0.1767 1.06066,0 0.16667,-0.1667 -0.16666,-0.5405 0,-0.7072 0.0847,-0.085 1.41422,0.08 1.41422,0 0,-0.1666 -0.27902,-0.2044 -0.35356,-0.3535 -0.0527,-0.1054 0.0833,-0.2702 0,-0.3536 -0.0833,-0.083 -0.27022,0.083 -0.35355,0 -0.0833,-0.083 -0.11785,-0.3535 0,-0.3535 0.11785,0 0,0.4714 0,0.3535 0,-0.2357 0.10541,-0.4963 0,-0.7071 -0.0241,-0.048 -1.41421,0.045 -1.41421,0 0,-0.1178 0.35355,0.1179 0.35355,0 0,-0.7357 -0.49581,-0.1422 -0.70711,-0.3535 -0.0833,-0.083 0.0833,-0.2702 0,-0.3536 -0.052,-0.052 -1.06066,0.042 -1.06066,0 0,-0.1178 0.47141,0 0.35356,0 -0.58926,0 -1.17851,0 -1.76777,0 -0.11785,0 -0.2357,0 -0.35355,0 -0.11785,0 -0.24815,-0.053 -0.35356,0 -0.14907,0.075 -0.20448,0.279 -0.35355,0.3536 -0.1887,0.094 -0.51841,-0.094 -0.70711,0 -0.14907,0.074 -0.19544,0.3008 -0.35355,0.3535 -0.12965,0.043 -2.06066,0 -2.12132,0 -1.82964,0 -3.33604,0 -4.24264,0 -0.15923,0 -0.95306,0.054 -1.06066,0 -0.14907,-0.074 -0.20448,-0.279 -0.35356,-0.3535 -0.14018,-0.07 -0.98838,0.072 -1.06066,0 -0.0833,-0.083 0.0833,-0.2702 0,-0.3536 -0.0833,-0.083 -0.27022,0.083 -0.35355,0 -0.0833,-0.083 0.0833,-0.2702 0,-0.3535 -0.16667,-0.1667 -0.54044,0.1666 -0.70711,0 -0.0833,-0.083 0.0833,-0.2703 0,-0.3536 -0.0833,-0.083 -0.27022,0.083 -0.35355,0 -0.0833,-0.083 0.0833,-0.2702 0,-0.3535 -0.0833,-0.083 -0.27022,-0.083 -0.35355,0 -0.0833,0.083 0,0.2357 0,0.3535 0,0.1179 0,0.2357 0,0.3536 0,0.1298 -0.0142,1.4 0,1.4142 0.0833,0.083 0.27022,-0.083 0.35355,0 0.0833,0.083 -0.0833,0.2702 0,0.3535 0.0833,0.083 0.27022,-0.083 0.35355,0 0.0833,0.083 -0.0833,0.2702 0,0.3536 0.47141,0.4714 0.35356,-0.5893 0.35356,0.3535"
       id="path4228"
       inkscape:connector-curvature="0" />
    <ellipse
       style="fill:#ff0000;fill-opacity:1;stroke:none;stroke-opacity:1"
       id="path4230"
       cx="209.53387"
       cy="1049.1942"
       rx="0.88388348"
       ry="2.4748738" />
    <path
       style="fill:#ffff00;fill-opacity:1;stroke:none;stroke-opacity:1"
       d=""
       id="path4234"
       inkscape:connector-curvature="0"
       transform="translate(0,802.36216)" />
    <path
       style="fill:#ffff00;fill-opacity:1;stroke:none;stroke-opacity:1"
       d="m 20.969578,1027.4216 c 0,-0.07 1.262888,-1.8451 2.806416,-3.9446 l 2.806416,-3.8172 3.469157,-1.0275 c 1.908036,-0.5651 3.707805,-1.1032 3.999487,-1.1958 0.827024,-0.2624 -2.11465,2.7037 -3.889087,3.9215 -0.875045,0.6005 -2.333803,1.752 -3.241684,2.5588 -1.381538,1.2278 -5.950705,3.9189 -5.950705,3.5048 z"
       id="path4246"
       inkscape:connector-curvature="0" />
    <path
       style="fill:none;fill-rule:evenodd;stroke:#000000;stroke-width:1px;stroke-linecap:butt;stroke-linejoin:miter;stroke-opacity:1"
       d="m 35.548686,1009.3159 c 1.131371,1.5085 1.06066,0.8249 1.06066,1.7677 0,0.9428 -0.117851,-0.1178 0.353554,0.3536 0.08333,0.083 -0.0527,0.2481 0,0.3535 0.07453,0.1491 0.279017,0.2045 0.353553,0.3536 0.05271,0.1054 -0.08333,0.2702 0,0.3536 0.08333,0.083 0.27022,-0.083 0.353553,0 0.08333,0.083 0.117851,0.3535 0,0.3535 -0.117851,0 0,-0.2357 0,-0.3535 0,-0.2353 0,-0.4719 0,-0.7072 0,-0.1178 0,-0.2357 0,-0.3535 0,-0.1179 0.08333,-0.2702 0,-0.3536 -0.08333,-0.083 -0.27022,0.083 -0.353553,0 -0.08333,-0.083 0.08333,-0.2702 0,-0.3535 -0.08333,-0.083 -0.27022,0.083 -0.353553,0 -0.207418,-0.2074 1.13137,-3.9598 -1.414214,-1.4142 -0.416667,0.4166 0.7338,0.9239 1.06066,1.4142 0.146176,0.2192 0.27022,0.4571 0.353554,0.7071 0.07453,0.2236 -0.166667,0.5404 0,0.7071 0.08333,0.083 0.27022,-0.083 0.353553,0 0.176777,0.1768 -0.176777,0.8839 0,1.0606 0.166667,0.1667 0.54044,-0.1666 0.707107,0 0.08333,0.083 0.117851,0.3536 0,0.3536 -0.0416,0 0.05199,-1.0087 0,-1.0607 -0.08333,-0.083 -0.27022,0.083 -0.353554,0 -0.08333,-0.083 0.08333,-0.2702 0,-0.3535 -0.08333,-0.083 -0.27022,0.083 -0.353553,0 -0.08333,-0.083 0.05271,-0.2482 0,-0.3536 -0.436887,-0.8737 -0.353553,0.1221 -0.353553,-0.7071"
       id="path4254"
       inkscape:connector-curvature="0" />
    <path
       style="fill:#ff0000;fill-rule:evenodd;stroke:#000000;stroke-width:1px;stroke-linecap:butt;stroke-linejoin:miter;stroke-opacity:1"
       d="m 22.750831,1025.2983 c 0.840349,0.3586 1.336216,0.3535 2.12132,0.3535 0.117851,0 0.27022,-0.083 0.353554,0 0.08333,0.083 -0.08333,0.2703 0,0.3536 0.08333,0.083 0.235702,0 0.353553,0 0.707107,0 1.414214,0 2.12132,0 0.117852,0 0.235703,0 0.353554,0 0.117851,0 0.353553,-0.1179 0.353553,0 0,0.1178 -0.471404,0 -0.353553,0 0.471404,0 0.942809,0 1.414213,0 0.471405,0 0.942809,0 1.414214,0 0.235702,0 0.942809,0 0.707107,0 -0.235703,0 -0.942809,0 -0.707107,0 0.471404,0 0.942809,0 1.414213,0 0.117852,0 0.235703,0 0.353554,0 0.117851,0 0.27022,0.083 0.353553,0 0.471405,-0.4714 -0.589255,-0.3536 0.353554,-0.3536 0.79876,0 -0.158114,0.053 1.06066,-0.3535 0.111803,-0.037 0.24175,0.037 0.353553,0 0.25,-0.083 0.457107,-0.2702 0.707107,-0.3536 0.210814,-0.07 1.778774,0 2.12132,0 0.117851,0 0.235703,0 0.353554,0 0.117851,0 0.353553,-0.1178 0.353553,0 0,0.1179 -0.353553,0.1179 -0.353553,0 0,-0.1666 0.279018,-0.2045 0.353553,-0.3535 0.05271,-0.1054 0,-0.2357 0,-0.3536 0,-0.1178 0,-0.2357 0,-0.3535 0,-0.5798 0,-1.7565 0,-3.182 0,-2.0035 0,2.357 0,0.3535 0,-0.8249 0,-1.6499 0,-2.4748 0,-0.1179 0,-0.2357 0,-0.3536 0,-0.1178 -0.117851,-0.3535 0,-0.3535 0.117851,0 -0.08333,0.4368 0,0.3535 0.484674,-0.4847 0.353554,-1.1662 0.353554,-1.7678"
       id="path4256"
       inkscape:connector-curvature="0" />
    <path
       style="fill:#ff0000;fill-opacity:1;stroke:none;stroke-opacity:1"
       d="m 25.296679,1044.2425 c -2.3672,-2.3893 -3.353533,-2.6501 -4.680654,-1.2374 -0.456701,0.4861 -0.961731,0.8839 -1.12229,0.8839 -0.948018,0 0.326718,-7.2662 1.530812,-8.7258 0.189316,-0.2295 0.294171,-1.025 0.23301,-1.7678 -0.105631,-1.2828 -0.181115,-1.3593 -1.506835,-1.5273 l -1.395632,-0.1767 1.742971,-1.5312 c 0.958634,-0.8421 2.541263,-1.9117 3.516953,-2.3768 1.856468,-0.885 6.003,-4.0248 9.351519,-7.081 3.145043,-2.8705 5.350333,-4.3915 6.350275,-4.3799 0.790692,0.01 0.834499,0.061 0.308748,0.3678 -0.557757,0.325 -0.592351,0.8954 -0.385894,6.3637 l 0.226787,6.0068 -0.87161,0.9617 c -2.60832,2.878 -3.836678,5.8132 -3.836678,9.1678 0,0.8341 -0.135503,1.5167 -0.301117,1.5167 -0.68618,0 -2.527311,-2.1764 -2.527311,-2.9875 0,-0.942 -0.592981,-1.5118 -1.071922,-1.0299 -0.166763,0.1678 -0.632229,1.8165 -1.034369,3.6638 -0.744045,3.4179 -1.674703,6.0104 -2.15764,6.0104 -0.147099,0 -1.213205,-0.9546 -2.369123,-2.1213 z"
       id="path4266"
       inkscape:connector-curvature="0" />
    <path
       style="fill:#ffff00;fill-opacity:1;stroke:none;stroke-opacity:1"
       d="m 21.180275,1013.9798 c -2.775485,-0.2335 -4.760156,-0.6951 -7.424621,-1.7266 -0.875045,-0.3388 -2.216021,-0.7274 -2.979947,-0.8637 -0.763927,-0.1362 -2.1162691,-0.593 -3.0052041,-1.0152 l -1.616247,-0.7677 4.7689071,-0.1767 c 4.198452,-0.1557 4.783221,-0.2516 4.888568,-0.8022 0.08364,-0.4371 -0.261037,-0.7845 -1.144985,-1.1538 -0.695555,-0.2906 -1.264646,-0.6904 -1.264646,-0.8883 0,-0.198 -0.278423,-0.4607 -0.618718,-0.5838 -0.619282,-0.2241 -1.726374,-1.1546 -6.1818961,-5.1956 -3.1577694,-2.86404 -3.2682011,-3.20401 -0.95161,-2.92965 1.842193,0.21818 2.284042,0.43533 5.7812151,2.84125 1.626306,1.1188 2.07725,1.2859 2.507306,0.9289 0.907849,-0.7534 0.608275,-2.42459 -0.759643,-4.23765 -0.220068,-0.29168 -0.518352,-0.91709 -0.662852,-1.38981 -0.144501,-0.47271 -0.721277,-1.49249 -1.281725,-2.26616 -1.084364,-1.49692 -1.093311,-2.14861 -0.01611,-1.17376 0.356799,0.3229 0.757321,0.58709 0.890049,0.58709 0.132729,0 1.154345,0.62013 2.270258,1.37806 1.115914,0.75793 2.627126,1.62551 3.358249,1.92796 0.731124,0.30245 2.179482,1.11421 3.218576,1.80392 1.039092,0.68971 2.054644,1.25402 2.25678,1.25402 0.202137,0 0.463188,0.24931 0.580114,0.55403 0.138638,0.3613 0.551516,0.515 1.186874,0.4419 0.818861,-0.094 0.992349,-0.3006 1.087538,-1.29416 0.07112,-0.74235 -0.106789,-1.42527 -0.478224,-1.8357 -1.069456,-1.18174 -0.410008,-1.44073 1.321469,-0.51899 0.914518,0.48684 1.988246,0.88516 2.386062,0.88516 0.397816,0 1.0415,0.31819 1.430408,0.7071 0.388909,0.38891 0.963352,0.70711 1.276541,0.70711 0.313188,0 1.593603,0.71595 2.845366,1.59098 1.251763,0.875 2.397643,1.591 2.5464,1.591 0.382278,0 2.170528,1.9135 2.170528,2.3226 0,0.3304 -14.492489,8.5253 -14.847606,8.3956 -0.09813,-0.036 -0.337512,0.2028 -0.531966,0.5304 -0.301627,0.508 -0.743002,0.5627 -3.005204,0.3724 z"
       id="path4268"
       inkscape:connector-curvature="0" />
    <path
       style="fill:#00ffff;fill-opacity:1;stroke:none;stroke-opacity:1"
       d="m 41.43654,1030.1631 c -0.02152,-0.1317 -0.01014,-0.5975 0.0253,-1.035 0.03544,-0.4375 -0.106048,-0.7955 -0.314418,-0.7955 -0.250493,0 -0.378856,-1.5969 -0.378856,-4.7132 0,-4.5337 0.0303,-4.7285 0.795495,-5.1129 1.165103,-0.5852 15.821515,-0.9049 15.821515,-0.3451 0,0.9928 -6.434577,6.1519 -9.735221,7.8055 -0.590239,0.2957 -1.283917,0.9314 -1.541506,1.4127 -0.442025,0.8259 -4.588553,3.2962 -4.672311,2.7835 z"
       id="path4270"
       inkscape:connector-curvature="0" />
    <path
       style="fill:#00ffff;fill-opacity:1;stroke:none;stroke-opacity:1"
       d="m 40.343786,1016.4646 c 0,-0.3257 0.437522,-0.7648 0.972272,-0.9758 1.595618,-0.6298 1.983733,-0.8677 2.12974,-1.3058 0.177993,-0.5339 -1.484664,-0.5502 -2.467668,-0.024 -0.720659,0.3857 -0.729059,0.3474 -0.484116,-2.2097 0.372717,-3.8909 0.511992,-4.2922 1.398053,-4.0288 0.412399,0.1226 1.545311,0.3589 2.517583,0.525 5.298832,0.9053 8.170666,1.5244 8.556607,1.8447 0.238209,0.1977 1.698362,0.4462 3.244782,0.5522 2.391721,0.1639 2.780487,0.2779 2.602872,0.7629 -0.114841,0.3137 -0.419673,0.6975 -0.677405,0.853 -0.257732,0.1555 -0.468604,0.5079 -0.468604,0.783 0,0.2752 -0.318198,0.6707 -0.707107,0.8788 -0.388908,0.2081 -0.707106,0.5868 -0.707106,0.8415 0,0.2547 -0.281668,0.718 -0.625929,1.0296 -0.510691,0.4622 -1.975248,0.6124 -7.954951,0.816 -6.718042,0.2288 -7.329023,0.2003 -7.329023,-0.3424 z"
       id="path4272"
       inkscape:connector-curvature="0" />
    <path
       style="fill:#999999;fill-opacity:1;stroke:none;stroke-opacity:1"
       id="path5717"
       d="m 102.10566,1003.3714 c -0.0727,0.3113 -0.0938,0.6319 -0.11099,0.9503 -0.005,0.2876 0.0847,0.4054 0.34401,0.5083 0.2476,0.1053 0.50724,0.1678 0.74873,0.2887 0.0368,0.016 0.0736,0.032 0.11036,0.048 0,0 -1.5362,1.0205 -1.5362,1.0205 l 0,0 c -0.0373,-0.017 -0.0747,-0.034 -0.11202,-0.051 -0.24594,-0.1059 -0.50341,-0.1792 -0.74653,-0.2917 -0.28269,-0.153 -0.44882,-0.3647 -0.44814,-0.6989 0.0178,-0.3224 0.0474,-0.6437 0.081,-0.9649 0,0 1.6698,-0.8097 1.6698,-0.8097 z"
       inkscape:connector-curvature="0" />
    <path
       style="fill:#999999;fill-opacity:1;stroke:none;stroke-opacity:1"
       id="path5719"
       d="m 100.23629,1002.5309 c 0.28127,-0.01 0.561,-0.066 0.84231,-0.093 0.21447,-0.095 0.46027,-0.082 0.67438,-0.167 0.25736,-0.094 0.3388,-0.1045 0.57943,0.022 0.1604,0.1196 0.20799,0.3208 0.31306,0.4821 0.11588,0.1574 0.21799,0.3199 0.30404,0.4964 0.0594,0.1515 0.0327,0.074 0.08,0.2319 0,0 -1.62038,0.8837 -1.62038,0.8837 l 0,0 c -0.0378,-0.1381 -0.0158,-0.071 -0.0657,-0.2025 -0.0842,-0.1696 -0.18966,-0.3222 -0.29801,-0.4765 -0.0811,-0.1298 -0.1235,-0.306 -0.25732,-0.3881 -0.16947,-0.057 -0.33506,0.038 -0.50048,0.078 -0.22953,0.04 -0.454016,0.1033 -0.684676,0.1359 -0.28906,0.033 -0.57654,0.088 -0.86829,0.088 0,0 1.501636,-1.091 1.501636,-1.091 z"
       inkscape:connector-curvature="0" />
    <path
       style="fill:#999999;fill-opacity:1;stroke:none;stroke-opacity:1"
       id="path5721"
       d="m 100.36129,1002.0309 c 0.2826,0.01 0.56541,0.01 0.8481,0 0.26368,0.012 0.53236,-0.029 0.79229,0.023 0.24598,0.1 0.30893,0.3349 0.34339,0.5747 0.0479,0.2381 0.12817,0.4674 0.18294,0.7039 0.0491,0.2214 0.0998,0.4466 0.17198,0.6619 0.0467,0.1805 0.13284,0.3367 0.23297,0.4913 0.101,0.1833 0.2104,0.3611 0.32362,0.5373 0.1325,0.2301 0.28401,0.4407 0.45326,0.6443 0.14521,0.1777 0.33621,0.3023 0.5057,0.4524 0.18917,0.1687 0.39899,0.3112 0.59642,0.4691 0.1901,0.136 0.35521,0.3077 0.52038,0.473 0.16163,0.1583 0.32079,0.3218 0.49356,0.4682 0.21771,0.096 0.44494,0.1674 0.67911,0.2106 0.24176,0.076 0.47279,0.2024 0.67897,0.3494 0.1059,0.052 0.18011,0.1333 0.25374,0.2223 0,0 -1.58462,0.9544 -1.58462,0.9544 l 0,0 c -0.0658,-0.073 -0.13774,-0.134 -0.22442,-0.1827 -0.19678,-0.1262 -0.40535,-0.2448 -0.63639,-0.2926 -0.25549,-0.062 -0.51787,-0.1379 -0.73773,-0.286 -0.16789,-0.1563 -0.33173,-0.3173 -0.49462,-0.4788 -0.1629,-0.1588 -0.32468,-0.3216 -0.50949,-0.455 -0.20165,-0.1553 -0.40224,-0.3108 -0.59676,-0.475 -0.18884,-0.1463 -0.37283,-0.2944 -0.5236,-0.4821 -0.17148,-0.2103 -0.32593,-0.4289 -0.46631,-0.6613 -0.11372,-0.1753 -0.231,-0.3489 -0.33008,-0.533 -0.10858,-0.1671 -0.20101,-0.3382 -0.25271,-0.5323 -0.0772,-0.221 -0.1244,-0.4559 -0.17432,-0.684 -0.052,-0.2434 -0.14146,-0.474 -0.19654,-0.7165 -0.0167,-0.161 -0.0237,-0.3404 -0.21652,-0.368 -0.25672,-0.015 -0.514416,0 -0.771456,-0.01 -0.28749,-6e-4 -0.57509,0 -0.8625,0 0,0 1.501636,-1.091 1.501636,-1.091 z"
       inkscape:connector-curvature="0" />
    <path
       style="fill:#999999;fill-opacity:1;stroke:none;stroke-opacity:1"
       id="path5723"
       d="m 107.74676,1008.5609 c 0.26865,0.058 0.53272,0.1706 0.77431,0.3016 0.18233,0.1096 0.34266,0.222 0.55394,0.2667 0.18713,0.061 0.36039,0.1539 0.54639,0.2167 0.16428,0.1016 0.34897,0.1536 0.52627,0.2268 0.20203,0.1164 0.37818,0.2655 0.55041,0.4215 0.18761,0.1993 0.43662,0.319 0.64803,0.4882 0.14898,0.1188 0.29898,0.2319 0.46244,0.3305 0.19827,0.061 0.38482,0.1453 0.5718,0.2347 0.2021,0.087 0.42246,0.099 0.63908,0.1088 0.20698,0.072 0.43138,0.072 0.63748,0.1405 0.22064,0.071 0.4173,0.196 0.63519,0.2749 0.21191,0.073 0.41304,0.155 0.63646,0.1885 0.22617,0.092 0.47458,0.091 0.70497,0.161 0.20766,0.073 0.42592,0.093 0.64393,0.1057 0.24697,0.028 0.5029,0.064 0.74296,0.1327 0.23472,0.043 0.4467,0.1514 0.67842,0.2049 0.24582,0.031 0.48215,0.099 0.72819,0.1326 0.27326,0.032 0.54862,0.036 0.8234,0.038 0.26035,-0.011 0.5123,-2e-4 0.76779,0.048 0.24385,0.051 0.49486,0.025 0.71598,0.15 0.16432,0.097 0.30638,0.2353 0.43142,0.3792 0.12427,0.1441 0.27133,0.2548 0.42663,0.363 0.17882,0.1671 0.39975,0.2695 0.58296,0.4317 0.20144,0.1391 0.39314,0.2906 0.58635,0.4408 0.18696,0.1625 0.41211,0.2778 0.64511,0.3588 0.23639,0.069 0.48364,0.075 0.72792,0.08 0.24965,0 0.49932,4e-4 0.74898,-5e-4 0.2501,-9e-4 0.5002,-10e-4 0.7503,-10e-4 0.25001,-10e-5 0.50002,-10e-5 0.75004,-10e-5 0.20997,-0.063 0.42523,-0.094 0.64313,-0.1108 0.24078,-0.023 0.47273,-0.02 0.70791,0.034 0.21637,0.051 0.43865,0.063 0.66,0.072 0.24596,0.01 0.49205,0.01 0.73809,0.01 0.25021,-3e-4 0.50042,-6e-4 0.75064,-8e-4 0.25007,-10e-5 0.50015,-10e-5 0.75022,-10e-5 0.25,0 0.50001,0 0.75001,0 0.2612,-0.019 0.51309,0.054 0.7704,0.086 0.27913,0.031 0.56012,0.036 0.84065,0.039 0.26348,-0.023 0.51561,0.026 0.77341,0.069 0.25153,0.043 0.4499,0.059 0.69846,0 0.221,-0.049 0.44756,-0.06 0.67299,-0.067 0.28916,0 0.57452,0.068 0.86304,0.095 0.2884,0.023 0.57783,0.025 0.86697,0.027 0.21779,0.061 0.45072,0.063 0.66441,0.1349 0.19843,0.075 0.40905,0.093 0.61876,0.1058 0.25426,0.01 0.50883,0.01 0.76325,0.011 0.27787,-2e-4 0.55573,0 0.83359,0 0.25332,-6e-4 0.50663,-6e-4 0.75994,-7e-4 0.24977,0 0.49955,0 0.74932,0 0.24993,0 0.49987,0 0.7498,0 0.25,0 0.5,0 0.75,0 0.25735,-0.012 0.5062,3e-4 0.75859,0.048 0.26151,0.027 0.5096,0.1124 0.76749,0.1592 0.2403,0.037 0.48395,0.041 0.72656,0.043 0.24904,0 0.49808,5e-4 0.74712,0 0.24194,-0.016 0.49275,0.033 0.72926,-0.027 0.0338,-0.01 0.0693,-0.012 0.10151,-0.025 0.0576,-0.024 0.10531,-0.068 0.16261,-0.093 0.0936,-0.041 0.18103,-0.053 0.2698,-0.105 0.24934,-0.057 0.47695,-0.1684 0.69962,-0.2919 0.0428,-0.02 0.0855,-0.04 0.12832,-0.06 0.0435,-0.016 0.0885,-0.029 0.13058,-0.048 0.0379,-0.018 0.14467,-0.084 0.10841,-0.063 -0.49117,0.2808 -1.96094,1.1297 -1.47313,0.8431 1.66047,-0.9756 1.07844,-0.7879 1.84429,-1.0189 0.29908,-0.06 0.59081,-0.147 0.89219,-0.1959 0.17912,-0.04 0.33282,-0.1477 0.51111,-0.1917 0.0683,-0.017 0.26191,-0.042 0.329,-0.052 0.43971,-0.1038 0.89172,-0.1247 1.34123,-0.1447 0.39959,0 0.79103,-0.034 1.1849,-0.094 0.26287,-0.041 0.5287,-0.052 0.79421,-0.057 0.24906,0 0.49815,0 0.74722,0 0.29153,-0.021 0.28428,0.2363 0.18559,0.4349 -0.0815,0.1624 -0.21403,0.2937 -0.37044,0.3857 -1.66713,0.9812 -1.09306,0.7512 -1.83383,1.0375 -0.23223,0.086 -0.45361,0.1722 -0.70107,0.2056 -0.24354,0.011 -0.47955,0.024 -0.71851,0.071 -0.27636,0.095 -0.56297,0.1473 -0.85265,0.1783 -0.29829,0.019 -0.59727,0.022 -0.89607,0.021 -0.34154,0.044 -0.67751,0.1173 -1.01854,0.1643 -0.49365,0.025 -0.9609,0.1857 -1.4283,0.3321 -0.43085,0.1822 -0.86952,0.3265 -1.32729,0.4218 -0.32551,0.074 -0.64173,0.1798 -0.96505,0.2608 -0.32208,0.022 -0.61846,0.095 -0.92838,0.1765 -0.47739,0.1035 -0.96916,0.1107 -1.45554,0.125 -0.32792,-0.034 -0.74789,0.1217 -1.04536,-0.072 -0.0357,-0.023 -0.0612,-0.059 -0.0918,-0.089 -0.15653,-0.294 0.0973,-0.5026 0.31313,-0.668 0.84352,-0.5729 1.51101,-1.1203 2.47492,-1.2075 0.35886,-0.028 0.71911,-0.027 1.07882,-0.028 0.33086,-0.064 0.66583,-0.086 1.00184,-0.1005 0.42398,-0.013 0.84816,-0.017 1.2723,-0.019 0.30834,0 0.61668,0 0.92503,0 0.15516,9e-4 0.31732,0.01 0.46425,-0.052 0.0288,-0.012 0.10621,-0.066 0.079,-0.051 -0.50664,0.2857 -1.0115,0.5745 -1.51725,0.8617 0.10546,-0.071 0.21685,-0.2532 0.10463,-0.3607 -0.23411,-0.059 -0.47793,-0.1005 -0.7182,-0.1376 -0.40637,-0.065 -0.81185,-0.053 -1.21865,0 -0.74873,0.1277 -1.49431,0.2679 -2.24796,0.3655 -0.45869,0.038 -0.91598,0.07 -1.34924,0.2334 -0.29291,0.1118 -0.59475,0.2019 -0.88446,0.3214 -0.28963,0.1543 -0.6056,0.2147 -0.92751,0.254 -0.37669,0.096 -0.76161,0.1149 -1.14804,0.1266 -0.6378,0.014 -1.27578,0.012 -1.91369,0.011 -0.90988,-0.01 -1.81974,-0.012 -2.72967,-0.01 -0.64799,0 -1.29591,0.011 -1.94383,0.019 -0.28543,-0.012 -0.58804,0.062 -0.85093,-0.071 -0.21963,-0.1018 -0.40017,-0.2801 -0.57458,-0.4455 -0.15965,-0.1416 -0.36775,-0.1999 -0.54007,-0.3233 -0.1657,-0.1176 -0.36513,-0.1331 -0.5614,-0.1466 -0.3967,-0.019 -0.79404,-0.015 -1.19107,-0.019 -0.41263,0 -0.82521,0.01 -1.23784,0.01 -0.32958,-10e-5 -0.65916,8e-4 -0.98874,0 -0.33511,-6e-4 -0.67021,0 -1.00531,0 -0.40622,-10e-4 -0.81243,0 -1.21865,0 -0.42534,-0.044 -0.85072,-0.084 -1.27781,-0.1059 -0.34661,-0.01 -0.68876,0 -1.03111,-0.061 -0.32076,-0.025 -0.62298,-0.1068 -0.92831,-0.2041 -0.0835,-0.021 -0.16938,-0.035 -0.25058,-0.064 -0.45963,-0.1644 -0.89841,-0.4066 -1.33949,-0.6123 -0.42911,-0.2002 -0.83641,-0.3764 -1.27024,-0.5673 -1.15825,-0.4856 -2.30674,-0.9982 -3.48088,-1.4448 -0.2761,-0.1069 -0.56203,-0.1826 -0.84721,-0.26 -0.1379,-0.037 -0.21662,-0.057 -0.19024,-0.076 0.52791,-0.376 1.0809,-0.7155 1.62134,-1.0733 0.3483,0 0.69649,0.014 1.04477,0.019 0.58634,-0.018 1.1634,0.028 1.7426,0.1126 0.52513,0.098 1.03136,0.2705 1.5293,0.4601 0.49822,0.2232 0.99565,0.4449 1.51498,0.6146 0.37491,0.1481 0.77593,0.2202 1.14351,0.3862 0.21905,0.1055 0.43615,0.2127 0.654,0.3204 0.22556,0.1431 0.47123,0.2469 0.71136,0.3622 0.39078,0.211 0.82336,0.3228 1.2573,0.4035 0.65543,0.1268 1.30287,0.2844 1.96375,0.3819 0.53555,0.094 1.07253,0.1844 1.60437,0.2982 0.64345,0.1929 1.28959,0.3503 1.95509,0.4437 0.82841,0.096 1.66337,0.1067 2.4963,0.1122 0.61541,9e-4 1.23109,10e-4 1.84628,-0.017 0.7568,-0.033 0.7705,-0.2891 -1.42357,1.0804 -0.0238,0.015 -0.70043,-0.019 -0.71124,-0.019 -1.54183,-0.026 -3.08367,-0.048 -4.62571,-0.058 -2.40301,-0.01 -4.80596,-0.015 -7.20895,-9e-4 -1.66401,0 -3.33989,-0.2209 -4.90502,-0.8064 -0.27587,-0.1032 -0.54214,-0.2304 -0.81321,-0.3457 -1.36363,-0.6114 -2.66506,-1.3505 -3.94726,-2.1154 -0.63867,-0.385 -1.27442,-0.786 -1.85685,-1.2533 -0.39459,-0.2954 -0.70398,-0.6814 -1.02186,-1.0535 -0.21348,-0.3095 -0.43136,-0.621 -0.60396,-0.9557 -0.0904,-0.1901 -0.20232,-0.321 -0.38706,-0.4198 -0.19671,-0.07 -0.37372,-0.1829 -0.54419,-0.3018 -0.20182,-0.1043 -0.38278,-0.2445 -0.58964,-0.3384 -0.0884,-0.071 -0.25156,-0.018 -0.33759,-0.086 -0.0195,-0.015 -0.0641,-0.046 -0.0439,-0.06 0.51336,-0.3676 1.05484,-0.6941 1.58226,-1.0412 0.22571,0.024 0.45146,0.01 0.6764,0.042 0.51569,0.08 1.00426,0.288 1.48931,0.4746 0.84863,0.3135 1.65107,0.7346 2.4625,1.1315 0.60485,0.2748 1.19424,0.5849 1.80071,0.8557 0.26527,0.081 0.52068,0.1703 0.74665,0.3346 0.15358,0.1147 0.30358,0.2309 0.46742,0.3316 0.15464,0.1224 0.29654,0.2592 0.43245,0.4022 0.17535,0.187 0.37712,0.3484 0.56592,0.5223 0.32516,0.2955 0.6898,0.5399 1.04513,0.7965 0.33913,0.2403 0.71004,0.4237 1.07892,0.612 0.39539,0.1863 0.7928,0.3784 1.20958,0.5128 0.34322,0.1248 0.68871,0.2381 1.0376,0.3452 0.40428,0.1605 0.83345,0.2247 1.26385,0.2631 0.46016,0.031 0.92166,0.031 1.38262,0.029 0.34458,-4e-4 0.68914,0 1.03371,-0.01 0.34109,0 0.68217,0 1.02327,0 0.33818,0 0.67637,-4e-4 1.01456,9e-4 0.35158,0 0.70317,0 1.05475,-9e-4 0.34625,-10e-4 0.6925,-5e-4 1.03875,0 0.33486,0 0.66503,0.066 0.99829,0.096 0.33098,0.03 0.66419,0.01 0.99384,0.05 0.434,0.032 0.85505,0.1362 1.27034,0.2614 0.37467,0.1333 0.77245,0.152 1.15886,0.2258 0.43132,0.098 0.86529,0.1683 1.30604,0.2077 0.52945,0.037 1.06059,0.041 1.59111,0.044 0.51521,0.01 1.0277,0.01 1.54001,-0.048 0.32338,-0.01 0.63216,-0.1574 0.95647,-0.1561 0.0833,4e-4 0.16585,0.016 0.24878,0.024 0.71742,0.081 1.42334,0.2472 2.12592,0.4101 0.61319,0.1251 1.22704,0.2501 1.84778,0.3319 0.32695,0.042 0.65648,0.051 0.98569,0.053 0.2474,-0.011 0.49959,0.024 0.74304,-0.027 0.16061,-0.05 0.33418,-0.041 0.49683,-0.077 0.0711,-0.015 0.1378,-0.047 0.20722,-0.068 0.20121,-0.044 0.39996,-0.107 0.58725,-0.1941 0.25124,-0.081 0.4976,-0.1716 0.7476,-0.2569 0.30884,-0.1234 0.61339,-0.2622 0.90686,-0.4192 0.30611,-0.1462 0.61972,-0.2769 0.94922,-0.359 0.47937,-0.1412 0.96099,-0.27 1.45433,-0.351 0.55675,-0.095 1.1089,-0.2073 1.65601,-0.3471 0.35971,-0.087 0.7268,-0.1315 1.09586,-0.1502 0.26469,-0.01 0.52963,-0.01 0.79441,0 0.29666,10e-4 0.59332,10e-4 0.88997,0 0.36266,10e-4 0.72532,0 1.08798,7e-4 0.32585,9e-4 0.65171,-10e-4 0.97757,0 0.0533,0.039 0.12091,-0.026 0.17633,-0.01 0.0561,0.02 0.18202,0.2241 0.11188,0.2664 -0.54699,0.3302 -1.12152,0.6125 -1.68227,0.9187 -0.50487,0.1621 -1.00999,0.328 -1.51556,0.4909 -1.0623,0.395 -2.11384,0.8184 -3.19395,1.163 -0.69022,0.2069 -1.40145,0.3191 -2.11885,0.3678 -0.32643,0.016 -0.61466,0.075 -0.81651,-0.2301 -0.0788,-0.2414 0.0866,-0.3698 0.26513,-0.4947 0.67667,-0.6545 1.39291,-1.0346 2.2573,-1.0937 0.26262,-0.021 0.51967,-0.083 0.78283,-0.1101 0.26058,0 0.50861,-0.079 0.76639,-0.1082 0.30286,-0.086 0.61527,-0.098 0.90944,-0.2125 0.27371,-0.093 0.53599,-0.2115 0.81882,-0.2757 0.25226,-0.048 0.50975,-0.051 0.76563,-0.054 0.25015,-10e-4 0.50029,5e-4 0.75043,10e-4 0.24758,-0.01 0.49931,0.026 0.74319,-0.023 0.16172,-0.05 0.3362,-0.041 0.49983,-0.076 0.0713,-0.015 0.13816,-0.047 0.20774,-0.068 0.14082,-0.055 0.29676,-0.039 0.44143,-0.069 0.0662,-0.014 0.12798,-0.044 0.19263,-0.063 0.55515,-0.1475 1.85289,-0.9985 -1.33302,0.7905 -0.0199,0.011 0.0779,-0.055 0.14085,-0.1511 1.22962,-0.8877 1.18941,-0.9728 2.12065,-0.97 0.20135,0.033 0.45312,-0.061 0.63575,0.037 0.48841,0.7694 -1.12567,1.1405 -1.85096,1.1703 -0.0218,-0.1031 -0.0936,0.047 -0.12397,0.018 -0.46364,-0.4376 1.33423,-0.5576 1.51353,-1.1694 3.9e-4,0 -4.31594,2.4718 0.12741,-0.074 0.95976,-0.5269 -2.07467,1.1965 -1.1035,0.6315 0.55977,-0.3257 1.12037,-0.65 1.68055,-0.975 0.038,-0.015 0.0776,-0.026 0.114,-0.044 0.0336,-0.017 0.0613,-0.044 0.0949,-0.061 0.16372,-0.081 0.35324,-0.095 0.52696,-0.1437 0.2571,-0.051 0.5487,-0.1767 0.79749,-0.051 0.0553,0.077 0.0938,0.1065 0.0981,0.2068 0.004,0.1007 -0.066,0.2221 -0.15272,0.2728 -0.55745,0.3258 -1.12328,0.6372 -1.68492,0.9558 -0.15913,0.054 -0.33047,0.034 -0.493,0.06 -0.072,0.011 -0.14044,0.039 -0.21098,0.058 -0.0928,0.039 -0.20783,0.015 -0.29929,0.057 -0.0113,0 -0.0321,0.037 -0.0219,0.03 1.61683,-1.1204 0.92888,-1.1204 1.66708,-1.0993 0.35057,-0.036 0.66864,-0.2011 0.99378,-0.3246 0.0496,-0.026 0.0987,-0.053 0.14873,-0.078 0.0899,-0.045 0.35485,-0.1913 0.26733,-0.1413 -2.4224,1.3832 -1.79896,1.068 -1.26221,0.6947 0.59301,-0.3823 1.41596,-1.6925 2.01734,-1.0714 0.13863,0.2123 0.0509,0.3751 -0.12835,0.518 -1.29711,0.8149 -1.44176,0.9905 -2.58683,1.1579 -0.4412,0.1073 -0.89356,0.1509 -1.34579,0.1765 -0.34665,-0.014 -0.68131,0.066 -1.02134,0.1151 -0.21621,0.038 -0.4196,0.1128 -0.64017,0.14 -0.11476,0.015 -0.23171,5e-4 -0.34205,0.044 -0.0341,0.013 -0.12782,0.071 -0.096,0.053 1.53348,-0.8671 1.96595,-1.1846 1.42558,-0.7933 -0.0789,0.096 -0.20829,0.3183 -0.0918,0.4297 0.15642,-0.031 0.29854,-0.1088 0.44729,-0.1668 0.28748,-0.081 0.5749,-0.157 0.87099,-0.2019 0.28605,-0.084 0.5786,-0.1346 0.8751,-0.1606 0.24714,-0.012 0.50632,-0.032 0.73614,-0.13 0.21834,-0.058 0.4102,-0.1639 0.60748,-0.2677 -0.4992,0.2864 -0.99679,0.5756 -1.49759,0.8592 -0.0287,0.016 0.0524,-0.04 0.0808,-0.057 0.55437,-0.3245 1.11998,-0.6301 1.66729,-0.9664 0.49277,-0.3028 -1.00126,0.5792 -1.50364,0.8658 -0.11468,0.065 0.10067,-0.067 0.15288,-0.099 0.65431,-0.4912 1.33667,-1.0427 2.15072,-1.1896 0.24621,-0.034 0.49538,-0.033 0.74339,-0.034 0,0 -1.49018,1.0852 -1.49018,1.0852 l 0,0 c -0.2409,0 -0.48479,0.01 -0.71917,0.071 -0.0702,0.023 -0.27002,0.1193 -0.20631,0.082 2.61503,-1.5419 1.779,-1.0771 1.2407,-0.703 -0.0959,0.095 -0.0333,0.045 -0.14853,0.1122 -0.55358,0.3233 -1.11206,0.6385 -1.65991,0.9714 -0.49286,0.2996 0.99564,-0.5824 1.49492,-0.8711 0.0285,-0.016 -0.055,0.036 -0.0825,0.054 -0.5545,0.3254 -1.10901,0.6508 -1.66351,0.9762 -0.19897,0.1042 -0.413,0.1733 -0.62695,0.2401 -0.24933,0.052 -0.49949,0.087 -0.75411,0.099 -0.29097,0.037 -0.57515,0.1042 -0.8616,0.1658 -0.29091,0.058 -0.57927,0.1354 -0.8581,0.2365 -0.20301,0.076 -0.42265,0.1508 -0.59582,-0.025 -0.13165,-0.2111 -0.10629,-0.4323 -0.0117,-0.6563 0.44458,-0.7535 1.37707,-1.0438 2.19306,-1.1333 0.21305,-0.044 0.41891,-0.1192 0.63751,-0.1348 0.33488,-0.052 0.66963,-0.085 1.00905,-0.087 0.45084,-0.035 0.89765,-0.096 1.33949,-0.1943 0.24424,-0.046 0.49954,-0.09 0.73377,-0.1765 0.0482,-0.018 0.0938,-0.042 0.14068,-0.062 -0.48692,0.2855 -0.97385,0.571 -1.46077,0.8565 0.087,-0.058 0.22348,-0.1084 0.27897,-0.1884 0.0825,0.6278 -0.004,0.049 1.56228,-0.8586 0.0215,-0.012 -0.0478,0.016 -0.0682,0.03 -0.0897,0.062 -0.12361,0.1737 -0.22391,0.2241 -0.41307,0.2235 0.21917,-0.1243 -0.20768,0.1308 -0.68836,0.4114 -1.36094,0.8772 -2.10517,1.1896 -0.33841,0.1358 -0.68654,0.2784 -1.05743,0.2727 -0.70888,-0.064 -0.18118,0.01 1.30208,-1.1333 0.002,-10e-4 0.3037,-0.03 0.32381,-0.051 0.22797,-0.046 0.46889,-0.04 0.68149,-0.1462 -3.24756,1.8938 -1.71853,0.9368 -1.24326,0.7529 -0.24423,-0.015 -0.484,0.076 -0.71905,0.1283 -0.25234,0.064 -0.48911,0.1557 -0.7127,0.291 3.2187,-1.87 0.36779,-0.1905 -0.58886,0.3429 4.03785,-2.3349 -0.13185,0.078 -0.13956,0.075 -0.55429,-0.2439 1.02637,-0.6463 1.50681,-1.015 0.16422,-0.126 -0.24483,-0.075 0.0478,-0.093 0.0632,-0.01 0.13382,-0.014 0.19564,-0.032 0.024,-0.01 0.0911,-0.041 0.0696,-0.028 -1.83024,1.0926 -1.89868,0.4393 -1.44016,1.0352 -0.19006,0.034 -0.39634,-0.024 -0.5886,0 -0.10117,0 -0.20518,0 -0.30472,0.025 -0.11857,0.025 -0.1568,0.072 -0.13354,0.058 0.51056,-0.3018 1.02073,-0.6043 1.53109,-0.9064 -0.0937,0.047 -0.0827,0.1407 -0.1392,0.1757 -0.97255,0.6019 -1.12922,0.8333 -1.85622,1.017 -0.2091,0.051 -0.42729,0.06 -0.63212,0.1317 -0.23639,0.059 -0.48154,0.077 -0.72126,0.1188 -0.25203,0.012 -0.50441,0 -0.75664,0 -0.24928,-7e-4 -0.49859,0 -0.74784,0 -0.24798,0.01 -0.49765,0.02 -0.73791,0.088 -0.2724,0.083 -0.53447,0.1961 -0.8069,0.2796 -0.30651,0.082 -0.62269,0.1225 -0.93258,0.19 -0.25632,0.044 -0.511,0.093 -0.77152,0.1068 -0.26142,0.036 -0.51983,0.093 -0.78401,0.1064 -0.12616,0.017 -0.25521,0.031 -0.37462,0.078 -0.035,0.014 -0.13345,0.07 -0.10097,0.051 1.73805,-1.0254 1.97133,-1.1738 1.41443,-0.8227 -0.11416,0.1057 -0.24962,0.1704 -0.37803,0.2506 0.10532,0.1946 0.50909,0.065 0.67394,0.088 0.6893,-0.044 1.37245,-0.1541 2.03391,-0.3579 1.08616,-0.3477 2.14129,-0.78 3.2099,-1.1771 0.53256,-0.1783 1.05881,-0.3771 1.59696,-0.5365 -0.51032,0.2938 -1.03497,0.564 -1.53097,0.8813 -0.0243,0.015 0.0457,0.035 0.0655,0.056 0.0257,0.027 0.0939,0.088 0.0574,0.097 -0.052,0.012 -0.10866,-0.034 -0.15977,-0.01 -0.32355,0 -0.64711,0 -0.97068,0 -0.36319,0 -0.72637,-5e-4 -1.08956,2e-4 -0.29871,0 -0.5974,8e-4 -0.89611,3e-4 -0.26216,0 -0.52456,0 -0.78643,0.014 -0.35648,0.025 -0.71057,0.074 -1.05738,0.1627 -0.54645,0.1288 -1.09863,0.2283 -1.65078,0.3293 -0.49581,0.1 -0.98206,0.2365 -1.46606,0.3825 -0.32106,0.1047 -0.63239,0.2361 -0.93286,0.3905 -0.30233,0.1454 -0.60565,0.2911 -0.92312,0.4011 -0.25044,0.09 -0.50389,0.1723 -0.75166,0.2697 -0.19816,0.067 -0.39417,0.1348 -0.59906,0.1789 -0.2352,0.059 -0.47914,0.077 -0.71752,0.1204 -0.25197,0.013 -0.50448,0.01 -0.75669,0 -0.32728,-0.01 -0.65407,-0.033 -0.9772,-0.088 -0.61263,-0.1034 -1.22108,-0.2311 -1.82806,-0.3632 -0.70214,-0.1642 -1.41071,-0.3274 -2.13334,-0.3623 -0.40462,0.012 -0.79258,0.1231 -1.19591,0.154 -0.51128,0.042 -1.02358,0.022 -1.53614,0.023 -0.53693,0 -1.07476,-10e-4 -1.61,-0.05 -0.44706,-0.047 -0.88828,-0.1236 -1.32948,-0.2086 -0.39098,-0.063 -0.7821,-0.1224 -1.15922,-0.2495 -0.41311,-0.1151 -0.8317,-0.2037 -1.26131,-0.2258 -0.33201,-0.02 -0.66559,-0.012 -0.99679,-0.048 -0.32687,-0.034 -0.65217,-0.098 -0.98213,-0.086 -0.34741,0 -0.69481,0 -1.04223,0 -0.35075,9e-4 -0.7015,-9e-4 -1.05226,-9e-4 -0.33903,10e-4 -0.67806,0 -1.01708,10e-4 -0.343,-10e-4 -0.686,2e-4 -1.02898,0 -0.34065,-8e-4 -0.6813,0 -1.02195,0 -0.46224,0 -0.925,-0.01 -1.38597,-0.047 -0.44178,-0.046 -0.87515,-0.1363 -1.29508,-0.2841 -0.35119,-0.1017 -0.69061,-0.235 -1.03556,-0.3558 -0.41814,-0.1524 -0.823,-0.3422 -1.22475,-0.533 -0.3763,-0.1899 -0.74924,-0.3875 -1.08825,-0.6402 -0.36096,-0.2631 -0.73348,-0.511 -1.07349,-0.8018 -0.19573,-0.1735 -0.40391,-0.3342 -0.58272,-0.5256 -0.1305,-0.1298 -0.26239,-0.2593 -0.4131,-0.3659 -0.15899,-0.1084 -0.31214,-0.2229 -0.46635,-0.3375 -0.22272,-0.1411 -0.47081,-0.2187 -0.71045,-0.3251 -0.57978,-0.3009 -1.15279,-0.6142 -1.74293,-0.8953 -0.81305,-0.3996 -1.62269,-0.8098 -2.48489,-1.0959 -0.48629,-0.1774 -0.97923,-0.366 -1.49929,-0.4104 -0.22171,-0.01 -0.45324,-0.023 -0.6715,0.019 0.50791,-0.3435 1.02593,-0.6725 1.52373,-1.0305 0.0144,-0.01 -0.0356,-0.025 -0.0319,-0.042 0.003,-0.013 0.0254,0.01 0.0383,0.012 0.0269,0.01 0.0541,0.016 0.0809,0.024 0.13778,0.043 0.0903,0.027 0.22225,0.084 0.20458,0.1123 0.3998,0.2415 0.60309,0.3563 0.17378,0.1098 0.35108,0.2108 0.53906,0.2949 0.2008,0.1317 0.33849,0.2916 0.43504,0.5137 0.15475,0.327 0.35344,0.6341 0.55954,0.9305 0.30734,0.3676 0.61931,0.7339 1.00261,1.0261 0.5606,0.4664 1.15368,0.893 1.77258,1.2789 1.24583,0.789 2.5207,1.5363 3.87104,2.1346 0.26812,0.1117 0.53219,0.2338 0.80438,0.3353 1.54196,0.5747 3.1827,0.8049 4.82334,0.8011 2.40385,0.014 4.80768,0 7.21155,-10e-4 1.59509,-0.01 3.18997,-0.032 4.78486,-0.058 0.42617,-0.01 0.24486,0 0.60374,-0.014 0.0531,0 0.19952,-0.039 0.15942,0 -1.38401,1.2047 -0.83166,1.1176 -1.55487,1.0832 -0.59984,-0.015 -1.20004,-0.011 -1.79998,-0.02 -0.83841,-0.013 -1.67918,-0.022 -2.51212,-0.1295 -0.67548,-0.099 -1.33364,-0.2619 -1.99465,-0.4299 -0.52649,-0.1069 -1.05334,-0.2124 -1.58301,-0.3025 -0.66269,-0.1124 -1.31566,-0.273 -1.97966,-0.3784 -0.44899,-0.091 -0.8909,-0.2155 -1.2998,-0.427 -0.24882,-0.1093 -0.49538,-0.2207 -0.72996,-0.359 -0.21064,-0.1105 -0.42605,-0.212 -0.63969,-0.3164 -0.36175,-0.1513 -0.74411,-0.247 -1.10879,-0.3912 -0.51626,-0.1816 -1.0151,-0.4039 -1.51823,-0.6185 -0.49031,-0.1773 -0.9875,-0.3454 -1.50304,-0.4321 -0.5778,-0.084 -1.1564,-0.1009 -1.73993,-0.084 -0.35108,-9e-4 -0.70556,-0.016 -1.05458,0.026 0.4759,-0.3476 0.94847,-0.6998 1.42771,-1.0428 0.005,0 0.01,0.01 0.0151,0.01 0.0368,0.016 0.0741,0.031 0.11165,0.045 0.26849,0.1015 0.54278,0.1877 0.80462,0.3065 1.14254,0.4955 2.27584,1.0118 3.42808,1.4851 0.43205,0.1856 0.86571,0.3675 1.2977,0.5532 0.53823,0.2315 1.07575,0.4802 1.65231,0.6027 0.3073,0.079 0.61711,0.1314 0.93166,0.1726 0.33407,0.045 0.67168,0.033 1.00761,0.057 0.42409,0.026 0.84577,0.079 1.27019,0.099 0.40899,-6e-4 0.81796,0 1.22694,0 0.33702,2e-4 0.67404,0 1.01106,0 0.32788,0 0.65576,0 0.98364,0 0.40766,-6e-4 0.81531,0.01 1.22297,0 0.40856,0 0.81761,-0.01 1.22573,0.015 0.22308,0.027 0.43583,0.079 0.61899,0.2171 0.18651,0.113 0.39432,0.1945 0.54997,0.3526 0.16382,0.1497 0.32988,0.3095 0.54316,0.3839 0.2559,0.062 0.528,0.01 0.78823,0.03 0.63008,0.01 1.26016,0.018 1.89031,0.02 0.9179,0 1.83574,10e-4 2.7536,-0.01 0.64285,0 1.28613,0 1.92843,-0.032 0.38956,-0.026 0.77433,-0.077 1.15701,-0.155 0.3164,-0.054 0.61525,-0.1535 0.90674,-0.2884 0.29417,-0.102 0.58492,-0.2134 0.88143,-0.3087 0.43704,-0.1241 0.8898,-0.1375 1.33985,-0.1825 0.7578,-0.093 1.50476,-0.244 2.25745,-0.3691 0.4255,-0.043 0.85248,-0.053 1.27529,0.025 0.27285,0.047 0.58667,0.058 0.80768,0.2389 0.14582,0.1988 0.13537,0.4087 0.0248,0.6264 -1.10177,0.6449 -1.28033,1.0415 -2.23626,1.0101 -0.30408,0 -0.60817,0 -0.91226,0 -0.42161,4e-4 -0.84355,0 -1.26461,0.025 -0.34006,0.024 -0.67624,0.078 -1.01615,0.099 -0.3537,-3e-4 -0.70858,10e-5 -1.06021,0.043 -0.14213,0.024 -0.20558,0.029 -0.34004,0.075 -0.51936,0.1758 -1.88891,1.0479 1.17383,-0.7112 0.0458,-0.026 -0.0888,0.057 -0.13322,0.086 -0.13432,0.068 -0.20935,0.1373 -0.3203,0.2327 -0.0398,0.034 -0.10055,0.045 -0.13012,0.089 -0.007,0.01 0.002,0.025 0.002,0.038 0.19778,0.167 0.76928,0.042 1.0184,0.069 0.48694,-0.02 0.97865,-0.042 1.45093,-0.1728 0.30919,-0.083 0.6243,-0.1131 0.93614,-0.1822 0.31624,-0.089 0.63388,-0.171 0.95441,-0.2432 0.44953,-0.106 0.87612,-0.2744 1.31089,-0.428 0.47545,-0.1456 0.95456,-0.2741 1.45219,-0.3166 0.34758,-0.059 0.69326,-0.1416 1.0471,-0.1518 0.29549,0 0.59214,0 0.88573,-0.042 0.28806,-0.043 0.56733,-0.1193 0.85018,-0.1869 0.23903,-0.036 0.48193,-0.027 0.71968,-0.074 0.23068,-0.055 0.44792,-0.1495 0.6681,-0.2362 0.60745,-0.3165 0.29463,-0.156 -1.31828,0.7759 -0.3044,0.1758 0.27749,-0.1697 0.33094,-0.2194 0.0244,-0.023 0.0437,-0.05 0.0656,-0.076 0.0201,-0.039 0.0448,-0.1083 0.0914,-0.1317 0.0442,-0.022 0.0788,0.047 -0.0831,0.019 -0.24795,0 -0.49596,-5e-4 -0.74383,0.01 -0.25983,0.01 -0.51908,0.03 -0.77632,0.069 -0.38972,0.051 -0.78019,0.055 -1.17273,0.065 -0.45293,0.028 -0.90358,0.074 -1.34666,0.176 -0.29016,0.061 -0.55502,0.1899 -0.84523,0.2489 -0.29241,0.06 -0.5852,0.1281 -0.86868,0.221 -0.0458,0.022 -0.18082,0.091 -0.13727,0.065 0.48313,-0.2863 1.9445,-1.1246 1.45655,-0.8466 -0.70643,0.4024 -1.32846,0.8224 -2.0475,1.1456 -0.2338,0.1112 -0.47361,0.1997 -0.71493,0.2919 -0.18818,0.062 -0.36096,0.1678 -0.56309,0.1792 -0.24691,0.01 -0.49406,0 -0.74107,0 -0.24991,5e-4 -0.49985,0 -0.74972,0 -0.24977,-0.01 -0.50052,-0.018 -0.74573,-0.07 -0.25355,-0.057 -0.50371,-0.127 -0.76309,-0.154 -0.24597,-0.034 -0.4936,-0.022 -0.74142,-0.023 -0.25,0 -0.5,0 -0.75,0 -0.24994,0 -0.49988,0 -0.74982,0 -0.24976,0 -0.49952,0 -0.74927,0 -0.25287,0 -0.50574,0 -0.7586,-10e-5 -0.27697,-10e-5 -0.55394,-3e-4 -0.8309,-3e-4 -0.25934,1e-4 -0.51909,0 -0.77783,-0.019 -0.21833,-0.022 -0.43261,-0.061 -0.64107,-0.1315 -0.20881,-0.04 -0.41914,-0.083 -0.63088,-0.1016 -0.29126,0 -0.5827,-0.014 -0.87276,-0.043 -0.28374,-0.03 -0.56701,-0.093 -0.8536,-0.067 -0.2231,0.015 -0.44423,0.043 -0.66383,0.086 -0.24428,0.024 -0.48803,-0.016 -0.72924,-0.054 -0.25122,-0.042 -0.5016,-0.054 -0.75638,-0.048 -0.28439,-0.01 -0.56901,-0.02 -0.85132,-0.057 -0.25252,-0.036 -0.50279,-0.083 -0.75949,-0.064 -0.25,0 -0.5,0 -0.75,0 -0.25004,0 -0.50009,0 -0.75013,2e-4 -0.25027,2e-4 -0.50054,7e-4 -0.75081,6e-4 -0.24827,-4e-4 -0.49669,-3e-4 -0.74471,-0.013 -0.22792,-0.014 -0.45457,-0.04 -0.67762,-0.091 -0.22374,-0.034 -0.45022,-0.012 -0.67456,0.01 -0.21808,0.029 -0.43185,0.089 -0.65217,0.094 -0.24998,0 -0.49997,0 -0.74995,2e-4 -0.24999,3e-4 -0.49999,7e-4 -0.74998,0 -0.25106,8e-4 -0.50223,0 -0.75319,0 -0.2586,-0.013 -0.51886,-0.035 -0.76238,-0.1308 -0.2424,-0.1034 -0.4751,-0.2293 -0.67667,-0.401 -0.19653,-0.1495 -0.38619,-0.3079 -0.58852,-0.4498 -0.18445,-0.1486 -0.40038,-0.2526 -0.57543,-0.4144 -0.16861,-0.1143 -0.32053,-0.2436 -0.45559,-0.3966 -0.11442,-0.1223 -0.2355,-0.2459 -0.3893,-0.3174 -0.21877,-0.073 -0.45812,-0.056 -0.68167,-0.1124 -0.2493,-0.035 -0.50026,-0.02 -0.75135,-0.026 -0.27895,-0.01 -0.55832,-0.018 -0.83461,-0.06 -0.2505,-0.041 -0.49877,-0.095 -0.74742,-0.1449 -0.22424,-0.068 -0.44016,-0.162 -0.67219,-0.204 -0.24064,-0.047 -0.48266,-0.096 -0.72823,-0.1066 -0.22545,-0.022 -0.44696,-0.062 -0.66318,-0.1312 -0.2338,-0.047 -0.46816,-0.089 -0.69859,-0.1515 -0.22547,-0.052 -0.43545,-0.1424 -0.6532,-0.2186 -0.20814,-0.088 -0.40779,-0.1996 -0.62836,-0.2547 -0.20396,-0.04 -0.40805,-0.082 -0.61312,-0.1136 -0.23488,-0.021 -0.46864,-0.056 -0.68137,-0.1648 -0.19268,-0.093 -0.4002,-0.1478 -0.58747,-0.2513 -0.16179,-0.1089 -0.31783,-0.223 -0.46739,-0.3482 -0.21674,-0.1657 -0.45224,-0.3075 -0.64705,-0.5007 -0.16381,-0.1385 -0.33336,-0.2715 -0.52783,-0.3649 -0.17461,-0.073 -0.35559,-0.1304 -0.52252,-0.2217 -0.17668,-0.073 -0.35221,-0.1485 -0.53551,-0.2043 -0.20817,-0.071 -0.38003,-0.1946 -0.57048,-0.3008 -0.2403,-0.1165 -0.48689,-0.2263 -0.75579,-0.252 0,0 1.52258,-1.0609 1.52258,-1.0609 z"
       inkscape:connector-curvature="0" />
    <path
       style="fill:#999999;fill-opacity:1;stroke:none;stroke-opacity:1"
       id="path5725"
       d="m 160.59315,1012.894 c -0.0285,0.022 -0.34264,0.426 -0.32724,0.2561 0.22925,-0.01 0.41693,0.055 0.60867,-0.1078 -3.00025,1.4914 -1.74366,1.1117 -1.29316,0.7108 0.0911,-0.081 0.17616,-0.1699 0.26698,-0.2516 0.56356,-0.3277 1.12699,-0.6557 1.69069,-0.9831 0.0377,-0.022 0.15132,-0.087 0.11352,-0.065 -0.48694,0.2801 -1.95328,1.1107 -1.46095,0.8401 0.57377,-0.3153 1.13598,-0.6512 1.70535,-0.9744 0.0239,-0.014 0.27325,-0.1413 0.28917,-0.1494 0.30046,-0.1432 0.60614,-0.277 0.90033,-0.4329 0.64226,-0.2895 0.23815,-0.1125 -1.32757,0.7744 -0.0332,0.019 0.0655,-0.039 0.0965,-0.061 0.0196,-0.014 0.0865,-0.075 0.0876,-0.074 0.0122,0 0.008,0.024 0.0118,0.037 -4.5e-4,0.025 0.008,0.052 -10e-4,0.075 -0.01,0.024 -0.0346,0.038 -0.0519,0.058 0.49842,-0.2829 0.99617,-0.5669 1.49524,-0.8487 0.0368,-0.021 -0.0725,0.043 -0.10843,0.066 -0.11775,0.073 -0.0914,0.058 -0.203,0.1397 -0.22026,0.1644 -0.44015,0.3277 -0.67449,0.4717 -0.83812,0.2716 -1.49003,0.9825 -2.32512,1.2791 -0.24427,0.061 -0.48961,0.1172 -0.73247,0.1846 -0.11778,0.071 -0.16203,-0.1123 -0.16631,-0.2138 -0.001,-0.029 0.18999,-0.1902 0.20833,-0.2104 0.58474,-0.6941 1.41012,-0.98 2.21495,-1.432 0.27991,-0.095 0.45495,0.037 0.56135,0.2896 0.0809,0.2225 0.16567,0.1904 0.36862,0.1773 0.62194,-0.3104 1.68804,-0.9569 -1.01312,0.6007 0.25672,-0.16 0.50625,-0.3297 0.74983,-0.5089 0.23905,-0.1337 0.44364,-0.2931 0.6198,-0.5021 0.53551,-0.6983 1.3092,-1.6247 2.268,-1.5391 0.21228,0.061 0.39102,0.2194 0.5587,0.3603 0.18986,0.1248 0.36242,0.2721 0.41768,0.499 -0.114,0.8227 -1.29279,1.1146 -2.06944,1.1374 -0.14388,0.058 -0.30487,0.049 -0.4473,0.1099 -0.0765,0.033 -0.14615,0.08 -0.22071,0.1172 0.0965,-0.098 -0.45921,0.2493 -0.30277,0.1589 2.73599,-1.5799 1.79644,-1.1535 1.33921,-0.7292 -0.40573,0.6282 -1.49895,1.7944 -1.99098,1.003 -0.0952,-0.2413 -0.11656,-0.5069 -0.0881,-0.7628 0.0375,-0.1144 0.0843,-0.2702 0.19752,-0.338 0.99655,-0.5967 1.15302,-0.9126 1.93309,-1.0098 0.25343,-0.031 0.50194,-0.089 0.75741,-0.1138 0.3193,-0.018 0.61499,-0.1758 0.89346,-0.3217 0.41406,-0.2327 0.84605,-0.4181 1.28313,-0.6014 0.20883,-0.087 0.58532,-0.3058 0.76595,-0.047 0.029,0.042 0.0381,0.094 0.0571,0.1409 0.007,0.3948 -0.28693,0.6824 -0.54909,0.942 -0.25814,0.2446 -0.53067,0.4749 -0.70193,0.7906 -0.11697,0.2409 -0.19043,0.5002 -0.26325,0.7571 -1.65525,0.9028 -1.74564,1.3653 -1.76285,0.1497 -0.004,-0.3221 -0.018,-0.6432 0.023,-0.9633 0.18377,-0.9216 1.04716,-0.97 1.93546,-1.4637 0.0412,-0.013 0.0839,-0.021 0.12355,-0.038 0.11044,-0.047 0.41869,-0.234 0.31381,-0.1758 -1.83069,1.0145 -1.61137,0.9997 -1.02594,0.4994 0.12319,-0.1053 0.24186,-0.2157 0.36279,-0.3236 0.84338,-0.7813 1.74206,-1.4991 2.59994,-2.264 0.8066,-0.7566 1.45631,-1.1185 2.54637,-1.6512 0.0331,-0.016 0.0601,0.043 0.0902,0.064 0.02,0.047 0.0506,0.09 0.0599,0.1396 0.0361,0.1928 -0.17463,0.4272 -0.27742,0.5701 -0.15072,0.2048 -0.29143,0.4164 -0.42532,0.6325 -0.13661,0.24 -0.29439,0.4686 -0.46143,0.6884 -0.1888,0.2534 -0.41694,0.4669 -0.67277,0.6503 -0.66801,0.4394 -0.0452,0.034 -1.82318,1.0422 -0.14481,0.082 -0.27386,0.1416 -0.43653,0.1801 -0.11521,0.041 -0.22025,0.1014 -0.33141,0.1517 -0.044,0.02 -0.17363,0.085 -0.13184,0.06 0.48117,-0.2799 1.92419,-1.12 1.45056,-0.8276 -0.55528,0.343 -1.13041,0.6526 -1.69562,0.9789 -0.57253,0.3111 -0.72058,0.3929 1.30716,-0.753 0.0418,-0.024 -0.0801,0.053 -0.12019,0.079 -0.11396,0.075 -0.22809,0.1498 -0.34286,0.2236 -0.68432,0.4896 -1.43,0.8748 -2.1597,1.2959 -0.21769,0.098 -0.45562,0.1305 -0.68001,0.2057 -0.22264,0.045 -0.42835,0.1983 -0.65765,0.2068 -0.21497,-0.2689 0.0184,-0.432 0.22509,-0.6056 0.76672,-0.6052 1.6122,-1.1449 2.52751,-1.4909 0.43294,-0.1183 0.85369,-0.2692 1.29275,-0.3649 0.30514,-0.059 0.60236,-0.1434 0.91187,-0.1805 0.25221,-0.014 0.50649,-0.053 0.74604,-0.1347 0.57946,-0.1925 1.59058,-0.8372 -1.26678,0.7537 -0.0321,0.018 0.0611,-0.041 0.0884,-0.066 0.086,-0.078 0.0845,-0.094 0.14222,-0.1955 0.004,-0.061 0.27129,-0.5687 0.041,-0.3795 -0.0478,0.024 -0.0971,0.045 -0.14339,0.072 -0.13626,0.078 -0.53917,0.323 -0.40255,0.2454 2.39778,-1.3627 1.41334,-0.8463 0.89656,-0.4602 -0.28774,0.209 -0.56028,0.4373 -0.84004,0.6565 -0.28787,0.2302 -0.55989,0.4793 -0.84521,0.7125 -0.71977,0.5444 -1.48022,0.9488 -2.30533,1.3588 -0.0279,0.014 -0.0536,-0.032 -0.0804,-0.048 -0.0163,-0.069 -0.0597,-0.137 -0.0489,-0.2072 0.0179,-0.1164 0.30069,-0.3922 0.33975,-0.4328 0.39699,-0.4129 0.81821,-0.8 1.23948,-1.1877 0.89734,-0.8598 1.813,-1.7004 2.77484,-2.4878 0.40444,-0.2722 0.73991,-0.6554 1.1629,-0.9017 0.56984,-0.3319 1.14484,-0.6549 1.71726,-0.9823 0.12794,-0.039 0.2539,-0.088 0.3761,-0.1424 0.0344,-0.015 0.13298,-0.071 0.1003,-0.052 -1.58007,0.9063 -1.96548,1.1683 -1.40655,0.7928 0.15463,-0.1085 0.29382,-0.2399 0.42183,-0.3786 0.1428,-0.1634 0.30035,-0.3114 0.47601,-0.4388 0.0283,-0.022 0.0539,-0.049 0.0849,-0.067 0.55446,-0.3281 1.10965,-0.6552 1.67069,-0.9719 0.0321,-0.018 0.0721,-0.017 0.10599,-0.031 0.0308,-0.013 0.0569,-0.035 0.0868,-0.05 0.0298,-0.015 0.12082,-0.056 0.092,-0.039 -0.50063,0.2903 -1.00521,0.5737 -1.50782,0.8605 0.66101,-0.4016 1.37894,-1.4715 2.14824,-1.1369 0.17737,0.1356 0.15609,0.3365 0.0914,0.5248 -0.0897,0.1609 -0.17244,0.325 -0.28548,0.4711 -0.13814,0.1605 -0.26335,0.3294 -0.38431,0.5034 -0.14212,0.1912 -0.26048,0.3984 -0.39624,0.5935 -0.16359,0.2051 -0.29413,0.4335 -0.46229,0.635 -0.15043,0.1602 -0.25422,0.3554 -0.39437,0.5237 -0.13083,0.1557 -0.27231,0.3015 -0.40772,0.453 -0.21529,0.1871 -0.41061,0.3948 -0.61593,0.5925 -0.22207,0.1945 -0.43418,0.4012 -0.66675,0.5833 -0.55857,0.3143 -1.10667,0.6479 -1.67572,0.9428 -0.11262,0.058 -0.20855,-0.1726 -0.21548,-0.2334 -0.01,-0.084 0.0264,-0.1475 0.0559,-0.2209 0.12999,-0.2444 0.27677,-0.4781 0.40209,-0.7256 0.10921,-0.2254 0.21683,-0.4515 0.36156,-0.6567 0.13064,-0.1932 0.2965,-0.3584 0.44664,-0.5362 0.18386,-0.228 0.38689,-0.4402 0.58702,-0.6539 0.1908,-0.1901 0.35366,-0.4048 0.51809,-0.6173 0.50069,-0.5396 1.32462,-0.85 1.88633,-1.1769 0,0 -1.44087,1.1616 -1.44087,1.1616 l 0,0 c 2.60769,-1.5273 1.78626,-1.1074 1.25591,-0.7027 -0.1933,0.1947 -0.33012,0.438 -0.52535,0.6325 -0.20825,0.1988 -0.38637,0.4239 -0.58806,0.629 -0.13186,0.1898 -0.29692,0.3508 -0.445,0.5256 -0.13835,0.2054 -0.28851,0.4003 -0.38141,0.6339 -0.11321,0.2494 -0.24289,0.4893 -0.39713,0.7155 -0.006,0.013 -0.0597,0.1788 -0.11778,0.1265 -0.023,-0.021 0.0854,-0.064 0.0527,-0.045 -0.49874,0.2914 -0.99826,0.5814 -1.49739,0.872 0.26164,-0.143 0.46317,-0.3729 0.68837,-0.5652 0.21989,-0.173 0.38316,-0.4007 0.60055,-0.5769 0.15625,-0.1274 0.28303,-0.2922 0.41482,-0.4436 0.16026,-0.156 0.27248,-0.3406 0.39859,-0.5239 0.1843,-0.186 0.32413,-0.4012 0.46571,-0.6205 0.1559,-0.1813 0.26111,-0.3968 0.40292,-0.5888 0.12315,-0.1682 0.21602,-0.363 0.37511,-0.5007 0.10069,-0.1491 0.22455,-0.2792 0.29249,-0.4496 0.0286,-0.031 0.1524,-0.2012 0.0815,-0.2179 -0.59945,0.2056 -0.0619,0.025 1.45062,-0.8559 0.24609,-0.1433 -0.22812,0.1452 -0.27862,0.1864 -0.0268,0.022 -0.0498,0.048 -0.0747,0.072 -0.55551,0.32 -1.10997,0.6419 -1.66652,0.9602 -0.0935,0.054 -0.0843,0.036 -0.18239,0.082 -0.0314,0.015 -0.1218,0.067 -0.0919,0.049 1.59858,-0.9394 1.96262,-1.1767 1.39659,-0.8107 -0.14271,0.1261 -0.26699,0.2034 -0.40868,0.3432 -0.0239,0.024 -0.052,0.042 -0.078,0.064 -0.12445,0.154 -0.26169,0.2877 -0.4045,0.4239 -0.70193,0.4808 -1.43121,0.9124 -2.21971,1.2224 0.47038,-0.275 0.94077,-0.5499 1.41116,-0.8249 -0.0595,0.035 -0.12074,0.068 -0.1786,0.1061 -0.36983,0.2432 -0.69457,0.5505 -1.05697,0.804 -0.98702,0.7755 -1.92334,1.6122 -2.8183,2.4922 -0.36846,0.3426 -0.51956,0.4754 -0.86362,0.8232 -0.006,0.01 -0.58279,0.6391 -0.62358,0.6497 -0.0345,0.01 -0.0614,-0.036 -0.0921,-0.054 0.15942,-0.5762 0.0172,-0.039 -1.4751,0.8365 -0.0471,0.028 0.0977,-0.049 0.14461,-0.077 0.17043,-0.1021 0.31581,-0.2384 0.4891,-0.3363 0.29384,-0.2166 0.55264,-0.4733 0.83405,-0.7054 0.28171,-0.2284 0.56614,-0.4544 0.86005,-0.6664 0.6718,-0.5486 1.42603,-0.9043 2.19278,-1.3514 0.11305,-0.066 0.31418,-0.186 0.44667,-0.225 0.0636,-0.019 0.13126,-0.019 0.19689,-0.028 0.0512,0.023 0.10944,0.035 0.1536,0.07 0.21151,0.1669 0.0159,0.4262 -0.023,0.6184 -0.0287,0.08 -0.0618,0.1873 -0.10864,0.26 -0.40555,0.6295 -1.26774,0.9255 -1.99037,1.1362 -0.25123,0.055 -0.50348,0.094 -0.75992,0.1149 -0.29896,0.049 -0.59134,0.1283 -0.88923,0.1831 -0.43012,0.1041 -0.85117,0.2435 -1.26973,0.3863 -0.69033,0.3177 -0.18191,0.091 1.17961,-0.71 0.0559,-0.033 -0.11577,0.059 -0.17186,0.092 -0.1455,0.085 -0.26946,0.1915 -0.39959,0.2972 -0.0933,0.071 -0.20911,0.1363 -0.28639,0.2261 -0.0162,0.019 -0.0143,0.06 -0.0388,0.063 -0.04,0 -0.10593,-0.1 -0.12105,-0.12 0.20392,-0.086 0.42177,-0.1425 0.63177,-0.2112 0.22737,-0.058 0.45253,-0.1271 0.66008,-0.2386 -2.745,1.5986 -1.58693,0.9506 -0.99381,0.5393 0.5644,-0.4441 1.91014,-1.1584 2.1623,-1.3061 0.0453,-0.026 0.0912,-0.052 0.13679,-0.078 -0.48323,0.2792 -1.94088,1.1023 -1.44968,0.8374 0.6986,-0.3767 1.40569,-0.9143 2.18937,-1.1734 0.10566,-0.041 0.20222,-0.091 0.30317,-0.1418 0.037,-0.019 0.14779,-0.076 0.112,-0.055 -1.28496,0.757 -1.96507,1.118 -1.326,0.777 0.25583,-0.1726 0.50707,-0.3482 0.69343,-0.6001 0.17109,-0.2094 0.31899,-0.4339 0.47057,-0.6573 0.10906,-0.235 0.26747,-0.4402 0.41478,-0.6525 0.0346,-0.05 0.29183,-0.4297 0.32358,-0.4324 0.0174,0 0.028,0.021 0.042,0.031 -0.19275,0.5748 -0.0242,0.051 1.48552,-0.838 0.0522,-0.031 -0.11088,0.05 -0.16217,0.082 -0.28884,0.1814 -0.52508,0.434 -0.79488,0.6399 -0.86256,0.7575 -1.76437,1.4702 -2.59846,2.2596 -0.0173,0.016 -0.53632,0.5178 -0.60416,0.5614 -0.68001,0.4367 -1.44499,0.9901 -2.25005,1.2768 0.49377,-0.289 0.99044,-0.573 1.4813,-0.8669 0.0273,-0.016 -0.0611,0.019 -0.0892,0.034 -0.13631,0.072 -0.16811,0.219 -0.22111,0.3512 -0.053,0.3113 -0.0536,0.6227 -0.0429,0.9383 0.0343,1.0791 0.2477,0.3905 -1.59205,1.3906 0.0185,-10e-4 0.0406,0.01 0.0555,0 0.17095,-0.1258 0.12547,-0.5303 0.26268,-0.6977 0.0492,-0.119 0.0783,-0.2072 0.15255,-0.3146 0.14443,-0.2091 0.36298,-0.3581 0.53245,-0.5444 0.24213,-0.211 0.48936,-0.4426 0.60813,-0.7478 0.0484,-0.1693 -0.58454,0.1375 -0.6255,0.1472 -0.43876,0.1788 -0.85693,0.3951 -1.2776,0.6126 -0.3026,0.1408 -0.60865,0.2736 -0.94771,0.2843 -0.25119,0.035 -0.49882,0.089 -0.74958,0.1262 -0.60224,0.1689 -1.42889,0.8058 1.25156,-0.786 0.11227,-0.067 -0.34081,0.1709 -0.25398,0.2182 -0.0674,0.1992 -0.0268,0.4285 0.0315,0.6279 0.006,0.01 0.0102,0.027 0.0191,0.023 0.0108,0 0.0184,-0.041 0.008,-0.035 -0.51309,0.2921 -1.01851,0.5975 -1.52613,0.899 -0.0249,0.015 0.0562,-0.019 0.0777,-0.039 0.0475,-0.043 0.0848,-0.1387 0.10984,-0.1923 0.46742,-0.6918 1.37342,-0.9342 2.10732,-1.2989 0.22454,-0.099 0.46728,-0.1509 0.71116,-0.1737 0.0785,-0.01 0.14504,-0.012 0.22157,-0.032 0.0314,-0.01 0.11985,-0.048 0.092,-0.031 -1.29395,0.7726 -2.10004,0.941 -1.38121,0.8707 0.0751,-0.1364 -0.256,-0.2902 -0.33271,-0.3671 -0.14012,-0.1082 -0.285,-0.2639 -0.47515,-0.2356 -0.56442,0.2782 -0.41211,0.2055 1.38446,-0.83 0.0456,-0.026 -0.0855,0.062 -0.12419,0.098 -0.13939,0.1285 -0.24596,0.2855 -0.35796,0.4369 -0.15601,0.2335 -0.33544,0.4416 -0.5993,0.5564 -0.24992,0.1666 -0.48239,0.3593 -0.7392,0.516 -0.0526,0.031 -1.3598,0.9066 -1.98848,1.1205 -0.0981,0.033 -0.11437,0.026 -0.21517,0.029 -0.23613,-0.022 -0.40425,-0.127 -0.48686,-0.3587 -0.0758,-0.2075 -0.22451,-0.1108 -0.38884,-0.049 0.4867,-0.283 0.97514,-0.5631 1.46009,-0.8491 0.039,-0.023 -0.0827,0.037 -0.12183,0.06 -0.15701,0.091 -0.29245,0.2226 -0.40968,0.3589 -0.009,0.011 -0.16062,0.2276 -0.18591,0.2118 -0.0548,-0.034 -0.0812,-0.1007 -0.12042,-0.1521 -0.007,-0.01 -0.0278,-0.022 -0.0198,-0.031 0.0118,-0.014 0.0361,-0.01 0.0541,-0.01 0.2394,-0.053 0.47857,-0.1167 0.70935,-0.1992 0.65691,-0.3008 1.89814,-1.0889 -0.83662,0.5238 0.23129,-0.1441 0.46762,-0.2793 0.67443,-0.459 0.13644,-0.094 0.0702,-0.043 0.19838,-0.1528 0.55757,-0.4031 1.18521,-0.6997 1.78989,-1.0279 0.0298,-0.016 0.0695,-0.016 0.10154,0 0.0405,0.014 0.0693,0.051 0.10396,0.076 0.0806,0.1485 0.0832,0.2812 -0.0861,0.3819 -1.3694,0.8137 -1.13702,0.6965 -1.82492,1.0331 -0.29855,0.1433 -0.59821,0.2844 -0.89512,0.4311 -0.0522,0.027 -0.10429,0.055 -0.15651,0.082 -0.0462,0.024 -0.18343,0.098 -0.13861,0.072 0.48032,-0.2829 1.92711,-1.1215 1.44531,-0.8411 -0.56296,0.3275 -1.12522,0.6563 -1.68878,0.9827 -0.0377,0.022 -0.15245,0.084 -0.11497,0.062 0.48436,-0.2872 0.97047,-0.5715 1.45571,-0.8573 -0.13833,0.096 -0.23852,0.2119 -0.35565,0.3303 -0.48303,0.4879 -1.6816,0.222 -1.77285,1.0487 -0.24506,0.056 -0.51264,0.063 -0.74143,-0.054 -0.24099,-0.2971 -0.001,-0.3119 0.19845,-0.5118 0,0 1.70459,-0.7346 1.70459,-0.7346 z"
       inkscape:connector-curvature="0" />
    <ellipse
       style="fill:#e9afaf;fill-opacity:1;stroke:none;stroke-opacity:1"
       id="path4194"
       cx="145.57143"
       cy="1000.3621"
       rx="5.2857141"
       ry="4.8571429" />
    <path
       style="fill:#550000;fill-opacity:1;stroke:none;stroke-opacity:1"
       id="path4203"
       d="m 144.12278,995.2693 c 0.65045,-0.21364 1.3251,-0.32503 2.00571,-0.37883 0.67848,-0.0151 1.37112,-0.11959 2.04355,-0.002 0.4631,0.15212 0.77403,0.50218 1.12516,0.81381 0.36679,0.24227 0.82028,0.24947 1.24521,0.27235 0.27392,0.0113 0.54809,0.0119 0.82218,0.0133 0,0 -3.41269,2.47299 -3.41269,2.47299 l 0,0 c -0.2812,-0.005 -0.56266,-0.01 -0.84302,-0.0347 -0.50925,-0.0559 -1.01467,-0.1446 -1.41242,-0.49552 -0.28325,-0.26666 -0.55993,-0.54614 -0.96395,-0.60487 -0.65612,-0.0356 -1.31577,0.009 -1.96951,0.0655 -0.67426,0.0917 -1.34614,0.22259 -1.97259,0.49875 0,0 3.33237,-2.62044 3.33237,-2.62044 z"
       inkscape:connector-curvature="0" />
    <path
       style="fill:#550000;fill-opacity:1;stroke:none;stroke-opacity:1"
       id="path4205"
       d="m 140.72585,997.63639 c 0.35957,-0.45081 0.82875,-0.79648 1.25444,-1.18133 1.50409,-1.36227 3.16257,-2.38479 5.1097,-2.47448 0.56758,-0.0153 1.13548,-0.008 1.70318,-0.005 0.55729,-0.0582 1.03168,0.0896 1.52225,0.32797 0.44638,0.13726 0.75608,0.47944 1.10932,0.76038 0.25472,0.14684 0.12205,0.0828 0.39829,0.19156 0,0 -3.52206,2.33066 -3.52206,2.33066 l 0,0 c -0.31717,-0.16869 -0.16502,-0.0759 -0.45686,-0.27763 -0.32481,-0.27054 -0.6483,-0.52957 -1.05595,-0.66793 -0.44983,-0.19514 -0.91863,-0.20927 -1.40487,-0.18982 -0.56166,-0.002 -1.12456,-0.009 -1.68484,0.0365 -0.25693,0.0308 -0.51045,0.0615 -0.75514,0.15163 -0.0761,0.028 -0.29206,0.13975 -0.22232,0.0985 2.99603,-1.77377 4.58545,-2.59579 3.17209,-1.86083 -0.44255,0.33639 -0.83591,0.73467 -1.27102,1.08072 0,0 -3.89621,1.67903 -3.89621,1.67903 z"
       inkscape:connector-curvature="0" />
    <path
       style="fill:#550000;fill-opacity:1;stroke:none;stroke-opacity:1"
       id="path4207"
       d="m 143.60437,997.56999 c -0.0169,0.57391 -0.0407,1.15043 1.7e-4,1.72383 0.29893,1.42638 0.0645,0.21585 -3.78502,1.86238 -0.0564,0.024 0.004,-0.1225 0.006,-0.1838 0.006,-0.2449 0.008,-0.4898 0.009,-0.7348 -0.009,-0.58389 -0.034,-1.1555 0.19222,-1.70309 0.99866,-1.41363 0.0754,-0.16791 3.95521,-2.45517 0.13292,-0.0784 0.54796,-0.28344 0.41465,-0.20575 -4.4702,2.60535 -4.50862,2.63232 -3.2556,1.85361 4.98092,-2.82109 5.1027,-2.89616 0.38033,-0.19888 0,0 3.94948,-1.52165 3.94948,-1.52165 l 0,0 c -4.95753,2.84233 -5.07947,2.91815 -0.38041,0.20212 -1.4783,0.81044 -0.0465,0.0237 -3.99841,2.30183 -0.13177,0.076 -0.52834,0.30156 -0.39766,0.22375 3.29263,-1.96043 4.55291,-2.65278 3.19691,-1.90497 -0.39613,0.41536 -0.30098,0.95733 -0.29761,1.49284 0.0171,2.19596 0.22579,0.85507 -3.78176,2.96706 -0.0207,0.011 0.008,-0.046 0.0119,-0.069 0.0382,-0.5737 0.0195,-1.15 1.7e-4,-1.72401 0,0 3.78017,-1.92609 3.78017,-1.92609 z"
       inkscape:connector-curvature="0" />
    <path
       style="fill:#241c1c;fill-rule:evenodd;stroke:#000000;stroke-width:1px;stroke-linecap:butt;stroke-linejoin:miter;stroke-opacity:1"
       d="m 164,1003.505 c 0.30881,1.2353 0.28571,0.7502 0.28571,1.4286 0,0.095 -0.0426,0.2005 0,0.2857 0.0602,0.1205 0.22548,0.1652 0.28572,0.2857 0.0852,0.1704 -0.13469,0.4368 0,0.5714 0.0673,0.067 0.21837,-0.067 0.28571,0 0.13469,0.1347 -0.13468,0.4368 0,0.5715 0.0674,0.067 0.21837,-0.067 0.28572,0 0.13468,0.1347 -0.13469,0.4367 0,0.5714 0.0673,0.067 0.21837,-0.067 0.28571,0 0.13469,0.1347 -0.0852,0.4011 0,0.5714 0.0375,0.075 0.53393,0.4965 0.57143,0.5715 0.0852,0.1703 -0.13469,0.4367 0,0.5714 0.38095,0.3809 0.28571,-0.4762 0.28571,0.2857 0,0.069 -0.009,0.848 0,0.8571 0.0674,0.067 0.21838,-0.067 0.28572,0 0.0673,0.067 0,0.1905 0,0.2858 0,0.095 0.0952,0.2857 0,0.2857 -0.0952,0 0,-0.1905 0,-0.2857"
       id="path4209"
       inkscape:connector-curvature="0" />
    <ellipse
       style="fill:#241c1c;fill-opacity:1;stroke:none;stroke-opacity:1"
       id="path4211"
       cx="164.71428"
       cy="1003.9336"
       rx="3.8571429"
       ry="3.2857144" />
    <rect
       style="fill:#f4e3d7;fill-opacity:1;stroke:none;stroke-opacity:1"
       id="rect4213"
       width="7.4285746"
       height="6.5715227"
       x="142.57144"
       y="1007.7908" />
    <path
       style="fill:none;fill-rule:evenodd;stroke:#000000;stroke-width:1px;stroke-linecap:butt;stroke-linejoin:miter;stroke-opacity:1"
       d="m 146,1004.6479 c -0.0952,0.3809 -0.2087,0.7578 -0.28571,1.1428 -0.0239,0.1194 0.0218,1.4286 0,1.4286 -0.0952,0 0,-0.381 0,-0.2857 0,1.4289 0,0.388 0,1.4286"
       id="path4215"
       inkscape:connector-curvature="0" />
    <path
       style="fill:none;fill-rule:evenodd;stroke:#000000;stroke-width:1px;stroke-linecap:butt;stroke-linejoin:miter;stroke-opacity:1"
       d="m 150.57143,1009.505 c 0.38095,-0.1905 0.7474,-0.4132 1.14286,-0.5714 0.11859,-0.047 1.21795,0 1.42857,0 0.0952,0 0.19047,0 0.28571,0 0.0952,0 0.28572,-0.095 0.28572,0 0,0.095 -0.38096,0 -0.28572,0 0.19048,0 0.38095,0 0.57143,0 0.19048,0 0.7619,0 0.57143,0 -0.19048,0 -0.38095,0 -0.57143,0"
       id="path4217"
       inkscape:connector-curvature="0" />
    <path
       style="fill:none;fill-rule:evenodd;stroke:#000000;stroke-width:1px;stroke-linecap:butt;stroke-linejoin:miter;stroke-opacity:1"
       d="m 158,1008.3622 c 0,-0.095 0.0952,-0.2858 0,-0.2858 -0.0952,0 0.0673,0.2188 0,0.2858 -0.0673,0.067 -0.21841,-0.067 -0.28571,0 -0.0674,0.067 0.0673,0.2187 0,0.2857 -0.0674,0.067 -0.19052,0 -0.28572,0 -0.67839,0 -0.19332,-0.023 -1.42857,0.2857 -0.75968,3.5403 1.26253,0.4054 1.71429,0.8571 0.0673,0.067 -0.0674,0.2184 0,0.2857 0.13468,0.1347 0.43674,-0.1346 0.57142,0 0.0674,0.067 -0.0673,0.2184 0,0.2858 0.0674,0.067 0.21838,-0.067 0.28572,0 0.0673,0.067 0,0.1904 0,0.2857 0,0.095 0,0.1905 0,0.2857 0,0.095 0,0.3809 0,0.2857 0,-0.1905 0,-0.3809 0,-0.5714"
       id="path4219"
       inkscape:connector-curvature="0" />
    <path
       style="fill:none;fill-rule:evenodd;stroke:#000000;stroke-width:1px;stroke-linecap:butt;stroke-linejoin:miter;stroke-opacity:1"
       d="m 155.42857,1008.6479 c 0,0.5714 0,1.1428 0,1.7143 0,0.095 -0.0426,0.2005 0,0.2857 0.0602,0.1204 0.22548,0.1652 0.28572,0.2857 0.0852,0.1704 -0.13469,0.4367 0,0.5714 0.0673,0.067 0.21837,-0.067 0.28571,0 0.009,0.01 0,0.7879 0,0.8572 0,0.095 0.0952,0.2857 0,0.2857 -0.0952,0 0,-0.1905 0,-0.2857"
       id="path4221"
       inkscape:connector-curvature="0" />
    <path
       style="fill:none;fill-rule:evenodd;stroke:#000000;stroke-width:1px;stroke-linecap:butt;stroke-linejoin:miter;stroke-opacity:1"
       d="m 143.42857,1010.0764 c -0.19047,0.381 -0.41325,0.7474 -0.57143,1.1429 -0.0513,0.1282 0,0.6957 0,0.8571 0,1.0543 0,0.566 0,1.7143 0,0.08 0,1.7743 0,0.8572"
       id="path4223"
       inkscape:connector-curvature="0" />
    <path
       style="fill:none;fill-rule:evenodd;stroke:#000000;stroke-width:1px;stroke-linecap:butt;stroke-linejoin:miter;stroke-opacity:1"
       d="m 145.42857,1002.0764 c 0.38095,0.1905 0.80212,0.3159 1.14286,0.5715 0.0762,0.057 -0.0673,0.2183 0,0.2857 0.0673,0.067 0.21837,-0.067 0.28571,0 0.0674,0.067 -0.0673,0.2184 0,0.2857 0.0674,0.067 0.19048,0 0.28572,0 0.0693,0 0.84795,0.01 0.85714,0 0.0673,-0.067 -0.0952,-0.2857 0,-0.2857 0.0952,0 -0.0952,0.2857 0,0.2857 0.59454,0 0.11496,-0.4007 0.28571,-0.5714 0.0674,-0.067 0.21838,0.067 0.28572,0 0.0673,-0.067 -0.0952,-0.2857 0,-0.2857 0.0952,0 0,0.1904 0,0.2857"
       id="path4225"
       inkscape:connector-curvature="0" />
    <path
       style="fill:none;fill-rule:evenodd;stroke:#000000;stroke-width:1px;stroke-linecap:butt;stroke-linejoin:miter;stroke-opacity:1"
       d="m 146.28571,999.50502 0.57143,0.28571"
       id="path4227"
       inkscape:connector-curvature="0" />
    <path
       style="fill:none;fill-rule:evenodd;stroke:#000000;stroke-width:1px;stroke-linecap:butt;stroke-linejoin:miter;stroke-opacity:1"
       d="m 149.42857,999.79073 0,-0.57143"
       id="path4229"
       inkscape:connector-curvature="0" />
    <path
       style="fill:none;fill-rule:evenodd;stroke:#000000;stroke-width:1px;stroke-linecap:butt;stroke-linejoin:miter;stroke-opacity:1"
       d="m 147.14286,1001.2193 0,-0.1429"
       id="path4231"
       inkscape:connector-curvature="0" />
  </g>
</svg>
