<?xml version="1.0" encoding="UTF-8" standalone="no"?>
<!-- Created with Inkscape (http://www.inkscape.org/) -->

<svg
   xmlns:osb="http://www.openswatchbook.org/uri/2009/osb"
   xmlns:dc="http://purl.org/dc/elements/1.1/"
   xmlns:cc="http://creativecommons.org/ns#"
   xmlns:rdf="http://www.w3.org/1999/02/22-rdf-syntax-ns#"
   xmlns:svg="http://www.w3.org/2000/svg"
   xmlns="http://www.w3.org/2000/svg"
   xmlns:sodipodi="http://sodipodi.sourceforge.net/DTD/sodipodi-0.dtd"
   xmlns:inkscape="http://www.inkscape.org/namespaces/inkscape"
   width="220"
   height="70"
   viewBox="0 0 220 70"
   id="svg2"
   version="1.1"
   inkscape:version="0.91 r13725"
   sodipodi:docname="kosmolet_novij.svg">
  <defs
     id="defs4">
    <linearGradient
       id="linearGradient5709"
       osb:paint="solid">
      <stop
         style="stop-color:#000000;stop-opacity:1;"
         offset="0"
         id="stop5711" />
    </linearGradient>
  </defs>
  <sodipodi:namedview
     id="base"
     pagecolor="#ffffff"
     bordercolor="#666666"
     borderopacity="1.0"
     inkscape:pageopacity="0.0"
     inkscape:pageshadow="2"
     inkscape:zoom="3.57"
     inkscape:cx="121.21253"
     inkscape:cy="52.650135"
     inkscape:document-units="px"
     inkscape:current-layer="layer1"
     showgrid="false"
     units="px"
     inkscape:window-width="1366"
     inkscape:window-height="706"
     inkscape:window-x="-8"
     inkscape:window-y="-8"
     inkscape:window-maximized="1"
     inkscape:snap-bbox="true" />
  <metadata
     id="metadata7">
    <rdf:RDF>
      <cc:Work
         rdf:about="">
        <dc:format>image/svg+xml</dc:format>
        <dc:type
           rdf:resource="http://purl.org/dc/dcmitype/StillImage" />
        <dc:title></dc:title>
      </cc:Work>
    </rdf:RDF>
  </metadata>
  <g
     inkscape:label="Layer 1"
     inkscape:groupmode="layer"
     id="layer1"
     transform="translate(0,-982.36216)">
    <path
       style="fill:#ffff00;fill-opacity:1;stroke:none;stroke-opacity:0.9888268"
       d=""
       id="path4146"
       inkscape:connector-curvature="0"
       transform="translate(0,802.36216)" />
    <path
       style="fill:#ffff00;fill-opacity:1;stroke:none;stroke-opacity:1"
       d=""
       id="path4234"
       inkscape:connector-curvature="0"
       transform="translate(0,802.36216)" />
    <path
       sodipodi:type="star"
       style="fill:#212178;fill-opacity:1;stroke:none;stroke-opacity:1"
       id="path3532"
       sodipodi:sides="5"
       sodipodi:cx="13.72549"
       sodipodi:cy="945.35936"
       sodipodi:r1="5.7746577"
       sodipodi:r2="2.8873289"
       sodipodi:arg1="0.68231655"
       sodipodi:arg2="1.3106351"
       inkscape:flatsided="false"
       inkscape:rounded="0"
       inkscape:randomized="0"
       d="m 18.207282,949.00083 -3.739066,-0.85129 -2.821007,2.59755 -0.34581,-3.81913 -3.3421503,-1.88025 3.5253443,-1.50906 0.755445,-3.75961 2.524592,2.88648 3.809041,-0.44331 -1.965061,3.293 z"
       inkscape:transform-center-x="0.45902991"
       inkscape:transform-center-y="-0.096310893" />
    <ellipse
       style="fill:#aade87;fill-opacity:1;stroke:none;stroke-opacity:1"
       id="path3538"
       cx="119.18767"
       cy="1018.7485"
       rx="88.095238"
       ry="15.12605" />
    <rect
       style="fill:#c6e9af;fill-opacity:1;stroke:none;stroke-opacity:1"
       id="rect3555"
       width="108.12325"
       height="29.971987"
       x="12.605042"
       y="1003.6226" />
    <path
       style="fill:#aade87;fill-opacity:1;stroke:none;stroke-opacity:1"
       id="path3557"
       d="m 201.01978,1011.7619 c 0.69939,0.063 1.3436,0.3024 1.99112,0.5541 0.56181,0.2118 0.90812,0.6918 1.30684,1.1079 0.1141,0.178 0.25463,0.3061 0.42918,0.4187 0,0 -3.98893,2.5173 -3.98893,2.5173 l 0,0 c -0.17266,-0.1486 -0.336,-0.3017 -0.4675,-0.4898 -0.34317,-0.3837 -0.66227,-0.7781 -1.17571,-0.9375 -0.61208,-0.2357 -1.24246,-0.4206 -1.90637,-0.4016 0,0 3.81137,-2.7691 3.81137,-2.7691 z"
       inkscape:connector-curvature="0" />
    <path
       style="fill:#aade87;fill-opacity:1;stroke:none;stroke-opacity:1"
       id="path3559"
       d="m 198.51802,1012.1029 c 0.78774,0.077 1.56126,0.2214 2.34019,0.3576 0.58382,0.031 1.12756,0.2406 1.69799,0.3439 0.43128,0.1307 0.81907,0.3576 1.24246,0.5039 0.41305,0.151 0.80523,0.3055 1.24666,0.367 0.49982,0.1435 0.98557,0.3383 1.45473,0.5633 0.51509,0.2002 0.97085,0.5212 1.3977,0.8677 0.46387,0.2782 0.9047,0.5873 1.35246,0.8896 0.39092,0.1881 0.80095,0.3307 1.19443,0.5144 0.47568,0.2062 0.99189,0.2516 1.50312,0.2824 0.50939,-0.043 0.88628,0.3102 1.34803,0.4547 0.20234,0.1072 0.39163,0.2052 0.57454,0.343 0,0 -3.97469,2.5424 -3.97469,2.5424 l 0,0 c -0.16485,-0.094 -0.33179,-0.1854 -0.5104,-0.252 -0.41971,-0.1786 -0.78819,-0.3917 -1.26545,-0.3573 -0.54883,-0.062 -1.09022,-0.1661 -1.59472,-0.4013 -0.42918,-0.167 -0.85706,-0.3531 -1.24917,-0.5952 -0.4406,-0.3212 -0.90766,-0.6005 -1.35103,-0.9172 -0.41617,-0.3079 -0.85969,-0.5782 -1.34413,-0.7661 -0.45646,-0.1846 -0.9049,-0.3972 -1.39674,-0.4713 -0.44895,-0.1046 -0.86689,-0.2857 -1.30108,-0.4371 -0.38894,-0.1693 -0.77662,-0.3468 -1.19206,-0.4434 -0.55382,-0.1323 -1.10128,-0.2835 -1.66925,-0.3483 -0.77962,-0.1479 -1.56261,-0.2565 -2.35345,-0.3263 0,0 3.84986,-2.7144 3.84986,-2.7144 z"
       inkscape:connector-curvature="0" />
    <path
       style="fill:#aade87;fill-opacity:1;stroke:none;stroke-opacity:1"
       id="path3561"
       d="m 203.54079,1021.5658 c 0.71773,0.037 1.44824,-0.032 2.13747,-0.2393 0.5339,-0.1383 1.06075,-0.3203 1.55801,-0.5609 0.50983,-0.2197 1.06283,-0.2701 1.6105,-0.3031 0.0765,-0.024 0.15269,-0.05 0.22962,-0.073 0.31258,-0.093 0.89743,-0.4523 0.65976,-0.3174 -3.59257,2.0383 -5.00956,2.9707 -3.5227,1.9996 1.70235,-1.1759 3.38104,-2.6948 5.46272,-2.9867 0.23483,-0.014 0.4982,-0.064 0.71422,-0.1651 0.12628,-0.059 0.23415,-0.1522 0.3579,-0.2165 -1.29139,0.7402 -2.58277,1.4804 -3.87416,2.2206 1.56629,-1.1107 -1.78366,1.2572 4.37508,-2.5606 1.26449,-0.7838 -2.5743,1.4922 -3.86603,2.2303 -0.0594,0.034 0.10899,-0.083 0.16825,-0.1173 4.23774,-2.44 2.64921,-2.0598 4.45409,-2.4657 0.30975,-0.045 0.16603,-6e-4 0.43341,-0.1262 0,0 -3.71911,2.897 -3.71911,2.897 l 0,0 c -0.29364,0.071 -0.14932,0.028 -0.43303,0.1268 -0.0637,0.032 -0.25261,0.1304 -0.1912,0.095 1.28238,-0.7485 2.5703,-1.4874 3.85451,-2.2328 0.0579,-0.034 -0.11773,0.064 -0.17553,0.098 -1.3996,0.8181 -2.81767,1.6057 -4.19662,2.4582 -1.20736,0.7464 5.31449,-3.2101 3.68554,-2.1332 -2.29924,1.3418 -3.21324,2.3763 -5.33381,2.7401 -1.50827,0.4652 -3.61423,2.035 3.34013,-2.0313 0.075,-0.044 -0.15864,0.072 -0.23325,0.116 -0.1974,0.1175 -0.27241,0.199 -0.44564,0.3522 -1.75925,1.0897 -3.4301,2.6269 -5.52292,2.8911 -0.52901,0.066 -1.04299,0.1856 -1.52596,0.4195 -0.52424,0.189 -1.04194,0.3905 -1.59391,0.4891 -0.73471,0.126 -1.47281,0.1796 -2.21871,0.1652 0,0 3.81137,-2.7692 3.81137,-2.7692 z"
       inkscape:connector-curvature="0" />
    <path
       style="fill:#aade87;fill-opacity:1;stroke:none;stroke-opacity:1"
       id="path3563"
       d="m 210.15736,1017.9899 c -0.47761,0.5644 -1.05169,1.0342 -1.57933,1.5497 -0.094,0.09 -0.38574,0.3788 -0.50478,0.4494 -1.41747,0.8403 -2.84987,1.6552 -4.2781,2.4771 -0.0685,0.039 -0.28024,0.1463 -0.21183,0.1067 1.30763,-0.7573 2.63763,-1.4766 3.92982,-2.2599 0.0301,-0.018 -0.0446,-0.055 -0.0669,-0.082 -0.0389,-0.096 -0.10482,-0.184 -0.11657,-0.2864 -0.009,-0.076 0.86048,-0.048 0.95088,-0.048 0.4818,0.016 0.92285,-0.1772 1.35256,-0.3649 0.39762,-0.1438 0.75591,-0.3736 1.13394,-0.5634 0.21462,-0.043 0.36665,-0.1868 0.55858,-0.2824 0,0 -3.6762,2.9556 -3.6762,2.9556 l 0,0 c -0.18342,0.1039 -0.37545,0.1782 -0.55898,0.2818 -0.37108,0.207 -0.76708,0.3703 -1.16319,0.5227 -0.46421,0.1696 -0.95893,0.2329 -1.45231,0.2176 -0.22505,8e-4 -0.94393,0.062 -1.1105,-0.1082 -0.0979,-0.1002 -0.15842,-0.2311 -0.23763,-0.3466 -0.008,-0.059 -0.0748,-0.1465 -0.0239,-0.1783 1.35735,-0.8487 2.76973,-1.606 4.15655,-2.4056 0.0635,-0.037 0.25731,-0.1401 0.19416,-0.103 -1.24664,0.7328 -2.49579,1.4613 -3.74479,2.19 -0.19086,0.1113 0.79642,-0.4586 0.5422,-0.3814 0.50944,-0.5138 1.04651,-0.9895 1.57006,-1.4874 0,0 4.33627,-1.8527 4.33627,-1.8527 z"
       inkscape:connector-curvature="0" />
    <path
       style="fill:#aade87;fill-opacity:1;stroke:none;stroke-opacity:1"
       id="path3565"
       d="m 197.35828,1011.4215 c 0.70699,-0.046 1.45025,-0.067 2.14676,0.083 0.49994,0.1749 1.04254,0.1474 1.54265,0.3021 0.45453,0.085 0.87289,0.2646 1.31465,0.3909 0.49114,0.094 0.88841,0.4366 1.32213,0.6697 0.47729,0.1957 0.89439,0.5021 1.3785,0.6841 0.46043,0.1323 0.89685,0.332 1.33071,0.5324 0.38947,0.19 0.75387,0.3597 1.18752,0.428 0.51493,0.059 1.03435,0.057 1.5519,0.058 0.59122,-0.036 1.15686,0.016 1.71667,0.2114 0.54649,0.1773 1.05659,0.4907 1.5249,0.8216 0.41614,0.2144 0.69711,0.5597 0.98894,0.9096 0.32519,0.3161 0.71382,0.4419 1.15011,0.517 0.52263,0 1.01509,0.1223 1.52274,0.2263 0.39646,0.2488 0.87139,0.2578 1.29387,0.4222 0.47546,0.1294 0.73203,0.4435 0.68206,0.9333 -1.16703,1.6475 -3.27452,2.6739 -5.27417,2.8842 -0.45328,0.2195 -0.96631,0.2008 -1.4364,0.3478 -0.34804,0.1373 -0.73336,0.1147 -1.09109,0.1957 -0.15806,0.036 -0.30557,0.1083 -0.46009,0.1572 -0.46616,0.074 -0.8717,0.2905 -1.33663,0.3765 -0.0818,0.01 -0.1636,0.02 -0.2454,0.031 0,0 3.76001,-2.8361 3.76001,-2.8361 l 0,0 c 0.0763,-0.019 0.1527,-0.037 0.22905,-0.055 0.44019,-0.1381 0.87253,-0.29 1.32441,-0.3889 0.51479,-0.1322 1.05015,-0.1763 1.56036,-0.3334 0.49191,-0.084 0.96842,-0.2196 1.45602,-0.3207 0.20004,-0.046 0.29963,-0.06 0.4892,-0.1372 0.0729,-0.03 0.2802,-0.1441 0.21229,-0.1041 -6.3711,3.7518 -4.96079,2.7909 -3.5244,2.0862 0.51434,2e-4 -0.11586,-0.1024 -0.24286,-0.1847 -0.43073,-0.1037 -0.8453,-0.2427 -1.26372,-0.3847 -0.50542,-0.1102 -1.01743,-0.137 -1.52443,-0.2372 -0.50615,-0.1462 -0.9701,-0.3709 -1.32827,-0.7696 -0.25756,-0.3205 -0.54472,-0.593 -0.90786,-0.7972 -0.45301,-0.2868 -0.90338,-0.5864 -1.43515,-0.7038 -0.5447,-0.1168 -1.09127,-0.1165 -1.64682,-0.1067 -0.54004,-0.01 -1.08497,-0.016 -1.61499,-0.1317 -0.44008,-0.1196 -0.83494,-0.3271 -1.24952,-0.5126 -0.42631,-0.201 -0.87337,-0.3547 -1.31294,-0.5239 -0.47796,-0.2237 -0.92765,-0.5015 -1.40503,-0.727 -0.40926,-0.2353 -0.80663,-0.493 -1.27784,-0.5845 -0.42522,-0.1458 -0.85563,-0.2629 -1.29362,-0.3656 -0.50676,-0.081 -1.01136,-0.1656 -1.51162,-0.2816 -0.68879,-0.072 -1.39051,-0.087 -2.07388,0.041 0,0 3.77128,-2.8227 3.77128,-2.8227 z"
       inkscape:connector-curvature="0" />
    <path
       style="fill:#aade87;fill-opacity:1;stroke:none;stroke-opacity:1"
       id="path3567"
       d="m 203.54079,1021.8459 c 0.7426,0.072 1.46245,-0.032 2.1919,-0.1492 0.55007,-0.1323 1.13837,-0.027 1.67769,-0.1869 1.42683,-0.54 4.35723,-2.4317 -3.26428,1.9212 -0.13119,0.075 0.25458,-0.1642 0.37056,-0.261 1.44433,-1.1548 3.23099,-1.9098 4.76582,-2.8532 1.20275,-0.7393 -4.85973,2.873 -3.67678,2.1024 2.48173,-1.6984 3.2473,-2.46 5.49709,-2.5305 0.36933,-0.01 0.73878,-0.01 1.10818,-0.01 0,0 -3.80286,2.7644 -3.80286,2.7644 l 0,0 c -0.36501,0 -0.73035,0 -1.09468,0.03 -1.86,0.1686 -4.16862,1.9389 2.69431,-1.9501 -1.70039,0.8845 1.58216,-0.8268 -4.39783,2.5455 -1.28903,0.7269 2.55597,-1.4924 3.8352,-2.2364 0.0627,-0.036 -0.1276,0.07 -0.1856,0.1137 -0.38365,0.2883 0.0522,0.035 -0.37191,0.2612 -0.12374,0.099 -0.20698,0.2478 -0.34317,0.3286 -1.38298,0.8212 -3.0828,2.2883 -4.89498,2.6031 -0.55924,0.037 -1.11865,0.074 -1.67199,0.1681 -0.74713,0.1018 -1.49483,0.1024 -2.24804,0.1045 0,0 3.81137,-2.7691 3.81137,-2.7691 z"
       inkscape:connector-curvature="0" />
    <path
       style="fill:#aade87;fill-opacity:1;stroke:none;stroke-opacity:1"
       id="path3569"
       d="m 216.96612,1018.1442 c 0.67084,-0.1935 1.34668,-0.3292 2.00853,-0.5502 0.35872,-0.1177 0.73245,-0.1622 1.10625,-0.1974 0,0 -3.76881,2.8142 -3.76881,2.8142 l 0,0 c -0.35623,0.061 -0.7081,0.1395 -1.05034,0.2579 -0.67887,0.2012 -1.37802,0.3373 -2.06691,0.4982 0,0 3.77128,-2.8227 3.77128,-2.8227 z"
       inkscape:connector-curvature="0" />
    <path
       style="fill:#c6e9af;fill-opacity:1;stroke:none;stroke-opacity:1"
       d="m 120.70833,36.32056 0,-15.068375 7.91316,0.187747 c 28.37444,0.673208 52.96007,3.359554 65.83277,7.19321 1.07373,0.319771 2.97598,0.615874 4.24947,0.661471 2.35948,0.08448 4.17108,0.507168 4.91776,1.147427 0.94945,0.814127 3.74746,1.809786 5.08587,1.809786 1.64599,0 3.04188,0.540312 4.33963,1.679748 0.52698,0.462693 1.25303,0.841261 1.61346,0.841261 0.36042,0 1.20263,0.193103 1.87156,0.429117 0.71726,0.253064 1.56489,0.355878 2.06603,0.250602 0.97842,-0.20554 0.9149,-0.125425 -1.20531,1.520077 -1.55852,1.209571 -3.2917,1.836637 -7.46872,2.702196 -1.23249,0.255397 -3.06022,0.836396 -4.06162,1.29111 -1.02418,0.465059 -2.67855,0.933776 -3.78151,1.071384 -1.07844,0.134547 -3.10148,0.630772 -4.49566,1.102723 -13.13185,4.445329 -38.89185,7.53441 -67.28306,8.068438 l -9.59383,0.180453 0,-15.068375 z m 88.30532,1.067882 c -0.19258,-0.07771 -0.5077,-0.07771 -0.70028,0 -0.19258,0.07771 -0.035,0.141285 0.35014,0.141285 0.38515,0 0.54272,-0.06358 0.35014,-0.141285 z"
       id="path3597"
       inkscape:connector-curvature="0"
       transform="translate(0,982.36216)" />
    <rect
       style="fill:#c6e9af;fill-opacity:1;stroke:#000000;stroke-opacity:1"
       id="rect3599"
       width="45.098042"
       height="21.288488"
       x="0.28011206"
       y="982.89441"
       ry="0.28011206" />
    <rect
       style="fill:#c6e9af;fill-opacity:1;stroke:#000000;stroke-opacity:1"
       id="rect3599-8"
       width="45.938377"
       height="19.327732"
       x="-0.14005685"
       y="1033.1746" />
    <ellipse
       style="fill:#eef4d7;fill-opacity:1;stroke:#000000;stroke-opacity:1"
       id="path3616"
       cx="127.31092"
       cy="1018.4685"
       rx="22.829132"
       ry="13.445378" />
    <ellipse
       style="fill:#e9afaf;fill-opacity:1;stroke:none;stroke-opacity:1"
       id="path4194"
       cx="125.25551"
       cy="1016.7662"
       rx="5.2857141"
       ry="4.8571429" />
    <path
       style="fill:#550000;fill-opacity:1;stroke:none;stroke-opacity:1"
       id="path4203"
       d="m 123.80687,1011.6734 c 0.65045,-0.2137 1.3251,-0.3251 2.00571,-0.3789 0.67848,-0.015 1.37112,-0.1196 2.04355,0 0.4631,0.1521 0.77403,0.5022 1.12516,0.8138 0.36679,0.2423 0.82028,0.2495 1.24521,0.2724 0.27392,0.011 0.54809,0.012 0.82218,0.013 0,0 -3.41269,2.473 -3.41269,2.473 l 0,0 c -0.2812,0 -0.56266,-0.01 -0.84302,-0.035 -0.50925,-0.056 -1.01467,-0.1446 -1.41242,-0.4955 -0.28325,-0.2667 -0.55993,-0.5462 -0.96395,-0.6049 -0.65612,-0.036 -1.31577,0.01 -1.96951,0.065 -0.67426,0.092 -1.34614,0.2226 -1.97259,0.4987 0,0 3.33237,-2.6204 3.33237,-2.6204 z"
       inkscape:connector-curvature="0" />
    <path
       style="fill:#550000;fill-opacity:1;stroke:none;stroke-opacity:1"
       id="path4205"
       d="m 120.40994,1014.0404 c 0.35957,-0.4508 0.82875,-0.7964 1.25444,-1.1813 1.50409,-1.3623 3.16257,-2.3848 5.1097,-2.4745 0.56758,-0.015 1.13548,-0.01 1.70318,0 0.55729,-0.058 1.03168,0.09 1.52225,0.328 0.44638,0.1373 0.75608,0.4794 1.10932,0.7604 0.25472,0.1468 0.12205,0.083 0.39829,0.1915 0,0 -3.52206,2.3307 -3.52206,2.3307 l 0,0 c -0.31717,-0.1687 -0.16502,-0.076 -0.45686,-0.2776 -0.32481,-0.2706 -0.6483,-0.5296 -1.05595,-0.668 -0.44983,-0.1951 -0.91863,-0.2092 -1.40487,-0.1898 -0.56166,0 -1.12456,-0.01 -1.68484,0.037 -0.25693,0.031 -0.51045,0.062 -0.75514,0.1517 -0.0761,0.028 -0.29206,0.1397 -0.22232,0.098 2.99603,-1.7738 4.58545,-2.5958 3.17209,-1.8609 -0.44255,0.3364 -0.83591,0.7347 -1.27102,1.0807 0,0 -3.89621,1.6791 -3.89621,1.6791 z"
       inkscape:connector-curvature="0" />
    <path
       style="fill:#550000;fill-opacity:1;stroke:none;stroke-opacity:1"
       id="path4207"
       d="m 123.28846,1013.974 c -0.0169,0.574 -0.0407,1.1505 1.7e-4,1.7239 0.29893,1.4264 0.0645,0.2158 -3.78502,1.8624 -0.0564,0.024 0.004,-0.1225 0.006,-0.1838 0.006,-0.2449 0.008,-0.4898 0.009,-0.7348 -0.009,-0.5839 -0.034,-1.1555 0.19222,-1.7031 0.99866,-1.4137 0.0754,-0.1679 3.95521,-2.4552 0.13292,-0.078 0.54796,-0.2834 0.41465,-0.2058 -4.4702,2.6054 -4.50862,2.6324 -3.2556,1.8537 4.98092,-2.8211 5.1027,-2.8962 0.38033,-0.1989 0,0 3.94948,-1.5217 3.94948,-1.5217 l 0,0 c -4.95753,2.8424 -5.07947,2.9182 -0.38041,0.2021 -1.4783,0.8105 -0.0465,0.024 -3.99841,2.3019 -0.13177,0.076 -0.52834,0.3015 -0.39766,0.2237 3.29263,-1.9604 4.55291,-2.6528 3.19691,-1.9049 -0.39613,0.4153 -0.30098,0.9573 -0.29761,1.4928 0.0171,2.196 0.22579,0.8551 -3.78176,2.9671 -0.0207,0.011 0.008,-0.046 0.0119,-0.069 0.0382,-0.5737 0.0195,-1.15 1.7e-4,-1.7241 0,0 3.78017,-1.926 3.78017,-1.926 z"
       inkscape:connector-curvature="0" />
    <rect
       style="fill:#f4e3d7;fill-opacity:1;stroke:none;stroke-opacity:1"
       id="rect4213"
       width="7.4285746"
       height="6.5715227"
       x="122.25552"
       y="1024.1948" />
    <path
       style="fill:none;fill-rule:evenodd;stroke:#000000;stroke-width:1px;stroke-linecap:butt;stroke-linejoin:miter;stroke-opacity:1"
       d="m 125.68409,1021.052 c -0.0952,0.3809 -0.2087,0.7578 -0.28571,1.1428 -0.0239,0.1194 0.0218,1.4286 0,1.4286 -0.0952,0 0,-0.381 0,-0.2857 0,1.4289 0,0.388 0,1.4286"
       id="path4215"
       inkscape:connector-curvature="0" />
    <path
       style="fill:none;fill-rule:evenodd;stroke:#000000;stroke-width:1px;stroke-linecap:butt;stroke-linejoin:miter;stroke-opacity:1"
       d="m 130.25552,1025.9091 c 0.38095,-0.1905 0.7474,-0.4132 1.14286,-0.5714 0.11859,-0.047 1.21795,0 1.42857,0 0.0952,0 0.19047,0 0.28571,0 0.0952,0 0.28572,-0.095 0.28572,0 0,0.095 -0.38096,0 -0.28572,0 0.19048,0 0.38095,0 0.57143,0 0.19048,0 0.7619,0 0.57143,0 -0.19048,0 -0.38095,0 -0.57143,0"
       id="path4217"
       inkscape:connector-curvature="0" />
    <path
       style="fill:none;fill-rule:evenodd;stroke:#000000;stroke-width:1px;stroke-linecap:butt;stroke-linejoin:miter;stroke-opacity:1"
       d="m 137.68409,1024.7663 c 0,-0.095 0.0952,-0.2858 0,-0.2858 -0.0952,0 0.0673,0.2188 0,0.2858 -0.0673,0.067 -0.21841,-0.067 -0.28571,0 -0.0674,0.067 0.0673,0.2187 0,0.2857 -0.0674,0.067 -0.19052,0 -0.28572,0 -0.67839,0 -0.19332,-0.023 -1.42857,0.2857 -0.75968,3.5403 1.26253,0.4054 1.71429,0.8571 0.0673,0.067 -0.0674,0.2184 0,0.2857 0.13468,0.1347 0.43674,-0.1346 0.57142,0 0.0674,0.067 -0.0673,0.2184 0,0.2858 0.0674,0.067 0.21838,-0.067 0.28572,0 0.0673,0.067 0,0.1904 0,0.2857 0,0.095 0,0.1905 0,0.2857 0,0.095 0,0.3809 0,0.2857 0,-0.1905 0,-0.3809 0,-0.5714"
       id="path4219"
       inkscape:connector-curvature="0" />
    <path
       style="fill:none;fill-rule:evenodd;stroke:#000000;stroke-width:1px;stroke-linecap:butt;stroke-linejoin:miter;stroke-opacity:1"
       d="m 135.11266,1025.052 c 0,0.5714 0,1.1428 0,1.7143 0,0.095 -0.0426,0.2005 0,0.2857 0.0602,0.1204 0.22548,0.1652 0.28572,0.2857 0.0852,0.1704 -0.13469,0.4367 0,0.5714 0.0673,0.067 0.21837,-0.067 0.28571,0 0.009,0.01 0,0.7879 0,0.8572 0,0.095 0.0952,0.2857 0,0.2857 -0.0952,0 0,-0.1905 0,-0.2857"
       id="path4221"
       inkscape:connector-curvature="0" />
    <path
       style="fill:none;fill-rule:evenodd;stroke:#000000;stroke-width:1px;stroke-linecap:butt;stroke-linejoin:miter;stroke-opacity:1"
       d="m 123.11266,1026.4805 c -0.19047,0.381 -0.41325,0.7474 -0.57143,1.1429 -0.0513,0.1282 0,0.6957 0,0.8571 0,1.0543 0,0.566 0,1.7143 0,0.08 0,1.7743 0,0.8572"
       id="path4223"
       inkscape:connector-curvature="0" />
    <path
       style="fill:none;fill-rule:evenodd;stroke:#000000;stroke-width:1px;stroke-linecap:butt;stroke-linejoin:miter;stroke-opacity:1"
       d="m 125.11266,1018.4805 c 0.38095,0.1905 0.80212,0.3159 1.14286,0.5715 0.0762,0.057 -0.0673,0.2183 0,0.2857 0.0673,0.067 0.21837,-0.067 0.28571,0 0.0674,0.067 -0.0673,0.2184 0,0.2857 0.0674,0.067 0.19048,0 0.28572,0 0.0693,0 0.84795,0.01 0.85714,0 0.0673,-0.067 -0.0952,-0.2857 0,-0.2857 0.0952,0 -0.0952,0.2857 0,0.2857 0.59454,0 0.11496,-0.4007 0.28571,-0.5714 0.0674,-0.067 0.21838,0.067 0.28572,0 0.0673,-0.067 -0.0952,-0.2857 0,-0.2857 0.0952,0 0,0.1904 0,0.2857"
       id="path4225"
       inkscape:connector-curvature="0" />
    <path
       style="fill:none;fill-rule:evenodd;stroke:#000000;stroke-width:1px;stroke-linecap:butt;stroke-linejoin:miter;stroke-opacity:1"
       d="m 125.9698,1015.9091 0.57143,0.2857"
       id="path4227"
       inkscape:connector-curvature="0" />
    <path
       style="fill:none;fill-rule:evenodd;stroke:#000000;stroke-width:1px;stroke-linecap:butt;stroke-linejoin:miter;stroke-opacity:1"
       d="m 129.11266,1016.1948 0,-0.5714"
       id="path4229"
       inkscape:connector-curvature="0" />
    <path
       style="fill:none;fill-rule:evenodd;stroke:#000000;stroke-width:1px;stroke-linecap:butt;stroke-linejoin:miter;stroke-opacity:1"
       d="m 126.82695,1017.6234 0,-0.1429"
       id="path4231"
       inkscape:connector-curvature="0" />
    <rect
       style="fill:#ff0000;fill-opacity:1;stroke:#000000;stroke-opacity:1"
       id="rect4472"
       width="5.8823528"
       height="4.7619047"
       x="65.266106"
       y="1004.1829" />
    <rect
       style="fill:#ff0000;fill-opacity:1;stroke:#000000;stroke-opacity:1"
       id="rect4472-6"
       width="5.8823528"
       height="4.7619047"
       x="65.126053"
       y="1012.4463" />
    <rect
       style="fill:#ff0000;fill-opacity:1;stroke:#000000;stroke-opacity:1"
       id="rect4472-3"
       width="5.8823528"
       height="4.7619047"
       x="65.126045"
       y="1020.8497" />
    <rect
       style="fill:#ff0000;fill-opacity:1;stroke:#000000;stroke-opacity:1"
       id="rect4472-8"
       width="5.8823528"
       height="4.7619047"
       x="65.126045"
       y="1028.4126" />
    <path
       style="fill:#ff0000;fill-opacity:1;stroke:none;stroke-opacity:1"
       id="path4501"
       d="m 3.4594332,1007.922 c 0.8506323,0.014 1.7016346,0.01 2.5524038,0.01 0.7450922,0.031 1.0545434,0.4563 1.2133603,0.9159 0.1384546,0.3593 -0.012081,0.7499 0.163364,1.1001 0.2786797,0.2111 0.6885975,0.3038 1.0553156,0.4181 0.4932965,0.1969 0.6604671,0.5467 0.7568321,0.9192 0.061484,0.3498 0.1987269,0.6176 0.6056106,0.8266 0.186837,0.06 0.4045564,0.1551 0.6212204,0.1082 0.05574,-0.012 0.197308,-0.088 0.146263,-0.068 -1.1877614,0.4638 -4.7428925,1.8657 -3.5570712,1.3994 0.295774,-0.2267 0.3806733,-0.5233 0.5455498,-0.7978 0.2090458,-0.2449 0.4609592,-0.4721 0.6348203,-0.7309 0.1456301,-0.3093 0.2329331,-0.6484 0.1118881,-0.9675 -0.1488806,-0.2749 -0.2799941,-0.579 -0.621498,-0.7636 -0.4088654,-0.1288 -0.8727376,-0.1205 -1.3120099,-0.1275 -0.5557461,-0.01 -1.111529,4e-4 -1.6672761,0 -0.5617502,0 -1.1235077,0 -1.6852636,0 -0.4932742,0.014 -0.9678406,0.1242 -1.4626029,0.163 -0.5058708,0.07 -0.96324415,0.2266 -1.45299284,0.33 0,0 3.50017264,-1.9287 3.50017264,-1.9287 l 0,0 c 0.486721,-0.128 0.9868842,-0.2286 1.5013315,-0.2837 0.495808,-0.059 0.9851848,-0.154 1.4934482,-0.1254 0.5613503,-5e-4 1.1227005,0 1.6840433,-0.01 0.560735,0 1.1218602,-0.01 1.682282,0.01 0.5268597,0.025 1.0643417,0.06 1.4920347,0.303 0.35851,0.256 0.567095,0.5748 0.734278,0.9131 0.177793,0.3783 0.141344,0.7591 0.02352,1.1465 -0.116266,0.3012 -0.344883,0.5408 -0.590852,0.7948 -0.320187,0.2255 -0.243999,0.5652 -0.5333,0.811 -0.655185,1.349 -3.4067937,2.2875 -5.0420214,1.4826 -0.447872,-0.282 -0.6804421,-0.6018 -0.7673496,-1.0245 -0.054188,-0.2848 -0.1292021,-0.5315 -0.5372791,-0.6539 -0.4651001,-0.1595 -0.9604112,-0.2938 -1.2372707,-0.6255 -0.2046102,-0.3699 -0.1181208,-0.7554 -0.1854406,-1.1442 -0.1069399,-0.4103 -0.2436557,-0.566 -0.8757402,-0.5652 -0.8571108,0 -1.7144342,-0.01 -2.57141655,0.01 0,0 3.58164635,-1.8456 3.58164635,-1.8456 z"
       inkscape:connector-curvature="0" />
    <path
       style="fill:#ff0000;fill-opacity:1;stroke:none;stroke-opacity:1"
       id="path4503"
       d="m 8.3548815,1021.7912 c -1.1750456,0.1089 -2.3558009,0.14 -3.535086,0.1661 -1.4020014,0.029 -2.8043645,0.024 -4.20656242,0.033 -0.93536128,0.01 -1.87073198,0.011 -2.80610138,0.016 0.020716,0.2139 -1.4690355,-0.2425 -1.1009919,-0.5056 1.2299394,-0.8794 2.57884187,-1.5793 3.8682628,-2.3689 0.5272109,0.017 1.0560293,0 1.5837944,-0 0.6040118,-0 1.2080294,-0 1.8120441,-0 0.5641041,3e-4 1.1282084,4e-4 1.6923126,5e-4 0.5266665,-0.055 1.0229624,0.1158 1.5361839,0.1979 0.5136895,0.069 1.0328472,0.075 1.5502511,0.082 0.2646306,-0.01 0.5294432,0.044 0.783389,-0.057 0.073402,-0.029 0.2763125,-0.153 0.2075422,-0.1142 -3.709712,2.093 -4.7702611,2.7942 -3.4361888,1.9194 0.2394829,-0.2543 0.5376813,-0.5215 0.494693,-0.9002 -0.018605,-0.1594 -0.141242,-0.2567 -0.2063452,-0.394 -0.6681726,-1.4089 2.4713279,-1.9146 3.8096131,-2.7149 0.03448,-0.01 0.13286,-0.038 0.103434,-0.019 -1.2403816,0.8015 -2.4992998,1.5741 -3.7429488,2.3705 -0.025596,0.016 -0.032439,0.061 -0.062398,0.066 -0.2587083,0.044 -0.6360731,-0.05 -0.8954268,-0.064 -0.7851423,-0.028 -1.571136,-0.027 -2.3567018,-0.026 -0.3722044,0.032 -0.7546823,-0.033 -1.1262114,0.01 -0.2183064,0.023 -0.2357025,0.051 -0.3977935,0.1437 1.2770229,-0.8103 2.5540457,-1.6206 3.8310686,-2.4309 0.6510901,0.2387 1.3213941,0.387 2.0080878,0.4739 0.5265343,0.1599 1.1691461,0.1306 1.5733238,0.5498 0.9141861,1.564 -3.1066725,3.3348 -4.567708,2.4865 -1.4057533,-1.5618 2.2839387,-2.8645 4.0235398,-2.9574 0.5373564,-0.026 1.0755443,-0.024 1.6133783,-0.024 0.09458,2e-4 0.189159,3e-4 0.283738,5e-4 0,0 -3.579049,2.6005 -3.579049,2.6005 l 0,0 c -0.094336,3e-4 -0.188672,5e-4 -0.283008,7e-4 -0.5285717,0 -1.0617061,-7e-4 -1.5843935,0.088 -1.3012309,0.3641 -4.96992804,3.4004 3.3288766,-2.0904 0.060283,-0.04 -0.2425626,-0.1561 -0.1775211,-0.1246 0.022462,0.011 0.044485,0.023 0.066727,0.034 0.1627525,0.02 0.3382016,0.017 0.4935714,-0.048 0.045135,-0.019 0.1618422,-0.1098 0.1205318,-0.084 -3.7144561,2.353 -4.6473197,1.2712 -3.5346832,2.4577 -0.3992033,-0.2531 -0.9449438,-0.2137 -1.3835379,-0.3513 -0.7267453,-0.126 -1.4573196,-0.2925 -2.126475,-0.6108 3.5598004,-2.8036 2.2657747,-2.7311 4.9751799,-2.7058 0.7937225,9e-4 1.5881278,-0.01 2.3806772,0.046 2.8066398,0.2321 0.6427678,1.2993 -2.4746894,2.9833 1.2279727,-0.7442 2.4797864,-1.4505 3.6839182,-2.2327 0.144203,-0.094 -0.163944,-0.1169 -0.147324,-0.052 0.04654,0.1827 0.250621,0.3067 0.262497,0.5071 0.149929,0.486 0.04996,0.936 -0.315,1.3035 -1.0918473,1.7394 -3.2674965,2.656 -5.2321855,2.5556 -0.5336342,-0.015 -1.0690764,-0.036 -1.5952462,-0.1335 -0.4931136,-0.094 -0.9790791,-0.1831 -1.4851237,-0.1397 -0.5637217,-3e-4 -1.12744358,-6e-4 -1.69116434,-0 -0.60135922,-0 -1.20274029,-0 -1.80408576,0 -0.5018644,0.01 -1.0554854,-0.038 -1.526432,0.152 1.2285247,-0.7667 2.50682036,-1.459 3.68557403,-2.3002 0.0729227,-0.052 -0.1172596,-0.1369 -0.16155606,-0.2148 -0.006681,-0.012 0.0271303,-1e-4 0.0404877,0 0.24824132,0.038 0.49608093,0.06 0.74849313,0.046 0.9194059,0.01 1.8388037,0.013 2.7582163,0.018 1.3964325,0.01 2.7930375,-0 4.1891406,-0.034 1.1967033,-0.038 2.3987038,-0.072 3.5828328,-0.264 0,0 -3.5494415,2.6566 -3.5494415,2.6566 z"
       inkscape:connector-curvature="0" />
    <path
       style="fill:#ff0000;fill-opacity:1;stroke:none;stroke-opacity:1"
       id="path4505"
       d="m 6.9047125,1027.0526 c -1.0695362,-0.026 -2.1396181,-0.018 -3.2093983,-0.018 -0.7893227,0.087 -1.6964101,-0.1912 -2.42701,0.1855 1.2096325,-0.6795 2.4192651,-1.359 3.6288976,-2.0386 -0.1504511,0.1001 -0.1768102,0.092 -0.2662291,0.2555 -0.1283566,0.2354 -0.211496,0.5002 -0.3341061,0.7403 -0.973256,1.4137 -2.4566755,1.7196 -4.2935289,2.5039 -0.20054758,0.086 -0.22346091,-0.4479 -0.12460876,-0.6422 0.05111795,-0.1005 0.15154662,-0.167 0.22731993,-0.2506 1.99539973,-1.7058 4.17783973,-2.7005 6.66843523,-2.983 0.7405457,-0.075 1.4851812,-0.082 2.228725,-0.082 0.5792819,0.016 1.1456259,0.1683 1.7232059,0.2316 0.504565,0.111 0.933331,0.3694 1.338906,0.6797 0.397209,0.3612 0.699138,0.8204 0.465951,1.3503 -2.7966098,1.9942 -3.0106668,2.311 -5.2853653,2.3182 -0.5660016,-0 -1.1319904,-0.01 -1.6979901,-0.01 -0.5617126,-0 -1.1234291,-0 -1.6851444,-0 -0.5602283,-10e-5 -1.1204565,-10e-5 -1.6806847,0 -0.7059457,0.056 -1.0073616,-0.074 -1.55618249,-0.4873 -0.38005769,-0.2696 -0.83754459,-0.3082 -1.28782588,-0.34 -0.26633314,-0.015 -0.53309583,-0.016 -0.79973863,-0.019 0,0 3.5857142,-2.5941 3.5857142,-2.5941 l 0,0 c 0.2753146,0.01 0.5510085,0.016 0.8248567,0.048 0.5128838,0.073 1.0050385,0.201 1.4210209,0.5277 0.427197,0.2962 0.8828139,0.2875 1.3918074,0.2634 0.5602681,0 1.1205363,-10e-5 1.6808044,2e-4 0.5619388,5e-4 1.1238786,0 1.6858117,0 0.564318,0 1.1287262,0.01 1.6930062,-6e-4 1.99848,-0.066 3.348826,-1.3196 -2.4191401,1.9465 0.6116712,-0.019 0.1688449,-0.4085 -0.074575,-0.6316 -0.3726574,-0.2471 -0.7605036,-0.4515 -1.2131685,-0.5 -0.5601251,-0.08 -1.1164954,-0.2153 -1.6860814,-0.1888 -0.7231626,0 -1.4477126,0.015 -2.1663559,0.1044 -0.4998298,0.071 -0.992415,0.1515 -1.4772843,0.2973 -0.1720944,0.052 -0.6618466,0.2704 -0.5104727,0.1735 2.5041665,-1.6024 4.5393876,-2.531 2.9212474,-1.7807 -0.08586,0.063 -0.2567302,0.261 -0.4102803,0.164 -0.076523,-0.048 -0.088117,-0.2518 -0.1695547,-0.2122 -7.7370299,3.757 -4.54772729,2.7487 -3.36971162,1.8943 0.23391479,-0.2995 0.29619452,-0.5767 0.41690153,-0.9267 0.52245759,-1.5145 3.84882819,-2.3785 4.10645669,-2.5261 0.8123665,-0.1184 1.6401101,-0.01 2.4576921,-0.041 1.0864272,-10e-5 2.1731251,0.01 3.2593238,-0.018 0,0 -3.5816465,2.6022 -3.5816465,2.6022 z"
       inkscape:connector-curvature="0" />
    <path
       style="fill:#ff0000;fill-opacity:1;stroke:none;stroke-opacity:1"
       id="path4507"
       d="m 7.2683415,1009.1565 c 0.022024,-0.7151 0.066504,-1.4391 -0.1263364,-2.1351 -0.02813,-0.081 -0.05626,-0.1613 -0.08439,-0.2419 0,0 3.8751929,-2.1403 3.8751929,-2.1403 l 0,0 c 0.03062,0.089 0.06125,0.1777 0.09187,0.2665 0.212051,0.7309 0.179572,1.4834 0.194374,2.2378 0,0 -3.9507119,2.013 -3.9507119,2.013 z"
       inkscape:connector-curvature="0" />
    <path
       style="fill:#ffff00;fill-opacity:1;stroke:none;stroke-opacity:1"
       id="path4509"
       d="m 10.722248,1020.859 c 0.389561,0.6156 0.863503,1.1641 1.265079,1.7721 0.06378,0.093 0.127564,0.1849 0.191346,0.2773 0,0 -3.803255,2.2366 -3.803255,2.2366 l 0,0 c -0.065522,-0.095 -0.1310448,-0.1902 -0.1965671,-0.2854 -0.3918747,-0.5981 -0.8346669,-1.1538 -1.2661023,-1.7237 0,0 3.8094994,-2.2769 3.8094994,-2.2769 z"
       inkscape:connector-curvature="0" />
    <path
       style="fill:#ffff00;fill-opacity:1;stroke:none;stroke-opacity:1"
       id="path4511"
       d="m 12.899726,1024.1392 c -0.01536,0.5002 -0.0098,0.2419 -0.01588,0.7748 0,0 -3.9189568,1.9968 -3.9189568,1.9968 l 0,0 c -0.0061,-0.5242 -4.359e-4,-0.2714 -0.015877,-0.7586 0,0 3.9507118,-2.013 3.9507118,-2.013 z"
       inkscape:connector-curvature="0" />
    <path
       style="fill:#ffff00;fill-opacity:1;stroke:none;stroke-opacity:1"
       id="path4513"
       d="m 11.271827,1028.6501 c 0.359674,0.027 0.673728,0.1616 0.991058,0.3192 0,0 -3.6761857,2.448 -3.6761857,2.448 l 0,0 c -0.2946616,-0.1054 -0.5836363,-0.185 -0.9020439,-0.161 0,0 3.5871716,-2.6062 3.5871716,-2.6062 z"
       inkscape:connector-curvature="0" />
    <ellipse
       style="fill:#ffff00;fill-opacity:1;stroke:none;stroke-opacity:1"
       id="path4515"
       cx="210.92436"
       cy="1018.3286"
       rx="2.8011205"
       ry="2.3809524" />
    <path
       style="fill:#280b0b;fill-opacity:1;stroke:none;stroke-opacity:1"
       id="path4517"
       d="m 8.3360164,1016.6905 c -0.7785527,-0.018 -1.55745,-0.011 -2.336137,-0.01 -0.6395988,0.059 -1.253016,-0.047 -1.8794278,-0.1518 -0.4762955,-0.1241 -0.8991758,-0.3711 -1.3579156,-0.5359 0,0 3.6859339,-2.4693 3.6859339,-2.4693 l 0,0 c 0.4197271,0.1838 0.8378741,0.3785 1.2919363,0.4644 0.606076,0.099 1.2111093,0.1208 1.8252811,0.1019 0.7858117,0 1.5718147,0.01 2.3575007,-0.01 0,0 -3.5871716,2.6062 -3.5871716,2.6062 z"
       inkscape:connector-curvature="0" />
    <path
       style="fill:none;fill-rule:evenodd;stroke:#000000;stroke-width:1px;stroke-linecap:butt;stroke-linejoin:miter;stroke-opacity:1"
       d="m 203.70193,1022.8183 1.41422,10.2531"
       id="path4210"
       inkscape:connector-curvature="0" />
    <path
       style="fill:none;fill-rule:evenodd;stroke:#000000;stroke-width:1px;stroke-linecap:butt;stroke-linejoin:miter;stroke-opacity:1"
       d="m 200.8735,1023.1719 c 0,0.7071 0,1.4142 0,2.1213 0,1.1649 0,2.3394 0,4.2426 0,0.825 0,1.6499 0,2.4749 0,0.1178 0,0.2357 0,0.3535 0,0.1179 0.11786,0.3536 0,0.3536 -0.11785,0 0,-0.4714 0,-0.3536 0,0.2358 0,0.4715 0,0.7072 0,0.1178 0.11786,0.3535 0,0.3535 -0.11785,0 0,-0.4714 0,-0.3535 0,0.2356 -0.1054,0.4962 0,0.7071 0.0527,0.1054 0.35356,-0.1179 0.35356,0 0,0.1178 -0.47141,0 -0.35356,0 0.23571,0 0.49629,-0.1055 0.70711,0 0.0584,0.029 0,0.9666 0,1.0606 0,1.5321 0,3.0641 0,4.5962"
       id="path4214"
       inkscape:connector-curvature="0" />
    <path
       style="fill:none;fill-rule:evenodd;stroke:#000000;stroke-width:1px;stroke-linecap:butt;stroke-linejoin:miter;stroke-opacity:1"
       d="m 205.4697,1029.9902 c 0,1.8856 0,3.7712 0,5.6568 0,0.086 0.0114,1.0493 0,1.0607 -0.0833,0.083 -0.2357,0 -0.35355,0 -0.82496,0 -1.64992,0 -2.47488,0 -0.2357,0 -0.4714,0 -0.70711,0 -0.11785,0 -0.35355,0.1178 -0.35355,0 0,-0.1179 0.2357,0 0.35355,0"
       id="path4216"
       inkscape:connector-curvature="0" />
    <path
       style="fill:none;fill-rule:evenodd;stroke:#000000;stroke-width:1px;stroke-linecap:butt;stroke-linejoin:miter;stroke-opacity:1"
       d="m 206.17681,1034.8204 c 0.9428,0 1.88561,0 2.82842,0 0.55335,0 2.06951,0 3.53554,0 0.24591,0 1.63991,0.064 1.76776,0 0.14907,-0.074 0.20449,-0.279 0.35356,-0.3535 0.1076,-0.054 0.90143,0 1.06066,0 0.11785,0 0.2357,0 0.35355,0 0.11785,0 0.35355,-0.1179 0.35355,0 0,0.1178 -0.4714,0 -0.35355,0 0.70711,0 1.41421,0 2.12132,0 0.11785,0 0.35355,-0.1179 0.35355,0 0,0.1178 -0.35355,-0.1179 -0.35355,0 0,0.1666 0.27902,0.2045 0.35355,0.3535 0.0538,0.1076 0,0.9015 0,1.0607 0,0.9428 0,1.8856 0,2.8284 0,1.6566 0,2.6316 0,3.5355 0,0.3536 0,0.7072 0,1.0607 0,0.1179 0.11786,0.3536 0,0.3536 -0.0804,0 0.0847,-1.3296 0,-1.4143 -0.0833,-0.083 -0.27022,0.083 -0.35355,0 -0.17678,-0.1767 0.17678,-0.8838 0,-1.0606 -0.0833,-0.083 -0.27022,0.083 -0.35355,0 -0.0114,-0.011 0,-0.9749 0,-1.0607 0,-0.3535 0,-0.7071 0,-1.0606 0,-0.1179 -0.11785,-0.3536 0,-0.3536 0.11785,0 0,0.4714 0,0.3536 0,-0.2357 0.10541,-0.4963 0,-0.7071 -0.0178,-0.036 -1.02692,0 -1.41422,0 -2.12132,0 -4.24264,0 -6.36396,0 -2.71057,0 -5.42115,0 -8.13173,0 -0.7071,0 -1.41421,0 -2.12132,0 -0.11785,0 -0.35355,0.1178 -0.35355,0 0,-0.1179 0.35355,0.1178 0.35355,0 0,-0.1667 -0.27901,-0.2045 -0.35355,-0.3536 -0.0538,-0.1076 0,-0.9014 0,-1.0607 0,-0.8249 0,-1.6499 0,-2.4748 0,-0.1299 -0.0142,-1.4 0,-1.4142 0.0833,-0.083 0.2357,0 0.35355,0 0.11786,0 0.23571,0 0.35356,0 0.82496,0 1.64991,0 2.47487,0 0.11785,0 0.27022,-0.083 0.35355,0 0.47141,0.4714 -0.58925,0.3535 0.35356,0.3535"
       id="path4220"
       inkscape:connector-curvature="0" />
    <path
       style="fill:none;fill-rule:evenodd;stroke:#000000;stroke-width:1px;stroke-linecap:butt;stroke-linejoin:miter;stroke-opacity:1"
       d="m 201.58061,1034.2601 c 1.88562,0 3.77124,0 5.65686,0 0.29933,0 1.22414,-0.063 1.41421,0 0.31623,0.1054 0.40896,0.5581 0.70711,0.7071 0.21081,0.1054 0.54044,-0.1666 0.7071,0 0.0833,0.083 -0.0833,0.2702 0,0.3536 0.0833,0.083 0.23571,0 0.35356,0 0.11785,0 0.2357,0 0.35355,0 1.41421,0 2.82843,0 4.24264,0 0.12984,0 1.39999,-0.014 1.41421,0 0.0833,0.083 -0.0833,0.2702 0,0.3535 0.0114,0.011 0.97492,0 1.06066,0 0.23571,0 0.47141,0 0.70711,0 0.11785,0 0.35355,-0.1178 0.35355,0 0,0.1179 -0.35355,-0.1178 -0.35355,0 0,0.1667 0.27902,0.2045 0.35355,0.3536 0.0465,0.093 0,1.2293 0,1.4142 0,0.1179 0.11786,0.3536 0,0.3536 -0.52022,0 0.81904,-1.1726 -0.35355,0"
       id="path4222"
       inkscape:connector-curvature="0" />
    <path
       style="fill:none;fill-rule:evenodd;stroke:#000000;stroke-width:1px;stroke-linecap:butt;stroke-linejoin:miter;stroke-opacity:1"
       d="m 216.42985,1036.0279 c -3.56897,0 -3.91849,0 -8.13172,0 -0.70711,0 -1.41422,0 -2.12132,0 -0.11786,0 -0.23571,0 -0.35356,0 -0.11785,0 -0.24814,-0.053 -0.35355,0 -0.14907,0.074 -0.20448,0.279 -0.35355,0.3535 -0.10541,0.053 -0.23571,0 -0.35356,0 -0.11785,0 -0.2357,0 -0.35355,0 -0.58926,0 -1.17851,0 -1.76777,0 -0.11785,0 -0.2357,0 -0.35355,0 -0.11785,0 -0.35356,0.1179 -0.35356,0 0,-0.1178 0.23571,0 0.35356,0 0.4714,0 0.94281,0 1.41421,0 1.06066,0 2.12132,0 3.18198,0 1.64992,0 3.29983,0 4.94975,0 0.70711,0 1.41421,0 2.12132,0 0.32527,0 0.74246,0.064 1.06066,0 0.47648,-0.095 0.94281,-0.2357 1.41421,-0.3535 z"
       id="path4224"
       inkscape:connector-curvature="0" />
    <path
       style="fill:none;fill-rule:evenodd;stroke:#000000;stroke-width:1px;stroke-linecap:butt;stroke-linejoin:miter;stroke-opacity:1"
       d="m 199.81284,1032.4924 c 0.43246,1.0628 0.35356,2.0815 0.35356,3.1819 0,0.2353 0,0.4718 0,0.7071 0,0.1179 0.11785,0.3536 0,0.3536 -0.11785,0 0,-0.4714 0,-0.3536 0,0.2357 -0.10541,0.4963 0,0.7071 0.0527,0.1055 0.2357,0 0.35355,0 0.11785,0 0.2357,0 0.35355,0 0.11786,0 0.23571,0 0.35356,0 0.11785,0 0.27022,0.083 0.35355,0 0.0833,-0.083 -0.0833,-0.2702 0,-0.3535 0.0833,-0.083 0.24815,0.053 0.35355,0 0.14908,-0.074 0.20449,-0.279 0.35356,-0.3536 0.10541,-0.053 0.27022,0.083 0.35355,0 0.0833,-0.083 -0.0833,-0.2702 0,-0.3535 0.0967,-0.097 1.22242,0.096 1.41422,0 0.14907,-0.074 0.19543,-0.3009 0.35355,-0.3536 0.22361,-0.075 0.4835,0.074 0.70711,0 0.15811,-0.053 0.19543,-0.3008 0.35355,-0.3535 0.33541,-0.1118 0.70711,0 1.06066,0 0.11785,0 0.2357,0 0.35355,0 0.11785,0 0.35356,-0.1179 0.35356,0 0,0.1178 -0.23571,0 -0.35356,0 -0.35355,0 -0.7071,0 -1.06066,0 -0.82496,0 -1.64991,0 -2.47487,0 -0.11785,0 -0.27022,0.083 -0.35356,0 -0.4714,-0.4714 0.58926,-0.3536 -0.35355,-0.3536 -0.11785,0 -0.2357,0 -0.35355,0 -0.11785,0 -0.27022,0.083 -0.35356,0 -0.0833,-0.083 0.0833,-0.2702 0,-0.3535 -0.0833,-0.083 -0.4714,0 -0.35355,0 0.70711,0 1.41421,0 2.12132,0 0.11785,0 0.2357,0 0.35356,0 0.11785,0 0.24814,-0.053 0.35355,0 0.14907,0.074 0.20448,0.279 0.35355,0.3535 0.28284,0.1414 0.77782,-0.1414 1.06066,0 0.14907,0.074 0.20448,0.279 0.35356,0.3536 0.18869,0.094 0.5184,-0.094 0.7071,0 0.14907,0.075 0.20448,0.279 0.35356,0.3535 0.22221,0.1111 1.19199,-0.1111 1.41421,0 0.14907,0.074 0.20448,0.279 0.35355,0.3536 0.10541,0.053 0.2357,0 0.35356,0 0.11785,0 0.2357,0 0.35355,0 0.11785,0 0.35355,-0.1179 0.35355,0 0,0.1178 -0.2357,0 -0.35355,0 -0.35355,0 -0.70711,0 -1.06066,0 -2.00395,0 -1.95271,0 -3.88909,0 -0.58925,0 -1.17851,0 -1.76777,0 -0.2357,0 -0.4714,0 -0.7071,0 -0.11785,0 -0.35356,0.1178 -0.35356,0 0,-0.1179 0.35356,0.1178 0.35356,0 0,-0.1667 -0.27902,-0.2045 -0.35356,-0.3536 -0.0701,-0.1402 0.0723,-0.9884 0,-1.0606 -0.0833,-0.083 -0.27022,-0.083 -0.35355,0 -0.0833,0.083 0.0527,0.2481 0,0.3535 -0.046,0.092 -0.62993,0.4307 -0.35355,0.7071 0.0142,0.014 1.28437,0 1.41421,0 0.82496,0 1.64992,0 2.47488,0 0.11785,0 0.27022,-0.083 0.35355,0 0.0833,0.083 -0.0833,0.2702 0,0.3536 0.0967,0.097 1.22241,-0.096 1.41421,0 0.14907,0.074 0.20448,0.279 0.35356,0.3535 0.1054,0.053 0.2357,0 0.35355,0 0.11785,0.1179 0.20448,0.2791 0.35355,0.3536 0.12786,0.064 1.52186,0 1.76777,0 0.11785,0 0.27022,-0.083 0.35355,0 0.0833,0.083 -0.0833,0.2702 0,0.3535 0.0967,0.097 1.22242,-0.096 1.41422,0 0.14907,0.074 0.20448,0.2791 0.35355,0.3536 0.22305,0.1115 1.54472,-0.1115 1.76777,0 0.14907,0.075 0.20448,0.279 0.35355,0.3536 0.18805,0.094 0.51906,-0.094 0.70711,0 0.87377,0.4368 -0.12204,0.3535 0.7071,0.3535 0.1667,0 1.75175,0.016 1.76777,0 0.0833,-0.083 0,-0.2357 0,-0.3535 0,-0.825 0,-1.65 0,-2.4749 0,-0.1179 0,-0.2357 0,-0.3536 0,-0.1178 -0.11785,-0.3535 0,-0.3535 0.11785,0 0,0.2357 0,0.3535 0,0.1179 0,0.2357 0,0.3536 0,0.1667 0.016,1.7517 0,1.7678 -0.0114,0.011 -0.97491,0 -1.06066,0 -0.11785,0 -0.2357,0 -0.35355,0 -0.11785,0 -0.35356,0.1178 -0.35356,0 0,-0.1179 0.23571,0 0.35356,0 0.12983,0 1.39998,0.014 1.41421,0 0.17678,-0.1768 -0.17678,-0.8839 0,-1.0607 0.0833,-0.083 0.27022,0.083 0.35355,0 0.0142,-0.014 0,-1.2844 0,-1.4142 0,-0.1179 0,-0.2357 0,-0.3536 0,-0.1178 -0.0833,-0.2702 0,-0.3535 0.0833,-0.083 0.27022,-0.083 0.35356,0 0.0114,0.011 0,0.9749 0,1.0606 0,0.1179 0.11785,0.3536 0,0.3536 -0.11785,0 0,-0.2357 0,-0.3536"
       id="path4226"
       inkscape:connector-curvature="0" />
    <path
       style="fill:none;fill-rule:evenodd;stroke:#000000;stroke-width:1px;stroke-linecap:butt;stroke-linejoin:miter;stroke-opacity:1"
       d="m 202.99482,1037.0886 c 3.09426,0 2.84408,0 5.30331,0 0.11785,0 0.2357,0 0.35355,0 0.11785,0 0.24814,-0.053 0.35355,0 0.14907,0.074 0.20448,0.279 0.35356,0.3535 0.10541,0.053 0.27022,-0.083 0.35355,0 0.0833,0.083 -0.0833,0.2702 0,0.3536 0.0833,0.083 0.2357,0 0.35355,0 0.58926,0 1.17851,0 1.76777,0 0.58926,0 1.17851,0 1.76777,0 0.11785,0 0.2357,0 0.35355,0 0.11785,0 0.24814,0.053 0.35355,0 0.14907,-0.074 0.19544,-0.3009 0.35356,-0.3536 0.2236,-0.074 0.49629,0.1054 0.7071,0 0.10541,-0.053 -0.0833,-0.2702 0,-0.3535 0.17678,-0.1768 0.88389,0.1767 1.06066,0 0.16667,-0.1667 -0.16666,-0.5405 0,-0.7072 0.0847,-0.085 1.41422,0.08 1.41422,0 0,-0.1666 -0.27902,-0.2044 -0.35356,-0.3535 -0.0527,-0.1054 0.0833,-0.2702 0,-0.3536 -0.0833,-0.083 -0.27022,0.083 -0.35355,0 -0.0833,-0.083 -0.11785,-0.3535 0,-0.3535 0.11785,0 0,0.4714 0,0.3535 0,-0.2357 0.10541,-0.4963 0,-0.7071 -0.0241,-0.048 -1.41421,0.045 -1.41421,0 0,-0.1178 0.35355,0.1179 0.35355,0 0,-0.7357 -0.49581,-0.1422 -0.70711,-0.3535 -0.0833,-0.083 0.0833,-0.2702 0,-0.3536 -0.052,-0.052 -1.06066,0.042 -1.06066,0 0,-0.1178 0.47141,0 0.35356,0 -0.58926,0 -1.17851,0 -1.76777,0 -0.11785,0 -0.2357,0 -0.35355,0 -0.11785,0 -0.24815,-0.053 -0.35356,0 -0.14907,0.075 -0.20448,0.279 -0.35355,0.3536 -0.1887,0.094 -0.51841,-0.094 -0.70711,0 -0.14907,0.074 -0.19544,0.3008 -0.35355,0.3535 -0.12965,0.043 -2.06066,0 -2.12132,0 -1.82964,0 -3.33604,0 -4.24264,0 -0.15923,0 -0.95306,0.054 -1.06066,0 -0.14907,-0.074 -0.20448,-0.279 -0.35356,-0.3535 -0.14018,-0.07 -0.98838,0.072 -1.06066,0 -0.0833,-0.083 0.0833,-0.2702 0,-0.3536 -0.0833,-0.083 -0.27022,0.083 -0.35355,0 -0.0833,-0.083 0.0833,-0.2702 0,-0.3535 -0.16667,-0.1667 -0.54044,0.1666 -0.70711,0 -0.0833,-0.083 0.0833,-0.2703 0,-0.3536 -0.0833,-0.083 -0.27022,0.083 -0.35355,0 -0.0833,-0.083 0.0833,-0.2702 0,-0.3535 -0.0833,-0.083 -0.27022,-0.083 -0.35355,0 -0.0833,0.083 0,0.2357 0,0.3535 0,0.1179 0,0.2357 0,0.3536 0,0.1298 -0.0142,1.4 0,1.4142 0.0833,0.083 0.27022,-0.083 0.35355,0 0.0833,0.083 -0.0833,0.2702 0,0.3535 0.0833,0.083 0.27022,-0.083 0.35355,0 0.0833,0.083 -0.0833,0.2702 0,0.3536 0.47141,0.4714 0.35356,-0.5893 0.35356,0.3535"
       id="path4228"
       inkscape:connector-curvature="0" />
    <ellipse
       style="fill:#ff0000;fill-opacity:1;stroke:none;stroke-opacity:1"
       id="path4230"
       cx="219.78862"
       cy="1037.4421"
       rx="0.88388348"
       ry="2.4748738" />
    <path
       style="fill:#280b0b;fill-opacity:1;stroke:none;stroke-opacity:1"
       id="path4545"
       d="m 204.46279,1022.4881 c -0.13076,0.3366 -0.21306,0.688 -0.29644,1.0384 0,0 -3.96561,1.9128 -3.96561,1.9128 l 0,0 c 0.0733,-0.3567 0.14868,-0.7129 0.24445,-1.0644 0,0 4.0176,-1.8868 4.0176,-1.8868 z"
       inkscape:connector-curvature="0" />
    <path
       style="fill:#000000;fill-opacity:1;stroke:none;stroke-opacity:1"
       id="path4547"
       d="m 203.93614,1024.4193 c -0.0266,0.784 -0.0163,1.5686 -0.0118,2.3529 0.004,0.6162 0.006,1.2324 0.007,1.8487 0.0179,0.5391 -0.0324,1.0822 0.0232,1.6192 0.0917,0.4283 0.30174,0.8127 0.4094,1.2403 0.10492,0.4946 0.0882,0.9999 0.19133,1.4943 0.0669,0.2506 0.22357,0.3181 0.45471,0.3801 0,0 -3.69574,2.4579 -3.69574,2.4579 l 0,0 c -0.31249,-0.1775 -0.55624,-0.3825 -0.6654,-0.7408 -0.11189,-0.493 -0.12292,-0.987 -0.18817,-1.4872 -0.0977,-0.4469 -0.32657,-0.836 -0.42677,-1.2795 -0.0899,-0.5531 -0.0257,-1.1174 -0.0439,-1.6761 0.001,-0.6186 0.003,-1.2373 0.007,-1.8559 0.005,-0.7803 0.0151,-1.561 -0.0118,-2.3409 0,0 3.95071,-2.013 3.95071,-2.013 z"
       inkscape:connector-curvature="0" />
    <path
       style="fill:#000000;fill-opacity:1;stroke:none;stroke-opacity:1"
       id="path4549"
       d="m 203.95495,1022.991 c 0.0852,0.7889 0.16304,1.5782 0.21267,2.3703 0.0359,0.6188 0.0423,1.2388 0.0456,1.8586 0.008,0.4851 -0.0532,0.9812 0.1257,1.4426 0.24099,0.386 0.47515,0.7739 0.72359,1.1554 0.2899,0.4294 0.54649,0.8495 0.69292,1.3502 0.12704,0.5394 0.13342,1.0962 0.14144,1.6474 0,0 -3.94072,2.0133 -3.94072,2.0133 l 0,0 c -0.004,-0.5155 -0.001,-1.0354 -0.0945,-1.5442 -0.11559,-0.4625 -0.36229,-0.8342 -0.62396,-1.228 -0.26909,-0.4031 -0.51212,-0.8204 -0.77282,-1.2287 -0.21377,-0.5138 -0.21283,-1.049 -0.19251,-1.5989 2.2e-4,-0.6154 8.1e-4,-1.231 -0.0212,-1.8461 -0.0334,-0.7772 -0.0827,-1.556 -0.21752,-2.3233 0,0 3.92132,-2.0686 3.92132,-2.0686 z"
       inkscape:connector-curvature="0" />
  </g>
</svg>
