<?xml version="1.0" encoding="UTF-8" standalone="no"?>
<!-- Created with Inkscape (http://www.inkscape.org/) -->

<svg
   xmlns:dc="http://purl.org/dc/elements/1.1/"
   xmlns:cc="http://creativecommons.org/ns#"
   xmlns:rdf="http://www.w3.org/1999/02/22-rdf-syntax-ns#"
   xmlns:svg="http://www.w3.org/2000/svg"
   xmlns="http://www.w3.org/2000/svg"
   xmlns:sodipodi="http://sodipodi.sourceforge.net/DTD/sodipodi-0.dtd"
   xmlns:inkscape="http://www.inkscape.org/namespaces/inkscape"
   width="350"
   height="55"
   viewBox="0 0 349.99998 54.999998"
   id="svg3431"
   version="1.1"
   inkscape:version="0.91 r13725"
   sodipodi:docname="landing.svg">
  <defs
     id="defs3433" />
  <sodipodi:namedview
     id="base"
     pagecolor="#ffffff"
     bordercolor="#666666"
     borderopacity="1.0"
     inkscape:pageopacity="0.0"
     inkscape:pageshadow="2"
     inkscape:zoom="1.0074671"
     inkscape:cx="164.60158"
     inkscape:cy="173.37658"
     inkscape:document-units="px"
     inkscape:current-layer="layer1"
     showgrid="false"
     units="px"
     inkscape:window-width="1366"
     inkscape:window-height="706"
     inkscape:window-x="-8"
     inkscape:window-y="-8"
     inkscape:window-maximized="1" />
  <metadata
     id="metadata3436">
    <rdf:RDF>
      <cc:Work
         rdf:about="">
        <dc:format>image/svg+xml</dc:format>
        <dc:type
           rdf:resource="http://purl.org/dc/dcmitype/StillImage" />
        <dc:title></dc:title>
      </cc:Work>
    </rdf:RDF>
  </metadata>
  <g
     inkscape:label="Layer 1"
     inkscape:groupmode="layer"
     id="layer1"
     transform="translate(0,-997.36223)">
    <rect
       style="fill:#000080;fill-opacity:1;stroke:none;stroke-opacity:1"
       id="rect3443"
       width="350.38361"
       height="36.725216"
       x="1.9851614"
       y="1015.6365" />
    <rect
       style="fill:#000080;fill-opacity:1;stroke:none;stroke-opacity:1"
       id="rect3445"
       width="0.99258828"
       height="2.9777648"
       x="365.27249"
       y="1058.3177" />
    <ellipse
       style="fill:#000080;fill-opacity:1;stroke:none;stroke-opacity:1"
       id="path3447"
       cx="182.13992"
       cy="1017.6216"
       rx="171.22148"
       ry="8.9332943" />
    <path
       style="fill:#00ffff;fill-opacity:1;stroke:none;stroke-opacity:1"
       id="path3451"
       d="m 10.838142,1013.9278 c 2.408843,1.056 4.914373,1.9405 7.446807,2.6588 2.118285,0.4885 4.194562,1.1114 6.221101,1.8898 1.727811,0.5121 3.502651,0.7248 5.254421,1.1461 1.985807,0.2991 3.880334,0.9455 5.85892,1.29 1.854422,0.1593 3.691544,0.5555 5.427467,1.2331 2.071751,0.8077 4.322161,0.7844 6.478448,1.1945 2.898265,0.6381 5.863423,0.7528 8.818098,0.8516 3.581787,0.092 7.164975,0.089 10.747598,0.07 2.75838,-0.084 5.525809,0.1341 8.270446,-0.179 2.902063,-0.3697 5.812018,-0.6233 8.733988,-0.7521 2.32836,-0.092 4.65874,-0.1029 6.98857,-0.1081 2.29629,-0.052 4.61037,0.1761 6.88727,-0.1614 2.384104,-0.2528 4.536434,-1.3544 6.796374,-2.0652 2.29007,-0.4494 4.54575,-1.0513 6.85702,-1.4095 1.9301,-0.051 3.48336,-1.1681 5.27634,-1.6976 1.87599,-0.6081 3.90293,-0.297 5.77645,-0.8196 2.27751,-0.6907 4.60086,-1.0471 6.96147,-1.3331 3.91523,-0.3552 7.80888,-0.883 11.69492,-1.473 3.02654,-0.489 6.07592,-0.79 9.13763,-0.9211 2.4478,-0.4297 4.82014,-1.1292 7.27261,-1.5551 2.24673,-0.3648 4.5234,-0.4384 6.79463,-0.4749 1.98348,0.071 4.00629,-0.2163 5.95748,0.1911 2.28454,0.9736 4.45755,2.2646 6.57303,3.5743 2.14475,1.1897 4.20983,2.5315 6.49693,3.4359 2.11111,0.7196 4.35338,0.7254 6.55723,0.7749 2.80205,0.036 5.60424,0.021 8.40633,0 2.3378,-0.2101 4.60409,0.3736 6.90754,0.6516 2.45788,0.2571 4.93164,0.2912 7.4006,0.3151 2.16354,-0.2086 4.22561,0.2314 6.34507,0.5433 4.08444,0.4482 8.20355,0.4624 12.30788,0.5092 4.4059,0.2203 8.77223,-0.1332 13.15388,-0.5056 2.98438,-0.2367 5.89929,-0.9512 8.8743,-1.3014 2.02516,-0.2975 3.8602,-1.1236 5.79705,-1.7042 0.29004,-0.062 0.58977,-0.09 0.87012,-0.1874 0.58637,-0.2979 0.80936,-0.437 1.4331,-0.651 0.80258,-0.2754 1.62673,-0.3895 2.46333,-0.5011 2.05641,-0.028 4.05182,-0.4147 6.0786,-0.7169 3.2637,-0.3636 6.55419,-0.3564 9.83362,-0.3719 4.89822,-0.095 9.7845,-0.02 14.64503,0.6252 2.95976,0.4884 5.91622,0.9802 8.91037,1.1922 1.99617,0.1106 3.99631,0.1003 5.99475,0.098 2.11503,-0.2118 4.0616,0.4101 6.03808,1.0555 1.69027,0.7959 3.28082,1.79 4.61561,3.1034 1.22188,0.9646 2.07643,2.3266 3.41434,3.1387 1.73986,0.629 3.66381,0.6024 5.49527,0.6471 2.05999,0.026 4.12023,0.01 6.18027,0 2.00904,0.1192 3.74085,-0.9152 5.51346,-1.6963 4.43602,-2.4269 6.6577,-3.6509 -10.49855,6.0385 -0.32963,0.1862 0.64343,-0.4007 0.94747,-0.6262 0.94019,-0.6976 1.73842,-1.5402 2.52625,-2.3986 1.29505,-1.5739 2.5503,-3.1577 3.9778,-4.6142 4.22316,-4.6215 9.75314,-6.606 15.48933,-9.8601 0.53575,-0.304 1.16383,-0.4184 1.70478,-0.713 1.05704,-0.4441 0.51743,-0.251 1.619,-0.5788 0,0 -11.60604,9.0664 -11.60604,9.0664 l 0,0 c -1.01709,0.4421 -0.51052,0.2111 -1.51949,0.6935 -4.51519,1.9333 -11.55646,6.5079 10.08936,-6.0842 1.17969,-0.6863 -3.36587,2.1308 -2.22471,1.7833 -0.64315,0.7679 -1.41519,1.3606 -2.07263,2.1063 -0.35449,0.4021 -0.888,1.248 -1.22587,1.659 -0.23031,0.2802 -0.49127,0.5338 -0.7369,0.8007 -4.36686,5.8592 -11.49754,8.778 -17.97507,11.8329 -1.89572,0.8201 -3.80077,1.3964 -5.89435,1.2339 -2.06928,0.01 -4.1396,0.024 -6.20785,-0.055 -2.05454,-0.1121 -4.22702,-0.1835 -6.01954,-1.3097 -1.27472,-0.9959 -2.2792,-2.2707 -3.50447,-3.3254 -1.24588,-1.0949 -2.66782,-1.9953 -4.22957,-2.5688 -1.89909,-0.5721 -3.80346,-0.8157 -5.79139,-0.6857 -2.01756,-0.01 -4.03842,-0.024 -6.04849,-0.2184 -2.94062,-0.3198 -5.83802,-0.9017 -8.75798,-1.3643 -4.83366,-0.5759 -9.69222,-0.5688 -14.55378,-0.4426 -3.29252,0.076 -6.60094,0.1293 -9.86113,0.643 -2.02893,0.3203 -4.06707,0.4932 -6.09668,0.7917 -1.5866,0.3898 -3.06664,1.0737 -4.64689,1.4886 -1.91965,0.6792 -3.89124,1.1702 -5.91301,1.4435 -2.93099,0.4004 -5.83315,1.0291 -8.79549,1.1687 -4.37357,0.3776 -8.74348,0.4698 -13.13295,0.3162 -4.21881,-0.051 -8.46071,0 -12.65558,-0.5019 -2.07138,-0.3076 -4.12845,-0.4617 -6.22712,-0.393 -2.50364,-0.059 -5.01296,-0.1335 -7.50021,-0.4454 -2.24917,-0.3089 -4.48288,-0.6775 -6.76582,-0.516 -2.81283,0 -5.6265,0.027 -8.43867,-0.041 -2.35412,-0.094 -4.71876,-0.224 -6.90336,-1.2055 -2.26925,-1.0574 -4.40149,-2.3729 -6.56384,-3.6297 -1.99758,-1.1739 -4.04177,-2.5214 -6.31969,-3.028 -1.92879,-0.1098 -3.86454,-0.026 -5.79525,-0.015 -2.21504,0.07 -4.43271,0.2044 -6.61167,0.636 -2.46414,0.5022 -4.88708,1.27 -7.41208,1.4068 -2.98591,0.1614 -5.95958,0.4753 -8.91439,0.9391 -3.91588,0.585 -7.84931,1.0312 -11.77925,1.5107 -2.37579,0.3606 -4.68015,0.9731 -7.02864,1.465 -1.90202,0.1785 -3.82991,0.2999 -5.63239,0.9955 -1.75104,0.7048 -3.47595,1.3627 -5.390814,1.4846 -2.25916,0.4357 -4.51917,0.9301 -6.72383,1.5862 -2.27209,0.8067 -4.54839,1.6506 -6.9831,1.7926 -2.32974,0.1206 -4.66293,0.029 -6.99508,0.067 -2.299789,0.01 -4.600447,0.018 -6.898078,0.1286 -2.905278,0.1633 -5.796663,0.4727 -8.69005,0.7765 -2.773295,0.1405 -5.551891,0.074 -8.328066,0.073 -3.577443,-0.025 -7.155644,-0.03 -10.731604,-0.147 -3.025641,-0.1235 -6.047031,-0.2812 -9.014796,-0.9339 -2.254238,-0.3026 -4.538226,-0.5136 -6.676502,-1.3528 -1.743164,-0.4931 -3.49875,-0.8614 -5.297865,-1.0845 -1.968966,-0.4274 -3.910017,-0.9723 -5.895107,-1.3279 -1.800669,-0.4049 -3.663304,-0.571 -5.377172,-1.3055 -1.988851,-0.7569 -4.0618561,-1.2562 -6.1049081,-1.8442 -2.586738,-0.8383 -5.164954,-1.7328 -7.660916,-2.8134 0,0 12.3108401,-8.1 12.3108401,-8.1 z"
       inkscape:connector-curvature="0" />
    <path
       style="fill:#00ffff;fill-opacity:1;stroke:none;stroke-opacity:1"
       id="path3453"
       d="m 11.752456,1042.0777 c 2.550708,0.085 5.071622,0.5648 7.614444,0.8002 2.084099,0.1743 4.176346,0.1943 6.26633,0.207 1.982233,0.01 3.964478,2e-4 5.946713,0 2.328635,-0.011 4.657106,0 6.985513,0.035 4.429331,0.2539 8.782924,-0.099 13.153004,-0.7833 3.098783,-0.4485 6.135838,-1.2213 9.051438,-2.3438 1.944319,-0.7422 4.022084,-0.7814 6.073286,-0.8546 2.127542,-0.055 4.256035,-0.043 6.38406,-0.038 2.267265,0.021 4.53467,0.017 6.802002,0.015 2.17395,-0.01 4.34781,0 6.52172,0.012 3.05233,0.1131 6.08811,0.5651 9.141,0.7807 2.703,0.1733 5.412084,0.1996 8.119644,0.2086 2.0668,9e-4 4.1336,-0.01 6.2004,-0.01 1.97366,-0.084 3.90913,-0.5859 5.88373,-0.7946 1.31655,-0.2364 2.68912,-0.014 4.00588,-0.1876 0.55856,-0.074 1.08984,-0.2861 1.63552,-0.4263 1.64184,-0.2041 3.07759,-0.9572 4.69998,-1.2693 4.44749,-2.3295 10.30994,-5.6784 -10.35481,5.9575 -0.27758,0.1564 0.51978,-0.3699 0.79463,-0.5309 13.46912,-7.8942 8.43557,-6.3685 14.41226,-8.0715 2.46249,-0.5997 5.01375,-0.5929 7.53247,-0.6189 3.69838,0.1908 7.28557,1.1048 10.81615,2.1673 3.09544,0.7712 6.11374,1.8038 9.25669,2.3696 2.30675,0.3778 4.35184,1.3996 6.43825,2.3785 1.63843,0.6246 3.36815,1.09 4.91818,1.9192 2.2767,1.0945 4.94389,0.7205 7.35624,0.3727 3.17279,-0.4592 6.3436,-0.8169 9.47308,-1.5107 2.22723,-0.2443 4.28075,-1.0282 6.36188,-1.7932 2.1224,-0.564 4.27523,-1.044 6.43675,-1.447 2.25051,-0.4026 4.53617,-0.4529 6.81506,-0.4885 1.91796,-0.4448 3.85285,-0.7457 5.81486,-0.8957 1.95567,-0.1176 3.91584,-0.1166 5.87427,-0.1204 1.92383,0.089 3.79996,0.5981 5.72831,0.7979 2.5664,0.2099 5.14444,0.2178 7.7178,0.2315 2.43763,0 4.87524,-0.012 7.31285,-0.02 2.01872,-0.01 4.03746,-0.01 6.0562,-0.01 2.07243,0.076 3.99775,-0.9151 5.7028,-2.0067 -3.84745,2.2054 -7.68134,4.4346 -11.54234,6.6162 -0.34309,0.1939 0.64602,-0.4531 0.98637,-0.6517 4.49964,-2.6261 9.0631,-5.1434 13.5319,-7.8216 3.85144,-2.3083 -15.57875,8.9381 -11.67956,6.7114 14.01826,-8.0052 8.5876,-6.0748 14.54884,-8.1135 2.03147,-0.5901 4.15263,-0.6596 6.25232,-0.7055 2.02063,0.043 4.06376,-0.1764 6.05715,0.1945 2.00943,0.629 3.42185,1.8092 4.50841,3.5852 0.91087,1.3067 1.672,2.7046 2.53687,4.0379 0.70579,1.2468 1.42126,2.3773 2.87612,2.685 3.36736,1.1415 7.00137,1.1965 10.52161,1.3594 3.83236,0.1468 7.66799,0.1324 11.50225,0.1068 2.08934,0.087 3.75519,-0.4555 5.61113,-1.2753 0.65396,-0.5984 1.54094,-0.7303 2.30433,-1.0989 0.7772,-0.3753 1.40369,-0.8022 2.23527,-1.0919 1.7916,-0.4854 3.65985,-0.5145 5.50328,-0.5531 2.03647,-0.1708 4.00214,0.3999 6.003,0.6845 1.89325,0.1265 3.871,0.5439 5.74073,0.1094 1.46075,-1.2184 3.16456,-1.4639 5.0129,-1.3859 2.02898,0.2115 4.05687,0.4103 6.09463,0.5129 2.12089,0.083 4.24386,0.094 6.36612,0.099 1.89485,0.3662 3.78502,0.7016 5.70984,0.8579 1.9078,0.149 3.80787,-0.1652 5.5442,0.7496 0,0 -12.25587,8.1955 -12.25587,8.1955 l 0,0 c -1.71621,-0.4298 -3.53092,-0.1327 -5.27439,-0.4174 -1.87146,-0.22 -3.71184,-0.6539 -5.59326,-0.7688 -2.14697,-0.011 -4.29567,-0.01 -6.43924,-0.1474 -1.9993,-0.1381 -3.99369,-0.4139 -5.99949,-0.3971 -1.77995,0.2475 -3.24568,1.1436 -4.97705,1.4872 -1.99015,0.013 -3.98005,-0.1356 -5.94788,-0.4366 -1.94157,-0.3137 -3.87004,-0.6684 -5.84788,-0.4541 -1.772,0.098 -3.5698,0.2316 -5.20396,0.99 -1.50894,0.7512 -3.02096,1.4975 -4.56381,2.1753 -1.86973,0.6668 -3.86896,0.8213 -5.84395,0.7515 -3.80704,-0.037 -7.61481,-0.093 -11.41884,-0.2555 -3.68724,-0.2033 -7.46976,-0.3136 -10.97933,-1.579 -1.56641,-0.7587 -2.60048,-1.9381 -3.4196,-3.4745 -0.84737,-1.3533 -1.6331,-2.7426 -2.52333,-4.0714 -0.8717,-1.4051 -2.12584,-2.2337 -3.77858,-2.4879 -1.97013,-0.1068 -3.94655,-0.052 -5.91807,0 -2.01905,0.1086 -4.0536,0.2917 -5.92981,1.1109 -0.31556,0.1537 -1.24887,0.6393 -0.94667,0.4609 3.85968,-2.2792 15.47893,-9.048 11.62179,-6.7645 -4.45879,2.6396 -8.97177,5.1871 -13.42679,7.833 -3.82863,2.274 7.69049,-4.4915 11.54751,-6.7169 0.34061,-0.1965 -0.65891,0.4299 -0.99753,0.6298 -4.50258,2.6584 -9.01706,5.2966 -13.52559,7.9449 -1.95965,0.9446 -3.96959,1.6038 -6.17852,1.4311 -2.01431,4e-4 -4.02862,0 -6.04293,-2e-4 -2.42093,0 -4.84187,-0.01 -7.2627,-0.033 -2.62567,-0.028 -5.26116,-0.019 -7.8735,-0.3172 -1.875,-0.2475 -3.72982,-0.7327 -5.63218,-0.6447 -1.93498,0.017 -3.87357,0.036 -5.80049,0.2326 -1.95279,0.2302 -3.87452,0.6841 -5.84044,0.7843 -2.23451,0.078 -4.47246,0.2234 -6.66436,0.6941 -2.12539,0.4618 -4.2751,0.881 -6.32053,1.6345 -2.09823,0.7539 -4.25847,1.2254 -6.4552,1.5971 -3.1372,0.6012 -6.32503,0.8745 -9.48212,1.3537 -2.70396,0.2341 -5.507,0.3879 -7.98098,-0.9383 -1.61809,-0.672 -3.27013,-1.2562 -4.88297,-1.9381 -1.97424,-0.9549 -3.99405,-1.7537 -6.17107,-2.1229 -3.12269,-0.6901 -6.15391,-1.7192 -9.24733,-2.5267 -3.46805,-0.9732 -6.99562,-1.8123 -10.62392,-1.7559 -2.4577,0.091 -4.9729,0.1523 -7.28755,1.0803 -4.83011,2.5036 -2.57524,1.3537 10.83285,-6.3651 0.27602,-0.1589 -0.51829,0.3719 -0.79299,0.5331 -3.22794,1.8939 -9.66428,6.9222 -15.04833,8.3447 -1.56382,0.4686 -3.09572,1.0066 -4.72374,1.2297 -1.88272,0.3172 -3.80531,0.2054 -5.69463,0.4951 -1.98983,0.2795 -3.96716,0.7479 -5.989784,0.6518 -2.06189,0 -4.12387,0.01 -6.18564,-0.021 -2.70778,-0.045 -5.41563,-0.1284 -8.11663,-0.3344 -3.03409,-0.2629 -6.065464,-0.6935 -9.115495,-0.6577 -2.184204,0.015 -4.36837,0.018 -6.552619,0.01 -2.270998,-0.01 -4.542022,-0.018 -6.813024,-0.01 -2.107895,0 -4.217437,-0.015 -6.323238,0.094 -1.995153,0.1418 -3.957461,0.4219 -5.818514,1.2008 -2.928623,0.9835 -5.994935,1.5291 -9.045736,1.9722 -4.443464,0.6072 -8.885854,0.7819 -13.370613,0.6815 -2.3636,0.032 -4.72726,0.048 -7.091094,0.043 -1.985219,0 -3.970534,0.01 -5.955668,-0.014 -2.10933,-0.035 -4.2203811,-0.099 -6.3184411,-0.336 -2.517844,-0.2899 -5.034755,-0.7677 -7.57903797,-0.6384 0,0 11.91683007,-8.6581 11.91683007,-8.6581 z"
       inkscape:connector-curvature="0" />
    <path
       sodipodi:type="star"
       style="fill:#00ffff;fill-opacity:1;stroke:none;stroke-opacity:1"
       id="path3455"
       sodipodi:sides="5"
       sodipodi:cx="35.733166"
       sodipodi:cy="1008.6884"
       sodipodi:r1="8.9882689"
       sodipodi:r2="4.4941344"
       sodipodi:arg1="1.4601391"
       sodipodi:arg2="2.0884576"
       inkscape:flatsided="false"
       inkscape:rounded="0"
       inkscape:randomized="0"
       d="m 36.725754,1017.6217 -3.216507,-5.028 -5.965422,-0.2007 3.787944,-4.6129 -1.652483,-5.7354 5.557585,2.1771 4.944133,-3.344 -0.353168,5.9583 4.708124,3.6688 -5.775854,1.5054 z"
       inkscape:transform-center-x="-0.30672664"
       inkscape:transform-center-y="0.56133933" />
    <path
       sodipodi:type="star"
       style="fill:#00ffff;fill-opacity:1;stroke:none;stroke-opacity:1"
       id="path3457"
       sodipodi:sides="5"
       sodipodi:cx="64.518227"
       sodipodi:cy="1011.6661"
       sodipodi:r1="8.4223909"
       sodipodi:r2="4.2111955"
       sodipodi:arg1="0.78539816"
       sodipodi:arg2="1.4137167"
       inkscape:flatsided="false"
       inkscape:rounded="0"
       inkscape:randomized="0"
       d="m 70.473756,1017.6216 -5.296753,-1.7962 -4.482462,3.3451 0.07148,-5.5926 -4.566495,-3.2294 5.340933,-1.6602 1.660212,-5.3409 3.229395,4.5665 5.592563,-0.072 -3.345057,4.4825 z"
       inkscape:transform-center-x="0.40714601"
       inkscape:transform-center-y="-0.40714601" />
    <path
       sodipodi:type="star"
       style="fill:#00ffff;fill-opacity:1;stroke:none;stroke-opacity:1"
       id="path3459"
       sodipodi:sides="5"
       sodipodi:cx="92.310684"
       sodipodi:cy="1010.6735"
       sodipodi:r1="6.6584849"
       sodipodi:r2="3.3292422"
       sodipodi:arg1="0.46364761"
       sodipodi:arg2="1.0919661"
       inkscape:flatsided="false"
       inkscape:rounded="0"
       inkscape:randomized="0"
       d="m 98.266214,1013.6513 -4.42161,-0.023 -2.525583,3.6294 -1.344528,-4.2122 -4.23222,-1.2805 3.590646,-2.5804 -0.09007,-4.4207 3.563669,2.6175 4.176552,-1.4517 -1.388177,4.1981 z"
       inkscape:transform-center-x="0.30644064"
       inkscape:transform-center-y="0.33729518" />
    <path
       sodipodi:type="star"
       style="fill:#00ffff;fill-opacity:1;stroke:none;stroke-opacity:1"
       id="path3461"
       sodipodi:sides="5"
       sodipodi:cx="117.1254"
       sodipodi:cy="1008.6884"
       sodipodi:r1="4.9629412"
       sodipodi:r2="2.4814706"
       sodipodi:arg1="0.64350111"
       sodipodi:arg2="1.2718196"
       inkscape:flatsided="false"
       inkscape:rounded="0"
       inkscape:randomized="0"
       d="m 121.09575,1011.6662 -3.23945,-0.6064 -2.33602,2.3248 -0.42435,-3.2683 -2.9329,-1.5032 2.97719,-1.4136 0.52338,-3.2539 2.26435,2.3947 3.25638,-0.5077 -1.57775,2.8935 z"
       inkscape:transform-center-x="0.45172007"
       inkscape:transform-center-y="-0.023283611" />
    <path
       sodipodi:type="star"
       style="fill:#00ffff;fill-opacity:1;stroke:none;stroke-opacity:1"
       id="path3463"
       sodipodi:sides="5"
       sodipodi:cx="146.90305"
       sodipodi:cy="1008.6884"
       sodipodi:r1="4.9629412"
       sodipodi:r2="2.4814706"
       sodipodi:arg1="0.92729522"
       sodipodi:arg2="1.5556137"
       inkscape:flatsided="false"
       inkscape:rounded="0"
       inkscape:randomized="0"
       d="m 149.88081,1012.6588 -2.94009,-1.4892 -2.89352,1.5777 0.50774,-3.2563 -2.39467,-2.2644 3.25389,-0.5234 1.41354,-2.9772 1.50327,2.933 3.26829,0.4243 -2.32483,2.336 z"
       inkscape:transform-center-x="0.023283611"
       inkscape:transform-center-y="-0.45172007" />
    <path
       sodipodi:type="star"
       style="fill:#00ffff;fill-opacity:1;stroke:none;stroke-opacity:1"
       id="path3465"
       sodipodi:sides="5"
       sodipodi:cx="173.70293"
       sodipodi:cy="1008.6884"
       sodipodi:r1="7.1576557"
       sodipodi:r2="3.5788281"
       sodipodi:arg1="0.5880026"
       sodipodi:arg2="1.2163211"
       inkscape:flatsided="false"
       inkscape:rounded="0"
       inkscape:randomized="0"
       d="m 179.65846,1012.6588 -4.71333,-0.6141 -3.17787,3.5347 -0.87253,-4.6724 -4.34364,-1.9301 4.17407,-2.2737 0.49336,-4.7274 3.45224,3.2671 4.64856,-0.9916 -2.04047,4.2929 z"
       inkscape:transform-center-x="0.59815501"
       inkscape:transform-center-y="0.089148115" />
    <path
       sodipodi:type="star"
       style="fill:#00ffff;fill-opacity:1;stroke:none;stroke-opacity:1"
       id="path3467"
       sodipodi:sides="5"
       sodipodi:cx="193.55469"
       sodipodi:cy="1012.6586"
       sodipodi:r1="8.0025024"
       sodipodi:r2="4.0012512"
       sodipodi:arg1="0.51914611"
       sodipodi:arg2="1.1474646"
       inkscape:flatsided="false"
       inkscape:rounded="0"
       inkscape:randomized="0"
       d="m 200.50281,1016.629 -5.30441,-0.3223 -3.27266,4.1869 -1.33261,-5.1444 -4.9933,-1.8187 4.4808,-2.857 0.18663,-5.311 4.1019,3.3787 5.10864,-1.4637 -1.94568,4.9452 z"
       inkscape:transform-center-x="0.50337127"
       inkscape:transform-center-y="0.26943751" />
    <path
       sodipodi:type="star"
       style="fill:#00ffff;fill-opacity:1;stroke:none;stroke-opacity:1"
       id="path3469"
       sodipodi:sides="5"
       sodipodi:cx="216.38425"
       sodipodi:cy="1012.6586"
       sodipodi:r1="7.5593271"
       sodipodi:r2="3.7796636"
       sodipodi:arg1="0.40489179"
       sodipodi:arg2="1.0332103"
       inkscape:flatsided="false"
       inkscape:rounded="0"
       inkscape:randomized="0"
       d="m 223.33236,1015.6364 -5.01268,0.2688 -2.62037,4.2817 -1.80462,-4.6843 -4.88187,-1.169 3.89737,-3.1639 -0.3968,-5.0041 4.21332,2.7289 4.63665,-1.9237 -1.2934,4.8504 z"
       inkscape:transform-center-x="0.2116569"
       inkscape:transform-center-y="0.51758458" />
    <path
       sodipodi:type="star"
       style="fill:#00ffff;fill-opacity:1;stroke:none;stroke-opacity:1"
       id="path3471"
       sodipodi:sides="5"
       sodipodi:cx="242.1915"
       sodipodi:cy="1013.6513"
       sodipodi:r1="5.3452516"
       sodipodi:r2="2.6726258"
       sodipodi:arg1="0.38050638"
       sodipodi:arg2="1.0088249"
       inkscape:flatsided="false"
       inkscape:rounded="0"
       inkscape:randomized="0"
       d="m 247.15444,1015.6365 -3.53882,0.2764 -1.7785,3.0719 -1.35645,-3.2802 -3.47113,-0.7422 2.70049,-2.3037 -0.36678,-3.5306 3.02544,1.8565 3.24446,-1.4399 -0.83067,3.4511 z"
       inkscape:transform-center-x="0.10951002"
       inkscape:transform-center-y="0.40515285" />
    <path
       sodipodi:type="star"
       style="fill:#00ffff;fill-opacity:1;stroke:none;stroke-opacity:1"
       id="path3473"
       sodipodi:sides="5"
       sodipodi:cx="271.96915"
       sodipodi:cy="1014.6439"
       sodipodi:r1="5.3452516"
       sodipodi:r2="2.6726258"
       sodipodi:arg1="0.38050638"
       sodipodi:arg2="1.0088249"
       inkscape:flatsided="false"
       inkscape:rounded="0"
       inkscape:randomized="0"
       d="m 276.93209,1016.6291 -3.53882,0.2764 -1.77851,3.0719 -1.35644,-3.2802 -3.47113,-0.7422 2.70049,-2.3037 -0.36678,-3.5306 3.02544,1.8565 3.24446,-1.4399 -0.83067,3.4511 z"
       inkscape:transform-center-x="0.10951002"
       inkscape:transform-center-y="0.40515285" />
    <path
       sodipodi:type="star"
       style="fill:#00ffff;fill-opacity:1;stroke:none;stroke-opacity:1"
       id="path3475"
       sodipodi:sides="5"
       sodipodi:cx="296.78387"
       sodipodi:cy="1015.6365"
       sodipodi:r1="4.0925465"
       sodipodi:r2="2.0462732"
       sodipodi:arg1="0.24497866"
       sodipodi:arg2="0.87329719"
       inkscape:flatsided="false"
       inkscape:rounded="0"
       inkscape:randomized="0"
       d="m 300.75423,1016.6291 -2.65603,0.5757 -1.03143,2.5144 -1.36835,-2.3481 -2.71006,-0.2039 1.81034,-2.027 -0.64348,-2.6405 2.4872,1.0954 2.31237,-1.4279 -0.27316,2.7039 z"
       inkscape:transform-center-x="-0.087420608"
       inkscape:transform-center-y="0.30672664" />
    <path
       sodipodi:type="star"
       style="fill:#00ffff;fill-opacity:1;stroke:none;stroke-opacity:1"
       id="path3477"
       sodipodi:sides="5"
       sodipodi:cx="319.61343"
       sodipodi:cy="1016.629"
       sodipodi:r1="7.1576557"
       sodipodi:r2="3.5788281"
       sodipodi:arg1="0.5880026"
       sodipodi:arg2="1.2163211"
       inkscape:flatsided="false"
       inkscape:rounded="0"
       inkscape:randomized="0"
       d="m 325.56896,1020.5994 -4.71332,-0.614 -3.17788,3.5346 -0.87252,-4.6724 -4.34365,-1.9301 4.17408,-2.2736 0.49335,-4.7275 3.45225,3.2672 4.64855,-0.9917 -2.04047,4.2929 z"
       inkscape:transform-center-x="0.59815501"
       inkscape:transform-center-y="0.089148115" />
    <path
       sodipodi:type="star"
       style="fill:#00ffff;fill-opacity:1;stroke:none;stroke-opacity:1"
       id="path3479"
       sodipodi:sides="5"
       sodipodi:cx="339.46515"
       sodipodi:cy="1019.6068"
       sodipodi:r1="7.5593271"
       sodipodi:r2="3.7796636"
       sodipodi:arg1="0.40489179"
       sodipodi:arg2="1.0332103"
       inkscape:flatsided="false"
       inkscape:rounded="0"
       inkscape:randomized="0"
       d="m 346.41327,1022.5846 -5.01269,0.2687 -2.62037,4.2817 -1.80462,-4.6843 -4.88187,-1.1689 3.89737,-3.1639 -0.3968,-5.0042 4.21333,2.729 4.63664,-1.9238 -1.2934,4.8504 z"
       inkscape:transform-center-x="0.2116569"
       inkscape:transform-center-y="0.51758458" />
    <path
       sodipodi:type="star"
       style="fill:#00ffff;fill-opacity:1;stroke:none;stroke-opacity:1"
       id="path3481"
       sodipodi:sides="5"
       sodipodi:cx="19.851751"
       sodipodi:cy="1035.4883"
       sodipodi:r1="6.0376787"
       sodipodi:r2="3.0188394"
       sodipodi:arg1="1.4056476"
       sodipodi:arg2="2.0339662"
       inkscape:flatsided="false"
       inkscape:rounded="0"
       inkscape:randomized="0"
       d="m 20.84434,1041.4438 -2.341365,-3.2547 -4.008542,0.083 2.371932,-3.2325 -1.318207,-3.7865 3.807299,1.2569 3.193846,-2.4238 -0.01889,4.0094 3.292112,2.2885 -3.818975,1.221 z"
       inkscape:transform-center-x="-0.30672664"
       inkscape:transform-center-y="0.2769881" />
    <path
       sodipodi:type="star"
       style="fill:#00ffff;fill-opacity:1;stroke:none;stroke-opacity:1"
       id="path3483"
       sodipodi:sides="5"
       sodipodi:cx="40.696106"
       sodipodi:cy="1039.4585"
       sodipodi:r1="8.8779793"
       sodipodi:r2="4.4389896"
       sodipodi:arg1="0.46364761"
       sodipodi:arg2="1.0919661"
       inkscape:flatsided="false"
       inkscape:rounded="0"
       inkscape:randomized="0"
       d="m 48.636812,1043.4288 -5.89548,-0.03 -3.367443,4.8392 -1.792705,-5.6164 -5.642959,-1.7073 4.787528,-3.4405 -0.120098,-5.8943 4.751559,3.49 5.568735,-1.9357 -1.850903,5.5975 z"
       inkscape:transform-center-x="0.40858752"
       inkscape:transform-center-y="0.44972691" />
    <path
       sodipodi:type="star"
       style="fill:#00ffff;fill-opacity:1;stroke:none;stroke-opacity:1"
       id="path3485"
       sodipodi:sides="5"
       sodipodi:cx="65.510811"
       sodipodi:cy="1038.4659"
       sodipodi:r1="5.3452516"
       sodipodi:r2="2.6726258"
       sodipodi:arg1="0.38050638"
       sodipodi:arg2="1.0088249"
       inkscape:flatsided="false"
       inkscape:rounded="0"
       inkscape:randomized="0"
       d="m 70.473752,1040.4511 -3.538818,0.2764 -1.778505,3.0719 -1.356442,-3.2802 -3.471138,-0.7422 2.700491,-2.3036 -0.366776,-3.5306 3.025438,1.8564 3.244457,-1.4398 -0.830667,3.451 z"
       inkscape:transform-center-x="0.10951002"
       inkscape:transform-center-y="0.40515285" />
    <path
       sodipodi:type="star"
       style="fill:#00ffff;fill-opacity:1;stroke:none;stroke-opacity:1"
       id="path3487"
       sodipodi:sides="5"
       sodipodi:cx="94.295876"
       sodipodi:cy="1038.4659"
       sodipodi:r1="4.4389896"
       sodipodi:r2="2.2194948"
       sodipodi:arg1="1.1071487"
       sodipodi:arg2="1.7354672"
       inkscape:flatsided="false"
       inkscape:rounded="0"
       inkscape:randomized="0"
       d="m 96.281052,1042.4363 -2.349013,-1.7809 -2.79874,0.9255 0.967835,-2.7844 -1.745015,-2.3758 2.947168,0.06 1.720262,-2.3938 0.853615,2.8215 2.808195,0.8963 -2.419605,1.6838 z"
       inkscape:transform-center-x="-0.22486345"
       inkscape:transform-center-y="-0.20429376" />
    <path
       sodipodi:type="star"
       style="fill:#00ffff;fill-opacity:1;stroke:none;stroke-opacity:1"
       id="path3489"
       sodipodi:sides="5"
       sodipodi:cx="133.9994"
       sodipodi:cy="1032.5105"
       sodipodi:r1="10.551358"
       sodipodi:r2="5.2756791"
       sodipodi:arg1="0.71883"
       sodipodi:arg2="1.3471485"
       inkscape:flatsided="false"
       inkscape:rounded="0"
       inkscape:randomized="0"
       d="m 141.94011,1039.4586 -6.77062,-1.8038 -5.32432,4.5548 -0.3767,-6.9966 -5.97723,-3.6562 6.53781,-2.5204 1.63019,-6.8145 4.41728,5.439 6.98475,-0.5554 -3.80778,5.8819 z"
       inkscape:transform-center-x="0.72315075"
       inkscape:transform-center-y="-0.29471429" />
    <path
       sodipodi:type="star"
       style="fill:#00ffff;fill-opacity:1;stroke:none;stroke-opacity:1"
       id="path3491"
       sodipodi:sides="5"
       sodipodi:cx="165.76224"
       sodipodi:cy="1040.4512"
       sodipodi:r1="8.0025024"
       sodipodi:r2="4.0012512"
       sodipodi:arg1="0.12435499"
       sodipodi:arg2="0.75267353"
       inkscape:flatsided="false"
       inkscape:rounded="0"
       inkscape:randomized="0"
       d="m 173.70294,1041.4438 -5.02033,1.7426 -1.41057,5.1236 -3.20871,-4.2362 -5.30869,0.2418 3.03724,-4.3607 -1.87038,-4.9742 5.08583,1.5411 4.15273,-3.316 0.10598,5.3132 z"
       inkscape:transform-center-x="-0.46655559"
       inkscape:transform-center-y="0.30672664" />
    <path
       sodipodi:type="star"
       style="fill:#00ffff;fill-opacity:1;stroke:none;stroke-opacity:1"
       id="path3493"
       sodipodi:sides="5"
       sodipodi:cx="200.50281"
       sodipodi:cy="1034.4957"
       sodipodi:r1="5.7877345"
       sodipodi:r2="2.8938673"
       sodipodi:arg1="1.0303768"
       sodipodi:arg2="1.6586954"
       inkscape:flatsided="false"
       inkscape:rounded="0"
       inkscape:randomized="0"
       d="m 203.48057,1039.4587 -3.2318,-2.0803 -3.54582,1.483 0.97975,-3.7165 -2.5061,-2.914 3.83733,-0.2166 1.99696,-3.284 1.39185,3.5826 3.74029,0.8844 -2.97712,2.4308 z"
       inkscape:transform-center-x="-0.15700578"
       inkscape:transform-center-y="-0.40122439" />
    <path
       sodipodi:type="star"
       style="fill:#00ffff;fill-opacity:1;stroke:none;stroke-opacity:1"
       id="path3495"
       sodipodi:sides="5"
       sodipodi:cx="229.28789"
       sodipodi:cy="1035.4883"
       sodipodi:r1="6.0376787"
       sodipodi:r2="3.0188394"
       sodipodi:arg1="0.16514868"
       sodipodi:arg2="0.79346721"
       inkscape:flatsided="false"
       inkscape:rounded="0"
       inkscape:randomized="0"
       d="m 235.24342,1036.4809 -3.83818,1.1592 -1.221,3.819 -2.28854,-3.2922 -4.00937,0.019 2.42379,-3.1938 -1.25693,-3.8073 3.78652,1.3182 3.23254,-2.3719 -0.0836,4.0085 z"
       inkscape:transform-center-x="-0.2769881"
       inkscape:transform-center-y="0.30672664" />
    <path
       sodipodi:type="star"
       style="fill:#00ffff;fill-opacity:1;stroke:none;stroke-opacity:1"
       id="path3497"
       sodipodi:sides="5"
       sodipodi:cx="261.05072"
       sodipodi:cy="1029.5327"
       sodipodi:r1="4.9629412"
       sodipodi:r2="2.4814706"
       sodipodi:arg1="0"
       sodipodi:arg2="0.62831853"
       inkscape:flatsided="false"
       inkscape:rounded="0"
       inkscape:randomized="0"
       d="m 266.01366,1029.5327 -2.95539,1.4586 -0.47392,3.2615 -2.30045,-2.3601 -3.24828,0.5572 1.53363,-2.9172 -1.53363,-2.9171 3.24828,0.5571 2.30045,-2.36 0.47392,3.2614 z"
       inkscape:transform-center-x="-0.47391872" />
    <path
       sodipodi:type="star"
       style="fill:#00ffff;fill-opacity:1;stroke:none;stroke-opacity:1"
       id="path3499"
       sodipodi:sides="5"
       sodipodi:cx="287.85056"
       sodipodi:cy="1036.4807"
       sodipodi:r1="8.5385675"
       sodipodi:r2="4.2692838"
       sodipodi:arg1="0.62024949"
       sodipodi:arg2="1.248568"
       inkscape:flatsided="false"
       inkscape:rounded="0"
       inkscape:randomized="0"
       d="m 294.79867,1041.4437 -5.59611,-0.9134 -3.92496,4.0921 -0.86061,-5.6045 -5.10472,-2.4683 5.06423,-2.5504 0.77005,-5.6176 3.99048,4.0283 5.58065,-1.0036 -2.59798,5.04 z"
       inkscape:transform-center-x="0.79508564"
       inkscape:transform-center-y="0.021290446" />
    <path
       sodipodi:type="star"
       style="fill:#00ffff;fill-opacity:1;stroke:none;stroke-opacity:1"
       id="path3501"
       sodipodi:sides="5"
       sodipodi:cx="314.65048"
       sodipodi:cy="1038.4659"
       sodipodi:r1="8.9882689"
       sodipodi:r2="4.4941344"
       sodipodi:arg1="0.11065722"
       sodipodi:arg2="0.73897575"
       inkscape:flatsided="false"
       inkscape:rounded="0"
       inkscape:randomized="0"
       d="m 323.58378,1039.4585 -5.61142,2.0344 -1.50535,5.7758 -3.6688,-4.7081 -5.95834,0.3532 3.34397,-4.9442 -2.17712,-5.5575 5.7355,1.6524 4.61281,-3.7879 0.20076,5.9654 z"
       inkscape:transform-center-x="-0.56133933"
       inkscape:transform-center-y="0.30672664" />
    <path
       sodipodi:type="star"
       style="fill:#00ffff;fill-opacity:1;stroke:none;stroke-opacity:1"
       id="path3503"
       sodipodi:sides="5"
       sodipodi:cx="342.44296"
       sodipodi:cy="1036.4807"
       sodipodi:r1="4.9629412"
       sodipodi:r2="2.4814706"
       sodipodi:arg1="0"
       sodipodi:arg2="0.62831853"
       inkscape:flatsided="false"
       inkscape:rounded="0"
       inkscape:randomized="0"
       d="m 347.4059,1036.4807 -2.95539,1.4586 -0.47391,3.2615 -2.30045,-2.3601 -3.24829,0.5572 1.53363,-2.9172 -1.53363,-2.9171 3.24829,0.5571 2.30045,-2.36 0.47391,3.2614 z"
       inkscape:transform-center-x="-0.47391872" />
  </g>
</svg>
