<?xml version="1.0" encoding="UTF-8" standalone="no"?>
<!-- Created with Inkscape (http://www.inkscape.org/) -->

<svg
   xmlns:dc="http://purl.org/dc/elements/1.1/"
   xmlns:cc="http://creativecommons.org/ns#"
   xmlns:rdf="http://www.w3.org/1999/02/22-rdf-syntax-ns#"
   xmlns:svg="http://www.w3.org/2000/svg"
   xmlns="http://www.w3.org/2000/svg"
   xmlns:sodipodi="http://sodipodi.sourceforge.net/DTD/sodipodi-0.dtd"
   xmlns:inkscape="http://www.inkscape.org/namespaces/inkscape"
   width="450.33859"
   height="9.0866098"
   viewBox="0 0 450.3386 9.0866097"
   id="svg3559"
   version="1.1"
   inkscape:version="0.91 r13725"
   sodipodi:docname="laser_large_shot.svg">
  <defs
     id="defs3561" />
  <sodipodi:namedview
     id="base"
     pagecolor="#ffffff"
     bordercolor="#666666"
     borderopacity="1.0"
     inkscape:pageopacity="0.0"
     inkscape:pageshadow="2"
     inkscape:zoom="6.2808576"
     inkscape:cx="463.04436"
     inkscape:cy="26.800845"
     inkscape:document-units="px"
     inkscape:current-layer="layer1"
     showgrid="false"
     inkscape:window-width="1366"
     inkscape:window-height="706"
     inkscape:window-x="-8"
     inkscape:window-y="-8"
     inkscape:window-maximized="1"
     units="px" />
  <metadata
     id="metadata3564">
    <rdf:RDF>
      <cc:Work
         rdf:about="">
        <dc:format>image/svg+xml</dc:format>
        <dc:type
           rdf:resource="http://purl.org/dc/dcmitype/StillImage" />
        <dc:title></dc:title>
      </cc:Work>
    </rdf:RDF>
  </metadata>
  <g
     inkscape:label="Layer 1"
     inkscape:groupmode="layer"
     id="layer1"
     transform="translate(0,-1043.2755)">
    <ellipse
       style="fill:#ff0000;fill-opacity:1;stroke:none;stroke-opacity:1"
       id="path4522"
       cx="164.36449"
       cy="1049.2035"
       rx="164.46416"
       ry="3.8505814" />
    <path
       style="fill:#ffcc00;fill-opacity:1;stroke:none;stroke-opacity:1"
       id="path4248"
       d="m 327.33555,1049.2982 c 0.0152,-0.4456 0.009,-0.8916 0.007,-1.3373 -0.003,-0.3577 -0.0174,-0.7141 0.0325,-1.069 0.0652,-0.3544 0.0938,-0.7137 0.11091,-1.0732 0.0126,-0.3258 0.0124,-0.6518 0.0126,-0.9778 -0.006,-0.2243 0.0137,-0.452 -0.0136,-0.6744 2.5984,-1.2504 2.25667,-1.6688 2.24604,-0.05 -0.005,0.6416 -0.009,1.2832 -0.0128,1.9247 0.004,0.7882 0.16932,1.5609 0.31018,2.3326 0.10928,0.4814 0.23482,0.9583 0.3035,1.4477 0.0244,0.1222 0.0131,0.2525 0.0439,0.3739 0.01,0.039 0.0706,0.095 0.0356,0.1139 -2.24854,1.2043 -1.64111,1.6241 -2.40637,1.0447 -0.31287,-0.118 -0.64503,-0.1741 -0.96546,-0.2699 -1.47348,-0.4041 -0.97884,-0.092 1.46928,-1.5522 0.30165,0.1726 0.61181,0.3037 0.93526,0.4299 0.46962,0.1604 0.96779,0.1959 1.45974,0.2216 0.0754,-0.015 0.15098,-0.03 0.22626,-0.047 0.16095,-0.035 0.30027,-0.056 0.44662,-0.1359 0.0652,-0.036 0.24589,-0.1666 0.18084,-0.1306 -1.93031,1.0684 -2.51339,1.6255 -1.79054,0.9624 0.32754,-0.415 0.53824,-0.9046 0.74959,-1.3851 0.17823,-0.4278 0.3993,-0.8815 0.33734,-1.3552 -0.13579,-0.3558 -0.51314,-0.3686 -0.8434,-0.4009 -0.8485,0.07 -2.10374,0.9632 1.6333,-1.0314 0.062,-0.033 -0.1162,0.08 -0.16847,0.1269 -0.13795,0.1241 -0.15791,0.1766 -0.25892,0.331 -0.16424,0.3399 -0.25939,0.7151 -0.1962,1.0906 0.11362,0.3041 0.35168,0.5005 0.64427,0.62 0.33452,0.091 0.69329,0.1182 1.0359,0.067 0.83281,-0.3045 2.32301,-1.1543 -1.48817,0.9084 -0.0558,0.03 0.0984,-0.081 0.14127,-0.1278 0.0436,-0.048 0.0778,-0.103 0.11675,-0.1545 0.20901,-0.3356 0.27712,-0.7117 0.23095,-1.0995 -0.16121,-0.4432 -0.63587,-0.5768 -1.05307,-0.674 -0.16028,-0.025 -0.25005,-0.064 -0.40602,0 -0.0571,0.025 -0.20532,0.1398 -0.1507,0.1101 0.67207,-0.3663 1.32503,-0.7676 2.00435,-1.1202 0.054,-0.028 -0.0842,0.089 -0.11675,0.1405 -0.0357,0.056 -0.0577,0.1205 -0.0865,0.1808 -0.13229,0.366 -0.0819,0.7458 0.207,1.0167 0.27051,0.2715 0.64517,0.3122 1.00814,0.348 0.2716,0.02 0.55685,0.011 0.80133,-0.1208 0.0612,-0.033 0.23741,-0.1445 0.17683,-0.1104 -0.64819,0.3642 -1.29323,0.7341 -1.93984,1.1012 0.51741,-0.3747 0.82141,-0.9398 1.07389,-1.5114 0.10831,-0.3793 0.24879,-0.8679 0.0306,-1.2402 -0.0332,-0.057 -0.0847,-0.1002 -0.12699,-0.1503 -0.41414,-0.3511 -0.97315,-0.4005 -1.49352,-0.4476 -0.30723,-0.035 -0.61197,-0.01 -0.885,0.1488 -0.0569,0.032 -0.21744,0.145 -0.16024,0.1133 0.66313,-0.368 1.31931,-0.7485 1.97897,-1.1227 -0.38642,0.3421 -0.42169,0.8686 -0.46695,1.3509 -0.0352,0.5923 0.20247,0.9001 0.64679,1.2469 0.57238,0.3551 1.21332,0.5816 1.83469,0.8345 1.00522,0.4545 2.08184,0.7178 3.16506,0.9048 0.346,0 1.03297,0.212 1.36615,0.1057 0.0622,-0.02 0.21677,-0.1448 0.15941,-0.1137 -0.67455,0.3662 -1.34142,0.7463 -2.01213,1.1195 0.24758,-0.3155 0.26904,-0.7438 0.19867,-1.1249 -0.17827,-0.4061 -0.56492,-0.6702 -0.91391,-0.9225 -0.35441,-0.2763 -0.76315,-0.3945 -1.19985,-0.4559 -0.17935,0.01 -0.37794,-0.064 -0.55704,-0.031 -0.0492,0.01 -0.18026,0.086 -0.13668,0.062 2.16925,-1.2196 2.64876,-1.5786 1.89896,-1.0304 -0.19538,0.2358 -0.36484,0.5205 -0.19461,0.8122 0.24151,0.3075 0.59618,0.4517 0.96496,0.5407 0.4174,0.063 0.84059,0.063 1.26167,0.062 -0.16702,0.2674 0.63474,-0.2598 0.48984,-0.1803 -0.66946,0.3677 -1.31849,0.7721 -1.99241,1.1315 -0.0559,0.03 0.0924,-0.088 0.13031,-0.1384 0.0385,-0.052 0.0651,-0.111 0.0976,-0.1665 0.15889,-0.3985 0.20161,-0.8414 0.17621,-1.2676 -0.0717,-0.3509 -0.33654,-0.502 -0.65922,-0.581 -0.0484,0 -0.0988,-0.01 -0.14503,0.01 -0.0498,0.016 -0.1811,0.104 -0.13537,0.079 0.66657,-0.3671 1.32297,-0.7531 1.99793,-1.1046 0.0628,-0.033 -0.10842,0.092 -0.15518,0.145 -0.1116,0.1269 -0.14272,0.2081 -0.21938,0.3554 -0.14895,0.3546 -0.23178,0.7162 -0.0428,1.0662 0.22337,0.2817 0.56517,0.3021 0.89811,0.3272 0.19165,0.01 0.17307,0.029 0.34837,-0.049 0.0562,-0.025 0.2151,-0.119 0.16157,-0.089 -3.44075,1.9409 -2.29561,1.4618 -1.65253,0.832 0.22336,-0.2788 0.42596,-0.5778 0.56659,-0.9069 0.0677,-0.2405 0.22722,-0.6155 -0.0272,-0.7938 -0.0239,-6e-4 -0.0539,-0.018 -0.0716,-0 -0.0255,0.023 -0.0642,0.1133 -0.0338,0.097 0.70817,-0.3727 1.3823,-0.8078 2.09079,-1.1799 0.0417,-0.022 -0.0554,0.077 -0.0735,0.1205 -0.046,0.1101 -0.064,0.2658 -0.083,0.3797 -0.0657,0.4618 -0.0665,0.7494 0.30296,1.0653 0.34891,0.2103 0.7766,0.2041 1.17217,0.2167 0.26491,-0 0.55661,0.045 0.79951,-0.093 0.0453,-0.026 0.16779,-0.1231 0.12226,-0.098 -0.68467,0.3823 -1.36093,0.7794 -2.0414,1.1691 0.1675,-0.1498 0.25659,-0.3805 0.052,-0.5309 -0.11058,-0.056 -0.21545,-0.044 -0.32405,0.015 -0.0399,0.022 -0.15016,0.1029 -0.11034,0.081 2.01136,-1.1204 2.66069,-1.6619 1.95117,-1.0804 -0.17629,0.2153 -0.2053,0.4619 -0.0214,0.6766 0.26167,0.1825 0.45637,0.1714 0.70522,-0.016 -0.67436,0.3841 -1.34425,0.7762 -2.02306,1.1524 -0.0487,0.027 0.0914,-0.065 0.1309,-0.1038 0.18136,-0.1797 0.29059,-0.4105 0.3804,-0.6446 0.16321,-0.4902 -0.091,-0.9243 -0.37418,-1.3112 -0.31238,-0.3879 -0.73319,-0.5379 -1.20962,-0.6023 -0.29514,-0.047 -0.55634,-0 -0.80932,0.1506 -0.0475,0.029 -0.19016,0.114 -0.14194,0.087 0.67557,-0.3829 1.34939,-0.7688 2.02408,-1.1533 -0.25397,0.2527 -0.27928,0.6214 -0.30406,0.9603 -0.005,0.3245 0.11943,0.605 0.36904,0.8094 0.26507,0.2236 0.58864,0.3031 0.9241,0.3447 0.0507,-0.01 0.10239,-0.01 0.15198,-0.019 0.11438,-0.028 0.79743,-0.4399 0.44543,-0.2435 -1.97642,1.1029 -2.53215,1.6503 -1.82789,0.9848 0.2648,-0.2728 0.42522,-0.598 0.5104,-0.9642 0.10337,-0.3888 -0.0183,-0.6836 -0.23248,-1.0038 -0.2949,-0.3698 -0.7041,-0.5643 -1.15299,-0.6747 -0.28213,-0.052 -0.59988,-0.078 -0.87677,0.022 -0.006,0 -0.30148,0.1533 -0.31349,0.1595 -0.81548,0.5421 0.25018,-0.171 1.87279,-1.0551 0.0492,-0.027 -0.0817,0.077 -0.12072,0.1172 -0.1088,0.1122 -0.18586,0.2244 -0.25865,0.3617 -0.0834,0.2385 -0.17203,0.523 -0.0875,0.772 0.71364,0.7108 0.6453,-0.03 -2.06169,1.463 -0.0392,0.022 -0.0781,-0.044 -0.11854,-0.063 -0.0795,-0.038 -0.16073,-0.072 -0.24109,-0.1076 -1.32069,-0.486 -2.73047,-0.6099 -4.12208,-0.723 -0.6567,-0.028 -1.31523,-0.1031 -1.97345,-0.063 -0.19572,0.012 -0.49333,0.044 -0.6833,0.1335 -0.0617,0.029 -0.10844,0.083 -0.16266,0.124 0.6839,-0.3908 1.364,-0.7884 2.05171,-1.1726 0.0162,-0.01 -0.0312,0.026 -0.0327,0.045 -0.002,0.023 0.0116,0.045 0.0235,0.064 0.0833,0.1351 0.21759,0.2469 0.32921,0.3567 0.35527,0.31 0.62167,0.6961 0.88265,1.0841 0.2236,0.3662 0.42422,0.7513 0.76045,1.0266 0.43784,0.2887 0.83733,0 1.2348,-0.2216 0.16342,-0.091 0.32747,-0.1817 0.49026,-0.2742 0.198,-0.1126 0.78934,-0.4549 0.59209,-0.341 -0.47938,0.2767 -1.91773,1.1066 -1.4385,0.8296 0.88188,-0.5097 1.76978,-1.0092 2.64643,-1.5278 0.51563,-0.3051 -1.03563,0.6031 -1.56325,0.8869 -0.14485,0.078 0.27592,-0.1791 0.41388,-0.2686 0.26861,-0.1567 0.48347,-0.3971 0.7559,-0.5481 1.53155,-0.8485 1.67436,-1.6582 2.70364,-1.1124 0.34356,0.2094 0.6039,0.5238 0.92272,0.7619 0.58232,0.4124 1.27166,0.5966 1.94199,0.8106 0.59858,0.1358 1.29489,0.4411 1.91585,0.3301 0.88584,-0.5181 -0.71393,0.4187 -1.89639,1.062 -0.0397,0.022 0.0737,-0.054 0.10055,-0.091 0.0908,-0.1227 0.12335,-0.3071 0.16726,-0.4495 0.0897,-0.3315 0.1105,-0.675 0.12349,-1.0165 -0.005,-0.071 0.0505,-0.4162 -0.10283,-0.4209 -0.0403,-0 -0.0758,0.028 -0.11527,0.036 -0.0644,0.013 -0.13016,0.017 -0.19524,0.026 -0.0718,0.028 -0.14452,0.053 -0.21538,0.083 -0.27874,0.118 -0.59988,0.2951 -0.50854,0.2427 3.26625,-1.873 2.11301,-1.2637 1.46762,-0.7734 -0.11767,0.089 -0.22954,0.1862 -0.34431,0.2793 -0.47133,0.3783 -0.84749,0.854 -1.27412,1.2775 -1.55662,1.3479 -1.96066,1.4517 -3.43549,1.4455 -1.25819,-0 -2.51762,0.038 -3.76963,0.1652 -0.79801,0.1214 -1.62708,0.198 -2.4003,0.4435 -0.061,0.02 -0.12334,0.036 -0.18284,0.06 -0.16696,0.068 -0.14246,0.077 -0.29338,0.1692 -0.0469,0.029 -0.1918,0.1085 -0.14408,0.081 2.07647,-1.1972 2.64758,-1.5791 1.87458,-1.0675 -0.76041,0.6254 -1.32564,0.8388 -2.4999,1.3711 -0.0364,0.016 -0.35725,-0.3596 -0.38379,-0.3862 -0.64927,-0.6308 -1.45733,-1.0253 -2.2776,-1.3828 -1.01221,-0.4311 -2.08308,-0.6914 -3.17001,-0.8414 -0.24973,-0.022 -0.53189,-0.063 -0.78101,0 -0.064,0.017 -0.23795,0.1157 -0.18045,0.083 2.23762,-1.2764 2.62254,-1.5435 1.87004,-1.0322 -0.23604,0.2305 -0.28117,0.5397 -0.2322,0.8525 0.16299,0.4891 0.49318,0.8806 0.82431,1.2635 0.20278,0.1547 0.45599,0.6446 0.76149,0.5203 0.57175,-0.7047 0.0403,-0.03 -2.0172,1.1045 -0.0333,0.018 0.0595,-0.049 0.0798,-0.082 0.0814,-0.1292 0.0926,-0.3038 0.11315,-0.4499 0.0134,-0.2303 0.1054,-0.546 -0.149,-0.6654 -0.0724,-0.017 -0.11994,-0.042 -0.19283,-0.01 -0.0283,0.014 -0.0977,0.08 -0.0699,0.064 0.70301,-0.386 1.39713,-0.788 2.09794,-1.1781 0.0459,-0.025 -0.0844,0.065 -0.11507,0.1076 -0.007,0.2121 0.28346,0.3696 0.44651,0.4572 0.16201,0.047 0.39429,0.1764 0.56766,0.099 0.0417,-0.018 0.14515,-0.11 0.1051,-0.088 -0.6805,0.3737 -1.35239,0.7629 -2.02858,1.1443 0.27986,-0.198 0.44447,-0.521 0.59773,-0.8204 0.0366,-0.1369 0.19261,-0.3585 0.11817,-0.5098 -0.0164,-0.033 -0.12243,-0.058 -0.13741,-0.062 0.12193,-0.1996 -0.47112,0.2569 -0.35298,0.1923 0.67841,-0.3706 1.33253,-0.7851 2.01648,-1.1454 0.0559,-0.029 -0.0834,0.095 -0.12027,0.1466 -0.0372,0.052 -0.0678,0.1079 -0.10167,0.1619 -0.17353,0.3457 -0.24192,0.7336 -0.23933,1.1179 0.29892,0.4087 0.93439,0.4839 1.39916,0.5779 0.89409,0.1662 1.78936,0.1273 2.68117,-0.02 0.7467,-0.1038 1.47121,-0.3095 2.14799,-0.6431 0.14609,-0.072 0.57147,-0.3127 0.4299,-0.2322 -0.57543,0.3273 -1.15437,0.6484 -1.73155,0.9726 0.5606,-0.3919 1.0438,-0.8896 1.43533,-1.4492 0.0494,-0.1321 0.29568,-0.4035 0.20445,-0.5662 -0.0303,-0.054 -0.11074,-0.058 -0.15836,-0.07 -0.32961,-0.058 -0.68983,-0.084 -0.9517,0.1536 4.00852,-2.0995 2.4171,-1.5428 1.78799,-0.9866 -0.19849,0.1755 -0.36698,0.3796 -0.53792,0.5809 -0.2287,0.3479 -0.64922,0.7359 -0.63136,1.1884 0.16497,0.139 0.4961,0.092 0.70484,0.095 0.17073,-0.019 0.3249,-0.058 0.48172,-0.1252 0.0463,-0.02 0.18328,-0.082 0.13967,-0.057 -2.52597,1.4544 -2.64742,1.5337 -1.8818,1.053 0.29647,-0.2177 0.55794,-0.4726 0.86409,-0.6781 0.55162,0.1571 1.80382,-1.1344 2.69135,-1.4833 0.12459,-0.049 0.2411,-0.071 0.34618,-0.1557 0,0 -1.9738,1.5869 -1.9738,1.5869 l 0,0 c -0.88561,0.2579 -2.37855,1.4204 1.2732,-0.8455 -0.3326,0.1637 -0.60157,0.3991 -0.86039,0.6607 -0.9469,0.66 -1.92954,1.502 -3.11746,1.5129 -0.34839,-0.021 -0.7243,-0.034 -0.89753,-0.3881 -0.0109,-0.056 -0.0318,-0.1107 -0.0327,-0.1676 -0.007,-0.4598 0.38463,-0.8579 0.60717,-1.2214 0.89529,-1.1537 1.30055,-1.2816 2.99644,-2.1525 0.36138,-0.1102 0.74104,-0.089 1.09459,0.046 0.44717,0.2952 0.35838,0.5886 0.1365,1.0189 -0.37454,0.6002 -0.88025,1.1165 -1.43068,1.5573 -1.90759,1.1222 -2.97628,1.9685 -5.08195,2.255 -0.92255,0.1296 -1.84869,0.1628 -2.76726,-0.028 -0.59046,-0.1358 -1.28903,-0.2583 -1.59871,-0.8394 -0.0326,-0.4212 0.0491,-0.8435 0.18281,-1.2429 0.4994,-1.0384 0.83348,-0.7937 2.4486,-1.7685 0.16037,-0.097 0.35216,-0.057 0.51034,0.014 0.36447,0.2631 0.32834,0.51 0.19111,0.9048 -0.13905,0.335 -0.33217,0.6511 -0.54055,0.9464 -1.28938,0.7429 -1.90041,1.7513 -3.09661,1.1265 -0.27248,-0.1785 -0.5445,-0.3948 -0.61474,-0.7297 0.0518,-1.0872 1.74476,-1.9592 2.68787,-1.4361 0.30318,0.2625 0.30662,0.5231 0.27091,0.9044 -0.10022,1.1935 -0.58776,2.1146 -2.47659,2.0157 -0.36525,-0.123 -0.59211,-0.4345 -0.84747,-0.7075 -0.3538,-0.4194 -0.69731,-0.8496 -0.90026,-1.3667 -0.0885,-0.3744 -0.0733,-0.7354 0.12112,-1.0779 0.85189,-1.1069 2.15244,-1.6637 3.43716,-1.4316 1.08051,0.2005 2.14251,0.4973 3.15699,0.9238 0.85641,0.3676 1.70473,0.7741 2.40134,1.4072 10e-4,0 0.21208,0.1996 0.25308,0.2202 0.0133,0.01 0.057,-0.015 0.044,-0.01 -3.7726,2.1652 -2.60467,1.543 -1.88005,1.0539 0.75856,-0.7278 0.0835,-0.099 2.41468,-1.4487 0.20312,-0.1176 0.41847,-0.2041 0.64863,-0.2534 0.77557,-0.1648 1.56242,-0.2839 2.35185,-0.3562 1.27465,-0.11 2.55402,-0.1512 3.8326,-0.1894 0.27343,-0.012 0.56521,-0.01 0.83173,-0.082 0.0514,-0.015 0.19476,-0.087 0.14889,-0.059 -1.70627,1.02 -2.7342,1.5442 -1.86783,1.0995 0.49021,-0.3763 0.83156,-0.9188 1.32007,-1.301 0.97649,-0.8534 1.81585,-1.2405 3.0999,-1.9748 0.10609,-0.061 0.42143,-0.1833 0.54503,-0.2152 0.0829,-0.021 0.16889,-0.028 0.25333,-0.042 0.52275,0.02 0.64913,0.2038 0.63657,0.7049 -0.01,0.3579 -0.0265,0.717 -0.0996,1.0685 -0.0188,0.082 -0.16067,0.6676 -0.19625,0.6905 -2.04915,1.3166 -1.42829,1.2037 -2.45888,1.3531 -0.66023,-0.033 -1.29877,-0.2448 -1.92763,-0.4332 -0.70224,-0.223 -1.42817,-0.4213 -2.03623,-0.8552 -0.29082,-0.2392 -0.54559,-0.5308 -0.88758,-0.7014 -0.81783,-0.2086 -2.11789,1.0837 1.71345,-1.1844 0.0716,-0.042 -0.14939,0.074 -0.21935,0.1192 -0.097,0.062 -0.53202,0.3976 -0.58833,0.4405 -1.31787,0.8686 0.0711,-0.036 -3.00039,1.7863 -0.48617,0.2884 1.95754,-1.1318 1.46803,-0.849 -1.26645,0.7314 -2.52672,1.476 -3.80566,2.1861 -0.56917,0.2707 -0.91098,0.4142 -1.44659,0.01 -0.32887,-0.3111 -0.55778,-0.6966 -0.78198,-1.087 -0.25404,-0.3741 -0.52045,-0.7386 -0.86602,-1.0353 -1.18343,-1.1529 -0.0995,-1.0586 1.71889,-2.1757 0.89811,-0.2906 1.8823,-0.013 2.79894,-0 1.4348,0.1294 2.88261,0.2637 4.25866,0.718 0.0905,0.034 0.18129,0.067 0.27152,0.1018 0.0433,0.017 0.16633,0.024 0.12904,0.052 -1.91718,1.418 -1.61312,2.0335 -2.25513,1.1641 -0.1211,-0.3071 -0.0698,-0.6309 0.007,-0.9458 0.38792,-1.1357 1.77324,-1.5223 2.76189,-2.0354 0.41643,-0.1582 0.85138,-0.1532 1.2796,-0.031 0.49158,0.1563 0.93253,0.4044 1.25414,0.8192 0.24145,0.3615 0.42428,0.7263 0.33298,1.1726 -0.0652,0.4009 -0.19362,0.7764 -0.46196,1.0908 -0.67858,0.8784 -0.10487,0.1788 -2.43122,1.5649 -0.21462,0.1279 -0.46033,0.1644 -0.70455,0.1266 -0.36963,-0.077 -0.71568,-0.21 -1.00232,-0.4647 -0.28145,-0.2748 -0.45626,-0.6067 -0.4775,-1.0061 0.0184,-0.3874 0.0507,-0.7798 0.22104,-1.1349 0.75439,-0.4574 1.50527,-0.9206 2.26317,-1.3722 0.31042,-0.1849 0.70135,-0.143 1.0408,-0.098 0.52065,0.1134 0.96863,0.3379 1.29974,0.7712 0.31617,0.436 0.62949,0.9487 0.50109,1.508 -0.34559,1.3484 -1.35374,1.4737 -2.72579,2.2318 -0.3371,0.083 -0.65063,-0.014 -0.89686,-0.2616 -0.22238,-0.3016 -0.29015,-0.6234 -0.13186,-0.9749 0.48738,-0.9048 0.0764,-0.1991 2.34393,-1.4681 0.18976,-0.1062 0.45212,0.028 0.60149,0.1368 0.24699,0.2649 0.30298,0.5699 0.13139,0.8988 -1.70801,1.0359 -1.77088,1.5139 -3.24034,1.438 -0.44758,-0.028 -0.91389,-0.064 -1.27478,-0.3601 -0.38977,-0.3908 -0.49002,-0.7279 -0.41445,-1.274 0.005,-0.05 0.0561,-0.59 0.0834,-0.6088 0.93856,-0.644 1.61599,-1.8366 2.47822,-1.2402 0.30325,0.3292 0.25264,0.647 0.15626,1.0593 -0.11773,0.3678 -0.31837,0.6782 -0.53475,0.9962 -0.75927,0.9541 -1.97153,1.814 -3.21021,1.7283 -0.41048,-0.06 -0.783,-0.1699 -1.02777,-0.5324 -0.246,-0.4619 -0.21578,-0.7842 -0.0586,-1.2723 0.44637,-1.1313 1.76949,-2.1874 3.01273,-1.937 0.39628,0.1563 0.68963,0.4136 0.8073,0.8379 0.0415,0.4624 -0.0162,0.9364 -0.12232,1.3869 -0.42935,1.0987 -0.83838,0.829 -2.47009,1.783 -0.1703,0.1 -0.37953,0.079 -0.56657,0.08 -0.43545,-0.01 -0.87525,-0.018 -1.30115,-0.1183 -0.41424,-0.1383 -0.80503,-0.3424 -1.0711,-0.7011 -0.0797,-0.1393 -0.15025,-0.228 -0.16365,-0.3959 -0.019,-0.2383 0.12575,-0.4968 0.2156,-0.7056 0.72875,-1.048 1.97625,-1.6396 3.1652,-1.4039 0.46055,0.095 0.88541,0.2624 1.26026,0.5546 0.39451,0.296 0.8054,0.6151 1.01003,1.077 0.10482,0.4465 0.0743,0.9119 -0.0922,1.3418 -0.75783,0.4657 -1.5028,0.953 -2.27349,1.397 -0.24513,0.1413 -1.27697,-0.1182 -1.55894,-0.1411 -1.09123,-0.2192 -2.17227,-0.5072 -3.20151,-0.9363 -0.65184,-0.2472 -1.32539,-0.4788 -1.90195,-0.8796 -0.48766,-0.4004 -0.78001,-0.7986 -0.76681,-1.4581 0.0356,-0.5178 0.0583,-1.0888 0.3734,-1.5222 0.76453,-0.4645 1.52447,-0.9366 2.29359,-1.3934 0.33661,-0.1999 0.75452,-0.1641 1.12492,-0.1287 0.57942,0.076 1.17739,0.1797 1.60954,0.6075 0.0537,0.071 0.11729,0.1363 0.16126,0.2141 0.24631,0.4357 0.14943,0.9594 0.0436,1.4184 -0.23325,0.5989 -0.53725,1.186 -1.00431,1.6372 -1.29702,0.7631 -2.02423,1.6413 -3.40953,1.4906 -0.41205,-0.066 -0.81056,-0.1695 -1.10397,-0.4885 -0.31329,-0.3526 -0.45622,-0.7992 -0.33369,-1.2655 0.31395,-1.1403 0.85743,-0.9043 2.43665,-1.8133 0.1872,-0.1077 0.45982,-0.01 0.64781,0.027 0.50565,0.157 1.0072,0.3869 1.20562,0.9167 0.0837,0.4333 0.0395,0.8583 -0.14971,1.2616 -0.54304,1.0106 -0.96631,0.8208 -2.50884,1.7162 -0.17198,0.1 -0.37928,0.1321 -0.57234,0.1574 -0.379,0 -0.76612,-0.011 -1.11622,-0.1724 -0.33951,-0.1873 -0.61809,-0.4495 -0.75934,-0.819 -0.10153,-0.4258 -0.0248,-0.8441 0.12694,-1.2519 0.49204,-1.1026 1.9306,-1.9926 3.12196,-1.8951 0.44353,0.075 0.84103,0.21 1.00965,0.6688 0.0167,0.078 0.0448,0.1546 0.0502,0.2343 0.0295,0.4318 -0.18861,0.866 -0.33305,1.2576 -0.21317,0.4964 -0.4351,0.9898 -0.71136,1.4547 -0.67208,0.9144 -0.11806,0.2134 -2.45976,1.5802 -0.27832,0.1624 -0.62474,0.1837 -0.93724,0.1954 -0.51068,-0.039 -1.02504,-0.099 -1.50796,-0.2798 -0.33674,-0.1268 -0.65562,-0.2837 -0.97506,-0.4484 2.21955,-1.5552 1.30446,-1.6294 2.7109,-1.2408 0.35048,0.089 0.7228,0.1405 1.03561,0.3323 0.76511,0.5381 0.0194,-0.024 -2.07641,1.2803 -0.0301,0.019 0.0319,0.079 0.0671,0.082 4.4e-4,10e-5 -9.3e-4,-0.1138 -0.006,-0.2049 -0.003,-0.057 -0.008,-0.1139 -0.0124,-0.1709 -0.0519,-0.4909 -0.16096,-0.9713 -0.26706,-1.4529 -0.13107,-0.7873 -0.29777,-1.5725 -0.32551,-2.3727 -0.003,-0.6372 -0.008,-1.2744 -0.0129,-1.9116 -0.011,-1.6644 -0.29392,-0.8706 2.24655,-2.2418 -0.0545,0.2212 0.0158,0.4656 -0.0118,0.6897 -6e-5,0.3296 3.1e-4,0.6593 -0.0102,0.9888 -0.0147,0.3675 -0.0401,0.7347 -0.0962,1.0986 -0.0634,0.3441 -0.0652,0.6867 -0.0582,1.0368 -0.003,0.4435 -0.009,0.8872 0.007,1.3305 0,0 -2.24556,1.1442 -2.24556,1.1442 z"
       inkscape:connector-curvature="0" />
    <path
       style="fill:#ffcc00;fill-opacity:1;stroke:none;stroke-opacity:1"
       id="path4250"
       d="m 344.34153,1048.8913 c -0.17934,-0.3993 -0.29984,-0.8184 -0.37846,-1.248 -0.0299,-0.2417 -0.0155,-0.5559 0.22613,-0.6973 0.75738,-0.4432 1.52575,-0.8673 2.28862,-1.3009 0.33664,-0.1695 0.70873,-0.1889 1.0776,-0.2084 0.87553,-0.014 1.75147,-0 2.62714,-0 0.95752,0.013 1.90285,0.1428 2.82921,0.3787 0.48865,0.133 0.85904,0.1075 1.12619,0.5852 0.1515,0.3927 0.10178,0.7858 0.002,1.1821 -0.10108,0.4609 -0.28219,0.8974 -0.47122,1.328 -0.13967,0.2989 -0.28615,0.6037 -0.53895,0.8223 -2.40799,1.5332 -1.64976,1.1112 -3.28163,1.4073 -1.1065,0.2162 -2.24326,0.2409 -3.36694,0.2972 -0.61783,0 -1.27204,0.1529 -1.857,-0.1171 -0.2768,-0.1278 -0.36716,-0.2307 -0.59606,-0.4246 -0.40726,-0.422 -0.68521,-0.9106 -0.84248,-1.4721 -0.12548,-0.4887 -0.0714,-0.8427 0.24447,-1.2373 1.01826,-0.9367 2.26496,-1.6078 3.622,-1.7602 0.57605,-0.052 1.15446,-0.055 1.7323,-0.053 0.30355,-0.022 0.61478,0.032 0.91778,0 0.72945,-0.07 2.90334,-1.5203 -1.54067,0.9763 0.3027,-0.1921 0.30037,-0.38 0.0223,-0.5899 -0.13346,-0.062 -0.2931,-0.1601 -0.44962,-0.1211 -0.0469,0.012 -0.16774,0.096 -0.12541,0.073 2.07403,-1.1484 2.6714,-1.6136 1.93402,-1.0502 -0.23321,0.3969 -0.21796,0.8911 -0.22983,1.3393 -0.0155,0.5225 0.42856,0.6625 0.85578,0.7932 0.61595,0.1312 1.25664,0.2234 1.87905,0.096 0.79608,-0.3466 2.07856,-0.9993 -1.56155,0.9162 -0.06,0.031 0.10097,-0.092 0.14103,-0.1463 0.10302,-0.1405 0.12286,-0.2401 0.17815,-0.4025 0.0951,-0.42 0.18414,-0.8692 -0.0415,-1.2579 -0.10416,-0.1156 -0.1995,-0.1928 -0.34831,-0.099 -0.0407,0.026 -0.15163,0.1172 -0.10937,0.094 1.99176,-1.0847 2.57216,-1.6841 1.89076,-1.0069 -0.15404,0.2484 -0.36142,0.6209 -0.20915,0.9127 0.68603,0.3255 1.52208,0.3198 2.26623,0.3736 1.64478,0.075 3.21523,-0.091 4.80596,-0.5068 0.4153,-0.1404 0.69277,-0.2138 1.07432,-0.4135 0.12783,-0.067 0.49439,-0.2973 0.36693,-0.2297 -2.97212,1.5767 -2.00045,1.4081 -1.50953,0.5931 0.0309,-0.1108 0.0917,-0.2179 0.0171,-0.3312 -0.17774,-0.2697 -0.76112,-0.3139 -1.03828,-0.3256 -0.36443,0.066 -0.34714,0.034 -0.68466,0.2158 -0.11784,0.063 -0.45828,0.2763 -0.34033,0.2131 0.58207,-0.3122 1.1315,-0.688 1.73333,-0.9601 0.15649,-0.071 -0.26306,0.2221 -0.37987,0.348 -0.14305,0.1542 -0.26509,0.3267 -0.39763,0.49 -0.78256,1.1138 -1.24244,2.399 -1.56878,3.7096 -0.0349,0.2175 -0.10329,0.4623 -0.0395,0.6863 0.18529,0.6511 1.22867,0.8629 1.75272,1.0164 1.70866,0.3927 3.47799,0.4006 5.19641,0.059 0.27201,-0.054 0.53837,-0.1335 0.80756,-0.2003 0.83178,-0.231 2.97698,-1.3864 -0.56965,0.517 -0.10856,0.058 0.20703,-0.1343 0.30316,-0.2114 0.21354,-0.1712 0.2359,-0.2235 0.39474,-0.4294 0.26393,-0.4058 0.27579,-0.8842 0.28421,-1.3522 -0.007,-0.2502 0.027,-0.6541 -0.23887,-0.8004 -0.0621,-0.034 -0.13292,-0.049 -0.19938,-0.074 -0.76057,-0.1866 -1.55104,-0.044 -2.2978,0.1409 -0.0988,0.038 -0.20081,0.068 -0.29632,0.1138 -0.0786,0.037 -0.29973,0.1769 -0.22393,0.1342 0.67043,-0.3781 1.347,-0.7457 2.00788,-1.1402 0.0144,-0.01 -0.0428,-0.038 -0.0266,-0.043 0.0398,-0.011 0.0827,0.01 0.12318,0.015 0.0916,0.019 0.18173,0.045 0.2726,0.068 0.64164,0.1054 1.30288,0.212 1.95441,0.1551 0.90057,-0.3012 0.39327,-0.1436 -1.85529,1.0664 -0.0436,0.024 0.0857,-0.054 0.1151,-0.094 0.0382,-0.052 0.0667,-0.1118 0.083,-0.174 0.0511,-0.195 0.006,-0.3045 -0.0288,-0.5029 -0.0602,-0.114 -0.10473,-0.2377 -0.18071,-0.3418 -0.74485,-1.0203 -2.24452,-1.4449 -3.38984,-1.775 -1.43717,-0.3219 -2.93515,-0.5262 -4.40603,-0.3226 -0.19881,0.027 -0.39427,0.075 -0.59141,0.1131 -0.15819,0.055 -0.32145,0.097 -0.47459,0.1652 -0.13141,0.058 -0.50138,0.2815 -0.37568,0.2118 0.60753,-0.337 1.20038,-0.7017 1.82116,-1.0137 0.0886,-0.044 -0.14941,0.1314 -0.21443,0.2063 -0.1375,0.1584 -0.16098,0.2376 -0.24766,0.42 -0.19677,0.5244 0.0612,0.773 0.45457,1.0854 0.6944,0.5297 1.52848,0.798 2.37003,0.9848 0.63889,0.092 1.29753,0.2136 1.94435,0.1391 0.0643,-0.02 0.13243,-0.03 0.19296,-0.059 0.0608,-0.03 0.22586,-0.148 0.16668,-0.1154 -0.65843,0.3628 -1.29883,0.7586 -1.96525,1.1066 -0.0675,0.035 0.11182,-0.1042 0.15934,-0.1637 0.11102,-0.139 0.14255,-0.231 0.21623,-0.3895 0.0275,-0.096 0.0806,-0.2185 0.0449,-0.3239 -0.14226,-0.4208 -1.13125,-0.564 -1.44911,-0.6373 -1.76857,-0.2897 -3.56643,-0.3251 -5.35474,-0.3426 -0.35852,0.015 -0.63751,0.01 -0.98328,0.082 -0.0994,0.021 -0.37801,0.1439 -0.29076,0.092 0.65286,-0.3627 1.30571,-0.7254 1.95857,-1.0881 -0.0365,0.032 -0.0864,0.054 -0.10937,0.097 -0.0222,0.042 -0.0115,0.093 -0.0172,0.1402 0.39432,0.9913 1.25284,1.7226 2.05025,2.3896 0.88749,0.6368 1.86237,1.1558 2.90342,1.4933 0.44781,0.1451 0.65467,0.1718 1.0994,0.2567 0.23671,0.016 0.45815,0.054 0.69184,-0.01 0.0823,-0.022 0.30612,-0.1491 0.23182,-0.1074 -2.88558,1.6168 -2.16745,1.5451 -1.63296,0.6202 0.30871,-0.7563 0.38849,-1.5854 0.36471,-2.3955 -0.0863,-0.7212 -0.40177,-1.3594 -1.02647,-1.7591 -0.12501,-0.08 -0.26308,-0.1374 -0.39462,-0.206 -0.89315,-0.4291 -1.86915,-0.5079 -2.84383,-0.4667 -1.20082,0.1135 -2.30663,0.6193 -3.33244,1.2264 3.38826,-1.8949 1.57639,-1.0295 1.00169,-0.362 -0.19341,0.2246 -0.23301,0.3239 -0.39024,0.5925 -0.27283,0.6567 -0.66465,1.4004 -0.63941,2.1306 0.0189,0.015 0.0428,0.063 0.0567,0.044 0.0481,-0.067 0.1605,-0.2524 0.0798,-0.2347 -0.5864,0.1289 -1.14982,0.828 -1.70145,0.591 -0.37203,-0.1598 0.34402,-0.7336 0.49485,-1.1094 0.43471,-1.083 0.55201,-1.5568 0.89141,-2.674 0.31354,-1.1659 0.58897,-2.3456 0.73114,-3.5462 0.0553,-0.4673 0.1108,-1.1284 0.0587,-1.6122 -0.0212,-0.1974 -0.0836,-0.3881 -0.12541,-0.5821 -0.0791,-0.1596 -0.13692,-0.3317 -0.23746,-0.4787 -0.50797,-0.743 -1.49054,-0.9 -2.31005,-1.0254 -0.47045,-0.05 -0.98211,-0.095 -1.43424,0.092 -0.17341,0.072 -0.6553,0.3648 -0.48594,0.2841 1.67273,-0.7975 1.97186,-1.2495 0.93863,-0.1618 -1.12175,1.3735 -2.04908,2.9197 -2.72607,4.5606 -0.11611,0.2814 -0.21245,0.5706 -0.31868,0.8559 -0.35575,1.0629 -0.5821,2.1692 -0.59639,3.2912 0.0285,0.6079 0.17624,1.192 0.43184,1.7422 0.16948,0.3948 0.36942,0.601 0.77644,0.7373 0.0889,0.01 0.17723,0.031 0.26666,0.03 0.39968,-0 0.78631,-0.1465 1.13588,-0.3277 0.16292,-0.084 0.6362,-0.3661 0.47563,-0.2773 -0.5264,0.2913 -1.04879,0.5897 -1.57318,0.8846 0.75834,-0.5141 1.45649,-1.128 2.01581,-1.8555 0.36696,-0.5093 0.43442,-1.1118 0.47205,-1.7194 0.007,-0.5965 0.0344,-1.1973 -0.0152,-1.7926 -0.0439,-0.3427 -0.10078,-0.7103 -0.34998,-0.9662 -0.002,-0.1712 -0.28485,0.1429 -0.25471,0.1266 0.68864,-0.3725 1.34902,-0.7962 2.04228,-1.16 0.0558,-0.029 -0.0817,0.096 -0.11594,0.1491 -0.0374,0.058 -0.0654,0.1213 -0.0981,0.1819 -0.04,0.1166 -0.24276,0.5264 -0.14924,0.6456 0.0807,0.1028 0.48163,0.2045 0.5002,0.2108 2.20898,0.7381 4.53452,1.0348 6.83782,1.3118 0.83742,0.071 1.67431,0.1992 2.51697,0.1943 0.33488,-0 0.6551,-0.01 0.93617,-0.1987 -0.70444,0.422 -1.41869,0.8281 -2.11332,1.266 -0.0194,0.012 0.0173,0.06 -0.004,0.069 -0.0248,0.011 -0.69675,-0.068 -0.77173,-0.073 -0.25728,-0.01 -0.52655,-0.037 -0.77643,0.047 -0.044,0.015 -0.1642,0.087 -0.12385,0.064 0.69726,-0.3981 1.39646,-0.7928 2.09469,-1.1892 -0.009,-0.028 -0.0536,-0.074 -0.0258,-0.084 0.0585,-0.02 0.1233,0.014 0.1834,0.029 0.14498,0.036 0.28528,0.09 0.43095,0.1226 0.223,0.051 0.44819,0.092 0.67399,0.1275 0.67589,0.1075 1.04695,0.1338 1.73435,0.2021 1.16649,0.038 2.35797,0.2635 3.52115,0.08 0.0813,-0.029 0.1666,-0.049 0.24375,-0.087 0.0612,-0.031 0.22726,-0.1521 0.16743,-0.1189 -0.67576,0.3756 -1.33718,0.7767 -2.01619,1.1463 -0.0717,0.039 0.12946,-0.08 0.1404,-0.2432 -0.18977,-0.1398 -0.5137,-0.1018 -0.73971,-0.1106 -0.40777,-0.045 -0.77927,0.103 -1.16037,0.2159 -0.98052,0.5575 2.55731,-1.4777 1.92539,-1.0957 -0.75929,0.4591 -1.52258,0.9137 -2.30968,1.3232 -0.1291,0.067 -1.30164,0.09 -1.41891,0.095 -1.54012,0.039 -3.08072,0.055 -4.62113,0.079 -0.57819,0 -1.18299,0.018 -1.74667,-0.1344 -0.32718,-0.059 -0.6237,-0.1705 -0.92622,-0.3029 -0.40137,-0.1614 -0.82189,-0.2335 -1.24982,-0.2801 -0.86589,-0.07 -1.73551,-0.07 -2.60363,-0.077 -1.03211,-0.01 -2.06425,-0.01 -3.09634,0 -0.10182,0.01 -0.48312,0.033 -0.61048,0.067 -0.0516,0.014 -0.19028,0.097 -0.14384,0.071 0.70208,-0.3965 1.40417,-0.793 2.10625,-1.1895 -0.055,-0.09 -0.0475,-0.046 -0.0424,-0.1284 0.18134,0.1442 0.40199,0.095 0.60056,0.1923 0.0381,0.027 0.0809,0.049 0.11427,0.082 0.0421,0.041 0.071,0.094 0.10993,0.1387 0.17892,0.2038 0.3681,0.3939 0.57343,0.5713 0.38604,0.311 0.82518,0.4962 1.30663,0.5928 0.27733,0.052 0.57463,0.031 0.82641,-0.1088 0.0653,-0.036 0.24707,-0.1676 0.18167,-0.1314 -0.65293,0.361 -1.29704,0.7377 -1.94556,1.1066 0.35611,-0.2649 0.57139,-0.6289 0.69228,-1.0482 0.28061,-1.1015 1.00556,-1.0132 2.4507,-1.6862 0.073,-0.034 0.14798,0.064 0.22376,0.091 0.10669,0.038 0.21553,0.07 0.3233,0.1051 1.68168,0.3899 3.42779,0.4052 5.14572,0.4595 1.12172,-0 2.24985,0.01 3.36571,-0.1284 0.27338,-0.034 0.54364,-0.089 0.81586,-0.1308 0.19178,-0.025 0.3753,-0.01 0.54377,0.091 0.0836,0.05 0.14504,0.1334 0.23137,0.1785 0.058,0.03 0.12336,0.044 0.18504,0.066 0.80975,0.1762 1.63943,0.1735 2.45071,0.3368 0.82322,0.1795 1.65805,0.2897 2.49767,0.3516 0.1696,-0.01 0.30025,0.01 0.45637,-0.065 0.0483,-0.022 0.17552,-0.1188 0.12926,-0.093 -0.68889,0.393 -1.37777,0.786 -2.06665,1.179 0.0171,-0.023 0.0442,-0.04 0.0513,-0.067 0.008,-0.031 -0.006,-0.063 -0.009,-0.095 -0.2348,-0.3981 -0.67703,-0.6708 -1.08694,-0.8642 -0.19896,-0.072 -0.42819,-0.1776 -0.64659,-0.113 -0.0446,0.013 -0.16138,0.092 -0.12076,0.07 2.08566,-1.1632 2.70944,-1.6219 1.98306,-1.0938 -0.13839,0.2138 -0.16186,0.4929 -0.0914,0.7343 0.12679,0.2917 0.35879,0.4464 0.65307,0.5348 0.31002,0.068 0.6294,0.061 0.94494,0.064 0.34104,0.012 0.67151,0.012 0.98687,-0.1292 0.78321,-0.568 -0.063,0.054 -1.8445,1.0296 -0.0529,0.029 0.0934,-0.077 0.136,-0.1195 0.12994,-0.1301 0.22629,-0.2781 0.31779,-0.436 0.13978,-0.2745 0.19046,-0.5459 0.0932,-0.838 -0.11173,-0.2199 -0.35453,-0.2648 -0.57988,-0.2284 -0.73662,0.3867 -1.37678,0.7239 1.93231,-1.0795 0.045,-0.024 -0.0866,0.056 -0.12347,0.091 -0.0447,0.043 -0.0841,0.092 -0.11929,0.1431 -0.10123,0.1474 -0.11999,0.2208 -0.18663,0.3864 -0.14529,0.4644 -0.18133,0.9561 -0.16916,1.4402 0.0261,0.4474 0.20717,0.8258 0.51758,1.1414 0.2267,0.2177 0.50213,0.3614 0.80375,0.4418 0.14984,0.046 0.24188,0.03 0.36831,-0.049 0.0315,-0.02 0.12801,-0.075 0.0958,-0.057 -2.08094,1.181 -2.74021,1.6216 -1.99259,1.1251 0.16416,-0.2307 0.28703,-0.501 0.38382,-0.7678 0.0955,-0.2989 0.11057,-0.6132 0.12107,-0.9243 -0.0178,-0.2778 0.0595,-0.5803 -0.0419,-0.8461 -0.0569,-0.062 -0.0783,-0.032 -0.11491,0.029 0.71357,-0.3892 1.42865,-0.7757 2.14071,-1.1676 0.0221,-0.012 -0.0518,0.011 -0.0704,0.028 -0.0258,0.024 -0.0377,0.059 -0.0565,0.088 -0.13884,0.4852 -0.0897,0.989 0.0152,1.4745 0.12665,0.4967 0.34332,0.962 0.75595,1.2781 0.35861,0.222 0.72276,0.1443 1.09874,0.015 0.0849,-0.041 0.17206,-0.077 0.25471,-0.1221 0.0951,-0.052 0.37301,-0.2209 0.27805,-0.1687 -0.59159,0.3256 -1.1674,0.6802 -1.76811,0.9886 -0.13599,0.07 0.24801,-0.1788 0.37004,-0.2709 0.12612,-0.095 0.24978,-0.1936 0.37434,-0.2908 0.12265,-0.096 0.24487,-0.192 0.3673,-0.288 0.51998,-0.3927 0.97192,-0.8535 1.37146,-1.3656 0.10953,-0.1798 0.34349,-0.489 0.22679,-0.7107 -0.22339,-0.1284 -0.50178,-0.1206 -0.75249,-0.1287 -0.77792,0.3864 -1.77614,0.9705 1.79868,-1.0318 0.0414,-0.023 -0.0817,0.049 -0.11949,0.077 -0.11043,0.084 -0.11047,0.101 -0.1942,0.2136 -0.20364,0.4843 -0.35875,0.9881 -0.49063,1.4963 -0.3503,1.5713 0.34682,0.5976 -2.41532,1.8825 -0.016,-0.2822 -0.007,-0.5654 -0.005,-0.848 0.0101,-0.1445 0.0122,-0.5578 -0.22732,-0.3819 -0.60972,0.6653 -0.0809,0.072 1.99324,-1.0939 0.0515,-0.029 -0.10128,0.074 -0.10333,0.072 -0.0228,-0.015 -0.035,-0.1301 -0.0364,-0.1386 0.64009,-0.7438 -0.73285,0.3792 -2.00399,1.1016 -0.0264,0.015 0.0479,-0.038 0.0664,-0.062 0.0515,-0.067 0.063,-0.1264 0.0894,-0.206 0.0705,-0.3417 0.0801,-0.6961 0.0593,-1.0435 -0.0168,-0.067 -0.0211,-0.1382 -0.0504,-0.2006 -0.21181,-0.4512 -1.09206,-0.7217 -1.52709,-0.8618 -0.51707,-0.1122 -1.11901,-0.3658 -1.6144,-0.073 0.67732,-0.3801 1.34708,-0.774 2.03198,-1.1402 0.043,-0.023 -0.0718,0.067 -0.0996,0.1069 -0.12169,0.1751 -0.13602,0.4052 -0.15511,0.6096 -0.0306,0.3802 -0.0137,0.7519 0.0652,1.1245 0.11989,0.5044 0.35207,0.9691 0.6035,1.419 0.23254,0.3273 0.37512,0.5437 0.77809,0.3398 -3.82622,2.0046 -2.28487,1.4246 -1.63658,0.8415 0.23652,-0.2127 0.43681,-0.4529 0.63608,-0.6996 0.34488,-0.436 0.60487,-0.9212 0.74646,-1.458 0.0745,-0.3654 0.0955,-0.7368 0.043,-1.1057 -0.07,-0.3855 -0.43409,-0.5093 -0.76981,-0.6023 -0.18243,-0.04 -0.39595,-0.076 -0.57448,0.01 -0.0545,0.026 -0.19664,0.1395 -0.1436,0.1106 2.0108,-1.0975 2.49523,-1.7279 1.89484,-0.9895 -0.2081,0.4023 -0.2092,0.8694 -0.2209,1.3124 -0.004,0.5271 -0.007,1.0542 -0.004,1.5814 0.0265,0.2657 -0.10257,0.9506 0.19623,1.0938 0.45257,-0.1711 0.89939,-0.3584 1.34831,-0.5406 0.80057,-0.3946 2.07318,-1.1312 -1.5046,0.8897 -0.0542,0.031 0.10701,-0.064 0.15705,-0.1011 0.14227,-0.1053 0.13298,-0.1127 0.23829,-0.25 0.19203,-0.3503 0.20088,-0.7567 0.2131,-1.1465 -0.0271,-0.1917 0.0674,-0.4583 -0.0484,-0.6346 -0.0339,-0.052 -0.11982,-0.072 -0.16924,-0.09 -0.12738,-0.032 -0.29024,-0.038 -0.41747,0.01 -0.0518,0.018 -0.19035,0.1079 -0.14266,0.081 2.0564,-1.1548 2.64901,-1.5776 1.88806,-1.0429 -0.23419,0.2213 -0.27744,0.5284 -0.30491,0.8336 0.0121,0.4858 0.40053,0.8701 0.70245,1.2133 0.58044,0.6323 1.28788,1.144 2.06027,1.5145 0.50454,0.1811 1.08866,0.4068 1.6292,0.2777 0.78575,-0.2758 2.14543,-1.1225 -1.67128,0.9931 -0.0543,0.03 0.10396,-0.069 0.1501,-0.1103 0.14377,-0.1294 0.17047,-0.1913 0.27935,-0.3528 0.29502,-0.5201 0.40409,-1.1029 0.46547,-1.6898 -0.0203,-0.3379 0.0884,-0.8248 -0.22662,-1.0498 -0.3591,-0.1328 -0.68532,-0.098 -1.01129,0.092 -0.065,0.036 -0.13005,0.073 -0.19507,0.1089 0.65581,-0.3739 1.30896,-0.7525 1.96744,-1.1218 0.0559,-0.031 -0.10671,0.071 -0.15906,0.1078 -0.13091,0.092 -0.232,0.1833 -0.33116,0.3082 -0.20997,0.404 0.32661,0.71 0.601,0.9012 0.61473,0.3181 1.32329,0.5266 2.02232,0.5141 0.13984,-0 0.27827,-0.029 0.4174,-0.043 0.33428,-0.058 0.40931,-0.048 0.7134,-0.1855 0.0929,-0.042 0.35528,-0.1999 0.26635,-0.1502 -3.19549,1.7892 -2.14742,1.4408 -1.57914,0.7266 0.2617,-0.433 0.25671,-0.9508 0.27025,-1.441 0.002,-0.5442 -0.22166,-0.7777 -0.68506,-1.0166 -0.37104,-0.1309 -0.81495,-0.2147 -1.15198,0.033 4.62877,-2.3425 2.24248,-1.5213 1.77109,-0.9378 -0.10937,0.1354 -0.19235,0.297 -0.27504,0.449 -0.17904,0.3417 -0.26234,0.7168 -0.27164,1.1003 0.0766,0.4533 0.4476,0.6373 0.84323,0.7738 0.35321,0.071 0.77901,0.2254 1.11399,0.033 -0.68815,0.3858 -1.37073,0.7817 -2.06444,1.1574 -0.0358,0.019 0.0647,-0.052 0.0867,-0.086 0.0299,-0.047 0.0501,-0.1 0.0661,-0.1529 0.0633,-0.2106 0.0646,-0.4422 0.0763,-0.6596 0.0172,-0.4161 -0.12468,-0.7065 -0.52033,-0.8456 -0.49932,-0.147 -0.96243,0 -1.43715,0.1527 0.66843,-0.3692 1.32483,-0.761 2.0053,-1.1075 0.0241,-0.012 -0.006,0.06 0.0119,0.08 0.0905,0.1068 0.19606,0.2004 0.30275,0.291 0.1736,0.1475 0.35538,0.2851 0.53714,0.4224 0.87493,0.6609 0.73541,0.5424 1.72708,1.1739 1.46866,0.8955 3.03883,1.6185 4.69681,2.0794 0.25379,0.019 0.57989,0.1535 0.8354,0.04 0.0529,-0.023 0.18544,-0.1374 0.13456,-0.1098 -2.00389,1.0888 -2.51834,1.708 -1.86213,0.964 0.32992,-0.5116 0.36239,-1.134 0.40085,-1.7247 0.0485,-0.5902 0.0214,-0.964 -0.33213,-1.4524 -0.42588,-0.4554 -0.98375,-0.7672 -1.55733,-0.9983 -0.4296,-0.1395 -0.88913,-0.2437 -1.34152,-0.1828 -0.73831,0.4529 -1.73832,0.8611 1.76305,-0.991 0.0628,-0.033 -0.10284,0.099 -0.14365,0.1574 -0.12694,0.1809 -0.15367,0.3003 -0.22966,0.5089 -0.14161,0.5091 -0.21416,1.0405 -0.19783,1.569 0.0155,0.05 0.0187,0.1064 0.0466,0.1511 0.15225,0.2436 0.87063,0.2637 1.12122,0.285 0.52351,-0.042 1.02517,-0.191 1.46222,-0.4839 -4.30049,2.335 -2.07574,1.5384 -1.73757,0.8264 0.14261,-0.3003 0.15381,-0.653 0.18728,-0.976 0.0333,-0.7255 0.0957,-1.4638 -0.0549,-2.1802 -0.054,-0.1805 -0.26221,-0.415 -0.48132,-0.2984 -0.0589,0.031 -0.10037,0.088 -0.15055,0.1321 0.62765,-0.3375 1.22155,-0.7471 1.88295,-1.0123 0.16042,-0.064 -0.23245,0.2563 -0.33833,0.3929 -0.13703,0.1767 -0.26403,0.3611 -0.38966,0.5462 -0.45396,0.6686 -0.87336,1.3612 -1.29079,2.0528 -0.52807,0.9127 -1.00557,1.8569 -1.28027,2.8781 -0.0836,0.4201 -0.19533,0.8694 0.005,1.2693 0.34115,0.4049 0.93588,0.5431 1.45011,0.5112 0.15328,-0.01 0.30327,-0.049 0.4549,-0.073 0.17013,-0.061 0.344,-0.1128 0.5104,-0.1835 0.19031,-0.081 0.7344,-0.3788 0.55825,-0.2705 -0.47861,0.2942 -0.96447,0.5788 -1.4673,0.8294 -0.22371,0.1115 0.42296,-0.2669 0.62738,-0.4108 0.50981,-0.3587 0.73462,-0.5629 1.21277,-0.9617 1.01842,-0.9676 1.72508,-2.1883 2.23872,-3.4837 0.24317,-0.6244 0.33993,-1.2814 0.36478,-1.9465 0.007,-0.4167 0.058,-0.6908 -0.29824,-0.9689 -0.46513,-0.3053 -1.02216,-0.3702 -1.5632,-0.4192 -0.44834,-0.033 -0.8981,-0.029 -1.34728,-0.025 -0.0551,0.011 -0.11408,0.01 -0.16531,0.032 -0.0597,0.027 -0.21721,0.1447 -0.15979,0.1136 0.65333,-0.3547 1.28482,-0.7499 1.94863,-1.0845 0.0901,-0.045 -0.14906,0.1364 -0.21654,0.2114 -0.1446,0.1607 -0.27643,0.3611 -0.39957,0.5368 -0.26906,0.4804 -0.64972,0.883 -0.94703,1.343 -0.18067,0.2938 -0.12569,0.4572 -0.002,0.7539 0.15505,0.3053 0.32495,0.6062 0.27895,0.957 -0.5044,1.1911 -1.90549,1.435 -3.01233,1.4498 -0.33552,0 -0.67102,-0 -1.00652,-0 -0.34386,0.025 -0.7085,-0.06 -1.04346,0.032 -0.0233,0.016 -0.0938,0.063 -0.07,0.048 2.45672,-1.5501 1.39039,-1.5866 2.72251,-1.1082 0.54386,0.1928 1.11133,0.2632 1.68299,0.3105 0.58662,0.027 1.19125,0.1239 1.73959,-0.1306 -4.51498,2.2774 -2.21139,1.48 -1.73318,0.8998 0.11218,-0.1361 0.12844,-0.1972 0.20286,-0.356 0,0 2.27206,-1.05 2.27206,-1.05 l 0,0 c -0.44322,1.2777 -1.22676,1.191 -2.71676,2.0447 -0.58446,0.1415 -1.18564,0.069 -1.77943,0.029 -0.59238,-0.056 -1.18313,-0.1399 -1.74369,-0.3497 -0.18973,-0.073 -0.40257,-0.1383 -0.57228,-0.2545 -0.051,-0.035 -0.18856,-0.081 -0.14093,-0.1202 1.7791,-1.4671 1.23282,-1.4222 2.15385,-1.4712 0.35361,-0.01 0.7073,0 1.06094,10e-5 0.33296,0 0.66607,0.01 0.99895,-0 0.16456,-0.01 0.33442,-0.013 0.4949,-0.055 0.0469,-0.012 0.17872,-0.074 0.13725,-0.049 -1.98115,1.2077 -2.8183,1.3693 -1.94456,1.1893 0.24004,-0.1822 -0.0947,-0.5792 -0.17232,-0.7776 -0.14474,-0.3234 -0.27262,-0.6217 -0.10009,-0.9666 0.26663,-0.4981 0.70898,-0.8671 0.96985,-1.3716 0.12549,-0.189 0.24042,-0.3854 0.37601,-0.5673 0.6758,-0.9066 1.78946,-1.6151 2.91674,-1.7075 0.44858,0 0.89766,0.013 1.34404,0.061 0.5848,0.073 1.17471,0.1789 1.66096,0.5365 0.39544,0.3709 0.43576,0.6411 0.40367,1.1665 -0.0309,0.6991 -0.12341,1.3944 -0.38552,2.0492 -0.52894,1.3231 -1.23264,2.5825 -2.23373,3.6103 -0.43612,0.3739 -0.73439,0.6436 -1.1973,0.9844 -0.9604,0.7071 -2.47553,1.5137 -3.2843,1.9593 -0.18733,0.1033 -0.38705,0.1838 -0.58814,0.2566 -0.17978,0.065 -0.36792,0.1044 -0.55188,0.1565 -0.16323,0.013 -0.32592,0.041 -0.4897,0.04 -0.60817,-0 -1.24192,-0.2171 -1.62736,-0.701 -0.26076,-0.5121 -0.17339,-0.8975 -0.0632,-1.4431 0.27498,-1.0625 0.79625,-2.0328 1.33872,-2.9807 0.41245,-0.6879 0.82974,-1.3733 1.25677,-2.0522 0.004,-0.01 0.56618,-0.8998 0.64859,-0.9585 0.76,-0.5413 1.58009,-0.9928 2.37013,-1.4892 0.078,-0.013 0.15484,-0.04 0.23387,-0.039 0.32785,0 0.54719,0.3066 0.63909,0.5828 0.14306,0.7441 0.0639,1.5053 0.0519,2.2576 -0.088,1.9493 -0.36846,1.4901 -2.59885,2.8266 -0.4843,0.2318 -0.99831,0.3766 -1.5409,0.3484 -0.5328,-0.066 -1.19835,-0.122 -1.36533,-0.7297 -0.0352,-0.5552 0.057,-1.1149 0.17441,-1.6562 0.0577,-0.2107 0.0929,-0.3734 0.18212,-0.5723 0.43934,-0.9797 1.66569,-1.4867 2.69841,-1.6476 0.47761,0.014 0.94625,0.1007 1.38747,0.29 0.5993,0.2753 1.18995,0.612 1.63244,1.1099 0.37027,0.519 0.48408,0.9703 0.4081,1.6056 -0.0399,0.6217 -0.0633,1.2665 -0.32542,1.842 -0.55737,0.9656 -0.11475,0.2742 -2.40018,1.593 -0.24856,0.1434 -0.78286,-0.07 -1.02354,-0.1143 -1.61947,-0.5526 -3.15164,-1.3266 -4.61891,-2.2037 -0.81495,-0.4901 -1.65519,-0.971 -2.40434,-1.562 -0.14267,-0.1125 -0.29399,-0.2208 -0.40555,-0.3642 -0.0776,-0.1 -0.24774,-0.2698 -0.14896,-0.3487 0.69456,-0.5545 1.52802,-0.9082 2.29204,-1.3623 0.51519,-0.1443 1.04007,-0.2182 1.55317,-0.015 0.43763,0.2364 0.66239,0.6006 0.66118,1.1072 -0.0549,1.6833 -0.1382,1.1355 -2.38911,2.4068 -0.40512,0.039 -0.81081,-0.053 -1.1933,-0.1822 -0.47894,-0.2056 -0.87627,-0.4889 -1.00372,-1.0236 -0.0191,-0.4132 0.0555,-0.8278 0.21862,-1.209 0.61957,-1.3205 0.8884,-1.0693 2.76137,-2.1089 0.43438,-0.102 0.8764,-0.024 1.27583,0.1701 0.47276,0.2939 0.82128,0.6622 0.81272,1.2518 -0.007,0.5269 -9.9e-4,1.0726 -0.2014,1.5688 -0.601,1.0073 -1.34889,1.0709 -2.65575,1.8219 -0.30489,0.1753 -0.67831,0.2052 -1.01776,0.2448 -0.88829,0.023 -1.77146,-0.1448 -2.54518,-0.601 -0.40892,-0.2893 -0.91584,-0.6423 -0.81587,-1.2111 0.10639,-0.2269 0.24009,-0.3922 0.45947,-0.5221 2.24582,-1.33 1.51752,-0.9828 2.52307,-1.4514 0.41006,-0.122 0.8179,-0.1104 1.18608,0.1314 0.38051,0.3857 0.29722,0.762 0.31143,1.2713 -0.0534,0.6123 -0.14111,1.2168 -0.40657,1.7794 -0.55018,1.122 -1.83329,1.772 -3.04901,1.9804 -0.58391,-3e-4 -1.15397,-0.1694 -1.67949,-0.4179 -0.78083,-0.4141 -1.50691,-0.945 -2.1149,-1.5887 -0.35688,-0.3914 -0.77774,-0.8143 -0.83648,-1.3669 0.0173,-0.3458 0.046,-0.6973 0.2298,-1.0007 0.64428,-0.8351 0.15515,-0.239 2.41935,-1.4568 0.1805,-0.097 0.51778,0 0.68698,0.081 0.39429,0.2766 0.35206,0.5224 0.34189,0.9673 -0.009,0.4247 -0.0164,0.8549 -0.15286,1.2622 -0.0889,0.1823 -0.16992,0.3574 -0.35314,0.4654 -0.92708,0.5466 -1.80601,1.1273 -2.78543,1.5491 -0.33611,0.1378 -0.99993,0.4716 -1.36132,0.4179 -0.0623,-0.01 -0.11503,-0.051 -0.17255,-0.077 -0.34095,-0.3555 -0.27699,-0.8408 -0.27484,-1.3011 -7.5e-4,-0.5274 -0.0143,-1.0547 -0.01,-1.5821 0.009,-0.4785 0.0171,-0.9656 0.15739,-1.4274 0.45739,-0.9927 0.0703,-0.246 2.36224,-1.5886 0.2387,-0.1398 0.58417,-0.019 0.82435,0.036 0.41376,0.1517 0.81453,0.3713 0.92064,0.8349 0.0654,0.3989 0.0602,0.7954 -0.0105,1.195 -0.11288,0.5755 -0.37563,1.093 -0.72176,1.5655 -0.93644,1.2655 -1.587,1.5331 -3.27657,2.3619 -0.46809,0.021 -0.7073,-0.2442 -0.94263,-0.6218 -0.25956,-0.4724 -0.49995,-0.9568 -0.63904,-1.4804 -0.0126,-0.053 -0.10503,-0.4331 -0.11245,-0.4884 -0.0306,-0.2278 0.0124,-0.4653 -2.8e-4,-0.694 0.0715,-1.4373 0.67171,-1.3656 2.44748,-2.2498 0.56682,-0.1123 1.13076,0.089 1.67232,0.2422 0.5821,0.2073 1.37859,0.4501 1.68627,1.0439 0.0389,0.075 0.0518,0.161 0.0778,0.2415 0.0408,0.3678 0.0255,0.7404 -0.01,1.1084 -0.1752,1.0906 -1.33625,1.8955 -2.49988,1.7191 -0.0948,-0.091 -0.20877,-0.1869 -0.17362,-0.3352 0.01,-0.041 0.013,-0.095 0.0491,-0.118 2.14656,-1.3463 1.39246,-1.2997 2.39195,-1.3331 0.32471,0.12 0.44859,0.3888 0.42402,0.7275 -0.001,0.2699 -0.004,0.5399 0.005,0.8097 -0.75317,0.4008 -1.50389,0.8062 -2.25952,1.2024 -0.012,0.01 0.0209,-0.019 0.0257,-0.031 0.0134,-0.035 0.0199,-0.073 0.0279,-0.1099 0.0495,-0.2295 0.0754,-0.4635 0.13501,-0.691 0.13029,-0.5185 0.29553,-1.0265 0.44263,-1.5387 0.0517,-0.1385 0.11782,-0.3301 0.25682,-0.4123 0.5188,-0.3069 1.63693,-1.3288 2.59375,-1.3439 0.33254,0.029 0.67247,0.07 0.89967,0.3424 0.0274,0.053 0.0651,0.1012 0.0823,0.1581 0.0806,0.2668 -0.0857,0.5859 -0.19962,0.813 -0.39255,0.5482 -0.86703,1.0263 -1.39439,1.4466 -1.28057,0.9974 -2.59451,2.0204 -4.13369,2.5838 -0.44921,0.094 -0.86852,0.09 -1.24386,-0.2088 -0.42121,-0.3834 -0.67149,-0.8809 -0.81702,-1.4295 -0.12289,-0.5202 -0.18616,-1.0425 -0.10965,-1.5758 0.008,-0.058 0.0294,-0.2586 0.0491,-0.2704 0.45916,-0.2738 1.92078,-1.9404 2.53532,-1.0125 0.12465,0.3008 0.0821,0.6205 0.0835,0.9404 -0.006,0.3307 -0.0152,0.6639 -0.0906,0.9875 -0.0819,0.2999 -0.23073,0.5619 -0.33472,0.8521 -0.44673,0.8906 -0.0462,0.1451 -2.31374,1.4248 -0.16622,0.094 -0.39627,-0.01 -0.56059,-0.042 -0.32652,-0.1222 -0.62901,-0.2981 -0.87201,-0.552 -0.32405,-0.3738 -0.53517,-0.803 -0.58756,-1.3013 -0.0365,-0.5101 0.0132,-1.0252 0.12125,-1.5249 0.3674,-1.1865 1.30024,-2.0398 2.80234,-2.0775 0.32246,0.05 0.59886,0.1767 0.74473,0.4876 0.13223,0.3678 0.13309,0.6515 -0.0101,1.0211 -0.49776,1.1439 -1.73944,1.6648 -2.88545,2.1028 -0.34041,0.074 -0.68409,0.068 -1.03126,0.06 -0.33671,-0.01 -0.67846,-0.016 -0.99842,-0.1334 -0.34046,-0.1518 -0.61077,-0.3793 -0.77246,-0.723 -0.11273,-0.3075 -0.092,-0.6253 -0.0145,-0.9415 0.32535,-0.8612 1.71724,-1.6526 2.67947,-1.4218 0.20157,0.048 0.30077,0.1009 0.49548,0.1835 0.46955,0.2503 0.95246,0.5689 1.22581,1.0372 0.40523,1.3447 -1.71086,1.8265 -2.79861,1.7749 -0.83582,-0.088 -1.66524,-0.219 -2.48934,-0.3844 -0.83812,-0.1328 -1.69314,-0.1484 -2.51924,-0.3543 -0.3287,-0.1516 -0.48174,-0.3087 -0.86574,-0.2409 -1.3532,0.1559 -2.71405,0.1711 -4.07528,0.1318 -1.77129,-0.055 -3.56725,-0.058 -5.30931,-0.4144 -0.11299,-0.026 -0.22424,-0.061 -0.33896,-0.078 -0.0584,-0.01 -0.22682,0.035 -0.17722,0 0.66818,-0.4322 1.37321,-0.8046 2.05413,-1.2164 0.031,-0.019 -0.0745,0.013 -0.10259,0.036 -0.0715,0.058 -0.10031,0.1827 -0.12757,0.2603 -0.0983,0.4608 -0.28773,0.8772 -0.63205,1.2099 -0.77442,0.4625 -1.54373,0.9335 -2.32325,1.3873 -0.33834,0.1969 -0.75224,0.1741 -1.11855,0.091 -0.50275,-0.1355 -0.96473,-0.3616 -1.36819,-0.6957 -0.20401,-0.1754 -0.18673,-0.1528 -0.36663,-0.3353 -0.0998,-0.1012 -0.19877,-0.2424 -0.31725,-0.3237 -0.0273,-0.019 -0.0603,-0.028 -0.0904,-0.041 -0.22566,-0.048 -0.44727,-0.091 -0.6373,-0.2346 -0.94514,-1.0615 1.841,-1.683 2.81097,-1.6344 1.02921,0.01 2.05843,0.01 3.08766,0 0.88277,0 1.76724,0 2.64754,0.078 0.45134,0.054 0.89949,0.1354 1.31737,0.3225 0.29018,0.1236 0.59331,0.1924 0.89939,0.2662 0.5422,0.1008 1.09472,0.1429 1.64605,0.1359 1.53386,0.012 3.06915,0.01 4.60086,-0.082 0.36144,-0.031 0.78845,-0.052 1.14979,-0.1329 0.0989,-0.022 0.37378,-0.1519 0.28792,-0.098 -4.20706,2.6396 -0.998,0.3184 0.4114,-0.1955 0.39305,-0.1162 0.79358,-0.1801 1.20539,-0.1417 0.3581,0.026 0.7453,0.034 0.93586,0.3881 0.029,0.1138 0.0865,0.3855 -0.0466,0.4734 -0.92643,0.6114 -1.66932,1.3081 -2.71002,1.4935 -1.15294,0.077 -2.30664,-0.1316 -3.45603,-0.1906 -0.65033,-0.064 -1.13231,-0.104 -1.77737,-0.1933 -0.31657,-0.044 -1.21415,-0.1232 -1.4986,-0.3724 -0.0662,-0.058 -0.0865,-0.1531 -0.12975,-0.2297 1.81821,-1.0833 1.70501,-1.4612 3.17247,-1.3477 0.23416,0.021 0.68272,0.023 0.87378,0.1737 0.66483,0.524 0.50591,3.5549 -1.99088,1.5764 -1.11042,0.2165 -2.25564,-0.1575 -3.36091,-0.224 -2.34614,-0.3272 -4.70553,-0.6442 -6.99513,-1.2673 -0.30106,-0.1164 -0.49435,-0.1241 -0.67687,-0.3876 -0.16082,-0.2321 0.0269,-0.5759 0.085,-0.8048 0.44935,-1.1061 0.56106,-0.6937 2.42058,-1.7823 0.14843,-0.087 0.3343,0.065 0.43751,0.1454 0.26209,0.3177 0.37311,0.7086 0.41147,1.1155 0.0526,0.6085 0.0142,1.221 0.0132,1.8309 -0.0231,0.6415 -0.0575,1.2917 -0.41303,1.8502 -0.53575,0.7782 -1.27111,1.4015 -2.02612,1.9602 -0.86075,0.5071 -1.71731,1.0214 -2.58225,1.5213 -0.6287,0.3634 -1.33028,0.6439 -2.05817,0.4391 -0.44349,-0.1966 -0.69892,-0.4456 -0.87817,-0.9012 -0.25804,-0.5886 -0.41944,-1.2076 -0.4523,-1.852 -0.002,-1.1669 0.28892,-2.3116 0.65411,-3.4138 0.10987,-0.2927 0.20966,-0.5894 0.32962,-0.8782 0.68203,-1.6415 1.5937,-3.1965 2.66471,-4.6123 1.16101,-1.3788 0.45494,-0.6732 3.14666,-2.2789 0.62615,-0.3735 1.3257,-0.3716 2.02236,-0.2573 0.89638,0.1689 1.89383,0.4026 2.42664,1.2251 0.1079,0.1665 0.17103,0.3581 0.25654,0.5372 0.0419,0.2118 0.10713,0.4203 0.12581,0.6353 0.0415,0.4783 -0.0369,1.2225 -0.10038,1.6767 -0.17026,1.2192 -0.46871,2.4166 -0.78291,3.605 -0.36542,1.2361 -0.41657,1.4665 -0.84008,2.6744 -0.12899,0.368 -0.14135,0.8113 -0.40708,1.0966 -0.70908,0.7612 -1.58165,1.3571 -2.43395,1.9536 -0.0804,0.056 -0.20546,0 -0.29095,-0.046 -0.0617,-0.035 -0.0742,-0.1207 -0.11127,-0.181 -0.007,-0.087 -0.0256,-0.1745 -0.02,-0.2619 0.0119,-0.1874 0.11073,-0.5234 0.16077,-0.6907 0.13348,-0.4462 0.29301,-0.8843 0.47109,-1.3145 0.25691,-0.5435 0.55916,-0.9981 1.0844,-1.3182 0.81229,-0.4949 1.63451,-0.9734 2.45176,-1.4601 1.05557,-0.5799 2.18528,-1.0483 3.40107,-1.1282 1.01097,-0.014 2.01839,0.091 2.93051,0.5647 0.1393,0.081 0.28582,0.1495 0.41789,0.2414 0.6621,0.4602 1.02333,1.151 1.13458,1.9381 0.0484,0.8404 -0.0445,1.6898 -0.28734,2.4978 -0.0212,0.049 -0.20213,0.4958 -0.26979,0.5405 -1.57322,1.0402 -1.85992,1.616 -3.29192,1.3712 -1.44818,-0.3619 -2.80208,-1.0037 -4.01348,-1.8794 -0.87091,-0.7061 -1.77123,-1.4615 -2.2555,-2.4986 -0.0163,-0.089 -0.052,-0.1769 -0.049,-0.2675 0.003,-0.079 -10e-4,-0.1844 0.0651,-0.2267 1.84798,-1.182 1.95185,-1.4252 3.59694,-1.3914 1.79723,0.065 3.60202,0.1181 5.38326,0.3816 0.54794,0.1231 1.72814,0.2758 1.73602,1.0727 7e-4,0.071 -0.0248,0.1397 -0.0372,0.2095 -0.4645,1.2916 -1.68423,1.9325 -3.05533,2.1513 -0.65499,0 -1.30714,-0.096 -1.94801,-0.2249 -0.86926,-0.2187 -1.72995,-0.5204 -2.45693,-1.0598 -0.45056,-0.3703 -0.78898,-0.7397 -0.61684,-1.3604 0.45744,-1.2778 1.49435,-1.4274 2.82992,-2.1954 0.1229,-0.071 0.25541,-0.1248 0.3895,-0.1709 0.15609,-0.054 0.31899,-0.085 0.47848,-0.1272 1.68977,-0.2354 3.34433,-0.065 4.99875,0.3405 1.22431,0.3647 2.7577,0.8148 3.58208,1.873 0.0942,0.121 0.15751,0.263 0.23626,0.3945 0.066,0.2496 0.11625,0.3549 0.10407,0.6092 -0.0533,1.1119 -1.62894,1.6702 -2.62171,1.7463 -0.66715,-0.011 -1.33523,-0.09 -1.98837,-0.2252 -0.10585,-0.033 -0.21782,-0.05 -0.31755,-0.098 -0.19583,-0.095 -0.43568,-0.3287 -0.33107,-0.4051 0.88358,-0.6453 1.76859,-1.2586 2.80843,-1.5461 0.79415,-0.1556 1.62588,-0.2804 2.41266,-0.023 0.0851,0.047 0.17783,0.081 0.25542,0.1395 0.30085,0.2257 0.3342,0.6382 0.32856,0.9808 -0.005,0.5046 0.003,1.0273 -0.22931,1.4891 -0.18484,0.2973 -0.37841,0.5692 -0.68812,0.7536 -1.28877,0.7671 -2.2464,1.4528 -3.61555,1.8063 -0.26625,0.056 -0.53034,0.1239 -0.79875,0.1688 -1.74938,0.2924 -3.54204,0.2492 -5.27494,-0.1259 -0.69416,-0.1985 -1.72691,-0.4035 -1.98788,-1.2153 -0.091,-0.283 -0.018,-0.4945 0.0294,-0.7754 0.35829,-1.3271 0.82477,-2.6362 1.55456,-3.8087 0.99838,-1.4102 1.07291,-1.1342 3.18354,-2.3827 0.3495,-0.2068 0.71511,-0.3299 1.12451,-0.3157 0.47389,0.07 1.2353,0.2141 1.30535,0.8148 0.01,0.083 -0.0182,0.1654 -0.0273,0.2481 -0.47005,1.1328 -1.42647,1.2273 -2.67671,1.9841 -0.44206,0.2677 -0.94145,0.4136 -1.43493,0.5517 -1.59289,0.3647 -3.22323,0.5245 -4.8582,0.4533 -0.57548,-0.036 -1.84745,-0.049 -2.34181,-0.3817 -0.0591,-0.04 -0.10407,-0.097 -0.1561,-0.1458 -0.19477,-0.3891 -0.0674,-0.7894 0.0938,-1.1728 0.5621,-0.9222 0.12232,-0.2614 2.39385,-1.5371 0.22544,-0.1266 0.53444,0.1504 0.65102,0.3089 0.26478,0.4843 0.22174,0.9083 0.12682,1.4365 -0.0399,0.1667 -0.0693,0.3221 -0.13888,0.4803 -0.45857,1.0426 -1.81359,1.4389 -2.87264,1.7185 -0.65039,0.054 -1.30803,-0.029 -1.93774,-0.196 -0.51801,-0.1873 -1.02218,-0.436 -1.03237,-1.0578 0.014,-0.492 0.0242,-0.9943 0.15292,-1.4718 0.49296,-1.1008 2.07012,-1.9275 3.0811,-1.2271 0.31144,0.2926 0.48523,0.6377 0.1861,1.014 -0.7731,0.4394 -1.53634,0.8966 -2.3193,1.3181 -0.30953,0.1666 -1.05225,0.022 -1.40919,0.07 -0.57129,0.01 -1.14484,0.01 -1.71229,0.081 -0.27766,0.049 -0.54896,0.1 -0.81151,0.2072 -0.0813,0.033 -0.31305,0.159 -0.23773,0.1138 1.23888,-0.744 2.63837,-1.5265 1.72872,-1.0168 -0.37043,0.3324 -0.45556,0.5068 -0.35342,1.0103 0.12048,0.5183 0.36205,0.9683 0.74021,1.3488 0.21514,0.1682 0.28259,0.2469 0.54179,0.3459 0.55896,0.2136 1.18376,0.063 1.76186,0.081 1.14095,-0.051 2.28852,-0.1102 3.406,-0.3639 0.24114,-0.039 0.48399,-0.073 0.72449,-0.1157 0.8263,-0.1483 2.06356,-1.2179 -1.78458,1.1103 0.31996,-0.1109 0.47338,-0.4002 0.61572,-0.693 0.21259,-0.4027 0.38244,-0.8382 0.4833,-1.2826 0.0962,-0.3327 0.19531,-0.6633 0.0806,-1.0066 -0.18196,-0.3329 -0.66851,-0.3131 -0.9839,-0.4358 -0.90074,-0.2389 -1.82654,-0.3483 -2.759,-0.3517 -0.88939,0 -1.78033,-0 -2.66808,0.057 -0.36393,0.04 -0.71413,0.1124 -1.03977,0.2884 0.67675,-0.3946 1.35639,-0.7843 2.03026,-1.1837 0.0378,-0.023 -0.0823,0.032 -0.12122,0.052 -0.16946,0.089 -0.25143,0.188 -0.23671,0.3891 0.0615,0.407 0.15925,0.8098 0.35507,1.1754 0,0 -2.1911,1.2476 -2.1911,1.2476 z"
       inkscape:connector-curvature="0" />
    <path
       style="fill:#ffcc00;fill-opacity:1;stroke:none;stroke-opacity:1"
       id="path4252"
       d="m 388.41347,1049.3959 c 2.26741,0.039 4.5025,0.46 6.73322,0.8254 0.90603,0.1484 1.81238,0.2949 2.71856,0.4424 5.09993,0.9135 10.21755,1.719 15.36677,2.2961 0.96721,0.076 1.94171,0.2359 2.91593,0.1783 0.14558,-0.01 0.29393,-0.017 0.43346,-0.059 0.0818,-0.025 0.29103,-0.1796 0.21624,-0.1381 -0.69046,0.383 -1.37576,0.7753 -2.06364,1.1629 -0.47124,-0.422 -1.33634,-0.6623 -1.9085,-0.8289 -1.11362,-0.3242 -1.91317,-0.4722 -3.06853,-0.7212 -4.14163,-0.8512 -8.36595,-1.1506 -12.58135,-1.3399 -2.23361,-0.081 -4.46962,-0.064 -6.70022,-0.2151 -0.69186,-0.055 -1.38377,-0.1072 -2.07766,-0.1252 -0.10489,-0.078 -0.25704,0.052 -0.3663,-0 -0.049,-0.024 -0.14538,-0.097 -0.10133,-0.1294 0.74116,-0.5476 1.50458,-1.0731 2.31715,-1.5078 0.21497,-0.115 0.48019,-0.085 0.72183,-0.1177 0.47076,-0.063 0.94328,-0.1119 1.41491,-0.1679 0.78573,-0.052 1.57102,-0.1112 2.3572,-0.1559 9.14787,-0.5197 -3.52896,0.2591 7.11045,-0.3779 3.92491,-0.2351 7.8477,-0.5032 11.77275,-0.7366 3.94623,-0.2423 7.8978,-0.394 11.84394,-0.637 0.1248,-0.019 0.2496,-0.038 0.3744,-0.057 0.0231,-0.027 0.0989,-0.099 0.0692,-0.08 -0.75813,0.4848 -1.45606,1.0716 -2.25814,1.4796 -0.16075,0.082 -0.35859,-0.039 -0.53806,-0.057 -1.03421,-0.1033 -0.79279,-0.077 -1.94733,-0.1609 -3.15304,-0.1959 -6.31238,-0.222 -9.47015,-0.1865 -2.3119,0.051 -4.62132,0.1729 -6.93141,0.273 -0.80022,0.036 -1.60072,0.06 -2.40168,0.068 -0.39429,0 -0.78861,0 -1.18292,0 -0.0548,0.019 -0.11372,0.029 -0.16441,0.058 -0.0653,0.037 -0.2455,0.17 -0.17957,0.1346 0.61033,-0.3273 1.18464,-0.7242 1.81477,-1.0115 0.19654,-0.09 -0.33843,0.2689 -0.50013,0.4121 -0.65187,0.5774 -1.03203,0.9756 -1.66902,1.608 -1.54995,1.5494 -3.02051,3.1776 -4.58543,4.712 -0.90956,0.8589 -1.83505,1.2978 -3.03994,1.9285 -0.20511,0.1074 -0.44493,-0.1087 -0.57545,-0.2256 -0.29458,-0.5018 -0.27919,-1.1095 -0.29164,-1.6744 -0.006,-0.5676 -0.01,-1.1353 -0.012,-1.7029 -0.023,-0.1547 0.0529,-0.5479 -0.1268,-0.6499 -0.0288,-0.016 -0.0646,-0.015 -0.0969,-0.022 -0.9242,-0.1523 -1.85995,-0.226 -2.79356,-0.2947 -0.90672,-0.1366 -1.8495,-0.075 -2.73945,-0.3107 -0.48148,-0.2682 -0.61814,-0.6454 -0.48336,-1.1653 0.72963,-1.2113 2.28939,-1.6781 3.60199,-2.0481 0.71079,-0.1715 1.45548,-0.2499 2.13339,-0.5358 0.0605,-0.031 0.12268,-0.06 0.18161,-0.094 0.14518,-0.085 0.18194,-0.1329 0.33343,-0.2045 0.19764,-0.093 0.41526,-0.1601 0.61795,-0.2424 1.3702,-0.365 2.80229,-0.3702 4.20919,-0.4398 1.04515,-0.037 2.0901,-0.097 3.13584,-0.1165 0.58154,-0.011 1.1617,0.013 1.74286,-0.01 0.0465,-0.028 0.18568,-0.1135 0.13947,-0.085 -0.71307,0.4432 -1.38759,0.9558 -2.14007,1.3283 -0.0834,0.041 -0.15508,-0.1028 -0.23278,-0.154 -0.16205,-0.1067 -0.32134,-0.2177 -0.48648,-0.3196 -0.53909,-0.3325 -1.13156,-0.6544 -1.68049,-0.9615 -1.72531,-0.8969 -3.57078,-1.5251 -5.4615,-1.966 -1.09182,-0.2546 -1.52101,-0.3051 -2.6016,-0.4781 -1.1025,-0.1182 -2.21477,-0.2938 -3.32766,-0.2807 -0.30296,0 -0.70508,0.055 -1.00786,0.089 -0.68447,0.1356 -1.38992,0.2747 -2.04353,0.5269 -0.94243,0.5333 1.47908,-0.8368 1.92715,-1.1014 0.0141,-0.01 -0.0578,-0.029 -0.0457,-0.018 0.12263,0.1115 0.01,0.027 0.17268,0.1361 0.46113,0.3616 0.90999,0.7395 1.36883,1.1054 0.69598,0.5701 1.50816,0.9655 2.32141,1.338 1.5347,0.6581 3.17837,0.9123 4.82474,1.0987 2.064,0.2119 4.13419,0.3551 6.20696,0.4435 1.60435,0.1011 3.20543,-0.025 4.7983,-0.2061 0.81405,-0.133 1.63238,-0.1513 2.45406,-0.1194 0.44325,0.015 0.8868,0.037 1.33044,0.032 -0.71294,0.4959 -1.39548,1.0386 -2.13884,1.4876 -0.0648,0.039 -0.14529,-0.042 -0.21774,-0.064 -0.14236,-0.043 -0.28126,-0.099 -0.42668,-0.13 -0.29492,-0.063 -0.59401,-0.1043 -0.89193,-0.1507 -1.42701,-0.2226 -1.86752,-0.2699 -3.39259,-0.4704 -4.52676,-0.5419 -9.06064,-1.0324 -13.60066,-1.4503 -1.06256,-0.1102 -2.12777,-0.1931 -3.18593,-0.3421 -0.36547,-0.051 -0.73322,-0.1012 -1.08805,-0.2045 -0.76677,-1.245 1.96805,-1.6674 2.89541,-1.4722 0.50185,0.1056 0.95542,0.2959 1.43706,0.4718 0.37643,0.143 0.75304,0.2855 1.1293,0.429 1.82057,0.694 3.64728,1.3524 5.50697,1.9365 1.41017,0.4429 3.51641,1.0489 4.9157,1.4571 0.90935,0.2505 1.81586,0.5117 2.72806,0.7517 1.95587,0.5145 3.53337,0.8915 5.51153,1.299 2.43591,0.5019 4.89216,0.9148 7.34042,1.3509 2.64308,0.4936 5.2905,0.9779 7.96596,1.2587 0.37443,0.01 0.79904,0.1242 1.16964,-0.01 0.0567,-0.02 0.20572,-0.124 0.15332,-0.095 -2.06714,1.1579 -2.53179,1.7808 -1.99459,1.0837 -0.1948,-0.5891 -0.86378,-0.969 -1.34065,-1.2924 -0.89766,-0.6087 -1.42004,-0.9188 -2.38255,-1.5183 -3.18783,-1.7932 -6.534,-3.3012 -9.97449,-4.5413 -0.6412,-0.2311 -1.29094,-0.4377 -1.9364,-0.6566 -2.51578,-0.8179 -5.09898,-1.3912 -7.69485,-1.8845 -0.17727,-0.037 -0.77364,-0.1587 -0.99358,-0.2175 -0.0767,-0.021 -0.15574,-0.038 -0.22603,-0.075 -0.0343,-0.018 -0.11131,-0.064 -0.079,-0.085 2.23952,-1.4744 1.45168,-1.5936 2.64188,-1.278 0.47357,0.1497 0.76105,0.232 1.24263,0.4285 1.11209,0.4537 2.19081,0.9942 3.28658,1.4845 0.49602,0.222 0.99604,0.4349 1.49406,0.6523 0.57694,0.2407 1.15033,0.49 1.73081,0.722 0.62308,0.249 1.25301,0.4805 1.87951,0.7207 0.68128,0.2719 1.36366,0.5411 2.04384,0.8158 1.98373,0.801 3.96083,1.6179 5.94643,2.4144 1.3165,0.5134 2.62443,1.049 3.94777,1.5447 0.59938,0.2246 1.1929,0.4393 1.81332,0.5952 0.0929,-0 0.18905,0.021 0.27881,-0 0.062,-0.017 0.21217,-0.144 0.15566,-0.1135 -0.68201,0.3678 -1.34034,0.78 -2.03356,1.1262 -0.0439,0.022 0.0491,-0.088 0.0534,-0.1372 0.0154,-0.173 -0.0572,-0.3095 -0.11426,-0.4672 -0.42064,-0.8348 -1.17877,-1.4209 -1.86653,-2.0273 -1.04209,-0.9488 -2.25616,-1.5578 -3.55657,-2.0638 -1.65932,-0.5426 -3.42332,-0.5768 -5.15233,-0.6291 -0.77423,-0.016 -1.54879,-0.019 -2.32312,-0.01 -0.29652,0 -0.6173,0.045 -0.90813,-0.036 0.70631,-0.5161 1.39475,-1.0575 2.11893,-1.5482 0.0641,-0.043 0.15198,-0.031 0.22855,-0.042 0.12563,-0.019 0.25176,-0.035 0.3779,-0.051 0.50539,-0.063 1.01114,-0.1037 1.51905,-0.1396 1.15719,-0.1028 2.31468,-0.013 3.4687,0.078 0.9034,0.098 1.80585,0.2042 2.71183,0.2757 0.0386,0.09 0.18698,-0.031 0.24654,0.026 0.6235,0.5998 -1.34841,1.0924 -2.08648,1.5438 -0.0287,0.017 -0.0686,0 -0.0997,0.015 -0.0453,0.018 -0.0834,0.051 -0.12516,0.076 -0.0618,0.023 -0.12356,0.046 -0.18534,0.069 0,0 1.96861,-1.5515 1.96861,-1.5515 l 0,0 c 0.0618,-0.028 0.12365,-0.056 0.18548,-0.084 0.92939,-0.3277 0.94409,-0.842 -1.83129,1.2388 -0.0472,0.035 0.0827,0.09 0.0997,0.146 0.0202,0.067 -0.35609,-0.2258 -0.20641,-0.034 -0.88052,-0.1144 -1.7619,-0.2247 -2.64524,-0.3147 -1.15282,-0.082 -2.3086,-0.1474 -3.4626,-0.037 -0.51062,0.043 -1.02341,0.082 -1.52757,0.1786 -1.05229,0.2015 -1.97564,1.1127 1.32769,-1.2779 0.24449,0.059 0.53873,0.043 0.78167,0.048 0.75789,0.016 1.51583,0.03 2.27354,0.053 1.75952,0.065 3.5596,0.088 5.24207,0.6662 1.33453,0.5379 2.52814,1.1663 3.62036,2.1202 0.72797,0.626 1.51677,1.236 1.97797,2.0977 0.0364,0.086 0.30526,0.7465 0.19678,0.8271 -1.18173,0.8781 -1.6172,1.5998 -2.7401,1.3671 -1.88349,-0.6599 -3.6527,-1.6131 -5.51136,-2.336 -1.96383,-0.8235 -3.9241,-1.658 -5.90619,-2.437 -2.47835,-0.9741 -1.59027,-0.5891 -3.97891,-1.5024 -0.5937,-0.227 -1.18328,-0.4647 -1.77492,-0.697 -3.98239,-1.6449 0.7354,0.3101 -2.86643,-1.2005 -0.42994,-0.1803 -1.56477,-0.652 -2.05131,-0.8222 -0.55596,-0.1945 -0.75931,-0.2296 -1.29303,-0.3545 -0.12064,-0.015 -0.45161,0.038 -0.36191,-0.044 0.58542,-0.5351 1.29308,-0.9189 1.93092,-1.3903 0.009,-0.01 -0.0371,-0.02 -0.0272,-0.017 0.34223,0.1334 0.0324,0.045 0.55678,0.1857 0.18313,0.049 0.36765,0.093 0.55147,0.1394 2.52218,0.595 5.04314,1.2094 7.49565,2.0554 0.63758,0.2271 1.27885,0.444 1.91273,0.6812 3.4526,1.2919 6.81887,2.8083 10.08905,4.5085 0.82342,0.4624 1.71135,0.9484 2.52244,1.4448 0.6072,0.3717 1.31592,0.7625 1.59954,1.4549 0.0879,1.101 0.0914,0.262 -2.23707,1.5797 -0.24147,0.1366 -1.06814,-0.047 -1.31124,-0.06 -2.58581,-0.3945 -5.14487,-0.9392 -7.70842,-1.455 -2.42009,-0.4645 -4.84783,-0.9033 -7.25808,-1.4172 -2.03126,-0.4331 -3.49431,-0.79 -5.50956,-1.3113 -0.9204,-0.2382 -1.83703,-0.4906 -2.75555,-0.7359 -1.45925,-0.4066 -3.52481,-0.9747 -4.99291,-1.4121 -2.3053,-0.6868 -4.58152,-1.4639 -6.86742,-2.2112 -0.28518,-0.085 -0.56693,-0.1822 -0.85554,-0.2544 -0.20418,-0.051 -0.41173,-0.091 -0.62083,-0.1153 -0.14676,-0.017 -0.29554,-0.013 -0.44314,-0.01 -0.0965,0 -0.36451,0.096 -0.28722,0.038 1.92503,-1.4419 2.57292,-0.7565 1.9103,-1.4016 0.31236,0.1157 0.64337,0.1759 0.96974,0.238 0.99962,0.1899 2.00976,0.3113 3.01762,0.4478 4.51394,0.5464 9.03033,1.0697 13.55886,1.4824 1.18878,0.1195 2.37845,0.2302 3.5668,0.3539 2.76495,0.2878 -0.0943,-0.023 1.44492,0.2009 0.0695,0.01 0.26388,-0.036 0.21045,0.01 -0.62357,0.5317 -1.30709,0.9888 -1.96064,1.4832 -0.42611,-0.056 -0.86298,-0.017 -1.29055,-0.057 -0.79588,-0.026 -1.5883,-0.01 -2.3785,0.1072 -1.58042,0.1569 -3.16817,0.2391 -4.7557,0.1305 -2.07501,-0.097 -4.14783,-0.2427 -6.21417,-0.458 -1.68555,-0.1918 -3.37485,-0.4475 -4.95311,-1.1019 -0.83463,-0.3794 -1.66136,-0.784 -2.37088,-1.3746 -0.46918,-0.3591 -0.93166,-0.7264 -1.4117,-1.0705 -1.1732,-0.933 0.93096,-1.4916 2.04788,-1.8987 0.66796,-0.1903 1.34401,-0.3693 2.03512,-0.4496 0.38951,-0.031 0.61636,-0.06 1.01212,-0.047 1.08532,0.035 2.16316,0.2324 3.23594,0.3791 1.02681,0.189 1.53516,0.2677 2.57109,0.524 1.91012,0.4725 3.78002,1.11 5.55287,1.9675 0.74157,0.3747 1.08114,0.5391 1.77726,0.9141 0.18018,0.097 0.36057,0.194 0.5366,0.2984 0.1118,0.066 0.41843,0.1217 0.32635,0.2134 -1.51906,1.5139 -1.22656,1.4828 -2.1836,1.4884 -1.57893,-0.085 -3.15857,-0.047 -4.73729,0.038 -1.44346,0.089 -2.92934,0.1376 -4.30844,0.6162 -0.39142,0.1622 -0.75668,0.3679 -1.1444,0.5359 -0.69816,0.2077 -1.42339,0.3103 -2.1243,0.509 -0.20215,0.06 -0.4288,0.1226 -0.6258,0.2 -0.0955,0.038 -0.36835,0.1795 -0.28119,0.1253 3.54087,-2.2005 2.12077,-1.4084 1.54411,-0.8431 -0.20964,0.3462 -0.12046,0.6429 0.26011,0.8034 0.86564,0.2077 1.7712,0.2056 2.65081,0.3211 0.63832,0.049 1.27652,0.099 1.91433,0.1538 0.22611,0.019 0.58403,0.043 0.82011,0.097 0.0695,0.016 0.13472,0.046 0.20208,0.07 0.054,0.038 0.11449,0.069 0.16203,0.1151 0.20212,0.1961 0.18202,0.5476 0.18629,0.8008 -0.009,0.5688 -0.0234,1.1377 -0.0126,1.7065 0.0142,0.4839 -0.0159,1.0254 0.21285,1.4649 0.094,0.056 0.10749,0.084 0.22756,0.064 0.0564,-0.01 0.21144,-0.084 0.16276,-0.054 -3.57825,2.2062 -1.81615,1.1436 -1.13172,0.5445 1.63811,-1.511 3.1453,-3.1584 4.70174,-4.7516 1.27791,-1.3272 2.94981,-3.3032 4.84478,-3.5549 0.38842,0 0.77682,0 1.16524,0.01 0.77423,8e-4 1.5485,-0 2.32261,-0.018 2.2626,-0.043 4.52438,-0.1194 6.78702,-0.161 3.18752,-0.016 6.37516,0.011 9.56056,0.1398 2.7039,0.1231 -0.21532,-0.012 2.04198,0.098 0.19886,0.01 0.71585,-0.1326 0.59668,0.027 -1.36583,1.8279 -1.08835,1.5097 -2.16207,1.5197 -3.78584,-0.033 -7.57133,0.1317 -11.353,0.2843 -5.2533,0.2671 -10.49946,0.5995 -15.74411,1.0037 -1.11256,0.086 -2.22607,0.161 -3.33706,0.2651 -0.83705,0.078 -1.67085,0.1882 -2.50628,0.2823 -0.5073,0.089 -1.0175,0.1636 -1.52192,0.2679 -0.26436,0.055 -0.96709,0.406 -0.78248,0.209 0.51476,-0.5492 1.23195,-0.8661 1.82859,-1.3251 0.0171,-0.013 -0.0613,-0.042 -0.0413,-0.05 0.11029,-0.044 0.24857,0.082 0.35568,0.016 0.67451,0.036 1.34616,0.1058 2.01742,0.1806 2.15888,0.2032 4.32709,0.2422 6.49166,0.3566 4.2243,0.2528 8.45047,0.596 12.61906,1.353 1.04912,0.202 2.15884,0.3986 3.19926,0.659 0.50942,0.1276 1.64911,0.4033 2.0811,0.8097 0.0837,0.079 0.12651,0.1919 0.18976,0.2878 -0.72891,0.4766 -1.44403,0.975 -2.18671,1.4298 -0.12194,0.075 -0.57984,0.067 -0.64858,0.065 -0.92669,-0.026 -1.84203,-0.2048 -2.75909,-0.3193 -5.07068,-0.7535 -10.11759,-1.6543 -15.1847,-2.4304 -3.26391,-0.4696 -6.55019,-1.069 -9.86133,-0.933 0,0 2.02951,-1.4746 2.02951,-1.4746 z"
       inkscape:connector-curvature="0" />
    <path
       style="fill:#ff00ff;fill-opacity:1;stroke:none;stroke-opacity:1"
       id="path4254"
       d="m 428.98585,1051.4176 c -1.20478,-0.3514 -2.44594,-0.5566 -3.67266,-0.8166 -0.75076,-0.1582 -1.5054,-0.3041 -2.27139,-0.3605 -0.066,-0 -0.13201,-0.01 -0.19806,-0.01 -0.0596,-0 -0.11931,-0 -0.17898,-0 -0.0495,-4e-4 -0.18879,0.033 -0.14846,0 2.13264,-1.5193 1.25713,-1.5279 2.27783,-1.4794 1.67325,0.021 3.34117,0.079 5.00977,0.209 2.13141,0.1665 4.25882,0.3793 6.39158,0.5288 0.38612,0.03 0.7741,0.066 1.15513,-0.021 0.20635,-0.047 0.16379,-0.037 0.31685,-0.1457 -0.68625,0.3916 -1.37249,0.7833 -2.05874,1.1749 0.23544,-0.209 0.17013,-0.4594 0.0196,-0.6943 -0.0755,-0.062 -0.14435,-0.1324 -0.22659,-0.1846 -1.20743,-0.767 -2.74971,-0.8871 -4.12622,-1.0629 -3.20624,-0.2999 -6.43064,-0.3071 -9.64809,-0.3144 -1.63054,-4e-4 -3.26085,0.027 -4.89093,0.064 -0.0977,0 -0.35558,0.042 -0.46011,-0.046 -0.069,-0.058 -0.18304,-0.3182 -0.053,-0.3989 1.97295,-1.2241 1.61285,-1.0956 2.82214,-1.4087 1.90772,-0.2977 3.85364,-0.3863 5.78293,-0.3345 0.67456,0.018 1.34818,0.062 2.02226,0.094 2.79533,0.1937 5.59275,0.4296 8.3687,0.8191 1.31799,0.1849 1.7302,0.2747 2.98712,0.5083 0.83924,0.1664 1.68401,0.3298 2.50571,0.5726 0.14531,0.043 0.2888,0.092 0.43042,0.1463 0.38579,0.1469 0.14699,0.1077 0.39073,0.1358 -0.72388,0.4228 -1.43028,0.877 -2.17165,1.2683 -0.0384,0.02 -0.0754,-0.043 -0.1147,-0.062 -0.11498,-0.054 -0.23042,-0.1064 -0.34797,-0.1542 -0.8899,-0.3614 -1.79603,-0.639 -2.71729,-0.9084 -2.66848,-0.699 -5.42401,-0.8945 -8.17158,-0.9122 -1.39441,-0.017 -2.78027,0.1072 -4.14634,0.3791 0.36513,-0.1968 -0.46062,0.1622 -0.36003,0.09 0.73092,-0.5233 1.4508,-1.0653 2.21704,-1.5354 0.0938,-0.058 0.2193,-0.02 0.32916,-0.027 0.16257,-0.01 0.32537,-0.017 0.48806,-0.025 0.21897,-0.014 0.43793,-0.029 0.6569,-0.043 1.92851,-0.08 3.85812,-0.1969 5.78856,-0.1473 1.46024,0.089 2.90404,0.3301 4.36132,0.4541 0.86203,0.069 1.72672,0.084 2.59105,0.086 0.69488,0.031 1.38372,-0.06 2.07083,-0.1496 0.12374,-0.016 0.24774,-0.03 0.37123,-0.048 0.32939,-0.048 0.46213,-0.087 0.46135,-0.087 -0.70022,0.4138 -1.43766,0.7636 -2.1293,1.1916 -0.11424,0.071 0.18322,0.1474 -0.0286,0.079 -0.67237,-0.2797 -1.36242,-0.5085 -2.05242,-0.7399 -0.28913,-0.1611 -0.73364,-0.1892 -0.96631,-0.4536 -0.0776,-0.088 -0.0696,-0.1653 -0.087,-0.2783 2.05199,-1.3881 1.44435,-1.2755 2.55761,-1.2821 0.19521,-0 0.37864,-2e-4 0.57248,-0.027 0.19428,-0.026 0.39659,-0.067 0.58093,-0.1364 0.0543,-0.021 0.20606,-0.1066 0.15568,-0.078 -2.31212,1.3211 -2.68001,1.5492 -1.94243,1.0948 0.16912,-0.111 -0.22272,-0.1356 -0.28457,-0.1443 -0.29576,-0.066 -0.53673,0.047 -0.80374,0.1502 -0.75574,0.5405 -0.0124,0 1.92069,-1.0864 0.0405,-0.023 -0.078,0.052 -0.11171,0.084 -0.0429,0.041 -0.0818,0.087 -0.11682,0.1345 -0.0795,0.1087 -0.15175,0.2506 -0.21588,0.3683 -0.20447,0.3733 -0.3334,0.775 -0.40608,1.1926 -0.0375,0.2861 -0.0809,0.6012 0.0802,0.8569 0.1931,0.1554 0.46516,0.1413 0.70096,0.1489 0.72038,0.015 3.17737,-1.4437 -1.61566,1.0438 -0.0557,0.029 0.0896,-0.09 0.12256,-0.143 0.0447,-0.072 0.0723,-0.154 0.10853,-0.231 0.1524,-0.596 0.29493,-1.2626 0.11819,-1.872 -0.0377,-0.1299 -0.10474,-0.2494 -0.15711,-0.3741 -0.68913,-1.0508 -1.67964,-1.4744 -2.84603,-1.7991 -1.35104,-0.2962 -2.74745,-0.2635 -4.11834,-0.1569 -1.07754,0.064 -2.12888,0.2665 -3.17371,0.5235 -0.85604,0.1936 -2.23172,1.1151 1.50142,-0.9552 0.0907,-0.05 -0.1824,0.1162 -0.32259,0.2773 -0.22275,0.3365 0.12959,0.6123 0.3592,0.8272 0.55605,0.4715 1.1661,0.8691 1.77746,1.2637 0.14666,0.097 0.29558,0.1901 0.43999,0.2901 0.48615,0.3369 0.51843,0.3932 1.02091,0.7295 0.59486,0.3982 1.22102,0.7441 1.84637,1.091 0.85276,0.4714 1.71317,0.9243 2.65121,1.2069 1.65484,0.4984 3.38538,0.695 5.09035,0.9301 2.88931,0.2922 5.80478,0.6364 8.7107,0.4071 0.35832,-0.064 0.62387,-0.08 0.94695,-0.2326 0.0838,-0.04 0.31172,-0.2003 0.23044,-0.1557 -0.6627,0.3733 -1.32541,0.7466 -1.98812,1.1199 0.0169,-0.03 0.0527,-0.056 0.0508,-0.091 -0.003,-0.051 -0.042,-0.093 -0.063,-0.1401 -0.78176,-0.7687 -1.84401,-1.0782 -2.87126,-1.3635 -2.27916,-0.573 -4.63906,-0.6578 -6.9762,-0.7419 -2.3062,-0.063 -4.61354,-0.053 -6.92026,-0.035 -0.99285,0.01 -1.9855,0.029 -2.97823,0.045 -1.06258,0.023 -0.94617,0.3456 1.79527,-1.5304 0.0249,-0.017 0.79041,-0.029 0.82304,-0.03 0.91081,-0.032 1.82213,-0.043 2.73341,-0.051 0.55754,-0.032 1.12292,0.03 1.67932,-0.025 -0.73805,0.5042 -1.4549,1.0409 -2.21413,1.5125 -0.0723,0.045 -0.16983,0.013 -0.25458,0.021 -0.12418,0.012 -0.24857,0.023 -0.37215,0.04 -0.61045,0.085 -1.17571,0.2363 -1.76076,0.4273 -1.18834,0.3827 -2.29762,0.949 -3.3982,1.5287 0.59375,-0.3399 1.18665,-0.6812 1.78126,-1.0195 0.0863,-0.049 -0.17035,0.1022 -0.25637,0.1518 -0.77114,0.4451 -1.54396,0.8873 -2.31508,1.3325 -0.684,0.3948 1.4039,-0.7327 2.05372,-1.1816 0.0548,-0.038 -0.0602,-0.1204 -0.0749,-0.1854 -0.008,-0.037 0.005,-0.075 0.007,-0.113 0.367,-0.1286 0.72984,-0.2883 1.10471,-0.3978 0.83097,-0.1594 1.68569,-0.1516 2.529,-0.1714 0.40384,0.054 1.39652,-0.148 1.74061,0.06 0.0488,0.029 0.0756,0.085 0.11341,0.1278 0.14377,0.371 -0.12766,0.5968 -0.39331,0.8042 -1.41761,-0.7664 -1.59112,1.004 -2.44978,1.3794 -0.35098,0.1535 0.028,-0.039 -0.33483,0.1013 -0.18584,0.072 -0.36255,0.1658 -0.5466,0.2422 -1.14794,0.486 -2.32425,0.8982 -3.52196,1.242 -0.69708,0.2046 -1.41196,0.326 -2.13687,0.3588 -0.63475,0.067 -1.19697,-0.1713 -1.75552,-0.4452 -0.87532,-0.4055 -1.63873,-1.003 -2.39514,-1.5928 -0.50711,-0.4069 -0.95748,-0.875 -1.44007,-1.3087 -0.23253,-0.2139 -0.51583,-0.352 -0.75883,-0.5499 -0.43493,-0.2837 -0.63524,-0.8023 -0.86591,-1.2457 -0.34752,-0.7006 -0.65023,-1.4401 -1.1719,-2.0326 -0.261,-0.2652 -0.58493,-0.3146 -0.93843,-0.3266 -0.15678,-0 -0.31355,0 -0.47029,0 0,0 2.03329,-1.4802 2.03329,-1.4802 l 0,0 c 0.16127,0 0.3228,-0 0.48358,0.014 0.40357,0.052 0.75518,0.1882 1.02783,0.5062 0.49676,0.6326 0.80161,1.3801 1.16944,2.0901 0.23404,0.4134 0.45197,0.8632 0.86393,1.127 0.25549,0.1882 0.52669,0.3537 0.7556,0.577 0.46274,0.439 0.88429,0.9206 1.38425,1.3204 0.74082,0.5872 1.50776,1.1541 2.37892,1.535 0.55243,0.2395 1.10167,0.405 1.71018,0.3286 0.69397,-0.048 1.37874,-0.1658 2.04762,-0.3605 1.20803,-0.3498 2.39015,-0.7814 3.53914,-1.2939 0.92425,-0.4073 3.04872,-1.3019 -0.95273,0.7165 0.21455,-0.098 0.39666,-0.252 0.57903,-0.3984 -0.0865,-0.068 -0.35519,-0.063 -0.43498,-0.065 -0.4116,-0.012 -0.824,0.01 -1.23556,0.01 -0.84429,0.022 -1.70894,0.021 -2.52581,0.2602 -0.38044,0.1412 -0.76097,0.3002 -1.15982,0.379 -0.008,-0 -0.4152,-0.1946 -0.25882,-0.3046 0.70871,-0.4987 1.497,-0.8735 2.25052,-1.3015 0.65478,-0.3719 -1.30255,0.756 -1.95429,1.1332 -0.0903,0.052 0.17996,-0.1056 0.26994,-0.1584 0.81217,-0.4671 1.62434,-0.9342 2.43651,-1.4013 1.0968,-0.5647 2.2122,-1.0962 3.39163,-1.4687 0.73744,-0.2211 1.46631,-0.3827 2.23017,-0.4791 1.06107,-0.134 0.24208,-0.012 -1.58505,1.4419 -0.53069,-0.077 -1.08286,0.024 -1.61578,-0.019 -0.91248,0.01 -1.82578,0.012 -2.73666,0.071 -0.17536,0.015 -0.48184,0.034 -0.66473,0.071 -0.0574,0.011 -0.21319,0.089 -0.16762,0.052 1.97459,-1.5917 1.16882,-1.5243 2.22156,-1.4948 0.95801,0.011 1.91598,0.025 2.87404,0.031 2.28273,0.016 4.56567,0.033 6.84767,0.097 2.37665,0.083 4.77465,0.159 7.09667,0.7226 1.11089,0.2968 2.25317,0.6266 3.08388,1.4709 0.047,0.087 0.11213,0.1675 0.14098,0.2626 0.27051,0.8915 -1.45585,1.1725 -2.25565,1.6503 -0.3398,0.203 -0.78588,0.1853 -1.15842,0.2384 -2.85757,0.073 -5.70705,-0.2971 -8.54502,-0.5785 -1.75118,-0.2271 -3.53598,-0.406 -5.24327,-0.882 -0.96818,-0.27 -1.86779,-0.7094 -2.74555,-1.1893 -0.44183,-0.2433 -0.87353,-0.4751 -1.30513,-0.7363 -0.70387,-0.426 -1.35493,-0.9306 -2.06005,-1.3544 -0.63332,-0.3964 -1.26712,-0.7971 -1.83904,-1.2804 -0.30467,-0.2895 -0.69088,-0.6611 -0.54086,-1.1226 0.0691,-0.1456 0.14621,-0.2929 0.29179,-0.3792 1.19821,-0.7104 1.70344,-1.2412 2.80561,-1.4598 1.03114,-0.2286 2.07315,-0.3771 3.12851,-0.4412 1.39775,-0.091 2.81991,-0.1313 4.18988,0.2109 1.25431,0.3835 2.22613,0.8477 2.9927,1.9599 0.0626,0.1405 0.14062,0.275 0.18769,0.4215 0.20527,0.6386 0.0681,1.3326 -0.0339,1.9749 -0.0242,0.092 -0.0412,0.1861 -0.0726,0.2759 -0.36788,1.0521 -1.76579,1.6354 -2.84651,1.5747 -0.31705,-0.031 -0.62737,-0.085 -0.83609,-0.351 -0.1815,-0.3131 -0.20492,-0.6615 -0.15302,-1.0162 0.0619,-0.4401 0.17718,-0.8676 0.37846,-1.2663 0.57178,-1.2163 1.02743,-1.4748 2.78906,-2.0799 0.29375,-0.098 0.58566,-0.1129 0.88865,-0.037 0.30371,0.087 0.57791,0.2507 0.54502,0.6099 -0.61559,0.9589 -2.00128,1.4447 -3.13694,1.5815 -0.19489,0.01 -0.39099,0.01 -0.58556,0.025 -0.86935,0.068 -2.11982,1.2038 1.81051,-1.1812 -0.0336,-0.03 -0.0648,-0.064 -0.10094,-0.091 -0.005,-0 -0.0227,-0 -0.0186,8e-4 0.21451,0.2338 0.60345,0.2746 0.86765,0.4152 0.71512,0.2441 1.43844,0.4701 2.13798,0.7562 1.20283,0.9726 -1.82132,1.6571 -2.77393,1.7038 -0.69942,0.089 -1.40091,0.1652 -2.10739,0.1332 -0.85132,-0.019 -1.7024,-0.063 -2.55059,-0.1393 -1.43544,-0.142 -2.85748,-0.3978 -4.29856,-0.4792 -1.94024,-0.043 -3.88275,0.05 -5.81724,0.1985 -0.20395,0.019 -0.94206,0.085 -1.19545,0.1133 -0.11671,0.013 -0.43284,0.1279 -0.34937,0.045 1.46921,-1.4542 1.11503,-1.3665 2.12819,-1.5409 1.33299,-0.213 2.68222,-0.2675 4.03139,-0.2367 2.75925,0.069 5.52306,0.289 8.20984,0.9578 1.20606,0.3251 1.03682,0.2658 2.14987,0.6136 0.23483,0.073 0.85936,0.2545 1.13097,0.4092 0.0849,0.048 0.30192,0.1249 0.22604,0.1864 -0.65802,0.5334 -1.42816,0.9112 -2.14224,1.3667 -0.94935,-0.5338 -2.06424,-0.6957 -3.10151,-0.9747 -1.19804,-0.2543 -1.63156,-0.3615 -2.89001,-0.559 -2.75741,-0.4326 -5.5453,-0.6711 -8.33087,-0.8203 -2.67642,-0.06 -5.39705,-0.095 -8.02527,0.4928 -0.14682,0.044 -0.56627,0.2199 -0.44046,0.1323 0.60995,-0.4246 1.29833,-0.7286 1.90784,-1.1539 0.10395,-0.072 -0.40527,-0.053 -0.21999,-0.099 0.12528,-0.031 0.26032,0.1426 0.3862,0.025 1.57247,0.023 3.1449,0.048 4.71744,0.066 3.23162,0.042 6.46676,0.082 9.69134,0.3146 1.38043,0.1552 3.15543,0.2917 4.36406,1.0683 0.10259,0.066 0.18682,0.1567 0.28024,0.2351 0.26001,0.3715 0.29591,0.5718 0.15761,1.0038 -2.05687,1.234 -1.87785,1.5669 -3.7133,1.3505 -2.08958,-0.222 -4.17684,-0.4749 -6.27483,-0.6066 -0.44716,-0.026 -0.89388,-0.062 -1.34146,-0.079 -1.28377,-0.051 -2.56833,2e-4 -3.85206,0.021 -1.00739,0.034 -0.25212,0.043 1.81931,-1.4815 9.5e-4,-7e-4 0.27963,0.023 0.30203,0.025 0.066,0.01 0.13186,0.012 0.19779,0.018 0.74731,0.093 1.48029,0.2673 2.2134,0.4362 1.25296,0.2818 2.51926,0.4918 3.7703,0.7814 0,0 -2.07754,1.4096 -2.07754,1.4096 z"
       inkscape:connector-curvature="0" />
    <path
       style="fill:#ffaaaa;fill-opacity:1;stroke:none;stroke-opacity:1"
       id="path4256"
       d="m 443.12317,1046.8715 c 0.90634,-1.0251 2.213,-1.7334 3.55846,-1.9884 0.55245,-0.086 1.10549,-0.1242 1.66023,-0.053 0.37022,0.019 0.64402,0.2116 0.8788,0.4817 0.25956,0.2851 0.32188,0.6405 0.36204,1.0102 0.013,0.4278 -0.0344,0.8569 -0.11962,1.2757 -0.22497,1.0376 0.57091,0.1651 -2.33165,1.2793 -0.008,0 -0.0477,-0.502 -0.0491,-0.53 -0.0143,-0.2985 0.012,-0.6047 -0.0623,-0.8978 -0.0263,-0.1035 -0.14422,-0.3908 -0.18057,-0.4824 -0.2463,-0.5218 -0.5155,-0.7865 -0.99385,-1.0841 -0.31796,-0.188 -0.67339,-0.2429 -1.03527,-0.2654 -0.0367,0.01 -0.22597,0.046 -0.26295,0.059 -0.13579,0.049 -0.25569,0.1489 -0.38266,0.2169 0.66972,-0.3846 1.33945,-0.7691 2.00917,-1.1536 -0.29365,0.1689 -0.54725,0.3942 -0.74267,0.67 -0.28077,0.4771 -0.40858,1.0191 -0.50461,1.5586 -0.0485,0.41 -0.10284,0.8278 -0.0679,1.2411 0.0111,0.033 0.0144,0.07 0.0332,0.099 0.0434,0.067 0.25052,-0.1064 0.15344,-0.054 -2.10034,1.142 -2.74503,1.6443 -1.99643,1.0712 0.31487,-0.4353 0.46811,-0.9578 0.61742,-1.4668 0.19318,-0.702 0.44044,-1.3873 0.6599,-2.0812 0.32207,-1.0717 1.74218,-2.3355 2.8149,-1.7693 0.38507,0.2724 0.53962,0.7376 0.70575,1.159 0.19496,0.4946 0.34089,1.0043 0.42644,1.5287 0.0657,0.4374 0.0746,0.8799 0.0765,1.3213 -10e-4,0.4705 -10e-4,0.9409 -0.003,1.4114 0.009,0.029 -0.0491,0.9223 0.13243,0.6486 0.19571,-0.8842 0.0487,-0.1028 -2.06125,1.102 -0.0316,0.018 0.0636,-0.037 0.0888,-0.064 0.12204,-0.1279 0.20178,-0.313 0.28046,-0.4676 0.29634,-0.7143 0.26996,-1.489 0.21557,-2.2443 -0.32949,-1.8722 -1.05156,-3.6567 -1.87417,-5.3622 -0.35709,-0.643 -0.61634,-1.5087 -1.31976,-1.8646 -0.0506,-0.013 -0.0997,-0.035 -0.15189,-0.04 -0.17044,-0.014 -0.62753,0.2834 -0.41681,0.1649 1.96635,-1.1062 2.63119,-1.5805 1.85303,-1.0334 -0.40768,0.3463 -0.5503,0.8144 -0.64383,1.3218 -0.13358,0.9034 -0.11877,1.8091 -0.002,2.7119 0.2487,1.7393 0.68314,3.4431 1.1149,5.1438 0.29396,1.1048 0.61283,2.2094 1.11925,3.2377 0.12405,0.2148 0.2613,0.4285 0.47391,0.5663 0.0466,0.03 0.0943,0.082 0.14917,0.074 0.0513,-0.01 0.15283,-0.1369 0.10642,-0.1136 -0.67192,0.3366 -1.32735,0.7053 -1.99103,1.058 0.48721,-0.7216 0.57151,-1.6164 0.65642,-2.4611 0.0595,-0.7357 0.0608,-1.4744 0.0549,-2.212 0.004,-0.5616 -0.0669,-1.1213 -0.15749,-1.6746 -0.098,-0.4414 -0.10283,-0.8961 -0.16844,-1.3415 0.35121,0.8747 -0.0385,-0 2.24067,-1.0811 0.0428,-0.02 -0.008,0.094 -0.0101,0.1415 -0.0102,0.2213 -0.0101,0.4434 -0.0115,0.6649 0.007,0.4691 -0.0179,0.9405 0.0197,1.4085 0.0695,0.3485 0.26741,0.666 0.49426,0.9352 0.0922,0.1057 0.18101,0.2509 0.31758,0.3085 0.0327,0.014 0.0738,0.033 0.10527,0.016 0.0366,-0.019 0.102,-0.1242 0.0653,-0.1053 -0.69395,0.3575 -1.36793,0.7525 -2.0519,1.1287 0.0337,-0.084 0.077,-0.1657 0.10106,-0.2534 0.17278,-0.6301 0.19652,-1.4025 0.27709,-2.0576 0.0671,-0.6471 0.1906,-1.2861 0.27519,-1.9307 0.0302,-0.3876 0.0744,-0.7712 0.17058,-1.1483 0.39913,-1.1665 1.10347,-1.0799 2.50622,-1.9022 0.28949,0.2848 0.24099,0.6898 0.28083,1.0634 0.0649,0.39 0.1104,0.7814 0.13331,1.1759 0.0199,0.4223 0.0164,0.8453 0.0186,1.2679 -0.004,0.3671 0.0164,0.7349 -0.009,1.1014 -0.0383,0.332 -0.16317,0.6438 -0.23336,0.9694 -0.0643,0.3509 -0.0686,0.709 -0.0735,1.0646 -0.002,0.3274 -6.7e-4,0.6549 1.9e-4,0.9823 0.0137,0.2769 -0.10839,0.5137 -0.20483,0.7628 -0.25071,1.0878 -1.47294,1.6508 -2.57488,1.8269 -0.40587,0.046 -0.77924,-0.1725 -1.14461,-0.3162 -0.75469,-0.3053 -1.52585,-0.5597 -2.29722,-0.8174 -0.37833,-0.157 -0.75789,-0.2969 -0.76453,-0.7564 0.33158,-0.9317 0.0318,-0.1681 2.28953,-1.4371 0.11148,-0.063 0.29998,2e-4 0.419,-0.036 0.0433,-0.013 0.0767,-0.048 0.11509,-0.072 -0.68463,0.3864 -1.36927,0.7727 -2.05391,1.1591 0.0957,-0.069 0.12946,-0.077 0.1835,-0.1952 0.0994,-0.2177 0.099,-0.4702 0.10855,-0.7029 -0.0528,-0.6605 -0.16156,-1.3148 -0.22623,-1.9742 -0.0425,-0.4401 -0.0605,-0.8819 -0.0683,-1.3237 -0.006,-0.3405 -0.002,-0.6809 2e-4,-1.0213 0.0213,-0.3577 -0.0131,-0.7113 -0.10042,-1.0582 -0.10785,-0.2841 -0.19191,-0.6214 -0.42837,-0.8294 -0.015,0 -0.0394,-0 -0.0451,0.01 -0.012,0.03 -0.0262,0.1119 0.002,0.097 0.72165,-0.3837 1.41057,-0.8262 2.12302,-1.2267 0.0215,-0.012 -0.0356,0.036 -0.0453,0.059 -0.0335,0.078 -0.0394,0.1924 -0.0486,0.2725 -0.0448,0.4875 0.1337,0.9583 0.25365,1.424 0.23239,0.7914 0.46383,1.5829 0.7076,2.3709 0.22361,0.7396 0.47125,1.4715 0.70374,2.2082 0.13286,0.3685 0.27402,0.7303 0.44912,1.0804 0.17106,0.2301 0.27906,0.4942 0.40071,0.7513 0.11492,0.2105 0.34372,0.2171 0.55828,0.2354 0.30266,-0 0.58874,0.017 0.86987,0.1344 0.27247,0.1192 0.56574,0.1558 0.85929,0.1776 0.13604,0.039 0.27289,0.075 0.41113,0.1054 0,0 -2.07209,1.434 -2.07209,1.434 l 0,0 c -0.12868,-0.032 -0.25687,-0.068 -0.38915,-0.081 -0.30705,-0.039 -0.60647,-0.107 -0.89451,-0.223 -0.27805,-0.07 -0.56007,-0.062 -0.8436,-0.096 -0.29207,-0.059 -0.54965,-0.1649 -0.69361,-0.4444 -0.11868,-0.2567 -0.22448,-0.5187 -0.38993,-0.7507 -0.18016,-0.3657 -0.32695,-0.74 -0.44545,-1.1312 -0.2101,-0.7445 -0.45857,-1.4782 -0.67624,-2.2205 -0.24431,-0.7892 -0.49168,-1.5769 -0.73227,-2.3672 -0.1383,-0.4837 -0.3391,-0.973 -0.32571,-1.4821 10e-4,-0.031 0.0149,-0.4355 0.0226,-0.4406 1.25827,-0.8355 1.60286,-1.8782 2.39617,-1.2082 0.22823,0.2754 0.35777,0.6093 0.48164,0.9415 0.105,0.3639 0.1407,0.7413 0.1278,1.1195 5.8e-4,0.3394 0.002,0.6788 -3.8e-4,1.0183 5.7e-4,0.4393 0.005,0.8788 0.0373,1.3172 0.0543,0.6676 0.1426,1.3307 0.23823,1.9936 0.0576,1.6578 -0.51085,1.3425 -2.44061,2.4181 -0.13724,0.022 -0.28563,0.032 -0.41623,0.083 -0.0363,0.014 -0.13709,0.074 -0.10366,0.054 2.06857,-1.2377 2.85494,-1.3135 1.97358,-1.2151 -0.29611,0.1123 0.47744,0.4223 0.52351,0.4395 0.76941,0.268 1.53309,0.5504 2.30126,0.8218 0.34906,0.1203 0.71332,0.2966 1.08107,0.1544 0.81425,-0.4468 -0.10842,0.058 -1.94166,1.1556 -0.0304,0.018 0.0672,-0.025 0.0963,-0.045 0.1065,-0.074 0.13115,-0.1957 0.1473,-0.3159 0.0648,-0.2439 0.20991,-0.4439 0.24578,-0.695 -5.2e-4,-0.3289 -0.002,-0.6579 6.5e-4,-0.9869 0.004,-0.3681 0.0111,-0.7369 0.0515,-1.1032 0.0553,-0.3263 0.16502,-0.6336 0.24256,-0.9531 0.06,-0.3553 0.0121,-0.7206 0.0307,-1.0795 10e-4,-0.4183 -4.6e-4,-0.8367 -0.0155,-1.2548 -0.0187,-0.3894 -0.0566,-0.7771 -0.12254,-1.1617 -0.0276,-0.1963 -0.0346,-0.3914 -0.058,-0.5879 -0.006,-0.047 -0.0475,-0.1817 -0.024,-0.1404 0.0134,0.024 0.0216,0.05 0.0324,0.074 0.69957,-0.4158 1.39834,-0.8329 2.09873,-1.2473 0.0282,-0.017 -0.0583,0.032 -0.082,0.054 -0.12496,0.119 -0.17412,0.3073 -0.25482,0.4547 -0.16333,0.343 -0.17107,0.7435 -0.21953,1.114 -0.087,0.6493 -0.2202,1.2905 -0.29633,1.9414 -0.11442,0.7944 -0.17394,1.5958 -0.2918,2.3897 -1.46289,0.9316 -1.97197,2.1348 -2.88868,0.9528 -0.24802,-0.316 -0.47098,-0.6702 -0.56287,-1.0649 -0.0532,-0.4758 -0.001,-0.9569 -0.0214,-1.4348 -0.002,-0.2193 -0.003,-0.4387 -0.01,-0.6579 -0.001,-0.048 -0.046,-0.1166 -0.006,-0.1431 2.18773,-1.4596 1.83802,-2.0946 2.25978,-1.2204 0.007,0.4488 0.0573,0.8961 0.12852,1.3389 0.0913,0.5658 0.18286,1.1364 0.17471,1.7111 -0.007,0.7496 -0.0165,1.4999 -0.0741,2.2478 -0.0793,0.8757 -0.17805,1.7722 -0.55526,2.5775 -1.82214,1.1364 -2.26515,2.2547 -3.18405,0.6085 -0.48198,-1.0639 -0.7797,-2.1956 -1.05524,-3.3278 -0.41466,-1.7071 -0.84316,-3.4124 -1.17459,-5.138 -0.0338,-0.2013 -0.0753,-0.4014 -0.10129,-0.6039 -0.0913,-0.7116 -0.0343,-1.4374 0.0194,-2.1494 0.0746,-0.5428 0.17006,-1.0457 0.54599,-1.4678 0.73369,-0.7785 0.17508,-0.2125 2.44244,-1.4709 0.22334,-0.124 0.49997,-0.032 0.70482,0.074 0.68167,0.4839 0.94521,1.326 1.28637,2.0531 0.76924,1.7539 1.4943,3.5496 1.9402,5.4152 0.11106,0.7981 0.1716,1.5418 -0.0789,2.3201 -0.38939,1.0204 -1.29977,2.2441 -2.65085,1.9328 -0.37302,-0.2382 -0.29314,-0.5815 -0.29191,-0.9756 1.1e-4,-0.4693 0.004,-0.9387 10e-4,-1.408 -0.004,-0.4308 -0.004,-0.8629 -0.055,-1.2914 -0.0731,-0.5092 -0.20471,-1.0021 -0.39623,-1.4803 -0.13834,-0.3409 -0.25607,-0.7878 -0.61438,-0.9572 -0.1269,6e-4 -0.0641,-0.014 -0.1863,0.052 0.67439,-0.4052 1.34878,-0.8105 2.02317,-1.2157 0.0437,-0.026 -0.0838,0.058 -0.11774,0.096 -0.10522,0.1167 -0.13141,0.2133 -0.19478,0.3584 -0.22564,0.6956 -0.49989,1.3756 -0.68771,2.0833 -0.13725,0.529 -0.26924,1.0506 -0.52906,1.5355 -0.45498,0.921 -0.0859,0.2447 -2.35048,1.4239 -0.14057,0.073 -0.36888,-0.28 -0.38202,-0.3844 -0.054,-0.4355 0.016,-0.8783 0.0591,-1.3122 0.086,-0.5603 0.22054,-1.1144 0.44582,-1.6363 0.16624,-0.3198 0.39705,-0.5758 0.69343,-0.7829 0.76578,-0.4416 1.53031,-0.8853 2.29734,-1.3247 0.22551,-0.1292 0.47239,-0.1882 0.7319,-0.159 0.38827,0.05 0.76089,0.1529 1.0913,0.3722 0.46565,0.3131 0.82687,0.7042 1.065,1.2197 0.0318,0.078 0.18506,0.4458 0.20837,0.5243 0.089,0.2997 0.0809,0.6127 0.0901,0.9213 0.006,0.1204 0.0386,0.4461 0.0327,0.4495 -0.73287,0.4236 -1.50062,0.7839 -2.24559,1.1859 -0.0176,0.01 0.0478,0.01 0.0595,-0.01 0.0284,-0.039 0.0299,-0.092 0.0449,-0.1381 0.0933,-0.3969 0.14862,-0.7982 0.16176,-1.2067 -0.033,-0.317 -0.069,-0.6246 -0.3015,-0.8639 -0.21247,-0.2263 -0.45149,-0.3243 -0.76517,-0.3378 -0.53285,-0.05 -1.06871,0 -1.59321,0.1056 -0.10245,0.026 -0.20632,0.047 -0.30735,0.079 -0.0985,0.03 -0.37769,0.1614 -0.29055,0.1063 0.60977,-0.386 1.24534,-0.7297 1.86357,-1.102 0.13973,-0.084 -0.29488,0.1511 -0.41075,0.2659 -0.0444,0.044 -0.0787,0.097 -0.11809,0.1458 0,0 -2.31972,0.9911 -2.31972,0.9911 z"
       inkscape:connector-curvature="0" />
  </g>
</svg>
