<?xml version="1.0" encoding="UTF-8" standalone="no"?>
<!-- Created with Inkscape (http://www.inkscape.org/) -->

<svg
   xmlns:dc="http://purl.org/dc/elements/1.1/"
   xmlns:cc="http://creativecommons.org/ns#"
   xmlns:rdf="http://www.w3.org/1999/02/22-rdf-syntax-ns#"
   xmlns:svg="http://www.w3.org/2000/svg"
   xmlns="http://www.w3.org/2000/svg"
   xmlns:sodipodi="http://sodipodi.sourceforge.net/DTD/sodipodi-0.dtd"
   xmlns:inkscape="http://www.inkscape.org/namespaces/inkscape"
   width="70"
   height="70"
   viewBox="0 0 69.999999 69.999999"
   id="svg2"
   version="1.1"
   inkscape:version="0.91 r13725"
   sodipodi:docname="laser_large.svg">
  <defs
     id="defs4" />
  <sodipodi:namedview
     id="base"
     pagecolor="#ffffff"
     bordercolor="#666666"
     borderopacity="1.0"
     inkscape:pageopacity="0.0"
     inkscape:pageshadow="2"
     inkscape:zoom="5.6990943"
     inkscape:cx="34.620129"
     inkscape:cy="34.529053"
     inkscape:document-units="px"
     inkscape:current-layer="layer1"
     showgrid="false"
     units="px"
     inkscape:window-width="1366"
     inkscape:window-height="706"
     inkscape:window-x="-8"
     inkscape:window-y="-8"
     inkscape:window-maximized="1" />
  <metadata
     id="metadata7">
    <rdf:RDF>
      <cc:Work
         rdf:about="">
        <dc:format>image/svg+xml</dc:format>
        <dc:type
           rdf:resource="http://purl.org/dc/dcmitype/StillImage" />
        <dc:title></dc:title>
      </cc:Work>
    </rdf:RDF>
  </metadata>
  <g
     inkscape:label="Layer 1"
     inkscape:groupmode="layer"
     id="layer1"
     transform="translate(0,-982.3622)">
    <path
       style="fill:#ff00ff;fill-rule:evenodd;stroke:#000000;stroke-width:1px;stroke-linecap:butt;stroke-linejoin:miter;stroke-opacity:1"
       d="m 9.8261228,1023.7612 c 0.5263992,0 1.0527992,0 1.5791982,0 0.05849,0 0.119979,0.019 0.175467,0 0.124073,-0.041 0.222687,-0.1499 0.350932,-0.1755 1.203613,-0.2407 -0.158945,0.3092 1.052799,-0.1755 0.121431,-0.048 0.229502,-0.1269 0.350933,-0.1754 0.171729,-0.069 0.354671,-0.1068 0.5264,-0.1755 0.121431,-0.049 0.222687,-0.1498 0.350933,-0.1755 0.172059,-0.034 0.356172,0.043 0.526399,0 0.08025,-0.02 0.101483,-0.1384 0.175467,-0.1754 0.05231,-0.026 0.123152,0.026 0.175466,0 0.581949,-0.582 -0.165431,0.083 0.350933,-0.1755 0.07398,-0.037 0.101483,-0.1385 0.175467,-0.1755 0.104628,-0.052 0.268217,0.083 0.350932,0 0.363047,-0.363 -0.554782,0.014 0.175467,-0.3509 0.05231,-0.026 0.123152,0.026 0.175466,0 0.07398,-0.037 0.101484,-0.1385 0.175467,-0.1755 0.165431,-0.083 0.367799,-0.08 0.526399,-0.1754 0.141857,-0.085 0.233956,-0.234 0.350933,-0.351 0.05849,-0.059 0.101484,-0.1384 0.175467,-0.1754 0.165431,-0.083 0.360968,-0.093 0.526399,-0.1755 0.07398,-0.037 0.106643,-0.1296 0.175467,-0.1755 0.08836,-0.3865 0.360968,-0.093 0.526399,-0.1754 0.07398,-0.037 0.106643,-0.1296 0.175467,-0.1755 0.108819,-0.072 0.242113,-0.1029 0.350933,-0.1755 0.20647,-0.1376 0.327881,-0.3775 0.526399,-0.5264 0.104628,-0.078 0.258454,-0.083 0.350933,-0.1754 0.09248,-0.092 0.07084,-0.2725 0.175466,-0.351 0.147967,-0.1109 0.3678,-0.08 0.5264,-0.1754 0.141856,-0.085 0.218588,-0.2517 0.350933,-0.351 0.104628,-0.078 0.244509,-0.099 0.350933,-0.1754 0.304752,-0.2177 0.577723,-0.4772 0.877332,-0.7019 0.168708,-0.1265 0.354796,-0.2284 0.5264,-0.3509 0.233955,-0.1755 0.46791,-0.351 0.701865,-0.5264 0.116978,-0.117 0.221753,-0.2476 0.350933,-0.351 0.164674,-0.1317 0.361727,-0.2192 0.5264,-0.3509 0.19377,-0.155 0.319928,-0.3887 0.526399,-0.5264 0.03269,-0.022 0.690622,-0.3397 0.701866,-0.3509 0.09248,-0.092 0.08299,-0.2585 0.175467,-0.351 0.149118,-0.1491 0.377281,-0.2018 0.526399,-0.3509 0.09248,-0.092 0.108178,-0.2388 0.175467,-0.3509 0.108499,-0.1809 0.233955,-0.351 0.350933,-0.5264 0.116977,-0.1755 0.201815,-0.3773 0.350933,-0.5264 0.149117,-0.1491 0.39466,-0.1863 0.526399,-0.351 0.115542,-0.1444 0.09275,-0.3609 0.175466,-0.5264 1.053536,-2.107 -0.277365,0.7548 0.701866,-0.8773 0.09516,-0.1586 0.08031,-0.3678 0.175467,-0.5264 0.08511,-0.1418 0.259168,-0.2133 0.350933,-0.3509 0.03244,-0.049 0,-0.117 0,-0.1755 0.116977,-0.117 0.259168,-0.2133 0.350933,-0.3509 0.06489,-0.097 -0.08272,-0.2682 0,-0.351 0.04136,-0.041 0.134108,0.041 0.175466,0 0.08061,-0.081 0.451945,-0.9038 0.5264,-1.0528 0.116977,-0.2339 0.216356,-0.4775 0.350933,-0.7018 0.108499,-0.1809 0.272612,-0.3306 0.350933,-0.5264 0.04344,-0.1086 -0.02837,-0.2375 0,-0.351 0.06344,-0.2537 0.268217,-0.4537 0.350933,-0.7018 0.06215,-0.1865 -0.06215,-0.5154 0,-0.7019 0.04136,-0.1241 0.134108,-0.2268 0.175466,-0.3509 0.04023,-0.1207 -0.05176,-0.4229 0,-0.5264 0.03699,-0.074 0.138475,-0.1015 0.175466,-0.1755 0.0267,-0.053 0,-0.4474 0,-0.5264 0,-0.4094 0,-0.8188 0,-1.2282 0,-0.059 0,-0.117 0,-0.1755 0,-0.058 -0.05849,-0.1755 0,-0.1755 0.05849,0 0,0.117 0,0.1755 2.601909,-0.4337 0.807613,-0.4904 1.052799,0 0.03699,0.074 0.138475,0.1015 0.175467,0.1755 0.02616,0.052 -0.02616,0.1231 0,0.1754 0.03699,0.074 0.101483,0.1385 0.175466,0.1755 0.05231,0.026 0.14931,-0.052 0.175467,0 0.05231,0.1046 -0.03699,0.2399 0,0.3509 0.02616,0.078 0.116977,0.117 0.175466,0.1755 0.05849,0.058 0.101484,0.1385 0.175467,0.1755 0.05231,0.026 0.134108,-0.041 0.175466,0 0.04136,0.041 -0.04136,0.1341 0,0.1754 0.04136,0.041 0.134109,-0.041 0.175467,0 0.04136,0.041 -0.02616,0.1232 0,0.1755 0.365124,0.7302 -0.01211,-0.1876 0.350933,0.1755 0.04136,0.041 -0.04136,0.1341 0,0.1754 0.46791,0 -0.05849,-0.058 0.175466,0.1755 0.04136,0.041 0.134109,-0.041 0.175467,0 0.04136,0.041 -0.04136,0.1341 0,0.1755 0.08272,0.083 0.268217,-0.083 0.350933,0 0.04136,0.041 -0.04136,0.1341 0,0.1754 0.08272,0.083 0.268217,-0.083 0.350933,0 0.04136,0.041 -0.04136,0.1341 0,0.1755 0.04136,0.041 0.134108,-0.041 0.175466,0 0.04136,0.041 -0.04136,0.1341 0,0.1755 0.08272,0.083 0.268217,-0.083 0.350933,0 0.04136,0.041 -0.04136,0.1341 0,0.1754 0.04136,0.041 0.123152,-0.026 0.175466,0 0.73025,0.3651 -0.187579,-0.012 0.175467,0.3509 0.04136,0.041 0.134109,-0.041 0.175466,0 0.04136,0.041 -0.04136,0.1342 0,0.1755 0.08272,0.083 0.268218,-0.083 0.350933,0 0.04136,0.041 -0.04136,0.1341 0,0.1755 0.363047,0.363 -0.01419,-0.5548 0.350933,0.1754 0.02616,0.052 -0.04136,0.1342 0,0.1755 0.05814,0.058 0.292797,-0.058 0.350933,0 0.04136,0.041 -0.04136,0.1341 0,0.1755 0.08272,0.083 0.268217,-0.083 0.350933,0 0.04136,0.041 -0.04136,0.1341 0,0.1754 0.08773,0.088 0.438666,-0.088 0.5264,0 0.04136,0.041 -0.04136,0.1342 0,0.1755 0.08272,0.083 0.268217,-0.083 0.350933,0 0.04136,0.041 -0.04136,0.1341 0,0.1755 0.08272,0.083 0.246305,-0.052 0.350933,0 0.07398,0.037 0.101483,0.1385 0.175466,0.1754 0.104628,0.052 0.268217,-0.083 0.350933,0 0.363046,0.3631 -0.554783,-0.014 0.175466,0.351 0.05231,0.026 0.123153,-0.026 0.175467,0 0.07398,0.037 0.101483,0.1385 0.175466,0.1754 0.05231,0.026 0.134109,-0.041 0.175467,0 0.04136,0.041 0,0.117 0,0.1755 0.05849,0 0.123152,-0.026 0.175466,0 0.73025,0.3651 -0.18758,-0.012 0.175467,0.3509 0.04136,0.041 0.134108,-0.041 0.175466,0 0.04136,0.041 -0.04136,0.1342 0,0.1755 0.04136,0.041 0.134109,-0.041 0.175467,0 0.04136,0.041 -0.04136,0.1341 0,0.1755 0.04136,0.041 0.123152,-0.026 0.175466,0 0.07398,0.037 0.101484,0.1385 0.175467,0.1754 0.104628,0.052 0.246305,-0.052 0.350933,0 0.535095,0.2676 -0.320919,0.1391 0.526399,0.351 0.113485,0.028 0.239958,-0.037 0.350933,0 0.07847,0.026 0.097,0.1493 0.175467,0.1754 0.110974,0.037 0.233955,0 0.350933,0 0.05849,0 0.123152,-0.026 0.175466,0 0.147966,0.074 0.193991,0.2987 0.350933,0.351 0.110975,0.037 0.246305,-0.052 0.350933,0 0.05231,0.026 -0.04136,0.1341 0,0.1754 0.04136,0.041 0.123152,-0.026 0.175466,0 0.07398,0.037 0.101484,0.1385 0.175467,0.1755 0.05231,0.026 0.123152,-0.026 0.175466,0 0.07398,0.037 0.101484,0.1385 0.175467,0.1755 0.05231,0.026 0.116977,0 0.175466,0 0.05849,0.059 0.106643,0.1296 0.175467,0.1754 0.108819,0.073 0.226859,0.1342 0.350933,0.1755 0.110974,0.037 0.268217,-0.083 0.350933,0 0.04136,0.041 -0.04136,0.1341 0,0.1755 0.04136,0.041 0.123152,-0.026 0.175466,0 0.147966,0.074 0.202967,0.2769 0.350933,0.3509 0.104628,0.052 0.268217,-0.083 0.350933,0 0.363046,0.3631 -0.554783,-0.014 0.175467,0.3509 0.104628,0.052 0.246305,-0.052 0.350933,0 0.07398,0.037 0.101483,0.1385 0.175466,0.1755 0.110285,0.055 0.591581,-0.055 0.701866,0 0.05231,0.026 -0.04136,0.1341 0,0.1755 0.08272,0.083 0.246305,-0.052 0.350933,0 0.07398,0.037 0.101483,0.1385 0.175466,0.1754 0.05231,0.026 0.134109,-0.041 0.175467,0 0.008,0.01 0,0.7946 0,0.8774 0,0.117 0,0.2339 0,0.3509 0,0.058 0.05849,0.1755 0,0.1755 -0.05849,0 0,-0.234 0,-0.1755 0,0.117 0,0.234 0,0.3509 0,0.059 0.05849,0.1755 0,0.1755 -0.248578,0 0.497155,-0.8188 0,0.1755 -0.02616,0.052 -0.134109,-0.041 -0.175467,0 -0.04136,0.041 0.04136,0.1341 0,0.1754 -0.08773,0.088 -0.438666,-0.088 -0.526399,0 -0.04136,0.041 0.04136,0.1341 0,0.1755 -0.08272,0.083 -0.268217,-0.083 -0.350933,0 -0.05819,0.058 0.05819,0.2927 0,0.3509 -0.04136,0.041 -0.134109,-0.041 -0.175467,0 -0.04136,0.041 0.04136,0.1341 0,0.1755 -0.04136,0.041 -0.134108,-0.041 -0.175466,0 -0.04136,0.041 0.04136,0.1341 0,0.1755 -0.04136,0.041 -0.134109,-0.041 -0.175466,0 -0.04136,0.041 0.04136,0.1341 0,0.1754 -0.04136,0.041 -0.123153,-0.026 -0.175467,0 -0.07398,0.037 -0.101483,0.1385 -0.175466,0.1755 -0.05231,0.026 -0.134109,-0.041 -0.175467,0 -0.04136,0.041 0.04136,0.1341 0,0.1755 -0.04136,0.041 -0.134109,-0.041 -0.175466,0 -0.04136,0.041 0.04136,0.1341 0,0.1754 -0.04136,0.041 -0.123153,-0.026 -0.175467,0 -0.07398,0.037 -0.101483,0.1385 -0.175466,0.1755 -0.05231,0.026 -0.134109,-0.041 -0.175467,0 -0.04136,0.041 0.04136,0.1341 0,0.1755 -0.08272,0.083 -0.268217,-0.083 -0.350933,0 -0.04136,0.041 0.04136,0.1341 0,0.1754 -0.04136,0.041 -0.123152,-0.026 -0.175466,0 -0.07398,0.037 -0.101484,0.1385 -0.175467,0.1755 -0.05231,0.026 -0.134108,-0.041 -0.175466,0 -0.04136,0.041 0.05231,0.1493 0,0.1755 -0.104628,0.052 -0.239958,-0.037 -0.350933,0 -0.547687,0.1825 0.05849,0.1169 -0.175467,0.3509 -0.08272,0.083 -0.246305,-0.052 -0.350933,0 -0.07398,0.037 -0.101483,0.1385 -0.175466,0.1755 -0.104628,0.052 -0.246305,-0.052 -0.350933,0 -0.147966,0.074 -0.202967,0.2769 -0.350933,0.3509 -0.05231,0.026 -0.123152,-0.026 -0.175466,0 -0.07398,0.037 -0.116978,0.117 -0.175467,0.1755 -0.05849,0.058 -0.116978,0.1169 -0.175466,0.1754 -0.116978,0.117 -0.202967,0.277 -0.350933,0.351 -1.779224,0.8896 0.262003,-0.5381 -1.228266,0.5264 -0.598331,0.4273 -1.466181,1.1152 -1.930131,1.5792 -0.614829,0.6148 -1.139836,1.3153 -1.754665,1.9301 -0.965508,0.9655 -1.979603,1.8813 -2.98293,2.8075 -2.89888,2.6759 -0.282857,0.2473 -2.98293,2.4565 -0.320092,0.2619 -0.54647,0.6292 -0.877332,0.8773 -0.104628,0.079 -0.242114,0.1029 -0.350933,0.1755 -0.06882,0.046 -0.101484,0.1385 -0.175467,0.1755 -0.05231,0.026 -0.134108,-0.041 -0.175466,0 -0.08272,0.083 0.05231,0.2463 0,0.3509 -0.03699,0.074 -0.138475,0.1015 -0.175467,0.1755 -0.04759,0.095 0.04801,0.6538 0,0.7018 -0.04136,0.041 -0.134108,-0.041 -0.175466,0 -0.08272,0.083 0.08272,0.2682 0,0.351 -0.04136,0.041 -0.134109,-0.041 -0.175467,0 -8.6e-4,8e-4 0.0014,0.5196 0,0.5264 -0.03627,0.1813 -0.09275,0.3609 -0.175466,0.5264 -0.05906,0.1181 -0.482628,0.6584 -0.5264,0.8773 -0.03441,0.172 0.04256,0.3562 0,0.5264 -0.02006,0.08 -0.129584,0.1066 -0.175466,0.1755 -0.07255,0.1088 -0.134109,0.2268 -0.175467,0.3509 -0.03487,0.1046 0,0.8828 0,1.0528 0,0.7019 0,1.4037 0,2.1056 0,0.083 0.008,0.8694 0,0.8773 -0.04136,0.041 -0.134108,-0.041 -0.175466,0 -0.05921,0.059 0.05921,0.2917 0,0.3509 -0.04136,0.041 -0.116978,0 -0.175467,0 -0.122044,0 -0.813877,-0.032 -0.877332,0 -0.09371,0.047 -0.434023,0.4341 -0.526399,0.5264 -0.05849,0.059 -0.116978,0.117 -0.175467,0.1755 -0.05849,0.059 -0.101483,0.1385 -0.175466,0.1755 -0.05231,0.026 -0.134109,-0.041 -0.175467,0 -0.04136,0.041 0.04136,0.1341 0,0.1754 -0.04136,0.041 -0.123152,-0.026 -0.175466,0 -0.07398,0.037 -0.106643,0.1296 -0.175467,0.1755 -0.108819,0.073 -0.233955,0.117 -0.350933,0.1755 -0.116977,0.059 -0.224053,0.1437 -0.350933,0.1754 -0.113485,0.028 -0.239958,-0.037 -0.350933,0 -0.07847,0.026 -0.106643,0.1296 -0.175466,0.1755 -0.217828,0.1452 -0.649054,0.2939 -0.877333,0.3509 -0.195137,0.049 -0.707963,-0.056 -0.877332,0 -1.089139,0.3631 0.583167,-0.014 -0.877332,0.351 -0.220194,0.055 -0.481673,-0.055 -0.701866,0 -0.175467,0.059 -0.350933,0.117 -0.5264,0.1754 -0.116977,0.117 -0.197333,0.2895 -0.350933,0.351 -0.46791,0.1871 -0.389925,-0.062 -0.701865,0 -0.236473,0.047 -0.476065,0.091 -0.701866,0.1754 -0.244916,0.092 -0.461446,0.2479 -0.701866,0.351 -0.569907,0.2442 -0.909497,0.2291 -1.579199,0.3509 -1.88812,0.3433 0.213044,-0.078 -1.930131,0.7019 -0.28028,0.1019 -0.597052,0.073 -0.877332,0.1754 -2.112014,1.0561 0.0061,0.126 -2.105598,0.7019 -0.303874,0.083 -0.582415,0.2403 -0.877332,0.3509 -0.173182,0.065 -0.350933,0.117 -0.5264,0.1755 -0.175466,0.058 -0.345033,0.1392 -0.5263992,0.1755 -0.2294121,0.046 -0.4679107,0 -0.701866,0 -0.1169776,0 -0.2399582,0.037 -0.3509329,0 -0.7738017,-0.258 -0.1852158,-0.019 -0.350933,-0.351 -0.036992,-0.074 -0.1169776,-0.1169 -0.1754664,-0.1754 -0.058489,-0.058 -0.1169777,-0.117 -0.1754665,-0.1755 -0.6011777,-0.6012 -0.152225,-0.078 -0.5263995,-0.7019 -0.2169983,-0.3616 -0.5132451,-0.6755 -0.7018659,-1.0528 -0.1992057,-0.3984 -0.3509329,-0.8188 -0.5263994,-1.2282 -0.1754665,-0.4094 -0.3855397,-0.8057 -0.5263994,-1.2283 -0.09431,-0.2829 -0.070749,-0.5981 -0.1754665,-0.8773 -0.6432936,-1.7155 -0.117811,0.5815 -0.5263994,-1.0528 -0.072333,-0.2893 -0.1264369,-0.5832 -0.1754665,-0.8773 -0.00962,-0.058 0.014186,-0.1188 0,-0.1755 -0.044859,-0.1795 -0.1391933,-0.345 -0.1754665,-0.5264 -0.045882,-0.2294 0.056742,-0.4749 0,-0.7019 -0.03172,-0.1269 -0.1437465,-0.224 -0.1754665,-0.3509 -0.028371,-0.1135 0,-0.234 0,-0.3509 0,-0.234 0,-0.468 0,-0.7019 0,-0.8189 0,-1.6377 0,-2.4565 0,-0.7604 0,-1.5208 0,-2.2811 0,-0.2925 0,-0.5849 0,-0.8773 0,-0.117 -0.036992,-0.24 0,-0.351 0.041358,-0.124 0.1341087,-0.2268 0.1754665,-0.3509 0.018496,-0.056 -0.026157,-0.1232 0,-0.1755 0.09431,-0.1886 0.2726124,-0.3306 0.350933,-0.5264 0.3509329,-0.8773 -0.1754665,0 0,-0.5264 0.1515485,-0.4546 0.1993844,-0.2472 0.3509329,-0.7018 0.036992,-0.111 -0.082716,-0.2683 0,-0.351 0.041358,-0.041 0.1341086,0.041 0.1754665,0 0.041358,-0.041 -0.041358,-0.1341 0,-0.1754 0.3630464,-0.3631 -0.014192,0.5547 0.3509329,-0.1755 0.026157,-0.052 -0.041358,-0.1341 0,-0.1755 0.041358,-0.041 0.1231525,0.026 0.1754665,0 0.073983,-0.037 0.1014833,-0.1384 0.1754665,-0.1754 0.052314,-0.026 0.1231525,0.026 0.1754665,0 0.073983,-0.037 0.1066428,-0.1296 0.1754665,-0.1755 0.2176393,-0.1451 0.4679106,-0.234 0.7018659,-0.3509 0.2339553,-0.117 0.4537188,-0.2683 0.7018659,-0.351 0.1109747,-0.037 0.2339553,0 0.3509329,0 0.2339553,0 0.4679106,0 0.7018659,0 0.058489,0 0.1231536,-0.026 0.1754665,0 0.1886229,0.094 0.3263306,0.4177 0.5263995,0.351 0.1664735,-0.056 -0.055488,-0.36 0,-0.5264 0.018495,-0.055 0.1231524,0.026 0.1754662,0 0.07398,-0.037 0.101484,-0.1385 0.175467,-0.1755 0.0522,-0.026 0.978986,0 1.052799,0 0.760354,0 1.520709,0 2.281064,0"
       id="path4186"
       inkscape:connector-curvature="0" />
    <path
       style="fill:#c87137;fill-rule:evenodd;stroke:#000000;stroke-width:1px;stroke-linecap:butt;stroke-linejoin:miter;stroke-opacity:1"
       d="m 25.267173,1039.5531 c -0.175467,0.234 -0.395615,0.4403 -0.5264,0.7019 -0.01443,0.029 0.01359,0.6339 0,0.7019 -0.03627,0.1813 -0.135343,0.3458 -0.175466,0.5264 -0.243992,1.0979 -0.305808,2.2309 -0.5264,3.3338 -0.04729,0.2365 -0.13582,0.464 -0.175466,0.7019 -0.03846,0.2308 0,0.4679 0,0.7019 0,0.058 0,0.117 0,0.1754 0,0.058 -0.04136,0.1341 0,0.1755 0.04244,0.042 0.737451,-0.047 0.877332,0 0.116978,0.059 0.233956,0.117 0.350933,0.1755 0.05849,0 0.119979,-0.018 0.175467,0 0.124073,0.041 0.224053,0.1437 0.350933,0.1754 0.113485,0.028 0.239958,-0.037 0.350933,0 0.07847,0.026 0.116977,0.117 0.175466,0.1755 0.116978,0.059 0.224053,0.1438 0.350933,0.1755 0.113485,0.028 0.233955,0 0.350933,0 0.116978,0.059 0.22686,0.1341 0.350933,0.1754 0.05549,0.018 0.116978,0 0.175467,0 0.175466,0 0.356171,-0.043 0.526399,0 0.08025,0.02 0.101483,0.1385 0.175466,0.1755 0.06395,0.032 0.77623,0 0.877333,0 0.643377,0 1.286754,0 1.930131,0 0.292444,0 0.584888,0 0.877332,0 0.116978,0 0.233956,0 0.350933,0 0.05849,0 0.11998,0.018 0.175467,0 1.270977,-0.4237 -0.276642,0.051 0.526399,-0.3509 0.05231,-0.026 0.134109,0.041 0.175467,0 0.08272,-0.083 -0.05231,-0.2463 0,-0.351 0.03699,-0.074 0.101483,-0.1384 0.175466,-0.1754 0.05231,-0.026 0.14931,0.052 0.175467,0 0.07847,-0.157 0,-0.351 0,-0.5264 0,-0.4679 0,-0.9358 0,-1.4038 0,-0.8188 0,-1.6376 0,-2.4565 0,-0.1762 0.03121,-1.1502 0,-1.2283 -0.07832,-0.1958 -0.284246,-0.3263 -0.350933,-0.5264 -0.05549,-0.1664 0.05549,-0.3599 0,-0.5264 -0.06669,-0.2 -0.256623,-0.3377 -0.350933,-0.5264 -0.285348,-0.5706 -0.0443,-0.4173 -0.350933,-0.8773 -0.04588,-0.069 -0.138475,-0.1015 -0.175467,-0.1755 -0.02616,-0.052 0.02616,-0.1231 0,-0.1754 -0.365124,-0.7303 0.01211,0.1876 -0.350933,-0.1755 -0.04136,-0.041 0.04136,-0.1341 0,-0.1755 -0.08773,-0.088 -0.438666,0.088 -0.526399,0 -0.04136,-0.041 0.04136,-0.1341 0,-0.1754 -0.0056,-0.01 -0.483844,0 -0.526399,0 -0.09176,0 -0.655729,0.023 -0.701866,0 -0.07398,-0.037 -0.101484,-0.1385 -0.175467,-0.1755 -0.104628,-0.052 -0.268217,0.083 -0.350933,0 -0.04136,-0.041 0.04136,-0.1341 0,-0.1755 -0.04136,-0.041 -0.116977,0 -0.175466,0 -0.350933,0 -0.701866,0 -1.052799,0 -0.07902,0 -0.472999,-0.027 -0.5264,0 -0.07398,0.037 -0.116977,0.117 -0.175466,0.1755 -0.05849,0.058 -0.138475,0.1015 -0.175466,0.1755 -0.02616,0.052 0.04136,0.1341 0,0.1754 -0.04136,0.041 -0.123153,-0.026 -0.175467,0 -0.730249,0.3652 0.18758,-0.012 -0.175466,0.351 -0.04136,0.041 -0.134109,-0.041 -0.175467,0 -0.05927,0.059 0.05927,0.2916 0,0.3509 -0.04136,0.041 -0.134109,-0.041 -0.175466,0 -0.08272,0.083 0.08272,0.2682 0,0.3509 -0.04136,0.041 -0.134109,-0.041 -0.175467,0 -0.04136,0.041 0.04136,0.1342 0,0.1755 -0.04136,0.041 -0.134108,-0.041 -0.175466,0 -0.04136,0.041 0.04136,0.1341 0,0.1755 -0.233956,0.2339 -0.175467,-0.2925 -0.175467,0.1754"
       id="path4188"
       inkscape:connector-curvature="0" />
    <path
       style="fill:none;fill-rule:evenodd;stroke:#000000;stroke-width:1px;stroke-linecap:butt;stroke-linejoin:miter;stroke-opacity:1"
       d="m 28.601036,1045.3435 c -0.292444,0 -0.584888,0 -0.877333,0 -0.05849,0 -0.134108,0.041 -0.175466,0 -0.08272,-0.083 0.05231,-0.2463 0,-0.3509 -0.03699,-0.074 -0.138475,-0.1015 -0.175466,-0.1755 -0.04737,-0.095 0.04737,-0.2561 0,-0.3509 -0.03699,-0.074 -0.138475,-0.1015 -0.175467,-0.1755 -0.02616,-0.052 0.04136,-0.1341 0,-0.1754 -0.04136,-0.041 -0.134109,0.041 -0.175466,0 -0.08773,-0.088 0.08773,-0.4387 0,-0.5264 -0.04136,-0.041 -0.134109,0.041 -0.175467,0 -0.04222,-0.042 0.04222,-0.6597 0,-0.7019 -0.04136,-0.041 -0.134109,0.041 -0.175466,0 -0.08272,-0.083 0.08272,-0.2682 0,-0.3509 -0.04136,-0.041 -0.134109,0.041 -0.175467,0 -0.04136,-0.041 0,-0.117 0,-0.1755 0,-0.079 -0.0267,-0.473 0,-0.5264 0.03699,-0.074 0.116978,-0.2339 0.175467,-0.1755 0.05849,0.059 -0.258183,0.1755 -0.175467,0.1755 0.130785,0 0.22686,-0.1341 0.350933,-0.1755 0.05549,-0.018 0.123153,0.026 0.175467,0 0.07398,-0.037 0.101483,-0.1384 0.175466,-0.1754 0.0534,-0.027 0.447377,0 0.526399,0 0.409422,0 0.818844,0 1.228266,0 0.46791,0 0.935821,0 1.403732,0 0.175466,0 0.369457,-0.079 0.526399,0 0.05231,0.026 -0.04136,0.1341 0,0.1754 0.04136,0.041 0.116978,0 0.175467,0 0,0.059 -0.04136,0.1342 0,0.1755 0.08272,0.083 0.268217,-0.083 0.350933,0 0.08272,0.083 -0.08272,0.2682 0,0.3509 0.04136,0.041 0.134108,-0.041 0.175466,0 0.04136,0.041 -0.04136,0.1342 0,0.1755 0.04136,0.041 0.134109,-0.041 0.175466,0 0.04136,0.041 -0.02616,0.1232 0,0.1755 0.03699,0.074 0.138475,0.1015 0.175467,0.1754 0.02616,0.052 -0.02616,0.1232 0,0.1755 0.03699,0.074 0.138475,0.1015 0.175466,0.1755 0.05231,0.1046 -0.08272,0.2682 0,0.3509 0.04136,0.041 0.134109,-0.041 0.175467,0 0.04136,0.041 0,0.117 0,0.1755 0,0.2924 0,0.5849 0,0.8773 0,0.043 0.0056,0.5208 0,0.5264 -0.04136,0.041 -0.123153,-0.026 -0.175467,0 -0.07398,0.037 -0.101483,0.1385 -0.175466,0.1755 -0.104628,0.052 -0.268217,-0.083 -0.350933,0 -0.04136,0.041 0.04136,0.1341 0,0.1754 -0.03587,0.036 -0.456828,-0.035 -0.526399,0 -0.73025,0.3652 0.187579,-0.012 -0.175467,0.351 -0.04136,0.041 -0.116978,0 -0.175466,0 -0.05849,0 -0.116978,0 -0.175467,0 -0.292444,0 -0.584888,0 -0.877332,0 -0.116978,0 -0.242322,0.043 -0.350933,0 -0.233956,-0.117 -0.467911,-0.234 -0.701866,-0.351 -0.175467,0 -0.359937,0.055 -0.5264,0 -0.05549,-0.018 0.04136,-0.1341 0,-0.1754 -0.04136,-0.041 -0.116977,0 -0.175466,0 -0.05849,0 -0.116978,0 -0.175467,0"
       id="path4190"
       inkscape:connector-curvature="0" />
    <path
       style="fill:none;fill-rule:evenodd;stroke:#000000;stroke-width:1px;stroke-linecap:butt;stroke-linejoin:miter;stroke-opacity:1"
       d="m 29.302902,1045.3435 c -0.05849,-0.2339 -0.128172,-0.4654 -0.175467,-0.7018 -0.03752,-0.1876 0,-0.6611 0,-0.8774 0,-0.5264 0,-1.0528 0,-1.5792 0,-0.043 0.0056,-0.5207 0,-0.5264 -0.04136,-0.041 -0.116977,0 -0.175466,0"
       id="path4192"
       inkscape:connector-curvature="0" />
    <path
       style="fill:none;fill-rule:evenodd;stroke:#000000;stroke-width:1px;stroke-linecap:butt;stroke-linejoin:miter;stroke-opacity:1"
       d="m 26.670905,1043.4134 c 1.403731,0 2.807463,0 4.211195,0 0.292444,0 0.584888,0 0.877332,0 0.05849,0 0.134109,-0.041 0.175467,0 0.233955,0.234 -0.292444,0.1755 0.175466,0.1755"
       id="path4194"
       inkscape:connector-curvature="0" />
    <path
       style="fill:none;fill-rule:evenodd;stroke:#000000;stroke-width:1px;stroke-linecap:butt;stroke-linejoin:miter;stroke-opacity:1"
       d="m 4.9130614,1025.1649 c 0,-0.4679 0,-0.9358 0,-1.4037 0,-0.058 0,-0.117 0,-0.1755 0,-0.058 0.026157,-0.1232 0,-0.1755 -0.036992,-0.074 -0.1384749,-0.1015 -0.1754665,-0.1754 -0.034786,-0.07 0.035872,-0.4906 0,-0.5264 -0.041358,-0.041 -0.1341086,0.041 -0.1754665,0 -0.082716,-0.083 0.052314,-0.2463 0,-0.351 -0.1052799,-0.2105 -0.4211195,-0.3158 -0.5263994,-0.5264 -0.026157,-0.052 0.041358,-0.1341 0,-0.1754 -0.041358,-0.041 -0.1341086,0.041 -0.1754665,0 -0.041358,-0.041 0.041358,-0.1341 0,-0.1755 -0.041358,-0.041 -0.1341086,0.041 -0.1754665,0 -0.082716,-0.083 0.082716,-0.2682 0,-0.3509 -0.041358,-0.041 -0.1341086,0.041 -0.1754664,0 -0.041358,-0.041 0.041358,-0.1341 0,-0.1755 -0.041358,-0.041 -0.1341087,0.041 -0.1754665,0 -0.041358,-0.041 0.041358,-0.1341 0,-0.1755 -0.3630464,-0.363 0.014192,0.5548 -0.350933,-0.1754 -0.026157,-0.052 0.041358,-0.1341 0,-0.1755 -0.041358,-0.041 -0.1169776,0 -0.1754665,0 0,-0.058 0.041358,-0.1341 0,-0.1755 -0.041358,-0.041 -0.1169776,0 -0.1754664,0 -0.082732,0 -0.86938,-0.01 -0.8773324,0 -0.057911,0.058 0.057911,0.2931 0,0.351 -0.041358,0.041 -0.1341087,-0.041 -0.1754665,0 -0.041358,0.041 0.041358,0.1341 0,0.1754 -0.041358,0.041 -0.1341086,-0.041 -0.1754665,0 -0.041358,0.041 0,0.117 0,0.1755 0,0.2924 0,0.5849 0,0.8773 0,0.058 0,0.117 0,0.1755 0,0.059 0.058489,0.1755 0,0.1755 -0.058489,0 0,-0.117 0,-0.1755"
       id="path4196"
       inkscape:connector-curvature="0" />
    <path
       style="fill:#ff0000;fill-opacity:1;stroke:none;stroke-opacity:1"
       id="path4200"
       d="m 0.91872302,1024.3827 c -0.0353721,-0.026 -0.38008511,-0.7849 -0.35130114,-0.4699 1.46132832,-0.8659 1.10994122,-0.9512 1.09739682,0.018 -0.00177,0.3532 4.445e-4,0.7064 0.00147,1.0596 2.288e-4,0.096 -0.00659,0.2272 0.018634,0.3239 0.00801,0.031 0.015773,0.068 0.042299,0.085 0.034073,0.022 0.1629347,-0.1474 0.1212818,-0.1273 -0.3666267,0.1772 -0.7140055,0.3917 -1.07100821,0.5875 0.24499351,-0.3405 0.30000041,-0.7639 0.34132851,-1.1707 0.030238,-0.3325 0.070833,-0.674 -0.20501631,-0.9081 0.12441991,-0.2026 -0.39987275,0.1123 -0.31278227,0.066 0.36965081,-0.1978 0.72421368,-0.4238 1.09940118,-0.6109 0.036614,-0.018 -0.052833,0.063 -0.072647,0.099 -0.022173,0.04 -0.03493,0.085 -0.052395,0.127 -0.084062,0.3101 -0.087833,0.6353 -0.085753,0.9547 0.040339,0.4901 0.035258,0.2191 -1.23397617,0.5514 -0.0562568,0.015 0.0027,-0.1162 0.003612,-0.1744 0.003398,-0.2165 0.004718,-0.433 0.005708,-0.6495 -2.0969e-4,-0.8042 -0.16017158,-0.6593 1.23051457,-1.0071 0.064191,-0.016 0.00516,0.1324 0.0128,0.1981 0.010893,0.094 0.028491,0.1866 0.042736,0.2799 0.1297247,0.6258 0.1733599,1.2644 0.2713952,1.8946 0.01456,0.081 0.029179,0.1612 0.043679,0.2418 0.022882,0.1272 0.037578,0.2398 0.074792,0.3616 0.00592,0.019 0.042708,0.047 0.024495,0.056 -1.26863579,0.6172 -1.26505017,0.9475 -1.18935003,0.3623 0.0266661,-0.3878 0.0201358,-0.7769 0.0180029,-1.1654 0.005943,-1.0718 -0.2608718,-0.5596 1.23279003,-1.2664 -0.029983,0.2667 0.014271,0.5226 0.066377,0.7827 0.1004234,0.4056 0.3896785,0.1244 -1.17061144,0.6605 -0.0567441,0.019 0.0156801,-0.1191 0.0204074,-0.1789 0.0134395,-0.17 0.0158763,-0.3449 0.0205339,-0.5152 0.0268338,-0.445 0.004363,-0.8813 -0.0721341,-1.3194 -0.0317059,-0.2739 -0.13044765,-0.5286 -0.30475417,-0.742 -0.0294996,-0.022 -0.0534972,-0.055 -0.0884987,-0.066 -0.0245461,-0.01 -0.0510277,0.01 -0.0765415,0.012 0.3784576,-0.1986 0.75096581,-0.409 1.13537281,-0.5959 0.020545,-0.01 -0.089691,0.094 -0.1620058,0.2422 -0.1067914,0.198 -0.084858,0.445 -0.064951,0.6613 0.062612,0.3552 0.1118925,0.7116 0.1389345,1.0712 0,0 -1.22499716,0.6352 -1.22499716,0.6352 l 0,0 c -0.0238854,-0.3582 -0.068125,-0.7138 -0.13613415,-1.0664 -0.03106855,-0.2388 -0.0544316,-0.4995 0.013952,-0.7338 0.0381571,-0.058 0.0987966,-0.274 0.14141546,-0.3006 0.74196285,-0.4632 1.01536845,-1.0212 1.51432885,-0.5699 0.1814752,0.2359 0.3011987,0.507 0.3328171,0.8054 0.075965,0.4482 0.101668,0.8934 0.072908,1.3485 -6.06e-4,0.044 -0.00987,0.7012 -0.011095,0.7022 -0.6738784,0.525 -1.1590858,1.2491 -1.29905206,0.6023 -0.0542656,-0.2664 -0.10935676,-0.5277 -0.0916548,-0.8017 1.55393276,-0.8541 1.20862516,-1.0253 1.24016406,0.01 0.00135,0.3918 0.00475,0.7837 -0.00903,1.1753 -0.034205,0.6475 0.034339,0.2367 -1.26628249,0.9304 -0.0238446,0.013 -0.0183841,-0.051 -0.0245416,-0.077 -0.0194195,-0.083 -0.0548592,-0.3091 -0.0656702,-0.3731 -0.0138485,-0.082 -0.028094,-0.1639 -0.042141,-0.2459 -0.0961333,-0.6296 -0.12220359,-1.2701 -0.26827125,-1.8927 -0.0282077,-0.1397 -0.10036325,-0.478 -0.0864907,-0.489 1.49324044,-1.1814 1.21582674,-1.06 1.22889434,-0.2459 2.861e-4,1.1331 0.2536269,0.7332 -1.23796441,1.5829 -0.0173319,0.01 0.002959,-0.04 0.004438,-0.06 0.00825,-0.332 0.001814,-0.6672 0.0678952,-0.9943 0.18326646,-0.6802 0.37874271,-0.4931 1.36628921,-1.0655 0.1288015,-0.075 0.2929849,0.01 0.4026935,0.069 0.2864393,0.2859 0.3050996,0.6342 0.2595368,1.0226 -0.038442,0.4288 -0.099398,0.8611 -0.2983576,1.2492 -0.5979413,0.3815 -1.63280489,1.4961 -1.61559355,0.2918 -8.9191e-4,-0.3535 -0.002627,-0.7069 -0.003223,-1.0604 0.002663,-1.0317 -0.11359161,-0.6859 1.22283415,-1.5207 0.2436486,0.133 0.2922663,0.4293 0.4571183,0.6375 0,0 -1.19501766,0.7092 -1.19501766,0.7092 z"
       inkscape:connector-curvature="0" />
    <path
       style="fill:#ffff00;fill-opacity:1;stroke:none;stroke-opacity:1"
       id="path4202"
       d="m 1.6151868,1022.9671 c -0.00573,0.4008 -0.00413,0.8017 -0.00371,1.2025 5.09e-4,0.3727 8.022e-4,0.7454 9.591e-4,1.118 1.178e-4,0.3516 1.158e-4,0.7031 1.186e-4,1.0546 -6e-7,0.2337 0,0.1168 -1.8e-6,0.3505 0,0 -0.76857307,0.3916 -0.76857307,0.3916 l 0,0 c -1.81e-6,-0.2337 -1.2e-6,-0.1168 -1.84e-6,-0.3505 2.78e-6,-0.3515 8e-7,-0.7031 1.1864e-4,-1.0547 1.5696e-4,-0.373 4.5027e-4,-0.746 9.5903e-4,-1.119 4.2164e-4,-0.3996 0.002041,-0.7992 -0.003711,-1.1987 0,0 0.77384294,-0.3943 0.77384294,-0.3943 z"
       inkscape:connector-curvature="0" />
    <path
       style="fill:#ffff00;fill-opacity:1;stroke:none;stroke-opacity:1"
       id="path4204"
       d="m -0.33583186,1024.7264 c 0.20250606,-0.3092 0.36338533,-0.6433 0.5835891,-0.9412 0.1752391,-0.2511 0.38751658,-0.4631 0.62965015,-0.6478 0.38456731,-0.2213 0.89763691,-0.9815 1.30598821,-0.6231 0.1441925,0.3435 0.1241564,0.7397 0.1317702,1.1071 0.00298,0.4269 0.00129,0.8539 4.501e-4,1.2809 0.015509,0.2858 0.1202496,0.5525 0.2603361,0.799 0.064753,0.1134 0.1149551,0.2314 0.1813025,0.3438 0,0 -0.7501416,0.4339 -0.7501416,0.4339 l 0,0 c -0.066179,-0.1132 -0.1177108,-0.2309 -0.1819306,-0.3451 -0.1462902,-0.2602 -0.2578087,-0.5404 -0.2766697,-0.841 0.00206,-0.4266 0.00604,-0.8531 0.00112,-1.2797 -0.00576,-0.3418 0.00966,-0.7057 -0.101836,-1.032 -0.2222224,-0.1035 -1.0041584,0.4961 0.5445635,-0.3938 0.3338444,-0.1918 -0.619115,0.441 -0.3108575,0.2282 -0.2356491,0.1899 -0.4746885,0.3685 -0.6416174,0.6299 -0.23334523,0.2858 -0.39234906,0.6203 -0.57811816,0.9372 0,0 -0.7975966,0.3437 -0.7975966,0.3437 z"
       inkscape:connector-curvature="0" />
    <path
       style="fill:#454837;fill-opacity:1;stroke:none;stroke-opacity:1"
       id="path4208"
       d="m 41.993968,1008.1417 c -0.427929,-0.1984 -0.843131,-0.4169 -1.245416,-0.664 -0.444926,-0.2754 -0.831035,-0.6267 -1.18939,-1.0051 -0.33671,-0.3992 -0.554394,-0.868 -0.689029,-1.3687 -0.06653,-0.4417 -0.218295,-0.8615 -0.32976,-1.2917 -0.113787,-0.5095 -0.206018,-1.021 -0.264381,-1.5399 -0.04409,-0.4199 -0.05419,-0.8421 -0.05871,-1.2639 -0.01551,-0.2821 0.01584,-0.5406 0.27982,-0.6921 0.311782,-0.1788 0.629615,-0.34693 0.944422,-0.52041 0.382682,-0.13547 1.03864,-0.48191 1.435374,-0.24237 0.194038,0.4037 -0.692941,0.71198 -1.20107,0.98528 -0.322718,0.1479 -0.663952,0.2706 -1.022305,0.2621 -0.3476,-0.094 -0.443069,-0.4711 -0.522931,-0.7816 -0.07763,-0.36588 -0.08492,-0.74102 -0.0904,-1.11351 -0.02258,-0.42297 0.125099,-0.81994 0.275709,-1.20737 0.270454,-0.62636 0.6249,-1.20691 1.102949,-1.69424 0.726889,-0.61604 1.416828,-0.85004 2.310472,-0.91525 0.84952,-0.0585 1.693574,0.0737 2.530116,0.20546 1.145301,0.10635 2.245036,0.40836 3.339117,0.748 1.037059,0.32447 1.947789,0.66197 2.83219,1.30239 0.614641,0.51464 1.153609,1.11672 1.574819,1.79887 0.217973,0.38781 0.321069,0.81317 0.302793,1.25545 -0.05872,0.3689 -0.234635,0.6966 -0.425401,1.0117 -0.195764,0.2312 -0.329412,0.5019 -0.48333,0.7602 -0.160441,0.3032 -0.426153,0.5255 -0.655504,0.7739 -0.394869,0.3972 -0.797606,0.786 -1.17747,1.1979 -0.233803,0.2369 -0.452718,0.4879 -0.699701,0.7114 -0.719514,0.5723 -1.546517,0.798 -2.415564,0.9919 -0.793894,0.1578 -1.593752,0.28 -2.38747,0.438 -0.506226,0.1335 -1.013299,0.2587 -1.533331,0.3231 -0.366983,0.047 -0.728384,0.051 -1.080143,-0.072 -0.335456,-0.2245 -0.584748,-0.552 -0.82573,-0.8707 -0.03688,-0.042 -0.07488,-0.084 -0.110652,-0.1266 -0.04288,-0.052 -0.11937,-0.1626 -0.178181,-0.2099 -0.01576,-0.013 -0.0729,-0.015 -0.0554,-0.025 0.80832,-0.468 0.865852,-0.5845 0.685579,-0.2982 -0.01114,0.082 -0.0099,0.1887 0.08665,0.2214 0.05043,0.017 0.200062,-0.071 0.152795,-0.047 -0.217489,0.1128 -0.43433,0.2269 -0.651495,0.3403 0.399073,-0.3673 0.394862,-0.9061 0.435775,-1.4114 0.05833,-1.1227 0.05555,-2.2474 0.05083,-3.3712 -0.05087,-0.37 0.08529,-0.81056 -0.07766,-1.16561 -0.05539,-0.12068 -0.117713,-0.13987 -0.222053,-0.20686 -0.183551,-0.0519 -0.358099,-0.008 -0.53075,0.0631 -0.07064,0.029 -0.270972,0.14051 -0.205745,0.10079 0.172363,-0.10495 0.347765,-0.20536 0.527658,-0.2968 0.07937,-0.0403 -0.15033,0.0955 -0.225495,0.1432 -0.510526,0.34847 -0.91955,0.80342 -1.290274,1.29262 -0.32254,0.4137 -0.610925,0.8896 -0.605004,1.4288 0.111292,0.3882 0.604169,0.3399 0.931788,0.3586 0.78554,0.022 1.5716,0.012 2.357332,0.01 0.634372,0.01 1.274334,0.017 1.878319,-0.1976 -0.182537,0.099 -0.351972,0.227 -0.547611,0.2962 -0.07471,0.026 0.118623,-0.1055 0.172633,-0.1635 0.239062,-0.2567 0.371841,-0.5554 0.485607,-0.8821 0.23284,-0.8099 -0.01442,-1.0445 -0.708225,-1.454 -1.216899,-0.49683 -2.552445,-0.54184 -3.848872,-0.60178 -0.556339,0.0163 -1.130436,0.0287 -1.658216,0.23115 -0.128604,0.0493 -0.499811,0.22728 -0.367528,0.18889 0.405871,-0.11779 0.634525,-0.41042 0.249573,-0.003 -0.321151,0.47544 -0.354519,0.75294 0.08037,1.14904 0.641494,0.4082 1.304327,0.7763 1.940796,1.1947 0.809467,0.4632 1.553054,1.0262 2.287848,1.5974 0.542926,0.4241 1.075695,0.8741 1.669487,1.2268 0.05357,0.012 0.105995,0.04 0.160706,0.036 0.04272,-0 0.153399,-0.077 0.114334,-0.059 -0.215851,0.097 -0.411125,0.26 -0.644821,0.2985 -0.07132,0.012 0.05482,-0.1343 0.07282,-0.2043 0.07138,-0.2776 0.04669,-0.3186 0.04053,-0.6279 -0.14233,-1.0409 -0.499643,-2.0205 -0.947932,-2.9639 -0.347088,-0.7754 -0.84357,-1.4571 -1.373623,-2.11382 -0.131315,-0.14577 -0.271479,-0.30056 -0.457785,-0.37767 -0.16659,-0.0689 -0.259882,0.002 -0.248099,-0.005 0.206568,-0.12474 0.426505,-0.22586 0.639757,-0.3388 -0.387412,0.38088 -0.398794,0.99832 -0.442648,1.50709 -0.05772,0.8506 0.0111,1.7043 0.129877,2.5467 0.07891,0.5632 0.128652,1.1286 0.250342,1.6848 0.260504,0.299 -0.775817,0.8331 -0.678484,0.395 0,0 0.779556,-0.3842 0.779556,-0.3842 l 0,0 c -0.02404,0.3895 -0.824561,0.9028 -0.859731,0.3955 -0.110158,-0.5618 -0.170112,-1.1288 -0.240417,-1.6966 -0.113914,-0.8485 -0.182039,-1.707 -0.137116,-2.5634 0.03695,-0.5273 0.04878,-1.13643 0.392836,-1.56782 0.913894,-0.52296 0.953836,-0.76235 1.604682,-0.0327 0.52255,0.66964 1.013191,1.36266 1.363187,2.14186 0.454916,0.9514 0.81066,1.9405 0.978096,2.9862 0.0071,0.1204 0.04654,0.7643 -0.07485,0.8737 -0.425615,0.3837 -0.672158,0.7096 -1.141587,0.5354 -0.585495,-0.3672 -1.115561,-0.8191 -1.657982,-1.2454 -0.734256,-0.5695 -1.477758,-1.1293 -2.287051,-1.5899 -0.642662,-0.4204 -1.31685,-0.7821 -1.960325,-1.1989 -0.06666,-0.062 -0.142362,-0.1155 -0.19998,-0.186 -0.274054,-0.3352 -0.158884,-0.7615 0.0611,-1.0827 0.431384,-0.49844 0.195966,-0.27094 1.195116,-0.85311 0.61224,-0.35673 1.347031,-0.35863 2.032489,-0.37277 1.310371,0.066 2.660676,0.11458 3.888342,0.62383 0.71563,0.42725 1.005197,0.69975 0.778801,1.54665 -0.317507,0.9714 -0.595263,1.1202 -1.562735,1.6387 -0.611115,0.1876 -1.248835,0.1739 -1.882897,0.1676 -0.790099,0 -1.580527,0.014 -2.370447,-0.01 -0.388575,-0.026 -0.880696,-0.012 -1.004056,-0.4639 -0.0186,-0.5548 0.255263,-1.0583 0.590535,-1.4851 0.368738,-0.4945 0.768915,-0.9585 1.274801,-1.31888 0.487833,-0.31827 1.306239,-0.99911 1.95919,-0.78446 0.119304,0.0896 0.185684,0.11638 0.250262,0.261 0.163608,0.36638 0.02524,0.81376 0.06861,1.19474 -0.0075,1.1256 -0.01202,2.2516 -0.04955,3.3768 -0.02724,0.5078 -5.99e-4,1.0687 -0.38342,1.4562 -0.239834,0.1491 -1.124277,0.9894 -1.176403,0.184 0.21518,-1.2367 0.921893,-0.5141 1.186954,-0.1492 0.229336,0.3054 0.465757,0.6275 0.799195,0.8251 0.346104,0.1032 0.699301,0.09 1.055021,0.043 0.514924,-0.069 1.016989,-0.1972 1.521092,-0.3208 0.792269,-0.1527 1.590408,-0.2716 2.380537,-0.4362 0.353703,-0.084 0.703303,-0.1733 1.048719,-0.2873 0.08495,-0.028 0.32061,-0.1479 0.253061,-0.089 -0.154577,0.1342 -0.348253,0.2153 -0.522274,0.3231 -0.05494,0.034 0.110028,-0.068 0.165043,-0.1018 0.252229,-0.2206 0.473101,-0.4698 0.710349,-0.7061 0.375453,-0.4148 0.780198,-0.8012 1.175937,-1.1965 0.219717,-0.2515 0.492653,-0.463 0.656323,-0.7581 0.164921,-0.251 0.272313,-0.5401 0.48482,-0.7595 0.18685,-0.3074 0.371784,-0.617 0.446256,-0.9748 0.02963,-0.4253 -0.06847,-0.83773 -0.270998,-1.21408 -0.406693,-0.67743 -0.936474,-1.27299 -1.543986,-1.77799 -0.850699,-0.60561 -1.812767,-0.98013 -2.807995,-1.28621 -1.094047,-0.33713 -2.196008,-0.62269 -3.339342,-0.73303 -0.838707,-0.12683 -1.684687,-0.25036 -2.534974,-0.17761 -0.272968,0.0244 -0.543954,0.0496 -0.80848,0.12684 -0.08763,0.0256 -0.323517,0.15523 -0.258128,0.0915 0.132878,-0.12946 0.310417,-0.20347 0.470047,-0.29799 0.08301,-0.0492 -0.15998,0.10784 -0.23997,0.16176 -0.488493,0.46884 -0.845674,1.04015 -1.115232,1.66065 -0.147354,0.37566 -0.297449,0.76373 -0.282726,1.17403 0.0041,0.36633 0.0084,0.73529 0.08048,1.09592 0.06717,0.27082 0.142028,0.63168 0.46402,0.68268 0.352206,-0.017 0.681497,-0.1427 1.000858,-0.2857 -1.470282,0.9149 -0.173653,0.1926 -0.203589,0.023 -0.4057,-0.17368 -1.007931,0.1645 -1.379398,0.3008 0.177187,-0.1085 0.357792,-0.2115 0.53156,-0.3253 0.04731,-0.031 -0.104638,0.045 -0.151521,0.076 -0.176038,0.1187 -0.170405,0.348 -0.165541,0.535 0.0027,0.4201 0.0092,0.8406 0.04915,1.2592 0.05412,0.5154 0.146806,1.022 0.261826,1.5271 0.111094,0.4305 0.264573,0.8502 0.326742,1.2928 0.126978,0.4879 0.338222,0.9453 0.668735,1.3311 0.353312,0.3729 0.734636,0.7185 1.175006,0.9873 0.405699,0.245 0.825502,0.4586 1.255727,0.6566 0,0 -0.727951,0.471 -0.727951,0.471 z"
       inkscape:connector-curvature="0" />
    <path
       style="fill:#454837;fill-opacity:1;stroke:none;stroke-opacity:1"
       id="path4210"
       d="m 37.514769,1005.0153 c 0.07821,-0.6467 -0.0018,-1.3023 -0.06505,-1.9472 -0.08325,-0.7066 -0.162781,-1.4128 -0.217901,-2.1223 -0.03727,-0.4522 -0.03374,-0.9062 -0.03993,-1.35957 -0.0307,-2.85675 -1.745033,0.21143 6.003078,-3.57878 -0.06049,0.57299 0.04169,1.14204 0.152112,1.70241 0.200811,0.83229 0.472953,1.64287 0.786712,2.43854 0.22965,0.5557 0.426508,1.124 0.65707,1.6799 0.183912,0.3964 0.238352,0.827 0.319282,1.2506 0.04462,0.1876 0.05647,0.3816 0.112912,0.5665 0.0075,0.024 0.04033,0.094 0.02969,0.071 -0.03951,-0.087 -0.03118,-0.3043 -0.116329,-0.2614 -2.010676,1.0146 -3.931929,2.1974 -5.897893,3.2961 0.104068,-0.4275 0.07485,-0.8783 0.06893,-1.3154 -0.01704,-0.4444 -0.0046,-0.8885 0.0078,-1.3328 0.009,-0.5058 -7.97e-4,-1.0115 -0.01143,-1.5172 -0.0084,-0.3776 -0.01147,-0.7552 -0.01306,-1.1329 0.03957,-0.4897 -0.118163,-0.9468 -0.274562,-1.4035 -0.214908,-0.44202 -0.371731,-0.98503 -0.761949,-1.3113 -0.209481,-0.0858 -0.419485,-0.29562 -0.645068,-0.14412 -0.68139,2.23032 -0.08806,0.18351 5.680749,-3.15571 0.03282,-0.019 -0.07797,0.0126 -0.108041,0.0357 -0.110573,0.085 -0.12626,0.27713 -0.14947,0.39935 -0.0315,0.31275 -0.06015,0.63183 -0.0073,0.94337 0.04389,0.20281 0.08648,0.45352 0.287227,0.55458 0.236667,0.22405 0.503417,0.41544 0.779192,0.58914 0.345584,0.21003 0.664139,0.45611 0.974722,0.7161 0.368847,0.28451 0.727056,0.58608 1.113576,0.84705 0.287873,0.21349 0.625505,0.37166 0.972889,0.4611 0.350207,0.0139 0.677521,0.11637 1.02049,0.17527 0.390792,0.01 0.762373,0.1093 1.14621,0.1692 0.341366,0.012 0.73684,0.1336 1.058875,-0.01 1.320822,-1.92114 0.186708,-0.2346 -5.619243,3.1423 -0.03203,0.019 0.0758,0 0.110728,-0.01 0.129555,-0.046 0.141782,-0.1411 0.157974,-0.259 0.0095,-0.3943 -0.127422,-0.7714 -0.203748,-1.1546 -0.06847,-0.3653 -0.08383,-0.7369 -0.09274,-1.1075 -0.04554,-0.2396 0.08904,-0.5767 -0.07,-0.7838 -0.07414,-0.17304 -0.186865,-0.15253 -0.327947,-0.20866 -0.08559,-0.034 -0.16142,-0.0899 -0.246999,-0.12394 -0.204103,-0.18027 -0.463112,-0.30547 -0.670085,-0.4715 -0.228684,-0.17047 -0.32451,-0.25863 -0.613247,-0.27694 -0.354495,-0.0108 -0.70902,-0.0112 -1.06364,-0.008 -0.36254,0.004 -0.725093,0.006 -1.087652,0.007 -0.230687,-0.0256 -0.474415,0.0352 -0.703878,8.3e-4 -0.1186,-0.0177 -0.230445,-0.0665 -0.345997,-0.0986 -0.296075,-0.0715 -0.602361,-0.0728 -0.905142,-0.0777 -0.34272,-0.003 -0.685462,-0.001 -1.028189,-6e-4 -0.05844,1.2e-4 -0.116877,2.5e-4 -0.175315,3.6e-4 -0.123441,2.3e-4 -0.206651,-0.0242 -0.308398,0.0619 -0.03675,0.0311 -0.123112,0.14306 -0.08114,0.11949 5.897323,-3.31233 7.862469,-3.55 5.584818,-3.25806 -0.235631,0.17133 -0.204208,0.52783 -0.221831,0.79003 -0.01055,0.33966 0.131154,0.64861 0.242109,0.96133 0.162063,0.40509 0.326394,0.81058 0.511231,1.20583 0.186615,0.37659 0.368278,0.75497 0.561912,1.12778 0.124433,0.29459 0.324861,0.52749 0.538284,0.75999 0.210518,0.2817 0.48711,0.501 0.717129,0.7645 0.228922,0.1794 0.385616,0.434 0.605728,0.6206 0.225881,0.2254 0.382263,0.5089 0.60823,0.7329 0.191035,0.2204 0.314045,0.4853 0.468439,0.7292 0.09761,0.242 0.233673,0.2167 0.460801,0.216 0.317041,0 0.634063,-0 0.951086,-0.01 0.351776,-0 0.703566,-0 1.055355,-0 0.07297,-0.073 0.188954,-0.055 0.269637,-0.1082 0.03819,-0.025 0.0553,-0.074 0.09018,-0.1038 0.0331,-0.028 0.149152,-0.09 0.111363,-0.068 -5.758301,3.2844 -7.649273,4.1434 -5.521809,3.1709 1.990138,-1.4759 -0.819233,0.5993 6.049027,-3.5165 1.856568,-1.1126 -3.748213,2.1654 -5.625465,3.2427 -0.04519,0.026 0.08363,-0.063 0.128845,-0.089 1.971661,-1.1289 3.913834,-2.3118 5.921315,-3.3757 1.92151,-1.0184 -3.775516,2.1593 -5.663274,3.239 12.46751,-7.17401 3.369776,-1.9475 0.238192,-0.1128 -0.03319,0.019 0.07905,-0.01 0.111348,-0.03 0.07932,-0.051 0.198968,-0.201 0.248113,-0.2801 0.231146,-0.1509 0.307313,-0.3823 0.413145,-0.6246 0.137751,-0.2605 0.286876,-0.5268 0.37424,-0.8091 0.140901,-0.2511 0.269878,-0.5105 0.373482,-0.7799 0.06,-0.2907 0.191158,-0.5546 0.250465,-0.8463 0.05174,-0.3264 0.05295,-0.658 0.05625,-0.9877 -0.03775,-0.2389 0.09175,-0.5742 -0.06743,-0.7801 -0.06738,-0.1461 -0.135431,-0.1142 -0.258045,-0.1724 -0.14364,-0.068 -0.24486,-0.1377 -0.401177,-0.1792 -0.315873,-0.063 -0.517022,-0.2812 -0.841819,-0.3521 -0.31821,-0.055 -0.640502,0 -0.949556,-0.091 -0.289675,-0.0956 -0.594644,-0.10423 -0.896531,-0.11212 -0.362626,-0.003 -0.725203,-0.009 -1.087847,-0.008 -0.378818,0.0576 -0.647464,-0.22982 -0.993628,-0.31393 -0.290221,-0.0408 -0.584824,-0.0345 -0.87724,-0.0348 -0.373572,0.022 -0.754036,-0.049 -1.118007,0.0439 -1.866833,0.4357 -9.149192,5.0466 4.779323,-2.88857 -0.292784,0.11649 -0.511546,0.3505 -0.647041,0.62962 -0.157247,0.46214 -0.154763,0.96141 -0.178836,1.44407 -0.05517,0.63084 0.03006,1.25138 0.123896,1.87288 0.06348,0.3406 0.125599,0.2668 0.404627,0.2447 0,0 -5.539662,3.8469 -5.539662,3.8469 l 0,0 c -0.43909,-0.1795 -0.72569,-0.508 -0.787167,-0.9902 -0.04937,-0.6579 -0.102839,-1.3152 -0.09387,-1.9758 -0.02137,-0.5187 -0.06189,-1.0421 -0.0096,-1.5598 0.06561,-0.39588 0.187468,-0.74649 0.446137,-1.06016 1.839985,-1.05506 4.309807,-3.36697 6.884986,-3.55731 0.397881,0.0129 0.79604,-0.014 1.193897,0.0105 0.34479,0.0213 0.691695,0.0556 1.01207,0.19542 0.355915,0.15988 0.427644,0.17817 0.828355,0.14992 0.378948,0.002 0.758715,-0.007 1.136433,0.0302 0.317122,0.0353 0.626334,0.10411 0.939441,0.1622 0.345486,-0.009 0.691762,0.0614 1.012709,0.1878 0.287519,0.13272 0.558558,0.29004 0.863273,0.38104 0.333963,0.1781 0.679254,0.36365 0.882134,0.69756 0.228297,0.38115 0.263839,0.68853 0.236415,1.12584 10e-4,0.35216 0.004,0.70454 -0.01102,1.05648 -0.01963,0.31789 -0.03553,0.65238 -0.215512,0.92668 -0.05342,0.321 -0.157027,0.6191 -0.29239,0.9129 -0.138409,0.1561 -0.0436,0.022 -0.126828,0.2506 -0.192867,0.529 0.06731,-0.2155 -0.145449,0.2449 -0.04688,0.1015 -0.0353,0.2244 -0.104043,0.3188 -0.238075,0.358 0.09255,-0.1558 -0.122942,0.2376 -0.01868,0.034 -0.05689,0.056 -0.07077,0.093 -0.05465,0.143 -0.02485,0.3185 -0.140965,0.4412 -0.194219,0.139 -0.0026,-0.021 -0.157664,0.2009 -0.02377,0.034 -0.06801,0.051 -0.09002,0.086 -0.02997,0.048 -0.01404,0.1285 -0.06242,0.1578 -2.19422,1.3279 -13.177519,7.6471 -0.22165,0.1752 -19.673544,11.2613 3.777351,-2.206 -0.406613,0.2079 -1.968116,1.1355 -3.919046,2.301 -5.899194,3.4154 -1.835196,1.0328 7.685953,-4.4131 5.463961,-3.1712 -1.717268,1.7276 -0.139197,0.1609 -6.036475,3.5004 -0.17599,0.1 -0.433811,0.034 -0.623079,0.033 -0.352561,0 -0.705126,0 -1.05769,0 -0.35313,-0 -0.712012,-0.01 -1.053841,-0.1054 -0.333283,-0.1299 -0.603714,-0.3372 -0.760626,-0.6678 -0.124876,-0.2139 -0.23493,-0.4386 -0.396848,-0.6287 -0.188259,-0.2331 -0.357364,-0.4828 -0.577021,-0.6886 -0.209269,-0.2191 -0.412901,-0.4434 -0.621782,-0.6629 -0.2391,-0.2484 -0.475773,-0.4975 -0.694397,-0.765 -0.268023,-0.2785 -0.497713,-0.573 -0.653955,-0.9298 -0.171515,-0.3838 -0.330763,-0.7718 -0.521534,-1.1469 -0.207563,-0.4079 -0.381235,-0.8302 -0.562008,-1.2503 -0.154272,-0.3836 -0.332706,-0.7589 -0.366335,-1.17816 -0.01545,-0.37289 -0.01518,-0.74737 0.01734,-1.11941 0.377316,-2.43834 -0.0073,-0.29139 5.916953,-3.62894 0.05058,-0.0285 0.602973,0.0947 0.698389,0.0385 0.350794,0.001 0.701933,0.002 1.052132,0.0246 0.327524,0.0269 0.650856,0.0764 0.971212,0.1505 0.315838,0.032 0.639653,-0.0215 0.957794,-1.6e-4 0.361904,-7.5e-4 0.723857,-0.002 1.085714,0.005 0.398321,0.0111 0.803625,0.0185 1.18867,0.13173 0.276125,0.11636 0.505958,0.29327 0.749865,0.4636 0.209823,0.1158 0.379111,0.29543 0.604562,0.38451 0.304005,0.16785 0.594326,0.33719 0.767883,0.65594 0.226482,0.37951 0.26126,0.68327 0.232117,1.11805 0.0013,0.34 0.0012,0.68094 0.03861,1.01933 0.05591,0.41271 0.176623,0.8098 0.244785,1.21992 0.01488,0.081 0.06919,0.3641 0.07282,0.441 8.22e-4,0.017 -0.02516,0.3836 -0.04387,0.395 -5.703821,3.4817 -3.654546,3.7476 -6.068386,3.3912 -0.378793,-0.059 -0.764838,-0.069 -1.139819,-0.1561 -0.389633,-0.072 -0.785032,-0.083 -1.171212,-0.1754 -0.360452,-0.082 -0.733609,-0.1079 -1.075254,-0.2607 -0.378451,-0.1722 -0.744638,-0.3659 -1.064853,-0.6351 -0.365502,-0.297 -0.736667,-0.5877 -1.116221,-0.8662 -0.315328,-0.2322 -0.64458,-0.444 -0.968784,-0.6635 -0.287931,-0.2082 -0.594061,-0.3905 -0.846802,-0.644 -0.249882,-0.2661 -0.441924,-0.5748 -0.504397,-0.94033 -0.08258,-0.37431 -0.09005,-0.74618 -0.07022,-1.12916 0.0024,-0.0745 0.03836,-0.81368 0.04198,-0.81595 5.72755,-3.5741 3.773618,-4.29519 6.05456,-3.39281 0.334352,0.15178 0.653475,0.32012 0.899729,0.60184 0.356027,0.47415 0.542503,1.0405 0.787756,1.57545 0.211635,0.49782 0.489584,1.01289 0.491951,1.56481 -0.0016,0.38208 -0.0047,0.76415 -0.01307,1.14615 -0.01046,0.5094 -0.02038,1.0187 -0.01096,1.5283 0.01307,0.4411 0.02606,0.882 0.01047,1.3233 -0.0053,0.4433 -0.02679,0.8925 0.04949,1.3309 -0.267996,0.1565 -5.136664,5.6378 -6.053193,3.1779 -0.05876,-0.1578 0.02033,-0.5025 -0.07004,-0.6663 -0.0802,-0.3898 -0.131768,-0.7836 -0.242823,-1.1664 -0.196839,-0.5772 -0.389388,-1.1557 -0.594298,-1.7302 -0.264599,-0.8376 -0.52999,-1.6743 -0.787896,-2.5141 -0.166304,-0.5737 -0.335892,-1.15496 -0.40361,-1.7489 8.020196,-4.24051 6.024526,-5.33294 5.999622,-2.53787 -0.0067,0.45268 -0.0048,0.90528 -0.01265,1.35793 -0.0018,0.70766 0.0204,1.41695 0.106401,2.11994 0.08986,0.6412 0.176938,1.2828 0.289186,1.9201 0,0 -6.035975,3.0755 -6.035975,3.0755 z"
       inkscape:connector-curvature="0" />
    <path
       style="fill:#484537;fill-opacity:1;stroke:none;stroke-opacity:1"
       id="path4212"
       d="m 38.389403,1008.7318 c -0.367129,-0.1183 -0.704561,-0.2496 -1.002169,-0.5014 -0.291116,-0.2696 -0.494845,-0.5669 -0.622318,-0.9427 -0.122089,-0.2678 -0.175285,-0.5549 -0.24236,-0.8389 -0.09688,-0.26 -0.22263,-0.5021 -0.296779,-0.7725 -0.0558,-0.3044 -0.08109,-0.6092 -0.149313,-0.9114 -0.07722,-0.3355 -0.09874,-0.6793 -0.112443,-1.0221 -0.0089,-0.3968 -0.0046,-0.794 0.0047,-1.1908 -0.01327,-0.347 0.04449,-0.7106 -0.0677,-1.0461 -0.243852,-0.4118 -0.480109,-0.8119 -0.652474,-1.2605 -0.231802,-0.593 -0.45456,-1.18779 -0.594725,-1.80966 -0.07402,-0.40841 -0.125226,-0.82665 -0.08923,-1.24118 0.669242,-2.3854 5.046221,-3.36371 6.132345,-4.00032 0.224798,-0.13176 0.03509,-0.0501 0.281231,-0.13991 0.183463,0.002 0.28756,-0.11484 0.432637,-0.19848 0.181516,-0.10466 0.296153,-0.0927 0.47348,-0.22808 0.302981,-0.16341 0.65324,-0.15355 0.987977,-0.15714 0.350402,2.8e-4 0.700782,0.005 1.051173,0.007 0.373287,-0.0255 0.711835,0.0165 1.044325,0.19114 0.315927,0.15348 0.63375,0.29885 0.964011,0.4208 0.200023,0.15324 0.449023,0.16644 0.676515,0.24065 0.111032,0.0362 0.214113,0.0937 0.323711,0.13405 0.04595,0.0113 0.09425,0.0155 0.137853,0.0339 0.395912,0.16704 -0.05887,0.0217 0.279487,0.14597 0.155141,0.057 0.228478,0.0451 0.384929,0.12996 0.252987,0.10407 0.523404,0.19302 0.750977,0.34657 0.227388,0.12694 0.493739,0.11338 0.74632,0.11839 0.335761,0.003 0.671548,3.3e-4 1.007313,-0.001 0.244001,0.009 0.491916,-0.0395 0.725789,0.0516 0.123602,0.0482 0.236733,0.11985 0.356604,0.17668 0.346037,0.0957 0.606106,0.33294 0.898023,0.52427 0.245926,0.18012 0.444884,0.41598 0.683826,0.60232 0.208974,0.24395 0.409839,0.49914 0.566908,0.77984 0.155555,0.22376 0.30679,0.44325 0.432111,0.68634 0.1612,0.38907 0.307792,0.78139 0.404432,1.19163 0.101381,0.43448 0.08386,0.87988 0.101049,1.32175 0.0743,0.59048 0.192035,1.17458 0.273152,1.76438 0.06988,0.3695 0.02642,0.7102 -0.114948,1.052 -0.50368,2.5396 -3.219869,4.2008 -6.202631,4.0802 -0.04657,0.017 -0.09776,0.024 -0.139711,0.05 -0.04258,0.026 -0.06752,0.075 -0.108117,0.1047 -0.04091,0.03 -0.177755,0.096 -0.133986,0.071 1.883176,-1.0883 3.765798,-2.1777 5.652296,-3.2603 0.041,-0.024 -0.07433,0.059 -0.115179,0.083 -1.962392,1.1431 -3.929314,2.2784 -5.89397,3.4176 -0.05333,0.028 -0.212188,0.1147 -0.159992,0.084 1.831983,-1.0601 3.664227,-2.1197 5.499464,-3.1742 0.08313,-0.048 -0.16143,0.1035 -0.242902,0.154 -0.08819,0.055 -0.176076,0.11 -0.266076,0.1616 -1.983964,1.1392 -3.963233,2.2866 -5.955728,3.4108 -0.08377,0.047 -0.18,0.068 -0.27,0.1017 -0.434222,0.152 -0.891505,0.1751 -1.346744,0.1796 -0.35936,-0 -0.718689,-0.01 -1.078044,-0.01 -0.05826,-3e-4 -0.118971,-0.018 -0.174787,-9e-4 -0.06901,0.021 -0.121019,0.079 -0.186577,0.109 -0.09578,0.044 -0.199571,0.068 -0.295732,0.1106 -0.229809,0.1022 -0.568301,0.3037 -0.781843,0.4075 -0.179816,0.087 -0.364825,0.1638 -0.547238,0.2457 -0.917319,0.4233 -1.824432,0.8733 -2.802223,1.1397 -0.620919,0.1672 -0.908158,-0.044 -1.222922,-0.5576 -0.170777,-0.3447 -0.222824,-0.7306 -0.30451,-1.1029 -0.03897,-0.324 -0.133402,-0.6349 -0.206127,-0.9517 -0.01665,-0.1361 -0.05333,-0.2665 -0.0928,-0.3972 0,0 5.920403,-3.2435 5.920403,-3.2435 l 0,0 c 0.04733,0.1502 0.109948,0.2987 0.116619,0.4581 0.05755,0.3223 0.172661,0.631 0.190706,0.9602 0.05622,0.2944 0.126127,0.5876 0.201338,0.8759 0.02263,0.03 0.04817,0.087 0.09939,0.083 0.04387,-0 0.524203,-0.2223 0.547859,-0.1762 0.891444,-0.2941 1.740494,-0.696 2.58739,-1.0982 0.755236,-0.377 1.52272,-0.8569 2.396889,-0.8127 0.348727,0 0.698251,0.01 1.046098,-0.022 0.402303,-0.046 0.792126,-0.1436 1.15212,-0.336 2.08541,-1.1096 0.193941,-0.1066 -5.19561,3.0108 -0.164064,0.095 0.329753,-0.187 0.493577,-0.2823 5.895974,-3.4302 3.954734,-2.3247 6.13311,-3.5644 -1.882094,1.0939 -3.763352,2.1891 -5.64628,3.2815 -0.04092,0.024 0.07929,-0.052 0.120171,-0.076 1.962744,-1.143 3.925285,-2.2864 5.890621,-3.425 0.145478,-0.084 0.299347,-0.089 0.454221,-0.1478 1.672719,-1.5996 0.357946,-0.3283 -5.551809,3.2438 -0.100578,0.061 0.245404,0.014 0.295917,-0.1364 0.01756,-0.052 0.01479,-0.1091 0.02219,-0.1637 0.03164,-0.1456 0.06143,-0.2786 0.146976,-0.4037 0.02368,-0.035 0.06232,-0.059 0.07913,-0.098 0.01221,-0.028 0.0658,-0.3253 0.06977,-0.3466 -0.03371,-0.5988 -0.111455,-1.1928 -0.239856,-1.7791 -0.03057,-0.1825 -0.07829,-0.3621 -0.102493,-0.5456 -0.02965,-0.2247 0.01315,-0.4599 -0.03587,-0.684 -0.05441,-0.3505 -0.159591,-0.68 -0.32879,-0.9934 -0.1396,-0.2329 -0.291419,-0.45618 -0.433703,-0.6877 -0.117765,-0.21671 -0.279743,-0.4109 -0.457905,-0.58059 -0.19485,-0.19186 -0.394943,-0.3804 -0.61752,-0.5401 -0.252011,-0.17822 -0.530746,-0.29427 -0.821308,-0.39665 -0.297561,-0.0903 -0.619426,0.006 -0.927415,-0.0264 -0.351415,-0.002 -0.704168,-0.002 -1.053377,-0.0461 -0.325142,-0.0536 -0.631854,-0.14896 -0.912969,-0.32622 -0.243495,-0.0787 -0.465779,-0.21522 -0.710943,-0.29263 -0.273981,-0.0621 -0.51049,-0.2276 -0.78066,-0.3036 -0.329931,-0.1317 -0.67004,-0.23835 -0.991603,-0.39252 -0.317237,-0.13639 -0.633563,-0.27732 -0.961907,-0.38437 -0.301294,-0.0291 -0.600991,-0.0123 -0.904352,-0.0149 -0.338786,0.002 -0.67965,6.8e-4 -1.01522,0.0534 -0.304441,0.0637 -0.569215,0.19128 -0.830966,0.35838 -0.173509,0.0567 -0.305471,0.15038 -0.470237,0.22449 -0.10658,0.0479 -0.224614,0.0682 -0.329579,0.11956 -0.04334,0.0212 -0.08085,0.0527 -0.121277,0.0791 -1.798236,1.19864 -6.073735,3.66559 5.342092,-3.13734 0.309824,-0.18463 -0.253066,0.0861 -0.287079,0.10888 -0.03768,0.0252 -0.06796,0.0601 -0.101939,0.0901 -0.237155,0.25571 -0.103908,0.65188 -0.10683,0.97107 0.06544,0.58794 0.207014,1.16367 0.470881,1.69663 0.209597,0.42802 0.497384,0.79628 0.733174,1.2085 0.0376,0.0778 0.08443,0.15186 0.112791,0.23352 0.118729,0.34182 0.03599,0.72215 0.06032,1.07347 0.0087,0.38544 0.0092,0.77106 0.01644,1.15646 0.006,0.302 0.01164,0.6059 0.0674,0.9037 0.06435,0.2994 0.138232,0.5913 0.144344,0.8996 0.05143,0.2696 0.198552,0.4899 0.285527,0.7474 0.08628,0.2768 0.09831,0.5732 0.232884,0.8369 0.05187,0.2384 0.184948,0.4135 0.386941,0.5546 0.243316,0.1211 0.530644,0.1991 0.800409,0.1392 0,0 -5.480551,3.9819 -5.480551,3.9819 z"
       inkscape:connector-curvature="0" />
    <path
       style="fill:#ffff00;fill-opacity:1;stroke:none;stroke-opacity:1"
       id="path4214"
       d="m 37.21293,999.58079 c 0.165471,0.55691 0.227558,1.12591 0.243404,1.70421 0.07033,0.5071 -0.07302,1.3469 0.131832,1.8127 2.028742,-1.0694 -1.49492,0.7882 -6.043244,3.0074 -0.02105,0.01 0.01729,-0.045 0.01718,-0.068 -6.16e-4,-0.1277 -0.0499,-0.2435 -0.09455,-0.3601 -0.153572,-0.3671 -0.188116,-0.7652 -0.219895,-1.1576 -0.0082,-0.2994 -0.0043,-0.1498 -0.01159,-0.4488 0,0 5.962964,-3.0538 5.962964,-3.0538 l 0,0 c 0.0047,0.282 4.37e-4,0.1427 0.01262,0.418 0.01241,0.3217 0.02441,0.6495 0.144811,0.9526 0.02222,0.053 0.248771,0.6274 0.236942,0.634 -6.487698,3.6171 -7.64734,4.8291 -6.043117,3.1597 0.174684,-0.5978 0.04974,-1.2538 0.04821,-1.8639 -0.0511,-0.4834 -0.07766,-0.993 -0.295543,-1.436 0,0 5.909979,-3.30031 5.909979,-3.30031 z"
       inkscape:connector-curvature="0" />
    <path
       style="fill:#ffff00;fill-opacity:1;stroke:none;stroke-opacity:1"
       id="path4216"
       d="m 36.339493,1004.0852 c 0.02902,0.1398 0.08671,0.2721 0.195116,0.3696 0.130538,0.1175 0.187332,0.038 0.166221,0.049 -0.7848,0.4191 -1.577181,0.824 -2.365772,1.236 0.02784,-0.028 0.07085,-0.045 0.08353,-0.082 0.09827,-0.2869 -0.136494,-1.0324 -0.204935,-1.3413 -0.0985,-0.4258 -0.144328,-0.8598 -0.166343,-1.2953 -0.01336,-0.3547 -0.01127,-0.7097 -0.01054,-1.0645 0.02053,-0.3476 -0.0095,-0.6872 -0.06652,-1.0293 -0.008,-0.3341 -0.137493,-0.6176 -0.262297,-0.9186 -0.487571,-1.43636 0.02513,-0.78825 2.290858,-1.8888 -0.04419,0.30393 -0.03136,0.61444 -0.03075,0.92102 0.0015,0.39364 -0.0011,0.78725 2.77e-4,1.18088 0.0017,0.374 0.0028,0.748 0.0033,1.122 4.18e-4,0.352 4.14e-4,0.7039 4.25e-4,1.0558 -3e-6,0.3506 -1.8e-5,0.7012 -2.6e-5,1.0519 -0.01946,0.3216 0.0066,0.6327 0.06987,0.9471 0,0 -2.440209,1.3053 -2.440209,1.3053 l 0,0 c -0.0674,-0.3322 -0.117246,-0.6581 -0.08905,-0.9993 -7e-6,-0.3506 -2.1e-5,-0.7013 -1.2e-5,-1.0519 2.4e-5,-0.352 4.6e-5,-0.7041 4.78e-4,-1.0562 5.5e-4,-0.3749 0.0016,-0.7498 0.0027,-1.1247 5.42e-4,-0.3924 -0.0033,-0.7847 -0.0058,-1.1771 -0.0022,-0.31544 -0.0027,-0.63109 -0.0139,-0.9464 3.385448,-1.8253 2.16579,-2.08947 2.623864,-0.68944 0.13003,0.31995 0.286522,0.61885 0.287991,0.97497 0.06,0.35616 0.1192,0.70677 0.08871,1.07017 -10e-4,0.3518 -0.0035,0.7038 0.0026,1.0556 0.01168,0.4244 0.03944,0.8488 0.122903,1.266 0.110701,0.5568 0.286583,1.1074 0.293868,1.6785 -1.590124,0.8577 -2.402132,2.23 -3.026941,0.6918 0,0 2.450417,-1.3101 2.450417,-1.3101 z"
       inkscape:connector-curvature="0" />
    <path
       style="fill:#ffff00;fill-opacity:1;stroke:none;stroke-opacity:1"
       id="path4218"
       d="m 46.353256,1010.6974 c 0.382773,-0.4165 0.574664,-0.9637 0.716642,-1.5013 0.100904,-0.4152 0.124474,-0.8418 0.133715,-1.2672 0.0024,-0.4159 0.0068,-0.8319 0.0045,-1.2479 -5.66e-4,-0.074 -9.9e-5,-0.1479 -0.0017,-0.2219 -0.0012,-0.056 -0.0036,-0.1117 -0.0067,-0.1675 -0.01775,-0.313 -0.0234,0.1524 0.08592,0.099 0.813322,-0.3938 1.553238,-0.924 2.329857,-1.386 -0.166321,0.3074 -0.228782,0.6448 -0.273895,0.9872 -0.07034,0.8111 -0.06844,1.6266 -0.06841,2.4401 -0.02645,0.5927 0.07894,1.1953 -0.02046,1.7831 -0.413522,0.9691 -2.345478,1.4723 -2.758713,1.6683 -0.12114,0.058 -0.605484,-0.2444 -0.706682,-0.3038 -0.624446,-0.4313 -1.059739,-1.0672 -1.550377,-1.6348 -0.378718,-0.4366 -0.714194,-0.9028 -1.047086,-1.3735 -0.162512,-0.2773 -0.367123,-0.5425 -0.414334,-0.8661 0.817718,-0.4802 1.605352,-1.0159 2.453153,-1.4408 0.01319,-0.01 0.255656,0.1826 0.353711,0.282 0.295271,0.2995 0.552538,0.638 0.807572,0.9708 0.691231,0.915 1.2907,1.8939 1.923036,2.8495 0.328693,0.4703 0.586008,1.0285 1.037721,1.3982 0.04038,0.01 0.07948,0.032 0.121135,0.031 0.08816,-0 0.13278,-0.067 0.189376,-0.1209 -0.755117,0.4245 -1.502295,0.8634 -2.265352,1.2734 -0.04487,0.024 0.0747,-0.07 0.10396,-0.1119 0.03187,-0.045 0.0519,-0.098 0.07785,-0.1472 0.145261,-0.3842 0.131388,-0.7997 0.164369,-1.2027 0.09363,-0.425 0.23025,-0.8392 0.351987,-1.2567 0.05645,-0.304 0.228531,-0.6747 0.04898,-0.9587 -0.2805,-0.3324 -0.717242,-0.4076 -1.126117,-0.4629 -0.761414,-0.1447 -1.534957,-0.2248 -2.306596,-0.2943 -0.728724,-0.093 -1.471036,-0.028 -2.198227,-0.1197 -0.376198,-0.089 -0.773643,-0.066 -1.14546,-0.1655 -0.333728,-0.036 -0.434015,-0.3311 -0.643642,-0.5338 -0.333447,-0.2812 -0.563935,-0.6401 -0.78723,-1.0101 -0.307742,-0.4715 -0.581345,-0.9609 -0.826674,-1.4671 -0.183573,-0.4012 -0.343207,-0.8147 -0.539693,-1.2098 -0.02996,-0.041 -0.05271,-0.088 -0.08987,-0.1217 -0.04403,-0.04 -0.11975,-0.071 -0.174991,-0.026 -0.02586,0.021 -0.08011,0.1025 -0.0506,0.087 2.213946,-1.1854 2.898209,-1.9266 2.188638,-1.1796 -0.19217,0.3505 -0.246286,0.7643 -0.326884,1.153 -0.08464,0.6519 -0.181757,1.3019 -0.282278,1.9517 -0.101706,0.6961 -0.174465,1.3995 -0.328695,2.0866 -0.243243,1.0491 -1.999269,2.3576 -2.640777,1.3538 -0.183761,-0.2876 -0.283286,-0.6387 -0.399644,-0.9559 -0.255959,-0.6987 -0.498788,-1.4039 -0.686796,-2.1242 -0.125594,-0.4996 -0.140139,-1.0173 -0.155179,-1.5296 -9.29e-4,-0.052 0.0065,-0.2608 -0.02485,-0.3363 -0.02701,-0.065 -0.03503,0.2405 0.02837,0.2096 2.243945,-1.0924 2.619546,-2.1201 2.173993,-1.0591 -0.208202,0.5824 -0.321275,1.1872 -0.385312,1.8004 -0.04125,0.4631 -0.04412,0.9283 -0.04957,1.3928 -0.03388,0.5179 0.01967,1.0246 0.143091,1.5266 0.07484,0.3307 0.206676,0.6455 0.356364,0.9484 0.186951,0.2605 0.169597,0.3486 0.503064,0.3201 0.06369,-0.053 0.151698,-0.057 0.220145,-0.1 0.0358,-0.022 0.131404,-0.1043 0.09467,-0.084 -3.532905,1.9832 -2.815366,1.706 -1.998812,1.106 0.423867,-0.2885 0.85283,-0.57 1.27437,-0.8627 0.395209,-0.2374 0.738299,-0.5143 0.9942,-0.8984 0.351171,-0.5687 0.632714,-1.1679 0.886204,-1.7847 0.485761,-1.0768 0.115929,-0.5097 2.655495,-1.4678 0.06265,-0.024 0.118043,0.6307 0.119878,0.6568 0.03613,0.4885 -0.0053,0.9805 0.04166,1.4678 0.186817,0.8459 2.053231,-0.8782 -2.38168,1.3019 -0.02858,0.014 0.06232,-0.025 0.08096,-0.051 0.05768,-0.08 0.08295,-0.2477 0.101993,-0.3342 0.03957,-0.3828 0.09066,-0.7612 0.184233,-1.1349 0.571488,-1.2119 2.040891,-1.8645 3.344224,-2.0493 0.46645,-0.031 0.94493,-0.088 1.409462,-0.017 0.164563,0.028 0.362889,0.069 0.473311,0.2116 0.05612,0.073 0.158459,0.318 0.0285,0.3961 -0.854902,0.5138 -1.766382,0.927 -2.649574,1.3905 -1.494458,0.013 -2.912189,-0.5665 -4.303925,-1.0462 -1.003326,-0.4269 -2.107833,-0.6768 -3.038426,-1.2609 -0.21984,-0.191 -0.544404,-0.5465 -0.41817,-0.8786 0.02402,-0.063 0.07731,-0.1109 0.115962,-0.1664 0.886868,-0.5011 2.106035,-1.5946 3.346098,-1.464 0.338646,0.036 0.501324,0.1254 0.825185,0.2496 1.410214,0.7127 2.558517,1.8284 3.756634,2.839 0.848046,0.6899 1.648169,1.4239 2.395198,2.2203 0.284674,0.3095 0.552883,0.6035 0.682774,1.0087 0.04274,0.1999 0.114277,0.5817 -0.116906,0.7132 -0.838057,0.4769 -1.691163,0.9268 -2.536745,1.3902 -0.310858,0.056 -0.629486,-0 -0.940512,0.018 -0.760279,0.048 -1.461138,0.1696 -2.220294,0.2796 -2.273196,0.3767 -4.538437,0.8007 -6.816649,1.1468 -0.649847,0.058 -1.241715,0.2204 -1.518064,-0.4968 -0.112636,-0.4282 0.07344,-0.7888 0.327969,-1.12 0.375483,-0.4382 0.847264,-0.7845 1.330134,-1.095 1.304927,-0.7996 2.623198,-1.5914 4.024632,-2.2102 0.367183,-0.2168 0.76713,-0.3277 1.186715,-0.3776 0.47716,0.015 0.645278,0.3793 0.756121,0.7875 0.07383,0.2476 0.03741,0.124 0.109273,0.3707 0,0 -2.42029,1.3185 -2.42029,1.3185 l 0,0 c -0.0681,-0.2481 -0.03224,-0.122 -0.107848,-0.3782 -0.08574,-0.3487 -0.149524,-0.5035 -0.543138,-0.4413 -0.397351,0.082 -0.76488,0.2382 -1.12552,0.4228 -0.252446,0.1181 -0.505753,0.2351 -0.754748,0.3603 -0.09977,0.05 -0.393396,0.2113 -0.297466,0.1541 3.975055,-2.3687 2.38073,-1.4004 1.699773,-0.9857 -0.479816,0.2853 -0.923477,0.6102 -1.329898,0.993 -0.209457,0.255 -0.483678,0.5032 -0.432068,0.8654 0.118846,0.4698 0.870649,0.2555 1.19849,0.26 2.233014,-0.2648 4.451649,-0.6339 6.663121,-1.0393 0.570971,-0.1 1.824498,-0.3273 2.458378,-0.4099 0.196626,-0.026 0.396523,-0.017 0.593495,-0.04 0.186412,-0.021 0.171339,-0.024 0.347538,-0.072 -0.746715,0.4337 -1.500454,0.8555 -2.240147,1.3011 -0.03475,0.021 0.08052,-0.012 0.119378,-0.024 0.181184,-0.054 0.196625,-0.1984 0.157019,-0.3651 -0.09457,-0.3682 -0.352015,-0.6331 -0.579085,-0.9292 -0.685,-0.8214 -1.452737,-1.56 -2.263258,-2.2587 -1.16379,-1.0184 -2.330385,-2.1113 -3.782975,-2.6982 -0.374915,-0.101 -0.4307,-0.1462 -0.799938,-0.143 -1.089131,0.01 -2.567165,1.14 1.423362,-1.1478 -0.03841,0 -0.21553,-0.011 -0.256135,0.058 -0.100563,0.1717 0.187185,0.4205 0.280456,0.5087 0.872383,0.583 1.90549,0.888 2.860697,1.3016 1.390992,0.4807 2.864241,1.0415 4.358842,0.827 -0.702543,0.4232 -1.436367,0.7984 -2.107629,1.2697 -0.06392,0.045 0.275732,0.1395 0.217224,0.088 -0.100084,-0.088 -0.263499,-0.081 -0.383411,-0.1057 -0.45051,-0.025 -0.90619,-6e-4 -1.350913,0.076 -0.07552,0.019 -0.152596,0.033 -0.226554,0.057 -0.07148,0.024 -0.272838,0.1255 -0.208579,0.086 4.848919,-2.9547 2.256923,-1.5569 1.774381,-0.93 -0.126781,0.3553 -0.182891,0.7316 -0.205872,1.107 -0.01545,0.1287 -0.04171,0.5398 -0.06883,0.5552 -0.624679,0.355 -2.441217,2.2459 -2.646227,1.0109 -0.05057,-0.49 0.0037,-0.9853 -0.0383,-1.4768 -0.02318,-0.2794 -0.0076,-0.1428 -0.04169,-0.3853 -0.0031,-0.022 -0.02857,-0.055 -0.0092,-0.066 0.797257,-0.4497 1.62279,-0.8478 2.421706,-1.2945 0.03236,-0.018 -0.08059,-0.018 -0.111204,0 -0.0525,0.036 -0.07677,0.1014 -0.115155,0.1521 -0.141824,0.2977 -0.254541,0.6055 -0.396876,0.9031 -0.287585,0.6014 -0.04448,0.078 -0.339561,0.6333 -0.04584,0.086 -0.08492,0.176 -0.127382,0.2641 -0.202995,0.4474 -0.527737,0.7839 -0.962586,1.0196 -0.407252,0.2908 -0.812934,0.5866 -1.24518,0.8395 -0.929777,0.7405 -1.934512,1.6923 -3.140873,1.7076 -0.316255,-0.076 -0.496527,-0.2826 -0.652542,-0.5593 -0.154901,-0.3236 -0.288724,-0.6604 -0.362953,-1.0126 -0.124035,-0.5213 -0.197558,-1.047 -0.173538,-1.585 -0.0027,-0.4751 1.6e-5,-0.9509 0.04908,-1.424 0.06693,-0.6242 0.160141,-1.245 0.356874,-1.8436 0.01782,-0.089 -0.01962,-0.2139 0.05345,-0.2686 0.546729,-0.4096 2.328357,-2.2629 2.666283,-1.346 0.03123,0.085 0.02093,0.3048 0.02069,0.3791 0.0029,0.4971 0.01265,0.9967 0.111577,1.4857 0.154707,0.7186 0.381874,1.4196 0.650909,2.1033 0.0594,0.1492 0.185807,0.482 0.267263,0.6331 0.03531,0.065 0.07301,0.1317 0.125006,0.1849 0.0093,0.01 0.04128,-0.033 0.02993,-0.026 -2.329878,1.4176 -2.803605,2.1578 -2.231219,1.3024 0.248992,-0.6602 0.286121,-1.3831 0.397179,-2.0746 0.08422,-0.6452 0.17499,-1.2892 0.230744,-1.9373 0.06366,-0.4175 0.162196,-0.8316 0.265381,-1.2397 0.45558,-1.1061 2.31547,-2.4033 3.052213,-1.2347 0.186563,0.4006 0.351337,0.812 0.532164,1.2154 0.232888,0.5 0.478519,0.9931 0.7928,1.4488 0.230045,0.3475 0.477632,0.6724 0.801834,0.9386 0.172269,0.1933 0.257237,0.3765 0.545127,0.3991 0.369312,0.055 0.740906,0.095 1.109207,0.157 0.710779,0.064 1.425835,0.079 2.135689,0.1577 0.795115,0.07 1.594087,0.1277 2.380603,0.2677 0.480662,0.096 0.950342,0.2493 1.26584,0.6496 0.03978,0.064 0.08969,0.1229 0.119345,0.1923 0.128985,0.3017 -0.02807,0.6703 -0.06965,0.9739 -0.111656,0.4091 -0.24575,0.8116 -0.361008,1.2193 -0.08456,0.4143 -0.02961,0.8492 -0.13565,1.2628 -0.351971,1.1849 -0.714776,0.7836 -2.609345,1.8453 -0.141062,0.079 -0.365698,-0.098 -0.467026,-0.1604 -0.425291,-0.4305 -0.689792,-0.9896 -1.000295,-1.5023 -0.597548,-0.9659 -1.189921,-1.9389 -1.904799,-2.8245 -0.250553,-0.2876 -0.348713,-0.4152 -0.612159,-0.6675 -0.0654,-0.063 -0.263858,-0.2565 -0.385379,-0.2914 -0.03083,-0.01 -0.121743,0.035 -0.09462,0.018 0.760243,-0.48 1.533079,-0.9396 2.299619,-1.4094 -0.0257,-0.01 -0.06032,-0.04 -0.07709,-0.019 -0.0209,0.025 0.283606,0.591 0.330967,0.6609 0.306378,0.4763 0.631076,0.9357 1.000078,1.3673 0.456947,0.555 0.875761,1.1718 1.514478,1.5339 0.165601,0.077 0.256031,0.1392 0.439167,0.1539 0.05958,0 0.229129,-0.048 0.178573,-0.016 -3.380406,2.1323 -2.838243,1.5753 -1.934233,1.1793 0.226951,-0.51 0.054,-1.2001 0.119119,-1.7464 0.0034,-0.8124 -0.0039,-1.6249 0.01046,-2.4372 0.01674,-0.3561 0.05052,-0.7142 0.194068,-1.0452 0.805336,-0.5141 2.442936,-2.1849 2.584235,-1.24 0.02416,0.1616 -0.05367,0.3423 -0.01359,0.5043 8.46e-4,0.4162 0.01259,0.8323 0.0087,1.2485 -0.0082,0.4476 -0.03055,0.8964 -0.129529,1.3347 -0.137172,0.5671 -0.335017,1.1053 -0.615562,1.6183 0,0 -2.56423,1.0622 -2.56423,1.0622 z"
       inkscape:connector-curvature="0" />
    <path
       sodipodi:type="star"
       style="fill:#ffff00;fill-opacity:1;stroke:none;stroke-opacity:1"
       id="path4220"
       sodipodi:sides="5"
       sodipodi:cx="8.773324"
       sodipodi:cy="989.19427"
       sodipodi:r1="8.9350176"
       sodipodi:r2="4.4675088"
       sodipodi:arg1="0.34038194"
       sodipodi:arg2="0.96870047"
       inkscape:flatsided="false"
       inkscape:rounded="0"
       inkscape:randomized="0"
       d="m 17.195715,992.17721 -5.892123,0.69896 -2.7645412,5.25005 -2.4855253,-5.38775 -5.84738112,-1.00688 4.35598422,-4.02878 -0.8493396,-5.87233 5.1776716,2.89782 5.3224604,-2.62242 -1.156007,5.81974 z"
       inkscape:transform-center-x="0.072394399"
       inkscape:transform-center-y="0.78407376" />
    <path
       sodipodi:type="star"
       style="fill:#ff0000;fill-opacity:1;stroke:none;stroke-opacity:1"
       id="path4222"
       sodipodi:sides="5"
       sodipodi:cx="54.043674"
       sodipodi:cy="989.72067"
       sodipodi:r1="5.0885277"
       sodipodi:r2="2.5442638"
       sodipodi:arg1="0"
       sodipodi:arg2="0.62831853"
       inkscape:flatsided="false"
       inkscape:rounded="0"
       inkscape:randomized="0"
       d="m 59.132202,989.72064 -3.030175,1.49548 -0.485911,3.344 -2.358662,-2.41974 -3.330485,0.57122 1.572442,-2.99096 -1.572442,-2.99096 3.330485,0.57122 2.358662,-2.41974 0.485911,3.344 z"
       inkscape:transform-center-x="-0.48591116" />
    <path
       sodipodi:type="star"
       style="fill:#ffff00;fill-opacity:1;stroke:none;stroke-opacity:1"
       id="path4224"
       sodipodi:sides="5"
       sodipodi:cx="42.111954"
       sodipodi:cy="1026.2177"
       sodipodi:r1="3.895988"
       sodipodi:r2="1.947994"
       sodipodi:arg1="-0.13552771"
       sodipodi:arg2="0.49279082"
       inkscape:flatsided="false"
       inkscape:rounded="0"
       inkscape:randomized="0"
       d="m 45.972216,1025.6913 -2.144048,1.4479 -0.02269,2.5871 -2.039648,-1.5917 -2.467482,0.7779 0.883477,-2.4316 -1.502297,-2.1064 2.585667,0.089 1.539012,-2.0796 0.714553,2.4865 z"
       inkscape:transform-center-x="-0.21391735"
       inkscape:transform-center-y="-0.16266637" />
    <path
       sodipodi:type="star"
       style="fill:#ff0000;fill-opacity:1;stroke:none;stroke-opacity:1"
       id="path4226"
       sodipodi:sides="5"
       sodipodi:cx="56.500206"
       sodipodi:cy="1040.255"
       sodipodi:r1="8.9916945"
       sodipodi:r2="4.4958472"
       sodipodi:arg1="0.29706421"
       sodipodi:arg2="0.92538274"
       inkscape:flatsided="false"
       inkscape:rounded="0"
       inkscape:randomized="0"
       d="m 65.098064,1042.887 -5.893476,0.9595 -2.550676,5.3989 -2.733737,-5.3085 -5.922831,-0.7575 4.203933,-4.2404 -1.109835,-5.867 5.331911,2.6878 5.236915,-2.8685 -0.908631,5.9015 z"
       inkscape:transform-center-x="-0.047497765"
       inkscape:transform-center-y="0.81333184" />
    <path
       sodipodi:type="star"
       style="fill:#ff0000;fill-opacity:1;stroke:none;stroke-opacity:1"
       id="path4228"
       sodipodi:sides="5"
       sodipodi:cx="11.580788"
       sodipodi:cy="1006.039"
       sodipodi:r1="8.1643782"
       sodipodi:r2="4.0821891"
       sodipodi:arg1="0.49248577"
       sodipodi:arg2="1.1208043"
       inkscape:flatsided="false"
       inkscape:rounded="0"
       inkscape:randomized="0"
       d="m 18.774913,1009.8993 -5.418543,-0.1845 -3.223803,4.3591 -1.4989968,-5.2103 -5.1419579,-1.719 4.4921125,-3.0357 0.045898,-5.42152 4.2752748,3.33412 5.170325,-1.6316 -1.849848,5.0963 z"
       inkscape:transform-center-x="0.44752482"
       inkscape:transform-center-y="0.34164392" />
    <path
       sodipodi:type="star"
       style="fill:#ff0000;fill-opacity:1;stroke:none;stroke-opacity:1"
       id="path4230"
       sodipodi:sides="5"
       sodipodi:cx="25.793571"
       sodipodi:cy="987.26414"
       sodipodi:r1="4.9161935"
       sodipodi:r2="2.458097"
       sodipodi:arg1="0.607802"
       sodipodi:arg2="1.2361205"
       inkscape:flatsided="false"
       inkscape:rounded="0"
       inkscape:randomized="0"
       d="m 29.8293,990.07162 -3.228335,-0.48575 -2.230341,2.38405 -0.535635,-3.22043 -2.956576,-1.38447 2.897294,-1.50459 0.403077,-3.2397 2.326261,2.29055 3.205692,-0.61777 -1.459586,2.92022 z"
       inkscape:transform-center-x="0.43971503"
       inkscape:transform-center-y="0.031166274" />
    <path
       sodipodi:type="star"
       style="fill:#ffff00;fill-opacity:1;stroke:none;stroke-opacity:1"
       id="path4232"
       sodipodi:sides="5"
       sodipodi:cx="6.8431926"
       sodipodi:cy="1047.0982"
       sodipodi:r1="4.0699148"
       sodipodi:r2="2.0349574"
       sodipodi:arg1="0.12970254"
       sodipodi:arg2="0.75802107"
       inkscape:flatsided="false"
       inkscape:rounded="0"
       inkscape:randomized="0"
       d="m 10.878922,1047.6245 -2.5579476,0.8726 -0.7313086,2.6019 -1.6203455,-2.1631 -2.7005111,0.1085 1.5565188,-2.2095 -0.9376991,-2.5348 2.582327,0.7976 2.1209812,-1.6751 0.039447,2.7024 z"
       inkscape:transform-center-x="-0.23067291"
       inkscape:transform-center-y="0.16266637" />
    <path
       sodipodi:type="star"
       style="fill:#ffff00;fill-opacity:1;stroke:none;stroke-opacity:1"
       id="path4234"
       sodipodi:sides="5"
       sodipodi:cx="22.635176"
       sodipodi:cy="997.26573"
       sodipodi:r1="6.4732623"
       sodipodi:r2="3.2366314"
       sodipodi:arg1="0.57296614"
       sodipodi:arg2="1.2012847"
       inkscape:flatsided="false"
       inkscape:rounded="0"
       inkscape:randomized="0"
       d="m 28.074636,1000.7751 -4.270518,-0.4912 -2.825627,3.2395 -0.852544,-4.21326 -3.954119,-1.68627 3.743617,-2.11279 0.381847,-4.28167 3.166226,2.9075 4.190114,-0.95995 -1.786782,3.90972 z"
       inkscape:transform-center-x="0.51194378"
       inkscape:transform-center-y="0.11066751" />
    <path
       sodipodi:type="star"
       style="fill:#ff0000;fill-opacity:1;stroke:none;stroke-opacity:1"
       id="path4236"
       sodipodi:sides="5"
       sodipodi:cx="35.444229"
       sodipodi:cy="985.15854"
       sodipodi:r1="3.8482802"
       sodipodi:r2="1.9241401"
       sodipodi:arg1="0.81764505"
       sodipodi:arg2="1.4459636"
       inkscape:flatsided="false"
       inkscape:rounded="0"
       inkscape:randomized="0"
       d="m 38.076226,987.96603 -2.392425,-0.89829 -2.096297,1.46156 0.115031,-2.55292 -2.037822,-1.54205 2.463518,-0.67949 0.836853,-2.41461 1.407508,2.13297 2.555025,0.0498 -1.59363,1.99774 z"
       inkscape:transform-center-x="0.14806386"
       inkscape:transform-center-y="-0.22380144" />
  </g>
</svg>
