<?xml version="1.0" encoding="UTF-8" standalone="no"?>
<!-- Created with Inkscape (http://www.inkscape.org/) -->

<svg
   xmlns:dc="http://purl.org/dc/elements/1.1/"
   xmlns:cc="http://creativecommons.org/ns#"
   xmlns:rdf="http://www.w3.org/1999/02/22-rdf-syntax-ns#"
   xmlns:svg="http://www.w3.org/2000/svg"
   xmlns="http://www.w3.org/2000/svg"
   xmlns:sodipodi="http://sodipodi.sourceforge.net/DTD/sodipodi-0.dtd"
   xmlns:inkscape="http://www.inkscape.org/namespaces/inkscape"
   width="152"
   height="250"
   viewBox="0 0 152 250"
   id="svg5032"
   version="1.1"
   inkscape:version="0.91 r13725"
   sodipodi:docname="marinet.svg">
  <defs
     id="defs5034" />
  <sodipodi:namedview
     id="base"
     pagecolor="#ffffff"
     bordercolor="#666666"
     borderopacity="1.0"
     inkscape:pageopacity="0.0"
     inkscape:pageshadow="2"
     inkscape:zoom="1.0823183"
     inkscape:cx="143.91137"
     inkscape:cy="117.47418"
     inkscape:document-units="px"
     inkscape:current-layer="layer1"
     showgrid="false"
     units="px"
     inkscape:window-width="1366"
     inkscape:window-height="706"
     inkscape:window-x="-8"
     inkscape:window-y="-8"
     inkscape:window-maximized="1"
     showguides="true" />
  <metadata
     id="metadata5037">
    <rdf:RDF>
      <cc:Work
         rdf:about="">
        <dc:format>image/svg+xml</dc:format>
        <dc:type
           rdf:resource="http://purl.org/dc/dcmitype/StillImage" />
        <dc:title></dc:title>
      </cc:Work>
    </rdf:RDF>
  </metadata>
  <g
     inkscape:label="Layer 1"
     inkscape:groupmode="layer"
     id="layer1"
     transform="translate(0,-802.36216)">
    <path
       style="fill:#ff8080;fill-opacity:1;stroke:#000000;stroke-opacity:0.9888268"
       id="path5729"
       d="m -100.11527,1045.9414 c 1.600338,0.5411 3.258864,0.8771 4.876962,1.3507 1.221135,0.2897 2.4248,0.6426 3.647363,0.9254 1.028512,0.4206 2.106167,0.6295 3.207143,0.7285 1.215584,-0.02 2.392526,0.1748 3.58686,0.3652 1.310949,0.4564 2.633903,0.8743 3.958898,1.2929 0.863001,0.4209 1.929835,0.7399 2.529689,1.5362 0.939627,3.0076 0.345344,0.5912 -6.907687,4.4049 -0.06183,0.033 -1.422078,-0.4669 -1.605928,-0.5184 -1.023969,-0.2309 -2.04901,-0.1879 -3.018436,-0.618 -0.85728,-0.3158 -1.679196,-0.7223 -2.545876,-1.0107 -0.855616,-0.1346 -1.641487,-0.4836 -2.492491,-0.645 -0.761997,-0.02 -1.465448,-0.283 -2.199099,-0.4551 0,0 6.441346,-4.4453 6.441346,-4.4453 l 0,0 c 0.723631,0.1881 1.448964,0.3293 2.188162,0.4421 0.857336,0.2205 1.6997,0.4992 2.55381,0.7298 0.843696,0.3419 1.68405,0.689 2.53237,1.02 0.979031,0.2769 2.021531,0.2389 2.992544,0.5691 0.2949,0.09 0.584983,0.197 0.88454,0.2697 0.460855,0.1118 0.711815,0.037 0.658198,0.071 -6.446021,4.1665 -8.381698,2.2656 -6.275036,4.1906 -0.290841,-0.5576 -1.634262,-0.8971 -2.151549,-1.1794 -1.294276,-0.427 -2.595033,-0.8588 -3.919707,-1.1758 -1.182356,-0.1925 -2.366386,-0.2602 -3.560883,-0.3378 -1.122504,-0.1492 -2.198314,-0.4551 -3.272805,-0.8085 -1.206904,-0.3217 -2.418458,-0.6254 -3.616708,-0.9781 -1.62318,-0.4502 -3.24697,-0.947 -4.90908,-1.2217 0,0 6.4174,-4.5025 6.4174,-4.5025 z"
       inkscape:connector-curvature="0" />
    <ellipse
       style="fill:#ffd5d5;fill-opacity:1;stroke:#000000;stroke-width:1.10934389;stroke-opacity:0.9888268"
       id="path5731"
       cx="69.320808"
       cy="838.60425"
       rx="28.717068"
       ry="22.182249" />
    <rect
       style="fill:#ffffff;fill-opacity:1;stroke:#000000;stroke-width:1.89955926;stroke-opacity:0.9888268"
       id="rect5736"
       width="4.3522053"
       height="0.92839819"
       x="110.66676"
       y="906.84131" />
    <rect
       style="fill:#ffffff;fill-opacity:1;stroke:#000000;stroke-width:1.89955926;stroke-opacity:0.9888268"
       id="rect5740"
       width="57.666718"
       height="65.916039"
       x="38.855385"
       y="872.49072" />
    <rect
       style="fill:#ffffff;fill-opacity:1;stroke:#000000;stroke-opacity:0.9888268"
       id="rect5748"
       width="0.52910054"
       height="24.867725"
       x="-138.62434"
       y="875.64258" />
    <path
       style="fill:none;fill-rule:evenodd;stroke:#000000;stroke-width:1.89955926px;stroke-linecap:butt;stroke-linejoin:miter;stroke-opacity:1"
       d="m 67.144712,869.70551 c 0,-3.09463 0,-6.18928 0,-9.28393 0,-0.30948 -0.362684,-0.9284 0,-0.9284 0.362684,0 0,0.61892 0,0.9284 0,0.30947 0.362684,0.92839 0,0.92839 -0.362684,0 0,-1.23787 0,-0.92839 0,0.0508 0,2.29553 0,2.78518 0,2.16626 0,4.33251 0,6.49875 z"
       id="path5750"
       inkscape:connector-curvature="0" />
    <path
       style="fill:none;fill-rule:evenodd;stroke:#000000;stroke-width:1.89955926px;stroke-linecap:butt;stroke-linejoin:miter;stroke-opacity:1"
       d="m 67.144712,861.34997 c 3.243942,0.8939 -0.810986,3.25801 0,4.64197 0.229381,0.39145 0.858669,0.53695 1.08805,0.9284 0.324395,0.55359 -0.512912,1.41914 0,1.85678 1.450736,1.23786 1.088052,-1.54732 1.088052,0.92839 0,0.61895 0,1.23787 0,1.85681 0,0.30945 0.362684,0.92839 0,0.92839 -0.362684,0 0,-0.61894 0,-0.92839 0,-0.61894 0,-1.23786 0,-1.85681 0,-1.54731 0,-3.09463 0,-4.64197 0,-0.30946 0.162189,-0.65159 0,-0.92838 -0.584811,-0.99799 -3.483778,-2.78519 -2.176102,-2.78519 11.144519,0 1.467181,2.18029 3.264155,3.71357 0.256455,0.21883 0.831593,-0.21881 1.08805,0 0.36192,0.30883 -0.361922,1.54799 0,1.8568 0.256455,0.21882 0.831594,-0.21883 1.088052,0 0.256455,0.21882 0,0.61893 0,0.92839 0,0.30947 0,0.61894 0,0.92839 0,0.30948 0,0.61894 0,0.92839 0,0.30947 0.362682,0.92842 0,0.92842 -0.362684,0 0,-1.23787 0,-0.92842 0,0.61895 0,1.23787 0,1.85681 0,0.30945 0.256455,0.70957 0,0.92839 -0.035,0.0298 -3.000274,0 -3.264155,0 -0.263882,0 -3.229163,0.0298 -3.264155,0 -0.256456,-0.21882 0,-0.61894 0,-0.92839 0,-0.30947 0,-0.61894 0,-0.92839 0,-1.54733 0,-3.09466 0,-4.64199 0,-0.61892 -0.175927,-1.25634 0,-1.85678 0.278168,-0.94941 0.725369,-1.8568 1.088053,-2.78519 z"
       id="path5752"
       inkscape:connector-curvature="0" />
    <path
       style="fill:none;fill-rule:evenodd;stroke:#000000;stroke-width:1.56949365px;stroke-linecap:butt;stroke-linejoin:miter;stroke-opacity:1"
       d="m 55.548491,900.46832 c -1.109128,1.10533 -2.347521,2.09537 -3.327382,3.316 -0.29791,0.37111 0.269104,2.77962 0,3.31599 -2.758882,2.74942 0.392137,-0.78159 -0.831844,1.65799 -0.175368,0.34954 -0.554564,0.55266 -0.831846,0.829 -0.831844,0.82899 -1.789691,1.54908 -2.495534,2.48698 -5.584931,7.42108 0.512038,1.06267 -4.99107,7.46099 -8.087015,8.05931 0.74647,-1.26822 -3.32738,4.14498 -0.470564,0.62526 -1.109128,1.10533 -1.663692,1.65799 -0.27728,0.27634 -0.656476,0.47946 -0.831844,0.829 -0.248008,0.49431 0.392135,1.2672 0,1.65799 -0.196068,0.1954 -0.635777,-0.19539 -0.831846,0 -0.415922,0.4145 0.415924,2.07249 0,2.48699 -0.196067,0.1954 -0.554562,0 -0.831844,0"
       id="path5754"
       inkscape:connector-curvature="0" />
    <path
       style="fill:none;fill-rule:evenodd;stroke:#000000;stroke-width:1.89955926px;stroke-linecap:butt;stroke-linejoin:miter;stroke-opacity:1"
       d="m 94.345987,884.55983 c 1.45074,0.30948 3.014699,0.35778 4.352205,0.9284 0.324397,0.13844 -0.162178,0.65161 0,0.9284 3.608618,3.0791 -0.512905,-0.87531 1.088058,1.85679 2.2641,3.86375 -0.07508,-0.99249 2.1761,0.9284 0.57345,0.48931 0.6382,1.28101 1.08805,1.85679 0.56903,0.72829 1.71735,1.07389 2.1761,1.85679 0.16219,0.27677 -0.25645,0.70957 0,0.92839 0.25646,0.21883 0.8316,-0.21882 1.08806,0 0.25646,0.21883 -0.25646,0.70957 0,0.9284 2.25122,1.92088 -0.088,-2.93536 2.1761,0.92839 0.16219,0.2768 -0.16219,0.6516 0,0.92839 0.45877,0.7829 1.71733,1.0739 2.1761,1.85679 0.16219,0.2768 -0.16219,0.6516 0,0.92839 0.65284,1.11408 2.61133,1.67111 3.26416,2.78519 0.16218,0.27679 -0.25646,0.70957 0,0.92839 0.25645,0.21882 0.76365,-0.13844 1.08805,0 0.45876,0.19573 0.72536,0.61894 1.08805,0.92839 0.36269,0.30947 0.85867,0.53697 1.08805,0.9284 0.3244,0.5536 -0.51291,1.41916 0,1.85681 0.25646,0.21881 0.8316,-0.21883 1.08806,0 0.25644,0.21881 -0.1622,0.65159 0,0.92838 0.65282,1.11408 2.61131,1.67112 3.26414,2.78519 0.1622,0.27678 -0.25646,0.70957 0,0.92839 0.25646,0.21883 0.8316,-0.21882 1.08806,0 0.25645,0.21883 -0.25646,0.70957 0,0.9284 0.25645,0.21882 0.83159,-0.21883 1.08805,0 0.25645,0.21882 -0.25646,0.70957 0,0.92839 0.25645,0.21883 0.83159,-0.21882 1.08805,0 0.25645,0.21883 -0.25646,0.70957 0,0.9284 0.25645,0.21883 0.76365,-0.13845 1.08805,0 0.45877,0.19571 0.72536,0.61892 1.08806,0.92839"
       id="path5756"
       inkscape:connector-curvature="0" />
    <path
       style="fill:none;fill-rule:evenodd;stroke:#000000;stroke-width:1.89955926px;stroke-linecap:butt;stroke-linejoin:miter;stroke-opacity:1"
       d="m 39.94343,943.04872 c 0.362684,1.23785 0.876573,2.45045 1.08805,3.71357 0.153882,0.91907 0,1.8568 0,2.78518 0,2.16626 0,4.33252 0,6.49877 0,3.09464 0,6.1893 0,9.28395 0,0.48548 0.143045,3.46947 0,3.71357 -0.229381,0.39145 -0.858669,0.53695 -1.08805,0.9284 -0.196738,0.33574 0,3.99623 0,4.64197 0,3.71359 0,7.42717 0,11.14074 0,3.09466 0,6.18931 0,9.28396 0,1.23785 0,2.47576 0,3.71359 0,0.30943 0,1.23783 0,0.9284 0,-0.61897 0,-2.47577 0,-1.8568 0,0.9284 0,1.8568 0,2.78518 0,0.3094 0.362684,0.9284 0,0.9284 -0.362684,0 0,-0.619 0,-0.9284"
       id="path5758"
       inkscape:connector-curvature="0" />
    <path
       style="fill:none;fill-rule:evenodd;stroke:#000000;stroke-width:1.89955926px;stroke-linecap:butt;stroke-linejoin:miter;stroke-opacity:1"
       d="m 67.144712,941.19194 c 0,2.47571 0,4.95144 0,7.42715 0,0.30946 -0.256457,0.70957 0,0.92838 0.256455,0.21883 0.831593,-0.21881 1.08805,0 0.256457,0.21883 0,0.61893 0,0.9284 0,0.30948 0,0.61893 0,0.9284 0,3.09465 0,6.1893 0,9.28396 0,1.85678 0,3.71357 0,5.57035 0,0.30947 0,0.61893 0,0.9284 0,0.30947 -0.256457,0.70957 0,0.9284 0.256457,0.21881 0.831596,-0.21883 1.088052,0 0.33691,0.28748 -0.336911,4.3545 0,4.64196 0.256455,0.21883 0.831595,-0.21882 1.088053,0 0.381924,0.3259 -0.375778,4.00072 0,4.64199 0.229381,0.39143 0.858669,0.53694 1.08805,0.92839 0.162189,0.27678 0,0.61893 0,0.9284 0,0.30945 0,0.61892 0,0.9284 0,1.85678 0,3.71357 0,5.57035 0,5.90226 0,11.21008 0,14.85433"
       id="path5760"
       inkscape:connector-curvature="0" />
    <path
       style="fill:none;fill-rule:evenodd;stroke:#000000;stroke-width:1.89955926px;stroke-linecap:butt;stroke-linejoin:miter;stroke-opacity:1"
       d="m 98.698192,937.47834 c 0,5.87983 0,11.75967 0,17.6395 0,0.87441 -0.20631,4.11386 0,4.64199 0.162192,0.41519 0.858674,0.53695 1.088058,0.9284 0.162192,0.27677 -0.114711,0.63479 0,0.92838 0.25646,0.65648 0.8316,1.20033 1.08804,1.8568 0.22829,0.58432 0,3.80514 0,4.64197 0,0.30946 -0.25644,0.70957 0,0.92838 0.25646,0.21883 0.8316,-0.21881 1.08806,0 0.22244,0.18982 -0.2157,2.4171 0,2.78519 0.22939,0.39145 0.85868,0.53697 1.08805,0.92839 0.14305,0.24413 0,3.22812 0,3.7136 0,3.40792 0,2.41098 0,6.49876 0,0.22516 -0.0349,2.75533 0,2.78517 0.25646,0.21883 0.8316,-0.21882 1.08805,0 0.22244,0.18981 -0.2157,2.41709 0,2.78518 0.22939,0.39145 0.85868,0.53695 1.08805,0.9284 0.3244,0.5536 -0.51291,1.41914 0,1.85679 0.25646,0.21882 0.8316,-0.21882 1.08806,0 0.25646,0.21882 -0.16219,0.65161 0,0.92839 0.22938,0.39145 0.85867,0.53696 1.08805,0.92841 0.14498,0.24741 0,5.15042 0,5.57038 0,0.30943 -0.16219,0.65156 0,0.9284 0.22938,0.39138 0.85867,0.53688 1.08805,0.92838 0.16219,0.2767 0,0.6189 0,0.9284 0,0.3094 0,0.6189 0,0.9284 0,1.8568 0,3.7136 0,5.5704 0,0.6189 0,1.2378 0,1.8567 0,0.3095 0.36268,0.9285 0,0.9285 -1.60096,0 2.52056,-3.0792 -1.08805,0 -2.1761,-1.2379 -4.24208,-2.6299 -6.52832,-3.7136 -1.002562,-0.4753 -2.176098,-0.619 -3.264142,-0.9284 -1.088058,-0.3095 -2.176103,-0.619 -3.264161,-0.9284 -2.176102,-0.619 -4.302974,-1.3821 -6.528301,-1.8568 -2.140252,-0.4566 -4.352205,-0.619 -6.528307,-0.9284 -2.176103,-0.3095 -4.333139,-0.7411 -6.528308,-0.9284 -1.443537,-0.1232 -2.90147,0 -4.352204,0 -1.450737,0 -2.901471,0 -4.352208,0 -1.450734,0 -2.916051,0.1751 -4.352204,0 -1.135379,-0.1384 -2.132852,-0.7676 -3.264154,-0.9284 -1.073247,-0.1526 -2.208589,0.2252 -3.264153,0 -0.497598,-0.1064 -0.60146,-0.78996 -1.088052,-0.92838 -0.398987,-0.11356 -6.341629,0 -6.528308,0 -2.901469,0 -5.80294,0 -8.704411,0 -0.725366,0 -1.450734,0 -2.176102,0 -0.362684,0 -1.08805,0.30943 -1.08805,0 0,-0.30954 0.725366,0 1.08805,0 0.362684,0 1.088052,-0.30954 1.088052,0 0,0.30943 -1.450736,0 -1.088052,0 2.176102,0 4.352205,0 6.528308,0 0.362683,0 0.725367,0 1.088051,0 0.362685,0 0.763658,-0.13842 1.088052,0 0.458763,0.19564 0.629289,0.73268 1.088051,0.92838 0.431404,0.184 3.041717,-0.1898 3.264153,0 0.256458,0.2188 -0.324394,0.79 0,0.9284 0.703917,0.3003 3.961362,-0.3335 4.352206,0 0.256457,0.2188 -0.256457,0.7096 0,0.9284 0.256457,0.2188 0.763658,-0.1384 1.088052,0 0.458763,0.1957 0.629288,0.7327 1.088051,0.9284 0.590253,0.2518 4.05449,-0.2541 4.352206,0 0.256455,0.2188 -0.256457,0.7096 0,0.9284 0.04378,0.037 3.952632,0 4.352204,0 0.771211,0 6.246991,-0.12 6.528308,0 0.458761,0.1957 0.629288,0.7326 1.088052,0.9284 0.393474,0.1679 4.683472,0 5.440255,0 3.989523,0 7.979043,0 11.968564,0 2.538792,0 5.077576,0 7.61636,0 0.725363,0 1.450739,0 2.176102,0 0.36268,0 1.08804,-0.3095 1.08804,0 0,0.3094 -1.08804,-0.3095 -1.08804,0 0,1.5395 1.52584,0.6509 2.1761,0.9284 0.45877,0.1956 0.62929,0.7326 1.08805,0.9284 0.64879,0.2767 1.66319,-0.4377 2.1761,0 1.45074,1.2378 -1.81341,0.9284 1.08806,0.9284 1.0725,0 3.2486,0 2.1761,0 -1.08805,0 -2.1761,0 -3.26416,0 -0.36268,0 -1.08805,0.3094 -1.08805,0 0,-0.3095 0.72537,0 1.08805,0"
       id="path5762"
       inkscape:connector-curvature="0" />
    <path
       style="fill:none;fill-rule:evenodd;stroke:#000000;stroke-width:1.89955926px;stroke-linecap:butt;stroke-linejoin:miter;stroke-opacity:1"
       d="m 51.911994,1006.1796 c 0,4.023 0,8.046 0,12.0691 0,0.6189 0,1.2379 0,1.8568 0,0.3095 0.362683,0.9284 0,0.9284 -0.362684,0 0.362683,-0.9284 0,-0.9284 -0.512913,0 -0.629289,0.7327 -1.088053,0.9284 -0.324392,0.1384 -0.725367,0 -1.088051,0 -0.362683,0 -0.725367,0 -1.088051,0 -1.813418,0 -3.626836,0 -5.440256,0 -1.450735,0 -2.901469,0 -4.352206,0 -0.362684,0 -0.725366,0 -1.08805,0 -0.362684,0 -1.088052,0.3095 -1.088052,0 0,-0.3095 0.725368,0 1.088052,0"
       id="path5764"
       inkscape:connector-curvature="0" />
    <path
       style="fill:none;fill-rule:evenodd;stroke:#000000;stroke-width:1.89955926px;stroke-linecap:butt;stroke-linejoin:miter;stroke-opacity:1"
       d="m 85.641583,1004.3228 c 0,3.7136 0,7.4272 0,11.1407 0,0.6086 0,1.2481 0,1.8568 0,0.3095 0.362684,0.9284 0,0.9284 -0.362684,0 0,-1.2379 0,-0.9284 0,0.6189 0,1.2379 0,1.8568 0,0.3095 0.362684,0.9284 0,0.9284 -0.362684,0 0,-1.2379 0,-0.9284 0,0.6189 -0.324394,1.3032 0,1.8568 0.162189,0.2768 0.763656,-0.1385 1.08805,0 0.458765,0.1957 0.629291,0.7327 1.088053,0.9284 0.324393,0.1384 0.831594,-0.2189 1.088052,0 0.256455,0.2188 -0.256458,0.7095 0,0.9284 0.256455,0.2188 0.763656,-0.1385 1.08805,0 0.458762,0.1957 0.629288,0.7326 1.088052,0.9284 0.33113,0.1412 2.774145,0 3.264147,0 2.538797,0 5.077581,0 7.616363,0 0.36268,0 0.72537,0 1.08805,0 0.36269,0 0.8316,0.2188 1.08805,0 0.25646,-0.2189 -0.25645,-0.7096 0,-0.9284 0.26183,-0.2235 4.09039,0.2234 4.35221,0 0.096,-0.082 0,-3.5862 0,-0.9284"
       id="path5766"
       inkscape:connector-curvature="0" />
    <path
       style="fill:none;fill-rule:evenodd;stroke:#000000;stroke-width:1.89955926px;stroke-linecap:butt;stroke-linejoin:miter;stroke-opacity:1"
       d="m 47.559788,1004.3228 c 0,-9.25287 -1.025823,-1.0347 1.088051,-4.64198 0.162191,-0.27684 0,-0.61897 0,-0.9284 0,-0.30943 0,-0.61897 0,-0.9284 0,-0.30943 -0.362683,-0.9284 0,-0.9284 0.362684,0 0,0.61897 0,0.9284"
       id="path5768"
       inkscape:connector-curvature="0" />
    <path
       style="fill:none;fill-rule:evenodd;stroke:#000000;stroke-width:1.89955926px;stroke-linecap:butt;stroke-linejoin:miter;stroke-opacity:1"
       d="m 48.647839,820.03641 c -0.544025,0.61891 -0.990935,1.30971 -1.632076,1.85679 -0.128223,0.10952 -0.415798,-0.10953 -0.544026,0 -0.12821,0.10952 0.128236,0.35477 0,0.46419 -0.12821,0.10931 -0.415797,-0.10952 -0.544025,0 -0.128223,0.10931 0.08111,0.32579 0,0.46419 -0.114685,0.19573 -0.429335,0.26848 -0.544026,0.4642 -0.669955,1.1433 1.579163,-0.41904 -0.544027,1.3926 -0.128236,0.10952 -0.415796,-0.1093 -0.544025,0 -0.286726,0.24465 -0.257298,0.68373 -0.544025,0.92838 -0.128236,0.10931 -0.415799,-0.10952 -0.544026,0 -0.128223,0.10931 0.08111,0.32582 0,0.4642 -0.114685,0.19572 -0.429336,0.26849 -0.544026,0.4642 -0.08111,0.13845 0.128236,0.35478 0,0.4642 -1.125608,0.96043 0.044,-1.46767 -1.08805,0.4642 -0.162189,0.2768 0.256457,0.70957 0,0.92839 -0.128236,0.10952 -0.415799,-0.1093 -0.544027,0 -0.12821,0.10952 0,0.30947 0,0.4642 0,0.21887 0.02465,2.29995 0,2.32098 -0.12821,0.10953 -0.415797,-0.10953 -0.544025,0 -0.272013,0.23211 0.272012,1.16051 0,1.3926 -0.128223,0.10952 -0.415797,-0.10953 -0.544025,0 -0.272013,0.2321 0.272012,1.16049 0,1.39258 -0.128223,0.10953 -0.415797,-0.10952 -0.544027,0 -0.256456,0.21884 0.256458,0.70959 0,0.9284 -0.128236,0.10953 -0.415798,-0.10953 -0.544026,0 -0.256455,0.21882 0.256457,0.70957 0,0.92841 -0.256455,0.21883 -0.831593,-0.21884 -1.08805,0 -0.128236,0.1093 0.181336,0.4642 0,0.4642 -0.181334,0 0,-0.30947 0,-0.4642 0,-0.61894 0,-1.23786 0,-1.85681 0,-1.08861 -0.128236,0.21884 0.544025,-0.92838 0.07033,-0.12002 0,-2.45616 0,-2.78519 0,-0.15477 -0.08111,-0.32579 0,-0.4642 0.367677,-0.62745 0.720376,-0.30095 1.088051,-0.92839 0.145039,-0.2475 -0.145039,-0.68088 0,-0.9284 1.804306,-1.53954 -0.256456,0.43766 0.544027,-0.92839 0.114685,-0.19571 0.429334,-0.26848 0.544025,-0.4642 0.08111,-0.13844 -0.128223,-0.35477 0,-0.4642 0.256456,-0.21881 0.831594,0.21883 1.088052,0 0.128236,-0.10952 -0.128236,-0.35479 0,-0.4642 0.128236,-0.10952 0.415798,0.10931 0.544025,0 0.181623,-0.15493 -0.181622,-0.77341 0,-0.92838 0.128236,-0.1093 0.381828,0.0691 0.544025,0 2.264106,-0.96595 -0.581583,0.0321 0.544026,-0.9284 0.128236,-0.10953 0.415798,0.10953 0.544026,0 0.128223,-0.10953 -0.08111,-0.3258 0,-0.4642 0.114686,-0.19572 0.362683,-0.30946 0.544025,-0.4642 0.181336,-0.15476 0.314644,-0.36633 0.544025,-0.46419 0.162191,-0.0691 0.415798,0.10931 0.544027,0 0.256457,-0.21882 -0.256457,-0.70956 0,-0.92839 0.128236,-0.10953 0.415799,0.10952 0.544026,0 0.128236,-0.10953 0,-0.30948 0,-0.4642 0,-0.15476 0,-0.61894 0,-0.4642 0,2.02896 -0.162189,0.36155 0.544025,0 7.159332,-3.66528 -3.248849,3.70052 3.80818,-2.32098 0.177016,-0.15108 0.911032,0.15107 1.088051,0 0.128236,-0.10953 -0.128223,-0.3548 0,-0.4642 0.128236,-0.10953 0.381829,0.0691 0.544026,0 1.344506,-0.57362 -0.187792,-0.46421 1.088051,-0.46421 0.544025,0 1.088051,0 1.632076,0 0.181336,0 0.544027,-0.15476 0.544027,0 0,0.15476 -0.544027,0.15476 -0.544027,0 0,-0.21881 0.429336,-0.26847 0.544027,-0.4642 0.08111,-0.13845 0,-0.30945 0,-0.4642 0,-0.15476 0.128236,-0.35478 0,-0.46419 -0.128223,-0.10953 -0.362685,0 -0.544027,0 -0.181334,0 -0.362683,0 -0.544025,0 -0.906709,0.46419 -1.813418,0.92839 -2.720128,1.39259 0,0.15476 0.128236,0.35479 0,0.46421 -0.180308,0.15388 -0.907751,-0.15388 -1.088051,0 -0.12821,0.1093 0.128236,0.35478 0,0.4642 -0.12821,0.1093 -0.415797,-0.10953 -0.544025,0 -0.128236,0.1093 0.128236,0.35477 0,0.46419 -0.128236,0.10931 -0.443438,-0.12878 -0.544027,0 -0.318095,0.40712 -0.03112,1.17377 -0.544026,1.3926 -0.512913,0.21882 -1.813419,0 -1.632076,-0.4642 0.181355,-0.4642 1.099637,0.64593 1.632076,0.4642 0.607076,-0.20719 0.625719,-0.99811 1.088053,-1.3926 0.256453,-0.21882 0.831594,0.21883 1.088049,0 0.128237,-0.10952 -0.128222,-0.35479 0,-0.46419 0.02466,-0.0211 2.463622,0 2.720129,0 0.181334,0 0.415799,0.1093 0.544026,0 0.128236,-0.10953 0,-0.30947 0,-0.4642 0,-0.15476 0,-0.30947 0,-0.46421 0,-0.4642 0,-0.9284 0,-1.39259 2.316906,-1.14965 2.203839,-0.9284 4.352205,-0.9284 0.554723,0 1.577129,0 1.088051,0 -0.362684,0 -1.450734,0 -1.088051,0 0.544026,0 1.104294,0.11265 1.632078,0 0.248798,-0.053 0.314644,-0.36632 0.544026,-0.4642 0.295126,-0.12581 2.027244,0.12704 2.176102,0 0.128223,-0.1093 -0.128236,-0.35477 0,-0.4642 0.128223,-0.1093 0.415797,0.10953 0.544025,0 0.128223,-0.1093 -0.128236,-0.35477 0,-0.46419 0.0219,-0.0186 1.976318,0 2.176102,0 0.181335,0 0.362685,0 0.544025,0 0.181335,0 0.544028,-0.15476 0.544028,0 0,0.15477 -0.725368,0 -0.544028,0 0.362685,0 0.763659,-0.13845 1.088053,0 0.162189,0.0691 0,0.30947 0,0.46419 0,0.1295 0,2.88261 0,1.3926"
       id="path5780"
       inkscape:connector-curvature="0" />
    <path
       style="fill:none;fill-rule:evenodd;stroke:#000000;stroke-width:1.89955926px;stroke-linecap:butt;stroke-linejoin:miter;stroke-opacity:1"
       d="m 72.584969,814.46602 c -0.278017,2.802 2.066289,-0.0937 2.720127,0.4642 0.128223,0.10953 -0.128236,0.3548 0,0.4642 0.272013,0.2321 1.360065,-0.23209 1.632078,0 0.128223,0.1093 -0.128223,0.3548 0,0.4642 0.01748,0.0158 1.500136,0 1.632077,0 0.362682,0 1.450734,0 1.08805,0 -0.362684,0 -1.450734,0 -1.08805,0 0.906709,0 1.813418,0 2.720128,0 0.19978,0 2.154209,-0.0188 2.176102,0 0.128223,0.1093 -0.128236,0.35478 0,0.46419 0.128223,0.10952 0.381829,-0.0691 0.544025,0 0.229381,0.0979 0.314644,0.36634 0.544025,0.4642 0.16219,0.0691 0.381829,-0.0691 0.544027,0 0.229381,0.0979 0.314644,0.36634 0.544025,0.4642 0.162189,0.0691 0.415797,-0.10931 0.544025,0 0.128223,0.10952 -0.128223,0.35479 0,0.46421 0.128223,0.1093 0.415797,-0.10953 0.544028,0 0.128223,0.1093 0,0.30946 0,0.4642 0.181334,0 0.415796,-0.10953 0.544025,0 0.128223,0.10952 -0.128223,0.35477 0,0.46419 0.256455,0.21883 0.831594,-0.21884 1.08805,0 0.128223,0.10931 -0.128223,0.35478 0,0.4642 0.128223,0.10953 0.415798,-0.10952 0.544027,0 0.128223,0.10953 -0.128236,0.35478 0,0.4642 0.128223,0.10953 0.415797,-0.10952 0.544025,0 0.128236,0.10953 -0.128223,0.35478 0,0.4642 0.180964,0.1544 0.90709,-0.15441 1.08805,0 0.128236,0.10953 -0.128223,0.35477 0,0.46419 0.180965,0.15441 0.907092,-0.15441 1.08805,0 0.128184,0.10953 -0.12821,0.35478 0,0.4642 0.128184,0.10952 0.415799,-0.1093 0.544022,0 0.128184,0.10952 -0.128184,0.35477 0,0.4642 0.128184,0.10952 0.415799,-0.10953 0.544035,0 0.128184,0.10952 -0.128314,0.35477 0,0.4642 0.128184,0.10952 0.4158,-0.10953 0.544023,0 0.256459,0.21881 -0.256459,0.70956 0,0.92838 0.128184,0.10953 0.415799,-0.10952 0.544022,0 0.128184,0.10953 -0.128184,0.35479 0,0.4642 0.128184,0.10953 0.415799,-0.10953 0.544022,0 0.128184,0.10953 -0.128183,0.35479 0,0.4642 0.128184,0.10953 0.4158,-0.10953 0.544036,0 0.256459,0.21883 -0.256459,0.70957 0,0.9284 0.128184,0.10952 0.415799,-0.1093 0.544022,0 0.128184,0.10952 -0.128184,0.35477 0,0.4642 0.128184,0.10952 0.4158,-0.10953 0.544022,0 0.128184,0.10952 -0.128183,0.35477 0,0.46418 0.128184,0.10931 0.4158,-0.10952 0.544023,0 0.256459,0.21883 -0.256446,0.70957 0,0.9284 0.128184,0.10953 0.415799,-0.10952 0.544035,0 0.256459,0.21883 -0.256459,0.70957 0,0.9284 0.128184,0.10953 0.4158,-0.1093 0.544023,0 0.128183,0.10953 -0.128184,0.35479 0,0.46419 0.128183,0.10952 0.415799,-0.1093 0.544022,0 0.256459,0.21883 -0.256459,0.70958 0,0.9284 0.128184,0.10952 0.415799,-0.10953 0.544022,0 0.02184,0.0186 0,1.68632 0,1.85678"
       id="path5782"
       inkscape:connector-curvature="0" />
    <path
       style="fill:#ffd5d5;fill-opacity:1;stroke:#000000;stroke-width:0.28865659;stroke-opacity:0.9888268"
       d="m 80.408901,822.52551 c -11.232632,-3.97381 -11.750912,-4.18736 -10.470108,-4.31408 1.206877,-0.1194 1.364234,-0.2168 1.507774,-0.93323 l 0.160257,-0.79993 3.041779,-0.0763 c 2.73324,-0.0685 3.137138,-0.0161 3.981868,0.51675 0.517049,0.32619 0.940088,0.74176 0.940088,0.92352 0,0.55386 1.589502,1.43572 2.587799,1.43572 0.684271,0 1.351265,0.32741 2.444412,1.19988 0.826848,0.65992 1.726707,1.19987 1.99969,1.19987 0.272982,0 0.847884,0.29996 1.277562,0.6666 0.429677,0.36662 0.898401,0.6666 1.041608,0.6666 0.143209,0 0.42661,0.34243 0.629784,0.76096 0.203174,0.41853 0.918573,1.10845 1.589777,1.53316 1.138435,0.72037 1.82346,1.463 1.309887,1.42003 -0.123475,-0.0101 -5.542495,-1.90014 -12.042183,-4.19956 z"
       id="path5804"
       inkscape:connector-curvature="0" />
    <path
       style="fill:#ffffff;fill-rule:evenodd;stroke:#000000;stroke-width:1.89955926px;stroke-linecap:butt;stroke-linejoin:miter;stroke-opacity:1"
       d="m 62.792507,816.32281 c -0.725368,-0.46419 -1.365118,-1.04658 -2.176102,-1.39259 -0.324394,-0.13844 -0.725369,0 -1.088053,0 -0.906709,0 -1.813418,0 -2.720127,0 -0.181336,0 -0.362684,0 -0.544026,0 -0.181335,0 -0.415797,-0.10952 -0.544027,0 -0.128223,0.10953 0.08111,0.3258 0,0.4642 -0.114685,0.19573 -0.429334,0.26848 -0.544024,0.4642 -0.08111,0.13844 0.128236,0.35478 0,0.46419 -0.128223,0.10952 -0.415798,-0.10953 -0.544027,0 -0.128223,0.10952 0.128236,0.35479 0,0.4642 -0.128223,0.10952 -0.415796,-0.10953 -0.544025,0 -0.128223,0.10952 0,0.30947 0,0.4642 0,0.15476 -0.128223,0.35479 0,0.46421 0.02466,0.0211 2.463621,0 2.720129,0 0.181334,0 0.415797,0.1093 0.544025,0 0.128223,-0.10953 -0.128236,-0.35479 0,-0.46421 0.128223,-0.10931 0.362684,0 0.544025,0 0.385607,0 3.123495,0.06 3.264155,0 0.584809,-0.2495 0.978239,-0.9284 1.632077,-0.9284 0.810985,0 1.42312,0.67141 2.176102,0.9284 0.244023,0.0833 1.32467,0 1.632078,0 1.08805,0 2.176102,0 3.264152,0 0.181334,0 0.544028,-0.15476 0.544028,0 0,0.15476 -0.544028,0.15476 -0.544028,0 0,-0.21881 0.429335,-0.26847 0.544028,-0.4642 0.05579,-0.0953 0.07673,-1.32712 0,-1.39259 -0.01748,-0.0158 -1.500139,0 -1.632078,0 -0.781027,0 -2.07376,-0.13791 -2.72013,0 -0.248798,0.053 -0.314644,0.36634 -0.544025,0.4642 -0.16219,0.0691 -0.366205,-0.0303 -0.544025,0 -0.733173,0.1251 -1.457179,0.28893 -2.176102,0.46419 -0.55139,0.13441 -1.154936,0.19279 -1.632077,0.4642 -0.15088,0.0858 -0.172041,0.51314 0,0.4642 0.620285,-0.17642 0.978239,-0.9284 1.632077,-0.9284 0.810985,0 1.406733,0.70959 2.176102,0.9284 0.516108,0.14686 1.08805,0 1.632078,0 0.181334,0 0.362684,0 0.544025,0 0.181334,0 0.415797,0.10952 0.544025,0 0.128223,-0.10931 -0.128236,-0.35478 0,-0.4642 0.128223,-0.10953 0.415796,0.10952 0.544027,0 0.128236,-0.10953 -0.128236,-0.35478 0,-0.4642 0.128236,-0.10953 0.415797,0.10952 0.544025,0 0.128236,-0.10953 0.162189,-0.39499 0,-0.46419 -0.324396,-0.13844 -0.725368,0 -1.088052,0 -0.906709,0 -1.818964,-0.0854 -2.720128,0 -0.743119,0.0703 -1.428411,0.46419 -2.176102,0.46419 -5.248809,0 0.282062,-1.04872 -2.176102,0 -0.165563,0.0707 -1.387073,0 -1.632078,0 -0.181335,0 -0.544026,0.15477 -0.544026,0 0,-0.15476 0.362684,0 0.544026,0 0.362684,0 0.725367,0 1.088052,0 0.362682,0 0.725367,0 1.088051,0 0.544025,0 1.132039,0.18288 1.632077,0 1.862965,0.48493 1.681558,-1.4137 2.720127,-1.85679 0.324396,-0.13844 0.831596,0.21883 1.088053,0 0.128223,-0.10952 -0.128236,-0.35477 0,-0.4642 0.128223,-0.10952 0.725366,0 0.544025,0 -0.699133,0 -3.308422,-0.24651 -3.80818,0.4642 -0.384683,0.54707 0.124718,1.57148 -0.544025,1.85679 -0.584811,0.24951 -1.025006,-0.72118 -1.632077,-0.92839 -0.336743,-0.11493 -0.74398,-0.0979 -1.088051,0 -0.243297,0.0691 -0.314646,0.36634 -0.544027,0.4642 -0.324394,0.13844 -0.763657,-0.13844 -1.088051,0 -0.229381,0.0979 -0.362683,0.30946 -0.544026,0.46419 -0.181336,0.15477 -0.429335,0.26848 -0.544025,0.4642 -0.08111,0.13844 0,0.30947 0,0.4642 0,0.15476 -0.181336,0.46421 0,0.46421 3.626838,0 -1.269393,-0.77367 1.632077,-1.39261 1.231492,-0.26269 2.583515,0.28499 3.80818,0 0.87476,-0.20356 1.365117,-1.04658 2.176102,-1.39259 1.385813,-0.59122 2.893084,-0.94794 4.352205,-1.39259 0.849545,-0.25888 4.188045,-1.25902 5.440257,-1.39259 0.719767,-0.0768 1.460603,0.1018 2.176103,0 1.970302,-0.28019 0.388414,-0.3978 1.632077,-0.9284 0.165561,-0.0707 1.38707,0 1.632075,0 0.181336,0 0.462928,-0.13844 0.544028,0 0.243294,0.41519 0,0.9284 0,1.3926 0,1.23786 0,2.47573 0,3.71357 0,0.20907 -0.0828,1.25133 0,1.39261 0.114685,0.19572 0.314644,0.36633 0.544025,0.4642 0.111598,0.0476 1.555354,0.0654 1.632077,0 0.128223,-0.10953 0.128223,-0.3548 0,-0.4642 -0.128236,-0.10953 -0.398954,0.0928 -0.544028,0 -0.615494,-0.39388 -0.972348,-1.05485 -1.632074,-1.39261 -0.311,-0.15915 -0.763659,0.13845 -1.088053,0 -0.458762,-0.19572 -0.677721,-0.66578 -1.08805,-0.92839 -0.324396,-0.20759 -0.750662,-0.27227 -1.088052,-0.4642 -0.213384,-0.12142 -0.314644,-0.36634 -0.544025,-0.4642 -0.324397,-0.13844 -0.831598,0.21883 -1.088053,0 -0.128223,-0.10952 0.128223,-0.35477 0,-0.4642 -0.128223,-0.10952 -0.415796,0.10953 -0.544025,0 -0.128236,-0.10952 0.128223,-0.35477 0,-0.46419 -0.130912,-0.11177 -2.045192,0.11176 -2.176102,0 -0.725368,-0.61892 0.906709,-0.46419 -0.544025,-0.46419 -1.813421,0 -3.626839,0 -5.440257,0 -0.284483,0 -2.033056,-0.061 -2.176103,0 -0.458761,0.19572 -0.629288,0.73267 -1.088052,0.92838 -0.324394,0.13845 -0.831595,-0.21881 -1.08805,0 -0.725368,0.61895 0.906709,0.4642 -0.544026,0.4642 -0.181334,0 -0.588008,-0.15002 -0.544026,0 0.196695,0.67134 1.661504,1.36748 1.088052,1.85679 -0.544026,0.4642 -0.943933,-1.09899 -1.632077,-1.39259 -0.763957,-0.32592 -0.478772,1.33692 -0.544025,1.39259 -0.128223,0.10952 -0.415798,-0.10953 -0.544026,0 -0.286728,0.24467 -0.257299,0.68376 -0.544027,0.92842 -0.286726,0.24465 -0.863124,0.1763 -1.088051,0.46419 -0.201179,0.25748 0.256457,0.70955 0,0.92839 -0.256455,0.21883 -0.763656,-0.13844 -1.088051,0 -0.16219,0.0691 0.08111,0.32579 0,0.4642 -0.114685,0.19572 -0.429335,0.26847 -0.544025,0.4642 -0.08111,0.13844 0.12821,0.35478 0,0.4642 -0.128236,0.10953 -0.415798,-0.10953 -0.544026,0 -0.12821,0.10953 0.128236,0.35477 0,0.46419 -0.12821,0.10953 -0.415797,-0.1093 -0.544027,0 -0.181623,0.15494 0.181622,0.77342 0,0.9284 -0.128223,0.10952 -0.381828,-0.0691 -0.544024,0 -0.584811,0.24949 -1.025006,0.72118 -1.632078,0.92839 -0.336743,0.11493 -0.786279,-0.17161 -1.088051,0 -0.33739,0.19192 -0.257299,0.68374 -0.544025,0.92839 -0.128236,0.10953 -0.381829,-0.0691 -0.544026,0 -0.229381,0.0979 -0.314644,0.36634 -0.544027,0.4642 -0.165561,0.0707 -1.387071,0 -1.632076,0 -0.181335,0 -0.544026,0.15476 -0.544026,0 0,-0.15476 0.725368,0 0.544026,0 -0.362684,0 -0.763657,0.13844 -1.088051,0 -0.08985,-0.0383 0,-1.26909 0,-1.39259 0,-0.15477 -0.08111,-0.32581 0,-0.46419 0.114685,-0.19574 0.362684,-0.30948 0.544025,-0.4642 0.362684,-0.30948 0.677722,-0.66581 1.088053,-0.9284 0.324393,-0.2076 0.750659,-0.27228 1.088049,-0.46419 0.694715,-0.39519 0.39334,-0.53323 1.088053,-0.9284 0.496961,-0.28269 1.320236,-0.39624 1.632076,-0.92839 0.375203,-0.6403 -0.658846,-0.41523 0.544026,-0.92839 0.162191,-0.0691 0.415798,0.10952 0.544025,0 0.128236,-0.1093 -0.08111,-0.32581 0,-0.46422 0.130054,-0.22193 1.748615,-1.11626 -0.544025,-0.4642 -0.243296,0.0691 -0.33064,0.34283 -0.544026,0.4642 -0.33739,0.19193 -0.750661,0.27229 -1.088051,0.46422 -0.426768,0.24275 -0.629288,0.73266 -1.088051,0.92839 -0.750406,0.32014 -0.486617,-0.56218 -1.088051,0.46419 -0.147569,0.25181 0.148864,1.72977 0,1.85679 -0.12821,0.10953 -0.415797,-0.1093 -0.544025,0 -0.128236,0.10953 0.128236,0.35478 0,0.4642 -0.128236,0.10952 -0.4158,-0.1093 -0.544027,0 -0.256456,0.21883 0.162189,0.65159 0,0.9284 -0.114685,0.19571 -0.429335,0.26846 -0.544026,0.46419 -0.08111,0.13845 0.128223,0.35478 0,0.46419 -0.128236,0.10953 -0.415797,-0.10952 -0.544025,0 -1.125608,0.96044 1.720078,-0.0375 -0.544026,0.9284 -0.16219,0.0691 -0.415798,-0.10953 -0.544025,0 -0.286727,0.24465 -0.2573,0.68374 -0.544026,0.9284 -0.12821,0.10952 -0.415797,-0.1093 -0.544025,0 -0.128223,0.10952 0.128236,0.35477 0,0.4642 -0.128223,0.10952 -0.415797,-0.10953 -0.544026,0 -0.128236,0.10952 0.128236,0.35477 0,0.46418 -0.128236,0.10931 -0.381828,-0.0691 -0.544027,0 -0.229381,0.0979 -0.314644,0.36635 -0.544025,0.4642 -0.725368,0.30948 -0.544025,-0.4642 -0.544025,0.4642 0,0.32902 0.07033,2.66517 0,2.78519 -0.114685,0.19573 -0.429335,0.26848 -0.544026,0.46419 -0.107857,0.18405 0.111206,1.2977 0,1.39259 -0.128223,0.10953 -0.381828,-0.0691 -0.544026,0 -0.229381,0.0979 -0.287569,0.4642 -0.544025,0.4642 -0.181334,0 0,-0.30945 0,-0.4642 0,-0.15476 -0.05736,-0.3174 0,-0.4642 0.181336,-0.30945 0.362684,-0.61891 0.544025,-0.92839 0,-0.30947 -0.114685,-0.6348 0,-0.92839 0.122795,-0.31434 1.424289,-1.03799 1.632077,-1.39259 0.08111,-0.13844 -0.128236,-0.35478 0,-0.4642 0.256457,-0.21883 0.831595,0.21882 1.088052,0 0.128236,-0.10952 0,-0.30947 0,-0.4642 0.362684,0 0.763658,0.13845 1.088051,0 0.16219,-0.0691 -0.12821,-0.35477 0,-0.4642 0.128236,-0.10952 0.381829,0.0691 0.544026,0 0.229381,-0.0979 0.314644,-0.36634 0.544025,-0.4642 0.162189,-0.0691 0.381829,0.0691 0.544026,0 0.229381,-0.0979 0.314644,-0.36633 0.544025,-0.46418 0.324394,-0.13846 0.763657,0.13844 1.088053,0 0.458761,-0.19573 0.629288,-0.73269 1.088049,-0.9284 0.162191,-0.0691 0.415799,0.10953 0.544027,0 0.128236,-0.1093 -0.08111,-0.32581 0,-0.4642 0.114685,-0.19574 0.362684,-0.30947 0.544026,-0.4642 0.181336,-0.15476 0.314644,-0.36633 0.544025,-0.4642 0.16219,-0.0691 0.415798,0.10953 0.544026,0 0.12821,-0.10952 -0.08111,-0.3258 0,-0.46419 1.132052,-1.93189 -0.03755,0.49623 1.088051,-0.46419 0.128236,-0.10953 -0.08111,-0.32582 0,-0.4642 0.229381,-0.39145 0.80354,-0.56425 1.088052,-0.9284 0.224925,-0.28788 0.206634,-0.73648 0.544024,-0.92839 0.301772,-0.17161 0.74398,0.0979 1.088053,0 0.243294,-0.0691 0.330641,-0.34283 0.544025,-0.4642 0.33739,-0.19193 0.750661,-0.27229 1.088051,-0.4642 0.426768,-0.24277 0.601459,-0.79 1.088051,-0.92839 0.344073,-0.0979 0.763659,0.13845 1.088053,0 0.162189,-0.0691 0,-0.30947 0,-0.46419 0.725367,-0.30948 1.389329,-0.76058 2.176102,-0.92842 0.703709,-0.15019 1.46482,0.12143 2.176102,0 0.251475,-0.043 0.30073,-0.39499 0.544025,-0.46419 0.425317,-0.1209 2.964776,0.12774 3.264155,0 0.229381,-0.0979 0.314644,-0.36633 0.544025,-0.4642 0.165563,-0.0707 1.387071,0 1.632078,0 1.450734,0 2.90147,0 4.352204,0 1.813419,0 3.626837,0 5.440258,0 0.181334,0 0.362681,0 0.544025,0 0.181334,0 0.415796,-0.10953 0.544024,0 0.128237,0.1093 -0.128223,0.3548 0,0.4642 0.128237,0.1093 0.415797,-0.10953 0.544025,0 0.256458,0.21882 -0.256455,0.70957 0,0.92839 0.128236,0.10952 0.4158,-0.10953 0.544028,0 0.128223,0.10952 -0.128236,0.35479 0,0.46422 0.128223,0.10952 0.415797,-0.1093 0.544025,0 0.128223,0.10952 -0.08111,0.32578 0,0.46419 0.114685,0.19572 0.429334,0.26847 0.544025,0.4642 0.08111,0.13844 -0.128236,0.35477 0,0.46419 0.128223,0.10931 0.415797,-0.10952 0.544025,0 0.128236,0.10931 -0.128236,0.35478 0,0.4642 0.128236,0.10953 0.381829,-0.0691 0.544027,0 2.264105,0.96593 -0.581584,-0.0321 0.544025,0.9284 0.128223,0.10953 0.415797,-0.10953 0.544025,0 0.128223,0.10953 -0.128223,0.35477 0,0.46419 0.272013,0.23209 1.360065,-0.2321 1.632078,0 0.128223,0.10953 -0.128223,0.35478 0,0.4642 0.128223,0.10952 0.415796,-0.1093 0.544025,0 0.128223,0.10952 -0.128223,0.35477 0,0.4642 0.128223,0.10952 0.415798,-0.10953 0.544027,0 0.128223,0.10952 -0.128236,0.35477 0,0.4642 0.256455,0.21881 0.831595,-0.21883 1.08805,0 0.128236,0.10952 -0.08111,0.32579 0,0.46419 0.114685,0.19572 0.429334,0.26847 0.544025,0.46419 0.08111,0.13846 -0.08111,0.32582 0,0.4642 1.132051,1.93188 -0.03755,-0.49624 1.08805,0.4642 0.128184,0.10953 -0.0811,0.32581 0,0.4642 0.114711,0.19571 0.362681,0.30947 0.544022,0.4642 0.181341,0.15476 0.314652,0.36633 0.544035,0.4642 0.162179,0.0691 0.4158,-0.10953 0.544023,0 0.128184,0.10952 -0.128184,0.35477 0,0.46418 0.128184,0.10931 0.415799,-0.10952 0.544022,0 0.256459,0.21883 -0.256459,0.70957 0,0.9284 0.128184,0.10953 0.415799,-0.10952 0.544022,0 0.128184,0.10953 -0.128183,0.35478 0,0.4642 0.180975,0.15441 0.907097,-0.15441 1.088058,0 0.128184,0.10953 -0.128184,0.3548 0,0.4642 0.128184,0.10953 0.4158,-0.1093 0.544022,0 0.128184,0.10953 -0.128183,0.35479 0,0.46419 0.128184,0.10952 0.4158,-0.1093 0.544023,0 0.128184,0.10952 0,0.30947 0,0.4642 0,0.15477 0.128184,0.35479 0,0.4642 -0.128184,0.10952 -0.362682,0 -0.544023,0 -0.181327,0 -0.415799,0.10952 -0.544022,0 -0.128184,-0.10953 0.128184,-0.35478 0,-0.4642 -0.128184,-0.1093 -0.415799,0.10952 -0.544022,0 -0.128184,-0.1093 0.128184,-0.35478 0,-0.4642 -0.128184,-0.1093 -0.415799,0.10952 -0.544036,0 -0.128183,-0.1093 0,-0.30946 0,-0.46419"
       id="path5784"
       inkscape:connector-curvature="0" />
    <ellipse
       style="fill:#ffffff;fill-opacity:1;stroke:#000000;stroke-width:1.89955926;stroke-opacity:0.9888268"
       id="path5788"
       cx="82.377426"
       cy="839.76477"
       rx="3.8081796"
       ry="3.4814806" />
    <ellipse
       style="fill:#ffffff;fill-opacity:1;stroke:#000000;stroke-width:1.89955926;stroke-opacity:0.9888268"
       id="path5790"
       cx="55.176151"
       cy="839.99695"
       rx="3.264154"
       ry="3.2493818" />
    <path
       style="fill:none;fill-rule:evenodd;stroke:#000000;stroke-width:1.89955926px;stroke-linecap:butt;stroke-linejoin:miter;stroke-opacity:1"
       d="m 69.320814,847.42405 c -2.321176,-1.48544 -1.269393,-1.3926 -2.720127,-1.3926 -0.181336,0 -0.415798,-0.1093 -0.544028,0 -0.128223,0.10953 0,0.30948 0,0.4642 0,0.15476 0,0.30947 0,0.4642 0,0.15476 -0.128223,0.35478 0,0.4642 0.128236,0.10953 0.362685,0 0.544028,0 0.181334,0 0.362684,0 0.544025,0 0.725368,0 1.450734,0 2.176102,0 z"
       id="path5792"
       inkscape:connector-curvature="0" />
    <path
       style="fill:#ff0000;fill-rule:evenodd;stroke:#000000;stroke-width:1.89955926px;stroke-linecap:butt;stroke-linejoin:miter;stroke-opacity:1"
       d="m 61.16043,852.53023 c -0.155568,2.18824 2.078987,-0.54708 2.720127,0 0.128236,0.10952 -0.128236,0.35477 0,0.4642 0.272014,0.23208 1.360065,-0.23212 1.632077,0 0.128236,0.10952 -0.128223,0.35477 0,0.46419 0.256456,0.21882 0.763656,-0.13844 1.088053,0 0.229381,0.0979 0.314644,0.36632 0.544025,0.4642 0.162189,0.0691 0.362684,0 0.544025,0 0.181334,0 0.362684,0 0.544027,0 0.181335,0 0.544025,-0.15477 0.544025,0 0,0.15476 -0.725368,0 -0.544025,0 0.362682,0 0.725366,0 1.08805,0 0.906709,0 1.813418,0 2.720128,0 0.362684,0 0.725368,0 1.088052,0 0.181334,0 0.544025,-0.15477 0.544025,0 0,0.15476 -0.725368,0 -0.544025,0 0.725368,0 1.450734,0 2.176102,0 0.181335,0 0.415797,0.10953 0.544025,0 0.256455,-0.21883 -0.362684,-0.92839 0,-0.92839 0.181335,0 0,0.61892 0,0.46419 0,-0.46419 0,-0.92839 0,-1.3926 0,-0.15477 -0.128223,-0.35479 0,-0.4642 0.128223,-0.10953 0.415797,0.10952 0.544025,0 0.128236,-0.10953 -0.128223,-0.35478 0,-0.4642 1.450737,0 -0.181334,0.15476 0.544028,-0.4642 0.128223,-0.10953 0.415796,0.1093 0.544025,0 0.256455,-0.21882 -0.256457,-0.70957 0,-0.92839 0.128223,-0.1093 0.544025,-0.15477 0.544025,0 0,0.21882 -0.362685,0.30947 -0.544025,0.46419"
       id="path5794"
       inkscape:connector-curvature="0" />
    <path
       style="fill:#ff0000;fill-opacity:1;stroke:#000000;stroke-width:0.71068323;stroke-opacity:0.9888268"
       d="m 40.473251,905.26552 0,-31.83899 27.31258,0 27.312582,0 0,4.63847 c 0,2.55117 -0.395865,5.26962 -0.879694,6.041 -0.660015,1.0523 -0.660015,1.46502 0,1.65274 0.639912,0.18201 0.879694,7.21363 0.879694,25.798 l 0,25.54778 -27.312582,0 -27.31258,0 0,-31.839 z"
       id="path5796"
       inkscape:connector-curvature="0" />
    <path
       style="fill:#00ff00;fill-rule:evenodd;stroke:#000000;stroke-width:1.89955926px;stroke-linecap:butt;stroke-linejoin:miter;stroke-opacity:1"
       d="m 38.855377,949.54747 c 0,-1.54731 0,-3.09464 0,-4.64196 0,-0.30948 -0.256455,-0.70957 0,-0.92839 0.256457,-0.21883 0.831598,0.21882 1.088053,0 0.361921,-0.30882 -0.361921,-1.54799 0,-1.8568 0.256456,-0.21881 0.831594,0.21883 1.08805,0 0.16001,-0.13651 -0.128014,-2.78519 0,-2.78519 0.362684,0 0,1.23786 0,0.92841 0,-0.61895 0,-1.23786 0,-1.85681 0,-0.30945 -0.362683,-0.92839 0,-0.92839 0.362684,0 0,1.23787 0,0.92839 0,-0.61892 0,-1.23785 0,-1.85678 0,-0.30945 0.362684,0.92839 0,0.92839 -0.362683,0 0,-1.23784 0,-0.92839 0,2.16626 0,4.33251 0,6.49877 0,0.30945 0,0.61893 0,0.9284 0,0.30945 0.362684,0.92839 0,0.92839 -0.362683,0 0,-1.23786 0,-0.92839 0,0.61891 0,1.23784 0,1.85679"
       id="path5800"
       inkscape:connector-curvature="0" />
    <path
       style="fill:#ffd5d5;fill-opacity:1;stroke:#000000;stroke-width:1.00505781;stroke-opacity:0.9888268"
       d="m 103.40395,1005.1406 c -1.10683,-0.549 -3.79976,-1.1292 -5.984286,-1.2895 -2.184539,-0.1603 -7.154433,-0.9431 -11.044217,-1.7396 -3.889783,-0.7965 -8.418796,-1.4569 -10.064473,-1.4676 l -2.992142,-0.019 0,-10.59487 c 0,-5.82717 -0.734351,-13.86941 -1.631891,-17.87161 -0.897539,-4.0022 -1.674867,-10.61894 -1.727396,-14.70387 -0.129322,-10.05804 -1.246483,-16.48069 -2.950253,-16.96151 -1.845525,-0.5208 -0.781004,23.08818 1.491365,33.07561 0.854713,3.75659 1.554022,11.38105 1.554022,16.94321 l 0,10.11304 -2.866692,0 c -6.022869,0 -16.718232,-2.18146 -16.718232,-3.40988 0,-0.67764 -0.734435,-1.23209 -1.632077,-1.23209 -0.897642,0 -1.632077,0.62666 -1.632077,1.39257 0,0.88875 -1.046913,1.3926 -2.893906,1.3926 l -2.893906,0 0.715299,-21.58518 c 0.393416,-11.87184 0.716427,-25.24073 0.717806,-29.70864 l 0.0025,-8.12344 27.112545,0 27.112536,0 0.521106,11.37284 c 0.286595,6.25505 1.082067,13.46171 1.767706,16.0148 0.685653,2.5531 1.623793,8.40198 2.084773,12.99754 0.46097,4.59556 1.62881,9.81778 2.59516,11.60492 1.97831,3.65862 3.71143,14.86946 2.29199,14.82616 -0.50758,-0.016 -1.82846,-0.4775 -2.93528,-1.0263 z"
       id="path5802"
       inkscape:connector-curvature="0" />
    <path
       style="fill:none;fill-rule:evenodd;stroke:#000000;stroke-width:1.89955926px;stroke-linecap:butt;stroke-linejoin:miter;stroke-opacity:1"
       d="m 82.663197,839.74762 -0.624987,0.26666"
       id="path5808"
       inkscape:connector-curvature="0" />
    <path
       style="fill:none;fill-rule:evenodd;stroke:#000000;stroke-width:1.89955926px;stroke-linecap:butt;stroke-linejoin:miter;stroke-opacity:1"
       d="m 55.163843,840.28092 c 0.416658,0 0.845754,-0.0864 1.249971,0 0.101056,0.0216 0,0.17775 0,0.26662 0,0.0889 0,0.17777 0,0.26664 0,0.0889 0.104156,0.26664 0,0.26664 -0.104156,0 0,-0.17775 0,-0.26664 0,-0.71102 0.104156,0.0889 -0.312494,-0.26664 -0.07365,-0.0628 0.09881,-0.23852 0,-0.26662 -0.296456,-0.0842 -0.937477,0.26662 -0.937477,0 0,-1.59984 1.284692,0.26662 0.937477,0.26662 -0.329397,0 -0.624983,-0.17775 -0.937477,-0.26662 z"
       id="path5810"
       inkscape:connector-curvature="0" />
    <path
       style="fill:none;fill-rule:evenodd;stroke:#000000;stroke-width:1.89955926px;stroke-linecap:butt;stroke-linejoin:miter;stroke-opacity:1"
       d="m 82.975688,840.28092 c -0.416657,-0.0889 -0.833315,-0.35553 -1.249971,-0.26664 -0.202105,0.0431 0,0.35551 0,0.53326 0,0.0647 -0.01007,0.79136 0,0.79992 0.07367,0.0628 0.208329,0 0.312493,0 0.104156,0 0.20833,0 0.312493,0 0.104156,0 0.26591,0.0795 0.312494,0 0.757557,-1.29279 0.388246,-1.10695 -0.93748,-1.33318 -0.102141,-0.0176 -0.208327,0 -0.312493,0 -0.104156,0 -0.238837,-0.0628 -0.312491,0 -0.01007,0.009 0,0.73524 0,0.7999"
       id="path5812"
       inkscape:connector-curvature="0" />
    <path
       style="fill:#000000;fill-rule:evenodd;stroke:#000000;stroke-width:1.89955926px;stroke-linecap:butt;stroke-linejoin:miter;stroke-opacity:1"
       d="m 31.414402,886.94267 c 0.833313,0 1.666627,0 2.49994,0 0.104156,0 0.238839,0.0628 0.312494,0 0.07367,-0.0628 -0.07367,-0.20379 0,-0.26664 0.07367,-0.0628 0.238837,0.0628 0.312492,0 0.01419,-0.0123 0,-1.20745 0,-1.33317 0,-0.17777 0,-0.35554 0,-0.53328 0,-0.0889 -0.104156,-0.26665 0,-0.26665 0.104156,0 0,0.35552 0,0.26665 0,-0.17777 0,-0.35553 0,-0.53328 0,-0.0889 -0.07367,-0.20379 0,-0.26664 0.07367,-0.0628 0.219326,0.0396 0.312494,0 0.131754,-0.0561 0.208327,-0.17776 0.312491,-0.26664 0.104156,-0.0888 0.246614,-0.15423 0.312494,-0.26664 0.04658,-0.0795 -0.04658,-0.18715 0,-0.26663 0.06588,-0.11249 0.208328,-0.17778 0.312492,-0.26665 0.104156,-0.0889 0.208327,-0.17776 0.312494,-0.26664 0.104155,-0.0888 0.180737,-0.21043 0.312492,-0.26664 0.09316,-0.0396 0.238836,0.0628 0.312491,0 0.07367,-0.0628 -0.07365,-0.20378 0,-0.26663 0.07367,-0.0628 0.238839,0.0628 0.312494,0 0.07367,-0.0628 -0.07367,-0.20379 0,-0.26664 0.07367,-0.0628 0.238837,0.0628 0.312492,0 0.416657,-0.35551 -0.52082,-0.26664 0.312494,-0.26664 0.833313,0 -0.104156,0.0888 0.312491,-0.26665 0.07367,-0.0628 0.312494,-0.0889 0.312494,0 0,0.0889 -0.208328,0 -0.312494,0"
       id="path5814"
       inkscape:connector-curvature="0" />
    <path
       style="fill:#000000;fill-opacity:1;stroke:#000000;stroke-width:0.15195978;stroke-opacity:0.9888268"
       d=""
       id="path5816"
       inkscape:connector-curvature="0"
       transform="translate(0,802.36216)" />
    <path
       style="fill:#000000;fill-opacity:1;stroke:#000000;stroke-width:0.15195978;stroke-opacity:0.9888268"
       d=""
       id="path5818"
       inkscape:connector-curvature="0"
       transform="translate(0,802.36216)" />
    <path
       style="fill:#f9f9f9;fill-opacity:1;stroke:#000000;stroke-width:0.15195978;stroke-opacity:0.9888268"
       d=""
       id="path5824"
       inkscape:connector-curvature="0"
       transform="translate(0,802.36216)" />
    <path
       style="fill:none;fill-rule:evenodd;stroke:#000000;stroke-width:1.89955926px;stroke-linecap:butt;stroke-linejoin:miter;stroke-opacity:1"
       d="m 32.351879,885.87613 c -0.312491,0.35551 -0.569201,0.75232 -0.937477,1.06654 -0.07367,0.0628 -0.208328,0 -0.312494,0 -0.104156,0 -0.208327,0 -0.312491,0 -0.104156,0 -0.312492,0.0889 -0.312492,0 0,-0.0889 0.312492,-0.0889 0.312492,0 0,0.55484 -0.43823,0.10717 -0.624986,0.26665 -0.07367,0.0628 0.07367,0.2038 0,0.26663 -0.07367,0.0628 -0.238836,-0.0628 -0.312492,0 -0.07367,0.0628 0,0.17777 0,0.26664 0,0.0889 0,0.17776 0,0.26664 0,0.0889 0,0.35553 0,0.26664 0,-0.17776 0,-0.71103 0,-0.53328 0,0.26664 0,0.53328 0,0.79991 0,0.0889 0.104155,0.26665 0,0.26665 -0.104156,0 0,-0.35552 0,-0.26665 0,0.26665 0,0.53329 0,0.79993 0,0.0889 0,0.35552 0,0.26663 0,-0.17775 0,-0.71102 0,-0.53327 0,0.26664 0,0.53327 0,0.79991 0,0.0889 0.07365,0.20379 0,0.26664 -0.07367,0.0628 -0.238837,-0.0628 -0.312491,0 -0.07367,0.0628 0.07365,0.20379 0,0.26663 -0.07367,0.0628 -0.23884,-0.0628 -0.312494,0 -0.07367,0.0628 0.04658,0.18716 0,0.26665 -0.06588,0.11247 -0.246614,0.15424 -0.312493,0.26664 -0.04658,0.0795 0,0.17776 0,0.26664 -0.104155,0.0888 -0.246613,0.15423 -0.312493,0.26663 -0.06193,0.10561 0.0639,0.74541 0,0.79993 -0.07367,0.0628 -0.238837,-0.0628 -0.312494,0 -0.01256,0.0101 0,0.96862 0,1.06655 0,0.0889 0.104156,0.26663 0,0.26663 -0.104156,0 0,-0.35551 0,-0.26663 0,0.17777 0.09318,0.37429 0,0.53328 -0.04658,0.0795 -0.312491,0.0889 -0.312491,0 0,-0.0889 0.312491,-0.0889 0.312491,0 0,0.12563 -0.180738,0.21042 -0.312491,0.26664 -0.186331,0.0795 -0.477674,-0.12564 -0.624986,0 -0.07367,0.0628 0.04658,0.18713 0,0.26664 -0.06588,0.11247 -0.246614,0.15423 -0.312492,0.26663 -0.04658,0.0795 0.04658,0.18714 0,0.26664 -0.04228,0.0721 -0.582692,0.46111 -0.624985,0.53329 -0.09318,0.15897 0.147301,0.40756 0,0.53327 -0.07367,0.0628 -0.238838,-0.0628 -0.312493,0 -0.07367,0.0628 0.07367,0.20379 0,0.26664 -0.07367,0.0628 -0.238836,-0.0628 -0.312493,0 -0.104038,0.0888 0.104038,0.44451 0,0.53327 -0.07367,0.0628 -0.238837,-0.0628 -0.312491,0 -0.07367,0.0628 0.07367,0.20379 0,0.26665 -0.64656,0.55169 0.02527,-0.84305 -0.624986,0.26664 -0.09318,0.15897 0.147321,0.40758 0,0.53327 -0.07367,0.0628 -0.238839,-0.0628 -0.312494,0 -0.1473,0.12563 0.20833,0.53328 0,0.53328 -0.29513,0 0.590264,-1.24432 0,0.26665 -0.07054,0.18052 -0.818122,0.59621 -0.937477,0.7999 -0.04658,0.0795 0.07367,0.2038 0,0.26663 -0.07365,0.0628 -0.238838,-0.0628 -0.312493,0 -0.07367,0.0628 0.07365,0.2038 0,0.26664 -0.07367,0.0628 -0.238836,-0.0628 -0.312493,0 -0.646558,0.55169 0.988028,-0.0216 -0.312491,0.53327 -0.09318,0.0396 -0.208329,0 -0.312493,0 -0.104155,0.0889 -0.180739,0.21045 -0.312493,0.26664 -0.186332,0.0795 -0.477674,-0.12563 -0.624985,0 -0.147321,0.12564 0.147301,0.4076 0,0.53329 -0.07365,0.0628 -0.238838,-0.0628 -0.312492,0 -0.147323,0.12563 0.147301,0.40759 0,0.53327 -0.07367,0.0628 -0.238839,-0.0628 -0.312494,0 -0.10413,0.0888 0.104143,0.44445 0,0.53328 -0.646558,0.55168 0.02527,-0.84304 -0.624986,0.26665 -0.04658,0.0795 0.04658,0.18714 0,0.26663 -0.06588,0.11247 -0.246611,0.15424 -0.312491,0.26664 -0.04658,0.0795 0.07367,0.20379 0,0.26664 -0.07367,0.0628 -0.26591,-0.0795 -0.312493,0 -0.139754,0.23849 0.139753,0.56143 0,0.79992 -0.06588,0.11247 -0.246613,0.15423 -0.312493,0.26664 -0.04658,0.0795 0.07367,0.20379 0,0.26663 -0.07367,0.0628 -0.238837,-0.0628 -0.312493,0 -0.156247,0.13336 0.156246,0.6666 0,0.79992 -0.07367,0.0628 -0.238836,-0.0628 -0.312491,0 -0.147322,0.12564 0.09316,0.37429 0,0.53328 -0.06588,0.11247 -0.246614,0.15423 -0.312493,0.26664 -0.09318,0.15897 0.09315,0.37428 0,0.53327 -0.06588,0.11247 -0.246614,0.15424 -0.312494,0.26664 -0.08331,0.14213 0.08331,0.39111 0,0.53329 -0.06588,0.11247 -0.230779,0.16212 -0.312493,0.26663 -0.129204,0.16529 -0.183288,0.36792 -0.312491,0.53328 -0.163423,0.20915 -0.493227,0.30842 -0.624986,0.53327 -0.04658,0.0795 0.04658,0.18714 0,0.26665 -0.04233,0.0722 -0.582673,0.46105 -0.624986,0.53328 -0.04658,0.0795 0.04658,0.18713 0,0.26663 -0.06588,0.11247 -0.246612,0.15424 -0.312491,0.26664 -0.04658,0.0795 0.07367,0.20379 0,0.26663 -0.07367,0.0628 -0.238839,-0.0628 -0.312493,0 -0.07367,0.0628 0.07367,0.2038 0,0.26663 -0.07367,0.0628 -0.238839,-0.0628 -0.312494,0 -0.07365,0.0628 0.04658,0.18716 0,0.26664 -0.0423,0.0721 -0.582693,0.46111 -0.624984,0.53329 -0.04658,0.0795 0.04658,0.18714 0,0.26663 -0.06588,0.11247 -0.246613,0.15424 -0.312493,0.26664 -0.04658,0.0795 0.07367,0.2038 0,0.26664 -0.07365,0.0628 -0.238838,-0.0628 -0.312493,0 -0.07367,0.0628 0.07367,0.20381 0,0.26663 -0.07367,0.0628 -0.312493,0.0889 -0.312493,0 0,-0.12563 0.312493,-0.39232 0.312493,-0.26663 0,0.1623 -0.387098,0.69842 -0.624986,0.79992 -0.249992,0.10673 -0.687483,-0.10673 -0.937477,0 -0.131756,0.0561 -0.180739,0.21043 -0.312493,0.26664 -0.02663,0.0123 -1.223333,0.0123 -1.249971,0 -0.131755,-0.0561 -0.246614,-0.15424 -0.312491,-0.26664 -0.04755,-0.0811 0,-0.67984 0,-0.79992 0,-0.0889 0,-0.17775 0,-0.26664 0,-0.0889 -0.104156,-0.26664 0,-0.26664 0.104155,0 -0.04658,0.34614 0,0.26664 0.104155,-0.26664 0.208327,-0.53327 0.312491,-0.79992 0.104156,0 0.238839,0.0628 0.312493,0 0.07367,-0.0628 -0.07367,-0.20378 0,-0.26664 0.07367,-0.0628 0.238838,0.0628 0.312493,0 0.07367,-0.0628 -0.07365,-0.20379 0,-0.26664 0.07367,-0.0628 0.219325,0.0396 0.312493,0 0.263516,-0.11247 0.361467,-0.42083 0.624985,-0.53326 0.09317,-0.0396 0.219325,0.0396 0.312493,0 0.131754,-0.0561 0.180739,-0.21043 0.312493,-0.26664 0.09318,-0.0396 0.238837,0.0628 0.312491,0 0.07365,-0.0628 -0.07367,-0.2038 0,-0.26663 0.147321,-0.12564 0.477677,0.12563 0.624986,0 0.07367,-0.0628 -0.07367,-0.2038 0,-0.26664 0.07367,-0.0628 0.238838,0.0628 0.312493,0 0.07367,-0.0628 -0.07365,-0.20381 0,-0.26664 0.0639,-0.0545 0.813577,0.0529 0.937477,0 0.131754,-0.0561 0.180739,-0.21044 0.312494,-0.26665 0.09318,-0.0396 0.238836,0.0628 0.312493,0 0.07367,-0.0628 -0.07367,-0.2038 0,-0.26663 0.07367,-0.0628 0.238837,0.0628 0.312491,0 0.01007,-0.009 0,-0.73525 0,-0.79992 0,-0.17776 0,-0.35553 0,-0.53327 0,-0.0889 -0.104156,-0.26665 0,-0.26665 0.104156,0 -0.104156,0.26665 0,0.26665 0.650261,0 0.125725,-0.37395 0.312493,-0.53329 0.104731,-0.0894 0.520253,0.0893 0.624986,0 0.07367,-0.0628 -0.07367,-0.20379 0,-0.26663 0.07367,-0.0628 0.238836,0.0628 0.312493,0 0.07367,-0.0628 -0.07367,-0.20379 0,-0.26664 0.416656,-0.35551 0.312491,0.44439 0.312491,-0.26664"
       id="path5826"
       inkscape:connector-curvature="0" />
    <path
       style="fill:none;fill-rule:evenodd;stroke:#000000;stroke-width:1.89955926px;stroke-linecap:butt;stroke-linejoin:miter;stroke-opacity:1"
       d="m 75.788358,880.80999 -4.687391,-2.93303"
       id="path5828"
       inkscape:connector-curvature="0" />
    <path
       style="fill:#550000;fill-opacity:1;stroke:#000000;stroke-width:1.89955926;stroke-opacity:0.9888268"
       id="path5832"
       d="m 75.352324,816.18637 c 0.864742,0.0123 1.734564,0.0841 2.580794,0.23905 0.821837,0.21685 1.615844,0.4954 2.421271,0.75023 0.718866,0.25806 1.493898,0.38064 2.221732,0.60875 0.636432,0.15669 1.069712,0.57068 1.424084,1.0256 0.603911,0.7465 1.281543,1.44204 1.986344,2.12006 1.046474,0.95611 2.275267,1.74085 3.536814,2.47525 0.772877,0.39978 1.545029,0.81707 2.212542,1.33975 0.216277,0.16002 0.41402,0.41301 0.708542,0.48148 0.04957,0.0123 0.11118,0.0158 0.153886,-0.009 0.04421,-0.0253 0.119682,-0.14282 0.07312,-0.1209 -1.315886,0.61707 -2.602694,1.27823 -3.904043,1.91734 0.215033,-0.26716 -0.1662,-0.58574 -0.392504,-0.74678 -0.729771,-0.28452 -1.528205,-0.46523 -2.312823,-0.61311 -1.105933,-0.17055 -2.154475,-0.50814 -3.232196,-0.7666 -0.953865,-0.13739 -1.891089,-0.27741 -2.826967,-0.4895 -1.097476,-0.18173 -2.086861,-0.57756 -3.006874,-1.10737 -1.251122,-0.76428 -2.339696,-1.69267 -3.461392,-2.58531 -0.697283,-0.57983 -1.453886,-1.09837 -2.194524,-1.63719 -0.896593,-0.55265 -1.341357,-1.36643 -1.764689,-2.2094 -0.387647,-0.84491 -0.791126,-1.68555 -1.157132,-2.53748 -0.804073,-1.63525 0.566628,-1.02866 4.006265,-2.34344 0.08569,-0.0328 0.127791,0.11755 0.196758,0.17195 0.06803,0.0537 0.142468,0.10101 0.213717,0.15143 0.608591,0.47591 1.247109,0.93114 1.881945,1.38429 0.618506,0.54784 1.359006,0.97657 2.028246,1.4748 0.503129,0.32309 1.054283,0.58904 1.58808,0.8741 0.688547,0.28072 1.340925,0.6198 2.030456,0.90057 0.621783,0.22092 1.222473,0.48185 1.830631,0.7292 0.750778,0.33986 1.511754,0.66419 2.257287,1.01249 0.488969,0.36312 1.109664,0.52249 1.631326,0.83698 0.401319,0.29047 0.726587,0.64518 1.108225,0.95154 0.315342,0.33774 0.736015,0.58181 1.176067,0.78688 0.557386,0.21333 1.127066,0.39131 1.689558,0.59333 0.588892,0.14861 1.026943,0.14352 1.463289,0.55507 0.41187,0.38285 0.682547,0.87156 0.926776,1.34401 0.0484,0.0914 0.09679,0.18277 0.145201,0.27414 0,0 -4.00313,1.92904 -4.00313,1.92904 l 0,0 c -0.05038,-0.093 -0.100769,-0.18618 -0.151126,-0.27927 -0.217777,-0.43247 -0.483406,-0.86366 -0.868063,-1.20572 -0.373791,-0.27818 -0.929176,-0.22605 -1.354398,-0.43339 -0.571081,-0.21373 -1.165895,-0.38034 -1.715932,-0.63453 -0.461852,-0.24001 -0.909645,-0.50108 -1.25269,-0.86407 -0.344422,-0.30239 -0.661335,-0.62954 -1.051041,-0.89203 -0.526599,-0.27633 -1.095274,-0.49142 -1.583526,-0.82191 -0.742627,-0.33989 -1.481485,-0.68896 -2.248815,-0.98685 -0.618152,-0.23475 -1.214659,-0.50539 -1.832179,-0.74124 -0.691964,-0.30209 -1.372699,-0.62209 -2.064522,-0.92433 -0.558563,-0.28694 -1.131154,-0.56711 -1.623181,-0.93472 -0.66015,-0.50091 -1.373059,-0.94914 -2.003604,-1.4787 -0.632358,-0.46126 -1.288348,-0.89713 -1.916701,-1.36177 -0.07766,-0.0551 -0.154993,-0.11053 -0.232941,-0.16529 -0.0612,-0.043 -0.249861,-0.0897 -0.184543,-0.12809 6.589073,-3.86696 3.39014,-3.10039 3.932556,-1.66834 0.323236,0.85646 0.678398,1.70735 1.082038,2.53826 0.411146,0.7943 0.861196,1.51709 1.709943,2.03449 0.7341,0.54719 1.479926,1.08286 2.159906,1.67948 1.070698,0.90104 2.122786,1.83018 3.396878,2.52771 0.932487,0.4648 1.918717,0.79212 2.978625,0.98161 0.935874,0.20782 1.894213,0.29249 2.82892,0.50295 1.060267,0.28182 2.110904,0.58336 3.20724,0.75249 0.848718,0.17442 1.771513,0.32095 2.500617,0.74656 0.401647,0.33123 0.694429,0.71524 0.715801,1.20654 -3.214243,1.68372 -3.306072,3.00357 -5.19464,1.4152 -0.652174,-0.49978 -1.378657,-0.92417 -2.106878,-1.33859 -1.26427,-0.77715 -2.498614,-1.59382 -3.587023,-2.54991 -0.736132,-0.67988 -1.454159,-1.37369 -2.092435,-2.12347 -0.333963,-0.38693 -0.718148,-0.68558 -1.276483,-0.81214 -0.73788,-0.2001 -1.47537,-0.39763 -2.198895,-0.63496 -0.783573,-0.2535 -1.571024,-0.50574 -2.379848,-0.6942 -0.853691,-0.12142 -1.717542,-0.19421 -2.583781,-0.14599 0,0 3.75402,-2.32723 3.75402,-2.32723 z"
       inkscape:connector-curvature="0" />
    <path
       style="fill:#00ff00;fill-opacity:1;stroke:#000000;stroke-width:0.1443283;stroke-opacity:0.9888268"
       d="m 43.014306,968.20137 c 0.191926,-4.1515 0.384703,-14.84909 0.384703,-21.34844 l 0,-7.01524 26.561872,0 26.561876,0 0.0013,0.63327 c 9.42e-4,0.34829 0.140924,3.50047 0.311186,7.00482 0.337999,6.95618 0.626936,10.7348 1.103152,14.42625 0.31027,2.4051 0.458662,3.23192 1.136519,6.33268 l 0.364316,1.6665 -13.748915,0.034 c -7.561901,0.0188 -13.771402,0.014 -13.798892,-0.009 -0.08917,-0.0761 -0.658676,-4.09793 -0.909771,-6.42479 -0.134511,-1.24654 -0.313372,-4.24623 -0.397458,-6.66597 -0.355118,-10.21921 -1.166898,-15.08332 -2.74229,-16.4316 -1.045529,-0.89481 -1.770631,-0.40854 -2.085651,1.39872 -0.683072,3.91874 -0.07953,17.51791 1.164038,26.22773 0.125319,0.87772 0.227848,1.67262 0.227848,1.76647 0,0.13721 -2.37509,0.17073 -12.107906,0.17073 l -12.107904,0 0.08166,-1.7665 z"
       id="path5834"
       inkscape:connector-curvature="0" />
    <path
       style="fill:#ffffff;fill-opacity:1;stroke:#000000;stroke-width:0.1443283;stroke-opacity:0.9888268"
       d="m 43.152374,967.938 c 0.163773,-2.99625 0.397599,-16.00137 0.400364,-22.2676 l 0.0025,-5.6994 11.397194,0 11.397196,0 -0.302647,0.58379 c -0.166447,0.32109 -0.368747,1.02601 -0.449535,1.5665 -0.610914,4.08714 -0.08216,16.24853 1.094204,25.16674 0.168276,1.27582 0.263764,2.35571 0.212174,2.39976 -0.0516,0.044 -5.440183,0.0965 -11.974645,0.11668 l -11.880843,0.0365 0.104012,-1.90304 z"
       id="path5838"
       inkscape:connector-curvature="0" />
    <path
       style="fill:#ffffff;fill-opacity:1;stroke:#000000;stroke-width:0.1443283;stroke-opacity:0.9888268"
       d="m 71.927893,969.4679 c -0.04896,-0.20165 -0.263504,-1.71648 -0.476756,-3.36631 -0.372697,-2.88337 -0.510208,-4.79722 -0.866903,-12.0654 -0.418023,-8.51777 -1.277946,-12.79834 -2.772591,-13.80151 -0.392134,-0.26321 -0.366738,-0.26368 14.081011,-0.26368 13.680418,0 14.473863,0.0123 14.473967,0.23332 4.71e-4,0.90339 0.515482,10.88011 0.707221,13.69856 0.418206,6.14768 0.847687,9.571 1.701823,13.56523 l 0.506038,2.36644 -13.632393,0 -13.632395,0 -0.08902,-0.36665 z"
       id="path5840"
       inkscape:connector-curvature="0" />
    <path
       style="fill:#00ff00;fill-opacity:1;stroke:#000000;stroke-width:0.1443283;stroke-opacity:0.9888268"
       d="m 43.307415,967.55344 c 0.163424,-3.41672 0.398766,-16.43747 0.401556,-22.21633 l 0.0025,-5.23279 11.188326,0 c 10.593717,0 11.182424,0.0123 11.077217,0.23332 -0.574999,1.20735 -0.715713,2.69397 -0.710298,7.50412 0.0068,6.1037 0.354339,11.62481 1.170152,18.59314 0.197437,1.68648 0.333411,3.09086 0.30215,3.12083 -0.03126,0.03 -5.339687,0.0833 -11.796494,0.11862 l -11.73965,0.0642 0.104509,-2.18512 z"
       id="path5844"
       inkscape:connector-curvature="0" />
    <path
       style="fill:#00ff00;fill-opacity:1;stroke:#000000;stroke-width:0.1443283;stroke-opacity:0.9888268"
       d="m 72.073957,969.40125 c -0.341766,-1.27626 -0.931053,-7.37901 -1.174701,-12.16539 -0.469612,-9.22536 -0.891629,-12.79239 -1.805522,-15.26088 -0.210811,-0.56942 -0.521508,-1.18522 -0.690434,-1.36846 -0.168935,-0.18324 -0.262568,-0.37119 -0.208091,-0.41768 0.126222,-0.10773 26.878326,-0.11176 27.508794,-0.003 l 0.470277,0.0802 0.09915,1.75288 c 0.05454,0.9641 0.203891,3.76269 0.331918,6.21908 0.514383,9.86945 0.975387,14.23825 2.039848,19.33131 0.206899,0.9899 0.376468,1.87481 0.376834,1.96646 4.71e-4,0.13195 -2.789985,0.16669 -13.433544,0.16669 l -13.434205,0 -0.08032,-0.29998 z"
       id="path5846"
       inkscape:connector-curvature="0" />
    <path
       style="fill:none;fill-rule:evenodd;stroke:#000000;stroke-width:1.89955926px;stroke-linecap:butt;stroke-linejoin:miter;stroke-opacity:1"
       d="m 13.133583,913.60655 c 0,0.17776 -0.03426,0.35793 0,0.53327 0.01912,0.0981 0.112998,0.17442 0.156247,0.26664 0.06116,0.13055 0.09843,0.26838 0.156246,0.39996 0.196964,0.44816 0.447602,0.87912 0.624987,1.3332 0.0679,0.17389 0.104155,0.35551 0.156246,0.53327 0.05208,0.2222 0.07227,0.45164 0.156247,0.6666 0.07365,0.18854 0.208328,0.35551 0.312491,0.53328 0.156246,0.26664 0.349342,0.51975 0.468739,0.79992 0.09075,0.21295 0.05762,0.45619 0.156247,0.6666 0.823068,1.17048 0.222658,0.17002 0.624986,1.19987 0.03683,0.0942 0.104156,0.17775 0.156247,0.26664 0,0.13336 -0.03791,0.2706 0,0.39996 0.03572,0.12195 0.246614,0.15423 0.312493,0.26664 0.0233,0.0396 0,0.0889 0,0.13335 0,0.0444 0,0.0889 0,0.13336 0,0.0444 -0.03683,0.10191 0,0.13335 0.03683,0.0315 0.11942,-0.0314 0.156246,0 0.03683,0.0315 0.05209,0.13336 0,0.13336 -0.05208,0 0,-0.0889 0,-0.13336 0,-0.13335 0,-0.26665 0,-0.39995"
       id="path5848"
       inkscape:connector-curvature="0" />
    <path
       style="fill:none;fill-rule:evenodd;stroke:#000000;stroke-width:1.89955926px;stroke-linecap:butt;stroke-linejoin:miter;stroke-opacity:1"
       d="m 14.696045,913.07326 c 0.20833,0.0444 0.432917,0.0514 0.624986,0.13336 0.0068,0.003 1.229772,0.78842 1.249971,0.79992 0.252684,0.14371 0.515759,0.27411 0.781232,0.39995 0.203606,0.0965 0.449695,0.13581 0.624984,0.26665 0.294018,0.21952 0.810364,0.92355 1.093724,1.19987 0.194002,0.18919 0.416657,0.35552 0.624986,0.53328 0.104156,0.0889 0.197458,0.18812 0.312494,0.26664 0.146643,0.1 0.322102,0.16651 0.468737,0.26663 0.230062,0.15705 0.372352,0.40395 0.624987,0.53329 0.141234,0.0722 0.33698,0.0489 0.468737,0.13335 0.09318,0.0597 0.0739,0.19637 0.156246,0.26664 0.08234,0.0702 0.212629,0.0821 0.312494,0.13335 0.156247,0.0889 0.312493,0.17775 0.468739,0.26665 0.05208,0.0444 0.09496,0.0984 0.156247,0.13335 0.0969,0.0551 0.230142,0.0629 0.312491,0.13335 0.03683,0.0315 -0.03683,0.10191 0,0.13336 0.244835,0.20891 0.468739,0.0281 0.468739,0.39995"
       id="path5850"
       inkscape:connector-curvature="0" />
    <path
       style="fill:none;fill-rule:evenodd;stroke:#000000;stroke-width:1.56949365px;stroke-linecap:butt;stroke-linejoin:miter;stroke-opacity:1"
       d="m 37.53415,926.05236 c 0,0.15873 0.03863,0.3222 0,0.47618 -0.0096,0.0385 -0.101642,-0.0354 -0.119455,0 0,0.54193 0.05632,0.006 -0.119454,0.35714 -0.01781,0.0354 0.02816,0.091 0,0.11908 -0.02816,0.028 -0.101642,-0.0354 -0.119455,0 -0.03561,0.071 0.02519,0.16281 0,0.23809 -0.01781,0.0533 -0.09427,0.0688 -0.119455,0.11908 -0.01781,0.0354 0.01258,0.0813 0,0.11907 -0.08329,0.24902 -0.260471,0.47039 -0.358363,0.71428 -0.10051,0.25042 -0.138399,0.46385 -0.238909,0.71427 -0.06094,0.15183 -0.17798,0.32438 -0.23891,0.47619 -0.04676,0.11657 -0.0727,0.24063 -0.119455,0.35714 -0.03306,0.0824 -0.0913,0.15386 -0.119454,0.23809 -0.07355,0.2199 0.182274,0.0564 -0.119455,0.35713 -0.02816,0.028 -0.01781,-0.0835 0,-0.11907 0.02519,-0.0501 0.07963,-0.0793 0.119455,-0.11908 0.03982,-0.0396 0.09427,-0.0688 0.119454,-0.11908 0.01781,-0.0354 0,-0.0794 0,-0.11907 0.03982,-0.0794 0.07007,-0.16427 0.119455,-0.2381 0.03124,-0.0467 0.101642,-0.0658 0.119455,-0.11907 0.02519,-0.0752 0,-0.15874 0,-0.23809 0,-0.0396 -0.01781,-0.0835 0,-0.11908 0.02519,-0.0501 0.09427,-0.0688 0.119455,-0.11908 0.03817,-0.076 -0.03206,-0.38037 0,-0.47618 0.02816,-0.0841 0.0913,-0.15386 0.119454,-0.23809 0.01258,-0.0376 0,-0.0794 0,-0.11908 0,-0.11908 -0.03778,-0.2442 0,-0.35714 0.128464,-0.38405 0.273831,-0.25825 0.358365,-0.59523 0.02707,-0.10795 0,-0.45694 0,-0.59523"
       id="path5852"
       inkscape:connector-curvature="0" />
    <path
       style="fill:none;fill-rule:evenodd;stroke:#000000;stroke-width:1.89955926px;stroke-linecap:butt;stroke-linejoin:miter;stroke-opacity:1"
       d="m 104.85018,834.0149 -0.3125,0.26664"
       id="path5854"
       inkscape:connector-curvature="0" />
    <path
       style="fill:#ffffff;fill-rule:evenodd;stroke:#000000;stroke-width:1.56949365px;stroke-linecap:butt;stroke-linejoin:miter;stroke-opacity:1"
       d="m 31.441966,867.95809 -0.23891,0.11908"
       id="path5856"
       inkscape:connector-curvature="0" />
    <path
       style="fill:#ffffff;fill-opacity:1;stroke:#000000;stroke-width:0.1443283;stroke-opacity:0.9888268"
       d="m 63.328022,999.87848 c -4.071878,-0.42164 -9.103303,-1.42843 -11.141949,-2.22961 -0.882027,-0.34672 -1.07935,-0.48346 -1.153431,-0.79952 -0.212669,-0.9073 -1.581546,-1.56296 -2.718006,-1.30184 -1.075866,0.24719 -1.446611,0.64526 -1.774622,1.90538 -0.148123,0.56913 -0.855516,0.75783 -2.84045,0.75783 l -1.670169,0 0.097,-2.43305 c 0.05334,-1.33819 0.24307,-7.23258 0.42159,-13.09864 0.178518,-5.86604 0.362857,-11.10049 0.409631,-11.6321 l 0.08503,-0.96657 11.607488,0 c 6.38412,0 11.812715,-0.0351 12.063544,-0.0777 l 0.456056,-0.0779 0.583546,3.04419 c 1.299108,6.77705 1.666283,11.38837 1.667529,20.94231 l 8.05e-4,6.16614 -2.226512,-0.015 c -1.22458,-0.011 -2.964773,-0.0907 -3.867096,-0.18425 z"
       id="path5860"
       inkscape:connector-curvature="0" />
    <path
       style="fill:#ffffff;fill-opacity:1;stroke:#000000;stroke-width:0.1443283;stroke-opacity:0.9888268"
       d="m 104.09445,1004.8624 c -1.91129,-0.8 -3.67437,-1.2114 -6.470359,-1.5099 -2.825314,-0.3016 -6.744676,-0.9156 -10.702874,-1.6768 -5.735567,-1.1029 -9.37091,-1.5984 -11.726476,-1.5984 l -1.241969,0 -10e-4,-5.89946 c -0.0017,-9.65118 -0.485299,-16.11546 -1.64461,-21.9825 -0.212061,-1.07321 -0.385564,-1.98811 -0.385564,-2.03313 0,-0.0449 6.182615,-0.0817 13.739146,-0.0817 12.949028,0 13.743938,0.014 13.822391,0.23332 0.164494,0.46099 0.881305,5.36564 1.271365,8.69909 0.74662,6.38058 1.57693,10.10259 2.86166,12.8279 1.69564,3.59694 3.3893,13.70268 2.29648,13.70268 -0.10529,0 -0.92345,-0.3064 -1.81816,-0.6809 z"
       id="path5862"
       inkscape:connector-curvature="0" />
  </g>
</svg>
