<?xml version="1.0" encoding="UTF-8" standalone="no"?>
<!-- Created with Inkscape (http://www.inkscape.org/) -->

<svg
   xmlns:dc="http://purl.org/dc/elements/1.1/"
   xmlns:cc="http://creativecommons.org/ns#"
   xmlns:rdf="http://www.w3.org/1999/02/22-rdf-syntax-ns#"
   xmlns:svg="http://www.w3.org/2000/svg"
   xmlns="http://www.w3.org/2000/svg"
   xmlns:sodipodi="http://sodipodi.sourceforge.net/DTD/sodipodi-0.dtd"
   xmlns:inkscape="http://www.inkscape.org/namespaces/inkscape"
   width="35mm"
   height="25mm"
   viewBox="0 0 124.01575 88.582675"
   id="svg4287"
   version="1.1"
   inkscape:version="0.91 r13725"
   sodipodi:docname="meteor4.svg">
  <defs
     id="defs4289" />
  <sodipodi:namedview
     id="base"
     pagecolor="#ffffff"
     bordercolor="#666666"
     borderopacity="1.0"
     inkscape:pageopacity="0.0"
     inkscape:pageshadow="2"
     inkscape:zoom="2.8472958"
     inkscape:cx="44.142642"
     inkscape:cy="57.22806"
     inkscape:document-units="px"
     inkscape:current-layer="layer1"
     showgrid="false"
     inkscape:window-width="1366"
     inkscape:window-height="706"
     inkscape:window-x="-8"
     inkscape:window-y="-8"
     inkscape:window-maximized="1" />
  <metadata
     id="metadata4292">
    <rdf:RDF>
      <cc:Work
         rdf:about="">
        <dc:format>image/svg+xml</dc:format>
        <dc:type
           rdf:resource="http://purl.org/dc/dcmitype/StillImage" />
        <dc:title></dc:title>
      </cc:Work>
    </rdf:RDF>
  </metadata>
  <g
     inkscape:label="Layer 1"
     inkscape:groupmode="layer"
     id="layer1"
     transform="translate(0,-963.77953)">
    <ellipse
       style="fill:#800080;fill-opacity:1;stroke:none;stroke-opacity:1"
       id="path4458"
       cx="23.388355"
       cy="1020.3755"
       rx="21.287128"
       ry="18.811882" />
    <path
       style="fill:#ffff00;fill-rule:evenodd;stroke:#000000;stroke-width:1px;stroke-linecap:butt;stroke-linejoin:miter;stroke-opacity:1"
       d="m 15.962607,1000.5735 c 1.32013,-0.6601 2.64027,-1.32016 3.9604,-1.98023 0.33003,0 0.69491,0.1476 0.9901,0 0.41746,-0.20873 0.57263,-0.78137 0.9901,-0.9901 0.29519,-0.14759 0.6949,0.1476 0.99009,0 0.41747,-0.20873 0.57264,-0.78136 0.9901,-0.9901 0.39257,-0.19628 2.76789,0.20242 2.9703,0 0.23337,-0.23336 -0.23337,-0.75673 0,-0.99009 0.0398,-0.0399 3.5968,0 3.9604,0 4.95049,0 9.90099,0 14.85148,0 0.24013,0 2.93846,0.0318 2.9703,0 0.23337,-0.23337 -0.23337,-0.75674 0,-0.9901 0.23337,-0.23337 0.69491,0.14759 0.9901,0 0.41746,-0.20873 0.54731,-0.84251 0.9901,-0.9901 0.62619,-0.20873 1.38981,0.29519 1.98019,0 0.2952,-0.1476 -0.23336,-0.75673 0,-0.9901 0.23337,-0.23337 0.75674,0.23337 0.9901,0 2.04855,-2.04855 -3.13045,0.0801 0.9901,-1.9802 0.29519,-0.14759 0.69491,0.1476 0.9901,0 1.72124,-0.86062 3.30033,-1.9802 4.9505,-2.9703 2.31023,-0.9901 4.63386,-1.94948 6.93069,-2.97029 0.67437,-0.29972 1.26426,-0.81112 1.9802,-0.9901 0.64036,-0.16009 1.38982,0.29519 1.9802,0 0.29519,-0.1476 -0.23337,-0.75673 0,-0.9901 0.84142,-0.84142 2.02711,-1.25467 2.97029,-1.9802 3.35002,-2.57693 6.60066,-5.28053 9.90099,-7.92079 1.65017,-1.32013 3.30033,-2.64027 4.9505,-3.9604 0.9901,-0.66006 2.01833,-1.26623 2.9703,-1.9802 0.74677,-0.56008 1.14527,-1.56273 1.98019,-1.98019 0.59172,-0.29586 1.9802,0.65177 1.9802,-0.9901 0,-0.33004 -0.75673,-0.23337 -0.9901,0 -0.23337,0.23337 0.23337,0.75673 0,0.9901 -0.23337,0.23336 -0.75673,-0.23337 -0.9901,0 -0.23337,0.23336 0.23337,0.75673 0,0.9901 -0.52182,0.52182 -1.36616,0.58074 -1.98019,0.99009 -0.7767,0.5178 -1.32014,1.32014 -1.9802,1.9802 -0.66007,0.66007 -1.32013,1.32013 -1.9802,1.9802 -0.33003,0.33003 -0.60175,0.7312 -0.9901,0.9901 -0.61403,0.40935 -1.45837,0.46827 -1.9802,0.9901 -0.52183,0.52183 -0.66006,1.32013 -0.9901,1.9802 -0.66006,1.32013 -1.16148,2.73233 -1.98019,3.96039 -0.5178,0.7767 -1.4624,1.2035 -1.9802,1.9802 -1.02428,1.53641 1.68191,0.64419 -0.9901,1.9802 -0.29519,0.14759 -0.75673,-0.23337 -0.9901,0 -0.52183,0.52183 -0.66007,1.32013 -0.9901,1.9802 -0.9901,1.32013 -1.80345,2.79355 -2.9703,3.96039 -3.65222,3.65222 -0.39951,-2.37102 -3.96039,2.9703 -0.18307,0.2746 0.23337,0.75673 0,0.9901 -1.20593,1.20592 -2.21209,0.46378 -2.9703,1.9802 -0.1476,0.29519 0.23337,0.75673 0,0.9901 -0.46674,0.46673 -1.51346,-0.46674 -1.9802,0 -0.23337,0.23336 0.23337,0.75673 0,0.99009 -0.23337,0.23337 -0.71549,-0.18307 -0.9901,0 -0.77669,0.5178 -1.32013,1.32014 -1.9802,1.9802 -0.33003,0.33004 -0.57263,0.78137 -0.99009,0.9901 -0.29519,0.1476 -0.75673,-0.23337 -0.9901,0 -0.23337,0.23337 0.23337,0.75673 0,0.99013 -0.23337,0.2333 -0.66007,0 -0.9901,0 -0.33004,0 -1.32013,0 -0.9901,0 2.31023,0 4.62046,0 6.93069,0 0.9901,0 1.99943,0.1941 2.9703,0 0.72364,-0.1448 1.28009,-0.75676 1.9802,-0.99013 2.38753,-0.79584 7.8118,-1.77128 9.90099,-1.9802 1.31358,-0.13135 2.64026,0 3.96039,0 0.66007,0 1.33295,0.12945 1.9802,0 1.02339,-0.20467 1.94691,-0.78542 2.9703,-0.9901 0.64725,-0.12945 1.354,0.20874 1.9802,0 0.44278,-0.14759 0.57263,-0.78136 0.9901,-0.99009 0.39256,-0.19629 2.76788,0.20241 2.97029,0 1.35896,-1.35896 -1.74723,-0.9901 -1.9802,-0.9901 -1.04734,0 -6.42062,-0.17003 -6.93069,0 -0.44278,0.14759 -0.57264,0.78136 -0.9901,0.9901 -0.29519,0.14759 -0.69491,-0.1476 -0.9901,0 -0.41746,0.20873 -0.66006,0.66006 -0.9901,0.99009 -1.32013,1.32014 -2.50255,2.79413 -3.96039,3.96043 -1.85839,1.4867 -4.03667,2.5324 -5.9406,3.9604 -0.74678,0.56 -1.23341,1.4201 -1.98019,1.9802 0.53628,1.6639 -2.49964,0.7547 -2.9703,0.9901 -1.3199,0.6599 -0.6603,1.3202 -1.9802,1.9802 -0.59038,0.2951 -1.51346,-0.4668 -1.9802,0 -1.9649,1.9649 4.68886,0.3129 -1.9802,1.9802 -0.73491,0.1837 -3.65649,-0.304 -3.96039,0 -0.23337,0.2333 0.23337,0.7567 0,0.9901 -0.23337,0.2333 -0.677,-0.1044 -0.9901,0 -0.70011,0.2333 -1.28009,0.7567 -1.9802,0.9901 -0.6962,0.232 -4.6791,-0.2714 -4.95049,0 -0.23337,0.2333 0.23337,0.7567 0,0.9901 -0.46674,0.4667 -1.38982,-0.2952 -1.9802,0 -2.44694,1.2234 0.34176,0.9901 -1.9802,0.9901"
       id="path4464"
       inkscape:connector-curvature="0" />
    <path
       style="fill:#ffff00;fill-rule:evenodd;stroke:#000000;stroke-width:1px;stroke-linecap:butt;stroke-linejoin:miter;stroke-opacity:1"
       d="m 70.418057,986.71208 c 1.32013,-0.33003 2.64026,-0.66006 3.96039,-0.99009 0.9901,0 2.00976,0.24013 2.9703,0 0.4528,-0.11321 0.54731,-0.84251 0.9901,-0.9901 0.53228,-0.17743 3.12213,0 3.9604,0 2.97029,0 5.94059,0 8.91089,0 1.32013,0 2.64026,0 3.96039,0 0.33004,0 0.66007,0 0.9901,0 0.33003,0 0.9901,-0.33004 0.9901,0 0,0.33003 -0.75673,-0.23337 -0.9901,0 -0.23337,0.23336 0.23337,0.75673 0,0.9901 -3.86409,3.86409 -0.53173,-0.22919 -2.9703,0.99009 -0.41746,0.20874 -0.57263,0.78137 -0.99009,0.9901 -0.53712,0.26856 -3.68949,-0.27091 -3.9604,0 -0.23337,0.23337 0.14759,0.69491 0,0.9901 -3.28375,3.28375 0.46674,-0.93347 -0.9901,1.9802 -0.82532,1.65064 -1.9802,0.44737 -1.9802,2.9703 0,0.33003 -0.23337,0.75673 0,0.9901 0.23337,0.23336 0.66007,0 0.9901,0 0.66007,0 1.32013,0 1.9802,0 1.65016,0 3.30033,0 4.95049,0 6.27063,0 12.541263,0 18.811893,0 1.65016,0 3.30033,0 4.95049,0 0.33003,0 0.75673,-0.23337 0.9901,0 0.72842,0.72841 -0.79677,1.78687 -0.9901,1.98019 -0.33003,0.33004 -0.57264,0.78137 -0.9901,0.9901 -0.29519,0.1476 -0.66006,0 -0.9901,0 -3.09268,0 -5.7691,-0.0572 -8.91089,0.9901 -28.517493,9.50583 -6.678883,2.72093 -18.811883,7.92083 -0.95927,0.4111 -2.03682,0.5233 -2.9703,0.9901 -0.41746,0.2087 -0.54731,0.8425 -0.9901,0.9901 -0.62619,0.2087 -1.33984,-0.1601 -1.98019,0 -6.66905,1.6672 -0.0153,0.015 -1.9802,1.9802 -0.23337,0.2333 -1.32013,0 -0.9901,0 1.29427,0 2.66612,0 3.9604,0 0.66006,0 1.32013,0 1.98019,0 0.33004,0 0.67701,-0.1044 0.9901,0 0.70011,0.2333 1.26426,0.8111 1.9802,0.9901 0.64036,0.16 1.354,-0.2088 1.9802,0 0.44278,0.1475 0.57263,0.7813 0.9901,0.9901 0.39256,0.1962 2.76788,-0.2025 2.97029,0 0.099,0.099 0.099,2.8712 0,2.9703 -0.23336,0.2333 -0.66006,0 -0.99009,0 -1.0832,0 -4.16134,-0.2153 -4.9505,0 -3.02064,0.8238 -5.90039,2.1101 -8.91089,2.9702 -1.6181,0.4624 -3.3179,0.582 -4.9505,0.9901 -1.01249,0.2532 -1.9578,0.737 -2.97029,0.9901 -0.64036,0.1601 -1.32013,0 -1.9802,0 -1.9802,0 -3.9604,0 -5.9406,0 -0.33003,0 -0.66006,0 -0.99009,0 -0.33004,0 -0.69491,-0.1475 -0.9901,0 -0.41747,0.2088 -0.57264,0.7814 -0.9901,0.9901 -0.30132,0.1507 -2.5244,0 -2.9703,0 -0.66007,0 -1.32013,0 -1.9802,0 -0.33003,0 -0.9901,0.3301 -0.9901,0 0,-0.33 1.32014,0 0.9901,0 -0.9901,0 -1.9802,0 -2.97029,0 -0.66007,0 -1.35401,-0.2087 -1.9802,0 -0.44279,0.1476 -0.57264,0.7814 -0.9901,0.9901 -0.30132,0.1507 -2.5244,0 -2.9703,0"
       id="path4468"
       inkscape:connector-curvature="0" />
    <path
       style="fill:#ffff00;fill-rule:evenodd;stroke:#000000;stroke-width:1px;stroke-linecap:butt;stroke-linejoin:miter;stroke-opacity:1"
       d="m 44.675477,1029.2863 c 1.31144,2.0873 3.38501,-0.5218 4.9505,0 0.7001,0.2334 1.28009,0.7568 1.9802,0.9901 1.16097,0.387 2.87004,-0.5451 3.96039,0 0.29519,0.1476 -0.23337,0.7568 0,0.9901 0.0398,0.04 3.5968,0 3.9604,0 5.61056,0 11.22112,0 16.83168,0 0.33003,0 0.66007,0 0.9901,0 0.33003,0 0.75673,-0.2333 0.9901,0 0.23337,0.2334 -0.29519,0.8425 0,0.9901 0.59038,0.2952 1.32013,0 1.9802,0 1.02001,0 6.63846,-0.1461 6.93069,0 0.41746,0.2088 0.57264,0.7814 0.9901,0.9901 0.29519,0.1476 0.66007,0 0.9901,0 0.66006,0 1.32013,0 1.9802,0 1.98019,0 3.96039,0 5.94059,0 0.66007,0 1.32013,0 1.9802,0 0.66006,0 1.339843,-0.1601 1.980203,0 0.71594,0.179 1.28009,0.7568 1.98019,0.9901 0.59037,0.1968 4.98132,0 5.9406,0 1.32013,0 2.64026,0 3.96039,0 0.33004,0 0.66007,0 0.9901,0 0.33004,0 0.9901,0.3301 0.9901,0 0,-0.4667 -0.66006,-0.66 -0.9901,-0.9901 -0.33003,-0.33 -0.6103,-0.7188 -0.9901,-0.9901 -1.9366,-1.3833 -3.91373,-2.7131 -5.94059,-3.9604 -5.48038,-3.3725 -7.356913,-4.1735 -12.871293,-6.9307 -1.32013,-0.66 -2.60378,-1.3987 -3.96039,-1.9802 -0.95927,-0.4111 -2.03683,-0.5233 -2.9703,-0.9901 -0.41746,-0.2087 -0.60175,-0.7312 -0.9901,-0.9901 -0.61403,-0.4093 -1.28009,-0.7567 -1.9802,-0.9901 -0.31309,-0.1043 -0.677,0.1044 -0.9901,0 -0.007,0 -2.97029,-1.2249 -2.97029,-1.9801 0,-0.3301 0.66006,0 0.9901,0 0.9901,0 1.98019,0 2.97029,0 3.63037,0 7.26073,0 10.89109,0 2.64027,0 5.280533,0 7.920793,0 1.65017,0 3.33238,-0.3237 4.9505,0 0.72364,0.1447 1.26426,0.8111 1.9802,0.9901 0.64036,0.16 1.32013,0 1.9802,0 0.33003,0 0.99009,-0.3301 0.99009,0 0,0.33 -0.66006,0 -0.99009,0 -0.33004,0 -0.75673,0.2333 -0.9901,0 -0.23337,-0.2334 0.14759,-0.695 0,-0.9901 -1.33601,-2.6721 -0.44379,0.034 -1.9802,-0.9901 -0.7767,-0.5178 -1.11349,-1.6336 -1.9802,-1.9802 -0.91928,-0.3678 -2.05101,0.3677 -2.9703,0 -1.73341,-0.6934 -2.22697,-3.2671 -3.96039,-3.9604 -0.919293,-0.3678 -1.993673,0.1627 -2.970303,0 -1.07342,-0.1789 -3.87317,-1.262 -4.95049,-1.9802 -0.38835,-0.2589 -0.54732,-0.8425 -0.9901,-0.9901 -0.6262,-0.2088 -1.38982,0.2952 -1.9802,0 -0.29519,-0.1476 0.23337,-0.7568 0,-0.9901 -0.23337,-0.2334 -0.75673,0.2333 -0.9901,0 -1.32013,-1.3202 1.65016,-0.9901 -0.9901,-0.9901"
       id="path4474"
       inkscape:connector-curvature="0" />
    <path
       style="fill:#ffff00;fill-rule:evenodd;stroke:#000000;stroke-width:1px;stroke-linecap:butt;stroke-linejoin:miter;stroke-opacity:1"
       d="m 31.394077,1034.1665 c 1.9802,0.33 3.98089,0.5546 5.9406,0.9901 6.18083,1.3735 0.26168,0.4172 4.95049,1.9802 1.29093,0.4303 2.652,0.6162 3.9604,0.9901 2.007,0.5734 4.00257,1.205 5.94059,1.9802 0.6852,0.274 1.2801,0.7567 1.9802,0.9901 0.8307,0.2769 4.39105,-0.2798 4.9505,0 0.41746,0.2087 0.57263,0.7813 0.9901,0.9901 0.30132,0.1506 2.52439,0 2.97029,0 0.79707,0 3.33896,-0.2072 3.9604,0 0.7001,0.2333 1.28009,0.7567 1.9802,0.9901 0.62619,0.2087 1.38981,-0.2952 1.9802,0 0.41746,0.2087 0.57263,0.7813 0.99009,0.9901 0.29519,0.1476 0.66007,0 0.9901,0 0.33004,0 0.66007,0 0.9901,0 1.32013,0 2.64027,0 3.9604,0 0.66006,0 1.33984,-0.1601 1.9802,0 1.43188,0.3579 2.5131,1.6907 3.96039,1.9802 0.97087,0.1941 1.99367,-0.1628 2.9703,0 1.3484,0.2247 7.63456,2.8629 7.92079,2.9702 1.73607,0.6511 5.250213,1.7402 6.930693,1.9802 0.98015,0.1401 1.9802,0 2.9703,0 1.32013,0 2.64027,0 3.9604,0 0.9901,0 1.9802,0 2.97029,0 0.33004,0 0.9901,-0.33 0.9901,0 0,0.3301 -0.66006,0 -0.9901,0 -1.71169,0 -2.32002,0.1035 -3.96039,-0.9901 -0.38835,-0.2589 -0.57264,-0.7813 -0.9901,-0.9901 -0.29519,-0.1475 -0.66007,0 -0.9901,0 -0.9901,-0.66 -2.0411,-1.2368 -2.9703,-1.9801 -0.72892,-0.5832 -1.11349,-1.6336 -1.98019,-1.9802 -0.919293,-0.3678 -2.031013,0.3131 -2.970303,0 -1.12889,-0.3763 -1.90597,-1.4481 -2.9703,-1.9802 -0.93347,-0.4668 -2.00129,-0.6025 -2.9703,-0.9901 -0.68519,-0.2741 -1.36616,-0.5808 -1.98019,-0.9901 -2.26565,-1.5105 0.6191,-0.7838 -2.9703,-1.9802 -0.62619,-0.2088 -1.51346,0.4667 -1.9802,0 -0.23337,-0.2334 0.23337,-0.7568 0,-0.9901 -0.23337,-0.2334 -0.75673,0.2333 -0.9901,0 -0.20241,-0.2025 0.19629,-2.5778 0,-2.9703 -0.20873,-0.4175 -0.66006,-0.6601 -0.9901,-0.9901 -0.33003,-0.3301 -0.66006,-0.6601 -0.9901,-0.9901 -0.52125,-0.5213 -2.4415,-2.7059 -2.97029,-2.9703 -0.29519,-0.1476 -0.75673,0.2333 -0.9901,0 -0.23337,-0.2334 -0.23337,-0.7568 0,-0.9901 0.23337,-0.2334 0.75673,-0.2334 0.9901,0 0.23337,0.2333 -0.23337,0.7567 0,0.9901 0.23337,0.2333 0.677,-0.1044 0.9901,0 0.7001,0.2333 1.26425,0.8111 1.98019,0.9901 0.64036,0.1601 1.35401,-0.2088 1.9802,0 0.44279,0.1476 0.54732,0.8425 0.9901,0.9901 1.25239,0.4174 2.70801,-0.4175 3.9604,0 0.44278,0.1476 0.57263,0.7813 0.9901,0.9901 0.29519,0.1476 0.66006,0 0.9901,0 0.33003,0 0.66006,0 0.99009,0 0.66007,0 1.32014,0 1.9802,0 0.33004,0 0.9901,-0.3301 0.9901,0 0,0.33 -0.66006,0 -0.9901,0 -0.4459,0 -2.66897,0.1506 -2.97029,0 -0.41747,-0.2088 -0.60175,-0.7312 -0.9901,-0.9901 -0.61404,-0.4094 -1.36617,-0.5808 -1.9802,-0.9901 -0.38835,-0.2589 -0.57264,-0.7814 -0.9901,-0.9901 -0.59038,-0.2952 -1.38982,0.2952 -1.9802,0 -0.41746,-0.2088 -0.57264,-0.7814 -0.9901,-0.9901 -0.29519,-0.1476 -0.75673,0.2333 -0.9901,0 -0.23337,-0.2334 0.23337,-0.7568 0,-0.9901 -0.23337,-0.2334 -0.75673,0.2333 -0.9901,0 -1.32013,-1.3202 1.65017,-0.9901 -0.99009,-0.9901"
       id="path4476"
       inkscape:connector-curvature="0" />
    <path
       style="fill:#800080;fill-rule:evenodd;stroke:#000000;stroke-width:1px;stroke-linecap:butt;stroke-linejoin:miter;stroke-opacity:1"
       d="m 17.942807,1001.5636 c 4.29043,0 8.58086,0 12.87129,0 0.24012,0 2.93845,-0.032 2.97029,0 0.23337,0.2333 -0.23336,0.7567 0,0.9901 0.23337,0.2333 0.66007,0 0.9901,0 0,0.33 -0.23337,0.7567 0,0.9901 0.46674,0.4667 1.51346,-0.4668 1.9802,0 0.46674,0.4667 -0.46674,1.5134 0,1.9802 0.23337,0.2333 0.75673,-0.2334 0.9901,0 0.30658,0.3065 -0.30658,4.6439 0,4.9505 1.32013,1.3201 0.9901,-1.6502 0.9901,0.9901 0,0.33 0,1.3201 0,0.9901 0,-0.6601 -0.46674,-2.447 0,-1.9802 0.73797,0.7379 0.41118,2.1019 0.9901,2.9703 0.18307,0.2746 0.75673,-0.2334 0.9901,0 0.46673,0.4667 -0.29519,1.3898 0,1.9802 3.28374,3.2837 -0.46674,-0.9335 0.9901,1.9801 0.20873,0.4175 0.78136,0.5727 0.99009,0.9901 0.13017,0.2604 0,3.4427 0,3.9604 0,0.3301 0,0.6601 0,0.9901 0,0.3301 0.33004,0.9901 0,0.9901 -0.33003,0 0,-1.3201 0,-0.9901 0,0.6601 0,1.3202 0,1.9802 0,0.3301 0.23337,0.7568 0,0.9901 -0.23336,0.2334 -0.75673,-0.2333 -0.99009,0 -0.49505,0.4951 0.49505,2.4753 0,2.9703 -1.07733,1.0774 -1.29344,-1.7569 -1.9802,0.9901 -0.24014,0.9606 0.24013,2.0098 0,2.9703 -0.2264,0.9056 -1.56274,1.1453 -1.9802,1.9802 -0.1476,0.2952 0.14759,0.6949 0,0.9901 -0.20873,0.4175 -0.78137,0.5727 -0.9901,0.9901 -0.14759,0.2952 0.23337,0.7568 0,0.9901 -0.23337,0.2334 -0.9901,0.3301 -0.9901,0 0,-0.33 1.32013,0 0.9901,0 -0.66007,0 -1.32013,0 -1.9802,0 -0.33003,0 -0.9901,0.3301 -0.9901,0 0,-0.33 1.32014,0 0.9901,0 -0.66006,0 -1.32013,0 -1.9802,0 -0.33003,0 -0.6949,-0.1476 -0.99009,0 -2.44694,1.2235 0.34176,0.9901 -1.9802,0.9901"
       id="path4478"
       inkscape:connector-curvature="0" />
  </g>
</svg>
