<?xml version="1.0" encoding="UTF-8" standalone="no"?>
<!-- Created with Inkscape (http://www.inkscape.org/) -->

<svg
   xmlns:dc="http://purl.org/dc/elements/1.1/"
   xmlns:cc="http://creativecommons.org/ns#"
   xmlns:rdf="http://www.w3.org/1999/02/22-rdf-syntax-ns#"
   xmlns:svg="http://www.w3.org/2000/svg"
   xmlns="http://www.w3.org/2000/svg"
   xmlns:sodipodi="http://sodipodi.sourceforge.net/DTD/sodipodi-0.dtd"
   xmlns:inkscape="http://www.inkscape.org/namespaces/inkscape"
   width="140"
   height="180"
   viewBox="0 0 140 180"
   id="svg3460"
   version="1.1"
   inkscape:version="0.91 r13725"
   sodipodi:docname="mountain.svg">
  <defs
     id="defs3462" />
  <sodipodi:namedview
     id="base"
     pagecolor="#ffffff"
     bordercolor="#666666"
     borderopacity="1.0"
     inkscape:pageopacity="0.0"
     inkscape:pageshadow="2"
     inkscape:zoom="0.71230469"
     inkscape:cx="375"
     inkscape:cy="262.8738"
     inkscape:document-units="px"
     inkscape:current-layer="layer1"
     showgrid="false"
     inkscape:window-width="1366"
     inkscape:window-height="706"
     inkscape:window-x="-8"
     inkscape:window-y="-8"
     inkscape:window-maximized="1"
     units="px" />
  <metadata
     id="metadata3465">
    <rdf:RDF>
      <cc:Work
         rdf:about="">
        <dc:format>image/svg+xml</dc:format>
        <dc:type
           rdf:resource="http://purl.org/dc/dcmitype/StillImage" />
        <dc:title></dc:title>
      </cc:Work>
    </rdf:RDF>
  </metadata>
  <g
     inkscape:label="Layer 1"
     inkscape:groupmode="layer"
     id="layer1"
     transform="translate(0,-872.36216)">
    <path
       style="fill:#803300;fill-rule:evenodd;stroke:#000000;stroke-width:1px;stroke-linecap:butt;stroke-linejoin:miter;stroke-opacity:1"
       d="m 2.0519877,1050.642 c 2.74886,-1.0826 2.53882,-4.0468 3.97035,-5.9556 0.5615,-0.7486 1.5037,-1.1827 1.98518,-1.9851 0.53831,-0.8972 0.45428,-2.0806 0.99259,-2.9778 0.48147,-0.8025 1.3234503,-1.3234 1.9851693,-1.9852 0.66173,-1.3234 1.25106,-2.6856 1.98518,-3.9703 0.06,-0.105 3.95216,-5.9131 3.97035,-5.9556 0.53738,-1.2538 0.45522,-2.7164 0.99259,-3.9703 0.46993,-1.0965 1.37142,-1.9548 1.98518,-2.9778 0.38064,-0.6344 0.70115,-1.3051 0.99259,-1.9852 0.70186,-1.6376 1.10118,-3.4159 1.98517,-4.9629 0.4643,-0.8125 1.5037,-1.1827 1.98518,-1.9852 0.53831,-0.8972 0.52468,-2.0419 0.99259,-2.9777 1.067,-2.134 2.81166,-3.87 3.97035,-5.9556 1.07788,-1.9402 1.91496,-4.00705 2.97777,-5.95554 0.92382,-1.69367 2.04084,-3.27647 2.97776,-4.96294 0.71859,-1.29346 1.20096,-2.7156 1.98518,-3.97035 0.87678,-1.40286 2.17436,-2.52422 2.97776,-3.97035 0.8653,-1.55753 1.11989,-3.40542 1.98518,-4.96295 0.80341,-1.44613 2.30588,-2.45862 2.97776,-3.97035 0.68519,-1.54167 0.40022,-3.38328 0.99259,-4.96293 0.41887,-1.11699 1.45168,-1.91077 1.98518,-2.97777 1.61417,-3.22834 0.25058,-2.36105 1.98518,-4.96294 0.25955,-0.38932 0.8791,-0.53865 0.99258,-0.99259 0.24074,-0.96295 -0.16318,-1.99868 0,-2.97776 0.68849,-4.13091 0.90515,-1.72284 1.98518,-4.96294 0.29778,-0.89333 -0.29778,-2.08444 0,-2.97777 0.29593,-0.88779 1.68925,-1.09737 1.98518,-1.98517 0.20925,-0.62777 0,-1.32345 0,-1.98518 0,-0.33086 -0.18353,-0.71729 0,-0.99259 0.5191,-0.77865 1.32345,-1.32345 1.98517,-1.98517 0.33087,-0.33087 0.78334,-0.57408 0.99259,-0.99259 0.46791,-0.93582 0.73883,-1.96273 0.99259,-2.97777 0.16888,-0.6755 -0.27141,-2.43493 0,-2.97776 0.20926,-0.41851 0.71184,-0.61826 0.99259,-0.99259 0.71576,-0.95435 1.37141,-1.95483 1.98518,-2.97777 0.38064,-0.6344 0.54868,-1.39331 0.99258,-1.98517 0.5615,-0.74866 1.52088,-1.17266 1.98518,-1.98518 0.884,-1.54699 1.10118,-3.41595 1.98518,-4.96294 0.46429,-0.81252 1.42368,-1.23652 1.98517,-1.98518 0.4439,-0.59186 0.58221,-1.3696 0.99259,-1.98517 0.5191,-0.77865 1.46608,-1.20653 1.98518,-1.98518 0.41038,-0.61558 0.46945,-1.46204 0.99259,-1.98518 0.23395,-0.23395 0.75863,0.23396 0.99259,0 0.23395,-0.23395 -0.14797,-0.69665 0,-0.99258 0.20925,-0.41852 0.66172,-0.66173 0.99258,-0.99259 0.33087,-0.33087 0.57408,-0.78334 0.99259,-0.99259 0.29593,-0.14797 0.75863,0.23395 0.99259,0 0.23396,-0.23396 -0.23396,-0.75863 0,-0.99259 0.23396,-0.23395 0.75863,0.23396 0.99259,0 0.23395,-0.23395 -0.23396,-0.75863 0,-0.99259 0.23395,-0.23395 0.75863,0.23396 0.99259,0 1.32345,-1.32345 -1.65432,-0.99259 0.99258,-0.99259 1.32345,1.32345 2.80115,2.50885 3.97036,3.97036 0.20669,0.25836 -0.14797,0.69665 0,0.99259 0.59555,1.1911 2.38221,1.78665 2.97776,2.97776 0.14797,0.29593 -0.14796,0.69666 0,0.99259 0.20926,0.41851 0.78334,0.57407 0.99259,0.99259 0.29593,0.59186 -0.29593,1.39331 0,1.98517 0.20926,0.41852 0.78333,0.57408 0.99259,0.99259 0.14797,0.29593 -0.14797,0.69666 0,0.99259 0.20926,0.41851 0.783328,0.57408 0.992588,0.99259 0.29593,0.59186 -0.295928,1.39331 0,1.98517 0.20925,0.41852 0.66172,0.66173 0.99259,0.99259 0,0.99259 -0.19467,2.00445 0,2.97777 0.14509,0.72546 0.75863,1.28331 0.99258,1.98517 0.10463,0.31389 0,0.66173 0,0.99259 0.33087,0.99259 0.52468,2.04195 0.99259,2.97777 0.20926,0.41851 0.78333,0.57407 0.99259,0.99259 0.14797,0.29593 0,0.66172 0,0.99258 0,0.66173 -0.20926,1.35741 0,1.98518 0.14797,0.4439 0.78333,0.57408 0.99259,0.99259 0.14797,0.29593 -0.14797,0.69665 0,0.99259 0.20926,0.41851 0.78333,0.57407 0.99259,0.99259 0.29593,0.59186 -0.29594,1.39331 0,1.98517 0.20925,0.41851 0.78333,0.57408 0.99259,0.99259 0.14796,0.29593 -0.23396,0.75863 0,0.99259 0.23395,0.23395 0.75863,-0.23396 0.99258,0 0.23396,0.23395 -0.14796,0.69665 0,0.99259 0.20926,0.41851 0.84463,0.54869 0.99259,0.99259 0.20926,0.62776 -0.10878,1.33245 0,1.98517 0.22427,1.34562 0.725045,2.63266 0.992585,3.97036 0.39471,1.97347 0.50448,4.00306 0.9926,5.95552 0.50752,2.03009 1.32345,3.97036 1.98518,5.95553 0.66172,1.98518 1.32345,3.97036 1.98517,5.95552 0.6021,1.8063 2.86542,8.98484 3.97036,10.91848 0.46429,0.81252 1.52087,1.17265 1.98517,1.98517 0.884,1.54699 1.26154,3.33476 1.98518,4.96294 0.60095,1.35214 1.51726,2.56662 1.98517,3.97036 0.53351,1.6005 0.40022,3.38328 0.99259,4.96291 0.41887,1.117 1.45168,1.9108 1.98518,2.9778 2.64982,5.2997 1.25963,3.6454 2.97776,7.9407 0.54954,1.3739 1.51727,2.5667 1.98518,3.9704 0.20926,0.6278 -0.29593,1.3933 0,1.9852 0.20926,0.4185 0.78333,0.574 0.99259,0.9926 0.14797,0.2959 -0.23396,0.7586 0,0.9925 0.23395,0.234 0.75863,-0.2339 0.99259,0 0.23395,0.234 -0.23396,0.7587 0,0.9926 0.23395,0.234 0.75863,-0.2339 0.99259,0 0.68406,0.6841 2.24994,4.8638 2.97776,5.9556 0.25955,0.3893 0.71184,0.6182 0.99259,0.9926 7.38223,9.8429 -1.64093,-1.9651 2.97776,4.9629 0.5191,0.7786 1.56667,1.1481 1.98518,1.9852 0.14797,0.2959 -0.23395,0.7586 0,0.9926 0.23396,0.2339 0.75863,-0.234 0.99259,0 0.46791,0.4679 -0.46791,1.5172 0,1.9851 0.23395,0.234 0.75863,-0.2339 0.99259,0 0.23395,0.234 -0.23396,0.7587 0,0.9926 0.23395,0.234 0.75863,-0.2339 0.99259,0 0.49629,0.4963 -0.4963,2.4815 0,2.9778 0.23395,0.2339 0.75863,-0.234 0.99258,0 0.23396,0.2339 0,0.6617 0,0.9926 0,0.3308 0,0.6617 0,0.9926 0,0.3308 0,0.6617 0,0.9926 0,0.3308 -0.23395,0.7586 0,0.9925 0.23396,0.234 0.75864,-0.2339 0.99259,0 0.23396,0.234 -0.23395,0.7587 0,0.9926 0.23396,0.234 0.75864,-0.2339 0.99259,0 0.23885,0.2389 -0.23885,3.7315 0,3.9704 0.23396,0.2339 0.75863,-0.234 0.99259,0 0.23395,0.2339 0,0.6617 0,0.9926 0,1.6543 0,3.3086 0,4.9629 -1.32345,-0.3309 -2.6469,-0.6617 -3.97035,-0.9926 0.33086,0 0.99258,0.3309 0.99258,0 0,-0.3308 -0.66172,0 -0.99258,0 -0.66173,0 -1.32346,0 -1.98518,0 -0.33086,0 0.99259,0.3309 0.99259,0 0,-0.3308 -0.66173,0 -0.99259,0 -0.66173,0 -1.32345,0 -1.98518,0 -3.97035,0 -7.9407,0 -11.91106,0 -2.6469,0 -5.2938,0 -7.9407,0 -0.66173,0 -1.32345,0 -1.98518,0 -0.33086,0 -0.69666,0.148 -0.99259,0 -0.41851,-0.2092 -0.57407,-0.7833 -0.99259,-0.9926 -0.54622,-0.2731 -5.17953,0.2587 -5.95553,0 -0.4439,-0.1479 -0.57407,-0.7833 -0.99258,-0.9926 -0.29594,-0.1479 -0.66173,0 -0.99259,0 -1.32345,0 -2.646905,0 -3.970365,0 -1.98517,0 -3.97035,0 -5.95553,0 -5.293798,0 -10.587598,0 -15.881408,0 -1.65431,0 -3.33531,-0.2959 -4.96294,0 -2.05881,0.3744 -3.92545,1.4777 -5.95553,1.9852 -0.88617,0.2216 -3.81399,0 -4.96294,0 -2.97777,0 -5.95553,0 -8.9333,0 -3.26263,0 2.72501,-0.1479 -2.97776,0.9926 -0.97331,0.1947 -1.98518,0 -2.97777,0 -3.30862,0 -6.61725,0 -9.92588,0 -0.36451,0 -3.93041,0.04 -3.97035,0 -0.23396,-0.2339 0.27529,-0.809 0,-0.9926 -1.64583,-1.0972 -2.45194,-0.9926 -3.97035,-0.9926 -3.30863,0 -6.61726,0 -9.92589,0 -0.99259,0 -1.99868,0.1632 -2.97776,0 -1.03205,-0.172 -1.942,-0.8446 -2.97777,-0.9926 -10.6102093,-1.5157 4.47509,2.8152 -9.9258793,-1.9851 z"
       id="path3441"
       inkscape:connector-curvature="0" />
    <path
       style="fill:none;fill-rule:evenodd;stroke:#000000;stroke-width:1px;stroke-linecap:butt;stroke-linejoin:miter;stroke-opacity:1"
       d="m 57.636927,946.42017 c 6.27898,0 4.53413,0 9.92589,0 0.66172,0 1.32345,0 1.98517,0 0.33086,0 1.32345,0 0.99259,0 -0.66173,0 -2.6469,0 -1.98518,0 1.32345,0 2.64691,0 3.97036,0 0.33086,0 0.66172,0 0.99259,0 0.33086,0 0.75863,0.23396 0.99258,0 0.23396,-0.23395 -0.23395,-0.75863 0,-0.99259 0.04,-0.0399 3.60584,0 3.97036,0 1.98517,0 3.97035,0 5.95553,0 0.9784,0 2.96358,0 1.98517,0 -0.66172,0 -2.6469,0 -1.98517,0 0.99258,0 2.03611,0.31389 2.97776,0 0.31389,-0.10462 -0.23395,-0.75863 0,-0.99258 0.23396,-0.23396 0.66173,0 0.99259,0 1.65431,0 3.308628,0 4.962938,0 0.33086,0 0.75863,0.23395 0.99259,0 0.23395,-0.23396 -0.23396,-0.75864 0,-0.99259 0.0319,-0.0319 2.73703,0 2.97776,0"
       id="path3474"
       inkscape:connector-curvature="0" />
    <path
       style="fill:#0044aa;fill-rule:evenodd;stroke:#000000;stroke-width:1.64196301px;stroke-linecap:butt;stroke-linejoin:miter;stroke-opacity:1"
       d="m 49.782617,945.8962 c 1.69191,-0.69774 3.51585,-0.80668 5.0757,-2.09328 0.37832,-0.31204 0,-1.39553 0,-2.09328 0,-0.76875 -0.0511,-8.28895 0,-8.37322 0.29907,-0.49337 0.96982,0.49343 1.26892,0 0.29907,-0.49337 -0.2991,-1.59989 0,-2.0933 0.29907,-0.49339 0.96982,0.49341 1.26891,0 0.63446,-1.04664 -0.63446,-5.23325 0,-6.27989 0.29909,-0.49338 1.26892,-0.69774 1.26892,0 0,0.9868 -1.26892,3.08008 -1.26892,2.09331 0,-1.56026 0.96983,-2.70642 1.26892,-4.18661 0.13376,-0.66195 -0.18916,-1.46918 0,-2.0933 0.26752,-0.88259 0.9371,-1.27224 1.26891,-2.0933 0.52465,-1.29819 0.74429,-2.88839 1.26892,-4.18658 0.33181,-0.82106 1.00141,-1.21071 1.26893,-2.0933 0.37831,-1.24823 -0.59817,-3.19983 0,-4.1866 0.59817,-0.98678 1.93966,0.98677 2.53783,0 0.63447,-1.04664 -0.63445,-5.23327 0,-6.27989 0.2991,-0.49343 0.96984,0.49337 1.26892,0 0.59817,-0.98679 -0.59817,-3.19982 0,-4.18662 0.29909,-0.49337 0.96983,0.49341 1.26892,0 0.59818,-0.98678 -0.59817,-3.19978 0,-4.1866 0.59818,-0.98678 1.93967,0.98682 2.53784,0 0.59818,-0.98678 -0.59817,-3.19979 0,-4.18656 0.29908,-0.49343 0.96983,0.49336 1.26893,0 0.59817,-0.9868 -0.59819,-3.19985 0,-4.18663 0.59817,-0.98679 1.93965,0.98678 2.53783,0 0.25941,-0.42795 -0.25156,-5.44991 0,-6.27988 0.7554,-2.49234 2.53784,-2.9211 2.53784,-2.09332 0,0.69779 -1.26892,0.69779 -1.26892,0 0,-0.98678 1.0014,-1.21069 1.26892,-2.09328 0.18915,-0.6241 -0.29909,-1.59991 0,-2.0933 0.29908,-0.49341 0.84594,0 1.26892,0 0.42296,0 0.89059,-0.31205 1.26891,0 0.53503,0.44132 0.73389,1.65198 1.26892,2.0933 0.37833,0.31205 0.96983,-0.49339 1.26892,0 0.29909,0.49341 -0.29909,1.59989 0,2.09328 0.29909,0.49341 0.96982,-0.49339 1.26892,0 0.29909,0.49341 -0.2991,1.59991 0,2.09332 0.29909,0.49339 0.96982,-0.49341 1.26893,0 0.59817,0.9868 -0.59818,3.19978 0,4.18658 0.29908,0.49341 0.96982,-0.49336 1.26891,0 0.63446,1.04666 -0.63447,5.23325 0,6.27993 0.29909,0.49336 0.96983,-0.49343 1.26891,0 0.2991,0.49336 -0.18915,1.46918 0,2.09328 0.26752,0.88261 1.00143,1.21069 1.26892,2.09328 0.25156,0.82999 -0.25941,5.85197 0,6.27992 0.2991,0.49339 0.96985,-0.49343 1.26892,0 0.63448,1.04662 -0.63445,5.23324 0,6.27986 0.2991,0.49343 0.96982,-0.49336 1.268918,0 0.59818,0.98682 -0.598168,3.19983 0,4.18663 0.29909,0.49339 0.96983,-0.49339 1.26892,0 0.29908,0.49339 -0.18917,1.4692 0,2.0933 0.2675,0.88259 1.00141,1.21069 1.26892,2.0933 0.25155,0.82995 -0.25942,5.85195 0,6.27988 0.29908,0.49341 0.96983,-0.49339 1.26891,0 0.59818,0.9868 -0.37831,2.93839 0,4.1866 0.26752,0.88262 1.00142,1.21069 1.26892,2.09331 0.18916,0.62409 -0.29907,1.59989 0,2.09332 1.69189,2.79104 1.26892,-3.48886 1.26892,2.09326 0,0.50768 -0.0408,6.21258 0,6.2799 0.2991,0.49339 0.96984,-0.49339 1.26893,0 1.25175,2.06499 -2.60012,4.18662 1.26892,4.18662"
       id="path3478"
       inkscape:connector-curvature="0" />
    <path
       style="fill:#aaeeff;fill-opacity:1;stroke:none;stroke-opacity:1"
       id="path3494"
       d="m 65.975847,945.63902 c 2.76281,-0.34944 5.53799,-0.57439 8.31858,-0.71522 2.21099,0.19571 4.40021,0.55537 6.61332,0.73595 1.97589,0.13793 3.95747,0.14836 5.93721,0.15793 2.12957,-0.13697 3.975408,0.62444 5.788748,1.62971 1.78578,0.72588 3.31365,1.83484 4.88564,2.91696 0.83235,0.32467 1.45559,1.00307 2.26041,1.37474 2.595135,1.19841 13.390365,-7.60234 -6.71396,4.82567 -2.59796,-0.42136 -5.228518,-0.51651 -7.854528,-0.58504 -2.62205,0.0481 -5.27819,-0.2476 -7.8818,0.1217 -2.12454,0.43318 -4.13728,1.20123 -6.29556,1.51306 -2.02532,0.29098 -4.05255,-0.20344 -6.06536,-0.42275 -1.62454,-0.55878 -3.28301,-0.90581 -4.98843,-1.08308 -1.03816,-0.17142 -2.06496,-0.57729 -3.13587,-0.48072 -1.0639,0.0959 -1.71021,0.81817 -1.36263,0.62914 2.37145,-1.28972 4.70877,-2.64122 7.06316,-3.96184 -0.97684,1.35112 0.62748,2.31399 1.72261,2.80779 1.81672,0.60475 3.75043,0.62298 5.6452,0.65972 2.26779,0.0257 4.53579,0.003 6.80361,-0.008 2.12323,0.19864 4.07968,-0.35475 6.06837,-1.00033 -2.2289,1.47415 4.8355,-2.69822 2.4747,-1.36777 -12.16039,6.85311 -7.44682,4.34381 -4.78879,2.55065 4.70118,-3.07642 9.35624,-6.43178 14.674678,-8.32895 1.9689,-0.62072 4.01335,-0.92845 5.730315,0.39145 1.24664,1.45041 1.75348,3.24271 2.08733,5.08321 -0.009,0.97352 -0.14165,2.01991 -1.0946,2.56912 -6.513875,3.75415 -6.663865,4.60865 -11.872423,5.08747 -3.65245,0.32739 -7.2906,-0.39021 -10.70934,-1.64195 -2.44121,-0.75303 -4.55613,-2.19529 -6.83721,-3.28461 -1.52782,-0.90001 -3.09778,-1.72012 -4.66234,-2.55877 -1.55953,-1.0924 -3.21401,-2.01441 -4.66665,-3.25007 -1.38382,-1.11417 -3.06338,-1.8257 -4.85327,-1.70141 -2.24776,1.13472 -10.07274,5.09491 6.49544,-3.63823 0.18277,-0.0963 -0.32135,0.2667 -0.44233,0.43419 -0.46069,0.6378 -0.54049,1.4638 -0.65822,2.21188 -0.33552,2.03578 0.57406,3.85835 1.3683,5.66923 0.63724,1.75145 1.32037,3.66466 3.31472,4.10456 1.56001,-0.42124 3.10348,-0.84069 4.70755,-1.0739 1.87862,-0.32727 3.8183,-0.0459 5.67676,-0.44529 1.69072,-0.52212 3.48006,-0.48836 5.18505,-0.90211 0.31316,-0.0721 0.63466,-0.11464 0.93948,-0.21642 0.54058,-0.18049 3.04724,-1.54915 1.61123,-0.70951 -12.37059,7.23315 -8.09312,4.69931 -5.50983,3.03997 1.34252,-1.01979 2.46396,-2.27979 3.77472,-3.33725 0.48555,-0.28753 0.84849,-0.75312 1.33242,-1.04275 2.73622,-1.63761 5.571998,-3.11006 8.262518,-4.82174 2.23527,-1.42205 -4.590178,2.64682 -6.895588,3.95211 -0.22612,0.12803 0.43107,-0.29121 0.65686,-0.41982 2.758128,-1.5711 5.529298,-3.11918 8.293938,-4.67877 1.59274,-0.24888 3.01027,-1.12827 4.634275,-1.12733 0.62405,0.2467 0.76579,0.21053 1.20552,0.76513 2.14247,2.70216 -4.588565,4.74303 -8.416435,6.97272 -2.35932,0.72172 -4.854718,0.82169 -7.304498,0.91451 -2.09921,0.0884 -4.15768,0.13492 -6.21393,-0.31157 -1.74131,-0.46669 -3.5587,-0.40432 -5.31042,-0.77452 -2.00709,-0.50466 -4.06153,-0.69116 -6.12136,-0.79988 -2.37736,-0.0211 -4.71961,-0.0807 -7.07255,-0.4248 -2.15918,-0.35587 -4.34005,-0.51708 -6.52439,-0.6008 -0.94594,0.0347 -1.93454,-0.20429 -2.856,0.12227 -0.23477,0.0832 -0.86741,0.49015 -0.64993,0.36872 7.224,-4.03384 9.07544,-5.70174 6.51969,-3.48495 -1.2063,1.11222 -1.41211,2.68672 -1.57478,4.23501 -0.85771,4.50309 -1.38372,9.05687 -1.77282,13.6214 -0.66813,5.8485 -3.73952,8.32964 -10.71574,9.85013 -1.96069,0.24485 -3.91815,0.34796 -5.77565,-0.38696 -5.59511,-1.52783 1.93421,-6.57941 6.46239,-5.99975 0.9539,0.0908 0.46045,0.0492 1.48053,0.12264 0,0 -7.19211,5.14244 -7.19211,5.14244 l 0,0 c -1.04575,-0.0836 -0.53932,-0.0386 -1.51943,-0.13342 -3.41056,-0.32654 -0.92395,0.0385 6.42856,-4.98327 0.10836,-0.074 0.16522,0.21038 0.27599,0.28072 0.17711,0.11249 0.36446,0.20932 0.5557,0.29562 0.26666,0.12032 0.54396,0.21552 0.81593,0.32329 1.77328,0.49132 3.67313,0.36707 5.44984,-0.074 3.0592,-1.35141 2.05848,-0.94669 -6.00505,3.70839 -0.25257,0.14581 0.49529,-0.32045 0.69092,-0.53673 0.91762,-1.01454 1.05854,-2.4497 1.26261,-3.7299 0.43053,-4.53457 0.97194,-9.05874 1.65712,-13.56227 0.1219,-1.67277 0.25164,-3.4192 1.28564,-4.81292 3.65408,-3.67401 7.51248,-5.94444 12.33208,-5.51578 2.19519,0.11503 4.38156,0.32861 6.55281,0.67886 2.33978,0.29931 4.68558,0.25525 7.03903,0.36558 2.08856,0.13776 4.15678,0.39887 6.19923,0.87015 1.77757,0.25162 3.58004,0.34078 5.32895,0.78234 2.00386,0.35381 4.034068,0.21241 6.059998,0.16278 2.39665,-0.12088 4.87855,-0.22675 7.094475,-1.23794 -2.234725,1.33566 -4.499775,2.62184 -6.704165,4.00699 -0.27161,0.17067 0.78401,-0.17095 0.82909,-0.48854 0.063,-0.44358 -0.67932,-0.47785 -0.91169,-0.46218 -1.51193,0.30334 -2.98174,0.87678 -4.438868,1.36504 2.292188,-1.33763 4.586358,-2.6719 6.876578,-4.01291 0.22262,-0.13034 -0.45119,0.25034 -0.67368,0.38089 -2.73847,1.60675 -5.48831,3.1945 -8.209128,4.83096 -2.25857,1.35844 4.536508,-2.68472 6.822308,-3.99684 0.49068,-0.28167 -1.94867,1.24806 -1.33539,1.04773 -1.41998,0.9352 -2.5455,2.19064 -3.760558,3.36402 -3.7548,2.69964 -7.73363,5.48554 -12.30209,6.44055 -1.74106,0.27946 -3.49298,0.4831 -5.2157,0.87348 -1.88655,0.17604 -3.79501,0.1137 -5.66724,0.45279 -1.64113,0.30617 -3.29172,1.00781 -4.96924,0.71922 -2.02478,-0.91883 -3.00525,-2.66947 -3.67214,-4.73644 -0.84864,-1.93289 -1.86311,-3.90415 -1.61151,-6.0798 0.49397,-4.93259 3.11311,-7.50427 9.68792,-8.09478 1.92998,0.21059 3.68876,0.92104 5.17087,2.19891 1.43574,1.16153 3.03896,2.07827 4.57042,3.10666 1.54781,0.85004 3.13793,1.61409 4.64605,2.53378 2.20385,1.14882 4.32008,2.48233 6.71123,3.23787 3.37332,1.14614 6.915508,1.76224 10.481498,1.31876 0.54508,-0.0736 1.09418,-0.12187 1.63524,-0.22078 0.47784,-0.0874 1.812725,-0.61999 1.417695,-0.3373 -2.034775,1.45615 -4.306085,2.55198 -6.408395,3.90881 -0.26527,0.1712 0.62321,-0.16326 0.88297,-0.3427 0.47945,-0.33121 0.50124,-0.80393 0.63317,-1.30725 -0.26048,-1.60303 -0.62552,-3.22064 -1.756,-4.45666 -1.62286,-0.92388 -3.533828,-0.29035 -5.183618,0.26457 -2.83767,1.17305 -7.87284,4.14297 3.839148,-2.52831 0.80617,-0.45921 -1.55523,1.01214 -2.331718,1.51993 -0.36036,0.23566 -0.72654,0.4623 -1.08981,0.69346 -3.99009,2.9097 -8.28864,5.49951 -12.83436,7.43417 -2.0364,0.61592 -4.08747,0.9223 -6.22282,0.78621 -2.27603,0.007 -4.55232,0.0247 -6.82822,-0.009 -1.99168,-0.0723 -4.02558,-0.1595 -5.87803,-0.9746 -1.61275,-0.90674 -3.01423,-2.24257 -2.51509,-4.25396 7.55946,-4.67109 6.45618,-5.85763 12.81476,-4.69355 1.69444,0.23002 3.32428,0.67769 4.98136,1.0824 1.95943,0.23605 3.93362,0.64419 5.90063,0.23361 2.12966,-0.42168 4.16522,-1.22009 6.32799,-1.46586 2.63653,-0.182 5.28489,-0.0204 7.925308,-0.006 2.73481,0.0979 5.54268,0.10932 8.186695,0.87741 -7.679145,5.87484 -5.172695,6.56735 -10.429753,3.38233 -1.53704,-1.08362 -3.11053,-2.0634 -4.83368,-2.83527 -1.73786,-0.92971 -3.54629,-1.39715 -5.53825,-1.27528 -1.9937,-0.0178 -3.98969,-0.0434 -5.97705,-0.21896 -2.17249,-0.21226 -4.32906,-0.6144 -6.51446,-0.65293 -2.78092,0.1533 -5.55988,0.37966 -8.31351,0.80916 0,0 7.0749,-5.2952 7.0749,-5.2952 z"
       inkscape:connector-curvature="0" />
    <path
       style="fill:#aaeeff;fill-opacity:1;stroke:none;stroke-opacity:1"
       id="path3496"
       d="m 72.961037,951.29445 c 2.26608,1.42342 4.79312,2.3253 7.24146,3.37408 1.78354,1.05058 3.7108,1.62017 5.74537,1.89947 2.14747,0.36563 4.07516,1.30569 5.965708,2.34589 1.87957,1.07767 3.7761,1.97891 5.89712,2.44666 1.96326,0.63164 3.860225,1.45432 5.727825,2.32526 1.7568,0.50947 2.93611,1.87945 4.21657,3.09156 1.1472,1.22238 2.20798,2.53347 3.42124,3.69146 0.10937,0.17741 0.21874,0.35482 0.32811,0.53223 0,0 -7.68456,4.44029 -7.68456,4.44029 l 0,0 c -0.0606,-0.11463 -0.12124,-0.22927 -0.18185,-0.3439 -1.17605,-1.1864 -2.25074,-2.46813 -3.39729,-3.68295 -1.239825,-1.15586 -2.386155,-2.35464 -4.065535,-2.8583 -1.8154,-0.86022 -3.68554,-1.63997 -5.61981,-2.18729 -2.139238,-0.57911 -4.081298,-1.55592 -6.010558,-2.63608 -1.84815,-0.96152 -3.72733,-1.8121 -5.81492,-2.09357 -2.06904,-0.37609 -4.01026,-1.07232 -5.85437,-2.09506 -2.45297,-1.09116 -4.96173,-2.05809 -7.30101,-3.38969 0,0 7.3865,-4.86006 7.3865,-4.86006 z"
       inkscape:connector-curvature="0" />
    <path
       style="fill:#aaeeff;fill-opacity:1;stroke:none;stroke-opacity:1"
       id="path3498"
       d="m 66.537237,958.14875 c -0.0532,2.77561 -0.0326,5.55205 -0.0234,8.32799 0.008,2.18556 0.0121,4.37113 0.0141,6.5567 -0.0204,2.1513 0.0714,4.30533 -0.10607,6.4507 -0.21958,1.99084 -0.50821,3.99182 -1.63107,5.68747 -3.4775,2.91439 -7.72914,4.80134 -11.67646,7.00666 -1.674,0.81883 -3.5353,1.09219 -5.10348,2.12681 2.32545,-1.31576 4.61276,-2.70136 6.97637,-3.94728 0.20416,-0.10762 -0.33097,0.32537 -0.46362,0.51422 -0.65152,0.92756 -0.72835,2.11814 -0.84211,3.20349 -0.13482,2.1997 -0.0993,4.40541 -0.0856,6.60799 0.0153,2.0309 0.0227,4.0619 0.0267,6.0929 0.003,1.9847 0.003,3.9694 0.003,5.9541 -5e-5,1.9844 -1.7e-4,3.9688 -2.3e-4,5.9533 -5e-5,1.9851 -6e-5,3.9702 -6e-5,5.9554 -0.16127,1.69 -0.47627,3.3782 -1.01909,4.9884 -1.58937,3.5796 -6.94357,5.0302 -9.58874,6.5952 -2.23658,1.3233 4.48396,-2.6292 6.75691,-3.8889 0.3218,-0.1784 -0.59868,0.4278 -0.89803,0.6417 -2.13731,1.9219 -4.42031,3.6317 -6.79133,5.2529 -3.60845,2.2633 -7.12537,4.8581 -11.17407,6.2391 -0.37886,0.1292 -0.7806,0.1884 -1.15354,0.3338 -0.36664,0.1429 -1.3972,0.7239 -1.05604,0.5278 2.19177,-1.2601 4.4062,-2.4804 6.6093,-3.7205 -1.83249,1.1667 -2.75142,2.8732 -3.24334,4.9247 -0.25299,1.3251 -0.27755,2.6761 -0.31486,4.0198 0,0 -7.8526,3.9836 -7.8526,3.9836 l 0,0 c 0.0107,-1.3901 0.0261,-2.7845 0.22806,-4.1633 0.40062,-2.1862 1.14858,-4.1658 2.98044,-5.5637 2.82821,-1.6492 5.63077,-3.3431 8.48464,-4.9474 0.47726,-0.2683 1.7058,-0.6331 2.21545,-0.8397 0.38779,-0.1572 1.49909,-0.7388 1.14287,-0.5193 -1.64775,1.0155 -9.40118,5.5376 -5.01596,2.9252 2.35185,-1.6106 4.71794,-3.1808 6.76894,-5.1722 3.20033,-2.869 0.77371,-0.796 9.18886,-5.5893 2.29538,-1.3075 -4.58046,2.6333 -6.8503,3.9846 -0.39037,0.2324 2.50033,-1.3739 1.55264,-1.2765 0.55919,-1.5401 0.90227,-3.111 1.17156,-4.732 0,-1.9852 10e-6,-3.9703 4e-5,-5.9555 4e-5,-1.9844 1.2e-4,-3.9688 1.7e-4,-5.9532 -2e-5,-1.9843 9e-5,-3.9687 -0.002,-5.953 -0.003,-2.0312 -0.007,-4.0624 -0.0183,-6.0936 -0.0101,-2.2244 -0.0332,-4.45 0.0486,-6.67337 0.32508,-5.77185 2.46887,-5.89962 9.0947,-9.26282 1.67348,-0.77565 3.47971,-1.20814 5.09629,-2.10982 3.11198,-1.64823 1.49374,-0.8055 -5.96112,3.51398 -0.23566,0.13654 0.46132,-0.29012 0.69896,-0.42318 0.6507,-0.36433 1.25812,-0.76979 1.92406,-1.10698 1.45226,-1.33161 1.62063,-3.36994 1.8918,-5.22688 0.26189,-2.10971 0.0793,-4.24011 0.13139,-6.36254 0.002,-2.19036 0.006,-4.38073 0.0141,-6.57107 0.009,-2.76797 0.03,-5.53647 -0.0234,-8.3041 0,0 7.87473,-4.01237 7.87473,-4.01237 z"
       inkscape:connector-curvature="0" />
    <path
       style="fill:#aaeeff;fill-opacity:1;stroke:none;stroke-opacity:1"
       id="path3500"
       d="m 84.835017,945.63902 c 2.76282,-0.34944 5.537998,-0.57439 8.318588,-0.71522 2.20388,-0.0211 4.43278,-0.28127 6.61952,0.0509 2.094425,0.52618 3.917875,1.55114 5.537555,2.95854 1.26914,1.29661 2.1026,2.70637 2.55523,4.45685 0.35368,1.89798 0.81019,3.7672 1.06805,5.68296 0.23242,1.99428 0.25861,4.00404 0.279,6.00926 0,0 -7.85454,4.01064 -7.85454,4.01064 l 0,0 c -0.014,-1.97326 -0.028,-3.9506 -0.23075,-5.9155 -0.23233,-1.88853 -0.68705,-3.72199 -1.03637,-5.58721 -0.366025,-1.58396 -1.107975,-2.83228 -2.269155,-3.98289 -1.53752,-1.26771 -3.25071,-2.20092 -5.24025,-2.53233 -2.16494,-0.16247 -4.341058,-0.0128 -6.508258,0.05 -2.78092,0.1533 -5.55988,0.37966 -8.31351,0.80916 0,0 7.07489,-5.2952 7.07489,-5.2952 z"
       inkscape:connector-curvature="0" />
    <path
       style="fill:#aaeeff;fill-opacity:1;stroke:none;stroke-opacity:1"
       id="path3502"
       d="m 48.109187,968.3229 c 1.6539,-2.09085 3.12572,-4.34072 4.84046,-6.38252 5.25976,-4.69272 8.96677,-7.64 9.56408,-1.78799 0.11233,1.95345 0.0785,3.91188 0.0681,5.86756 -0.002,0.33569 -0.004,0.67138 -0.005,1.00707 0,0 -7.85892,3.99894 -7.85892,3.99894 l 0,0 c 0.002,-0.33569 0.004,-0.67138 0.005,-1.00707 0.0107,-1.92682 0.0413,-3.85552 -0.0487,-5.78093 -0.36932,-4.5385 -2.31234,-0.47903 6.99134,-5.95208 0.18029,-0.10606 -0.38396,0.16605 -0.57594,0.24908 -1.89581,1.834 -3.16839,4.2516 -4.88628,6.24642 0,0 -8.09427,3.54152 -8.09427,3.54152 z"
       inkscape:connector-curvature="0" />
    <path
       style="fill:#aaeeff;fill-opacity:1;stroke:none;stroke-opacity:1"
       id="path3504"
       d="m 83.842437,943.65384 c 3.09901,-0.65563 6.12316,-1.67819 9.032438,-2.92605 0.37975,-0.22833 1.52425,-0.90433 1.13924,-0.68499 -2.16904,1.23565 -8.677138,4.94031 -6.491588,3.7341 2.855228,-1.5758 5.645628,-3.26719 8.500838,-4.84301 0.63255,-0.34911 1.1434,-0.51408 1.85659,-0.32923 0.27405,0.071 0.50527,0.25554 0.7579,0.38331 0.82961,0.75204 1.399235,1.63326 1.863555,2.63884 0,0 -7.701115,4.34847 -7.701115,4.34847 l 0,0 c -0.35541,-0.79108 -0.76893,-1.52926 -1.50297,-2.03519 -0.61096,-0.0971 -0.56938,-0.16001 -1.235348,0.086 -0.31273,0.11554 -1.19126,0.59651 -0.90539,0.42497 14.415253,-8.65048 1.991898,-0.7559 -3.164,1.69918 -2.99148,1.17646 -6.05764,2.21456 -9.22505,2.79878 0,0 7.0749,-5.2952 7.0749,-5.2952 z"
       inkscape:connector-curvature="0" />
    <path
       style="fill:#aaeeff;fill-opacity:1;stroke:none;stroke-opacity:1"
       id="path3506"
       d="m 74.023477,942.1766 c 2.63663,0.59163 5.23487,1.29531 7.84877,1.97826 2.22898,0.4418 4.47323,0.65201 6.65429,1.32039 2.024848,0.71363 4.130668,1.05641 6.261318,1.23205 0.93519,-10e-4 1.91343,0.24992 2.82854,-0.0672 0.23386,-0.081 0.8632,-0.48484 0.6471,-0.36416 -7.229,4.03714 -8.889238,5.89711 -6.59921,3.46324 0.67917,-1.16656 0.59583,-2.40189 -0.58497,-3.12727 -4.615448,-2.71242 -4.553168,-0.14857 5.32711,-5.66818 0.98962,1.08654 1.7888,2.30658 2.29209,3.68902 0.51614,1.8003 0.54676,3.68623 0.58827,5.54471 0.0766,1.66841 0.63824,3.07462 1.448775,4.49621 0.75851,1.39907 2.1338,2.16792 3.14958,3.32527 0.52502,0.48873 0.94863,1.05519 1.45509,1.5622 0,0 -7.553715,4.61492 -7.553715,4.61492 l 0,0 c -0.49932,-0.52512 -0.9526,-1.08528 -1.4702,-1.59288 -1.0849,-1.16712 -2.46107,-2.03964 -3.23451,-3.49394 -0.89219,-1.54933 -1.51761,-3.07621 -1.64716,-4.89131 -0.0305,-1.76709 -0.0376,-3.56 -0.47599,-5.28343 -0.43086,-1.25458 -1.175898,-2.35007 -2.088778,-3.30906 7.075138,-5.32623 5.015698,-6.62191 9.687528,-3.73376 1.3516,1.1196 1.804685,2.62225 1.21424,4.31548 -2.15363,4.54181 -7.6704,6.11078 -12.166318,5.63394 -2.15908,-0.23717 -4.27668,-0.67461 -6.33758,-1.37361 -2.19479,-0.57513 -4.45032,-0.75677 -6.64868,-1.30971 -2.6134,-0.72842 -5.23483,-1.38318 -7.88433,-1.96947 0,0 7.28874,-4.99172 7.28874,-4.99172 z"
       inkscape:connector-curvature="0" />
  </g>
</svg>
