<?xml version="1.0" encoding="UTF-8" standalone="no"?>
<!-- Created with Inkscape (http://www.inkscape.org/) -->

<svg
   xmlns:dc="http://purl.org/dc/elements/1.1/"
   xmlns:cc="http://creativecommons.org/ns#"
   xmlns:rdf="http://www.w3.org/1999/02/22-rdf-syntax-ns#"
   xmlns:svg="http://www.w3.org/2000/svg"
   xmlns="http://www.w3.org/2000/svg"
   xmlns:sodipodi="http://sodipodi.sourceforge.net/DTD/sodipodi-0.dtd"
   xmlns:inkscape="http://www.inkscape.org/namespaces/inkscape"
   width="350.66141"
   height="100.16535"
   viewBox="0 0 350.66139 100.16535"
   id="svg4193"
   version="1.1"
   inkscape:version="0.91 r13725"
   sodipodi:docname="nazvanie.svg">
  <defs
     id="defs4195" />
  <sodipodi:namedview
     id="base"
     pagecolor="#ffffff"
     bordercolor="#666666"
     borderopacity="1.0"
     inkscape:pageopacity="0.0"
     inkscape:pageshadow="2"
     inkscape:zoom="2.0149341"
     inkscape:cx="143.62728"
     inkscape:cy="71.475542"
     inkscape:document-units="px"
     inkscape:current-layer="layer1"
     showgrid="false"
     units="px"
     inkscape:window-width="1366"
     inkscape:window-height="706"
     inkscape:window-x="-8"
     inkscape:window-y="-8"
     inkscape:window-maximized="1" />
  <metadata
     id="metadata4198">
    <rdf:RDF>
      <cc:Work
         rdf:about="">
        <dc:format>image/svg+xml</dc:format>
        <dc:type
           rdf:resource="http://purl.org/dc/dcmitype/StillImage" />
        <dc:title></dc:title>
      </cc:Work>
    </rdf:RDF>
  </metadata>
  <g
     inkscape:label="Layer 1"
     inkscape:groupmode="layer"
     id="layer1"
     transform="translate(0,-952.19686)">
    <path
       style="fill:#000080;fill-opacity:1;stroke:none;stroke-opacity:1"
       id="path4741"
       d="m 49.537737,974.80516 c 0.757467,1.75018 1.281961,3.57979 1.651086,5.447 0.252954,1.58218 0.584186,3.15125 0.890867,4.72405 0.402271,1.9371 0.909104,3.84675 1.237315,5.80005 0.249713,1.57025 0.30926,3.15997 0.338708,4.7468 0.02596,1.31255 -0.07282,2.62119 0.164715,3.91731 0.290948,1.25783 0.410567,2.54123 0.482023,3.82713 0.0597,1.3952 0.05781,2.7921 0.05917,4.1882 0.12442,1.4227 -0.103778,2.6947 -0.678899,3.9884 -0.617071,1.2104 -1.487624,2.2522 -2.18002,3.4157 -0.485155,1.0564 -1.403545,1.7376 -2.118023,2.6084 -0.840591,1.1211 -1.641061,2.2641 -2.504074,3.3687 -0.998955,1.2438 -1.739341,2.6599 -2.48528,4.0621 -0.718845,1.3868 -1.200768,2.8745 -1.814688,4.3055 -1.943165,4.3023 -8.186266,5.6038 -11.596683,7.5349 0,0 9.241899,-7.2921 9.241899,-7.2921 l 0,0 c -3.196319,1.8603 -6.392638,3.7205 -9.588957,5.5807 0.400269,-0.1425 0.612389,-0.1691 0.927817,-0.4742 0.135999,-0.1316 0.229703,-0.3007 0.344555,-0.4511 0.63903,-1.4577 1.221885,-2.9309 1.845656,-4.3989 0.709114,-1.4558 1.450288,-2.8999 2.344804,-4.2512 0.865632,-1.0903 1.737556,-2.1502 2.476789,-3.3303 0.216379,-0.3122 0.392753,-0.6532 0.631046,-0.949 0.477183,-0.5925 1.306285,-0.785 1.531935,-1.6072 0.420076,-0.5568 0.678139,-1.1783 1.0977,-1.7352 0.294301,-0.3906 0.558155,-0.5881 0.808538,-1.0096 0.114779,-0.1932 0.190427,-0.4071 0.285641,-0.6107 0.822993,-1.0138 1.0911,-2.1314 0.978034,-3.4286 6.9e-5,-1.3775 0.0038,-2.7554 -0.04108,-4.1323 -0.05417,-1.2313 -0.139433,-2.4644 -0.422391,-3.6682 -0.282704,-1.367 -0.260873,-2.7295 -0.23121,-4.1226 -0.0085,-1.5451 -0.02519,-3.09373 -0.210722,-4.62989 -0.264543,-1.94104 -0.743196,-3.82366 -1.22778,-5.71829 -0.383426,-1.56961 -0.635696,-3.18246 -0.889038,-4.77608 -0.290901,-1.79659 -0.711339,-3.59528 -1.654032,-5.17513 0,0 10.304579,-5.75435 10.304579,-5.75435 z"
       inkscape:connector-curvature="0" />
    <path
       style="fill:#000080;fill-opacity:1;stroke:none;stroke-opacity:1"
       id="path4743"
       d="m 42.589624,973.95924 c 1.402769,2.25571 2.971047,4.39441 4.411058,6.62581 1.562996,2.25692 2.774194,4.71891 3.842919,7.23944 1.098872,2.3586 2.152893,4.73547 3.145383,7.1407 0.687112,1.58867 0.917319,3.27356 1.019196,4.98352 0.03922,1.77319 0.108021,3.55309 -0.02106,5.32339 -0.319583,1.7141 -0.758677,3.4119 -1.259974,5.0825 -0.40236,1.4175 -1.221794,2.6362 -1.998602,3.867 -0.806372,1.1717 -1.721753,2.2626 -2.598615,3.3827 -0.679268,1.1121 -1.7872,1.7944 -2.746544,2.6286 -0.924474,0.7431 -1.778202,1.557 -2.482777,2.5128 -0.87649,1.242 -1.982373,2.2759 -3.153291,3.2359 -1.542195,1.2989 -3.216151,2.4126 -4.917154,3.4874 -4.612659,2.9982 -9.249317,6.1194 -14.358508,8.1769 0.478648,-0.176 -1.568641,0.911 -1.176085,0.684 31.706465,-18.3408 -23.7340546,13.6785 7.617621,-4.3857 -4.437052,2.7313 -8.515347,6.5976 -13.676542,7.6576 -0.652361,0.061 -1.142523,-0.2738 -1.692283,-0.5587 0,0 9.80751,-6.5565 9.80751,-6.5565 l 0,0 c 0.450994,0.1255 0.734826,0.1194 1.184801,-0.065 3.539225,-1.4406 9.86246,-5.5526 -8.343328,4.9831 -0.196885,0.1139 0.389878,-0.2356 0.573701,-0.3696 1.162352,-0.8473 -0.04828,-0.1157 1.230151,-0.8366 3.550098,-2.0758 7.096715,-4.1576 10.650293,-6.2274 8.332097,-4.8531 -33.6339309,19.3656 1.80133,-0.9997 0.56516,-0.3248 0.599121,-0.3227 1.205321,-0.5992 3.693884,-1.7825 7.989019,-4.5471 -7.943404,4.7364 -0.242445,0.1412 0.497937,-0.2598 0.737239,-0.4064 0.519668,-0.3182 0.990051,-0.7138 1.537889,-0.9882 1.624964,-1.1487 3.427977,-2.0448 4.921142,-3.3857 1.142206,-0.8817 2.37007,-1.7592 3.17474,-2.9749 0.548258,-0.6021 0.911418,-1.3423 1.505712,-1.9108 0.141132,-0.135 0.320623,-0.2252 0.463811,-0.358 0.156586,-0.1452 0.288099,-0.3154 0.432149,-0.4731 1.720488,-1.2825 -0.719841,0.5764 0.99353,-0.8668 0.605928,-0.5103 1.380911,-0.8019 1.865338,-1.4649 0.789661,-1.197 1.744629,-2.2519 2.659805,-3.3489 0.771679,-1.1587 1.545841,-2.3129 2.143181,-3.5735 0.501095,-1.6195 0.937037,-3.2521 1.390953,-4.8869 0.210518,-1.7098 0.09255,-3.4391 0.07908,-5.1584 -0.07046,-1.5902 -0.22185,-3.1767 -0.791804,-4.679 -0.906796,-2.43234 -1.883935,-4.83351 -2.998791,-7.17917 -1.074396,-2.44949 -2.342508,-4.80705 -3.783143,-7.06173 -1.39301,-2.21868 -2.903542,-4.36183 -4.561788,-6.39089 0,0 10.109849,-6.04247 10.109849,-6.04247 z"
       inkscape:connector-curvature="0" />
    <path
       style="fill:#000080;fill-opacity:1;stroke:none;stroke-opacity:1"
       id="path4745"
       d="m 65.751199,972.5555 c 1.380686,2.05765 3.350427,3.58365 5.082381,5.31853 1.648053,1.61474 3.608698,2.84281 5.373206,4.30999 1.143652,0.84432 2.210612,1.73018 2.863447,3.00827 0.513102,1.23651 0.573707,2.51533 0.29046,3.80729 -0.477904,1.16502 -1.345446,2.10374 -2.136693,3.06408 -1.052484,1.3292 -1.74976,2.88686 -2.692334,4.29714 -1.91226,2.86997 -4.630947,5.0465 -7.250542,7.2368 -4.456092,3.5071 -9.485152,6.071 -14.424286,8.8763 -0.617311,0.3506 -1.2986,0.5768 -1.926624,0.9079 -1.484346,0.9132 -3.227372,1.2694 -4.715145,2.1607 -3.88152,1.9496 -0.987503,0.5101 8.92435,-5.1552 0.213397,-0.122 -0.504965,0.2149 -0.586685,0.4467 -0.145686,0.4132 0.11803,0.6889 0.295009,1.0408 1.617899,2.8809 3.792992,5.3877 5.919791,7.8975 1.457679,2.005 3.244846,3.7045 5.047442,5.3846 1.082387,0.9555 2.193812,1.854 3.406403,2.6415 1.678016,0.823 3.279483,1.8011 4.963168,2.6073 1.702699,0.867 3.479003,1.6022 5.338795,2.0532 1.643257,0.3062 3.319041,0.3267 4.984914,0.3377 1.446826,-8e-4 2.893614,-0.013 4.340425,-0.019 0.952526,0 0.471932,0.038 1.441094,-0.1303 0,0 -9.394817,6.9831 -9.394817,6.9831 l 0,0 c -1.065417,0.055 -0.554155,0.042 -1.533608,0.046 -1.446603,0.01 -2.893487,0.016 -4.339871,-0.016 -1.723251,-0.057 -3.457094,-0.1538 -5.132587,-0.5942 -1.874897,-0.5885 -3.686736,-1.3714 -5.442442,-2.2517 -1.693608,-0.8759 -3.373745,-1.7809 -5.042815,-2.703 -1.291099,-0.8123 -2.457521,-1.7492 -3.529132,-2.8377 -1.766072,-1.761 -3.464516,-3.5804 -4.922464,-5.6135 -2.112622,-2.6189 -4.316842,-5.1726 -6.217492,-7.9528 -0.467755,-0.7589 -0.676969,-0.903 -0.803622,-1.7461 -0.04023,-0.2679 -0.0755,-1.0852 0.260479,-1.2937 7.257153,-4.5035 7.120109,-4.4191 11.1747,-6.4503 1.577446,-0.6559 3.166599,-1.2878 4.664019,-2.1176 3.579534,-1.7077 8.899086,-4.8236 -6.988612,4.2309 -0.383929,0.2188 0.730049,-0.4981 1.097185,-0.7441 2.544554,-1.7046 -0.158317,0.1346 2.544859,-1.7144 2.551841,-2.1003 5.315039,-4.1056 7.18475,-6.8741 1.030324,-1.40471 1.745163,-2.83334 2.553757,-4.35083 0.767091,-0.89285 1.484929,-1.809 2.24603,-2.69593 0.601567,-0.89306 0.499903,-1.94855 0.172057,-2.93743 -0.537708,-1.12534 -1.615174,-1.83579 -2.527626,-2.64553 -1.767303,-1.48924 -3.667439,-2.82543 -5.303687,-4.4707 -1.787905,-1.76779 -3.759079,-3.35334 -5.367486,-5.29981 0,0 10.109849,-6.04247 10.109849,-6.04247 z"
       inkscape:connector-curvature="0" />
    <path
       style="fill:#000080;fill-opacity:1;stroke:none;stroke-opacity:1"
       id="path4747"
       d="m 99.221808,1012.46 c -0.909783,1.1585 -1.702224,2.3923 -2.411596,3.6815 -0.839502,1.3518 -1.292389,2.8206 -1.642073,4.3566 -0.856508,2.8967 -1.775736,5.7656 -2.463722,8.71 -0.80526,3.3387 -1.407978,6.7161 -1.717415,10.136 -0.04595,1.272 -0.513146,2.8527 1.061332,3.2192 1.228523,0.2956 2.459119,0.5361 3.728496,0.6477 1.812867,0.1136 3.63065,0.118 5.44642,0.1209 2.15793,0.1268 4.28357,-0.1357 6.42406,-0.3567 2.09235,-0.2907 4.06567,-0.9728 6.03806,-1.6916 3.90199,-2.5454 -0.7634,0.5199 -8.50968,4.787 -0.24833,0.1367 0.44876,-0.3477 0.65762,-0.5394 0.7391,-0.6785 1.28196,-1.5024 1.84105,-2.3263 2.06544,-3.269 3.68783,-6.7536 5.12054,-10.3355 0.91982,-2.2966 1.59464,-4.6729 1.90513,-7.1267 0.21219,-1.3012 -0.0538,-2.3187 -1.15896,-3.069 -1.26309,-0.7522 -2.66288,-1.3018 -4.03142,-1.8488 -1.80171,-0.9026 -3.65482,-1.5819 -5.63297,-1.9678 -1.52679,-0.2558 -3.07769,-0.2643 -4.621102,-0.2688 -1.594235,-0.013 -3.188528,0 -4.782749,0.012 -0.926313,0.1258 -1.993926,-0.229 -2.885284,0.1476 -0.462656,0.1954 -0.848343,0.5386 -1.28464,0.7873 17.280775,-9.6548 10.527135,-7.0503 7.771006,-3.8771 0,0 -10.76846,4.6036 -10.76846,4.6036 l 0,0 c 3.091727,-4.2291 5.874718,-5.0091 12.141306,-8.0361 1.449863,-0.6211 2.945443,-0.5433 4.499503,-0.5131 1.60188,0 3.20376,-0.01 4.80563,0 1.58194,0.042 3.16926,0.1286 4.71342,0.5042 1.98902,0.5185 3.86797,1.3036 5.75165,2.1174 1.46237,0.6091 2.99643,1.1218 4.26794,2.0939 1.2437,1.1074 1.95592,2.4339 1.68559,4.1421 -0.30945,2.6046 -1.05061,5.1115 -2.05914,7.533 -1.43714,3.5542 -2.94091,7.0705 -4.85484,10.4004 -2.64961,5.2952 -8.20152,7.8343 -13.77089,9.9582 -1.99613,0.6887 -4.04847,1.2003 -6.151857,1.4297 -2.175643,0.2231 -4.345649,0.3694 -6.535394,0.2848 -1.861293,-0.012 -3.727192,0 -5.582031,-0.1767 -1.353528,-0.18 -2.703467,-0.4368 -3.981429,-0.9314 -1.814609,-1.1245 -1.844227,-2.5855 -1.594679,-4.5811 0.3937,-3.4877 1.020244,-6.9332 1.854396,-10.3437 0.569525,-2.8977 1.243015,-5.7637 2.166717,-8.57 0.331584,-1.5963 0.541492,-3.2137 1.474127,-4.608 0.634353,-1.3507 1.423085,-2.5941 2.239024,-3.8282 0,0 10.847314,-4.6745 10.847314,-4.6745 z"
       inkscape:connector-curvature="0" />
    <path
       style="fill:#000080;fill-opacity:1;stroke:none;stroke-opacity:1"
       id="path4749"
       d="m 129.28879,1020.4719 c -17.676,10.4789 -8.94744,5.558 -5.42908,2.1835 1.69599,-1.7923 3.50829,-3.4452 5.42227,-5.0008 2.50877,-1.9688 4.9916,-3.9677 7.60898,-5.7916 5.19227,-3.1296 10.11807,-7.1295 16.24979,-7.8206 2.01591,-0.2317 3.7648,0.6307 5.36606,1.7577 1.55643,1.3747 2.62911,3.2039 3.52462,5.0557 0.64477,1.5391 1.11158,3.1827 0.91921,4.8582 -1.49785,4.3409 -5.96534,4.2683 -11.04589,6.7839 -0.2882,0.1427 -1.35569,-0.7913 -1.5936,-0.947 -1.09173,-0.7558 -2.24405,-1.3889 -3.35589,-2.1221 -1.35045,-0.741 -1.56583,-0.5916 -2.79843,0.04 3.25114,-1.8386 6.50342,-3.6752 9.75342,-5.5158 0.12496,-0.071 -0.26662,0.1159 -0.37827,0.2063 -0.6199,0.5015 -0.93295,1.2834 -1.19454,2.0044 -0.5693,1.8972 -1.10531,3.8037 -1.67037,5.7024 -0.51325,1.5891 -0.72469,3.236 -0.82308,4.8954 -0.0847,1.7763 -0.0723,3.5562 -0.07,5.3341 0.0655,1.3421 0.40273,2.612 1.1549,3.7268 0.82451,1.1837 2.09619,1.7649 3.33576,2.3952 1.30309,0.6276 2.73014,0.7704 4.15266,0.8517 2.11868,0.1967 4.11004,0.02 6.09752,-0.7443 3.74991,-1.5232 10.15175,-5.3871 -6.08964,3.7565 -0.36445,0.2051 0.71004,-0.4424 1.06028,-0.671 0.81084,-0.5292 0.97267,-0.6582 1.72639,-1.2018 1.37874,-1.0109 2.36191,-2.4218 3.43924,-3.7251 0.95175,-1.0132 1.88952,-2.0346 2.69992,-3.1665 3.03014,-5.6747 -2.77641,-0.409 11.69977,-7.2635 0.71156,1.6689 0.80092,3.4933 1.34726,5.2217 0.5405,1.4422 1.00711,3.1615 2.40747,3.9916 0.15214,0 0.31643,0.072 0.45642,0.012 0.21689,-0.092 0.76207,-0.5496 0.55218,-0.4421 -2.91061,1.49 -5.5909,3.485 -8.66621,4.5959 -0.903,0.3262 1.32361,-1.3957 1.91063,-2.1555 1.67098,-2.1627 3.56251,-5.2704 4.99296,-7.5192 4.97988,-8.0975 9.70848,-16.3448 14.1293,-24.7602 0.84697,-1.5261 1.64363,-3.0801 2.4972,-4.6027 0.11314,-0.2018 0.24069,-0.39548 0.34984,-0.59949 0.0602,-0.11248 0.0416,-0.29548 0.15753,-0.34877 3.57381,-1.64321 7.21592,-3.1336 10.82389,-4.70039 0.35732,2.75915 -0.30202,5.53725 -0.68268,8.26465 -0.53817,4.1881 -1.10104,8.3725 -1.64334,12.5601 -0.51123,3.7577 -0.84074,7.5348 -0.98981,11.3234 -0.1589,2.1547 0.168,2.6466 2.20872,3.0113 1.08545,0.031 1.99309,-0.2585 2.93975,-0.7777 0.43317,-0.2376 1.6996,-1.0073 1.26498,-0.7724 -8.64099,4.6707 -10.60745,6.6314 -6.25502,2.8261 4.71805,-4.8471 9.56466,-9.5741 14.19022,-14.5102 1.96435,-2.2588 4.38207,-4.1335 6.1076,-6.5926 1.24389,-2.0169 2.06358,-4.2628 2.90947,-6.4673 0.7768,-1.8924 1.47318,-3.82338 2.30836,-5.69132 1.50343,-4.05641 0.46204,-1.51675 10.90688,-5.44703 0.29783,-0.11207 0.21646,0.60029 0.28568,0.91088 0.20176,0.90531 0.18358,1.87024 0.17268,2.78965 -0.10086,2.19984 -0.81695,4.28662 -1.58316,6.32862 -0.8829,2.4049 -1.52697,4.8876 -2.26381,7.3393 -0.52366,1.7289 -0.77536,3.5134 -0.89541,5.3103 -0.11879,1.2029 -0.0495,2.2299 1.17685,2.6781 1.61104,0.2843 3.25621,0.245 4.88581,0.2648 1.55828,-0.045 3.13511,0.1243 4.68367,-0.1184 0.78776,-0.1235 1.55872,-0.3371 2.33897,-0.5015 0.95693,-0.2845 1.84876,-0.6384 2.72081,-1.1141 0.22448,-0.1224 0.90045,-0.4848 0.67891,-0.3571 -3.13205,1.805 -12.52121,7.2315 -9.41087,5.3893 3.52559,-2.088 7.10447,-4.0848 10.6567,-6.1272 -16.42135,9.8618 -10.30504,6.9933 -7.43991,3.3717 0.94629,-1.1786 1.66878,-2.5164 2.30907,-3.8798 0.72467,-1.7423 1.47394,-3.4729 2.17404,-5.2257 0.62047,-1.4234 1.1076,-2.9017 1.8083,-4.2891 2.16059,-4.5178 10.84322,-10.79788 11.94219,-4.5806 1.6e-4,0.3653 0.0341,0.7322 4.7e-4,1.096 -0.1414,1.5306 -0.63561,3.0325 -0.92601,4.5366 -0.0851,0.4409 -0.5872,3.4458 -0.6514,3.8278 -0.53344,3.1064 -0.82916,6.2446 -0.97789,9.3908 -0.034,1.4606 -0.28612,2.9364 0.41155,4.2704 1.14023,1.5154 2.7724,2.1346 4.60837,2.2808 3.36011,-0.1389 6.37167,-1.7294 9.25556,-3.3173 -14.93107,9.0629 -7.01116,3.9732 -3.9828,1.5251 1.63542,-1.322 3.17055,-2.7185 4.65002,-4.2103 2.90764,-3.0884 5.2348,-6.6357 7.32488,-10.3088 1.62791,-3.0402 3.14298,-6.1324 3.9794,-9.4881 0.2429,-1.58246 0.86731,-3.39629 -0.0289,-4.86081 -1.24598,-1.62444 -3.15565,-2.21796 -5.04831,-2.74357 -2.35414,-0.81324 -4.81689,-1.16318 -7.28863,-1.3571 -1.90028,-0.11586 -3.80501,-0.0948 -5.70782,-0.10497 -2.23726,-0.0698 -4.49921,0.10193 -6.6838,0.59874 -0.82911,0.17142 -1.69618,0.43757 -2.44464,0.84842 -0.19674,0.10799 -0.74023,0.50605 -0.54496,0.39541 3.02955,-1.71656 12.07156,-6.94796 9.05299,-5.21214 -1.26924,1.05538 -1.7342,2.81289 -2.23496,4.32594 -0.55471,1.7726 -1.14002,3.53618 -1.49108,5.36215 -0.27981,1.64651 -0.33777,3.31733 -0.36669,4.98353 -0.0141,1.4224 -0.005,2.8449 -6.6e-4,4.2674 0.004,1.401 0.005,2.8021 0.006,4.2032 -0.0248,1.5961 -0.0133,3.1925 -0.008,4.7888 -0.002,1.3774 -0.0836,2.7578 0.32999,4.0871 0.53096,0.9603 1.68129,0.9347 2.65404,0.9982 1.37174,0.051 2.74495,0.025 4.11721,0.013 0.26015,7e-4 0.52326,0.041 0.78045,0 0.91467,-0.1391 1.94598,-0.5554 2.77343,-0.9448 0.36886,-0.1737 1.44091,-0.7628 1.08801,-0.5587 -2.9031,1.6791 -5.82651,3.3228 -8.73976,4.9841 2.17888,-1.344 3.93816,-3.2179 5.64901,-5.0942 1.44755,-1.8733 3.05897,-3.5891 4.73809,-5.2537 1.59985,-1.4268 3.15043,-2.899 4.65402,-4.4265 1.61278,-1.8303 3.26961,-3.6208 4.91212,-5.4248 2.10316,-2.1738 4.33158,-4.21587 6.58747,-6.22831 4.61619,-4.50921 10.13301,-7.01008 15.81622,-10.2984 2.09021,-1.09165 4.31551,-1.46013 6.63586,-1.64239 2.38051,-0.086 4.79391,-0.3813 7.16849,-0.10207 1.776,0.40375 3.09837,1.25336 4.15513,2.71938 1.13683,1.9019 1.54122,4.04754 1.79835,6.214 0.19464,1.37576 0.0686,2.78237 0.27061,4.15454 -11.2255,5.80495 -8.80713,8.36295 -11.49408,3.89395 -0.55814,-0.9284 -1.13998,-1.8329 -1.67092,-2.7781 -0.67144,-1.38599 -1.70062,-2.42595 -2.74456,-3.51782 -0.90105,-0.84356 -2.07871,-0.97993 -3.25439,-1.07798 -0.5925,-0.0749 -1.20463,0.0376 -1.76306,0.24811 -0.183,0.069 -0.69381,0.36104 -0.52361,0.2647 9.98793,-5.6534 12.47261,-7.41669 8.85032,-4.89168 -1.38656,1.10262 -2.64821,2.32808 -3.73067,3.72942 -1.46386,2.03823 -2.7676,4.18778 -4.12925,6.29535 -1.41545,1.9583 -2.46204,4.0773 -3.21332,6.3657 -0.76065,2.7677 -0.95137,5.6403 -1.03638,8.4959 -0.0154,1.8109 -0.0979,3.6243 0.17278,5.4195 0.26455,1.3412 1.31355,1.8522 2.39502,2.4879 1.39947,0.7518 2.95359,0.9921 4.51478,1.1178 1.42539,0.079 2.85387,0.061 4.28079,0.054 1.4037,-0.01 2.80741,-0.012 4.21112,-0.014 1.40339,0 2.80678,0 4.21016,0 1.19024,-0.3338 2.37791,-0.7435 3.50348,-1.2612 -0.5424,0.5658 2.64312,-1.3941 1.7725,-0.8912 -16.89223,9.7564 -11.62619,6.9191 -8.27707,4.676 1.10561,-0.6882 2.10376,-1.5151 3.07989,-2.3709 0.92418,-0.9385 1.6592,-2.0375 2.47848,-3.0666 0.48666,-0.569 1.01285,-1.0991 1.50864,-1.6593 0,0 10.89584,-4.4787 10.89584,-4.4787 l 0,0 c -0.58642,0.4598 -1.08014,1.0358 -1.56333,1.6004 -0.98456,0.9031 -1.66554,2.0338 -2.46293,3.0919 -0.87077,1.0302 -1.95243,1.8092 -3.00711,2.6384 -0.41031,0.2433 -0.77414,0.5601 -1.18583,0.801 -4.09479,2.3962 -8.02792,5.1888 -12.46368,6.914 -1.22796,0.4257 -2.43788,0.9708 -3.76938,0.9016 -1.403,2e-4 -2.80599,6e-4 -4.20898,0 -1.40355,0 -2.80709,0.01 -4.21065,0.013 -1.45004,0 -2.90456,0 -4.34683,-0.1723 -1.67325,-0.2438 -3.30531,-0.6687 -4.77878,-1.5303 -1.37916,-0.8107 -2.55528,-1.7258 -2.92738,-3.3751 -0.30621,-1.8899 -0.24717,-3.777 -0.14395,-5.6874 0.13431,-2.9395 0.29326,-5.8893 0.95216,-8.7682 0.60625,-2.3995 1.49548,-4.6531 3.01286,-6.6381 1.34233,-2.1254 2.73873,-4.2163 4.08067,-6.33735 0.98679,-1.50602 2.09834,-2.87127 3.53913,-3.96665 3.62674,-3.67133 8.60018,-7.39946 13.87163,-6.78502 1.39556,0.24371 2.69308,0.68135 3.69627,1.73789 1.11432,1.15881 2.07812,2.382 2.78786,3.83936 3.52402,6.36597 5.51638,2.75371 -7.93209,9.12897 0.10024,0.08 0.17242,0.2411 0.30071,0.2403 0.39071,0 0.12121,-3.0846 0.12633,-3.4496 -0.16497,-1.95597 -0.4343,-3.9348 -1.50169,-5.63132 -0.96493,-1.12312 -2.13876,-1.75086 -3.62924,-1.91971 -2.30763,-0.13183 -4.62799,0.0177 -6.92792,0.21218 -2.25465,0.3204 -4.41988,0.88348 -6.40204,2.05088 17.92386,-10.43421 8.97997,-5.64918 5.91655,-3.18664 -0.71704,0.5764 -1.31915,1.287 -2.0487,1.84941 -2.24445,1.99 -4.46241,3.9996 -6.6116,6.0921 -1.58817,1.8303 -3.27451,3.5516 -4.81473,5.4174 -1.44145,1.6125 -3.01298,3.098 -4.65865,4.5029 -1.74015,1.574 -3.41671,3.254 -4.76103,5.186 -1.79161,1.8739 -3.4654,3.8851 -5.57837,5.4234 -4.27701,2.4569 -10.29349,7.4883 -16.15819,7.5644 -1.40601,0.01 -2.81821,0.036 -4.21748,-0.1256 -1.43162,-0.246 -2.7026,-0.7268 -3.36092,-2.1294 -0.48289,-1.4418 -0.54396,-2.9157 -0.47349,-4.4277 0.005,-1.5931 0.017,-3.1865 -0.009,-4.7796 -5.9e-4,-1.4003 -0.002,-2.8006 -0.005,-4.2009 -0.003,-1.4318 -0.0106,-2.8636 0.004,-4.2954 0.0297,-1.7299 0.0926,-3.4624 0.34622,-5.1766 0.29929,-1.8923 0.80143,-3.71018 1.41419,-5.52461 0.57618,-1.65364 1.0168,-3.34434 1.85313,-4.89702 3.65543,-3.72932 8.96366,-6.35097 14.14719,-7.41329 2.2642,-0.32486 4.53962,-0.49023 6.82859,-0.43977 1.91364,-0.006 3.82888,0.0252 5.73442,0.22089 2.50423,0.28197 4.97783,0.77424 7.37476,1.56536 2.16763,0.66797 4.2423,1.49228 5.63793,3.38503 0.16176,0.2648 0.35912,0.51091 0.48526,0.79441 0.68776,1.54567 0.0165,3.38886 -0.17887,4.95661 -0.83904,3.49838 -2.37584,6.67869 -4.0477,9.85469 -2.025,3.7637 -4.37042,7.362 -7.20994,10.569 -5.50709,6.1246 -12.79186,10.2097 -19.93029,14.1348 -3.09136,1.5974 -6.35552,3.1986 -9.93309,2.9163 -2.12723,-0.4372 -3.99685,-1.3246 -5.30749,-3.1258 -0.92658,-1.6969 -0.74898,-3.0219 -0.60221,-4.9022 0.24556,-3.2154 0.65056,-6.4164 1.14926,-9.6021 0.2857,-1.8331 0.49963,-3.6823 0.85006,-5.5046 0.0229,-0.1189 0.51566,-2.3226 0.5471,-2.5735 0.0363,-0.2896 0.0106,-0.5836 0.0159,-0.8754 -0.61325,-3.9841 -2.95622,1.2596 9.93078,-6.22703 0.12328,-0.0716 -0.30301,-0.0302 -0.42557,0.0426 -0.16443,0.0977 -0.25054,0.28903 -0.3758,0.43363 -0.72051,1.3863 -1.37843,2.7837 -1.91709,4.2579 -0.79863,1.6858 -1.35122,3.4817 -2.15523,5.1674 -0.48196,1.4957 -1.32035,2.8414 -2.12804,4.1799 -3.88042,4.9129 -2.48542,3.361 -12.48408,8.6112 3.13788,-1.8137 12.59857,-7.171 9.41362,-5.4412 -4.87648,2.6484 -8.85818,6.0952 -14.16588,7.2788 -2.38615,0.4493 -4.77885,0.5237 -7.2043,0.4591 -1.78246,-0.01 -3.64813,0.045 -5.31838,-0.6614 -1.3603,-0.9145 -1.96765,-2.204 -1.79291,-3.8606 0.10685,-1.8924 0.34678,-3.7741 0.88555,-5.598 0.71987,-2.4836 1.48676,-4.9583 2.2668,-7.4232 0.69472,-1.94 1.44155,-3.8895 1.63608,-5.9582 0.0701,-0.8514 0.004,-1.59542 -0.0921,-2.43986 -0.01,-0.086 -0.0912,-0.21731 -0.0155,-0.25905 10.08511,-5.55685 14.22371,-4.86787 9.95428,-5.49601 -0.66864,0.63083 -0.85866,1.33063 -1.19995,2.17423 -0.45182,1.11678 -1.02242,2.18194 -1.40084,3.32861 -0.84278,2.24968 -1.70016,4.50068 -2.73277,6.67108 -0.26459,0.4224 -0.86513,1.4105 -1.17234,1.7735 -1.60286,1.8938 -3.75287,3.3215 -5.36255,5.2138 -4.63927,4.8912 -9.59453,9.4809 -14.06313,14.5365 -4.80323,4.7678 -1.48118,1.7383 -13.07425,8.6382 -1.4999,0.8926 -3.15953,1.3206 -4.88229,0.9669 -2.30108,-0.7681 -3.19965,-1.9594 -2.90289,-4.4532 0.29798,-3.8622 0.7372,-7.7116 1.26781,-11.5486 0.51982,-4.1421 0.90753,-8.3009 1.38076,-12.4483 0.35675,-2.4829 0.8824,-4.9988 0.70931,-7.5149 3.49379,-1.80998 7.014,-3.56985 10.48137,-5.42997 0.12029,-0.0645 -0.29253,-0.0454 -0.40869,0.0263 -0.21673,0.13379 -0.37193,0.351 -0.5283,0.55206 -1.15786,1.48873 -1.92392,3.24596 -3.01937,4.77601 -4.84033,8.3422 -9.79885,16.6141 -14.55892,25.0029 -0.77604,1.3216 -3.43547,5.8891 -4.39948,7.3993 -0.48658,0.7623 -0.80183,1.7108 -1.53959,2.2338 -3.57432,2.5339 -7.4026,4.6986 -11.23496,6.8221 -0.53421,0.296 -1.21529,-0.1738 -1.64008,-0.3949 -1.41919,-1.2146 -2.07497,-2.9431 -2.64255,-4.6882 -0.52573,-1.5412 -0.83273,-3.1315 -1.30355,-4.6776 3.43551,-1.8684 6.88663,-3.7085 10.30653,-5.6053 0.0693,-0.039 -0.17363,-0.028 -0.23691,0.02 -0.50899,0.3838 -0.63467,1.4045 -0.90673,1.9291 -0.61292,1.305 -1.63867,2.4195 -2.69225,3.3879 -1.1301,1.32 -2.10193,2.7849 -3.37602,3.9682 -0.87899,0.7245 -1.84224,1.4769 -2.82594,2.0527 -4.63234,2.7116 -8.83321,5.7079 -13.81811,7.4601 -2.13452,0.5594 -4.29042,0.6906 -6.48981,0.4713 -1.53991,-0.1562 -3.04341,-0.4826 -4.41979,-1.2239 -1.41034,-0.7195 -2.7336,-1.584 -3.67324,-2.8913 -0.86887,-1.3132 -1.32439,-2.7864 -1.42581,-4.3614 -0.004,-1.7941 -0.0123,-3.5881 0.026,-5.382 0.0781,-1.7441 0.18696,-3.4907 0.73107,-5.1648 0.57462,-1.8694 1.12168,-3.7468 1.62902,-5.6334 0.98328,-5.5478 6.29574,-6.2684 11.69535,-9.0051 1.23678,-0.2831 2.36407,0.2031 3.39063,0.8885 1.08651,0.742 2.2668,1.3108 3.35436,2.0524 0.22343,0.1212 0.49594,0.3248 0.77881,0.3085 0.1183,-0.01 0.44141,-0.1667 0.33899,-0.1071 -3.26221,1.8979 -6.58667,3.6889 -9.82558,5.6263 -0.12299,0.074 0.29189,0.033 0.42988,-0.01 0.14375,-0.04 0.25881,-0.1489 0.38822,-0.2233 0.75487,-1.2419 -0.032,-2.8983 -0.41275,-4.1573 -0.76904,-1.6854 -1.76715,-3.3146 -3.21579,-4.5017 -1.52149,-0.9482 -3.09686,-1.4126 -4.89639,-1.0465 -4.80525,0.8512 -12.10107,5.8431 3.82862,-3.3885 -2.66836,1.7636 -5.17727,3.7246 -7.67166,5.7234 -1.89987,1.4755 -3.7274,3.0237 -5.29725,4.851 -0.97997,0.8903 -0.49165,0.418 -1.46011,1.4218 -3.75095,3.5215 -9.02055,5.5797 -13.17416,8.1143 0,0 9.27753,-7.2955 9.27753,-7.2955 z"
       inkscape:connector-curvature="0" />
    <path
       sodipodi:type="star"
       style="fill:#ffff00;fill-opacity:1;stroke:none;stroke-opacity:1"
       id="path4753"
       sodipodi:sides="5"
       sodipodi:cx="200.20723"
       sodipodi:cy="1006.0391"
       sodipodi:r1="2.1346419"
       sodipodi:r2="1.0673209"
       sodipodi:arg1="1.4056476"
       sodipodi:arg2="2.0339662"
       inkscape:flatsided="false"
       inkscape:rounded="0"
       inkscape:randomized="0"
       d="m 200.55816,1008.1447 -0.82779,-1.1507 -1.41724,0.029 0.83861,-1.1428 -0.46606,-1.3388 1.34608,0.4444 1.1292,-0.8569 -0.007,1.4175 1.16394,0.8091 -1.35022,0.4317 z"
       inkscape:transform-center-x="-0.10844425"
       inkscape:transform-center-y="0.097930082" />
    <path
       sodipodi:type="star"
       style="fill:#ffff00;fill-opacity:1;stroke:none;stroke-opacity:1"
       id="path4755"
       sodipodi:sides="5"
       sodipodi:cx="202.31284"
       sodipodi:cy="1018.4972"
       sodipodi:r1="2.2194948"
       sodipodi:r2="1.1097474"
       sodipodi:arg1="1.2490458"
       sodipodi:arg2="1.8773643"
       inkscape:flatsided="false"
       inkscape:rounded="0"
       inkscape:randomized="0"
       d="m 203.0147,1020.6028 -1.03677,-1.0476 -1.45075,0.2602 0.67594,-1.3098 -0.69574,-1.2993 1.45452,0.2381 1.02075,-1.0632 0.22301,1.4569 1.32661,0.6422 -1.3167,0.6624 z"
       inkscape:transform-center-x="-0.20698509"
       inkscape:transform-center-y="-0.0052065238" />
    <path
       sodipodi:type="star"
       style="fill:#ffff00;fill-opacity:1;stroke:none;stroke-opacity:1"
       id="path4757"
       sodipodi:sides="5"
       sodipodi:cx="233.37041"
       sodipodi:cy="1010.2503"
       sodipodi:r1="2.2810643"
       sodipodi:r2="1.1405321"
       sodipodi:arg1="1.5707963"
       sodipodi:arg2="2.1991149"
       inkscape:flatsided="false"
       inkscape:rounded="0"
       inkscape:randomized="0"
       d="m 233.37041,1012.5314 -0.67039,-1.3584 -1.49903,-0.2178 1.08471,-1.0573 -0.25607,-1.493 1.34078,0.7049 1.34077,-0.7049 -0.25606,1.493 1.08471,1.0573 -1.49903,0.2178 z"
       inkscape:transform-center-y="0.21782225" />
    <path
       sodipodi:type="star"
       style="fill:#ffff00;fill-opacity:1;stroke:none;stroke-opacity:1"
       id="path4759"
       sodipodi:sides="5"
       sodipodi:cx="237.58159"
       sodipodi:cy="1019.199"
       sodipodi:r1="1.8979601"
       sodipodi:r2="0.94898009"
       sodipodi:arg1="0.5880026"
       sodipodi:arg2="1.2163211"
       inkscape:flatsided="false"
       inkscape:rounded="0"
       inkscape:randomized="0"
       d="m 239.16079,1020.2518 -1.24981,-0.1628 -0.84266,0.9372 -0.23137,-1.2389 -1.15178,-0.5118 1.10682,-0.6029 0.13082,-1.2536 0.91541,0.8664 1.23264,-0.263 -0.54106,1.1383 z"
       inkscape:transform-center-x="0.1586098"
       inkscape:transform-center-y="0.023638964" />
    <path
       sodipodi:type="star"
       style="fill:#ffff00;fill-opacity:1;stroke:none;stroke-opacity:1"
       id="path4761"
       sodipodi:sides="5"
       sodipodi:cx="235.82693"
       sodipodi:cy="999.89771"
       sodipodi:r1="1.7281444"
       sodipodi:r2="0.8640722"
       sodipodi:arg1="1.152572"
       sodipodi:arg2="1.7808905"
       inkscape:flatsided="false"
       inkscape:rounded="0"
       inkscape:randomized="0"
       d="m 236.5288,1001.4769 -0.88207,-0.7341 -1.10481,0.3104 0.42562,-1.06574 -0.63666,-0.95481 1.14512,0.0755 0.71134,-0.90055 0.2821,1.11239 1.07629,0.39824 -0.97077,0.61201 z"
       inkscape:transform-center-x="-0.1113722"
       inkscape:transform-center-y="-0.055473196" />
    <path
       sodipodi:type="star"
       style="fill:#ffff00;fill-opacity:1;stroke:none;stroke-opacity:1"
       id="path4763"
       sodipodi:sides="5"
       sodipodi:cx="219.15761"
       sodipodi:cy="1022.8838"
       sodipodi:r1="1.4037318"
       sodipodi:r2="0.70186591"
       sodipodi:arg1="0"
       sodipodi:arg2="0.62831853"
       inkscape:flatsided="false"
       inkscape:rounded="0"
       inkscape:randomized="0"
       d="m 220.56134,1022.8838 -0.83591,0.4125 -0.13404,0.9225 -0.65067,-0.6675 -0.91875,0.1576 0.43377,-0.8251 -0.43377,-0.8251 0.91875,0.1576 0.65067,-0.6675 0.13404,0.9224 z"
       inkscape:transform-center-x="-0.13404446" />
    <path
       sodipodi:type="star"
       style="fill:#ffff00;fill-opacity:1;stroke:none;stroke-opacity:1"
       id="path4765"
       sodipodi:sides="5"
       sodipodi:cx="215.12189"
       sodipodi:cy="1027.095"
       sodipodi:r1="1.414656"
       sodipodi:r2="0.70732796"
       sodipodi:arg1="0.51914611"
       sodipodi:arg2="1.1474646"
       inkscape:flatsided="false"
       inkscape:rounded="0"
       inkscape:randomized="0"
       d="m 216.35015,1027.7968 -0.93769,-0.057 -0.57853,0.7401 -0.23558,-0.9094 -0.8827,-0.3215 0.7921,-0.5051 0.033,-0.9388 0.72512,0.5973 0.90309,-0.2588 -0.34396,0.8742 z"
       inkscape:transform-center-x="0.088984311"
       inkscape:transform-center-y="0.047630273" />
    <path
       sodipodi:type="star"
       style="fill:#ffff00;fill-opacity:1;stroke:none;stroke-opacity:1"
       id="path4767"
       sodipodi:sides="5"
       sodipodi:cx="201.78644"
       sodipodi:cy="1031.3062"
       sodipodi:r1="2.0006256"
       sodipodi:r2="1.0003128"
       sodipodi:arg1="0.90975316"
       sodipodi:arg2="1.5380717"
       inkscape:flatsided="false"
       inkscape:rounded="0"
       inkscape:randomized="0"
       d="m 203.0147,1032.8854 -1.19553,-0.5795 -1.15508,0.6564 0.18162,-1.3161 -0.98119,-0.8957 1.30779,-0.2339 0.54867,-1.21 0.62663,1.1715 1.32029,0.1479 -0.9205,0.958 z"
       inkscape:transform-center-x="0.020227654"
       inkscape:transform-center-y="-0.17170282" />
    <path
       sodipodi:type="star"
       style="fill:#ffff00;fill-opacity:1;stroke:none;stroke-opacity:1"
       id="path4769"
       sodipodi:sides="5"
       sodipodi:cx="175.8174"
       sodipodi:cy="1032.359"
       sodipodi:r1="3.5093296"
       sodipodi:r2="1.7546648"
       sodipodi:arg1="0.64350111"
       sodipodi:arg2="1.2718196"
       inkscape:flatsided="false"
       inkscape:rounded="0"
       inkscape:randomized="0"
       d="m 178.62486,1034.4646 -2.29064,-0.4288 -1.65181,1.6439 -0.30006,-2.311 -2.07388,-1.063 2.1052,-0.9995 0.37008,-2.3008 1.60114,1.6932 2.3026,-0.359 -1.11563,2.046 z"
       inkscape:transform-center-x="0.31941433"
       inkscape:transform-center-y="-0.016464" />
    <path
       sodipodi:type="star"
       style="fill:#ffff00;fill-opacity:1;stroke:none;stroke-opacity:1"
       id="path4771"
       sodipodi:sides="5"
       sodipodi:cx="145.11076"
       sodipodi:cy="1026.9196"
       sodipodi:r1="3.5529253"
       sodipodi:r2="1.7764627"
       sodipodi:arg1="1.2178059"
       sodipodi:arg2="1.8461245"
       inkscape:flatsided="false"
       inkscape:rounded="0"
       inkscape:randomized="0"
       d="m 146.33903,1030.2534 -1.71122,-1.6243 -2.30818,0.4888 1.01601,-2.1294 -1.17816,-2.0441 2.33915,0.3082 1.58004,-1.7522 0.42966,2.32 2.15468,0.9612 -2.0736,1.1256 z"
       inkscape:transform-center-x="-0.29848199"
       inkscape:transform-center-y="-0.042622531" />
    <path
       sodipodi:type="star"
       style="fill:#ffff00;fill-opacity:1;stroke:none;stroke-opacity:1"
       id="path4773"
       sodipodi:sides="5"
       sodipodi:cx="144.75983"
       sodipodi:cy="1035.6929"
       sodipodi:r1="4.6324477"
       sodipodi:r2="2.3162241"
       sodipodi:arg1="0.65107672"
       sodipodi:arg2="1.2793953"
       inkscape:flatsided="false"
       inkscape:rounded="0"
       inkscape:randomized="0"
       d="m 148.44462,1038.5003 -3.01935,-0.5889 -2.19684,2.1535 -0.37296,-3.0536 -2.72689,-1.4238 2.78885,-1.2984 0.51152,-3.0334 2.09657,2.2512 3.04303,-0.4509 -1.4931,2.6896 z"
       inkscape:transform-center-x="0.41126357"
       inkscape:transform-center-y="-0.032575654" />
    <path
       sodipodi:type="star"
       style="fill:#ffff00;fill-opacity:1;stroke:none;stroke-opacity:1"
       id="path4775"
       sodipodi:sides="5"
       sodipodi:cx="154.05956"
       sodipodi:cy="1011.8295"
       sodipodi:r1="3.6889713"
       sodipodi:r2="1.8444856"
       sodipodi:arg1="1.1284221"
       sodipodi:arg2="1.7567406"
       inkscape:flatsided="false"
       inkscape:rounded="0"
       inkscape:randomized="0"
       d="m 155.63875,1015.1634 -1.92019,-1.5212 -2.3417,0.7195 0.85335,-2.2963 -1.40785,-2.0048 2.4476,0.102 1.47159,-1.9585 0.65935,2.3594 2.31735,0.7943 -2.0401,1.3562 z"
       inkscape:transform-center-x="-0.21074875"
       inkscape:transform-center-y="-0.14575914" />
    <path
       sodipodi:type="star"
       style="fill:#ffff00;fill-opacity:1;stroke:none;stroke-opacity:1"
       id="path4777"
       sodipodi:sides="5"
       sodipodi:cx="260.21677"
       sodipodi:cy="1009.5484"
       sodipodi:r1="7.9290657"
       sodipodi:r2="3.9645329"
       sodipodi:arg1="1.136843"
       sodipodi:arg2="1.7651615"
       inkscape:flatsided="false"
       inkscape:rounded="0"
       inkscape:randomized="0"
       d="m 263.55063,1016.7425 -4.09959,-3.3042 -5.04607,1.5039 1.87568,-4.92 -2.98964,-4.3344 5.25882,0.2635 3.19839,-4.1827 1.37445,5.0829 4.96634,1.7493 -4.40937,2.8779 z"
       inkscape:transform-center-x="-0.47324377"
       inkscape:transform-center-y="-0.29281991" />
    <path
       sodipodi:type="star"
       style="fill:#ffff00;fill-opacity:1;stroke:none;stroke-opacity:1"
       id="path4779"
       sodipodi:sides="5"
       sodipodi:cx="257.23383"
       sodipodi:cy="1021.4801"
       sodipodi:r1="4.6324477"
       sodipodi:r2="2.3162241"
       sodipodi:arg1="0.42976228"
       sodipodi:arg2="1.0580808"
       inkscape:flatsided="false"
       inkscape:rounded="0"
       inkscape:randomized="0"
       d="m 261.44502,1023.4102 -3.07498,0.088 -1.67055,2.5831 -1.03416,-2.8972 -2.97294,-0.7905 2.43584,-1.8789 -0.16683,-3.0717 2.53959,1.736 2.86983,-1.1078 -0.86628,2.9517 z"
       inkscape:transform-center-x="0.16511796"
       inkscape:transform-center-y="0.28237033" />
    <path
       sodipodi:type="star"
       style="fill:#ffff00;fill-opacity:1;stroke:none;stroke-opacity:1"
       id="path4781"
       sodipodi:sides="5"
       sodipodi:cx="265.65622"
       sodipodi:cy="992.52814"
       sodipodi:r1="3.6173341"
       sodipodi:r2="1.8086671"
       sodipodi:arg1="1.3258177"
       sodipodi:arg2="1.9541362"
       inkscape:flatsided="false"
       inkscape:rounded="0"
       inkscape:randomized="0"
       d="m 266.53355,996.03747 -1.55381,-1.83194 -2.38998,0.24144 1.26212,-2.04386 -0.96817,-2.1984 2.33384,0.56876 1.79162,-1.60012 0.18028,2.39537 2.07545,1.20947 -2.22243,0.91166 z"
       inkscape:transform-center-x="-0.27111061"
       inkscape:transform-center-y="0.077269632" />
    <path
       sodipodi:type="star"
       style="fill:#ffff00;fill-opacity:1;stroke:none;stroke-opacity:1"
       id="path4783"
       sodipodi:sides="5"
       sodipodi:cx="281.97461"
       sodipodi:cy="1016.2161"
       sodipodi:r1="2.1128962"
       sodipodi:r2="1.0564481"
       sodipodi:arg1="0.84415399"
       sodipodi:arg2="1.4724725"
       inkscape:flatsided="false"
       inkscape:rounded="0"
       inkscape:randomized="0"
       d="m 283.37834,1017.7953 -1.30002,-0.5278 -1.17184,0.7717 0.10029,-1.3996 -1.09603,-0.876 1.362,-0.3371 0.49446,-1.3131 0.74147,1.1912 1.40162,0.064 -0.90374,1.0733 z"
       inkscape:transform-center-x="0.064094273"
       inkscape:transform-center-y="-0.13983186" />
    <path
       sodipodi:type="star"
       style="fill:#ffff00;fill-opacity:1;stroke:none;stroke-opacity:1"
       id="path4785"
       sodipodi:sides="5"
       sodipodi:cx="270.3938"
       sodipodi:cy="1023.7612"
       sodipodi:r1="2.3541298"
       sodipodi:r2="1.1770649"
       sodipodi:arg1="1.1071487"
       sodipodi:arg2="1.7354672"
       inkscape:flatsided="false"
       inkscape:rounded="0"
       inkscape:randomized="0"
       d="m 271.4466,1025.8668 -1.24575,-0.9444 -1.48426,0.4908 0.51327,-1.4767 -0.92543,-1.2599 1.56297,0.032 0.91231,-1.2695 0.45269,1.4964 1.48927,0.4753 -1.28319,0.893 z"
       inkscape:transform-center-x="-0.11925186"
       inkscape:transform-center-y="-0.10834313" />
    <path
       sodipodi:type="star"
       style="fill:#ffff00;fill-opacity:1;stroke:none;stroke-opacity:1"
       id="path4787"
       sodipodi:sides="5"
       sodipodi:cx="286.01031"
       sodipodi:cy="985.68494"
       sodipodi:r1="2.8347478"
       sodipodi:r2="1.4173739"
       sodipodi:arg1="1.1902899"
       sodipodi:arg2="1.8186085"
       inkscape:flatsided="false"
       inkscape:rounded="0"
       inkscape:randomized="0"
       d="m 287.06311,988.31693 -1.40045,-1.25792 -1.83019,0.44053 0.76359,-1.72063 -0.98453,-1.60448 1.87239,0.19451 1.22171,-1.43215 0.39361,1.84084 1.73959,0.71937 -1.62912,0.94319 z"
       inkscape:transform-center-x="-0.21486475"
       inkscape:transform-center-y="-0.058076458" />
    <path
       sodipodi:type="star"
       style="fill:#ffff00;fill-opacity:1;stroke:none;stroke-opacity:1"
       id="path4789"
       sodipodi:sides="5"
       sodipodi:cx="294.78368"
       sodipodi:cy="995.16016"
       sodipodi:r1="2.8563874"
       sodipodi:r2="1.4281937"
       sodipodi:arg1="1.3854484"
       sodipodi:arg2="2.0137669"
       inkscape:flatsided="false"
       inkscape:rounded="0"
       inkscape:randomized="0"
       d="m 295.31008,997.96762 -1.13856,-1.51712 -1.89523,0.0779 1.09102,-1.55165 -0.65969,-1.77842 1.81286,0.55814 1.48752,-1.17696 0.0294,1.8966 1.57903,1.05101 -1.7947,0.61402 z"
       inkscape:transform-center-x="-0.16266637"
       inkscape:transform-center-y="0.11338401" />
    <path
       sodipodi:type="star"
       style="fill:#ffff00;fill-opacity:1;stroke:none;stroke-opacity:1"
       id="path4791"
       sodipodi:sides="5"
       sodipodi:cx="321.63"
       sodipodi:cy="991.47534"
       sodipodi:r1="3.1092739"
       sodipodi:r2="1.554637"
       sodipodi:arg1="1.2847449"
       sodipodi:arg2="1.9130634"
       inkscape:flatsided="false"
       inkscape:rounded="0"
       inkscape:randomized="0"
       d="m 322.50734,994.45827 -1.39911,-1.51847 -2.04405,0.29171 1.0118,-1.79986 -0.90907,-1.85387 2.02443,0.4061 1.48221,-1.43746 0.23937,2.05084 1.82513,0.96547 -1.8765,0.86139 z"
       inkscape:transform-center-x="-0.27111061"
       inkscape:transform-center-y="0.02700296" />
    <path
       sodipodi:type="star"
       style="fill:#ffff00;fill-opacity:1;stroke:none;stroke-opacity:1"
       id="path4793"
       sodipodi:sides="5"
       sodipodi:cx="311.10207"
       sodipodi:cy="997.6167"
       sodipodi:r1="1.8979601"
       sodipodi:r2="0.94898009"
       sodipodi:arg1="0.98279372"
       sodipodi:arg2="1.6111123"
       inkscape:flatsided="false"
       inkscape:rounded="0"
       inkscape:randomized="0"
       d="m 312.15486,999.1959 -1.09104,-0.63099 -1.13833,0.54106 0.26296,-1.23263 -0.86635,-0.91542 1.25357,-0.13082 0.60289,-1.10682 0.51179,1.15178 1.23896,0.23137 -0.93726,0.84266 z"
       inkscape:transform-center-x="-0.023638964"
       inkscape:transform-center-y="-0.1586098" />
    <path
       sodipodi:type="star"
       style="fill:#ffff00;fill-opacity:1;stroke:none;stroke-opacity:1"
       id="path4795"
       sodipodi:sides="5"
       sodipodi:cx="308.64551"
       sodipodi:cy="1004.4599"
       sodipodi:r1="1.4037318"
       sodipodi:r2="0.70186591"
       sodipodi:arg1="1.5707963"
       sodipodi:arg2="2.1991149"
       inkscape:flatsided="false"
       inkscape:rounded="0"
       inkscape:randomized="0"
       d="m 308.64551,1005.8636 -0.41255,-0.8359 -0.92248,-0.134 0.66751,-0.6507 -0.15758,-0.9187 0.8251,0.4337 0.82509,-0.4337 -0.15758,0.9187 0.66752,0.6507 -0.92249,0.134 z"
       inkscape:transform-center-y="0.13404446" />
    <path
       sodipodi:type="star"
       style="fill:#ffff00;fill-opacity:1;stroke:none;stroke-opacity:1"
       id="path4797"
       sodipodi:sides="5"
       sodipodi:cx="305.48714"
       sodipodi:cy="1011.654"
       sodipodi:r1="3.6889713"
       sodipodi:r2="1.8444856"
       sodipodi:arg1="1.6183794"
       sodipodi:arg2="2.246698"
       inkscape:flatsided="false"
       inkscape:rounded="0"
       inkscape:randomized="0"
       d="m 305.31167,1015.3388 -0.97845,-2.2458 -2.40475,-0.4672 1.83355,-1.6246 -0.2988,-2.4314 2.11165,1.2418 2.22009,-1.0355 -0.52849,2.392 1.67089,1.7914 -2.43827,0.2366 z"
       inkscape:transform-center-x="0.054222123"
       inkscape:transform-center-y="0.3002984" />
    <path
       sodipodi:type="star"
       style="fill:#ffff00;fill-opacity:1;stroke:none;stroke-opacity:1"
       id="path4799"
       sodipodi:sides="5"
       sodipodi:cx="304.78525"
       sodipodi:cy="1019.7254"
       sodipodi:r1="3.4069426"
       sodipodi:r2="1.7034714"
       sodipodi:arg1="1.3633001"
       sodipodi:arg2="1.9916186"
       inkscape:flatsided="false"
       inkscape:rounded="0"
       inkscape:randomized="0"
       d="m 305.48711,1023.0593 -1.39775,-1.779 -2.25792,0.1428 1.26002,-1.8791 -0.83363,-2.1032 2.17648,0.6177 1.74271,-1.4428 0.0851,2.2608 1.91068,1.2116 -2.12387,0.7796 z"
       inkscape:transform-center-x="-0.21688849"
       inkscape:transform-center-y="0.11208238" />
    <path
       sodipodi:type="star"
       style="fill:#ffff00;fill-opacity:1;stroke:none;stroke-opacity:1"
       id="path4801"
       sodipodi:sides="5"
       sodipodi:cx="309.52283"
       sodipodi:cy="1024.9894"
       sodipodi:r1="1.2653068"
       sodipodi:r2="0.63265336"
       sodipodi:arg1="0.98279372"
       sodipodi:arg2="1.6111123"
       inkscape:flatsided="false"
       inkscape:rounded="0"
       inkscape:randomized="0"
       d="m 310.22469,1026.0422 -0.72736,-0.4207 -0.75889,0.3607 0.17531,-0.8217 -0.57756,-0.6103 0.8357,-0.087 0.40194,-0.7379 0.34119,0.7679 0.82597,0.1542 -0.62484,0.5618 z"
       inkscape:transform-center-x="-0.015759309"
       inkscape:transform-center-y="-0.10573987" />
    <path
       sodipodi:type="star"
       style="fill:#ffff00;fill-opacity:1;stroke:none;stroke-opacity:1"
       id="path4803"
       sodipodi:sides="5"
       sodipodi:cx="316.19058"
       sodipodi:cy="1027.6215"
       sodipodi:r1="1.370437"
       sodipodi:r2="0.68521851"
       sodipodi:arg1="0.87605805"
       sodipodi:arg2="1.5043766"
       inkscape:flatsided="false"
       inkscape:rounded="0"
       inkscape:randomized="0"
       d="m 317.06791,1028.6743 -0.83185,-0.3691 -0.77564,0.476 0.094,-0.9052 -0.6924,-0.5906 0.88993,-0.1903 0.34771,-0.8411 0.45603,0.7876 0.9073,0.071 -0.60808,0.6771 z"
       inkscape:transform-center-x="0.028107309"
       inkscape:transform-center-y="-0.10384489" />
    <path
       sodipodi:type="star"
       style="fill:#ffff00;fill-opacity:1;stroke:none;stroke-opacity:1"
       id="path4805"
       sodipodi:sides="5"
       sodipodi:cx="55.622856"
       sodipodi:cy="1023.2348"
       sodipodi:r1="5.7127748"
       sodipodi:r2="2.8563874"
       sodipodi:arg1="0.82884906"
       sodipodi:arg2="1.4571676"
       inkscape:flatsided="false"
       inkscape:rounded="0"
       inkscape:randomized="0"
       d="m 59.483119,1027.446 -3.536393,-1.3732 -3.136068,2.1347 0.213212,-3.7877 -2.999311,-2.3229 3.668166,-0.9677 1.282392,-3.5703 2.053838,3.1896 3.791873,0.1163 -2.398824,2.939 z"
       inkscape:transform-center-x="0.20016247"
       inkscape:transform-center-y="-0.35163764" />
    <path
       sodipodi:type="star"
       style="fill:#ffff00;fill-opacity:1;stroke:none;stroke-opacity:1"
       id="path4807"
       sodipodi:sides="5"
       sodipodi:cx="87.557755"
       sodipodi:cy="1040.606"
       sodipodi:r1="2.5122976"
       sodipodi:r2="1.2561488"
       sodipodi:arg1="1.1383886"
       sodipodi:arg2="1.7667071"
       inkscape:flatsided="false"
       inkscape:rounded="0"
       inkscape:randomized="0"
       d="m 88.610553,1042.887 -1.29732,-1.0489 -1.599567,0.474 0.596712,-1.558 -0.945132,-1.3747 1.666109,0.086 1.015443,-1.3237 0.433001,1.6112 1.572709,0.5567 -1.398499,0.9097 z"
       inkscape:transform-center-x="-0.15112282"
       inkscape:transform-center-y="-0.091587572" />
    <path
       sodipodi:type="star"
       style="fill:#ffff00;fill-opacity:1;stroke:none;stroke-opacity:1"
       id="path4809"
       sodipodi:sides="5"
       sodipodi:cx="88.435089"
       sodipodi:cy="1026.5686"
       sodipodi:r1="1.8319238"
       sodipodi:r2="0.91596192"
       sodipodi:arg1="1.2793395"
       sodipodi:arg2="1.9076581"
       inkscape:flatsided="false"
       inkscape:rounded="0"
       inkscape:randomized="0"
       d="m 88.961489,1028.3233 -0.82915,-0.8902 -1.203369,0.1784 0.590393,-1.0637 -0.541506,-1.0893 1.194032,0.2328 0.8687,-0.8517 0.14756,1.2076 1.078392,0.563 -1.102836,0.5135 z"
       inkscape:transform-center-x="-0.16266637"
       inkscape:transform-center-y="0.012850664" />
    <path
       sodipodi:type="star"
       style="fill:#ffff00;fill-opacity:1;stroke:none;stroke-opacity:1"
       id="path4811"
       sodipodi:sides="5"
       sodipodi:cx="107.38547"
       sodipodi:cy="1016.3916"
       sodipodi:r1="2.5122976"
       sodipodi:r2="1.2561488"
       sodipodi:arg1="1.1383886"
       sodipodi:arg2="1.7667071"
       inkscape:flatsided="false"
       inkscape:rounded="0"
       inkscape:randomized="0"
       d="m 108.43827,1018.6727 -1.29732,-1.049 -1.59957,0.4741 0.59671,-1.558 -0.94513,-1.3748 1.66611,0.086 1.01544,-1.3237 0.433,1.6111 1.57271,0.5567 -1.3985,0.9097 z"
       inkscape:transform-center-x="-0.15112282"
       inkscape:transform-center-y="-0.091587572" />
    <path
       sodipodi:type="star"
       style="fill:#ffff00;fill-opacity:1;stroke:none;stroke-opacity:1"
       id="path4813"
       sodipodi:sides="5"
       sodipodi:cx="114.93053"
       sodipodi:cy="1025.1649"
       sodipodi:r1="2.0537825"
       sodipodi:r2="1.0268912"
       sodipodi:arg1="1.2220253"
       sodipodi:arg2="1.8503439"
       inkscape:flatsided="false"
       inkscape:rounded="0"
       inkscape:randomized="0"
       d="m 115.63239,1027.095 -0.9852,-0.9431 -1.33544,0.277 0.5925,-1.2284 -0.67605,-1.1845 1.35139,0.1839 0.91762,-1.009 0.2427,1.342 1.24317,0.5609 -1.20139,0.6456 z"
       inkscape:transform-center-x="-0.17511413"
       inkscape:transform-center-y="-0.021962081" />
    <path
       sodipodi:type="star"
       style="fill:#ffff00;fill-opacity:1;stroke:none;stroke-opacity:1"
       id="path4815"
       sodipodi:sides="5"
       sodipodi:cx="111.07027"
       sodipodi:cy="1040.7814"
       sodipodi:r1="2.2470672"
       sodipodi:r2="1.1235337"
       sodipodi:arg1="0.89605538"
       sodipodi:arg2="1.5243739"
       inkscape:flatsided="false"
       inkscape:rounded="0"
       inkscape:randomized="0"
       d="m 112.474,1042.536 -1.35159,-0.6323 -1.28715,0.7549 0.18373,-1.4808 -1.11573,-0.9909 1.46514,-0.2829 0.59759,-1.3673 0.72178,1.306 1.48506,0.1459 -1.01906,1.09 z"
       inkscape:transform-center-x="0.032223309"
       inkscape:transform-center-y="-0.18369847" />
    <path
       sodipodi:type="star"
       style="fill:#ffff00;fill-opacity:1;stroke:none;stroke-opacity:1"
       id="path4817"
       sodipodi:sides="5"
       sodipodi:cx="93.523621"
       sodipodi:cy="1044.1154"
       sodipodi:r1="1.2653068"
       sodipodi:r2="0.63265336"
       sodipodi:arg1="0.98279372"
       sodipodi:arg2="1.6111123"
       inkscape:flatsided="false"
       inkscape:rounded="0"
       inkscape:randomized="0"
       d="m 94.225487,1045.1682 -0.727366,-0.4207 -0.758883,0.3607 0.175303,-0.8218 -0.577562,-0.6102 0.835709,-0.087 0.401931,-0.7379 0.341193,0.7678 0.825968,0.1543 -0.624839,0.5617 z"
       inkscape:transform-center-x="-0.015759309"
       inkscape:transform-center-y="-0.10573987" />
    <path
       sodipodi:type="star"
       style="fill:#ffff00;fill-opacity:1;stroke:none;stroke-opacity:1"
       id="path4819"
       sodipodi:sides="5"
       sodipodi:cx="46.323135"
       sodipodi:cy="993.58093"
       sodipodi:r1="7.1576562"
       sodipodi:r2="3.5788281"
       sodipodi:arg1="1.3734008"
       sodipodi:arg2="2.0017193"
       inkscape:flatsided="false"
       inkscape:rounded="0"
       inkscape:randomized="0"
       d="m 47.726867,1000.5996 -2.898642,-3.76701 -4.746454,0.25226 2.686905,-3.92085 -1.706648,-4.43619 4.559241,1.34379 3.691688,-2.99397 0.130861,4.75135 3.988236,2.58581 -4.478365,1.5927 z"
       inkscape:transform-center-x="-0.43377698"
       inkscape:transform-center-y="0.25767587" />
    <path
       sodipodi:type="star"
       style="fill:#ffff00;fill-opacity:1;stroke:none;stroke-opacity:1"
       id="path4821"
       sodipodi:sides="5"
       sodipodi:cx="72.292175"
       sodipodi:cy="983.9303"
       sodipodi:r1="3.3888206"
       sodipodi:r2="1.6944103"
       sodipodi:arg1="1.199905"
       sodipodi:arg2="1.8282236"
       inkscape:flatsided="false"
       inkscape:rounded="0"
       inkscape:randomized="0"
       d="m 73.520441,987.08869 -1.659651,-1.51982 -2.192873,0.50558 0.932574,-2.04808 -1.158462,-1.92931 2.236014,0.25404 1.476904,-1.69796 0.449358,2.20508 2.071239,0.87993 -1.958295,1.10877 z"
       inkscape:transform-center-x="-0.26661102"
       inkscape:transform-center-y="-0.059378089" />
    <path
       sodipodi:type="star"
       style="fill:#ffff00;fill-opacity:1;stroke:none;stroke-opacity:1"
       id="path4823"
       sodipodi:sides="5"
       sodipodi:cx="70.537506"
       sodipodi:cy="994.8092"
       sodipodi:r1="1.617721"
       sodipodi:r2="0.80886048"
       sodipodi:arg1="1.3521274"
       sodipodi:arg2="1.9804459"
       inkscape:flatsided="false"
       inkscape:rounded="0"
       inkscape:randomized="0"
       d="m 70.888439,996.3884 -0.673092,-0.83726 -1.071303,0.0798 0.588287,-0.89888 -0.406965,-0.9942 1.036674,0.28172 0.819785,-0.69427 0.05241,1.073 0.91362,0.56512 -1.004281,0.38142 z"
       inkscape:transform-center-x="-0.10844425"
       inkscape:transform-center-y="0.04766341" />
    <path
       sodipodi:type="star"
       style="fill:#ffff00;fill-opacity:1;stroke:none;stroke-opacity:1"
       id="path4825"
       sodipodi:sides="5"
       sodipodi:cx="40.181808"
       sodipodi:cy="1022.7084"
       sodipodi:r1="3.8482802"
       sodipodi:r2="1.9241401"
       sodipodi:arg1="1.1479424"
       sodipodi:arg2="1.7762609"
       inkscape:flatsided="false"
       inkscape:rounded="0"
       inkscape:randomized="0"
       d="m 41.761007,1026.2177 -1.971765,-1.6257 -2.457005,0.7027 0.936787,-2.3776 -1.427546,-2.1196 2.550731,0.1562 1.574733,-2.0127 0.639652,2.4742 2.400784,0.8757 -2.155404,1.3729 z"
       inkscape:transform-center-x="-0.24261971"
       inkscape:transform-center-y="-0.12900358" />
    <path
       sodipodi:type="star"
       style="fill:#ffff00;fill-opacity:1;stroke:none;stroke-opacity:1"
       id="path4827"
       sodipodi:sides="5"
       sodipodi:cx="35.970612"
       sodipodi:cy="1030.429"
       sodipodi:r1="1.8652343"
       sodipodi:r2="0.93261713"
       sodipodi:arg1="0.85196633"
       sodipodi:arg2="1.4802849"
       inkscape:flatsided="false"
       inkscape:rounded="0"
       inkscape:randomized="0"
       d="m 37.198877,1031.8327 -1.143968,-0.4749 -1.039771,0.6731 0.09818,-1.2348 -0.961489,-0.7808 1.204648,-0.2882 0.445538,-1.1557 0.646331,1.0566 1.236847,0.067 -0.805193,0.9412 z"
       inkscape:transform-center-x="0.052098618"
       inkscape:transform-center-y="-0.1278362" />
    <path
       sodipodi:type="star"
       style="fill:#ffff00;fill-opacity:1;stroke:none;stroke-opacity:1"
       id="path4829"
       sodipodi:sides="5"
       sodipodi:cx="48.604198"
       sodipodi:cy="1009.3729"
       sodipodi:r1="3.1632669"
       sodipodi:r2="1.5816334"
       sodipodi:arg1="1.2315037"
       sodipodi:arg2="1.8598222"
       inkscape:flatsided="false"
       inkscape:rounded="0"
       inkscape:randomized="0"
       d="m 49.656997,1012.3559 -1.503594,-1.4669 -2.060807,0.407 0.930469,-1.8833 -1.023921,-1.8342 2.078655,0.303 1.42799,-1.5406 0.354211,2.0705 1.906466,0.882 -1.85974,0.9767 z"
       inkscape:transform-center-x="-0.27860668"
       inkscape:transform-center-y="-0.024565343" />
    <path
       sodipodi:type="star"
       style="fill:#ffff00;fill-opacity:1;stroke:none;stroke-opacity:1"
       id="path4831"
       sodipodi:sides="5"
       sodipodi:cx="40.532742"
       sodipodi:cy="980.42096"
       sodipodi:r1="2.3541298"
       sodipodi:r2="1.1770649"
       sodipodi:arg1="1.1071487"
       sodipodi:arg2="1.7354672"
       inkscape:flatsided="false"
       inkscape:rounded="0"
       inkscape:randomized="0"
       d="m 41.58554,982.52656 -1.245752,-0.94446 -1.484256,0.4908 0.513272,-1.47664 -0.925434,-1.25995 1.562972,0.0318 0.912307,-1.26948 0.452697,1.49631 1.489271,0.47536 -1.28319,0.89293 z"
       inkscape:transform-center-x="-0.11925186"
       inkscape:transform-center-y="-0.10834313" />
    <path
       sodipodi:type="star"
       style="fill:#ffff00;fill-opacity:1;stroke:none;stroke-opacity:1"
       id="path4833"
       sodipodi:sides="5"
       sodipodi:cx="67.028175"
       sodipodi:cy="1033.0609"
       sodipodi:r1="1.7546648"
       sodipodi:r2="0.87733239"
       sodipodi:arg1="0.64350111"
       sodipodi:arg2="1.2718196"
       inkscape:flatsided="false"
       inkscape:rounded="0"
       inkscape:randomized="0"
       d="m 68.431907,1034.1137 -1.14532,-0.2144 -0.825906,0.822 -0.15003,-1.1555 -1.036938,-0.5315 1.052596,-0.4998 0.185043,-1.1504 0.80057,0.8466 1.151302,-0.1795 -0.557817,1.023 z"
       inkscape:transform-center-x="0.15970717"
       inkscape:transform-center-y="-0.0082319998" />
    <path
       sodipodi:type="star"
       style="fill:#ffff00;fill-opacity:1;stroke:none;stroke-opacity:1"
       id="path4835"
       sodipodi:sides="5"
       sodipodi:cx="74.397774"
       sodipodi:cy="1035.1665"
       sodipodi:r1="1.6646212"
       sodipodi:r2="0.83231056"
       sodipodi:arg1="1.2490458"
       sodipodi:arg2="1.8773643"
       inkscape:flatsided="false"
       inkscape:rounded="0"
       inkscape:randomized="0"
       d="m 74.924173,1036.7457 -0.777581,-0.7857 -1.088059,0.1951 0.506954,-0.9823 -0.521809,-0.9745 1.090896,0.1786 0.765563,-0.7974 0.167257,1.0927 0.994953,0.4817 -0.987525,0.4967 z"
       inkscape:transform-center-x="-0.15523882"
       inkscape:transform-center-y="-0.0039048929" />
  </g>
</svg>
