<?xml version="1.0" encoding="UTF-8" standalone="no"?>
<!-- Created with Inkscape (http://www.inkscape.org/) -->

<svg
   xmlns:dc="http://purl.org/dc/elements/1.1/"
   xmlns:cc="http://creativecommons.org/ns#"
   xmlns:rdf="http://www.w3.org/1999/02/22-rdf-syntax-ns#"
   xmlns:svg="http://www.w3.org/2000/svg"
   xmlns="http://www.w3.org/2000/svg"
   xmlns:sodipodi="http://sodipodi.sourceforge.net/DTD/sodipodi-0.dtd"
   xmlns:inkscape="http://www.inkscape.org/namespaces/inkscape"
   width="80"
   height="150"
   viewBox="0 0 80.000001 150"
   id="svg2"
   version="1.1"
   inkscape:version="0.91 r13725"
   sodipodi:docname="prizrak.svg">
  <defs
     id="defs4" />
  <sodipodi:namedview
     id="base"
     pagecolor="#ffffff"
     bordercolor="#666666"
     borderopacity="1.0"
     inkscape:pageopacity="0.0"
     inkscape:pageshadow="2"
     inkscape:zoom="1.6244979"
     inkscape:cx="37.639322"
     inkscape:cy="65.138607"
     inkscape:document-units="px"
     inkscape:current-layer="layer1"
     showgrid="false"
     units="px"
     inkscape:window-width="1366"
     inkscape:window-height="706"
     inkscape:window-x="-8"
     inkscape:window-y="-8"
     inkscape:window-maximized="1" />
  <metadata
     id="metadata7">
    <rdf:RDF>
      <cc:Work
         rdf:about="">
        <dc:format>image/svg+xml</dc:format>
        <dc:type
           rdf:resource="http://purl.org/dc/dcmitype/StillImage" />
        <dc:title></dc:title>
      </cc:Work>
    </rdf:RDF>
  </metadata>
  <g
     inkscape:label="Layer 1"
     inkscape:groupmode="layer"
     id="layer1"
     transform="translate(0,-902.36216)">
    <ellipse
       style="fill:#e3dbdb;fill-opacity:1;stroke:none;stroke-opacity:1"
       id="path4144"
       cx="39.866322"
       cy="929.79077"
       rx="16.5611"
       ry="14.347067" />
    <ellipse
       style="fill:#e3dbdb;fill-opacity:1;stroke:none;stroke-opacity:1"
       id="path4146"
       cx="41.672989"
       cy="976.83588"
       rx="6.9255509"
       ry="33.698925" />
    <path
       style="fill:#e3dbdb;fill-opacity:1;stroke:none;stroke-opacity:1"
       id="path4152"
       d="m 37.760013,949.52408 c -0.140065,0.69304 -0.457494,1.29485 -0.801698,1.88312 -0.299061,0.44939 -0.590873,0.91757 -1.001299,1.24975 -0.331029,0.30473 -0.619029,0.67075 -0.896729,1.03529 -0.314306,0.41143 -0.555015,0.8773 -0.815203,1.32944 -0.254664,0.41764 -0.49754,0.84198 -0.738284,1.27037 -0.260722,0.52777 -0.523277,1.04577 -0.818919,1.55187 -0.0145,0.0639 -0.406612,0.58285 -0.284746,0.68853 0.05548,0.0481 0.138983,0.0258 0.20886,0.0356 0.188173,0.0332 0.412683,-0.004 0.588073,-0.0933 0.128229,-0.0655 0.236216,-0.17242 0.361288,-0.24502 -1.300567,0.82242 -2.601135,1.64484 -3.901703,2.46727 0.430004,-0.25698 0.682702,-0.64271 0.894231,-1.11895 0.22291,-0.58128 0.229654,-1.2161 0.288244,-1.83382 0.0721,-0.52826 0.267587,-1.02739 0.502261,-1.49083 0.181779,-0.45679 0.422106,-0.86975 0.678772,-1.27737 0.233904,-0.31734 0.518273,-0.64767 0.633206,-1.04491 4.157777,-2.2356 5.221358,-3.21235 3.788242,-0.78329 -0.307313,0.55328 -0.669047,1.05878 -0.967311,1.61898 -0.202001,0.52584 -0.4472,1.02201 -0.711574,1.5111 -0.256777,0.4225 -0.409245,0.89378 -0.593211,1.35559 -0.262011,0.59288 -0.517539,1.18962 -0.780976,1.78178 -0.305842,0.64485 -0.586495,1.30542 -0.919861,1.93354 -0.273498,0.4979 -0.636664,0.91688 -0.983149,1.35005 -1.428235,1.63682 -2.870913,2.06035 -4.983788,3.46017 -1.27057,0.84178 2.567769,-1.63319 3.851652,-2.44979 -11.507405,7.33565 -0.387266,0.24743 -0.448303,0.2843 -1.814324,1.09595 -3.28474,2.19097 -5.03302,3.10939 8.114924,-4.89237 4.001142,-3.28971 3.295115,-1.70357 -0.112413,0.25253 -0.141683,0.42877 -0.206693,0.69918 -0.08694,0.67205 -0.176558,1.33831 -0.330728,1.99639 -0.164102,0.61217 -0.612303,1.01855 -1.042259,1.4094 -0.0798,0.0569 -0.157181,0.11818 -0.239394,0.17073 -1.436095,0.91747 -2.867247,1.84479 -4.315214,2.73905 -0.08647,0.0534 -0.192012,0.0569 -0.282759,0.10071 -0.08277,0.0399 -0.154452,0.10407 -0.234901,0.14945 -0.07865,0.0444 -0.318187,0.16872 -0.241803,0.11967 1.284128,-0.82434 2.577482,-1.63089 3.866223,-2.44634 -2.702834,1.74003 -8.641825,5.47641 -0.602925,0.3847 0.0589,-0.0373 -0.120385,0.0709 -0.174303,0.11644 -0.111078,0.094 -0.204335,0.21131 -0.307909,0.31527 -0.344777,0.45407 -0.570004,1.00276 -0.830958,1.51812 -0.271232,0.5428 -0.580891,1.06428 -0.961839,1.5199 -0.354298,0.37987 -0.653257,0.82107 -1.056606,1.13974 -0.406228,0.32051 -0.773131,0.69295 -1.156193,1.0466 -0.44032,0.38528 -0.740707,0.88954 -1.046948,1.4009 -0.311145,0.55297 -0.586089,1.12984 -0.939207,1.65231 -0.275686,0.41004 -0.58319,0.79772 -0.921199,1.14605 -0.428678,0.41399 -0.894602,0.76646 -1.252899,1.26067 -0.359848,0.51445 -0.501737,1.13793 -0.701872,1.73519 -0.710608,2.40827 -2.615692,2.52189 -4.903759,3.95978 -0.777563,-0.25117 -0.6686109,-0.94645 -0.3480159,-1.57827 0.5388959,-0.67551 1.1732409,-1.24306 1.8044229,-1.80738 0.650929,-0.58072 1.26529,-1.20904 1.895175,-1.81719 0.520805,-0.57099 1.076834,-1.09871 1.627241,-1.63342 0.429152,-0.37711 0.906484,-0.67785 1.342386,-1.04484 0.395778,-0.34857 0.705509,-0.77849 0.977249,-1.24675 0.240909,-0.60885 0.44537,-1.23972 0.628166,-1.87318 0.206547,-0.81403 0.57462,-1.55672 0.918223,-2.30586 0.37288,-0.84165 0.750991,-1.68049 1.131737,-2.5178 0.407468,-0.82267 0.905675,-1.58619 1.407767,-2.34026 0.596161,-0.80598 1.146695,-1.64584 1.677335,-2.50603 0.626254,-1.07517 1.212874,-2.17757 1.798351,-3.28031 0.553671,-0.95795 1.055037,-1.95122 1.593916,-2.91894 0.404335,-0.70137 0.832308,-1.38402 1.241085,-2.08262 1.347227,-2.17525 2.933649,-2.57928 5.338705,-4.12834 0.584508,-0.31907 1.055445,-0.5621 1.609276,-0.0632 0.462035,0.63761 0.264029,1.42528 -8.47e-4,2.10917 -1.013957,1.79492 -3.086687,2.31935 -4.705757,3.36619 -0.08072,0.0522 -0.323718,0.20708 -0.242727,0.15543 3.919452,-2.4995 5.0216,-3.4527 3.641483,-2.27906 -0.42198,0.40503 -0.623616,0.99311 -0.818986,1.55584 -0.228174,0.58999 -0.497003,1.15931 -0.764072,1.72847 -0.348324,0.5638 -0.704962,1.1188 -1.02467,1.70375 -0.325105,0.58859 -0.723824,1.12907 -1.115735,1.66619 -0.436452,0.50431 -0.761586,1.10582 -1.141507,1.65919 -0.834229,1.10347 -1.639815,2.22999 -2.412301,3.3874 -1.09006,1.75142 -2.070857,3.57982 -3.095632,5.37769 -0.493374,0.95963 -1.125423,1.79377 -1.848223,2.54606 -0.35722,0.38755 -0.763668,0.69702 -1.188579,0.98433 -8.870586,5.67749 -2.768069,1.76922 -0.467706,0.30584 0.0789,-0.0502 -0.158032,0.1003 -0.233367,0.15679 -0.237277,0.17795 -0.463829,0.38106 -0.694711,0.56929 -0.479322,0.37507 -0.918245,0.80463 -1.403831,1.17173 -0.544903,0.39662 -1.034429,0.85749 -1.502746,1.35809 -0.437773,0.46985 -0.813565,1.00728 -1.165327,1.55761 -0.01698,0.039 -0.0158,0.0968 -0.05094,0.11564 -2.653406,1.3244 -5.4336361,3.61086 -3.911791,0.84009 0.39109,-0.54751 0.856609,-1.0204 1.254293,-1.56307 0.498147,-0.79267 1.100805,-1.49143 1.625851,-2.26138 0.566781,-0.9069 1.082091,-1.85184 1.566196,-2.81531 0.325706,-0.725 0.839434,-1.30454 1.293479,-1.92823 0.374863,-0.50425 0.788893,-0.9695 1.186011,-1.45176 0.391207,-0.40794 0.756111,-0.8426 1.124655,-1.2753 0.438915,-0.46231 0.717879,-1.07254 1.046011,-1.6298 0.365805,-0.62878 0.748516,-1.24503 1.103362,-1.88159 0.306648,-0.61762 0.709836,-1.16476 1.068051,-1.74503 0.304243,-0.42416 0.514547,-0.91605 0.810012,-1.34677 0.327748,-0.45215 0.53918,-0.98053 0.834147,-1.45673 0.285801,-0.49948 0.645487,-0.9357 0.987136,-1.3866 0.3252,-0.45079 0.587741,-0.95121 0.899314,-1.41204 0.394362,-0.53515 0.860069,-0.99755 1.332029,-1.44624 1.378931,-1.32734 3.549809,-2.40723 4.80783,-3.19411 0.09354,-0.0585 0.203729,-0.076 0.30314,-0.12114 0.274896,-0.12464 0.324604,-0.16923 0.583836,-0.33428 1.452551,-0.80854 3.51978,-2.15738 -3.134424,2.02713 -0.107219,0.0674 0.208739,-0.14558 0.310158,-0.22324 0.299808,-0.22959 0.311133,-0.25291 0.582836,-0.50906 0.805466,-0.83153 1.593315,-1.68322 2.420605,-2.48804 1.445043,-1.35359 3.010941,-2.53153 4.573932,-3.70782 0.505851,-0.37892 1.011944,-0.76347 1.544162,-1.09669 1.256294,-0.78661 3.277552,-2.87448 5.198801,-2.86193 0.784124,0.1399 1.270493,0.78648 1.814177,1.35467 0.396614,0.47045 0.800523,0.93162 1.192014,1.4069 0.368803,0.36696 0.710941,0.7652 1.0788,1.13323 0.306859,0.41135 0.59376,0.84378 0.878445,1.27517 0.308837,0.3597 0.564746,0.78669 0.76292,1.23192 0.18669,0.41781 0.46319,0.76065 0.720352,1.12318 0.32719,0.31483 0.510693,0.75932 0.79163,1.11831 0.34427,0.43072 0.660574,0.88381 1.04566,1.27279 0.337775,0.35792 0.515405,0.86955 0.900271,1.17134 0.299101,0.39521 0.653778,0.71935 0.995617,1.06619 0.404108,0.33677 0.733556,0.76651 1.121983,1.12509 0.334264,0.4466 0.671805,0.88799 1.033763,1.31045 0.35824,0.51991 0.80422,0.95073 1.193474,1.4389 0.405191,0.41414 0.789382,0.85062 1.142698,1.31947 0.32497,0.46308 0.610459,0.95129 0.881297,1.45501 0.283976,0.41414 0.591077,0.80203 0.853157,1.23537 0.499206,0.77429 0.952127,1.58085 1.451815,2.35591 0.550233,0.94513 1.109993,1.87904 1.700454,2.79409 0.535256,0.81509 1.030333,1.66675 1.600617,2.45292 0.414513,0.532 0.802591,1.10462 1.096056,1.72941 0.275746,0.5976 0.531343,1.20439 0.706596,1.84768 0.137412,0.51314 0.09725,1.14322 0.441896,1.55664 0.251391,0.37409 0.619628,0.58262 0.949135,0.85025 0.110375,0.0783 0.271939,0.44267 0.446139,0.41497 0.07133,-0.0134 0.100752,-0.27552 0.0383,-0.23571 -1.362899,0.86927 -2.681676,1.82083 -4.022514,2.73111 0.0097,0.0134 0.03317,0.0538 0.02904,0.0376 -0.04129,-0.15745 -0.167974,-0.26919 -0.244807,-0.40459 -0.118662,-0.20921 -0.125871,-0.25654 -0.213331,-0.48889 -0.25807,-0.38589 -0.467531,-0.79908 -0.683384,-1.21845 -0.2191,-0.4702 -0.344965,-0.97966 -0.550508,-1.45807 -0.168096,-0.24892 -0.07224,-0.13942 -0.285947,-0.33027 0,0 4.040698,-2.7685 4.040698,-2.7685 l 0,0 c 0.275421,0.30892 0.151006,0.14333 0.373877,0.49614 0.21492,0.4647 0.340491,0.96103 0.54428,1.42896 0.223052,0.44047 0.459711,0.8569 0.712449,1.27594 0.148036,0.40834 0.439568,0.70139 0.592548,1.10853 -3.61794,2.59019 -3.036981,4.01437 -4.790041,2.24706 -0.379704,-0.27389 -0.737253,-0.58247 -1.020125,-0.97953 -0.34623,-0.5182 -0.430695,-1.12379 -0.515831,-1.75027 -0.151894,-0.61781 -0.403977,-1.18923 -0.671546,-1.755 -0.268007,-0.60074 -0.635695,-1.1481 -1.026531,-1.65685 -0.554392,-0.80543 -1.02191,-1.68223 -1.568173,-2.49486 -0.607423,-0.90572 -1.15403,-1.84761 -1.710624,-2.79142 -0.504564,-0.77297 -0.979042,-1.56719 -1.499006,-2.32669 -0.293372,-0.42468 -0.617572,-0.82144 -0.889067,-1.26431 -0.25458,-0.47912 -0.516753,-0.94855 -0.83104,-1.38347 -0.358956,-0.4571 -0.74181,-0.8873 -1.135143,-1.30778 -0.393605,-0.47428 -0.810744,-0.92419 -1.176451,-1.42729 -0.362203,-0.40462 -0.69347,-0.83379 -1.027321,-1.26391 -0.374195,-0.37729 -0.72848,-0.77969 -1.125049,-1.12869 -0.348514,-0.3325 -0.675288,-0.68141 -0.994055,-1.04686 -0.351175,-0.36121 -0.581431,-0.82352 -0.907351,-1.20975 -0.380288,-0.42144 -0.724351,-0.87714 -1.086099,-1.31724 -0.268319,-0.3738 -0.479967,-0.79564 -0.795722,-1.12603 -0.284255,-0.38795 -0.563767,-0.77711 -0.770351,-1.2246 -0.183401,-0.42081 -0.440544,-0.80128 -0.72051,-1.14903 -0.270367,-0.40269 -0.525006,-0.82222 -0.82534,-1.19697 -0.365879,-0.38951 -0.741232,-0.76622 -1.094827,-1.16981 -0.387054,-0.4632 -0.771569,-0.92806 -1.159452,-1.39054 -0.454469,-0.49207 -0.890209,-1.03888 -1.585461,-0.9809 -1.551917,0.38688 -3.50835,2.07413 2.957402,-2.11971 0.156977,-0.10179 -0.313007,0.20542 -0.470115,0.30699 -0.810516,0.52397 -0.300617,0.17309 -1.157402,0.79151 -1.549044,1.18294 -3.152026,2.28907 -4.58452,3.65023 -0.809627,0.76493 -1.541731,1.61776 -2.324615,2.41582 -1.558339,1.85699 -3.815024,2.77995 -5.806855,3.97513 -0.201841,0.10636 -0.407864,0.20279 -0.609227,0.31023 -0.09315,0.0498 -0.364009,0.21738 -0.27483,0.1594 6.584759,-4.2816 4.665451,-3.00635 3.261644,-2.09735 -0.426626,0.49157 -0.952563,0.86353 -1.353709,1.38723 -0.35234,0.42519 -0.575109,0.93199 -0.910742,1.37092 -0.269918,0.50983 -0.685445,0.89208 -0.997332,1.3708 -0.133553,0.24321 -0.322209,0.45829 -0.439233,0.71057 -0.119451,0.25752 -0.176574,0.55096 -0.374519,0.7605 -0.272901,0.45831 -0.595812,0.87541 -0.818771,1.37306 -0.407212,0.52377 -0.734737,1.13594 -1.106076,1.68975 -0.326371,0.6633 -0.735307,1.26505 -1.082156,1.91434 -0.36345,0.55847 -0.65457,1.16398 -0.999882,1.73399 -0.417275,0.37411 -0.722911,0.87321 -1.121793,1.26776 -0.454578,0.41179 -0.78794,0.96565 -1.231014,1.39434 -0.443747,0.62425 -0.943413,1.19517 -1.345657,1.85424 -0.476197,0.98948 -1.023722,1.93517 -1.567913,2.87987 -0.471291,0.8044 -1.087814,1.47414 -1.568422,2.2653 -0.377783,0.54974 -0.767777,1.09739 -1.255553,1.53419 -0.188742,0.25331 -0.295042,0.45688 -0.424457,0.7461 -0.73885,1.65154 -2.925005,1.7583 -4.412258,2.58401 -0.03566,0.0202 0.06273,-0.0551 0.0941,-0.082 0.162647,-0.28088 0.351603,-0.51497 0.53519,-0.77649 0.142035,-0.20236 0.236274,-0.44412 0.387348,-0.63827 0.07122,-0.0914 0.162378,-0.16135 0.243566,-0.24203 0.432222,-0.5381 0.896199,-1.05778 1.459393,-1.42794 0.451292,-0.41774 0.989488,-0.71621 1.393133,-1.20374 0.244267,-0.15904 0.481795,-0.33892 0.702371,-0.53683 0.0748,-0.0671 0.129838,-0.16207 0.212639,-0.21645 0.152063,-0.0999 10.591207,-6.76944 0.466306,-0.27975 0.415192,-0.3101 0.879641,-0.53089 1.23162,-0.9325 0.811674,-0.66589 1.485378,-1.51486 2.025644,-2.45965 1.061436,-1.78296 2.064744,-3.60449 3.100505,-5.40598 0.717244,-1.15411 1.476767,-2.26752 2.27607,-3.35266 0.410642,-0.54134 0.710165,-1.14575 1.1203,-1.68704 0.441697,-0.4712 0.732747,-1.0707 1.156476,-1.55409 0.283115,-0.60664 0.617171,-1.18995 1.009569,-1.7168 0.326913,-0.51047 0.53075,-1.11135 0.785795,-1.66783 0.267712,-0.56964 0.382067,-1.22902 0.73867,-1.75233 0.06209,-0.0737 0.108736,-0.16822 0.18629,-0.22084 1.405893,-0.95387 2.835206,-1.8647 4.255181,-2.7926 0.07926,-0.0518 0.321537,-0.19834 0.242369,-0.14639 -1.258078,0.82568 -2.519674,1.64477 -3.779248,2.46765 -0.172939,0.11295 0.718117,-0.43902 0.483691,-0.39764 0.208231,-0.33593 0.567886,-0.99592 0.307939,-1.38822 -0.452542,-0.10905 -0.907287,0.30364 -1.297046,0.49406 1.265628,-0.82273 2.531256,-1.64547 3.796884,-2.46821 -0.23151,0.15216 -0.285029,0.16509 -0.477379,0.38362 -0.228361,0.25945 -0.38818,0.58693 -0.640316,0.82303 -0.207899,0.33208 -0.38482,0.68039 -0.58438,1.01756 -0.612601,1.035 0.164938,-0.33237 -0.47163,0.68288 -0.07597,0.12115 -0.135639,0.25394 -0.203459,0.38091 -0.580852,0.9551 -1.070667,1.97446 -1.655812,2.92725 -0.587157,1.09475 -1.139856,2.21141 -1.759683,3.28483 -0.494904,0.8906 -1.044998,1.7388 -1.647908,2.5413 -0.526239,0.70558 -0.962217,1.48656 -1.42279,2.24494 -0.403654,0.82163 -0.7722,1.66542 -1.140719,2.50671 -0.31427,0.73844 -0.700997,1.4415 -0.939123,2.21725 -0.1578,0.66413 -0.396522,1.29007 -0.563964,1.94984 -0.197731,0.53799 -0.525941,1.04659 -0.923122,1.42362 -0.374272,0.45635 -0.859298,0.7729 -1.336378,1.07881 -0.590941,0.48739 -1.122656,1.05646 -1.669194,1.60412 -0.735842,0.85968 0.154294,-0.13779 -0.626079,0.60944 -0.423491,0.40552 -0.797577,0.88159 -1.259543,1.24055 -0.594355,0.57695 -1.242886,1.08507 -1.803258,1.70398 -0.663903,0.56647 0.17228,-0.19523 -0.317948,0.39477 -0.14374,0.17291 -0.139006,0.0323 0.04782,-0.0202 -1.293992,0.8378 -2.591482,1.66915 -3.881975,2.51368 -0.07066,0.0457 0.152026,-0.0713 0.221772,-0.11832 0.284469,-0.1955 0.446977,-0.52317 0.517938,-0.87599 0.209253,-0.62079 0.351513,-1.27237 0.664654,-1.84355 0.285795,-0.59538 0.70177,-0.99996 1.190109,-1.3876 0.35116,-0.32122 0.655541,-0.67084 0.966372,-1.03701 0.332262,-0.53433 0.708805,-1.03115 0.967086,-1.62172 0.271635,-0.54123 0.56017,-1.12268 0.993089,-1.52026 0.189184,-0.23565 0.395122,-0.38034 0.604345,-0.58584 0.175402,-0.17228 0.285716,-0.41351 0.521021,-0.5041 0.423953,-0.41176 -0.08225,0.0518 0.382008,-0.2874 0.277643,-0.20284 0.468421,-0.54902 0.700927,-0.80494 0.412353,-0.40339 0.739348,-0.86732 1.036529,-1.38072 0.24902,-0.54392 0.519656,-1.07018 0.760523,-1.61109 1.033554,-1.66691 3.557686,-2.59632 4.696827,-3.31024 1.226025,-0.76837 -5.416687,3.49103 -3.657905,2.3442 1.426414,-0.911 2.849973,-1.82752 4.279243,-2.733 0.196706,-0.12464 0.278968,-0.13764 0.486487,-0.24211 0.08648,-0.0436 0.337399,-0.19315 0.255461,-0.13991 -6.84522,4.44809 -4.877045,3.15271 -3.56505,2.28835 0.268998,-0.149 0.415784,-0.31025 0.636885,-0.52742 0.187644,-0.18432 0.427431,-0.28102 0.539074,-0.5501 0.211414,-0.63047 0.303594,-1.30066 0.364483,-1.96707 0.491932,-2.91976 1.877991,-2.56264 4.875618,-4.55354 0.543144,-0.31155 -0.100958,0.0504 0.469948,-0.24602 0.08299,-0.043 0.324429,-0.18878 0.245275,-0.1376 -1.270868,0.82163 -5.100645,3.25359 -3.820812,2.44922 0.69554,-0.43713 10.100601,-6.47002 0.445931,-0.27912 1.427687,-0.91232 2.820306,-1.89559 4.283059,-2.73695 1.311917,-0.7546 -2.554272,1.64922 -3.830056,2.4764 -0.07102,0.046 0.147604,-0.0818 0.215704,-0.13298 0.184554,-0.13866 0.364204,-0.30844 0.495831,-0.50774 0.401665,-0.35018 0.73119,-0.81597 1.043284,-1.26082 0.411273,-0.5552 0.61726,-1.24662 0.950161,-1.85868 0.251068,-0.58768 0.492311,-1.17517 0.768176,-1.74886 0.05687,-0.152 0.139044,-0.29172 0.192062,-0.44543 0.112716,-0.32679 0.144145,-0.68479 0.390533,-0.94122 0.204809,-0.53336 0.580633,-0.95933 0.72185,-1.52891 0.258272,-0.59564 0.590337,-1.12188 0.953632,-1.63935 1.089608,-2.23478 1.851961,-1.76312 5.011511,-3.28029 -0.0391,-0.007 -0.08068,-0.038 -0.117279,-0.0212 -0.191127,0.0877 -0.430934,0.77652 -0.592575,0.95161 -0.321051,0.30539 -0.56659,0.73643 -0.724183,1.16797 -0.209444,0.43651 -0.466282,0.85843 -0.579768,1.34042 -0.14512,0.63024 -0.05301,1.30838 -0.246406,1.9341 -0.15102,0.51283 -0.351124,1.08844 -0.770923,1.39531 -1.418812,0.91284 -2.831789,1.83688 -4.256432,2.73849 -0.35928,0.22738 -0.821478,0.13839 -1.185367,-0.009 -0.561856,-0.38061 -0.667413,-0.92907 -0.300603,-1.54707 0.30498,-0.49533 0.619017,-0.97477 0.809092,-1.53953 0.252715,-0.41791 0.442448,-0.87523 0.743767,-1.24954 0.239139,-0.48628 0.51345,-0.94157 0.78806,-1.4017 0.276602,-0.39447 0.577638,-0.74768 0.854002,-1.13883 0.440082,-0.42386 -0.103494,0.0718 0.376633,-0.27972 0.283147,-0.20732 0.473692,-0.57666 0.689598,-0.85595 0.382661,-0.4861 0.677701,-1.04263 0.861322,-1.65468 0,0 4.29052,-2.30535 4.29052,-2.30535 z"
       inkscape:connector-curvature="0" />
    <path
       style="fill:#e3dbdb;fill-opacity:1;stroke:none;stroke-opacity:1"
       id="path4154"
       d="m 69.092595,981.32941 c 0.419315,0.69906 0.975412,1.23904 1.549757,1.77122 0.547307,0.41494 1.037135,0.9127 1.611984,1.28085 0.517249,0.37513 1.115212,0.55033 1.687138,0.79034 0.474046,0.18098 0.928248,0.4226 1.394263,0.63007 0.428682,0.27469 0.913408,0.38912 1.368885,0.58771 0,0 -0.98427,0.73279 -0.98427,0.73279 l 0,0 c -0.459035,-0.19079 -0.936332,-0.3278 -1.370442,-0.58932 -0.464302,-0.20976 -0.920223,-0.44412 -1.393004,-0.62779 -0.57551,-0.24484 -1.175726,-0.42851 -1.694683,-0.81131 -0.573179,-0.38159 -1.075718,-0.87263 -1.62101,-1.30021 -0.579,-0.54133 -1.131136,-1.10094 -1.573979,-1.79009 0,0 1.025361,-0.67426 1.025361,-0.67426 z"
       inkscape:connector-curvature="0" />
    <path
       style="fill:#e3dbdb;fill-opacity:1;stroke:none;stroke-opacity:1"
       id="path4156"
       d="m 68.1915,984.04493 c 0.322971,0.74678 0.654889,1.48871 0.996215,2.22554 0.327121,0.4936 0.575827,1.03573 0.850325,1.56334 0.242822,0.52062 0.518935,1.01784 0.81044,1.50646 0.315957,0.54187 0.435199,1.18162 0.681181,1.76005 0.206385,0.52143 0.40077,1.05187 0.57175,1.58943 0.09884,0.542 0.272809,1.0602 0.382056,1.59937 0.0145,0.0968 0.02899,0.19308 0.04349,0.28962 0,0 -1.048607,0.61595 -1.048607,0.61595 l 0,0 c -0.01364,-0.0941 -0.02728,-0.18851 -0.04092,-0.28276 -0.105776,-0.53514 -0.282377,-1.04702 -0.3758,-1.58526 -0.167544,-0.53447 -0.361337,-1.06046 -0.563554,-1.5792 -0.242733,-0.57319 -0.363968,-1.20474 -0.673067,-1.74298 -0.294263,-0.48996 -0.569971,-0.99108 -0.815049,-1.51345 -0.273494,-0.53084 -0.527112,-1.07163 -0.849324,-1.57141 -0.335964,-0.73656 -0.65803,-1.47957 -0.998971,-2.2133 0,0 1.029837,-0.6614 1.029837,-0.6614 z"
       inkscape:connector-curvature="0" />
    <path
       style="fill:#e3dbdb;fill-opacity:1;stroke:none;stroke-opacity:1"
       id="path4158"
       d="m 66.895268,985.41035 c -0.0097,0.84278 -0.0073,1.68556 -0.0062,2.52834 0.0012,0.73898 0.0019,1.47782 0.0023,2.2168 0.04037,0.73051 -0.04018,1.4469 -0.133924,2.16773 -0.09822,0.71639 -0.135827,1.43963 -0.15645,2.16315 -0.0081,0.33709 -0.0097,0.67431 -0.01165,1.01153 0,0 -1.055324,0.59497 -1.055324,0.59497 l 0,0 c 0.0017,-0.33829 0.0032,-0.67659 0.0108,-1.01475 0.01958,-0.72822 0.05533,-1.45645 0.153159,-2.17781 0.09317,-0.71505 0.181457,-1.42418 0.138794,-2.14931 3.84e-4,-0.73992 0.0011,-1.4797 0.0023,-2.21949 0.0011,-0.84049 0.0035,-1.68099 -0.0062,-2.52135 0,0 1.062368,-0.59981 1.062368,-0.59981 z"
       inkscape:connector-curvature="0" />
    <path
       style="fill:#e3dbdb;fill-opacity:1;stroke:none;stroke-opacity:1"
       id="path4160"
       d="m 65.690824,986.41138 c -0.0079,0.76184 -0.0057,1.52395 -0.0051,2.28578 0.02056,0.7289 -0.119536,1.44515 -0.295789,2.14259 -0.147072,0.72392 -0.44939,1.3915 -0.793852,2.02251 -0.310722,0.60277 -0.71558,1.13469 -1.003586,1.75211 -0.274357,0.54402 -0.555801,1.08346 -0.812934,1.6377 -0.328931,0.68681 -0.70924,1.34014 -1.098085,1.98661 -0.321988,0.51618 -0.166093,0.25695 -0.468019,0.7773 0,0 -1.076742,0.52506 -1.076742,0.52506 l 0,0 c 0.29918,-0.52519 0.143833,-0.26542 0.466276,-0.77905 0.383217,-0.64486 0.767466,-1.28878 1.097524,-1.96954 0.249706,-0.55813 0.53032,-1.09851 0.812774,-1.63688 0.27439,-0.63182 0.684373,-1.16172 1.002804,-1.76463 0.349594,-0.61595 0.658011,-1.27479 0.805348,-1.98849 0.177005,-0.68694 0.330313,-1.39123 0.312101,-2.11125 5.79e-4,-0.75996 0.0028,-1.52005 -0.0051,-2.28 0,0 1.062368,-0.59982 1.062368,-0.59982 z"
       inkscape:connector-curvature="0" />
    <path
       style="fill:#e3dbdb;fill-opacity:1;stroke:none;stroke-opacity:1"
       id="path4162"
       d="m 65.870642,984.7191 c -0.623984,0.42757 -1.225954,0.88016 -1.718067,1.48723 -0.377551,0.52923 -0.877427,0.92279 -1.199504,1.49854 -0.428197,0.68196 -0.608637,1.49839 -0.801665,2.28927 -0.19576,0.80702 -0.502336,1.56872 -0.817142,2.32518 -0.281985,0.56835 -0.333852,1.20998 -0.461799,1.82849 -0.09676,0.50717 -0.344535,0.94026 -0.64473,1.3283 0,0 -1.097556,0.50987 -1.097556,0.50987 l 0,0 c 0.313926,-0.35363 0.565221,-0.78403 0.67224,-1.26982 0.148509,-0.61851 0.166217,-1.27842 0.454284,-1.85296 0.323393,-0.75054 0.631249,-1.51077 0.840236,-2.3116 0.188391,-0.79182 0.343102,-1.63003 0.771927,-2.31253 0.300907,-0.60654 0.803426,-0.99566 1.197222,-1.52422 0.473339,-0.62348 1.064159,-1.09596 1.696628,-1.50754 0,0 1.107926,-0.48821 1.107926,-0.48821 z"
       inkscape:connector-curvature="0" />
    <path
       style="fill:#e3dbdb;fill-opacity:1;stroke:none;stroke-opacity:1"
       id="path4164"
       d="m 12.995334,986.45185 c -0.02653,0.80204 -0.0258,1.59575 0.161638,2.3748 0.273988,0.8733 0.680064,1.67655 0.944074,2.55375 0.298875,0.87666 0.514616,1.77834 0.630032,2.70596 0.07228,0.69178 0.07345,1.38908 0.075,2.08463 -9.02e-4,0.6653 -0.0038,1.33059 -0.0051,1.99602 -0.0594,0.57965 0.153257,1.06733 0.344287,1.58351 0.02509,0.0861 0.0502,0.1713 0.07529,0.25698 0,0 -1.041504,0.6341 -1.041504,0.6341 l 0,0 c -0.02378,-0.082 -0.04757,-0.1653 -0.07136,-0.2478 -0.195584,-0.53087 -0.42062,-1.03549 -0.361993,-1.63141 0.0013,-0.66516 0.0039,-1.33032 0.0055,-1.99562 -5.71e-4,-0.69071 4.32e-4,-1.38316 -0.06499,-2.07105 -0.106637,-0.92184 -0.312357,-1.81934 -0.611326,-2.68902 -0.264994,-0.87908 -0.677844,-1.68085 -0.956516,-2.55483 -0.195132,-0.78738 -0.195266,-1.58929 -0.183116,-2.40141 0,0 1.060209,-0.59861 1.060209,-0.59861 z"
       inkscape:connector-curvature="0" />
    <path
       style="fill:#e3dbdb;fill-opacity:1;stroke:none;stroke-opacity:1"
       id="path4166"
       d="m 11.761083,987.42398 c -0.102584,0.76722 -0.232692,1.52623 -0.372736,2.28605 -0.182273,0.97186 -0.170789,1.96779 -0.238113,2.9531 -0.170072,1.50229 -0.412838,2.99611 -0.701212,4.47596 -0.155878,0.92937 -0.4716045,1.80953 -0.6466246,2.73352 -0.026429,0.10219 -0.052857,0.20369 -0.079286,0.30549 0,0 -1.0716544,0.5614 -1.0716544,0.5614 l 0,0 c 0.02888,-0.098 0.057747,-0.1973 0.086627,-0.2958 0.1702185,-0.93157 0.4984655,-1.81106 0.6624797,-2.74419 0.3010344,-1.47191 0.5390695,-2.96305 0.7101913,-4.46023 0.06456,-0.98706 0.03399,-1.985 0.215283,-2.95901 0.139015,-0.75767 0.283424,-1.51063 0.362414,-2.27987 0,0 1.07263,-0.57642 1.07263,-0.57642 z"
       inkscape:connector-curvature="0" />
    <path
       style="fill:#e3dbdb;fill-opacity:1;stroke:none;stroke-opacity:1"
       id="path4168"
       d="m 9.8640121,986.72104 c -0.6100119,0.38119 -1.0656528,0.95505 -1.5226903,1.52811 -0.6182888,0.91351 -1.116952,1.91616 -1.6398113,2.8977 -0.4657754,0.92049 -0.8924516,1.86385 -1.3115946,2.81097 0,0 -1.0702446,0.53783 -1.0702446,0.53783 l 0,0 c 0.4188726,-0.95236 0.8515953,-1.89733 1.3156137,-2.82402 0.5220001,-0.98436 1.0246495,-1.98432 1.6223827,-2.91598 0.4506803,-0.57198 0.8868115,-1.17462 1.4984167,-1.5464 0,0 1.1079277,-0.48821 1.1079277,-0.48821 z"
       inkscape:connector-curvature="0" />
    <path
       style="fill:#e3dbdb;fill-opacity:1;stroke:none;stroke-opacity:1"
       id="path4170"
       d="m 9.4084295,987.0787 c -0.5949325,-0.45165 -1.2212773,-0.85677 -1.7882668,-1.3513 -0.3942907,-0.38563 -0.8514132,-0.60426 -1.3564543,-0.73549 0,0 0.9755175,-0.74556 0.9755175,-0.74556 l 0,0 c 0.5129648,0.15072 0.9773291,0.39019 1.3789829,0.78483 0.5699115,0.49198 1.1959674,0.89965 1.7979012,1.34134 0,0 -1.0076805,0.70618 -1.0076805,0.70618 z"
       inkscape:connector-curvature="0" />
    <path
       style="fill:#e3dbdb;fill-opacity:1;stroke:none;stroke-opacity:1"
       id="path4172"
       d="m 6.5031851,982.78694 c 0.6113043,0.0995 1.198165,0.18838 1.7094141,0.59457 0.3605789,0.43417 0.593861,0.98141 0.7354801,1.5464 0.1193294,0.57077 0.3556512,1.0727 0.6339652,1.56321 0.2626485,0.44317 0.6422405,0.73871 1.0050995,1.06772 0.614617,0.42597 0.151862,0.49723 -0.8820958,0.84789 -0.069942,0.0242 -0.1160896,-0.0982 -0.1769592,-0.14373 -0.073619,-0.0538 -0.1507696,-0.10219 -0.2261544,-0.15382 -0.5823261,-0.39826 -1.1323918,-0.83337 -1.6382969,-1.34404 -0.5659265,-0.56728 -1.0706582,-1.19976 -1.5930988,-1.81356 -0.4209487,-0.63397 -1.0112071,-1.0723 -1.534064,-1.58876 -0.4714632,-0.38428 -0.8007652,-0.92601 -1.1541932,-1.4338 -0.05695,-0.0676 -0.113904,-0.13524 -0.170857,-0.20284 0,0 1.0148017,-0.68284 1.0148017,-0.68284 l 0,0 c 0.058486,0.0711 0.116973,0.14219 0.1754603,0.21327 0.3490341,0.5014 0.6743032,1.03405 1.1381894,1.41577 0.5267034,0.51726 1.1157908,0.96366 1.5392185,1.59951 0.5159244,0.61609 1.0230405,1.24105 1.5884465,1.80402 0.5036553,0.50207 1.0502555,0.93327 1.6310609,1.32024 0.261369,0.17775 0.417958,0.28236 0.410864,0.29043 -0.9194821,1.04003 -0.671906,0.91256 -1.1283789,0.57144 -0.3756026,-0.33493 -0.7573402,-0.64916 -1.0260292,-1.1043 -0.2835997,-0.50179 -0.5228301,-1.0169 -0.6499971,-1.59762 -0.1296704,-0.53608 -0.3467907,-1.06128 -0.6918547,-1.46882 -0.4990091,-0.37487 -1.0846273,-0.45541 -1.674632,-0.52384 0,0 0.964611,-0.7765 0.964611,-0.7765 z"
       inkscape:connector-curvature="0" />
    <path
       style="fill:#ffffff;fill-opacity:1;stroke:none;stroke-opacity:1"
       id="path4174"
       d="m 13.715364,987.27931 c 0.494381,0.43134 1.063413,0.73803 1.570393,1.14692 0.466007,0.31073 0.785981,0.7968 1.096425,1.27842 0.306939,0.50489 0.399493,1.10995 0.569977,1.6783 0.09374,0.52627 0.260968,1.00386 0.497489,1.46855 0.182388,0.47934 0.38943,0.94658 0.516091,1.44932 0.212136,0.50368 0.325966,1.03304 0.390151,1.58136 0.004,0.46307 0.138631,0.87975 0.316006,1.29012 0,0 -1.034457,0.6501 -1.034457,0.6501 l 0,0 c -0.182672,-0.42233 -0.328312,-0.85179 -0.331694,-1.32871 -0.06055,-0.54308 -0.171107,-1.06638 -0.383618,-1.56388 -0.121186,-0.49359 -0.326653,-0.94994 -0.503261,-1.42054 -0.240135,-0.47195 -0.414685,-0.9564 -0.506849,-1.49181 -0.165989,-0.55612 -0.253592,-1.14921 -0.552026,-1.64374 -0.305678,-0.46913 -0.616531,-0.94148 -1.072949,-1.24454 -0.51206,-0.40392 -1.076315,-0.72312 -1.579359,-1.1437 0,0 1.007681,-0.70617 1.007681,-0.70617 z"
       inkscape:connector-curvature="0" />
    <ellipse
       style="fill:#ffffff;fill-opacity:1;stroke:none;stroke-opacity:1"
       id="path4176"
       cx="34.145218"
       cy="926.62103"
       rx="4.8177748"
       ry="3.5033534" />
    <ellipse
       style="fill:#ffffff;fill-opacity:1;stroke:none;stroke-opacity:1"
       id="path4178"
       cx="48.899647"
       cy="927.78888"
       rx="4.2155528"
       ry="3.6701798" />
    <path
       style="fill:none;fill-rule:evenodd;stroke:#000000;stroke-width:1.27732503px;stroke-linecap:butt;stroke-linejoin:miter;stroke-opacity:1"
       d="m 34.145216,926.12055 c 0.859906,0.19975 -0.385701,1.57454 0,2.00193 0.07097,0.0787 0.230138,-0.0787 0.301111,0 0.07097,0.0787 -0.07097,0.25499 0,0.33364 0.09817,0.10877 0.504054,-0.10878 0.602221,0 0.321776,0.35655 -0.428049,0.66731 0.301111,0.66731 0.301111,0 0.903334,-0.33365 0.903334,0 0,0.1112 -0.301112,0.1112 -0.301112,0 0,-0.15729 0.237632,-0.19297 0.301112,-0.33365 0.125032,-0.27709 0,-1.01831 0,-1.33462 0,-0.22243 -0.200742,-0.88973 -0.301112,-1.00095 -0.141944,-0.15729 -0.602222,0.22243 -0.602222,0 0,-0.1112 0.398484,0.027 0.301111,0 -0.496509,-0.13754 -1.047795,-0.58727 -1.505554,-0.33366 -3.050053,1.68984 -0.05413,1.27463 0,1.33461 0.141945,0.15729 -0.141946,0.51003 0,0.66732 0.07097,0.0787 0.230138,-0.0787 0.301111,0 0.07097,0.0787 -0.07097,0.25499 0,0.33364 0.06104,0.0676 1.444518,0.0676 1.505554,0 0.07429,-0.0823 0.07429,-1.9196 0,-2.00191 -0.07097,-0.0787 -0.230138,0.0787 -0.301111,0 -0.07097,-0.0787 0.07097,-0.25502 0,-0.33366 -0.07097,-0.0787 -0.20074,0 -0.301111,0 -0.40148,0 -0.963554,-0.3559 -1.204443,0 -0.248302,0.36685 0.702592,1.2234 0.301111,1.33461 -0.401482,0.1112 -0.301111,-1.79317 -0.301111,-1.33461 0,0.5671 0.216973,1.10888 0.301111,1.66827 0.0165,0.10972 -0.07097,0.25501 0,0.33366 0.09817,0.10877 0.504054,-0.10878 0.602221,0 0.07097,0.0787 -0.07097,0.25499 0,0.33364 0.07097,0.0787 0.301111,-0.1112 0.301111,0 0,0.1112 -0.301111,0.1112 -0.301111,0 0,-0.15728 0.237631,-0.19297 0.301111,-0.33364 0.04178,-0.0927 0.0553,-1.28867 0,-1.33462 -0.359095,-0.29843 -1.003703,-1.11218 -1.204443,-0.66731 -0.224435,0.49738 0.645132,0.85777 0.903332,1.33461 0.0254,0.0469 -0.133745,1.14916 0.301111,0.66732 0.07097,-0.0787 0.07097,-0.25502 0,-0.33366 -0.07097,-0.0787 -0.230138,0.0787 -0.301111,0 -0.07097,-0.0787 0.07097,-0.25501 0,-0.33366 -0.07097,-0.0787 -0.20074,0 -0.301111,0 -0.20074,-0.44486 -0.401481,-0.88973 -0.602221,-1.33461 z"
       id="path4180"
       inkscape:connector-curvature="0" />
    <path
       style="fill:none;fill-rule:evenodd;stroke:#000000;stroke-width:1.27732503px;stroke-linecap:butt;stroke-linejoin:miter;stroke-opacity:1"
       d="m 48.598539,927.12151 c -0.678345,1.39998 -0.89944,2.3442 -0.301111,3.67018 0.04489,0.0995 -0.07097,0.25501 0,0.33365 0.117328,0.13003 1.020694,0 1.204445,0 0.123987,0 0.823627,0.0883 0.903332,0 0.07429,-0.0823 0.07429,-1.91959 0,-2.00191 -0.07097,-0.0787 -0.230138,0.0787 -0.30111,0 -0.141946,-0.15729 0.141944,-0.51002 0,-0.66731 -0.141946,-0.15728 -0.460278,0.15729 -0.602222,0 -0.354863,-0.39321 -0.401482,-1.33461 -0.903334,-1.33461 -0.448868,0 -0.51419,0.84689 -0.602221,1.33461 -0.104429,0.57858 0.496111,0.21607 0.602221,0.33366 0.07097,0.0787 -0.07097,0.25501 0,0.33365 0.07097,0.0787 0.23014,-0.0787 0.301112,0 0.10017,0.11106 -0.100169,0.55631 0,0.6673 0.367816,0.40757 0.602222,-0.12504 0.602222,0.33366 0,0.11119 -0.301111,0.11119 -0.301111,0 0,-0.15729 0.237631,-0.19298 0.301111,-0.33366 0.06301,-0.13963 0.07123,-1.20307 0,-1.33461 -0.258201,-0.47684 -1.304814,-1.00096 -0.903334,-1.33461 0.408812,-0.33974 1.312597,2.21574 0.903334,2.66922 -0.548923,0.60825 -1.806666,-0.96866 -1.806666,0.66732 0,0.11119 -0.07097,0.25499 0,0.33364 0.0872,0.0967 2.02058,0.0967 2.107777,0 0.117278,-0.12989 -0.10523,-4.00383 0,-4.00383 0.100375,0 0,0.22244 0,0.33365 0,0.33365 0,0.66731 0,1.00097 0,0.26125 -0.150248,1.50177 0,1.66825 0.07097,0.0787 0.230138,-0.0787 0.301111,0 0.04624,0.0512 0.155184,2.49727 0.903332,1.66827 0.117327,-0.13002 0,-1.131 0,-1.33461 0,-0.26125 0.150248,-1.50179 0,-1.66827 -0.07097,-0.0787 -0.230138,0.0787 -0.301111,0 -0.401481,-0.44487 0.501851,-0.33364 -0.301111,-0.33364 -0.20074,0 -0.430088,0.11442 -0.602221,0 -0.430335,-0.28612 -0.802963,-0.66732 -1.204445,-1.00097 z"
       id="path4182"
       inkscape:connector-curvature="0" />
    <path
       style="fill:none;fill-rule:evenodd;stroke:#000000;stroke-width:1.27732503px;stroke-linecap:butt;stroke-linejoin:miter;stroke-opacity:1"
       d="m 32.940772,934.46187 c -0.350553,2.61101 1.123356,0.2438 1.505555,0.6673 0.07097,0.0787 -0.07097,0.25501 0,0.33366 0.150556,0.16683 0.752777,-0.16682 0.903332,0 0.150556,0.16683 0.150556,0.50048 0.301111,0.6673 0.150857,0.16717 1.007041,0.11496 1.204444,0.33365 0.07097,0.0787 -0.07097,0.25502 0,0.33366 0.07097,0.0787 0.211338,-0.0498 0.301111,0 0.253919,0.14068 0.348303,0.52663 0.602222,0.6673 0.181803,0.10071 0.76414,-0.15424 0.903332,0 0.07097,0.0787 -0.07097,0.25501 0,0.33366 0.150556,0.16682 0.752778,-0.16682 0.903333,0 0.07097,0.0787 -0.07097,0.25501 0,0.33365 0.150556,0.16683 0.752778,-0.16683 0.903334,0 0.07097,0.0787 -0.07097,0.25502 0,0.33366 0.274494,0.30416 2.278707,0 2.709997,0 0.958312,0 1.290349,0.11926 2.107777,-0.33366 0.08977,-0.0498 0.230138,0.0787 0.301111,0 0.07097,-0.0787 -0.07097,-0.25501 0,-0.33365 0.623009,-0.69034 -0.02435,1.05492 0.602222,-0.33366 0.08977,-0.19894 -0.141946,-0.51001 0,-0.6673 0.07097,-0.0787 0.230138,0.0787 0.30111,0 0.197402,-0.21874 0.150254,-1.16745 0.301111,-1.33461 0.07097,-0.0787 0.230138,0.0787 0.301111,0 0.141946,-0.15729 -0.08977,-0.46836 0,-0.6673 0.626575,-1.38859 -0.02079,0.35669 0.602222,-0.33366 0.401481,-0.44487 -0.501851,-0.33366 0.301111,-0.33366"
       id="path4184"
       inkscape:connector-curvature="0" />
    <path
       style="fill:#ff00ff;fill-opacity:1;stroke:none;stroke-opacity:1"
       id="path4186"
       d="m 54.068019,919.92976 c 0.631662,0.62482 1.232473,1.29578 1.788243,2.00403 0.412933,0.52405 0.854018,1.02031 1.267492,1.54324 0.228262,0.41152 0.534915,0.76757 0.914811,1.00623 0.436788,0.21174 0.875334,0.41625 1.321679,0.60464 0.438144,0.28911 0.92097,0.46319 1.387321,0.68419 0.534692,0.18239 1.004238,0.52378 1.474928,0.84788 0.465042,0.21802 0.821882,0.55736 1.160592,0.95797 0.313163,0.38512 0.561966,0.82358 0.843323,1.23541 0.157219,0.22851 0.267592,0.48961 0.39058,0.74109 0,0 -1.028848,0.65448 -1.028848,0.65448 l 0,0 c -0.121361,-0.24519 -0.229393,-0.50029 -0.382892,-0.72378 -0.277105,-0.4099 -0.529198,-0.83962 -0.838656,-1.2223 -0.330284,-0.39352 -0.692863,-0.70729 -1.140779,-0.93112 -0.466159,-0.32438 -0.938224,-0.64419 -1.467138,-0.82955 -0.463912,-0.22199 -0.943278,-0.40024 -1.382985,-0.68114 -0.451066,-0.19307 -0.898464,-0.39206 -1.335695,-0.62102 -0.381137,-0.26064 -0.699369,-0.61817 -0.93323,-1.04258 -0.413175,-0.5224 -0.845488,-1.02626 -1.256086,-1.55156 -0.55397,-0.70808 -1.15521,-1.37756 -1.797926,-1.98672 0,0 1.015266,-0.68939 1.015266,-0.68939 z"
       inkscape:connector-curvature="0" />
    <path
       style="fill:#ff00ff;fill-opacity:1;stroke:none;stroke-opacity:1"
       id="path4188"
       d="m 56.733367,915.80122 c 0.781131,0.0233 1.510429,0.18212 2.205297,0.5813 0.568695,0.29239 1.088904,0.68026 1.640392,1.00604 0.384611,0.36437 0.800826,0.69754 1.258214,0.94042 0.186742,0.24184 0.459315,0.29746 0.694589,0.43726 0.233166,0.13855 0.378158,0.27823 0.636073,0.35946 0.47969,0.0733 0.967186,0.0547 1.450341,0.0526 0.649549,-0.004 1.298931,0.004 1.948522,-7.1e-4 0.645551,-0.007 1.291115,-0.009 1.936686,-0.0121 0.62018,0.13446 1.12689,0.49656 1.601965,0.94213 0.421804,0.472 0.842518,0.93319 1.348291,1.29337 0.427115,0.40156 0.856997,0.78301 1.180943,1.29408 0.344194,0.48124 0.692249,0.9552 0.984283,1.47906 0.35718,0.44446 0.548771,1.00428 0.773515,1.53573 0.216238,0.53613 0.459302,1.05862 0.665662,1.59942 0.172926,0.56728 0.2639,1.15724 0.403575,1.73551 0.150804,0.63987 0.188025,1.30073 0.2121,1.95854 -0.0078,0.76314 0.0011,1.52633 0.0059,2.28948 0.02306,0.64296 0.124177,1.28807 0.264175,1.9126 0.177753,0.69141 0.262587,1.40243 0.311124,2.11732 0.0365,0.67699 0.03575,1.35551 0.03643,2.03343 -4.81e-4,0.66734 -0.0018,1.33468 -0.0025,2.00201 0.0073,0.60519 -0.0688,1.24439 -0.223104,1.82613 -0.02889,0.33897 -0.178863,0.62472 -0.319141,0.91856 0,0 -11.266856,5.11048 -11.266856,5.11048 l 0,0 c 0.208522,-0.0688 0.379441,-0.15719 0.551277,-0.30887 0.0532,-0.14238 0.154386,-0.25994 0.200946,-0.40515 0.105278,-0.32832 0.04728,-0.73196 0.241498,-1.03621 3.7e-4,-0.66723 0.001,-1.33447 0.0027,-2.0017 0.0015,-0.65613 0.0051,-1.31235 -0.0062,-1.96839 -0.01732,-0.63349 -0.04627,-1.27008 -0.191788,-1.88642 -0.175161,-0.73216 -0.29594,-1.46874 -0.396403,-2.21923 0.0064,-0.74627 0.02063,-1.49337 -0.01189,-2.23911 -0.0093,-0.56205 -0.01552,-1.12857 -0.114209,-1.68201 -0.11399,-0.52832 -0.251364,-1.04331 -0.323512,-1.58085 -0.177094,-0.52953 -0.410634,-1.03909 -0.646456,-1.5384 -0.193798,-0.48456 -0.357778,-0.97823 -0.670431,-1.3898 -0.280651,-0.47465 -0.613276,-0.91183 -0.922085,-1.36388 -0.321312,-0.36034 -0.678268,-0.66935 -1.027079,-0.99559 -0.436813,-0.41902 -0.839394,-0.8857 -1.311074,-1.25341 -0.374145,-0.21774 -0.738611,-0.36009 -1.167401,-0.27533 -0.637778,-8.3e-4 -1.275553,-0.003 -1.91333,-0.004 -0.669121,-8.6e-4 -1.338785,0.0195 -2.007326,-0.0161 -0.604119,-0.0488 -1.209234,-0.13244 -1.74807,-0.4646 -0.456755,-0.29552 -0.908765,-0.59639 -1.3564,-0.90812 -0.442795,-0.30398 -0.876711,-0.61975 -1.299991,-0.9544 -0.465657,-0.33493 -0.948757,-0.65641 -1.470817,-0.8706 -0.673507,-0.17043 -1.359827,-0.17198 -2.045666,-0.0905 0,0 9.887256,-7.95986 9.887256,-7.95986 z"
       inkscape:connector-curvature="0" />
    <path
       style="fill:#ff00ff;fill-opacity:1;stroke:none;stroke-opacity:1"
       id="path4190"
       d="m 55.482878,934.21316 c 0.218728,-0.71696 0.274414,-1.47732 0.320079,-2.22762 0.05166,-0.77679 0.05326,-1.55495 0.04905,-2.33334 -0.0058,-0.69602 -0.01007,-1.39205 -0.01243,-2.08811 -0.0034,-0.64373 0.0012,-1.2875 -0.004,-1.93122 -0.0546,-0.5587 -0.275692,-1.08046 -0.463535,-1.59796 -0.248119,-0.54801 -0.535063,-1.06066 -0.841187,-1.57126 -0.340081,-0.5696 -0.725679,-1.08854 -1.037048,-1.68208 -0.230853,-0.54643 -0.553615,-1.02045 -0.889413,-1.48765 -0.462696,-0.41885 -0.86962,-0.89768 -1.252241,-1.40411 -0.443476,-0.61803 -0.678057,-1.37007 -0.980341,-2.07608 -0.26603,-0.62824 -0.566375,-1.23896 -0.817078,-1.87473 -0.172289,-0.38774 -0.335557,-0.72164 -0.725116,-0.84875 -0.407796,-0.3261 -0.832635,-0.5787 -1.331606,-0.67088 -0.548307,-0.0627 -1.100961,-0.0475 -1.651334,-0.0432 -0.60015,0.007 -1.200314,0.009 -1.800485,0.0121 -0.659243,9.5e-4 -1.318216,-0.0108 -1.977503,-0.008 -0.4255,0.0714 -0.891586,-0.0847 -1.313434,0.007 -0.168159,0.0366 -0.315681,0.14866 -0.477757,0.2103 -0.06707,0.0561 -0.128234,0.12208 -0.201187,0.16831 -0.267577,0.16946 -0.578531,0.27177 -0.85073,0.43562 -0.857732,0.51633 0.174255,-0.0386 -0.73853,0.43622 21.893494,-17.81049 12.941647,-8.20476 9.707302,-6.15151 -3.556034,2.25748 -7.11441,4.51041 -10.671926,6.765 -0.327602,0.20763 -0.575152,0.30497 -0.949497,0.36582 -0.46674,0.14403 -0.979076,0.0139 -1.446522,0.11482 -0.183555,0.0397 -0.348959,0.15007 -0.527615,0.2113 -0.558385,0.13851 -1.135088,0.12545 -1.704013,0.12733 -0.390308,0.0543 -0.807478,-0.0758 -1.195214,-0.005 -0.18608,0.0338 -0.35869,0.13029 -0.541799,0.18008 -0.593948,0.10581 -1.210826,0.0976 -1.703694,0.51729 3.411553,-2.14857 6.823106,-4.29717 10.234658,-6.44575 -0.358827,0.18387 -0.749825,0.4711 -0.965992,0.8466 -0.145331,0.39965 -0.465303,0.57295 -0.706977,0.85077 -0.185973,0.29956 -0.08272,0.16905 -0.303353,0.39764 -0.04321,0.0804 -0.07733,0.16773 -0.12964,0.24119 -0.295585,0.4151 -0.01165,-0.0869 -0.30206,0.29018 -0.174389,0.22641 -0.244937,0.51048 -0.41611,0.74358 -0.05261,0.29442 -0.308956,0.38487 -0.452502,0.59361 -0.162925,0.23693 -0.184259,0.47304 -0.39435,0.67643 -0.0282,0.043 -0.267059,0.41225 -0.300266,0.44265 -0.05412,0.0496 -0.131314,0.0567 -0.192174,0.0955 -3.553473,2.2642 -7.097698,4.54619 -10.649894,6.81285 -0.07936,0.0507 -0.323827,0.18949 -0.244465,0.13887 3.371711,-2.15065 6.747857,-4.29276 10.121786,-6.43914 -3.391662,1.99622 -7.676922,6.87441 -12.327725,7.07214 -0.130938,0.1536 -0.341595,0.11362 -0.490375,0.21802 -0.06818,0.0479 -0.100011,0.14234 -0.162603,0.1988 -0.05925,0.0534 -0.264727,0.16913 -0.19852,0.12693 10.321134,-6.58474 13.460002,-9.10451 10.083183,-6.40466 -0.218955,0.0497 -0.320762,0.24092 -0.512666,0.35382 0,0 -11.262645,5.19402 -11.262645,5.19402 l 0,0 c 0.161728,-0.31185 0.290606,-0.28591 0.42472,-0.60437 3.740506,-2.72499 7.322017,-6.78444 11.840042,-7.12769 0.394075,-0.10554 0.751863,-0.24683 1.105005,-0.47119 0.09228,-0.0586 0.364606,-0.24303 0.2724,-0.18425 -3.364752,2.14522 -6.726751,4.29574 -10.090125,6.4436 3.558673,-2.26465 7.115,-4.53385 10.676022,-6.79398 0.08683,-0.0551 0.353741,-0.20735 0.267261,-0.15155 -3.397783,2.19225 -6.791571,4.39225 -10.201538,6.56116 -0.06687,0.0425 0.09666,-0.14144 0.166256,-0.17824 0.129091,-0.0683 0.306192,0.0336 0.415604,-0.11832 0.04912,-0.0644 0.08418,-0.14628 0.147353,-0.19334 0.229937,-0.17124 0.192933,0.0683 0.359038,-0.22981 0.185874,-0.33364 -0.0045,-0.25544 0.242317,-0.53146 0.05356,-0.06 0.127306,-0.0925 0.190958,-0.13868 0.511231,-0.88693 -0.213416,0.30596 0.322255,-0.39294 0.215695,-0.28142 0.144026,-0.74829 0.504848,-0.90525 0.484576,-0.97164 -0.222265,0.37833 0.303473,-0.42861 0.05817,-0.0893 0.0762,-0.20475 0.130266,-0.29715 0.160424,-0.27414 0.400435,-0.29149 0.576972,-0.54173 0.222387,-0.26077 0.235963,-0.53295 0.445838,-0.79057 0.05974,-0.0733 0.150425,-0.11066 0.208693,-0.18539 0.06741,-0.0865 0.108603,-0.19433 0.16291,-0.2915 3.555233,-2.2521 7.110465,-4.5042 10.665698,-6.7563 0.616677,-0.0683 1.228169,-0.17841 1.839825,-0.29441 0.607091,-0.0624 1.222351,0.0261 1.831261,-0.0557 0.537242,-0.0547 1.063673,-0.16177 1.584594,-0.31881 0.627619,-0.098 1.276354,-0.062 1.856546,-0.41294 8.413246,-5.44455 -32.725901,21.01834 1.773123,-1.07454 0.646871,-0.36977 1.346028,-0.76352 2.077756,-0.83445 0.622852,-0.0433 1.255441,0.0739 1.882182,0.0268 0.666984,0.001 1.333607,-0.0108 2.000536,-0.0144 0.606172,-0.003 1.212586,-0.008 1.818536,0.0143 0.630631,0.034 1.266102,0.0912 1.860012,0.34914 0.528152,0.25374 1.022075,0.57813 1.504698,0.92433 0.498906,0.43388 0.883265,0.93826 1.12052,1.59704 0.207665,0.62919 0.476835,1.23714 0.748959,1.83419 0.249525,0.59398 0.463516,1.22086 0.80417,1.75507 0.420855,0.50627 0.922199,0.91187 1.325622,1.43538 0.364122,0.51609 0.694788,1.0555 0.948931,1.64946 0.311883,0.55933 0.683914,1.06313 0.993458,1.62392 0.360271,0.57946 0.706798,1.17091 0.987659,1.80325 0.23161,0.62609 0.501788,1.24784 0.606825,1.91937 0.118334,0.68357 0.05701,1.37916 0.06926,2.07314 -0.0012,0.70177 -0.0032,1.40353 -0.0097,2.10527 -0.0074,0.80138 -0.0058,1.60312 -0.0227,2.40407 -0.03619,0.78053 -0.106067,1.5581 -0.142352,2.33833 0,0 -10.994457,5.90744 -10.994457,5.90744 z"
       inkscape:connector-curvature="0" />
    <path
       style="fill:#ff00ff;fill-opacity:1;stroke:none;stroke-opacity:1"
       id="path4192"
       d="m 43.484487,909.12817 c 0.669053,0.0608 1.342153,0.0424 2.012906,0.0382 0.643898,-0.005 1.287806,-0.008 1.931719,-0.009 0.544523,0.007 1.140308,0.0928 1.51707,-0.41501 3.499186,-2.41135 2.528347,-1.73896 -10.079346,6.40884 -0.05658,0.0366 0.131493,-0.0108 0.194759,-0.029 0.224761,-0.0668 0.259266,-0.29609 0.386955,-0.48873 1.561247,-4.74826 7.071333,-7.65185 11.596307,-7.52112 0.59986,0.0172 1.199847,0.0276 1.799867,0.0346 0.396129,0.0551 0.816056,-0.0612 1.209969,0.007 0.205434,0.0354 0.398789,0.13056 0.598915,0.19292 0.524665,0.33835 1.040038,0.64932 1.4439,1.15825 0.338903,0.27394 0.501678,0.82258 0.906005,0.98808 0.17573,0.30213 0.417504,0.23098 0.664971,0.33241 0.152999,0.0627 0.287314,0.17313 0.438931,0.23985 0.563161,0.0819 1.04528,0.33078 1.493495,0.71448 0.564001,0.32399 0.878834,0.94382 1.191398,1.52789 -13.941281,10.13317 -7.918461,9.64944 -12.1938,4.25115 -0.322977,-0.30691 -0.796825,-1.1223 -1.320804,-1.04685 -0.168799,0.0243 -0.251931,0.25018 -0.322744,0.37546 -0.459724,0.43485 -1.087482,0.46416 -1.66453,0.50355 -0.61452,0.0259 -1.229697,0.0159 -1.84449,0.0121 -0.123086,0.14223 -0.324,0.10393 -0.461468,0.20698 -0.06538,0.0489 -0.220871,0.244 -0.152125,0.20104 3.4417,-2.15054 6.854042,-4.35827 10.28392,-6.53188 0.126583,-0.0803 -0.233335,0.19664 -0.332149,0.31546 -7.471301,5.7508 -7.062157,6.8921 -12.048007,6.82421 -0.56557,0.0575 -1.20887,-0.17196 -1.732239,0.10098 -0.144984,0.11079 -0.328118,0.0787 -0.483745,0.14624 -0.07753,0.0336 -0.135722,0.11079 -0.213554,0.14357 -0.295356,0.12437 -0.666051,0.13806 -0.976269,0.18102 -0.337744,-0.044 -0.577085,0.1818 -0.88474,0.27622 -0.09131,0.028 -0.191988,0.0219 -0.277877,0.0661 -0.07541,0.0389 -0.122146,0.12666 -0.192255,0.17633 -0.06802,0.0481 -0.145949,0.0765 -0.218924,0.11469 -0.08198,0.0219 -0.172151,0.0206 -0.245941,0.0659 -0.06719,0.0413 -0.09809,0.13352 -0.160334,0.18334 -0.269754,0.21611 -0.667371,0.19366 -0.981205,0.20756 -0.09427,10e-4 -0.191494,-0.0217 -0.282828,0.004 -0.152344,0.0433 -0.275694,0.17614 -0.427781,0.2205 -0.271481,0.0792 -0.484437,0.0635 -0.740883,0.20335 -0.577572,0.20759 -1.191056,0.21597 -1.79239,0.22981 -0.611243,0.007 -1.222528,2.6e-4 -1.833775,-0.003 -0.402192,-0.001 -0.804385,-0.003 -1.206579,-0.003 0,0 9.82086,-7.90353 9.82086,-7.90353 l 0,0 c 0.401491,8.7e-4 0.802986,0.003 1.204477,6e-4 0.593607,-0.004 1.188882,-0.007 1.779394,-0.0825 0.568543,-0.0893 1.114864,-0.25628 1.657803,-0.46234 0.3448,-0.0522 0.656623,-0.23125 0.998914,-0.27667 0.09039,-0.0121 0.18309,0.009 0.273038,-0.007 0.08271,-0.0143 0.159907,-0.055 0.23986,-0.0824 0.272918,-0.13452 0.52283,-0.38876 0.803611,-0.49026 0.07895,-0.0285 0.166663,-0.0175 0.245705,-0.0457 0.07459,-0.0266 0.140008,-0.078 0.210012,-0.11711 0.533526,-0.21538 1.118019,-0.23764 1.670544,-0.37502 0.58332,-0.1786 1.142929,-0.43431 1.758065,-0.43469 0.588296,0.0784 1.18514,0.0325 1.774688,-0.0168 0.336942,-0.0522 0.680619,-0.10596 0.969901,-0.32234 0.06276,-0.0469 0.240803,-0.20209 0.175213,-0.16018 -3.416932,2.18351 -6.821276,4.39111 -10.231913,6.58667 0.684705,-0.28864 -0.299154,0.16137 0.350702,-0.2605 1.807896,-1.17364 7.168014,-7.31863 11.474773,-6.79416 0.582439,-0.0137 1.16954,-0.0302 1.739739,-0.17654 0.56149,-0.16786 1.082385,-0.51332 1.669848,-0.5301 0.9246,0.34711 1.568628,1.15066 2.161301,1.984 0.385448,0.5589 0.746767,1.15553 1.170397,1.68032 0.111102,0.13763 0.223037,0.27803 0.357134,0.38767 0.07028,0.0574 0.318364,0.0526 0.244562,0.10433 -3.441457,2.41407 -6.956893,4.69615 -10.435341,7.04421 -0.09205,-0.45233 -0.44007,-0.68976 -0.779568,-0.90084 -0.468165,-0.2074 -0.977318,-0.26813 -1.426284,-0.53257 -0.446985,-0.23195 -0.897341,-0.42997 -1.259553,-0.82504 -0.353385,-0.3673 -0.646631,-0.79286 -0.989048,-1.17227 -0.296155,-0.23926 -0.674699,-0.48027 -1.04351,-0.4967 -0.542356,-0.0608 -1.09955,0.0387 -1.646127,-0.005 -0.571023,0.004 -1.151654,-0.005 -1.709151,0.15015 -0.304345,0.12814 -0.162451,0.0473 -0.427049,0.23933 3.419657,-2.17403 6.839314,-4.34805 10.258971,-6.52207 0.124874,-0.0813 -0.300793,-0.0319 -0.433567,0.0323 -0.05846,0.0282 -0.100861,0.0865 -0.151294,0.12975 -0.02826,0.0866 -0.04677,0.17784 -0.08479,0.25967 -0.03176,0.0683 -0.09927,0.11402 -0.122492,0.18644 -0.01745,0.0544 -0.06492,0.62641 -0.138796,0.67562 -9.830549,6.54931 -6.745268,5.42918 -10.84579,6.89242 -0.585742,-0.0229 -1.169743,-0.0305 -1.75785,-0.0329 -0.635744,-0.001 -1.271483,-0.004 -1.907213,-0.009 -0.702493,-0.004 -1.406614,-0.0191 -2.107729,0.0382 0,0 9.887255,-7.95985 9.887255,-7.95985 z"
       inkscape:connector-curvature="0" />
    <path
       style="fill:#ff00ff;fill-opacity:1;stroke:none;stroke-opacity:1"
       id="path4194"
       d="m 38.894019,918.502 c -0.168581,0.72595 -0.400246,1.42696 -0.614532,2.13663 -0.195602,0.56475 -0.559555,1.02615 -1.005577,1.36589 0,0 -0.553095,0.23952 -0.553095,0.23952 l 0,0 c 0.451917,-0.318 0.817966,-0.77521 1.023191,-1.32672 0.211441,-0.7076 0.449715,-1.40258 0.613697,-2.12715 0,0 0.536316,-0.28817 0.536316,-0.28817 z"
       inkscape:connector-curvature="0" />
    <path
       style="fill:#ff00ff;fill-opacity:1;stroke:none;stroke-opacity:1"
       id="path4196"
       d="m 44.347468,918.16249 c 0.0357,0.77076 -0.03821,1.5277 -0.137063,2.28865 -0.06264,0.57043 -0.105896,1.13587 -0.228438,1.69494 0,0 -0.534922,0.28416 -0.534922,0.28416 l 0,0 c 0.126161,-0.55758 0.17469,-1.11986 0.233584,-1.69054 0.09931,-0.75721 0.181249,-1.50981 0.135655,-2.27731 0,0 0.531184,-0.2999 0.531184,-0.2999 z"
       inkscape:connector-curvature="0" />
    <path
       style="fill:#ff00ff;fill-opacity:1;stroke:none;stroke-opacity:1"
       id="path4198"
       d="m 47.960799,918.16249 c -0.0039,0.76147 -0.0028,1.52294 -0.0025,2.28442 0.0092,0.35615 0.004,0.70616 -0.03341,1.05963 0,0 -0.531315,0.29071 -0.531315,0.29071 l 0,0 c 0.0431,-0.35139 0.04819,-0.69838 0.03864,-1.05331 2.89e-4,-0.76052 0.0015,-1.52104 -0.0025,-2.28155 0,0 0.531185,-0.2999 0.531185,-0.2999 z"
       inkscape:connector-curvature="0" />
    <path
       style="fill:#ff00ff;fill-opacity:1;stroke:none;stroke-opacity:1"
       id="path4200"
       d="m 42.239692,917.16153 c -0.0041,0.77486 -0.0024,1.54976 -0.003,2.32464 -5.8e-5,0.57129 -9.1e-5,0.28733 9.1e-5,0.85189 0,0 -0.525193,0.29652 -0.525193,0.29652 l 0,0 c 1.82e-4,-0.56469 1.5e-4,-0.28069 9.2e-5,-0.852 -7.1e-4,-0.77371 10e-4,-1.54743 -0.003,-2.32114 0,0 0.531185,-0.29991 0.531185,-0.29991 z"
       inkscape:connector-curvature="0" />
    <path
       style="fill:#ff00ff;fill-opacity:1;stroke:none;stroke-opacity:1"
       id="path4202"
       d="m 46.488487,917.48944 c 0.127435,0.75578 0.188958,1.52185 0.230639,2.28845 0.01813,0.36548 0.02448,0.73142 0.03087,1.09731 0,0 -0.526461,0.2986 -0.526461,0.2986 l 0,0 c -0.0058,-0.36526 -0.01165,-0.73058 -0.02889,-1.09545 -0.03993,-0.76308 -0.09779,-1.52656 -0.231793,-2.27752 0,0 0.525633,-0.31139 0.525633,-0.31139 z"
       inkscape:connector-curvature="0" />
    <path
       style="fill:#ff00ff;fill-opacity:1;stroke:none;stroke-opacity:1"
       id="path4204"
       d="m 35.01303,917.82884 c -0.01031,0.733 -0.02631,1.45955 0.08163,2.18425 0.04427,0.57221 0.204446,1.11782 0.29813,1.67759 -2e-4,-0.004 -4.01e-4,-0.007 -6.02e-4,-0.0108 0,0 -0.515902,0.3437 -0.515902,0.3437 l 0,0 c -0.0034,-0.008 -0.0068,-0.0155 -0.01031,-0.0231 -0.07972,-0.56156 -0.257835,-1.10701 -0.294344,-1.68025 -0.109039,-0.72744 -0.09407,-1.45575 -0.08984,-2.1917 0,0 0.531185,-0.2999 0.531185,-0.2999 z"
       inkscape:connector-curvature="0" />
    <path
       style="fill:#ff00ff;fill-opacity:1;stroke:none;stroke-opacity:1"
       id="path4206"
       d="m 32.269579,919.50297 c -0.135176,0.7518 -0.194512,1.51619 -0.235551,2.28028 -0.03236,0.7077 -0.03441,1.41646 -0.03597,2.12488 0,0 -0.527473,0.29762 -0.527473,0.29762 l 0,0 c 0.0016,-0.70976 0.0036,-1.41987 0.03578,-2.12893 0.04058,-0.76559 0.100643,-1.53075 0.226881,-2.28569 0,0 0.536315,-0.28816 0.536315,-0.28816 z"
       inkscape:connector-curvature="0" />
    <path
       style="fill:none;fill-rule:evenodd;stroke:#000000;stroke-width:1.27732503px;stroke-linecap:butt;stroke-linejoin:miter;stroke-opacity:1"
       d="m 36.252993,1033.5568 c 0.0022,-0.6133 -0.08217,-3.7613 -0.301112,-4.0039 -0.401481,-0.4449 -0.802962,-0.8897 -1.204444,-1.3346 -0.150554,-0.1669 0.150556,-0.834 0,-1.0009 -0.30111,-0.3337 -0.602221,-0.6673 -0.903332,-1.001 -0.20074,-0.2224 0.20074,-1.1121 0,-1.3347 -0.150556,-0.1667 -0.451667,-0.1667 -0.602222,-0.3336 -0.528208,-0.5853 -0.284927,-3.9858 -0.602221,-4.3374 -0.989534,-1.0965 -0.751611,-5.1703 -0.903334,-5.3385 -1.151694,-1.2762 -0.602222,-9.1852 -0.602222,-11.6778 0,-0.6227 -0.06428,-0.4761 -0.301111,-1.0011 -0.253891,-0.5625 0.385977,-2.24136 0,-2.66907 -0.250925,-0.27806 -0.05019,-1.05657 -0.30111,-1.33463 -0.150555,-0.16686 -0.451666,-0.16686 -0.602222,-0.33372 -0.181477,-0.20101 -0.301111,-3.40393 -0.301111,-4.00375 0,-0.12235 -0.835716,-3.33656 -0.602221,-3.33656 0.100375,0 -0.07097,0.25493 0,0.33359 0.09894,0.11025 0.503274,-0.11026 0.602221,0 0.202712,0.22468 0.158818,0.42166 0.602222,0.66731 0.796493,0.44129 1.89246,0.21433 2.709998,0.66731 0.380158,0.2107 1.517602,-0.32027 1.806665,0 1.085299,1.20259 7.759049,0.66732 9.936661,0.66732 1.263144,0 11.086329,-1.39527 11.743325,-0.66732 0.180749,0.20035 -0.552872,2.61453 -0.602221,2.66926 -0.197402,0.21876 -0.752476,0.50018 -0.903333,0.66731 -0.49135,0.54442 -2.709999,8.84705 -2.709999,9.67595 0,0.6547 -0.68684,1.9495 -0.903332,2.6691 -0.20402,0.6782 0.105193,1.8854 -0.301111,2.3357 -0.623009,0.6903 0.02435,-1.0549 -0.602222,0.3336 -0.160592,0.3559 0.160593,0.9787 0,1.3346 -0.58796,1.3031 -0.637775,2.0808 -1.204443,3.3366 -0.125352,0.2778 0.190998,1.123 0,1.3346 -0.07097,0.079 -0.256224,-0.099 -0.301111,0 -0.200741,0.4448 0.20074,1.2233 0,1.6682 -0.755588,1.6746 -0.191551,4.0947 -0.602223,5.0048 -0.444457,0.9851 -0.750818,1.9977 -1.204443,3.0029 -0.222013,0.4921 0.02568,1.9735 -0.301111,2.3356 -0.141945,0.1572 -0.460276,-0.1573 -0.602221,0 -0.365078,0.4045 -0.294172,1.6606 -0.602222,2.0018 -0.623009,0.6905 0.02435,-1.0548 -0.602222,0.3338 -0.09125,0.2022 -0.174932,0.8612 -0.301111,1.0009 -0.141945,0.1573 -0.460277,-0.1572 -0.602222,0 -0.150555,0.1668 0.150556,0.8341 0,1.001 -0.758887,0.8409 -1.07443,3.1924 -1.806665,4.0037 -0.250926,0.2781 0.250925,1.3903 0,1.6684 -0.33678,0.3731 -0.903333,1.7953 -0.903333,2.6692 0,0.1116 0.100376,0.3336 0,0.3336 -0.100375,0 0.100376,-0.3336 0,-0.3336 -0.317399,0 -0.903332,0.6854 -0.903332,0.3336 0,-0.4258 0.242315,0.6673 0,0.6673 -0.100376,0 0,-0.4449 0,-0.3335 0,2.5854 0.37349,5.5116 -0.602223,7.6739 -0.157953,0.3501 0.240336,1.4019 0,1.6683 -0.07097,0.078 -0.301111,0.1116 -0.301111,0 0,-0.1573 0.443056,-0.3337 0.301111,-0.3337 -1.087786,0 -0.811601,0.9722 -1.204444,-0.3336 -0.04489,-0.1493 -0.20074,-0.2225 -0.30111,-0.3337 -0.100376,-0.3336 -0.238864,-0.6561 -0.301111,-1.0009 -0.07445,-0.4126 -0.05099,-2.0584 -0.301111,-2.3356 -0.07097,-0.078 -0.256225,0.1 -0.301111,0 -0.542768,-1.2028 0.303571,-6.6676 -0.301111,-8.0077 -0.726521,-1.61 -0.903332,-3.4105 -0.903332,-5.3384 z"
       id="path4208"
       inkscape:connector-curvature="0" />
    <path
       style="fill:#000000;fill-opacity:1;stroke:none;stroke-opacity:1"
       d="m 38.735025,1048.2447 c -0.122132,-0.9633 -0.346693,-1.8367 -0.499024,-1.941 -0.152333,-0.1049 -0.257941,-1.8054 -0.234685,-3.7802 0.02753,-2.3381 -0.09034,-3.8651 -0.337922,-4.3777 -0.209114,-0.4329 -0.492838,-2.5833 -0.630496,-4.7786 -0.207834,-3.3142 -0.354126,-4.1137 -0.862455,-4.7133 -0.336692,-0.3971 -0.612166,-0.9568 -0.612166,-1.2436 0,-0.2868 -0.203251,-0.7084 -0.451667,-0.9369 -0.248416,-0.2284 -0.451667,-0.7539 -0.451667,-1.1677 0,-0.4139 -0.194684,-0.9315 -0.432631,-1.1503 -0.237948,-0.2188 -0.525933,-1.2507 -0.639967,-2.293 -0.114039,-1.0424 -0.348822,-2.1955 -0.521753,-2.5625 -0.172932,-0.367 -0.418329,-1.6433 -0.545328,-2.836 -0.127,-1.1928 -0.381331,-2.9945 -0.565182,-4.0039 -0.196838,-1.0805 -0.263321,-3.2754 -0.1617,-5.3384 0.197434,-4.008 -0.2299,-8.84917 -0.850894,-9.63938 -0.232072,-0.2954 -0.492112,-1.56267 -0.577867,-2.81621 l -0.155917,-2.27933 0.795343,0.22912 c 0.437438,0.12639 1.351251,0.2712 2.030694,0.32256 0.679443,0.0511 1.5169,0.19268 1.861017,0.31369 0.645499,0.22696 0.703522,0.41709 1.279822,4.1936 1.552195,10.17145 4.439992,15.11855 7.102907,12.16775 1.59253,-1.7646 3.29884,-7.3503 4.084355,-13.37034 0.416671,-3.19323 0.01471,-2.94059 5.294066,-3.32823 2.941512,-0.21607 3.082227,-0.19658 2.89169,0.40015 -0.110156,0.34501 -0.511497,1.00265 -0.89187,1.46142 -0.809282,0.97616 -3.453095,9.8549 -3.94573,13.2511 -0.08558,0.59 -0.344578,1.2464 -0.575554,1.4588 -0.230975,0.2125 -0.419955,0.7416 -0.419955,1.1759 0,0.4344 -0.260664,1.5499 -0.579254,2.479 -0.318591,0.9291 -0.798206,3.3704 -1.065812,5.4253 -0.267606,2.0549 -0.694046,4.412 -0.947646,5.2377 -0.2536,0.8258 -0.603466,2.0645 -0.777481,2.7526 -0.174015,0.6882 -0.422154,1.2513 -0.551419,1.2513 -0.129265,0 -0.381826,0.4129 -0.561245,0.9175 -0.430402,1.2105 -0.999413,2.1896 -1.464083,2.5189 -0.207014,0.1469 -0.376389,0.4822 -0.376389,0.7455 0,0.2632 -0.406499,1.4084 -0.903333,2.545 -0.496832,1.1364 -0.903332,2.376 -0.903332,2.7543 0,1.0487 -1.004847,3.5286 -1.430278,3.53 -0.27506,10e-4 -0.382555,0.9219 -0.399296,3.4211 -0.0126,1.8811 -0.196367,3.9455 -0.408372,4.5878 l -0.385466,1.1678 -0.222058,-1.7513 z"
       id="path4210"
       inkscape:connector-curvature="0" />
    <path
       style="fill:#000000;fill-opacity:1;stroke:none;stroke-opacity:1"
       d="m 40.17403,1009.3895 c -1.502027,-1.8134 -2.859715,-5.959 -3.856999,-11.77699 -0.762123,-4.44611 -1.361968,-4.00348 5.429042,-4.00603 l 5.88482,0 -0.190791,1.33678 c -0.826558,5.79164 -2.381411,11.53064 -3.706817,13.68204 -1.033215,1.6771 -2.53682,2.0008 -3.559255,0.7665 z"
       id="path4212"
       inkscape:connector-curvature="0" />
    <path
       sodipodi:type="star"
       style="fill:#000080;fill-opacity:1;stroke:none;stroke-opacity:1"
       id="path4312"
       sodipodi:sides="5"
       sodipodi:cx="11.343414"
       sodipodi:cy="973.76129"
       sodipodi:r1="0.49629414"
       sodipodi:r2="0.40151039"
       sodipodi:arg1="0"
       sodipodi:arg2="0.62831853"
       inkscape:flatsided="true"
       inkscape:rounded="0"
       inkscape:randomized="0"
       d="m 11.839708,973.76129 -0.34293,0.47201 -0.554874,-0.18029 0,-0.58343 0.554874,-0.18029 z"
       inkscape:transform-center-x="-0.057506634"
       transform="matrix(1.2134373,0,0,1.3445764,0.80848474,-362.48947)"
       inkscape:transform-center-y="-2.5507044e-005" />
    <path
       sodipodi:type="star"
       style="fill:#000080;fill-opacity:1;stroke:none;stroke-opacity:1"
       id="path4318"
       sodipodi:sides="5"
       sodipodi:cx="48.813622"
       sodipodi:cy="954.40582"
       sodipodi:r1="5.3452516"
       sodipodi:r2="2.6726258"
       sodipodi:arg1="0.38050638"
       sodipodi:arg2="1.0088249"
       inkscape:flatsided="false"
       inkscape:rounded="0"
       inkscape:randomized="0"
       d="m 53.776563,956.391 -3.538818,0.27642 -1.778505,3.07189 -1.356443,-3.28019 -3.471137,-0.7422 2.700491,-2.30369 -0.366776,-3.53059 3.025437,1.85644 3.244458,-1.43984 -0.830668,3.45103 z"
       inkscape:transform-center-x="0.13288442"
       inkscape:transform-center-y="0.5447339"
       transform="matrix(1.2134373,0,0,1.3445764,0.80848474,-362.48947)" />
    <path
       style="fill:#800000;fill-opacity:1;stroke:none;stroke-opacity:1"
       id="path4320"
       d="m 15.57122,977.7799 c 0.540275,0.40894 1.091516,0.80868 1.574036,1.30083 0.295795,0.28717 0.60948,0.55336 0.928977,0.8077 0,0 -0.500876,0.35237 -0.500876,0.35237 l 0,0 c -0.319424,-0.25793 -0.634747,-0.52504 -0.93026,-0.8158 -0.483007,-0.48929 -1.034224,-0.88755 -1.575718,-1.29199 0,0 0.503841,-0.35311 0.503841,-0.35311 z"
       inkscape:connector-curvature="0" />
    <path
       style="fill:none;fill-rule:evenodd;stroke:#000000;stroke-width:1.27732503px;stroke-linecap:butt;stroke-linejoin:miter;stroke-opacity:1"
       d="m 17.474772,977.80234 c 0.131347,0.28348 1.186715,-0.23001 1.394298,0 0.05362,0.0594 0.05362,0.17827 0.107256,0.23768 0.06477,0.0718 0,0.60037 0,0.71309 0,0.53725 -0.0017,1.07052 -0.429015,1.30729 -0.180869,0.10017 -0.720547,-0.15234 -0.85803,0 -0.301026,0.33355 -1.33622,0.23768 -1.608805,0.23768 -0.08398,0 -0.482752,0.0593 -0.536269,0 -0.03106,-0.0344 -0.03106,-0.7975 0,-0.83192 0.119972,-0.13298 0.140768,-0.39366 0.214508,-0.47537 0.05056,-0.0561 0.163947,0.0561 0.214507,0 0.04314,-0.0479 0.169722,-0.49497 0.214507,-0.59423 0.147061,-0.32591 -0.223536,-1.29728 0,-1.54498 0.04084,-0.0453 1.038178,-1.22652 1.394299,-0.83192 0.1087,0.12048 0,0.99921 0,1.18846 0,0.3257 -0.107256,0.61643 -0.107256,0.95075"
       id="path4322"
       inkscape:connector-curvature="0" />
  </g>
</svg>
