<?xml version="1.0" encoding="UTF-8" standalone="no"?>
<!-- Created with Inkscape (http://www.inkscape.org/) -->

<svg
   xmlns:dc="http://purl.org/dc/elements/1.1/"
   xmlns:cc="http://creativecommons.org/ns#"
   xmlns:rdf="http://www.w3.org/1999/02/22-rdf-syntax-ns#"
   xmlns:svg="http://www.w3.org/2000/svg"
   xmlns="http://www.w3.org/2000/svg"
   xmlns:sodipodi="http://sodipodi.sourceforge.net/DTD/sodipodi-0.dtd"
   xmlns:inkscape="http://www.inkscape.org/namespaces/inkscape"
   width="50mm"
   height="50mm"
   viewBox="0 0 177.16535 177.16535"
   id="svg4701"
   version="1.1"
   inkscape:version="0.91 r13725"
   sodipodi:docname="sund.svg">
  <defs
     id="defs4703" />
  <sodipodi:namedview
     id="base"
     pagecolor="#ffffff"
     bordercolor="#666666"
     borderopacity="1.0"
     inkscape:pageopacity="0.0"
     inkscape:pageshadow="2"
     inkscape:zoom="2.03"
     inkscape:cx="115.09433"
     inkscape:cy="126.86363"
     inkscape:document-units="px"
     inkscape:current-layer="layer1"
     showgrid="false"
     inkscape:window-width="1024"
     inkscape:window-height="697"
     inkscape:window-x="-4"
     inkscape:window-y="-4"
     inkscape:window-maximized="1" />
  <metadata
     id="metadata4706">
    <rdf:RDF>
      <cc:Work
         rdf:about="">
        <dc:format>image/svg+xml</dc:format>
        <dc:type
           rdf:resource="http://purl.org/dc/dcmitype/StillImage" />
        <dc:title></dc:title>
      </cc:Work>
    </rdf:RDF>
  </metadata>
  <g
     inkscape:label="Layer 1"
     inkscape:groupmode="layer"
     id="layer1"
     transform="translate(0,-875.19685)">
    <rect
       style="fill:#aa4400;fill-opacity:1;stroke:none;stroke-opacity:1"
       id="rect4709"
       width="118.2266"
       height="45.812805"
       x="25.123152"
       y="884.87451" />
    <rect
       style="fill:#aa4400;fill-opacity:1;stroke:none;stroke-opacity:1"
       id="rect4711"
       width="118.71922"
       height="107.38916"
       x="25.123152"
       y="933.64294" />
    <ellipse
       style="fill:#ffd42a;fill-opacity:1;stroke:none;stroke-opacity:1"
       id="path4715"
       cx="81.280777"
       cy="933.39673"
       rx="16.748768"
       ry="14.532021" />
    <ellipse
       style="fill:#000000;fill-opacity:1;stroke:none;stroke-opacity:1"
       id="path4719"
       cx="79.556641"
       cy="936.84497"
       rx="1.7241381"
       ry="5.6650248" />
    <rect
       style="fill:#000000;fill-opacity:1;stroke:none;stroke-opacity:1"
       id="rect4721"
       width="7.8817735"
       height="4.4334974"
       x="75.862068"
       y="928.71692" />
    <path
       style="fill:#ffff00;fill-opacity:1;stroke:none;stroke-opacity:1"
       id="path4723"
       d="m 25.819188,886.20128 c 1.074764,0.46232 2.080169,1.05205 3.01605,1.75291 0.850153,0.49758 1.291482,1.19786 1.516364,2.13247 0.132093,0.91647 0.330499,1.8187 0.632559,2.69341 0.305001,0.71386 0.830142,1.26708 1.330379,1.8435 0.712218,0.77113 1.075867,1.69075 1.436618,2.65587 0.243861,0.97108 0.727884,1.58983 1.668286,1.91461 0.858847,0.29194 1.612116,0.66805 2.21687,1.35482 0.585435,1.06031 0.985957,2.17209 1.826035,3.06856 0.166016,0.14643 0.32062,0.30692 0.498047,0.4393 0.474292,0.35387 0.73163,0.42238 1.253792,0.7146 0.817432,0.45746 1.59119,0.99801 2.377376,1.50579 1.531609,1.1028 2.920492,2.38212 4.431186,3.51266 1.601283,1.09771 3.031253,2.39935 4.275318,3.88606 0.843629,1.05397 1.468375,2.28999 2.470696,3.20593 0.781879,0.69488 1.743494,1.089 2.689238,1.49811 1.038619,0.45313 1.967025,1.0472 2.810269,1.80117 1.442874,1.22876 2.743422,2.60617 4.102329,3.9242 1.379866,1.2375 2.754371,2.47816 4.049574,3.80473 0.943815,0.85387 1.665136,1.89076 2.42982,2.89509 0.320171,0.35405 0.581169,0.75182 0.900424,1.10639 0.06306,0.07 0.248596,0.18587 0.165079,0.22952 -0.312429,0.16332 -0.64926,0.27495 -0.973889,0.41243 -0.03273,0.01 -0.128426,0.0454 -0.0982,0.0295 0.247552,-0.13051 0.482025,-0.29902 0.751653,-0.37395 0.0562,-0.0156 -0.03424,0.11481 -0.02775,0.17278 0.01043,0.0931 0.04121,0.18372 0.07737,0.27011 0.07756,0.18535 0.367222,0.66602 0.447816,0.80432 1.183691,1.6654 2.419308,3.29527 3.662844,4.91699 2.151067,2.7076 4.389957,5.3515 6.763956,7.86684 1.306601,1.21942 2.683427,2.35451 4.006484,3.5552 1.05836,1.08108 2.0641,2.21189 3.104559,3.31018 1.396938,1.60454 2.605886,3.36343 3.829112,5.1015 1.874851,2.57773 3.746837,5.15978 5.499242,7.82269 1.855686,2.66028 3.683686,5.33868 5.596976,7.95822 2.38528,3.26842 4.63903,6.62668 6.66622,10.12884 0.82817,1.95082 2.37001,3.51664 3.19408,5.45637 0.27036,1.29879 0.57427,2.59323 0.83896,3.89511 0.31733,1.56456 0.30302,3.16628 0.47574,4.74625 0.29214,1.6913 0.86114,3.29958 1.37671,4.92938 1.27509,3.5295 2.63616,7.0298 3.94501,10.5483 1.93569,5.2084 3.66391,10.486 5.38803,15.7666 1.19225,3.5727 2.46552,7.1153 3.6465,10.6919 0.94066,2.3523 1.13167,5.0097 2.41794,7.2162 0.4285,0.5421 0.77619,0.4356 1.30773,0.1489 0.11499,-0.062 0.46012,-0.2479 0.34487,-0.1863 -0.14926,0.08 -0.29795,0.1605 -0.44692,0.2408 1.21919,-0.7618 2.47577,-1.4737 3.56725,-2.4152 0.81508,-0.7711 1.08111,-1.7618 1.19811,-2.837 0,0 0.85626,-0.4251 0.85626,-0.4251 l 0,0 c -0.11082,1.0929 -0.36423,2.1104 -1.17981,2.9068 -1.07913,0.9512 -2.3331,1.6611 -3.54777,2.4237 -0.28933,0.1715 -1.61049,1.1706 -2.21203,1.1049 -0.38073,-0.042 -0.45345,-0.2252 -0.70541,-0.4906 -1.21932,-2.2506 -1.45152,-4.8871 -2.38656,-7.2545 -1.16984,-3.5843 -2.4049,-7.1447 -3.58705,-10.7249 -1.71048,-5.2841 -3.43075,-10.5634 -5.38275,-15.7651 -1.33506,-3.5055 -2.73153,-6.9885 -4.03101,-10.506 -0.52462,-1.632 -1.11225,-3.2391 -1.40292,-4.93639 -0.17367,-1.57768 -0.14903,-3.17782 -0.46923,-4.73998 -0.26322,-1.29535 -0.58821,-2.57708 -0.84121,-3.87282 -0.79992,-1.94455 -2.29327,-3.54354 -3.11657,-5.48727 -2.00826,-3.51144 -4.27009,-6.86128 -6.68156,-10.10864 -1.92198,-2.61492 -3.72803,-5.31 -5.589953,-7.96749 -1.753676,-2.66175 -3.638121,-5.23504 -5.520798,-7.8066 -1.228796,-1.72996 -2.447805,-3.47742 -3.846578,-5.07558 -1.041118,-1.09529 -2.049309,-2.22134 -3.106444,-3.30108 -1.315343,-1.20631 -2.692538,-2.34031 -3.973715,-3.58395 -2.349208,-2.5415 -4.588743,-5.18614 -6.767844,-7.87419 -1.262655,-1.61454 -2.510278,-3.24191 -3.715562,-4.89932 -0.355111,-0.58865 -1.311793,-2.10019 0.494362,-1.91001 -0.239278,0.18971 -0.475432,0.38343 -0.717833,0.56913 -0.05816,0.0446 -0.07057,-0.12955 -0.117779,-0.18558 -0.307794,-0.36526 -0.578894,-0.75748 -0.89575,-1.11545 -0.755368,-1.00621 -1.476282,-2.03693 -2.4138,-2.89099 -1.288294,-1.32921 -2.64814,-2.58176 -4.028911,-3.81426 -1.358706,-1.31994 -2.672151,-2.68763 -4.127135,-3.90417 -0.838853,-0.74441 -1.765647,-1.32756 -2.7966,-1.77363 -0.956004,-0.41021 -1.920073,-0.82255 -2.706466,-1.52561 -0.992978,-0.93145 -1.618065,-2.16577 -2.460512,-3.22644 -1.23261,-1.48744 -2.659961,-2.78696 -4.26596,-3.86621 -1.505595,-1.13132 -2.87869,-2.42473 -4.415989,-3.51439 -0.788701,-0.50433 -1.567702,-1.03448 -2.386756,-1.48942 -0.544079,-0.30221 -0.779413,-0.36073 -1.270935,-0.73112 -0.179182,-0.13503 -0.33569,-0.29777 -0.503535,-0.44665 -0.833388,-0.89971 -1.253208,-2.00386 -1.837219,-3.06462 -0.597714,-0.67171 -1.351948,-1.02303 -2.192877,-1.31303 -0.951964,-0.35361 -1.456894,-0.99731 -1.705789,-1.98897 -0.358828,-0.95387 -0.713511,-1.86382 -1.424487,-2.62287 -0.516126,-0.58015 -1.03974,-1.15018 -1.349212,-1.87572 -0.30178,-0.87757 -0.504867,-1.78266 -0.637069,-2.70172 -0.215021,-0.91643 -0.648009,-1.58811 -1.476856,-2.07865 -0.931855,-0.69749 -1.93206,-1.28902 -3.013915,-1.72428 0,0 0.802823,-0.53785 0.802823,-0.53785 z"
       inkscape:connector-curvature="0" />
    <path
       style="fill:#ffff00;fill-opacity:1;stroke:none;stroke-opacity:1"
       id="path4725"
       d="m 24.855587,1039.5101 c 1.425075,-1.8645 3.067815,-3.564 4.629773,-5.316 4.813778,-5.2428 9.84469,-10.2786 14.680048,-15.5013 3.551567,-3.6699 6.471437,-7.8226 9.163086,-12.1407 2.212442,-3.8124 4.476199,-7.60502 6.451805,-11.54741 1.449426,-3.05881 2.616439,-6.24111 3.772199,-9.41947 1.107966,-3.68418 2.525462,-7.24309 4.192727,-10.70626 2.361869,-4.34335 5.003647,-8.51501 7.314465,-12.88839 1.950343,-3.8117 3.852461,-7.64177 6.003273,-11.34511 1.674614,-2.85508 3.08235,-5.85533 4.592657,-8.7994 0.800716,-1.58323 1.750001,-3.10882 2.35056,-4.78661 1.159554,-3.23946 -0.520896,1.15435 0.600322,-1.74 0.116923,-0.27185 0.196387,-0.56308 0.350768,-0.81554 0.969426,-1.58535 2.601451,-2.99272 3.931689,-4.22964 2.43502,-2.26419 3.051513,-2.71784 5.695988,-4.93226 5.644283,-4.59024 11.672193,-8.71112 17.111093,-13.5498 3.73682,-3.41954 7.15065,-7.16574 10.71009,-10.76507 2.51511,-2.42904 4.88867,-4.99813 7.14087,-7.67149 1.19001,-1.44665 2.2941,-2.91409 3.78944,-4.05759 1.00522,-0.77257 2.0049,-1.55158 2.98212,-2.36001 0.8778,-0.68136 1.53509,-1.59742 2.40334,-2.28541 0,0 0.89036,-0.35544 0.89036,-0.35544 l 0,0 c -0.89041,0.6673 -1.53639,1.60116 -2.41549,2.28659 -0.97704,0.81333 -1.97889,1.59361 -2.98727,2.3666 -1.51534,1.13647 -2.63545,2.60021 -3.83493,4.05415 -2.26395,2.68953 -4.65866,5.26697 -7.1955,7.70201 -3.56772,3.59658 -6.97466,7.35465 -10.71723,10.77373 -5.46469,4.84889 -11.52869,8.9654 -17.185387,13.58235 -2.65204,2.22903 -3.193382,2.61812 -5.622432,4.89588 -1.235163,1.15824 -2.932789,2.67296 -3.84938,4.15621 -0.155036,0.25088 -0.233803,0.54152 -0.350704,0.81229 -0.948741,2.36578 0.34225,-0.91796 -0.611209,1.74603 -0.604679,1.68949 -1.575994,3.21739 -2.383601,4.81045 -1.509368,2.94756 -2.910468,5.95494 -4.597521,8.80655 -2.150639,3.71742 -4.104041,7.53525 -6.051173,11.36284 -2.300458,4.36752 -4.921014,8.53994 -7.283868,12.8712 -1.665125,3.45293 -3.074179,7.00394 -4.163661,10.68324 -1.160442,3.18606 -2.340234,6.37295 -3.792423,9.43995 -1.979279,3.94915 -4.261519,7.73993 -6.469303,11.56383 -2.697567,4.3431 -5.636537,8.5094 -9.220898,12.1824 -4.823265,5.1928 -9.840456,10.2019 -14.591411,15.4621 -1.531913,1.7379 -3.153633,3.4206 -4.544602,5.2716 0,0 -0.88868,0.3829 -0.88868,0.3829 z"
       inkscape:connector-curvature="0" />
    <path
       style="fill:#ffff00;fill-opacity:1;stroke:none;stroke-opacity:1"
       id="path4727"
       d="m 81.219285,886.42732 c -0.01139,1.12475 -0.0082,2.2496 -0.0074,3.37439 -0.0025,1.28031 -0.0028,2.56061 -0.0013,3.84092 -5.08e-4,1.28937 -0.0015,2.57874 -3.44e-4,3.86812 -0.0024,1.51714 -0.0024,3.03429 -0.007,4.55143 0.02755,3.33063 0.234475,6.66142 0.517695,9.97974 0.528209,4.71515 1.138747,9.41958 1.605854,14.14174 0.212186,2.14412 0.326509,4.2946 0.350243,6.44845 2.94e-4,1.9723 -0.0054,3.94461 -0.0039,5.91692 5.61e-4,1.2427 0.0046,2.48539 0.0019,3.72809 -0.0014,1.54577 -0.0084,3.09152 -0.01053,4.63729 6.4e-4,2.31213 -0.0061,4.62425 -0.01254,6.93636 -0.0092,4.1828 -0.02586,8.36559 -0.02938,12.54839 -0.0024,4.32251 0.0076,8.645 0.02348,12.96747 0.0057,2.20645 0.01924,4.41288 0.0212,6.61934 -0.0017,1.87058 -0.0053,3.74112 -3.89e-4,5.6117 0.0016,1.88985 -0.004,3.77969 -0.0035,5.66955 -8.89e-4,1.62048 0.0058,3.24098 0.01003,4.86138 0.0054,1.1724 9.8e-5,2.3447 -7.68e-4,3.517 -0.0032,1.3047 2.58e-4,2.6095 0.0022,3.9142 6.4e-5,1.3178 -0.0026,2.6355 -0.0051,3.9532 -0.01888,3.7348 -0.0469,7.4696 -0.05956,11.2044 -0.0169,4.9538 0.01045,9.9075 0.03753,14.8612 0.01354,1.7868 0.0206,3.5736 0.02529,5.3605 0.0028,1.0656 0.0036,2.1312 0.004,3.1968 0.0026,0.9653 -0.0108,1.9306 0.006,2.8958 0.0016,0.03 0.03156,0.076 0.0047,0.089 -0.280154,0.1311 -0.562989,0.3047 -0.872052,0.3172 -0.09394,0 0.0031,-0.188 0.0041,-0.282 0.0044,-0.4381 0.0045,-0.8762 0.0054,-1.3143 0.0012,-1.0193 7.79e-4,-2.0387 5.87e-4,-3.058 -2.06e-4,-0.9943 -2.81e-4,-1.9885 -3.24e-4,-2.9828 -5e-6,-0.1643 -9e-6,-0.3287 -1.4e-5,-0.493 0,0 0.851691,-0.434 0.851691,-0.434 l 0,0 c -4e-6,0.1644 -9e-6,0.3287 -1.4e-5,0.4931 -4.3e-5,0.9943 -1.18e-4,1.9887 -3.24e-4,2.983 -1.92e-4,1.0192 -6.64e-4,2.0384 5.87e-4,3.0575 9.02e-4,0.4363 9.27e-4,0.8725 0.0054,1.3088 9.51e-4,0.093 0.07027,0.2131 0.0041,0.2779 -0.248398,0.243 -0.567669,0.4037 -0.872052,0.5714 -0.02734,0.015 0.0032,-0.062 0.0047,-0.093 0.01652,-0.9672 0.0035,-1.9345 0.006,-2.9018 3.98e-4,-1.067 0.0012,-2.134 0.004,-3.201 0.0047,-1.7954 0.01178,-3.5908 0.02529,-5.3862 0.027,-4.9664 0.05439,-9.9329 0.03753,-14.8994 -0.01264,-3.7147 -0.04068,-7.4292 -0.05957,-11.1438 -0.0025,-1.316 -0.0052,-2.6319 -0.0051,-3.9479 0.0019,-1.3055 0.0053,-2.611 0.0022,-3.9165 -8.67e-4,-1.172 -0.0062,-2.3441 -7.68e-4,-3.5161 0.0042,-1.6239 0.01091,-3.24777 0.01003,-4.87166 4.79e-4,-1.88868 -0.0051,-3.77734 -0.0035,-5.66601 0.0049,-1.87045 0.0013,-3.74086 -3.89e-4,-5.6113 0.002,-2.21366 0.01553,-4.42729 0.0212,-6.64094 0.01583,-4.33045 0.02589,-8.66091 0.02348,-12.9914 -0.0035,-4.17282 -0.0202,-8.34562 -0.0294,-12.51844 -0.0065,-2.30783 -0.01322,-4.61567 -0.01267,-6.92352 -0.0021,-1.5423 -0.0095,-3.08459 -0.01,-4.62689 -0.0016,-1.24523 0.0055,-2.49044 0.01255,-3.73564 0.01109,-1.97204 0.02179,-3.9441 0.0051,-5.91614 -0.02351,-2.15888 -0.105823,-4.31677 -0.295889,-6.46814 -0.41576,-4.73138 -1.018109,-9.4396 -1.581766,-14.15479 -0.300463,-3.30795 -0.535807,-6.62759 -0.594649,-9.9489 -0.0046,-1.51476 -0.0046,-3.02952 -0.007,-4.54429 0.0011,-1.28925 1.66e-4,-2.57851 -3.43e-4,-3.86776 0.0016,-1.27988 0.0013,-2.55975 -0.0013,-3.83962 8.38e-4,-1.12229 0.004,-2.24463 -0.0074,-3.36688 0,0 0.862215,-0.43932 0.862215,-0.43932 z"
       inkscape:connector-curvature="0" />
    <path
       style="fill:#ffff00;fill-opacity:1;stroke:none;stroke-opacity:1"
       id="path4729"
       d="m 25.239485,952.77123 c 0.521397,-1.74996 1.430083,-3.35265 2.225135,-4.98824 1.698009,-3.73615 3.562938,-7.41829 5.810361,-10.85928 2.43743,-3.7319 5.224678,-7.29257 7.901522,-10.84607 8.607876,-11.14596 17.26352,-22.26066 26.647115,-32.76857 4.063224,-4.5499 8.553921,-8.68112 12.855484,-12.9983 2.094663,-1.99713 4.224862,-4.20625 7.010303,-5.21355 0.846708,-0.12076 1.371301,0.21473 0.853266,1.00964 -0.735373,0.78457 -1.046499,1.75284 -1.383907,2.75184 -0.73653,2.12465 -1.282207,4.30854 -1.98707,6.44269 -0.457502,1.22345 -1.181302,2.36818 -2.181082,3.21768 -1.036418,0.68034 -2.124437,1.27075 -3.364873,0.87272 -0.557675,-0.27535 -0.791798,-0.75854 -0.996279,-1.31269 0,0 0.839017,-0.46537 0.839017,-0.46537 l 0,0 c 0.192893,0.52872 0.410407,0.98691 0.950593,1.23647 0.586569,0.16546 1.100249,0.13088 1.684366,-0.0588 0.14211,-0.0462 0.415626,-0.31525 0.416438,-0.16584 8.81e-4,0.16193 -0.277317,0.16726 -0.415976,0.25089 1.022533,-0.81829 1.752657,-1.97154 2.228977,-3.1813 0.724009,-2.12589 1.264314,-4.30959 1.979883,-6.43891 0.324196,-0.99993 0.60412,-1.98172 1.341239,-2.76428 0.563833,-0.70859 0.05925,-0.94323 -0.708627,-0.81287 -0.214007,0.0807 -0.456454,0.1005 -0.64803,0.22542 -1.773474,1.15644 -3.332642,2.59067 -4.830884,4.08004 -4.346822,4.35055 -8.898032,8.49709 -13.024599,13.06452 -9.454505,10.49015 -18.171624,21.60025 -26.754854,32.80859 -2.630772,3.52244 -5.392808,7.074 -7.773688,10.78252 -2.190956,3.4127 -3.976418,7.07691 -5.631544,10.77155 -0.77006,1.62284 -1.660096,3.20881 -2.17188,4.93744 0,0 -0.870406,0.42207 -0.870406,0.42207 z"
       inkscape:connector-curvature="0" />
    <path
       style="fill:#ffff00;fill-opacity:1;stroke:none;stroke-opacity:1"
       id="path4731"
       d="m 142.31744,967.57409 c -0.0715,-0.1758 -0.15371,-0.34764 -0.2146,-0.5274 -0.33308,-0.98332 -0.16847,-0.78848 -0.58304,-1.85913 -0.55724,-1.4391 -1.34133,-2.70455 -2.18229,-3.98998 -2.2218,-3.32603 -4.94436,-6.27162 -7.46871,-9.36487 -2.04463,-2.39528 -3.90664,-4.93451 -5.69264,-7.52458 -0.83855,-1.29752 -1.83209,-2.46001 -2.91061,-3.56024 -0.93755,-0.78409 -1.82183,-1.61784 -2.48146,-2.65068 -1.69088,-2.71597 -2.85192,-5.71902 -4.09555,-8.65456 -1.57697,-3.66103 -2.93552,-7.43106 -4.815,-10.95341 -0.23684,-0.38485 -0.45081,-0.78475 -0.71052,-1.15455 -1.28222,-1.82582 -2.9214,-3.40862 -4.34997,-5.11482 -2.06296,-2.46387 -2.2264,-2.75063 -4.1998,-5.36405 -3.268125,-4.45388 -6.188962,-9.14605 -9.18335,-13.78435 -1.019653,-1.43336 -1.990796,-3.02936 -3.457321,-4.05688 -0.791062,-0.48069 -1.537041,-0.12197 -2.325904,0.14679 -0.859783,0.4359 -1.77764,0.6738 -2.726023,0.81046 -0.993635,0.18179 -1.971532,-0.0444 -2.95318,-0.18539 -0.674779,-0.14695 -1.227662,-0.51919 -1.636682,-1.06589 0,0 0.828566,-0.49185 0.828566,-0.49185 l 0,0 c 0.397364,0.52559 0.936974,0.87439 1.589152,1.00722 0.976609,0.14184 1.949851,0.35162 2.93738,0.16243 0.946468,-0.14611 1.854564,-0.40479 2.7185,-0.82657 0.813436,-0.27894 1.576624,-0.58285 2.374401,-0.0696 1.451687,1.06172 2.409454,2.66825 3.407429,4.12829 2.931084,4.67368 5.820412,9.38345 9.094152,13.829 1.95756,2.57229 2.16721,2.92611 4.23077,5.33887 1.4523,1.69807 3.13395,3.25647 4.43376,5.08191 0.26329,0.36977 0.47729,0.77226 0.71593,1.15839 1.85244,3.54137 3.14366,7.3442 4.75341,10.99645 1.26497,2.91933 2.46882,5.89404 4.18553,8.58604 0.66097,1.02289 1.55101,1.84351 2.47236,2.6337 1.07973,1.10545 2.06889,2.27781 2.89843,3.58677 1.75254,2.60766 3.59759,5.15433 5.63731,7.54841 2.52748,3.09613 5.25277,6.04286 7.49297,9.36096 0.84994,1.28675 1.64827,2.55496 2.22488,3.99251 0.50547,1.26022 0.20036,0.71619 0.60682,1.8378 0.0647,0.1785 0.1524,0.34779 0.2286,0.52168 0,0 -0.8437,0.47115 -0.8437,0.47115 z"
       inkscape:connector-curvature="0" />
  </g>
</svg>
