<?xml version="1.0" encoding="UTF-8" standalone="no"?>
<!-- Created with Inkscape (http://www.inkscape.org/) -->

<svg
   xmlns:dc="http://purl.org/dc/elements/1.1/"
   xmlns:cc="http://creativecommons.org/ns#"
   xmlns:rdf="http://www.w3.org/1999/02/22-rdf-syntax-ns#"
   xmlns:svg="http://www.w3.org/2000/svg"
   xmlns="http://www.w3.org/2000/svg"
   xmlns:sodipodi="http://sodipodi.sourceforge.net/DTD/sodipodi-0.dtd"
   xmlns:inkscape="http://www.inkscape.org/namespaces/inkscape"
   width="25"
   height="25"
   viewBox="0 0 25 25"
   id="svg2"
   version="1.1"
   inkscape:version="0.91 r13725"
   sodipodi:docname="trace1.svg">
  <defs
     id="defs4" />
  <sodipodi:namedview
     id="base"
     pagecolor="#ffffff"
     bordercolor="#666666"
     borderopacity="1.0"
     inkscape:pageopacity="0.0"
     inkscape:pageshadow="2"
     inkscape:zoom="3.1"
     inkscape:cx="20.465777"
     inkscape:cy="23.616886"
     inkscape:document-units="px"
     inkscape:current-layer="layer1"
     showgrid="false"
     units="px"
     inkscape:window-width="1366"
     inkscape:window-height="706"
     inkscape:window-x="-8"
     inkscape:window-y="-8"
     inkscape:window-maximized="1" />
  <metadata
     id="metadata7">
    <rdf:RDF>
      <cc:Work
         rdf:about="">
        <dc:format>image/svg+xml</dc:format>
        <dc:type
           rdf:resource="http://purl.org/dc/dcmitype/StillImage" />
        <dc:title></dc:title>
      </cc:Work>
    </rdf:RDF>
  </metadata>
  <g
     inkscape:label="Layer 1"
     inkscape:groupmode="layer"
     id="layer1"
     transform="translate(0,-1027.3622)">
    <rect
       style="fill:#fffa00;fill-opacity:1;stroke:#ff0800;stroke-width:0.92912322;stroke-miterlimit:4;stroke-dasharray:none;stroke-opacity:1"
       id="rect4134"
       width="9.0212069"
       height="9.0749454"
       x="-4.4950209"
       y="1035.9585"
       transform="matrix(0.99989794,-0.01428635,0.01207907,0.99992705,0,0)" />
    <path
       style="fill:none;fill-rule:evenodd;stroke:#f70000;stroke-width:1px;stroke-linecap:butt;stroke-linejoin:miter;stroke-opacity:1"
       d="m 7.0967742,1035.588 c -1.2560749,-0.7532 -1.8077611,-1.2477 -2.9032258,-1.6129 -0.6957305,-1.2605 -0.6451613,-2.5438 -0.6451613,-3.2258 C 1.6019874,1029.9756 0,1029.7707 0,1028.1687"
       id="path4136"
       inkscape:connector-curvature="0" />
    <path
       style="fill:none;fill-rule:evenodd;stroke:#fa0000;stroke-width:1px;stroke-linecap:butt;stroke-linejoin:miter;stroke-opacity:1"
       d="m 10.322581,1034.6203 c -0.7975045,-2.5438 0,-6.0524 0,-7.742"
       id="path4138"
       inkscape:connector-curvature="0" />
    <path
       style="fill:none;fill-rule:evenodd;stroke:#fc0000;stroke-width:1px;stroke-linecap:butt;stroke-linejoin:miter;stroke-opacity:1"
       d="m 13.548387,1034.6203 c -0.330586,-1.0105 0.164203,-2.1055 0.322581,-2.5807 1.421508,-0.8215 1.921779,-0.6451 2.580645,-0.6451 -1.228572,-2.3053 -1.535698,-3.2001 -3.548387,-3.871"
       id="path4140"
       inkscape:connector-curvature="0" />
    <path
       style="fill:none;fill-rule:evenodd;stroke:#f70000;stroke-width:1px;stroke-linecap:butt;stroke-linejoin:miter;stroke-opacity:1"
       d="m 7.0967742,1039.7816 c -0.8602151,0 -1.7204301,0 -2.5806452,0 -0.3639892,1.198 -0.9677419,3.108 -0.9677419,3.2258 -1.2752194,-1.4613 -2.90322581,-3.9059 -2.90322581,-5.8065"
       id="path4142"
       inkscape:connector-curvature="0" />
    <path
       style="fill:none;fill-rule:evenodd;stroke:#f70000;stroke-width:1px;stroke-linecap:butt;stroke-linejoin:miter;stroke-opacity:1"
       d="m 0,1047.2009 c 1.3442423,0.4481 2.1518868,1.5067 3.2258065,2.5807 1.1883554,1.1883 3.6113225,-4.8208 5.4838709,-4.8388 1.1658416,1.2655 2.6622176,2.6623 2.9032256,2.9033 -1.282097,0.8629 -1.508444,0.9329 -2.5806449,1.2903 -0.3091753,2.0143 1.0140359,3.6873 1.2903229,4.5161"
       id="path4144"
       inkscape:connector-curvature="0" />
    <path
       style="fill:none;fill-rule:evenodd;stroke:#fc0000;stroke-width:1px;stroke-linecap:butt;stroke-linejoin:miter;stroke-opacity:1"
       d="m 14.516129,1045.2654 c 1.572974,0.4762 1.152766,1.1528 1.935484,1.9355"
       id="path4146"
       inkscape:connector-curvature="0" />
    <path
       style="fill:none;fill-rule:evenodd;stroke:#fa0000;stroke-width:1px;stroke-linecap:butt;stroke-linejoin:miter;stroke-opacity:1"
       d="m 17.096774,1048.8138 c 0,1.0753 0,2.1506 0,3.2258"
       id="path4148"
       inkscape:connector-curvature="0" />
    <path
       style="fill:none;fill-rule:evenodd;stroke:#fa0000;stroke-width:1px;stroke-linecap:butt;stroke-linejoin:miter;stroke-opacity:1"
       d="m 17.419355,1044.2977 c 3.740907,3.0288 7.029821,4.9056 3.225806,8.7097"
       id="path4150"
       inkscape:connector-curvature="0" />
    <path
       style="fill:none;fill-rule:evenodd;stroke:#f70000;stroke-width:1px;stroke-linecap:butt;stroke-linejoin:miter;stroke-opacity:1"
       d="m 17.419355,1036.8783 c -0.100781,-2.114 1.069109,-2.894 1.935484,-4.1935 0.06117,1.5449 1.022761,2.4231 1.290322,3.2258 0.146256,-2.5892 0.691675,-6.5912 0.967742,-7.4194"
       id="path4152"
       inkscape:connector-curvature="0" />
    <path
       style="fill:none;fill-rule:evenodd;stroke:#fc0000;stroke-width:1px;stroke-linecap:butt;stroke-linejoin:miter;stroke-opacity:1"
       d="m 16.774194,1039.459 c 1.290322,0 2.580645,0 3.870967,0 0,1.1828 0,2.3656 0,3.5484 1.430635,-1.014 2.040393,-1.9277 2.258065,-2.5807 0.88007,2.4246 1.421464,2.9741 1.935484,4.5161"
       id="path4154"
       inkscape:connector-curvature="0" />
    <path
       style="fill:none;fill-rule:evenodd;stroke:#fdfa00;stroke-width:1px;stroke-linecap:butt;stroke-linejoin:miter;stroke-opacity:1"
       d="m 8.7096774,1034.6203 c -1.4755833,-1.1747 -2.173851,-2.328 -2.5806451,-3.5484 -1e-7,-2.2748 0,-3.4988 0,-3.5484"
       id="path4156"
       inkscape:connector-curvature="0" />
    <path
       style="fill:none;fill-rule:evenodd;stroke:#fcfa00;stroke-width:1px;stroke-linecap:butt;stroke-linejoin:miter;stroke-opacity:1"
       d="m 12.580645,1045.2654 c 0.236382,1.848 0.629589,2.5651 0.967742,2.9033"
       id="path4158"
       inkscape:connector-curvature="0" />
    <path
       style="fill:none;fill-rule:evenodd;stroke:#fafc00;stroke-width:1px;stroke-linecap:butt;stroke-linejoin:miter;stroke-opacity:1"
       d="m 13.870968,1049.459 c 0.08735,2.3161 -0.645162,2.1857 -0.645162,3.8709"
       id="path4160"
       inkscape:connector-curvature="0" />
    <path
       style="fill:none;fill-rule:evenodd;stroke:#fafa00;stroke-width:1px;stroke-linecap:butt;stroke-linejoin:miter;stroke-opacity:1"
       d="m 18.064516,1042.6848 c 1.048695,0.6913 1.730252,1.0851 2.580645,1.9355"
       id="path4162"
       inkscape:connector-curvature="0" />
    <path
       style="fill:none;fill-rule:evenodd;stroke:#fcf400;stroke-width:1px;stroke-linecap:butt;stroke-linejoin:miter;stroke-opacity:1"
       d="m 21.935484,1045.2654 c 1.922257,-0.3887 1.387772,0.6452 2.903226,0.6452"
       id="path4164"
       inkscape:connector-curvature="0" />
    <path
       style="fill:none;fill-rule:evenodd;stroke:#f7f900;stroke-width:1px;stroke-linecap:butt;stroke-linejoin:miter;stroke-opacity:1"
       d="m 7.4193548,1042.3622 c -1.0578659,1.4464 -2.6893759,3.012 -3.2258064,3.5484 -2.5488341,0.1667 -3.21456957,0.01 -4.1935484,-0.6452"
       id="path4166"
       inkscape:connector-curvature="0" />
  </g>
</svg>
