<?xml version="1.0" encoding="UTF-8" standalone="no"?>
<!-- Created with Inkscape (http://www.inkscape.org/) -->

<svg
   xmlns:dc="http://purl.org/dc/elements/1.1/"
   xmlns:cc="http://creativecommons.org/ns#"
   xmlns:rdf="http://www.w3.org/1999/02/22-rdf-syntax-ns#"
   xmlns:svg="http://www.w3.org/2000/svg"
   xmlns="http://www.w3.org/2000/svg"
   xmlns:sodipodi="http://sodipodi.sourceforge.net/DTD/sodipodi-0.dtd"
   xmlns:inkscape="http://www.inkscape.org/namespaces/inkscape"
   width="35"
   height="150"
   viewBox="0 0 35 150"
   id="svg4565"
   version="1.1"
   inkscape:version="0.91 r13725"
   sodipodi:docname="treug.svg">
  <defs
     id="defs4567" />
  <sodipodi:namedview
     id="base"
     pagecolor="#ffffff"
     bordercolor="#666666"
     borderopacity="1.0"
     inkscape:pageopacity="0.0"
     inkscape:pageshadow="2"
     inkscape:zoom="4"
     inkscape:cx="-29.99459"
     inkscape:cy="64.007812"
     inkscape:document-units="px"
     inkscape:current-layer="layer1"
     showgrid="false"
     units="px"
     inkscape:window-width="1366"
     inkscape:window-height="706"
     inkscape:window-x="-8"
     inkscape:window-y="-8"
     inkscape:window-maximized="1"
     showguides="true"
     inkscape:guide-bbox="true">
    <sodipodi:guide
       position="-5.625,150"
       orientation="0,1"
       id="guide4609" />
  </sodipodi:namedview>
  <metadata
     id="metadata4570">
    <rdf:RDF>
      <cc:Work
         rdf:about="">
        <dc:format>image/svg+xml</dc:format>
        <dc:type
           rdf:resource="http://purl.org/dc/dcmitype/StillImage" />
        <dc:title></dc:title>
      </cc:Work>
    </rdf:RDF>
  </metadata>
  <g
     inkscape:label="Layer 1"
     inkscape:groupmode="layer"
     id="layer1"
     transform="translate(0,-902.36216)">
    <path
       style="fill:#00ff00;fill-rule:evenodd;stroke:none;stroke-width:0.99806201px;stroke-linecap:butt;stroke-linejoin:miter;stroke-opacity:1"
       d="M 17.346499,966.60526 C -0.01200002,907.00134 -0.01200002,907.00134 -0.01200002,907.00134 L 35.137,906.74406 Z"
       id="path3701"
       inkscape:connector-curvature="0" />
    <ellipse
       style="fill:#ffd5d5;fill-opacity:1;stroke:none;stroke-opacity:1"
       id="path4506"
       cx="17.4375"
       cy="913.23718"
       rx="13.861386"
       ry="10.728589" />
    <path
       style="fill:none;fill-rule:evenodd;stroke:#000000;stroke-width:1.16382313px;stroke-linecap:butt;stroke-linejoin:miter;stroke-opacity:1"
       d="m 16.816162,907.01032 c 0.33003,1.7881 0.9901,3.5211 0.9901,5.3643 0,0.447 -0.66007,0 -0.9901,0 -0.33003,0 -0.9901,0.447 -0.9901,0 0,-0.4471 0.75673,-0.3161 0.9901,0 0.23337,0.316 -0.23337,1.025 0,1.3411 0.49505,0.6705 2.475249,-0.6706 2.970299,0 0.23337,0.316 -0.23337,1.0249 0,1.3411 0.23337,0.316 0.75673,-0.3162 0.9901,0 0.23337,0.316 -0.23337,1.0249 0,1.3411 0.23337,0.316 0.9901,-0.4472 0.9901,0 0,0.4469 -0.66007,0 -0.9901,0 -0.33004,0 -0.66007,0 -0.9901,0 -2.640269,0 0.33003,0.4469 -0.9901,-1.3411 -0.23337,-0.3162 -0.756729,0.316 -0.990099,0 -0.23337,-0.3162 0.23337,-1.0251 0,-1.3411 -0.68702,-0.9307 -2.43556,1.7428 -1.9802,-1.3411 0.26687,-1.8074 -0.37066,-5.3643 0.9901,-5.3643 1.36076,0 0.38155,3.7158 0.9901,5.3643 0.29519,0.7996 1.513459,-0.6322 1.980199,0 0.23337,0.316 -0.23337,1.025 0,1.3411 0.23337,0.316 0.75673,-0.3161 0.9901,0 0.23337,0.316 -0.23337,1.0249 0,1.3411 0.23337,0.316 0.9901,-0.4471 0.9901,0 0,0.447 -0.66007,0 -0.9901,0 -0.33004,0 -0.66007,0 -0.9901,0 -0.33004,0 -0.75673,0.316 -0.9901,0 -0.23337,-0.3162 0.23337,-1.0251 0,-1.3411 -0.23337,-0.3161 -0.660069,0 -0.990099,0 0,-0.4471 0.23337,-1.0251 0,-1.3411 -0.23337,-0.3161 -0.91005,0.4336 -0.9901,0 -0.32018,-1.7348 -1.32013,-5.3643 0,-5.3643 1.32013,0 0,3.5761 0,5.3643 0,0.447 0,0.894 0,1.3411 0,4.9553 0,3.6017 0,6.7052"
       id="path4508"
       inkscape:connector-curvature="0" />
    <path
       style="fill:#ffff0e;fill-opacity:1;stroke:#e30000;stroke-opacity:1"
       id="path4640"
       d="m 17.430094,966.57392 c -7.46e-4,0.1746 -4.56e-4,0.3492 -3.28e-4,0.5238 1.99e-4,0.14719 5.6e-5,0.29438 7.8e-5,0.44157 -1.52e-4,0.1528 -2.1e-5,0.30559 4.8e-5,0.45838 0.01174,0.12628 -0.03365,0.23228 -0.09902,0.33607 -0.06353,0.0919 -0.145767,0.1688 -0.223896,0.24799 -0.07176,0.0677 -0.145476,0.1336 -0.214033,0.20459 -0.03514,0.0492 -0.01719,0.0249 -0.05386,0.0728 0,0 -0.113825,0.0488 -0.113825,0.0488 l 0,0 c 0.03737,-0.0474 0.01953,-0.0228 0.05341,-0.0739 0.06715,-0.0724 0.142389,-0.13719 0.214201,-0.20488 0.0771,-0.0797 0.160377,-0.15479 0.224794,-0.24556 0.06505,-0.10221 0.11495,-0.20419 0.102448,-0.32997 6.9e-5,-0.15281 2e-4,-0.30562 4.8e-5,-0.45843 2.2e-5,-0.14722 -1.21e-4,-0.29444 7.8e-5,-0.44165 1.27e-4,-0.17449 4.19e-4,-0.34898 -3.28e-4,-0.52347 0,0 0.110188,-0.0561 0.110188,-0.0561 z"
       inkscape:connector-curvature="0" />
    <path
       style="fill:#ffff0e;fill-opacity:1;stroke:#e30000;stroke-opacity:1"
       id="path4642"
       d="m 16.756671,969.06466 c 0.06114,0.18771 0.163941,0.35746 0.264675,0.52596 0.08243,0.12339 0.16162,0.24874 0.244298,0.37179 0.0093,0.0152 0.01863,0.0303 0.02795,0.0455 0,0 -0.106915,0.0621 -0.106915,0.0621 l 0,0 c -0.0092,-0.015 -0.01841,-0.0301 -0.02762,-0.0451 -0.08232,-0.12353 -0.161429,-0.24915 -0.243744,-0.37285 -0.100963,-0.16938 -0.203433,-0.34 -0.267078,-0.52766 0,0 0.108438,-0.0597 0.108438,-0.0597 z"
       inkscape:connector-curvature="0" />
    <path
       style="fill:#ffff0e;fill-opacity:1;stroke:#e30000;stroke-opacity:1"
       id="path4644"
       d="m 17.367424,970.27646 c 0.01637,0.40407 -0.105237,0.79093 -0.214123,1.17471 -0.117483,0.35044 -0.223382,0.7067 -0.374212,1.04472 -0.05795,0.1267 -0.03092,0.0653 -0.08147,0.18404 0,0 -0.111412,0.0512 -0.111412,0.0512 l 0,0 c 0.05081,-0.11931 0.02356,-0.0577 0.08215,-0.18462 0.153167,-0.33734 0.259534,-0.69394 0.377778,-1.04444 0.108463,-0.38195 0.231052,-0.76731 0.211448,-1.16967 0,0 0.109848,-0.056 0.109848,-0.056 z"
       inkscape:connector-curvature="0" />
    <path
       style="fill:#ffff0e;fill-opacity:1;stroke:#e30000;stroke-opacity:1"
       id="path4646"
       d="m 16.674089,972.99117 c 0.457921,0.26085 0.899854,0.54813 1.349293,0.82298 0.30919,0.18401 0.610176,0.381 0.907423,0.58346 0.135457,0.0855 0.248124,0.19974 0.371309,0.30064 0.06237,0.0543 0.122666,0.11089 0.185612,0.16454 0,0 -0.104894,0.0654 -0.104894,0.0654 l 0,0 c -0.06255,-0.0539 -0.122838,-0.11026 -0.185022,-0.16461 -0.122493,-0.10111 -0.235581,-0.21413 -0.370179,-0.30009 -0.29526,-0.20382 -0.594911,-0.40129 -0.90288,-0.58565 -0.449862,-0.27581 -0.892486,-0.56392 -1.354223,-0.81992 0,0 0.103561,-0.0667 0.103561,-0.0667 z"
       inkscape:connector-curvature="0" />
    <path
       style="fill:#ffff0e;fill-opacity:1;stroke:#e30000;stroke-opacity:1"
       id="path4648"
       d="m 16.645736,972.62577 c 0.06672,0.0959 0.03305,0.0458 0.10068,0.15057 0,0 -0.105814,0.0618 -0.105814,0.0618 l 0,0 c -0.0678,-0.10432 -0.03383,-0.0544 -0.101529,-0.14989 0,0 0.106663,-0.0625 0.106663,-0.0625 z"
       inkscape:connector-curvature="0" />
    <path
       style="fill:#ffff0e;fill-opacity:1;stroke:#e30000;stroke-opacity:1"
       id="path4650"
       d="m 19.408164,975.09811 c -0.122197,0.39018 -0.224936,0.786 -0.340943,1.17802 -0.08863,0.3058 -0.168369,0.6144 -0.243479,0.92382 -0.06989,0.24771 -0.118239,0.50065 -0.158591,0.75464 -0.03467,0.20483 -0.05797,0.41247 -0.09944,0.61604 -0.03026,0.10443 -0.04121,0.21314 -0.06864,0.318 0,0 -0.111574,0.0532 -0.111574,0.0532 l 0,0 c 0.02938,-0.10429 0.03792,-0.21361 0.06963,-0.31767 0.04345,-0.20315 0.06486,-0.4114 0.100738,-0.61601 0.04038,-0.25425 0.08758,-0.50774 0.158221,-0.75555 0.07518,-0.31005 0.156138,-0.61902 0.245216,-0.92532 0.116358,-0.3911 0.21919,-0.78605 0.337676,-1.17652 0,0 0.111185,-0.0526 0.111185,-0.0526 z"
       inkscape:connector-curvature="0" />
    <path
       style="fill:#ffff0e;fill-opacity:1;stroke:#e30000;stroke-opacity:1"
       id="path4652"
       d="m 18.338568,979.21631 c -0.163202,0.46292 -0.367649,0.90911 -0.574385,1.35377 -0.231977,0.51202 -0.500698,1.00527 -0.778723,1.4933 -0.164162,0.29611 -0.373081,0.5608 -0.597955,0.81227 -0.09222,0.10049 -0.184863,0.2007 -0.274623,0.3034 0,0 -0.11327,0.0478 -0.11327,0.0478 l 0,0 c 0.08972,-0.10336 0.183425,-0.20326 0.275921,-0.30414 0.225783,-0.25092 0.435904,-0.515 0.601023,-0.81081 0.279212,-0.48783 0.54926,-0.98083 0.781222,-1.49335 0.205905,-0.44327 0.410774,-0.88788 0.568845,-1.35101 0,0 0.111945,-0.0513 0.111945,-0.0513 z"
       inkscape:connector-curvature="0" />
    <path
       style="fill:#ffff0e;fill-opacity:1;stroke:#e30000;stroke-opacity:1"
       id="path4654"
       d="m 16.01379,983.44674 c 0.162148,0.35073 0.338103,0.69533 0.51103,1.04093 0.211517,0.39173 0.402908,0.79584 0.631297,1.17812 0.116233,0.18763 0.214133,0.38458 0.302816,0.58624 0,0 -0.107166,0.0603 -0.107166,0.0603 l 0,0 c -0.0881,-0.20138 -0.184496,-0.39857 -0.300055,-0.58608 -0.227125,-0.3834 -0.417751,-0.78815 -0.629731,-1.18002 -0.173408,-0.34556 -0.349811,-0.68995 -0.515914,-1.03899 0,0 0.107723,-0.0605 0.107723,-0.0605 z"
       inkscape:connector-curvature="0" />
    <path
       style="fill:#ffff0e;fill-opacity:1;stroke:#e30000;stroke-opacity:1"
       id="path4656"
       d="m 17.367509,986.26894 c -0.0089,0.28318 0.01841,0.565 0.06115,0.84452 0.05869,0.35972 0.169005,0.7078 0.282319,1.05328 0.07983,0.24047 0.175861,0.47394 0.281084,0.70415 0.0337,0.0829 0.07094,0.16413 0.105636,0.24657 0,0 -0.107215,0.0601 -0.107215,0.0601 l 0,0 c -0.03443,-0.0824 -0.07156,-0.16366 -0.104875,-0.24657 -0.10487,-0.23092 -0.20133,-0.46476 -0.280611,-0.70596 -0.11283,-0.34635 -0.222952,-0.6951 -0.28282,-1.05525 -0.04341,-0.27958 -0.07139,-0.56144 -0.06469,-0.84479 0,0 0.110018,-0.0561 0.110018,-0.0561 z"
       inkscape:connector-curvature="0" />
    <path
       style="fill:#ffff0e;fill-opacity:1;stroke:#e30000;stroke-opacity:1"
       id="path4658"
       d="m 18.151068,989.52881 c -0.16394,0.4657 -0.333267,0.92974 -0.520732,1.38649 -0.207929,0.49666 -0.473382,0.96504 -0.749052,1.42633 -0.110003,0.18301 -0.23337,0.35748 -0.344403,0.53983 0,0 -0.112168,0.0496 -0.112168,0.0496 l 0,0 c 0.111129,-0.18322 0.236079,-0.35757 0.347049,-0.54092 0.277098,-0.46096 0.544014,-0.92904 0.752558,-1.42596 0.18701,-0.45536 0.35628,-0.91812 0.514803,-1.38414 0,0 0.111945,-0.0513 0.111945,-0.0513 z"
       inkscape:connector-curvature="0" />
    <path
       style="fill:#ffff0e;fill-opacity:1;stroke:#e30000;stroke-opacity:1"
       id="path4660"
       d="m 16.430009,993.20644 c 0.0021,0.25846 0.09497,0.49365 0.202852,0.72405 0.153113,0.33802 0.387807,0.62499 0.629811,0.90228 0.252897,0.27453 0.547978,0.50451 0.829857,0.74754 0.173043,0.13694 0.32701,0.29551 0.491444,0.44218 0.04208,0.0437 0.08765,0.0831 0.129659,0.12685 0,0 -0.105542,0.0644 -0.105542,0.0644 l 0,0 c -0.04177,-0.0435 -0.08687,-0.0829 -0.128652,-0.12639 -0.163399,-0.14743 -0.317282,-0.30563 -0.489571,-0.44308 -0.281946,-0.24367 -0.576416,-0.47501 -0.830062,-0.7494 -0.242576,-0.27825 -0.478089,-0.56605 -0.632036,-0.90487 -0.109254,-0.23149 -0.202954,-0.46766 -0.207778,-0.72749 0,0 0.110018,-0.0561 0.110018,-0.0561 z"
       inkscape:connector-curvature="0" />
    <path
       style="fill:#ffff0e;fill-opacity:1;stroke:#e30000;stroke-opacity:1"
       id="path4662"
       d="m 18.805094,996.38642 c -0.04856,0.48061 -0.19437,0.94799 -0.32688,1.41087 -0.192513,0.68897 -0.433583,1.36257 -0.684762,2.0319 -0.121684,0.35441 -0.248569,0.70681 -0.379486,1.05781 -0.0589,0.1424 -0.110898,0.2874 -0.163987,0.432 0,0 -0.111543,0.052 -0.111543,0.052 l 0,0 c 0.05315,-0.145 0.105696,-0.2901 0.165123,-0.4327 0.131533,-0.3519 0.261771,-0.7042 0.383582,-1.05968 0.25283,-0.66876 0.494558,-1.34226 0.686239,-2.03154 0.131415,-0.46058 0.275741,-0.9261 0.321526,-1.40451 0,0 0.110188,-0.0561 0.110188,-0.0561 z"
       inkscape:connector-curvature="0" />
    <path
       style="fill:#ffff0e;fill-opacity:1;stroke:#e30000;stroke-opacity:1"
       id="path4664"
       d="m 17.222643,1001.6952 c 0.75451,0.8358 1.503391,1.6769 2.254629,2.5158 0.638671,0.7009 1.287827,1.3924 1.92234,2.0971 0.0949,0.097 0.185602,0.1969 0.268748,0.3039 0,0 -0.105297,0.063 -0.105297,0.063 l 0,0 c -0.08199,-0.1072 -0.171545,-0.2076 -0.265111,-0.305 -0.628132,-0.7093 -1.273455,-1.4032 -1.910777,-2.1042 -0.751941,-0.8399 -1.501842,-1.6817 -2.270106,-2.5067 0,0 0.105574,-0.064 0.105574,-0.064 z"
       inkscape:connector-curvature="0" />
    <path
       style="fill:#ffff0e;fill-opacity:1;stroke:#e30000;stroke-opacity:1"
       id="path4666"
       d="m 21.70576,1006.9262 c -0.451602,0.9366 -1.047983,1.7927 -1.65508,2.6331 -0.605227,0.8087 -1.257401,1.5843 -1.963001,2.3075 -0.155736,0.163 -0.326577,0.3092 -0.497559,0.4555 0,0 -0.113245,0.046 -0.113245,0.046 l 0,0 c 0.172283,-0.1469 0.345507,-0.2926 0.502501,-0.4564 0.710269,-0.7225 1.365656,-1.4993 1.972919,-2.3099 0.604209,-0.8366 1.199073,-1.6887 1.642185,-2.6244 0,0 0.11128,-0.051 0.11128,-0.051 z"
       inkscape:connector-curvature="0" />
    <path
       style="fill:#ffff0e;fill-opacity:1;stroke:#e30000;stroke-opacity:1"
       id="path4668"
       d="m 17.554924,1012.7765 c -0.0018,0.317 -0.01062,0.6335 0.02388,0.949 0.04521,0.4322 0.09672,0.8609 0.203726,1.2826 0.106276,0.3994 0.253378,0.7848 0.408292,1.1672 0.103525,0.2871 0.234597,0.5605 0.379035,0.829 0.382895,0.718 0.827788,1.4001 1.271083,2.0815 0.270083,0.4288 0.570143,0.8358 0.879633,1.2364 0.02338,0.032 0.04676,0.065 0.07014,0.097 0,0 -0.105005,0.062 -0.105005,0.062 l 0,0 c -0.02311,-0.032 -0.04622,-0.065 -0.06932,-0.097 -0.307234,-0.4025 -0.605024,-0.8113 -0.874196,-1.2407 -0.442094,-0.6826 -0.887177,-1.3647 -1.275687,-2.0799 -0.146334,-0.268 -0.279769,-0.5407 -0.381205,-0.8293 -0.154181,-0.3834 -0.300551,-0.7698 -0.406992,-1.1698 -0.10731,-0.4218 -0.161103,-0.8506 -0.20657,-1.283 -0.03475,-0.3155 -0.02528,-0.632 -0.02666,-0.9491 0,0 0.109848,-0.056 0.109848,-0.056 z"
       inkscape:connector-curvature="0" />
    <path
       style="fill:#ffff0e;fill-opacity:1;stroke:#e30000;stroke-opacity:1"
       id="path4672"
       d="m 20.617509,1020.4564 c 0.0085,0.3081 -0.02255,0.6144 -0.05649,0.92 -0.04753,0.373 -0.143383,0.7368 -0.198775,1.1086 -0.0473,0.342 -0.07218,0.6865 -0.110856,1.0294 -0.01895,0.2329 -0.06736,0.4615 -0.102752,0.6921 -0.01482,0.192 -0.04107,0.3779 -0.09227,0.5637 -0.09007,0.3472 -0.186514,0.6927 -0.288366,1.0365 -0.07518,0.2687 -0.158632,0.5345 -0.232582,0.8035 -0.02845,0.097 -0.05037,0.1965 -0.0707,0.2958 0,0 -0.110419,0.053 -0.110419,0.053 l 0,0 c 0.02036,-0.1 0.04235,-0.1991 0.0711,-0.2969 0.07458,-0.2691 0.157466,-0.5354 0.233537,-0.8042 0.102488,-0.3434 0.199063,-0.6887 0.287778,-1.036 0.05091,-0.1852 0.07724,-0.3705 0.0918,-0.5619 0.03558,-0.2307 0.08508,-0.4593 0.104356,-0.6924 0.03959,-0.343 0.06426,-0.6878 0.111395,-1.0301 0.05469,-0.3717 0.151187,-0.7352 0.198821,-1.1081 0.03373,-0.3047 0.06593,-0.6102 0.0544,-0.9174 0,0 0.110018,-0.056 0.110018,-0.056 z"
       inkscape:connector-curvature="0" />
    <path
       style="fill:#ffff0e;fill-opacity:1;stroke:#e30000;stroke-opacity:1"
       id="path4674"
       d="m 19.569233,1027.2753 c 0.08347,0.3809 0.240339,0.7379 0.408206,1.0879 0.181903,0.369 0.416471,0.7058 0.663238,1.0333 0.237119,0.2889 0.42082,0.6183 0.597966,0.9463 0.13503,0.2642 0.298481,0.5116 0.463683,0.7574 0.04613,0.073 0.09148,0.1458 0.133864,0.2208 0,0 -0.10659,0.061 -0.10659,0.061 l 0,0 c -0.04204,-0.075 -0.08712,-0.1476 -0.132764,-0.2204 -0.164582,-0.2466 -0.327047,-0.495 -0.462308,-0.7594 -0.176683,-0.3277 -0.360879,-0.6559 -0.597569,-0.9445 -0.246314,-0.3288 -0.480994,-0.6663 -0.662807,-1.0363 -0.168519,-0.3504 -0.325861,-0.7076 -0.413481,-1.0882 0,0 0.108562,-0.058 0.108562,-0.058 z"
       inkscape:connector-curvature="0" />
    <path
       style="fill:#ffff0e;fill-opacity:1;stroke:#e30000;stroke-opacity:1"
       id="path4676"
       d="m 22.081093,1031.9116 c -0.361417,0.6001 -0.706336,1.2099 -1.061376,1.8138 -0.42204,0.732 -0.858594,1.4556 -1.260408,2.199 -0.201155,0.3722 -0.4779,0.9126 -0.671967,1.2885 -0.498768,0.9962 -0.998959,1.9919 -1.487588,2.9932 -0.243492,0.4603 -0.452425,0.9362 -0.65007,1.4174 0,0 -0.109793,0.051 -0.109793,0.051 l 0,0 c 0.200256,-0.4821 0.410005,-0.9596 0.655719,-1.4208 0.491431,-1.0023 0.994827,-1.9986 1.494655,-2.9967 0.188986,-0.3661 0.475784,-0.9258 0.671371,-1.2885 0.400408,-0.7426 0.835279,-1.4655 1.255209,-2.197 0.352874,-0.6017 0.695413,-1.2095 1.052302,-1.8089 0,0 0.111946,-0.051 0.111946,-0.051 z"
       inkscape:connector-curvature="0" />
    <path
       style="fill:#ffff0e;fill-opacity:1;stroke:#e30000;stroke-opacity:1"
       id="path4678"
       d="m 21.819171,1031.3772 c 0.05255,0.15 0.131429,0.2882 0.184482,0.438 0.03393,0.071 0.06185,0.1437 0.08317,0.2194 0,0 -0.10854,0.059 -0.10854,0.059 l 0,0 c -0.02095,-0.075 -0.04873,-0.148 -0.08242,-0.2189 -0.05255,-0.15 -0.130976,-0.2884 -0.185128,-0.4379 0,0 0.108438,-0.06 0.108438,-0.06 z"
       inkscape:connector-curvature="0" />
    <path
       style="fill:#ffff0e;fill-opacity:1;stroke:#e30000;stroke-opacity:1"
       id="path4680"
       d="m 19.430094,1026.9489 c -1.04e-4,0.027 -2.07e-4,0.053 -3.11e-4,0.08 0,0 -0.109566,0.056 -0.109566,0.056 l 0,0 c -1.04e-4,-0.026 -2.07e-4,-0.053 -3.11e-4,-0.08 0,0 0.110188,-0.056 0.110188,-0.056 z"
       inkscape:connector-curvature="0" />
    <path
       style="fill:#ffff0e;fill-opacity:1;stroke:#e30000;stroke-opacity:1"
       id="path4682"
       d="m 17.13879,1042.0092 c 0.15772,0.29 0.327862,0.5734 0.497469,0.8567 0.233129,0.4116 0.513956,0.7911 0.790838,1.1736 0.232854,0.3248 0.483297,0.6361 0.725321,0.9538 0.182797,0.2385 0.366038,0.4767 0.541571,0.7206 0.05493,0.1219 0.239584,0.2669 0.244674,0.4053 0.0011,0.03 -0.01204,0.058 -0.01807,0.087 -0.02011,0.032 -0.03668,0.067 -0.06033,0.097 -0.07865,0.099 -0.185626,0.1876 -0.280958,0.2675 -0.240979,0.2019 -0.496971,0.3825 -0.751341,0.5668 -0.380564,0.2752 -0.779622,0.5236 -1.149439,0.8134 -0.217838,0.177 -0.419581,0.3741 -0.61176,0.5785 -0.103214,0.103 -0.203143,0.2137 -0.27332,0.3424 7.65e-4,0.016 -0.0042,0.032 0.0023,0.047 0.03828,0.083 0.230565,0.1177 0.292047,0.1371 0.27235,0.086 0.258891,0.08 0.560456,0.1663 0.864046,0.2112 1.743542,0.3519 2.618665,0.5086 0.378281,0.067 0.765054,0.1184 1.128812,0.2475 0.147297,0.048 0.192622,0.1058 0.217103,0.2542 0.01489,0.1505 0.01321,0.3007 -0.0097,0.4501 -0.02915,0.1224 -0.093,0.2314 -0.149239,0.3426 -0.05021,0.1236 -0.119788,0.2367 -0.164349,0.3627 -0.02156,0.081 -0.0096,0.042 -0.03546,0.1171 0,0 -0.111879,0.052 -0.111879,0.052 l 0,0 c 0.02676,-0.075 0.01469,-0.036 0.03564,-0.1172 0.04353,-0.1269 0.11354,-0.24 0.163638,-0.3641 0.05537,-0.1108 0.119663,-0.2183 0.151056,-0.3393 0.02349,-0.1481 0.02608,-0.297 0.01123,-0.4465 -0.02297,-0.1452 -0.06623,-0.196 -0.209615,-0.2433 -0.361799,-0.1285 -0.745561,-0.1827 -1.121849,-0.25 -0.875166,-0.1596 -1.754969,-0.3005 -2.620202,-0.5089 -0.278646,-0.079 -0.308637,-0.085 -0.56403,-0.1643 -0.07529,-0.023 -0.258367,-0.055 -0.30215,-0.1479 -0.0076,-0.016 -0.0035,-0.035 -0.0052,-0.053 0.06807,-0.1309 0.169738,-0.2425 0.273531,-0.346 0.192025,-0.2054 0.394711,-0.4026 0.612327,-0.5808 0.370406,-0.2913 0.771171,-0.5396 1.153073,-0.8153 0.253626,-0.1838 0.508657,-0.3638 0.749144,-0.5648 0.09703,-0.081 0.198642,-0.1647 0.2797,-0.2633 0.02357,-0.029 0.04098,-0.062 0.06147,-0.093 0.007,-0.027 0.02115,-0.053 0.02086,-0.081 -0.0014,-0.1345 -0.189515,-0.2837 -0.241987,-0.4023 -0.174648,-0.2444 -0.356931,-0.4831 -0.539812,-0.7213 -0.24195,-0.3179 -0.491925,-0.6296 -0.724255,-0.9548 -0.27694,-0.3828 -0.558263,-0.7624 -0.791771,-1.1743 -0.170474,-0.2834 -0.341087,-0.567 -0.501908,-0.856 0,0 0.107723,-0.061 0.107723,-0.061 z"
       inkscape:connector-curvature="0" />
    <path
       style="fill:#ffff0e;fill-opacity:1;stroke:#e30000;stroke-opacity:1"
       id="path4684"
       d="m 17.08224,966.62588 c -0.141008,0.11619 -0.231365,0.19201 -0.389803,0.31292 -0.79336,0.60544 -0.04763,0.0125 -0.994212,0.75531 -0.607586,0.47678 -0.721791,0.57707 -1.323817,1.07325 -0.971374,0.79031 -1.91203,1.61686 -2.840743,2.45653 -0.321956,0.28147 -0.622808,0.58472 -0.926612,0.88514 -0.05169,0.0852 -0.256952,0.20302 -0.254504,0.30942 3.55e-4,0.0154 0.01075,0.0289 0.01613,0.0434 0.141582,0.15181 0.307232,0.27877 0.460706,0.41853 0.130113,0.10868 0.246458,0.22336 0.311647,0.38158 0.03861,0.24065 -0.146912,0.44511 -0.287384,0.61835 -0.247157,0.25761 -0.523376,0.49089 -0.821526,0.68784 -0.1787929,0.11812 -0.3932684,0.23104 -0.5779813,0.33335 -0.1734094,0.0921 -0.3476833,0.18379 -0.529722,0.25804 -0.098947,0.0404 -0.1952343,0.0721 -0.2890329,0.12358 0.018449,-0.007 0.04154,-0.0352 0.055347,-0.0211 0.012761,0.013 -0.025167,0.027 -0.033856,0.043 -0.00773,0.0143 -0.012857,0.0303 -0.014596,0.0464 -0.00894,0.0829 0.063882,0.13488 0.1156349,0.18521 0.2561241,0.21959 0.5311781,0.41528 0.7819868,0.64122 0.182879,0.15531 0.3517344,0.3257 0.4761125,0.53168 0.08198,0.11289 0.131605,0.23626 0.153789,0.37297 0.0071,0.15087 -0.106089,0.24577 -0.2185622,0.3251 -0.055627,0.032 -0.1112543,0.0641 -0.1668814,0.0961 0.016587,-0.009 0.055415,-0.0439 0.049761,-0.026 -0.00106,0.003 -0.1036633,0.0718 -0.1068774,0.0737 -0.052749,0.0313 -0.1086797,0.0573 -0.1599869,0.091 -0.017125,0.0112 0.03788,-0.0156 0.05682,-0.0233 -0.016048,0.0221 -0.035098,0.0423 -0.048143,0.0663 -0.1288629,0.23715 -0.2132572,0.51876 -0.3040857,0.76915 -0.1521753,0.41949 -0.3008538,0.84025 -0.4512175,1.2604 -0.4734434,1.27741 -0.9937043,2.53659 -1.4797427,3.80914 -0.2144177,0.51758 -0.404548,1.04446 -0.6069529,1.56668 -0.080358,0.24795 -0.183034,0.49373 -0.2102245,0.75481 0.028672,0.2082 0.2609591,0.27561 0.4306271,0.34393 0.2305493,0.079 0.4548091,0.17646 0.6636341,0.3024 0.1251893,0.0617 0.2012567,0.14816 0.2358603,0.28172 0.013117,0.14968 -0.1244335,0.23753 -0.2319319,0.3152 -0.1569116,0.109 -0.3152138,0.2162 -0.4762179,0.31908 -0.1282705,0.0688 -0.218855,0.18076 -0.3172904,0.28405 -0.043141,0.0447 -0.073464,0.0989 -0.1056874,0.15148 0,0 -0.1128568,0.0499 -0.1128568,0.0499 l 0,0 c 0.032238,-0.0531 0.061833,-0.10832 0.1046878,-0.15393 0.099012,-0.10328 0.1881905,-0.21759 0.3166516,-0.28701 0.1615949,-0.10202 0.3193479,-0.21022 0.4767491,-0.31857 0.1038888,-0.0735 0.243976,-0.15781 0.2372118,-0.30137 -0.032862,-0.131 -0.1081912,-0.21323 -0.2301386,-0.27397 -0.2083205,-0.12555 -0.4318433,-0.22269 -0.6619048,-0.30121 -0.1758004,-0.0711 -0.4089153,-0.14233 -0.4392464,-0.35713 0.025938,-0.26262 0.130597,-0.50942 0.2108618,-0.75875 0.2046958,-0.52338 0.3970804,-1.05147 0.6142075,-1.56999 0.4904528,-1.27233 1.0140729,-2.5317 1.485324,-3.81145 0.1484298,-0.41886 0.2950702,-0.83836 0.4438921,-1.25708 0.089496,-0.2518 0.1723404,-0.52803 0.2951025,-0.76845 0.012654,-0.0248 0.030835,-0.0463 0.046253,-0.0695 0.2369658,-0.15402 0.053282,-0.0506 0.3706698,-0.23865 0.014607,-0.009 -0.029026,0.0176 -0.043539,0.0264 0.1101616,-0.0758 0.2275709,-0.16489 0.2240439,-0.31242 -0.02119,-0.13539 -0.069945,-0.25733 -0.1506738,-0.3693 -0.1231543,-0.20525 -0.2917191,-0.3742 -0.4728731,-0.52944 -0.2509202,-0.22626 -0.5258026,-0.42257 -0.783353,-0.64091 -0.1988989,-0.19342 -0.1519754,-0.25329 0.077399,-0.39471 0.093687,-0.0493 0.1902257,-0.0814 0.288051,-0.12154 0.1809962,-0.0743 0.3544351,-0.16546 0.527007,-0.25718 0.4456836,-0.23068 0.8493496,-0.53745 1.1965866,-0.89975 0.137951,-0.16923 0.323136,-0.36966 0.290598,-0.6054 -0.06373,-0.15683 -0.179838,-0.26953 -0.307998,-0.37742 -0.154595,-0.14147 -0.322819,-0.26869 -0.464869,-0.42276 -0.0065,-0.0167 -0.01821,-0.0322 -0.01943,-0.0501 -0.0077,-0.11166 0.198966,-0.22954 0.253534,-0.31642 0.305973,-0.30132 0.608457,-0.60603 0.932718,-0.88821 0.933005,-0.8406 1.877361,-1.66867 2.851613,-2.46147 0.601848,-0.49651 0.713679,-0.59465 1.320091,-1.07211 1.006905,-0.7928 0.149437,-0.1107 0.985212,-0.75154 0.129901,-0.0996 0.257011,-0.20495 0.383717,-0.30897 0,0 0.114241,-0.0473 0.114241,-0.0473 z"
       inkscape:connector-curvature="0" />
    <path
       style="fill:#ffff0e;fill-opacity:1;stroke:#e30000;stroke-opacity:1"
       id="path4686"
       d="m 6.6730045,988.13721 c -0.123702,0.62971 -0.2484643,1.25928 -0.3751714,1.88846 -0.2193699,0.98804 -0.3704724,1.98911 -0.5196045,2.98962 -0.1485754,0.93559 -0.2398328,1.87809 -0.3126172,2.82209 -0.059262,0.79697 -0.083937,1.59584 -0.096384,2.39474 -0.00542,0.41529 -0.00546,0.83061 -0.00381,1.24593 0,0 -0.108441,0.0553 -0.108441,0.0553 l 0,0 c 3.541e-4,-0.41616 0.0018,-0.83234 0.00829,-1.24845 0.014127,-0.7996 0.039966,-1.59911 0.098991,-2.39683 0.072269,-0.94456 0.1647443,-1.88743 0.3136429,-2.82349 0.1490358,-1.0004 0.2994809,-2.00145 0.5181142,-2.98952 0.1254977,-0.62712 0.2492349,-1.25452 0.3660283,-1.88326 0,0 0.1109612,-0.0546 0.1109612,-0.0546 z"
       inkscape:connector-curvature="0" />
    <path
       style="fill:#ffff0e;fill-opacity:1;stroke:#e30000;stroke-opacity:1"
       id="path4688"
       d="m 5.5960772,999.77986 c 0.455541,0.0926 0.9060974,0.20622 1.3486276,0.34834 0.5888029,0.2142 1.1660772,0.4585 1.7351228,0.7203 0.1321586,0.058 0.2605042,0.1237 0.3904002,0.1863 0,0 -0.1018969,0.067 -0.1018969,0.067 l 0,0 c -0.1290764,-0.063 -0.2567527,-0.1291 -0.3880616,-0.1875 -0.5670622,-0.2639 -1.1430669,-0.5089 -1.7316608,-0.7209 -0.4446819,-0.1412 -0.897233,-0.25352 -1.3549728,-0.34423 0,0 0.1024415,-0.0695 0.1024415,-0.0695 z"
       inkscape:connector-curvature="0" />
    <path
       style="fill:#ffff0e;fill-opacity:1;stroke:#e30000;stroke-opacity:1"
       id="path4690"
       d="m 9.2614589,1001.2798 c -0.5062247,0.7761 -1.0429784,1.5295 -1.6033311,2.2675 -0.7470125,0.9679 -1.4974839,1.9332 -2.2433228,2.902 -0.3322312,0.408 -0.627288,0.8432 -0.9268938,1.275 -0.1379881,0.1896 -0.2763712,0.3817 -0.3731134,0.5962 0,0 -0.1118101,0.051 -0.1118101,0.051 l 0,0 c 0.095832,-0.2163 0.2356366,-0.4092 0.3747216,-0.5994 0.3015577,-0.4329 0.5977966,-0.8697 0.932787,-1.2782 0.7487768,-0.9687 1.5017057,-1.9341 2.2486094,-2.9042 0.5571879,-0.7348 1.0916982,-1.4845 1.5897225,-2.2608 0,0 0.1126307,-0.049 0.1126307,-0.049 z"
       inkscape:connector-curvature="0" />
    <path
       style="fill:#ffff0e;fill-opacity:1;stroke:#e30000;stroke-opacity:1"
       id="path4692"
       d="m 4.1880523,1008.5374 c 0.6071129,0.1723 1.2038783,0.3743 1.796406,0.5908 0.5354027,0.2016 1.0732759,0.3955 1.6122425,0.5872 0.2402292,0.1009 0.4960479,0.1571 0.7291421,0.2744 0.1392697,0.069 0.250306,0.1777 0.3764006,0.2659 0.1333213,0.097 0.2881617,0.1608 0.4396546,0.2242 0.1480918,0.056 0.2959406,0.1094 0.4520591,0.138 0.1817429,0.019 0.3640651,0.035 0.5424938,0.076 0.2118,0.056 0.407281,0.1548 0.609087,0.2371 0.130408,0.055 0.259711,0.099 0.375585,0.1816 0.01384,0.013 0.04355,0.033 0.04038,0.058 -0.0057,0.045 -0.07614,0.082 -0.101409,0.096 -0.255646,0.1439 -0.233759,0.1247 -0.494903,0.2215 -0.8305894,0.2521 -1.6783878,0.442 -2.5206972,0.6501 -0.8444046,0.2083 -1.6591495,0.5146 -2.4547643,0.8624 -0.378143,0.1579 -0.7326272,0.3622 -1.0646322,0.6009 -0.1419794,0.086 -0.2552846,0.2099 -0.3909088,0.3034 0,0 -0.1151013,0.045 -0.1151013,0.045 l 0,0 c 0.138506,-0.091 0.249572,-0.2195 0.3933149,-0.3039 0.3944329,-0.2849 0.8233198,-0.5216 1.2683773,-0.7175 0.795308,-0.3462 1.6096019,-0.6509 2.4531515,-0.8588 0.8438834,-0.2084 1.6935208,-0.3984 2.5245911,-0.6547 0.07784,-0.029 0.373757,-0.1184 0.394253,-0.1843 0.0064,-0.021 -0.02751,-0.044 -0.03599,-0.051 -0.114884,-0.081 -0.244501,-0.1239 -0.373194,-0.1797 -0.200805,-0.083 -0.395999,-0.1807 -0.607437,-0.2357 -0.1790121,-0.039 -0.3613874,-0.055 -0.5432283,-0.075 -0.1563365,-0.03 -0.3046872,-0.084 -0.4531221,-0.1405 -0.1521153,-0.064 -0.3076468,-0.128 -0.4414109,-0.2262 -0.1253864,-0.088 -0.2361109,-0.1959 -0.3749541,-0.2646 -0.2324913,-0.1163 -0.4871416,-0.1735 -0.7261964,-0.2746 -0.5375312,-0.1931 -1.0735783,-0.3893 -1.6083295,-0.59 -0.5940229,-0.2165 -1.1920974,-0.4196 -1.8024515,-0.5859 0,0 0.1015831,-0.069 0.1015831,-0.069 z"
       inkscape:connector-curvature="0" />
    <path
       style="fill:#ffff0e;fill-opacity:1;stroke:#e30000;stroke-opacity:1"
       id="path4694"
       d="m 4.4031207,1013.891 c 0.034178,0.045 0.065406,0.092 0.102534,0.135 0.2503085,0.2873 0.55613,0.5313 0.8519954,0.7686 0.3137021,0.2516 0.6346715,0.494 0.9517361,0.7414 0.6624655,0.5274 1.3119688,1.0735 1.9182312,1.6653 0.2709322,0.2645 0.5024531,0.5104 0.7638711,0.7832 0.4100805,0.4117 0.7978645,0.8458 1.2147355,1.2508 0.167746,0.163 0.340067,0.3212 0.509636,0.4823 0.363301,0.3555 0.738752,0.6977 1.121148,1.0324 0.273396,0.2432 0.553877,0.4785 0.838904,0.7079 0.08427,0.073 0.172703,0.1398 0.244293,0.2261 0,0 -0.105813,0.063 -0.105813,0.063 l 0,0 c -0.07087,-0.085 -0.158521,-0.1516 -0.24154,-0.225 -0.283723,-0.2308 -0.563919,-0.4662 -0.837071,-0.7095 -0.382073,-0.335 -0.757087,-0.6775 -1.118815,-1.0345 -0.169495,-0.1612 -0.341655,-0.3196 -0.509039,-0.483 -0.4157849,-0.4058 -0.802467,-0.8406 -1.2115874,-1.253 -0.2620074,-0.2741 -0.4906521,-0.5176 -0.7622814,-0.7835 -0.6051982,-0.5923 -1.2535237,-1.1392 -1.9168889,-1.6649 -0.3179385,-0.2471 -0.6397926,-0.4891 -0.9549349,-0.7398 -0.2983771,-0.2373 -0.6057201,-0.4806 -0.8602648,-0.7666 -0.03791,-0.043 -0.07022,-0.09 -0.1053296,-0.1347 0,0 0.1064807,-0.062 0.1064807,-0.062 z"
       inkscape:connector-curvature="0" />
    <path
       style="fill:#ffff0e;fill-opacity:1;stroke:#e30000;stroke-opacity:1"
       id="path4696"
       d="m 12.948959,1021.9673 c -0.693648,0.9288 -1.367192,1.8723 -2.058531,2.8029 -1.0321449,1.364 -2.1359817,2.6717 -3.2606566,3.9598 -0.4333147,0.4835 -0.8903341,0.944 -1.3706838,1.3805 -0.1422722,0.097 -0.2493126,0.233 -0.3791617,0.3427 -0.040469,0.03 -0.069537,0.071 -0.099634,0.1105 0,0 -0.1135877,0.049 -0.1135877,0.049 l 0,0 c 0.029886,-0.04 0.057868,-0.083 0.09861,-0.1133 0.1330081,-0.107 0.236749,-0.2492 0.3820142,-0.3432 0.4842368,-0.4375 0.945478,-0.8987 1.3822143,-1.3839 1.1287768,-1.2876 2.2359626,-2.5956 3.2685883,-3.9623 0.686349,-0.9262 1.353916,-1.8658 2.038197,-2.7934 0,0 0.112631,-0.049 0.112631,-0.049 z"
       inkscape:connector-curvature="0" />
    <path
       style="fill:#ffff0e;fill-opacity:1;stroke:#e30000;stroke-opacity:1"
       id="path4698"
       d="m 5.8121601,1030.6357 c 0.1212703,0.554 0.4247346,1.0454 0.7170293,1.5231 0.5143589,0.7361 1.1082828,1.4107 1.641718,2.1327 0.091312,0.1317 0.183713,0.2627 0.2739355,0.3951 0.090774,0.1333 0.1775255,0.2693 0.2690363,0.4021 0.3002167,0.4355 0.6212793,0.8555 0.9510155,1.2689 0.1954534,0.2372 0.4099113,0.4574 0.6205743,0.6808 0,0 -0.10442,0.063 -0.10442,0.063 l 0,0 c -0.2091662,-0.2248 -0.421944,-0.4465 -0.6164073,-0.6845 -0.3279316,-0.415 -0.6479636,-0.8359 -0.9479688,-1.2718 -0.091388,-0.1328 -0.1782066,-0.2686 -0.269007,-0.4018 -0.090223,-0.1323 -0.1826956,-0.2631 -0.2740434,-0.3947 -0.534357,-0.7217 -1.1282742,-1.3968 -1.642906,-2.1331 -0.2943705,-0.4783 -0.5987982,-0.9692 -0.7279245,-1.5227 0,0 0.1093681,-0.058 0.1093681,-0.058 z"
       inkscape:connector-curvature="0" />
    <path
       style="fill:#ffff0e;fill-opacity:1;stroke:#e30000;stroke-opacity:1"
       id="path4700"
       d="m 10.386459,1037.3423 c -0.4548566,0.7423 -0.9478548,1.4587 -1.4592743,2.1629 -0.7178721,0.9961 -1.4811254,1.958 -2.2683306,2.8998 -0.4931223,0.5897 -1.007492,1.1611 -1.4873863,1.7617 -0.2549369,0.3447 -0.5029374,0.6944 -0.754261,1.0418 -0.2240752,0.3355 -0.3814305,0.7115 -0.5482609,1.0774 -0.3740174,0.8262 -0.7046006,1.6705 -1.0821407,2.4951 -0.261524,0.5729 -0.5091634,1.1522 -0.7561582,1.7315 -0.1238886,0.2525 -0.2006754,0.5209 -0.280356,0.7888 -0.038159,0.1278 0.012083,0.2028 0.117784,0.2681 0.1336003,0.067 0.2754335,0.1142 0.4075521,0.1844 0.1122612,0.059 0.2366309,0.1 0.3277543,0.1908 0.011462,0.011 0.022924,0.023 0.034387,0.034 0,0 -0.1054998,0.065 -0.1054998,0.065 l 0,0 c -0.011448,-0.011 -0.022896,-0.023 -0.034345,-0.034 -0.090812,-0.09 -0.2147299,-0.1285 -0.3252118,-0.1881 -0.1327642,-0.069 -0.2751242,-0.1168 -0.4085251,-0.1848 -0.1080788,-0.069 -0.1634418,-0.1501 -0.125033,-0.2825 0.082613,-0.2683 0.1570636,-0.5389 0.2835607,-0.7918 0.248608,-0.5796 0.4972603,-1.1596 0.7593908,-1.7332 0.3789573,-0.8242 0.7115914,-1.6677 1.0825361,-2.4953 0.1643476,-0.3655 0.3181155,-0.7422 0.5410665,-1.0768 0.2528101,-0.348 0.5029764,-0.6978 0.7580806,-1.0441 0.4809842,-0.6019 0.9975343,-1.1737 1.4924855,-1.7641 0.7886707,-0.9411 1.5531923,-1.9026 2.2701801,-2.8998 0.5087952,-0.7013 1.000923,-1.4141 1.447374,-2.1572 0,0 0.112631,-0.049 0.112631,-0.049 z"
       inkscape:connector-curvature="0" />
    <path
       style="fill:#ffff0e;fill-opacity:1;stroke:#e30000;stroke-opacity:1"
       id="path4702"
       d="m 17.923482,966.41264 c 0.874207,0.34972 1.710786,0.78058 2.538269,1.22753 1.271875,0.72294 2.528021,1.47306 3.794677,2.20508 0.580896,0.34307 1.16404,0.68231 1.753607,1.01029 0.229318,0.13207 0.462734,0.25682 0.679704,0.40879 0.04538,0.0347 0.113211,0.0803 0.145946,0.12977 0.132688,0.20034 -0.09891,0.56704 -0.177071,0.73562 -0.481106,0.90117 -1.007977,1.77653 -1.5231,2.6583 -0.215079,0.37636 -0.43861,0.74832 -0.622935,1.14111 -0.01547,0.0388 -0.04919,0.10965 -0.04862,0.1557 0.0021,0.17207 0.264082,0.28195 0.377731,0.35081 0.740007,0.37741 1.5119,0.68712 2.263251,1.04106 0.694283,0.34231 1.33909,0.77164 1.986629,1.19287 0.286219,0.18625 0.566566,0.38116 0.852305,0.56809 0.131703,0.094 0.278959,0.16233 0.405049,0.26422 0.114443,0.0955 0.241874,0.16866 0.37709,0.23009 0.11811,0.0583 0.233865,0.10943 0.3374,0.19113 0.08106,0.0737 0.106001,0.17595 0.104299,0.28178 -0.06138,0.20422 -0.218192,0.36351 -0.35307,0.52285 -0.208411,0.2254 -0.428158,0.43989 -0.647942,0.6541 -0.157333,0.14946 -0.316016,0.29747 -0.472182,0.44815 0,0 -0.113379,0.0467 -0.113379,0.0467 l 0,0 c 0.15642,-0.15101 0.315416,-0.29929 0.473434,-0.44862 0.22019,-0.21348 0.438993,-0.42861 0.648209,-0.65293 0.133873,-0.15787 0.287093,-0.31486 0.354685,-0.51446 0.0037,-0.10207 -0.02019,-0.20109 -0.09877,-0.27173 -0.102515,-0.081 -0.218529,-0.13063 -0.335046,-0.18913 -0.135789,-0.0624 -0.264189,-0.13611 -0.379214,-0.23237 -0.125994,-0.101 -0.272493,-0.16979 -0.403424,-0.26385 -0.284551,-0.18759 -0.563353,-0.38364 -0.848366,-0.57058 -0.645269,-0.42276 -1.288427,-0.85265 -1.982169,-1.19387 -0.752811,-0.35428 -1.525701,-0.66482 -2.269085,-1.03867 -0.121694,-0.0729 -0.38239,-0.18215 -0.388228,-0.36202 -0.0016,-0.048 0.03206,-0.11796 0.04822,-0.15872 0.18591,-0.39469 0.413105,-0.76734 0.629934,-1.14543 0.516746,-0.87978 1.044145,-1.75387 1.521249,-2.65623 0.07268,-0.15776 0.304579,-0.53008 0.178489,-0.72013 -0.03178,-0.0479 -0.100602,-0.0944 -0.144465,-0.12793 -0.216367,-0.15156 -0.449042,-0.27619 -0.677084,-0.40902 -0.586768,-0.32987 -1.166423,-0.67208 -1.744965,-1.01612 -1.264081,-0.73523 -2.518802,-1.48669 -3.791704,-2.20661 -0.830654,-0.44628 -1.670785,-0.87673 -2.551706,-1.21675 0,0 0.102347,-0.0689 0.102347,-0.0689 z"
       inkscape:connector-curvature="0" />
    <path
       style="fill:#ffff0e;fill-opacity:1;stroke:#e30000;stroke-opacity:1"
       id="path4704"
       d="m 29.56922,982.25991 c 0.106234,0.30217 0.176427,0.61523 0.261358,0.92372 0.150688,0.56218 0.329785,1.11554 0.54593,1.65584 0.266911,0.6023 0.576751,1.18568 0.908005,1.7549 0.171334,0.33053 0.377635,0.63806 0.592627,0.94077 0.388734,0.5487 0.709786,1.1413 1.016715,1.73842 0.213058,0.41536 0.411702,0.83724 0.594519,1.26661 0.06775,0.16357 0.158535,0.31747 0.215392,0.48538 0.0074,0.0174 0.01481,0.0348 0.02222,0.0522 0,0 -0.107736,0.0605 -0.107736,0.0605 l 0,0 c -0.0075,-0.0177 -0.01501,-0.0354 -0.02251,-0.0531 -0.05598,-0.16794 -0.146451,-0.32182 -0.21327,-0.4855 -0.180428,-0.43025 -0.376674,-0.85309 -0.589008,-1.26872 -0.305959,-0.59704 -0.627783,-1.18879 -1.019761,-1.73467 -0.06845,-0.0955 -0.140936,-0.18817 -0.206616,-0.28561 -0.141812,-0.21037 -0.257266,-0.43835 -0.38455,-0.65731 -0.329351,-0.57092 -0.639593,-1.1546 -0.908839,-1.75639 -0.216129,-0.54072 -0.394937,-1.09453 -0.547067,-1.65669 -0.08607,-0.30771 -0.157826,-0.6201 -0.265946,-0.92111 0,0 0.108536,-0.0592 0.108536,-0.0592 z"
       inkscape:connector-curvature="0" />
    <path
       style="fill:#ffff0e;fill-opacity:1;stroke:#e30000;stroke-opacity:1"
       id="path4706"
       d="m 33.73064,991.40214 c -0.671345,1.18366 -1.352723,2.36111 -2.069429,3.51792 -0.568787,0.90372 -1.16394,1.79328 -1.815123,2.64017 -0.286626,0.37277 -0.409953,0.51454 -0.701116,0.86413 -0.321891,0.36863 -0.65109,0.73048 -1.000732,1.07282 -0.01971,0.0219 -0.03942,0.0439 -0.05914,0.0658 0,0 -0.113129,0.0476 -0.113129,0.0476 l 0,0 c 0.01982,-0.0223 0.03963,-0.0445 0.05945,-0.0668 0.352467,-0.3436 0.686221,-0.70512 1.010494,-1.07562 0.29441,-0.35167 0.415576,-0.48997 0.705409,-0.86534 0.653841,-0.8468 1.251425,-1.7367 1.821033,-2.64174 0.713623,-1.1524 1.392015,-2.32547 2.051483,-3.50969 0,0 0.110801,-0.0492 0.110801,-0.0492 z"
       inkscape:connector-curvature="0" />
    <path
       style="fill:#ffff0e;fill-opacity:1;stroke:#e30000;stroke-opacity:1"
       id="path4708"
       d="m 28.04968,999.82738 c 0.560682,0.54142 1.110505,1.09392 1.669441,1.63712 0.6749,0.6411 1.361875,1.2696 2.030004,1.9177 0.222052,0.2127 0.447626,0.4221 0.660712,0.6439 0,0 -0.1043,0.064 -0.1043,0.064 l 0,0 c -0.211358,-0.2227 -0.435308,-0.4329 -0.655742,-0.6464 -0.664888,-0.6507 -1.349818,-1.2807 -2.024868,-1.9208 -0.560757,-0.5429 -1.112244,-1.0954 -1.67999,-1.63093 0,0 0.104743,-0.0642 0.104743,-0.0642 z"
       inkscape:connector-curvature="0" />
    <path
       style="fill:#ffff0e;fill-opacity:1;stroke:#e30000;stroke-opacity:1"
       id="path4710"
       d="m 32.533933,1004.3815 c -0.108782,0.185 -0.208293,0.3757 -0.305301,0.5671 -0.14483,0.3093 -0.294505,0.6164 -0.452451,0.9192 -0.0889,0.1773 -0.169181,0.36 -0.23732,0.5465 -0.05805,0.1062 -0.08984,0.2118 -0.09095,0.3326 0.05859,0.2325 0.21124,0.4185 0.359602,0.6001 0.277523,0.3396 0.08113,0.095 0.377521,0.4678 0.390331,0.5009 0.761025,1.0167 1.142597,1.5243 0.233647,0.3242 0.485159,0.6349 0.727934,0.9522 0.173193,0.2093 0.32753,0.4332 0.498164,0.6444 0.109868,0.1133 0.191448,0.239 0.231139,0.3916 0.02773,0.13 0.02726,0.2585 -0.0021,0.3874 -0.175218,0.4657 -0.428461,0.8988 -0.669506,1.3326 -0.533392,0.9779 -1.211356,1.8623 -1.908052,2.7272 -0.717225,0.8548 -1.473891,1.6752 -2.213639,2.5103 -0.313386,0.3503 -0.615669,0.7106 -0.905824,1.0803 -0.05341,0.067 -0.09119,0.1439 -0.133678,0.2178 0,0 -0.112596,0.05 -0.112596,0.05 l 0,0 c 0.04336,-0.074 0.08056,-0.1522 0.134413,-0.22 0.292119,-0.3713 0.597364,-0.7323 0.912713,-1.084 0.741832,-0.8353 1.500458,-1.656 2.218772,-2.5119 0.695412,-0.8633 1.371794,-1.7463 1.90316,-2.7229 0.239095,-0.4319 0.488345,-0.8634 0.663416,-1.3262 0.02989,-0.1271 0.03126,-0.2534 0.0044,-0.382 -0.03834,-0.1512 -0.119365,-0.2751 -0.227637,-0.3875 -0.169896,-0.2118 -0.323863,-0.436 -0.496934,-0.6455 -0.24259,-0.3174 -0.49276,-0.629 -0.725965,-0.9535 -0.379842,-0.5087 -0.749644,-1.025 -1.141047,-1.5248 -0.317467,-0.3961 -0.08327,-0.1066 -0.379434,-0.4666 -0.150773,-0.1832 -0.304685,-0.3711 -0.367015,-0.6054 -0.0011,-0.1222 0.02789,-0.2297 0.08877,-0.3363 0.06762,-0.1876 0.150303,-0.3705 0.238759,-0.549 0.158372,-0.3024 0.308632,-0.6092 0.452303,-0.9188 0.09576,-0.1913 0.194789,-0.3817 0.303037,-0.5661 0,0 0.112722,-0.051 0.112722,-0.051 z"
       inkscape:connector-curvature="0" />
    <path
       style="fill:#ffff0e;fill-opacity:1;stroke:#e30000;stroke-opacity:1"
       id="path4712"
       d="m 29.069237,1019.5801 c 0.198365,0.5064 0.543765,0.9425 0.866317,1.3746 0.692122,0.8967 1.409184,1.7739 2.143076,2.6366 0.409439,0.469 0.804773,0.9524 1.241007,1.3974 0.11581,0.1181 0.389075,0.376 0.515005,0.4957 0.285551,0.2503 0.524406,0.5405 0.74091,0.8503 0.09403,0.1325 0.159932,0.2816 0.243128,0.4202 0.06847,0.1251 0.122242,0.2571 0.184087,0.3852 0.04936,0.1159 0.09112,0.2313 0.151469,0.3421 0.06667,0.1225 0.03637,0.1798 -0.0613,0.2666 -0.09958,0.08 -0.209053,0.1455 -0.307022,0.2273 -0.144144,0.1266 -0.26004,0.2799 -0.370543,0.4356 -0.142119,0.2003 -0.276459,0.4063 -0.407076,0.6143 -0.142826,0.188 -0.229434,0.4013 -0.317953,0.6182 -0.518534,1.1805 -1.080677,2.3412 -1.655649,3.495 -0.646685,1.303 -1.36574,2.5676 -2.053447,3.8489 -0.361371,0.6533 -0.684699,1.3264 -1.027647,1.9892 -0.124513,0.2169 -0.241196,0.4379 -0.360731,0.6573 -0.03875,0.074 -0.02117,0.037 -0.05313,0.1095 0,0 -0.112265,0.052 -0.112265,0.052 l 0,0 c 0.03158,-0.073 0.01404,-0.036 0.05304,-0.1108 0.122166,-0.2189 0.237012,-0.4423 0.364468,-0.6585 0.346515,-0.664 0.672804,-1.3386 1.036586,-1.9935 0.689843,-1.2813 1.410899,-2.5461 2.057495,-3.8503 0.573107,-1.1504 1.134086,-2.3076 1.642828,-3.4881 0.08659,-0.2178 0.170494,-0.4317 0.314482,-0.619 0.1305,-0.2084 0.265614,-0.4142 0.407164,-0.6151 0.109794,-0.1563 0.225084,-0.31 0.368096,-0.438 0.09642,-0.084 0.206626,-0.1481 0.306719,-0.2271 0.09737,-0.08 0.134673,-0.1308 0.06876,-0.2515 -0.06047,-0.111 -0.102443,-0.2265 -0.15142,-0.3428 -0.06163,-0.1279 -0.115501,-0.2594 -0.183742,-0.3841 -0.08262,-0.1387 -0.148437,-0.2875 -0.241521,-0.4202 -0.214629,-0.3098 -0.451367,-0.6002 -0.734929,-0.8511 -0.118061,-0.113 -0.406505,-0.3873 -0.513771,-0.4972 -0.43506,-0.4461 -0.829253,-0.9304 -1.238157,-1.3999 -0.73316,-0.8638 -1.449266,-1.7421 -2.146084,-2.6355 -0.325618,-0.4323 -0.671722,-0.8686 -0.876817,-1.3741 0,0 0.10857,-0.059 0.10857,-0.059 z"
       inkscape:connector-curvature="0" />
    <path
       style="fill:#ffff0e;fill-opacity:1;stroke:#e30000;stroke-opacity:1"
       id="path4714"
       d="m 28.49953,1039.8459 c 0.0385,0.5604 0.136407,1.1146 0.251514,1.6636 0.151826,0.6278 0.348065,1.2438 0.524641,1.8649 0.103524,0.4266 0.195015,0.8562 0.286677,1.2855 0.142046,0.6747 0.293837,1.3476 0.442645,2.021 0.129951,0.5513 0.300405,1.0909 0.507256,1.6178 0.120466,0.3158 0.244507,0.6307 0.348064,0.9525 0.04042,0.1485 0.06807,0.3002 0.09865,0.4511 0.01434,0.1422 0.04681,0.2814 0.06971,0.4224 0.0096,0.1712 0.05904,0.3336 0.108312,0.4967 0.05268,0.215 0.127333,0.4234 0.180791,0.6382 0.01995,0.1534 0.07596,0.2972 0.122631,0.4434 0.03467,0.1049 0.06368,0.213 0.102526,0.3165 0.04398,0.098 0.0588,0.2039 0.06792,0.31 0,0 -0.10959,0.057 -0.10959,0.057 l 0,0 c -0.0087,-0.1051 -0.02288,-0.2097 -0.06648,-0.3069 -0.0391,-0.1036 -0.06776,-0.2121 -0.102477,-0.3172 -0.04644,-0.1467 -0.10288,-0.2907 -0.122339,-0.4446 -0.05264,-0.2148 -0.127367,-0.423 -0.180225,-0.6377 -0.04948,-0.1634 -0.101102,-0.3259 -0.109978,-0.4977 -0.02256,-0.1409 -0.05545,-0.2798 -0.06957,-0.422 -0.03019,-0.1506 -0.05793,-0.3019 -0.0969,-0.4504 -0.101885,-0.3223 -0.225093,-0.6375 -0.344684,-0.9535 -0.206312,-0.528 -0.37721,-1.0682 -0.505695,-1.6208 -0.147861,-0.6733 -0.300543,-1.3457 -0.44518,-2.0197 -0.09254,-0.4289 -0.184713,-0.858 -0.286387,-1.2848 -0.174053,-0.6224 -0.369491,-1.239 -0.522309,-1.867 -0.115864,-0.5485 -0.213534,-1.1019 -0.258629,-1.6613 0,0 0.109108,-0.057 0.109108,-0.057 z"
       inkscape:connector-curvature="0" />
  </g>
</svg>
