<?xml version="1.0" encoding="UTF-8" standalone="no"?>
<!-- Created with Inkscape (http://www.inkscape.org/) -->

<svg
   xmlns:osb="http://www.openswatchbook.org/uri/2009/osb"
   xmlns:dc="http://purl.org/dc/elements/1.1/"
   xmlns:cc="http://creativecommons.org/ns#"
   xmlns:rdf="http://www.w3.org/1999/02/22-rdf-syntax-ns#"
   xmlns:svg="http://www.w3.org/2000/svg"
   xmlns="http://www.w3.org/2000/svg"
   xmlns:sodipodi="http://sodipodi.sourceforge.net/DTD/sodipodi-0.dtd"
   xmlns:inkscape="http://www.inkscape.org/namespaces/inkscape"
   width="93"
   height="40"
   viewBox="0 0 93 40"
   id="svg2"
   version="1.1"
   inkscape:version="0.91 r13725"
   sodipodi:docname="vzriv.svg">
  <defs
     id="defs4">
    <linearGradient
       id="linearGradient5709"
       osb:paint="solid">
      <stop
         style="stop-color:#000000;stop-opacity:1;"
         offset="0"
         id="stop5711" />
    </linearGradient>
  </defs>
  <sodipodi:namedview
     id="base"
     pagecolor="#ffffff"
     bordercolor="#666666"
     borderopacity="1.0"
     inkscape:pageopacity="0.0"
     inkscape:pageshadow="2"
     inkscape:zoom="4.7677986"
     inkscape:cx="117.86178"
     inkscape:cy="2.070119"
     inkscape:document-units="px"
     inkscape:current-layer="layer1"
     showgrid="false"
     units="px"
     inkscape:window-width="1366"
     inkscape:window-height="706"
     inkscape:window-x="-8"
     inkscape:window-y="-8"
     inkscape:window-maximized="1" />
  <metadata
     id="metadata7">
    <rdf:RDF>
      <cc:Work
         rdf:about="">
        <dc:format>image/svg+xml</dc:format>
        <dc:type
           rdf:resource="http://purl.org/dc/dcmitype/StillImage" />
        <dc:title></dc:title>
      </cc:Work>
    </rdf:RDF>
  </metadata>
  <g
     inkscape:label="Layer 1"
     inkscape:groupmode="layer"
     id="layer1"
     transform="translate(0,-1012.3622)">
    <path
       style="fill:#ffff00;fill-opacity:1;stroke:none;stroke-opacity:0.9888268"
       d=""
       id="path4146"
       inkscape:connector-curvature="0"
       transform="translate(0,802.36216)" />
    <ellipse
       style="fill:#ff0000;fill-opacity:1;stroke:none;stroke-opacity:0.9888268"
       id="path4190"
       cx="6.3112369"
       cy="1036.0804"
       rx="1.4142135"
       ry="0.88388348" />
    <circle
       style="fill:#ff0000;fill-opacity:1;stroke:none;stroke-opacity:0.9888268"
       id="path4192"
       cx="14.442966"
       cy="1032.7217"
       r="0.70710677" />
    <ellipse
       style="fill:#000080;fill-opacity:1;stroke:none;stroke-opacity:0.9888268"
       id="path4208"
       cx="11.084201"
       cy="1035.1965"
       rx="0.88388348"
       ry="1.0606601" />
    <path
       style="fill:#ffff00;fill-opacity:1;stroke:none;stroke-opacity:1"
       d=""
       id="path4234"
       inkscape:connector-curvature="0"
       transform="translate(0,802.36216)" />
    <path
       style="fill:none;fill-rule:evenodd;stroke:#ffe300;stroke-width:1px;stroke-linecap:butt;stroke-linejoin:miter;stroke-opacity:1"
       d="m 19.247752,1034.6186 2.14491,-5.1478 1.71592,4.5043 5.14777,-2.7884 -1.71593,3.6464 5.79124,0.6434 -4.71878,1.716 1.07245,3.2173 -4.07532,-1.7159 -1.93041,2.7884 -1.07245,-3.0029 -4.5043,1.2869 1.28694,-2.7883 -4.93328,-3.0029 z"
       id="path3430"
       inkscape:connector-curvature="0" />
    <path
       style="fill:#ff0000;fill-opacity:1;stroke:none;stroke-opacity:1"
       d="m 21.998902,1038.6656 c -0.21211,-0.5899 -0.40039,-1.0725 -0.41841,-1.0725 -0.0528,0 -2.83953,0.8013 -3.34818,0.9627 l -0.4648,0.1476 0.44298,-0.8683 c 0.24364,-0.4776 0.44298,-0.9712 0.44298,-1.0968 0,-0.1257 -0.60325,-0.616 -1.34056,-1.0896 l -1.34057,-0.8612 1.67769,0.062 1.67769,0.062 0.77233,-1.8768 c 0.42478,-1.0322 0.82807,-1.8764 0.8962,-1.8759 0.0681,5e-4 0.40884,0.7727 0.75715,1.716 0.34831,0.9432 0.66831,1.715 0.71112,1.715 0.0428,0 0.95261,-0.4827 2.0218,-1.0725 1.06918,-0.5898 1.98121,-1.0725 2.02672,-1.0725 0.0455,0 -0.2082,0.5764 -0.56381,1.2809 -0.35561,0.7044 -0.64656,1.3231 -0.64656,1.3749 0,0.052 0.82043,0.1625 1.82317,0.246 1.00274,0.083 1.82317,0.217 1.82317,0.2966 0,0.079 -0.53087,0.3251 -1.1797,0.5456 -0.64883,0.2206 -1.1797,0.4647 -1.1797,0.5425 0,0.078 0.15564,0.5982 0.34586,1.1565 0.19022,0.5582 0.30922,1.0517 0.26443,1.0964 -0.0448,0.045 -0.74792,-0.1997 -1.56252,-0.5434 -1.63453,-0.6896 -1.72937,-0.6679 -2.49451,0.5701 -0.24699,0.3996 -0.51865,0.7266 -0.6037,0.7266 -0.085,0 -0.32816,-0.4826 -0.54027,-1.0724 z"
       id="path3434"
       inkscape:connector-curvature="0" />
    <path
       style="fill:#ff0000;fill-rule:evenodd;stroke:#fff800;stroke-width:1px;stroke-linecap:butt;stroke-linejoin:miter;stroke-opacity:1"
       d="m 2.3602719,1046.2296 c 0,3.4319 -3.64634,4.7188 0.42898,3.8609 4.07531,-0.858 4.07531,-0.858 4.07531,-0.858 l 7.2926801,2.5739 -2.14491,-7.0782 5.36226,-1.7159 -6.00573,-2.3594 -1.7159201,-4.0753 -2.57389,4.7188 -4.2898,-0.6435 z"
       id="path3436"
       inkscape:connector-curvature="0" />
    <path
       style="fill:none;fill-rule:evenodd;stroke:#f90000;stroke-width:1px;stroke-linecap:butt;stroke-linejoin:miter;stroke-opacity:1"
       d="m 20.061782,1016.1378 c -2.97381,3.3455 -2.97381,3.5314 -2.97381,3.5314 l 3.15967,1.8586 -2.78795,2.9738 2.78795,2.0445 -2.60208,2.6021 3.34553,2.2303 1.67277,3.5314 2.23036,-3.5314 -2.23036,-2.0445 4.46072,-0.5576 -2.23036,-2.4162 3.5314,-1.4869 -3.5314,-2.4162 4.83244,-1.1152 -4.08899,-2.0445 3.5314,-1.301 -3.5314,-1.1152 -1.30104,-3.1597 -1.4869,2.0445 z"
       id="path4284"
       inkscape:connector-curvature="0" />
    <path
       style="fill:#6c5353;fill-opacity:1;stroke:#fff800;stroke-width:0.18586315;stroke-opacity:1"
       d="m 22.072262,1032.2939 c -0.61174,-1.3098 -0.73588,-1.4484 -2.06527,-2.3065 l -1.41441,-0.913 1.21971,-1.2291 c 0.67084,-0.676 1.21971,-1.2819 1.21971,-1.3463 0,-0.064 -0.58774,-0.5528 -1.30609,-1.0854 -1.49064,-1.105 -1.50981,-0.8955 0.24884,-2.719 0.60628,-0.6286 1.04819,-1.2305 0.98202,-1.3375 -0.0662,-0.1071 -0.74541,-0.5504 -1.50944,-0.9851 -0.76403,-0.4347 -1.38914,-0.841 -1.38914,-0.903 0,-0.062 0.50879,-0.7053 1.13065,-1.4296 l 1.13065,-1.317 1.42084,-0.2113 c 0.78146,-0.1162 1.47111,-0.2717 1.53255,-0.3456 0.0614,-0.074 0.29079,-0.3723 0.50966,-0.6633 l 0.39794,-0.529 0.47025,1.0633 c 0.25864,0.5848 0.47026,1.1213 0.47026,1.1921 0,0.071 0.46001,0.2738 1.02224,0.451 0.56224,0.1773 1.02225,0.3486 1.02225,0.3808 0,0.032 -0.62729,0.2873 -1.39397,0.567 -0.76669,0.2796 -1.39398,0.5672 -1.39398,0.6391 0,0.072 0.76232,0.4888 1.69403,0.9264 0.93172,0.4376 1.62174,0.8616 1.53337,0.9422 -0.0884,0.081 -1.01795,0.3375 -2.06575,0.571 -1.0478,0.2335 -1.90202,0.4741 -1.89826,0.5346 0.004,0.061 0.79947,0.6455 1.76824,1.3 0.96877,0.6546 1.73934,1.2095 1.71239,1.2333 -0.0269,0.024 -0.71811,0.3167 -1.5359,0.6509 -0.8178,0.3343 -1.51872,0.6336 -1.55761,0.6651 -0.0389,0.032 0.35851,0.5528 0.8831,1.1583 l 0.9538,1.101 -1.90535,0.2177 c -1.04794,0.1197 -2.03981,0.2755 -2.20415,0.3462 -0.23384,0.1006 -0.009,0.3946 1.03453,1.3524 l 1.33333,1.224 -0.70009,1.0989 -0.7001,1.0989 -0.65085,-1.3935 z"
       id="path4288"
       inkscape:connector-curvature="0" />
    <path
       style="fill:none;fill-rule:evenodd;stroke:#fb0000;stroke-width:1px;stroke-linecap:butt;stroke-linejoin:miter;stroke-opacity:1"
       d="m 5.7123619,1023.2465 c -2.97381,3.3455 -2.97381,3.5314 -2.97381,3.5314 l 3.15967,1.8586 -2.78795,2.9738 2.78795,2.0445 -2.60208,2.6021 3.34553,2.2303 1.67277,3.5314 2.2303601,-3.5314 -2.2303601,-2.0445 4.4607201,-0.5576 -2.23036,-2.4162 3.5314,-1.4869 -3.5314,-2.4162 4.83244,-1.1151 -4.08899,-2.0445 3.5314,-1.3011 -3.5314,-1.1151 -1.3010401,-3.1597 -1.4869,2.0445 z"
       id="path4284-1"
       inkscape:connector-curvature="0" />
    <path
       style="fill:#6c5353;fill-opacity:1;stroke:#fff800;stroke-width:0.18586315;stroke-opacity:1"
       d="m 7.7228419,1039.4026 c -0.61174,-1.3098 -0.73588,-1.4484 -2.06527,-2.3065 l -1.41441,-0.913 1.21971,-1.2291 c 0.67084,-0.676 1.21971,-1.2819 1.21971,-1.3463 0,-0.064 -0.58774,-0.5528 -1.30609,-1.0854 -1.49064,-1.105 -1.50981,-0.8955 0.24884,-2.7189 0.60628,-0.6286 1.04819,-1.2306 0.98202,-1.3376 -0.0662,-0.1071 -0.74541,-0.5503 -1.50944,-0.985 -0.76403,-0.4347 -1.38914,-0.8411 -1.38914,-0.9031 0,-0.062 0.50879,-0.7053 1.13065,-1.4296 l 1.13065,-1.3169 1.42084,-0.2114 c 0.78146,-0.1162 1.47111,-0.2717 1.53255,-0.3455 0.0614,-0.074 0.29079,-0.3723 0.50966,-0.6633 l 0.39794,-0.5291 0.4702501,1.0633 c 0.25864,0.5849 0.47026,1.1213 0.47026,1.1921 0,0.071 0.46001,0.2738 1.02224,0.4511 0.56224,0.1772 1.02225,0.3485 1.02225,0.3807 0,0.032 -0.62729,0.2874 -1.39397,0.567 -0.76669,0.2796 -1.39398,0.5672 -1.39398,0.6391 0,0.072 0.76232,0.4888 1.69403,0.9264 0.93172,0.4376 1.62174,0.8616 1.53337,0.9422 -0.0884,0.081 -1.01795,0.3376 -2.06575,0.5711 -1.0478,0.2335 -1.9020201,0.474 -1.8982601,0.5345 0.004,0.061 0.7994701,0.6455 1.7682401,1.3001 0.96877,0.6545 1.73934,1.2094 1.71239,1.2332 -0.0269,0.024 -0.71811,0.3167 -1.5359,0.6509 -0.8178,0.3343 -1.5187201,0.6336 -1.5576101,0.6651 -0.0389,0.032 0.3585101,0.5528 0.8831001,1.1583 l 0.9538,1.101 -1.9053501,0.2177 c -1.04794,0.1197 -2.03981,0.2755 -2.20415,0.3462 -0.23384,0.1006 -0.009,0.3946 1.03453,1.3524 l 1.33333,1.224 -0.70009,1.0989 -0.7001,1.0989 -0.65085,-1.3935 z"
       id="path4288-6"
       inkscape:connector-curvature="0" />
    <ellipse
       style="fill:#ff0000;fill-opacity:1;stroke:none;stroke-opacity:0.9888268"
       id="path4190-3"
       cx="37.725327"
       cy="1035.8619"
       rx="1.4142135"
       ry="0.88388348" />
    <circle
       style="fill:#ff0000;fill-opacity:1;stroke:none;stroke-opacity:0.9888268"
       id="path4192-3"
       cx="45.857056"
       cy="1032.5033"
       r="0.70710677" />
    <ellipse
       style="fill:#000080;fill-opacity:1;stroke:none;stroke-opacity:0.9888268"
       id="path4208-3"
       cx="42.498291"
       cy="1034.978"
       rx="0.88388348"
       ry="1.0606601" />
    <path
       style="fill:#ff0000;fill-opacity:1;stroke:none;stroke-opacity:1"
       d="m 53.412992,1038.4471 c -0.21211,-0.5899 -0.40039,-1.0725 -0.41841,-1.0725 -0.0528,0 -2.83953,0.8013 -3.34818,0.9627 l -0.4648,0.1476 0.44298,-0.8683 c 0.24364,-0.4776 0.44298,-0.9712 0.44298,-1.0968 0,-0.1257 -0.60325,-0.616 -1.34056,-1.0896 l -1.34057,-0.8612 1.67769,0.062 1.67769,0.062 0.77233,-1.8768 c 0.42478,-1.0322 0.82807,-1.8764 0.8962,-1.8759 0.0681,5e-4 0.40884,0.7727 0.75715,1.716 0.34831,0.9432 0.66831,1.715 0.71112,1.715 0.0428,0 0.95261,-0.4827 2.0218,-1.0725 1.06918,-0.5898 1.98121,-1.0725 2.02672,-1.0725 0.0455,0 -0.2082,0.5764 -0.56381,1.2809 -0.35561,0.7044 -0.64656,1.3231 -0.64656,1.3749 0,0.052 0.82043,0.1625 1.82317,0.246 1.00274,0.083 1.82317,0.217 1.82317,0.2966 0,0.079 -0.53087,0.3251 -1.1797,0.5456 -0.64883,0.2206 -1.1797,0.4647 -1.1797,0.5425 0,0.078 0.15564,0.5982 0.34586,1.1565 0.19022,0.5582 0.30922,1.0517 0.26443,1.0964 -0.0448,0.045 -0.74792,-0.1997 -1.56252,-0.5434 -1.63453,-0.6896 -1.72937,-0.6679 -2.49451,0.5701 -0.24699,0.3996 -0.51865,0.7266 -0.6037,0.7266 -0.085,0 -0.32816,-0.4826 -0.54027,-1.0724 z"
       id="path3434-5"
       inkscape:connector-curvature="0" />
    <path
       style="fill:#ff0000;fill-rule:evenodd;stroke:#fff800;stroke-width:1px;stroke-linecap:butt;stroke-linejoin:miter;stroke-opacity:1"
       d="m 33.774362,1046.0111 c 0,3.4319 -3.64634,4.7188 0.42898,3.8609 4.07531,-0.858 4.07531,-0.858 4.07531,-0.858 l 7.29268,2.5739 -2.14491,-7.0782 5.36226,-1.7159 -6.00573,-2.3594 -1.71592,-4.0753 -2.57389,4.7188 -4.2898,-0.6435 z"
       id="path3436-5"
       inkscape:connector-curvature="0" />
    <path
       style="fill:none;fill-rule:evenodd;stroke:#f90000;stroke-width:1px;stroke-linecap:butt;stroke-linejoin:miter;stroke-opacity:1"
       d="m 51.475872,1015.9193 c -2.97381,3.3455 -2.97381,3.5314 -2.97381,3.5314 l 3.15967,1.8586 -2.78795,2.9738 2.78795,2.0445 -2.60208,2.6021 3.34553,2.2303 1.67277,3.5314 2.23036,-3.5314 -2.23036,-2.0445 4.46072,-0.5576 -2.23036,-2.4162 3.5314,-1.4869 -3.5314,-2.4162 4.83244,-1.1152 -4.08899,-2.0445 3.5314,-1.301 -3.5314,-1.1152 -1.30104,-3.1597 -1.4869,2.0445 z"
       id="path4284-0"
       inkscape:connector-curvature="0" />
    <path
       style="fill:#6c5353;fill-opacity:1;stroke:#fff800;stroke-width:0.18586315;stroke-opacity:1"
       d="m 53.486352,1032.0754 c -0.61174,-1.3098 -0.73588,-1.4484 -2.06527,-2.3065 l -1.41441,-0.913 1.21971,-1.2291 c 0.67084,-0.676 1.21971,-1.2819 1.21971,-1.3463 0,-0.064 -0.58774,-0.5528 -1.30609,-1.0854 -1.49064,-1.105 -1.50981,-0.8955 0.24884,-2.719 0.60628,-0.6286 1.04819,-1.2305 0.98202,-1.3375 -0.0662,-0.1071 -0.74541,-0.5504 -1.50944,-0.9851 -0.76403,-0.4347 -1.38914,-0.841 -1.38914,-0.903 0,-0.062 0.50879,-0.7053 1.13065,-1.4296 l 1.13065,-1.317 1.42084,-0.2113 c 0.78146,-0.1162 1.47111,-0.2717 1.53255,-0.3456 0.0614,-0.074 0.29079,-0.3723 0.50966,-0.6633 l 0.39794,-0.529 0.47025,1.0633 c 0.25864,0.5848 0.47026,1.1213 0.47026,1.1921 0,0.071 0.46001,0.2738 1.02224,0.451 0.56224,0.1773 1.02225,0.3486 1.02225,0.3808 0,0.032 -0.62729,0.2873 -1.39397,0.567 -0.76669,0.2796 -1.39398,0.5672 -1.39398,0.6391 0,0.072 0.76232,0.4888 1.69403,0.9264 0.93172,0.4376 1.62174,0.8616 1.53337,0.9422 -0.0884,0.081 -1.01795,0.3375 -2.06575,0.571 -1.0478,0.2335 -1.90202,0.4741 -1.89826,0.5346 0.004,0.061 0.79947,0.6455 1.76824,1.3 0.96877,0.6546 1.73934,1.2095 1.71239,1.2333 -0.0269,0.024 -0.71811,0.3167 -1.5359,0.6509 -0.8178,0.3343 -1.51872,0.6336 -1.55761,0.6651 -0.0389,0.032 0.35851,0.5528 0.8831,1.1583 l 0.9538,1.101 -1.90535,0.2177 c -1.04794,0.1197 -2.03981,0.2755 -2.20415,0.3462 -0.23384,0.1006 -0.009,0.3946 1.03453,1.3524 l 1.33333,1.224 -0.70009,1.0989 -0.7001,1.0989 -0.65085,-1.3935 z"
       id="path4288-5"
       inkscape:connector-curvature="0" />
    <path
       style="fill:none;fill-rule:evenodd;stroke:#fb0000;stroke-width:1px;stroke-linecap:butt;stroke-linejoin:miter;stroke-opacity:1"
       d="m 37.126452,1023.028 c -2.97381,3.3455 -2.97381,3.5314 -2.97381,3.5314 l 3.15967,1.8586 -2.78795,2.9738 2.78795,2.0445 -2.60208,2.6021 3.34553,2.2303 1.67277,3.5314 2.23036,-3.5314 -2.23036,-2.0445 4.46072,-0.5576 -2.23036,-2.4162 3.5314,-1.4869 -3.5314,-2.4162 4.83244,-1.1151 -4.08899,-2.0445 3.5314,-1.3011 -3.5314,-1.1151 -1.30104,-3.1597 -1.4869,2.0445 z"
       id="path4284-1-0"
       inkscape:connector-curvature="0" />
    <path
       style="fill:#6c5353;fill-opacity:1;stroke:#fff800;stroke-width:0.18586315;stroke-opacity:1"
       d="m 39.136932,1039.1841 c -0.61174,-1.3098 -0.73588,-1.4484 -2.06527,-2.3065 l -1.41441,-0.913 1.21971,-1.2291 c 0.67084,-0.676 1.21971,-1.2819 1.21971,-1.3463 0,-0.064 -0.58774,-0.5528 -1.30609,-1.0854 -1.49064,-1.105 -1.50981,-0.8955 0.24884,-2.7189 0.60628,-0.6286 1.04819,-1.2306 0.98202,-1.3376 -0.0662,-0.1071 -0.74541,-0.5503 -1.50944,-0.985 -0.76403,-0.4347 -1.38914,-0.8411 -1.38914,-0.9031 0,-0.062 0.50879,-0.7053 1.13065,-1.4296 l 1.13065,-1.3169 1.42084,-0.2114 c 0.78146,-0.1162 1.47111,-0.2717 1.53255,-0.3455 0.0614,-0.074 0.29079,-0.3723 0.50966,-0.6633 l 0.39794,-0.5291 0.47025,1.0633 c 0.25864,0.5849 0.47026,1.1213 0.47026,1.1921 0,0.071 0.46001,0.2738 1.02224,0.4511 0.56224,0.1772 1.02225,0.3485 1.02225,0.3807 0,0.032 -0.62729,0.2874 -1.39397,0.567 -0.76669,0.2796 -1.39398,0.5672 -1.39398,0.6391 0,0.072 0.76232,0.4888 1.69403,0.9264 0.93172,0.4376 1.62174,0.8616 1.53337,0.9422 -0.0884,0.081 -1.01795,0.3376 -2.06575,0.5711 -1.0478,0.2335 -1.90202,0.474 -1.89826,0.5345 0.004,0.061 0.79947,0.6455 1.76824,1.3001 0.96877,0.6545 1.73934,1.2094 1.71239,1.2332 -0.0269,0.024 -0.71811,0.3167 -1.5359,0.6509 -0.8178,0.3343 -1.51872,0.6336 -1.55761,0.6651 -0.0389,0.032 0.35851,0.5528 0.8831,1.1583 l 0.9538,1.101 -1.90535,0.2177 c -1.04794,0.1197 -2.03981,0.2755 -2.20415,0.3462 -0.23384,0.1006 -0.009,0.3946 1.03453,1.3524 l 1.33333,1.224 -0.70009,1.0989 -0.7001,1.0989 -0.65085,-1.3935 z"
       id="path4288-6-0"
       inkscape:connector-curvature="0" />
    <ellipse
       style="fill:#ff0000;fill-opacity:1;stroke:none;stroke-opacity:0.9888268"
       id="path4190-0"
       cx="67.508469"
       cy="1035.8621"
       rx="1.4142135"
       ry="0.88388348" />
    <circle
       style="fill:#ff0000;fill-opacity:1;stroke:none;stroke-opacity:0.9888268"
       id="path4192-8"
       cx="75.640198"
       cy="1032.5033"
       r="0.70710677" />
    <ellipse
       style="fill:#000080;fill-opacity:1;stroke:none;stroke-opacity:0.9888268"
       id="path4208-9"
       cx="72.281433"
       cy="1034.9781"
       rx="0.88388348"
       ry="1.0606601" />
    <path
       style="fill:#ff0000;fill-opacity:1;stroke:none;stroke-opacity:1"
       d="m 83.19613,1038.4472 c -0.21211,-0.5899 -0.40039,-1.0725 -0.41841,-1.0725 -0.0528,0 -2.83953,0.8013 -3.34818,0.9627 l -0.4648,0.1476 0.44298,-0.8683 c 0.24364,-0.4776 0.44298,-0.9712 0.44298,-1.0968 0,-0.1257 -0.60325,-0.616 -1.34056,-1.0896 l -1.34057,-0.8612 1.67769,0.062 1.67769,0.062 0.77233,-1.8768 c 0.42478,-1.0322 0.82807,-1.8764 0.8962,-1.8759 0.0681,5e-4 0.40884,0.7727 0.75715,1.716 0.34831,0.9432 0.66831,1.715 0.71112,1.715 0.0428,0 0.95261,-0.4827 2.0218,-1.0725 1.06918,-0.5898 1.98121,-1.0725 2.02672,-1.0725 0.0455,0 -0.2082,0.5764 -0.56381,1.2809 -0.35561,0.7044 -0.64656,1.3231 -0.64656,1.3749 0,0.052 0.82043,0.1625 1.82317,0.246 1.00274,0.083 1.82317,0.217 1.82317,0.2966 0,0.079 -0.53087,0.3251 -1.1797,0.5456 -0.64883,0.2206 -1.1797,0.4647 -1.1797,0.5425 0,0.078 0.15564,0.5982 0.34586,1.1565 0.19022,0.5582 0.30922,1.0517 0.26443,1.0964 -0.0448,0.045 -0.74792,-0.1997 -1.56252,-0.5434 -1.63453,-0.6896 -1.72937,-0.6679 -2.49451,0.5701 -0.24699,0.3996 -0.51865,0.7266 -0.6037,0.7266 -0.085,0 -0.32816,-0.4826 -0.54027,-1.0724 z"
       id="path3434-52"
       inkscape:connector-curvature="0" />
    <path
       style="fill:#ff0000;fill-rule:evenodd;stroke:#fff800;stroke-width:1px;stroke-linecap:butt;stroke-linejoin:miter;stroke-opacity:1"
       d="m 63.5575,1046.0112 c 0,3.4319 -3.64634,4.7188 0.42898,3.8609 4.07531,-0.858 4.07531,-0.858 4.07531,-0.858 l 7.29268,2.5739 -2.14491,-7.0782 5.36226,-1.7159 -6.00573,-2.3594 -1.71592,-4.0753 -2.57389,4.7188 -4.2898,-0.6435 z"
       id="path3436-0"
       inkscape:connector-curvature="0" />
    <path
       style="fill:none;fill-rule:evenodd;stroke:#f90000;stroke-width:1px;stroke-linecap:butt;stroke-linejoin:miter;stroke-opacity:1"
       d="m 81.25901,1015.9194 c -2.97381,3.3455 -2.97381,3.5314 -2.97381,3.5314 l 3.15967,1.8586 -2.78795,2.9738 2.78795,2.0445 -2.60208,2.6021 3.34553,2.2303 1.67277,3.5314 2.23036,-3.5314 -2.23036,-2.0445 4.46072,-0.5576 -2.23036,-2.4162 3.5314,-1.4869 -3.5314,-2.4162 4.83244,-1.1152 -4.08899,-2.0445 3.5314,-1.301 -3.5314,-1.1152 -1.30104,-3.1597 -1.4869,2.0445 z"
       id="path4284-05"
       inkscape:connector-curvature="0" />
    <path
       style="fill:#6c5353;fill-opacity:1;stroke:#fff800;stroke-width:0.18586315;stroke-opacity:1"
       d="m 83.26949,1032.0755 c -0.61174,-1.3098 -0.73588,-1.4484 -2.06527,-2.3065 l -1.41441,-0.913 1.21971,-1.2291 c 0.67084,-0.676 1.21971,-1.2819 1.21971,-1.3463 0,-0.064 -0.58774,-0.5528 -1.30609,-1.0854 -1.49064,-1.105 -1.50981,-0.8955 0.24884,-2.719 0.60628,-0.6286 1.04819,-1.2305 0.98202,-1.3375 -0.0662,-0.1071 -0.74541,-0.5504 -1.50944,-0.9851 -0.76403,-0.4347 -1.38914,-0.841 -1.38914,-0.903 0,-0.062 0.50879,-0.7053 1.13065,-1.4296 l 1.13065,-1.317 1.42084,-0.2113 c 0.78146,-0.1162 1.47111,-0.2717 1.53255,-0.3456 0.0614,-0.074 0.29079,-0.3723 0.50966,-0.6633 l 0.39794,-0.529 0.47025,1.0633 c 0.25864,0.5848 0.47026,1.1213 0.47026,1.1921 0,0.071 0.46001,0.2738 1.02224,0.451 0.56224,0.1773 1.02225,0.3486 1.02225,0.3808 0,0.032 -0.62729,0.2873 -1.39397,0.567 -0.76669,0.2796 -1.39398,0.5672 -1.39398,0.6391 0,0.072 0.76232,0.4888 1.69403,0.9264 0.93172,0.4376 1.62174,0.8616 1.53337,0.9422 -0.0884,0.081 -1.01795,0.3375 -2.06575,0.571 -1.0478,0.2335 -1.90202,0.4741 -1.89826,0.5346 0.004,0.061 0.79947,0.6455 1.76824,1.3 0.96877,0.6546 1.73934,1.2095 1.71239,1.2333 -0.0269,0.024 -0.71811,0.3167 -1.5359,0.6509 -0.8178,0.3343 -1.51872,0.6336 -1.55761,0.6651 -0.0389,0.032 0.35851,0.5528 0.8831,1.1583 l 0.9538,1.101 -1.90535,0.2177 c -1.04794,0.1197 -2.03981,0.2755 -2.20415,0.3462 -0.23384,0.1006 -0.009,0.3946 1.03453,1.3524 l 1.33333,1.224 -0.70009,1.0989 -0.7001,1.0989 -0.65085,-1.3935 z"
       id="path4288-4"
       inkscape:connector-curvature="0" />
    <path
       style="fill:none;fill-rule:evenodd;stroke:#fb0000;stroke-width:1px;stroke-linecap:butt;stroke-linejoin:miter;stroke-opacity:1"
       d="m 66.90959,1023.0281 c -2.97381,3.3455 -2.97381,3.5314 -2.97381,3.5314 l 3.15967,1.8586 -2.78795,2.9738 2.78795,2.0445 -2.60208,2.6021 3.34553,2.2303 1.67277,3.5314 2.23036,-3.5314 -2.23036,-2.0445 4.46072,-0.5576 -2.23036,-2.4162 3.5314,-1.4869 -3.5314,-2.4162 4.83244,-1.1151 -4.08899,-2.0445 3.5314,-1.3011 -3.5314,-1.1151 -1.30104,-3.1597 -1.4869,2.0445 z"
       id="path4284-1-3"
       inkscape:connector-curvature="0" />
    <path
       style="fill:#6c5353;fill-opacity:1;stroke:#fff800;stroke-width:0.18586315;stroke-opacity:1"
       d="m 68.92007,1039.1842 c -0.61174,-1.3098 -0.73588,-1.4484 -2.06527,-2.3065 l -1.41441,-0.913 1.21971,-1.2291 c 0.67084,-0.676 1.21971,-1.2819 1.21971,-1.3463 0,-0.064 -0.58774,-0.5528 -1.30609,-1.0854 -1.49064,-1.105 -1.50981,-0.8955 0.24884,-2.7189 0.60628,-0.6286 1.04819,-1.2306 0.98202,-1.3376 -0.0662,-0.1071 -0.74541,-0.5503 -1.50944,-0.985 -0.76403,-0.4347 -1.38914,-0.8411 -1.38914,-0.9031 0,-0.062 0.50879,-0.7053 1.13065,-1.4296 l 1.13065,-1.3169 1.42084,-0.2114 c 0.78146,-0.1162 1.47111,-0.2717 1.53255,-0.3455 0.0614,-0.074 0.29079,-0.3723 0.50966,-0.6633 l 0.39794,-0.5291 0.47025,1.0633 c 0.25864,0.5849 0.47026,1.1213 0.47026,1.1921 0,0.071 0.46001,0.2738 1.02224,0.4511 0.56224,0.1772 1.02225,0.3485 1.02225,0.3807 0,0.032 -0.62729,0.2874 -1.39397,0.567 -0.76669,0.2796 -1.39398,0.5672 -1.39398,0.6391 0,0.072 0.76232,0.4888 1.69403,0.9264 0.93172,0.4376 1.62174,0.8616 1.53337,0.9422 -0.0884,0.081 -1.01795,0.3376 -2.06575,0.5711 -1.0478,0.2335 -1.90202,0.474 -1.89826,0.5345 0.004,0.061 0.79947,0.6455 1.76824,1.3001 0.96877,0.6545 1.73934,1.2094 1.71239,1.2332 -0.0269,0.024 -0.71811,0.3167 -1.5359,0.6509 -0.8178,0.3343 -1.51872,0.6336 -1.55761,0.6651 -0.0389,0.032 0.35851,0.5528 0.8831,1.1583 l 0.9538,1.101 -1.90535,0.2177 c -1.04794,0.1197 -2.03981,0.2755 -2.20415,0.3462 -0.23384,0.1006 -0.009,0.3946 1.03453,1.3524 l 1.33333,1.224 -0.70009,1.0989 -0.7001,1.0989 -0.65085,-1.3935 z"
       id="path4288-6-6"
       inkscape:connector-curvature="0" />
  </g>
</svg>
