<?xml version="1.0" encoding="UTF-8" standalone="no"?>
<!-- Created with Inkscape (http://www.inkscape.org/) -->

<svg
   xmlns:dc="http://purl.org/dc/elements/1.1/"
   xmlns:cc="http://creativecommons.org/ns#"
   xmlns:rdf="http://www.w3.org/1999/02/22-rdf-syntax-ns#"
   xmlns:svg="http://www.w3.org/2000/svg"
   xmlns="http://www.w3.org/2000/svg"
   xmlns:sodipodi="http://sodipodi.sourceforge.net/DTD/sodipodi-0.dtd"
   xmlns:inkscape="http://www.inkscape.org/namespaces/inkscape"
   width="20"
   height="20"
   viewBox="0 0 20 19.999999"
   id="svg4322"
   version="1.1"
   inkscape:version="0.91 r13725"
   sodipodi:docname="zhizn1.svg">
  <defs
     id="defs4324" />
  <sodipodi:namedview
     id="base"
     pagecolor="#ffffff"
     bordercolor="#666666"
     borderopacity="1.0"
     inkscape:pageopacity="0.0"
     inkscape:pageshadow="2"
     inkscape:zoom="22.846674"
     inkscape:cx="8.5436893"
     inkscape:cy="10.215538"
     inkscape:document-units="px"
     inkscape:current-layer="layer1"
     showgrid="false"
     inkscape:window-width="1366"
     inkscape:window-height="706"
     inkscape:window-x="-8"
     inkscape:window-y="-8"
     inkscape:window-maximized="1"
     units="px" />
  <metadata
     id="metadata4327">
    <rdf:RDF>
      <cc:Work
         rdf:about="">
        <dc:format>image/svg+xml</dc:format>
        <dc:type
           rdf:resource="http://purl.org/dc/dcmitype/StillImage" />
        <dc:title></dc:title>
      </cc:Work>
    </rdf:RDF>
  </metadata>
  <g
     inkscape:label="Layer 1"
     inkscape:groupmode="layer"
     id="layer1"
     transform="translate(0,-1032.3622)">
    <path
       style="fill:none;fill-rule:evenodd;stroke:#000000;stroke-width:2.0247395px;stroke-linecap:butt;stroke-linejoin:miter;stroke-opacity:1"
       d="m 10.540585,1050.4112 c 0,-0.7348 0.09182,0.147 -0.389574,-0.6259 -0.05807,-0.093 0.05807,-0.2205 0,-0.3131 -0.08213,-0.1307 -0.3074436,-0.1797 -0.3895736,-0.3129 -0.116148,-0.1867 0.183646,-0.4791 0,-0.6261 -0.09182,-0.074 -0.297751,0.074 -0.389574,0 -0.09182,-0.074 0.09182,-0.2384 0,-0.3128 -0.09182,-0.074 -0.297751,0.074 -0.389574,0 -0.183647,-0.147 0.183646,-0.479 0,-0.626 -0.09182,-0.074 -0.297751,0.075 -0.389573,0 -0.09182,-0.074 0.09182,-0.2386 0,-0.313 -0.09182,-0.074 -0.2977512,0.074 -0.3895742,0 -0.09182,-0.074 0.09182,-0.2385 0,-0.3129 -0.132099,-0.1052 -0.647052,0.1053 -0.779148,0 -0.09182,-0.074 0.09182,-0.2386 0,-0.313 -0.09182,-0.074 -0.297751,0.074 -0.389574,0 -0.091824,-0.074 0.09182,-0.2385 0,-0.3129 -0.091824,-0.074 -0.2734266,0.047 -0.3895746,0 -0.1642576,-0.065 -0.2253158,-0.2477 -0.3895739,-0.313 -0.116148,-0.047 -0.2734261,0.047 -0.3895741,0 -0.3285175,-0.1325 -0.4506304,-0.4935 -0.779148,-0.626 -0.116148,-0.047 -0.2734261,0.047 -0.3895741,0 -0.1642577,-0.065 -0.2253158,-0.2477 -0.3895739,-0.313 -0.116148,-0.047 -0.2734261,0.047 -0.3895741,0 -0.1642577,-0.065 -0.2253135,-0.2475 -0.3895741,-0.3129 -0.1161481,-0.047 -0.2734259,0.047 -0.3895739,0 -0.3285178,-0.1325 -0.4506305,-0.4934 -0.7791482,-0.6259 -0.1161481,-0.047 -0.2977507,0.074 -0.3895739,0 -0.091823,-0.074 0.091823,-0.2386 0,-0.313 -0.091823,-0.074 -0.2977509,0.074 -0.3895741,0 -0.060457,-0.049 0.050531,-0.8172 0,-0.9388 -0.091823,-0.2214 -0.319148,-0.3998 -0.3895742,-0.6261 -0.1008885,-0.3242 0,-0.8929 0,-1.2519 0,-0.9388 0,-1.8777 0,-2.8167 0,-0.1053 0,-0.2076 0,-0.3129 0,-0.1052 -0.091823,-0.2386 0,-0.313 0.091823,-0.074 0.2977509,0.074 0.3895742,0 0.1947878,-0.1561 -0.1947879,-0.7829 0,-0.939 0.091823,-0.074 0.2977508,0.074 0.3895741,0 0.091823,-0.074 -0.091823,-0.2384 0,-0.3129 0.091823,-0.074 0.2977506,0.075 0.3895739,0 0.1305897,-0.1052 -0.1305898,-0.5206 0,-0.6259 0.091823,-0.074 0.2977508,0.074 0.3895741,0 0.091823,-0.074 -0.091823,-0.2386 0,-0.313 0.1836465,-0.147 0.546851,0.093 0.779148,0 0.3285178,-0.1325 0.4506304,-0.4935 0.7791482,-0.6259 0.116148,-0.047 0.2597161,0 0.3895739,0 0.1298578,0 0.2597163,0 0.3895741,0 0.779148,0 1.558296,0 2.3374446,0 0.129857,0 0.29775,-0.074 0.389574,0 0.183646,0.147 -0.116148,0.4393 0,0.6259 0.08213,0.1306 0.307444,0.1815 0.389574,0.313 0.05807,0.093 0,0.2095 0,0.3129 0.2597162,0.4174 0.5194312,0.8346 0.7791472,1.252 1.1879306,-0.2216 0.150114,-0.8673 0.389574,-1.252 0.08213,-0.1325 0.307444,-0.1815 0.389574,-0.3129 0.05807,-0.092 -0.09182,-0.2392 0,-0.313 0.09182,-0.074 0.2977496,0.074 0.3895736,0 0.183646,-0.147 -0.1836466,-0.4784 0,-0.6259 0.09182,-0.074 0.273425,0.047 0.389574,0 0.164258,-0.065 0.225316,-0.247 0.389574,-0.3129 0.116148,-0.047 0.29775,0.074 0.389574,0 0.09182,-0.074 -0.09182,-0.2392 0,-0.3131 0.183646,-0.147 0.546851,0.093 0.779148,0 0.16426,-0.065 0.225316,-0.247 0.389574,-0.313 0.154463,-0.062 1.089079,0.063 1.168722,0 0.09182,-0.074 -0.09182,-0.2392 0,-0.3129 0.106597,-0.085 1.346957,0.085 1.558296,0 0.16426,-0.065 0.225316,-0.247 0.389574,-0.313 0.102445,-0.042 1.35458,0 1.558296,0 0.129846,0 0.297752,-0.074 0.389575,0 0.09183,0.074 -0.09183,0.2392 0,0.313 1.038863,0 -0.129846,-0.1052 0.389574,0.3129 0.09183,0.074 0.29775,-0.074 0.389573,0 0.09183,0.074 0,0.2087 0,0.313 0,0.1053 0,0.2087 0,0.3131 0,0.8344 0,1.669 0,2.5037 0,0.6259 0,1.2518 0,1.8777 0,0.1053 0.09183,0.2392 0,0.3131 -0.09183,0.074 -0.29775,-0.074 -0.389573,0 -0.09183,0.074 0.09183,0.2392 0,0.3128 -0.09183,0.074 -0.29775,-0.074 -0.389574,0 -0.09183,0.074 0.09183,0.2394 0,0.3131 -0.09183,0.074 -0.297752,-0.074 -0.389575,0 -0.183656,0.147 0.183655,0.4784 0,0.6259 -0.09183,0.074 -0.297751,-0.074 -0.389574,0 -0.183655,0.147 0.116157,0.4394 0,0.6259 -0.810657,1.3025 0.0269,-0.3344 -0.779147,0.3131 -0.183655,0.147 0.116157,0.4393 0,0.6259 -0.08214,0.1325 -0.307445,0.1815 -0.389575,0.3129 -0.05807,0.094 0.05808,0.2197 0,0.313 -0.08213,0.1325 -0.307444,0.1815 -0.389574,0.3131 -0.05807,0.092 0.05807,0.2196 0,0.3128 -0.16426,0.2639 -0.614889,0.3621 -0.779148,0.626 -0.05807,0.092 0,0.2087 0,0.313 -0.129858,0.1034 -0.287705,0.1902 -0.389574,0.3129 -0.161068,0.1942 -0.319148,0.3996 -0.389574,0.6259 -0.06299,0.2025 0,0.4174 0,0.6259 0,0.1035 0.05807,0.2198 0,0.3131 -0.08213,0.1324 -0.307444,0.1814 -0.389574,0.313 -0.116148,0.1866 0.183647,0.4784 0,0.6259 -0.09182,0.074 -0.29775,-0.074 -0.389574,0 -0.183646,0.147 0.183647,0.4784 0,0.6259 -0.09182,0.075 -0.29775,-0.074 -0.389574,0 -0.183647,0.147 0.116148,0.4394 0,0.626 -0.08213,0.1324 -0.307445,0.1814 -0.389574,0.3128 -0.05807,0.094 0.09182,0.2394 0,0.3131 -0.09182,0.074 -0.29775,-0.074 -0.389574,0 -0.183647,0.147 0.155827,0.4589 0,0.6259 -0.330565,0.3541 -0.895373,0.5546 -1.168722,0.939 -0.479528,0.6742 -0.389574,1.4585 -0.389574,2.1908"
       id="path3689"
       inkscape:connector-curvature="0" />
    <path
       style="fill:#ff0000;fill-opacity:1;stroke:none;stroke-opacity:1"
       d="m 10.00584,1047.0874 c -0.4752146,-0.5164 -2.2563918,-1.5888 -3.9581718,-2.3831 -3.5042033,-1.6357 -3.7346657,-2.0059 -3.4205576,-5.4945 0.1444403,-1.6042 0.3447139,-2.0335 1.2363047,-2.6496 1.6320984,-1.1278 2.7183258,-0.9698 3.5527259,0.5167 0.386482,0.6885 0.9505562,1.2519 1.2535002,1.2519 1.071356,0 2.0578776,-0.6572 2.0578776,-1.3709 0,-1.0115 1.132261,-1.7245 3.564387,-2.2446 1.14644,-0.2451 2.215917,-0.4474 2.376617,-0.4494 0.51201,-0.01 0.331922,4.2744 -0.194792,4.6303 -0.546178,0.369 -3.725279,5.3687 -4.862923,7.6477 l -0.740941,1.4844 -0.864027,-0.9389 z"
       id="path3699"
       inkscape:connector-curvature="0" />
  </g>
</svg>
