<?xml version="1.0" encoding="UTF-8" standalone="no"?>
<!-- Created with Inkscape (http://www.inkscape.org/) -->

<svg
   xmlns:dc="http://purl.org/dc/elements/1.1/"
   xmlns:cc="http://creativecommons.org/ns#"
   xmlns:rdf="http://www.w3.org/1999/02/22-rdf-syntax-ns#"
   xmlns:svg="http://www.w3.org/2000/svg"
   xmlns="http://www.w3.org/2000/svg"
   xmlns:sodipodi="http://sodipodi.sourceforge.net/DTD/sodipodi-0.dtd"
   xmlns:inkscape="http://www.inkscape.org/namespaces/inkscape"
   width="55"
   height="21"
   viewBox="0 0 55.000001 20.999999"
   id="svg4322"
   version="1.1"
   inkscape:version="0.91 r13725"
   sodipodi:docname="zhizn.svg">
  <defs
     id="defs4324" />
  <sodipodi:namedview
     id="base"
     pagecolor="#ffffff"
     bordercolor="#666666"
     borderopacity="1.0"
     inkscape:pageopacity="0.0"
     inkscape:pageshadow="2"
     inkscape:zoom="11.313708"
     inkscape:cx="18.500884"
     inkscape:cy="13.370357"
     inkscape:document-units="px"
     inkscape:current-layer="layer1"
     showgrid="false"
     inkscape:window-width="1366"
     inkscape:window-height="706"
     inkscape:window-x="-8"
     inkscape:window-y="-8"
     inkscape:window-maximized="1"
     units="px" />
  <metadata
     id="metadata4327">
    <rdf:RDF>
      <cc:Work
         rdf:about="">
        <dc:format>image/svg+xml</dc:format>
        <dc:type
           rdf:resource="http://purl.org/dc/dcmitype/StillImage" />
        <dc:title></dc:title>
      </cc:Work>
    </rdf:RDF>
  </metadata>
  <g
     inkscape:label="Layer 1"
     inkscape:groupmode="layer"
     id="layer1"
     transform="translate(0,-1031.3622)">
    <path
       style="fill:none;fill-rule:evenodd;stroke:#000000;stroke-width:2.0247395px;stroke-linecap:butt;stroke-linejoin:miter;stroke-opacity:1"
       d="m 10.540585,1050.4112 c 0,-0.7348 0.09182,0.147 -0.389574,-0.6259 -0.05807,-0.093 0.05807,-0.2205 0,-0.3131 -0.08213,-0.1307 -0.3074436,-0.1797 -0.3895736,-0.3129 -0.116148,-0.1867 0.183646,-0.4791 0,-0.6261 -0.09182,-0.074 -0.297751,0.074 -0.389574,0 -0.09182,-0.074 0.09182,-0.2384 0,-0.3128 -0.09182,-0.074 -0.297751,0.074 -0.389574,0 -0.183647,-0.147 0.183646,-0.479 0,-0.626 -0.09182,-0.074 -0.297751,0.075 -0.389573,0 -0.09182,-0.074 0.09182,-0.2386 0,-0.313 -0.09182,-0.074 -0.2977512,0.074 -0.3895742,0 -0.09182,-0.074 0.09182,-0.2385 0,-0.3129 -0.132099,-0.1052 -0.647052,0.1053 -0.779148,0 -0.09182,-0.074 0.09182,-0.2386 0,-0.313 -0.09182,-0.074 -0.297751,0.074 -0.389574,0 -0.091824,-0.074 0.09182,-0.2385 0,-0.3129 -0.091824,-0.074 -0.2734266,0.047 -0.3895746,0 -0.1642576,-0.065 -0.2253158,-0.2477 -0.3895739,-0.313 -0.116148,-0.047 -0.2734261,0.047 -0.3895741,0 -0.3285175,-0.1325 -0.4506304,-0.4935 -0.779148,-0.626 -0.116148,-0.047 -0.2734261,0.047 -0.3895741,0 -0.1642577,-0.065 -0.2253158,-0.2477 -0.3895739,-0.313 -0.116148,-0.047 -0.2734261,0.047 -0.3895741,0 -0.1642577,-0.065 -0.2253135,-0.2475 -0.3895741,-0.3129 -0.1161481,-0.047 -0.2734259,0.047 -0.3895739,0 -0.3285178,-0.1325 -0.4506305,-0.4934 -0.7791482,-0.6259 -0.1161481,-0.047 -0.2977507,0.074 -0.3895739,0 -0.091823,-0.074 0.091823,-0.2386 0,-0.313 -0.091823,-0.074 -0.2977509,0.074 -0.3895741,0 -0.060457,-0.049 0.050531,-0.8172 0,-0.9388 -0.091823,-0.2214 -0.319148,-0.3998 -0.3895742,-0.6261 -0.1008885,-0.3242 0,-0.8929 0,-1.2519 0,-0.9388 0,-1.8777 0,-2.8167 0,-0.1053 0,-0.2076 0,-0.3129 0,-0.1052 -0.091823,-0.2386 0,-0.313 0.091823,-0.074 0.2977509,0.074 0.3895742,0 0.1947878,-0.1561 -0.1947879,-0.7829 0,-0.939 0.091823,-0.074 0.2977508,0.074 0.3895741,0 0.091823,-0.074 -0.091823,-0.2384 0,-0.3129 0.091823,-0.074 0.2977506,0.075 0.3895739,0 0.1305897,-0.1052 -0.1305898,-0.5206 0,-0.6259 0.091823,-0.074 0.2977508,0.074 0.3895741,0 0.091823,-0.074 -0.091823,-0.2386 0,-0.313 0.1836465,-0.147 0.546851,0.093 0.779148,0 0.3285178,-0.1325 0.4506304,-0.4935 0.7791482,-0.6259 0.116148,-0.047 0.2597161,0 0.3895739,0 0.1298578,0 0.2597163,0 0.3895741,0 0.779148,0 1.558296,0 2.3374446,0 0.129857,0 0.29775,-0.074 0.389574,0 0.183646,0.147 -0.116148,0.4393 0,0.6259 0.08213,0.1306 0.307444,0.1815 0.389574,0.313 0.05807,0.093 0,0.2095 0,0.3129 0.2597162,0.4174 0.5194312,0.8346 0.7791472,1.252 1.1879306,-0.2216 0.150114,-0.8673 0.389574,-1.252 0.08213,-0.1325 0.307444,-0.1815 0.389574,-0.3129 0.05807,-0.092 -0.09182,-0.2392 0,-0.313 0.09182,-0.074 0.2977496,0.074 0.3895736,0 0.183646,-0.147 -0.1836466,-0.4784 0,-0.6259 0.09182,-0.074 0.273425,0.047 0.389574,0 0.164258,-0.065 0.225316,-0.247 0.389574,-0.3129 0.116148,-0.047 0.29775,0.074 0.389574,0 0.09182,-0.074 -0.09182,-0.2392 0,-0.3131 0.183646,-0.147 0.546851,0.093 0.779148,0 0.16426,-0.065 0.225316,-0.247 0.389574,-0.313 0.154463,-0.062 1.089079,0.063 1.168722,0 0.09182,-0.074 -0.09182,-0.2392 0,-0.3129 0.106597,-0.085 1.346957,0.085 1.558296,0 0.16426,-0.065 0.225316,-0.247 0.389574,-0.313 0.102445,-0.042 1.35458,0 1.558296,0 0.129846,0 0.297752,-0.074 0.389575,0 0.09183,0.074 -0.09183,0.2392 0,0.313 1.038863,0 -0.129846,-0.1052 0.389574,0.3129 0.09183,0.074 0.29775,-0.074 0.389573,0 0.09183,0.074 0,0.2087 0,0.313 0,0.1053 0,0.2087 0,0.3131 0,0.8344 0,1.669 0,2.5037 0,0.6259 0,1.2518 0,1.8777 0,0.1053 0.09183,0.2392 0,0.3131 -0.09183,0.074 -0.29775,-0.074 -0.389573,0 -0.09183,0.074 0.09183,0.2392 0,0.3128 -0.09183,0.074 -0.29775,-0.074 -0.389574,0 -0.09183,0.074 0.09183,0.2394 0,0.3131 -0.09183,0.074 -0.297752,-0.074 -0.389575,0 -0.183656,0.147 0.183655,0.4784 0,0.6259 -0.09183,0.074 -0.297751,-0.074 -0.389574,0 -0.183655,0.147 0.116157,0.4394 0,0.6259 -0.810657,1.3025 0.0269,-0.3344 -0.779147,0.3131 -0.183655,0.147 0.116157,0.4393 0,0.6259 -0.08214,0.1325 -0.307445,0.1815 -0.389575,0.3129 -0.05807,0.094 0.05808,0.2197 0,0.313 -0.08213,0.1325 -0.307444,0.1815 -0.389574,0.3131 -0.05807,0.092 0.05807,0.2196 0,0.3128 -0.16426,0.2639 -0.614889,0.3621 -0.779148,0.626 -0.05807,0.092 0,0.2087 0,0.313 -0.129858,0.1034 -0.287705,0.1902 -0.389574,0.3129 -0.161068,0.1942 -0.319148,0.3996 -0.389574,0.6259 -0.06299,0.2025 0,0.4174 0,0.6259 0,0.1035 0.05807,0.2198 0,0.3131 -0.08213,0.1324 -0.307444,0.1814 -0.389574,0.313 -0.116148,0.1866 0.183647,0.4784 0,0.6259 -0.09182,0.074 -0.29775,-0.074 -0.389574,0 -0.183646,0.147 0.183647,0.4784 0,0.6259 -0.09182,0.075 -0.29775,-0.074 -0.389574,0 -0.183647,0.147 0.116148,0.4394 0,0.626 -0.08213,0.1324 -0.307445,0.1814 -0.389574,0.3128 -0.05807,0.094 0.09182,0.2394 0,0.3131 -0.09182,0.074 -0.29775,-0.074 -0.389574,0 -0.183647,0.147 0.155827,0.4589 0,0.6259 -0.330565,0.3541 -0.895373,0.5546 -1.168722,0.939 -0.479528,0.6742 -0.389574,1.4585 -0.389574,2.1908"
       id="path3689"
       inkscape:connector-curvature="0" />
    <path
       style="fill:none;fill-rule:evenodd;stroke:#000000;stroke-width:1.81671262px;stroke-linecap:butt;stroke-linejoin:miter;stroke-opacity:1"
       d="m 27.17916,1035.609 c -1.208859,0.1605 0.686985,-1.195 0.312003,-1.5732 -0.156005,-0.1568 -0.780007,0.1569 -0.93601,0 -0.07354,-0.074 0.07355,-0.2403 0,-0.3144 -0.07354,-0.074 -0.208001,0 -0.312002,0 0,-0.1057 0.07355,-0.2405 0,-0.3147 -0.07354,-0.074 -0.238462,0.074 -0.312003,0 -0.104588,-0.1057 0.10459,-0.5237 0,-0.6292 -0.07354,-0.074 -0.238462,0.074 -0.312002,0 -0.07354,-0.074 0.07355,-0.2405 0,-0.3147 -0.01411,-0.018 -1.412906,0 -1.560016,0 -0.07566,0 -0.925974,-0.018 -0.936009,0 -0.645545,0.6511 0.986479,-0.026 -0.312003,0.6294 -0.09303,0.047 -0.218982,-0.048 -0.312002,0 -0.263104,0.1331 -0.360904,0.4965 -0.624007,0.6292 -0.09303,0.047 -0.238463,-0.074 -0.312003,0 -0.104589,0.1057 0.104589,0.5238 0,0.6292 -0.147087,0.1478 -0.476926,-0.1478 -0.624005,0 -0.104589,0.1057 0.104589,0.5237 0,0.6291 -0.07355,0.074 -0.238465,-0.074 -0.312004,0 -0.01,0.018 0,0.8675 0,0.9439 0,1.3801 0,1.2003 0,2.2022 0,0.21 0,0.4191 0,0.6293 0,0.4194 0,0.8388 0,1.2584 0,0.1056 0.103992,0.3145 0,0.3145 -0.103993,0 0,-0.4194 0,-0.3145 0,0.2096 0,0.4193 0,0.6292 0,0.1057 -0.04652,0.2207 0,0.3144 0.649241,1.3095 -0.02153,-0.3361 0.624007,0.3148 0.645544,0.6509 -0.986479,-0.026 0.312002,0.6291 0.09302,0.048 0.238463,-0.074 0.312003,0 0.07354,0.074 -0.09303,0.2679 0,0.3147 0.186044,0.093 0.437963,-0.095 0.624007,0 0.09302,0.047 -0.04652,0.2207 0,0.3146 0.06578,0.1331 0.180448,0.2482 0.312002,0.3146 0.186044,0.093 0.476928,-0.1477 0.624007,0 0.147086,0.1478 -0.147087,0.4809 0,0.6293 0.07355,0.074 0.238462,-0.074 0.312003,0 0.07354,0.074 -0.07355,0.2403 0,0.3144 0.07354,0.074 0.238462,-0.074 0.312002,0 0.07355,0.074 -0.07355,0.2405 0,0.3147 0.147087,0.1478 0.476928,-0.1478 0.624006,0 0.07355,0.074 -0.07354,0.2405 0,0.3145 0.147087,0.1478 0.476927,-0.1477 0.624005,0 0.07355,0.074 -0.07354,0.2406 0,0.3147 0.07355,0.074 0.218983,-0.047 0.312005,0 0.131546,0.066 0.180448,0.2483 0.312002,0.3147 0.186042,0.093 0.476927,-0.1478 0.624005,0 0.07355,0.074 -0.07354,0.2405 0,0.3145 0.07355,0.074 0.312005,-0.1035 0.312005,0 0,0.1057 -0.416005,0 -0.312005,0 0.208004,0 0.437964,-0.093 0.624007,0 0.09303,0.047 -0.07354,0.2404 0,0.3147 0.07355,0.074 0.238463,-0.074 0.312003,0 0.07355,0.074 -0.04652,0.2207 0,0.3145 0.06578,0.1331 0.246228,0.1824 0.312002,0.3147 0.06185,0.124 -0.06379,0.8794 0,0.9437 0.07355,0.074 0.238465,-0.074 0.312005,0 0.07355,0.074 0,0.2098 0,0.3147 0,0.1035 0.103993,0.3147 0,0.3147 -0.103992,0 0,-0.2098 0,-0.3147"
       id="path3691"
       inkscape:connector-curvature="0" />
    <path
       style="fill:none;fill-rule:evenodd;stroke:#000000;stroke-width:1.81671262px;stroke-linecap:butt;stroke-linejoin:miter;stroke-opacity:1"
       d="m 28.51556,1036.7686 c 0.208002,-0.4195 0.416004,-0.8391 0.624005,-1.2585 0.10401,0 0.238465,0.074 0.312005,0 0.07355,-0.074 -0.07354,-0.2403 0,-0.3146 0.07355,-0.074 0.238463,0.074 0.312002,0 0.10468,-0.1057 -0.104697,-0.5236 0,-0.6293 0.832009,0 -0.103991,0.1057 0.312003,-0.3144 0.07355,-0.074 0.238463,0.074 0.312004,0 0.07355,-0.074 -0.07354,-0.2405 0,-0.3147 0.07355,-0.074 0.238463,0.074 0.312003,0 0.104589,-0.1057 -0.104589,-0.5237 0,-0.6292 0.147087,-0.1477 0.476926,0.1477 0.624005,0 0.07355,-0.074 -0.07354,-0.2405 0,-0.3147 0.147087,-0.1477 0.476928,0.1478 0.624007,0 0.07355,-0.074 -0.07354,-0.2405 0,-0.3145 0.07355,-0.074 0.208001,0 0.312002,0 0.10401,0 0.208002,0 0.312003,0 0.416005,0 0.832008,0 1.248012,0 0.114576,0 1.235458,-0.018 1.248012,0 0.07355,0.074 -0.07354,0.2404 0,0.3145 0.645547,0.6511 -0.02523,-0.9946 0.624007,0.3147 0.04652,0.093 -0.04652,0.2207 0,0.3147 0.06578,0.1331 0.246228,0.1824 0.312002,0.3145 0.04747,0.097 0,0.8021 0,0.9439 0,0.7341 0,1.4681 0,2.2023 0,0.734 0,1.4682 0,2.2022 0,0.1035 0.07355,0.2405 0,0.3145 -0.731701,0.7378 0,-0.9693 0,-0.3145 0,1.5893 -0.239781,0.2417 -0.624005,0.6292 -0.07354,0.074 0.07355,0.2404 0,0.3145 -0.07354,0.074 -0.238462,-0.074 -0.312004,0 -0.07354,0.074 0.07355,0.2405 0,0.3147 -0.147086,0.1478 -0.476926,-0.1478 -0.624005,0 -0.07355,0.074 0.04652,0.2207 0,0.3145 -0.03933,0.079 -0.584679,0.55 -0.624007,0.6291 -0.04652,0.095 0.07355,0.2405 0,0.3148 -0.07354,0.074 -0.238462,-0.074 -0.312003,0 -0.07354,0.074 0.07355,0.2404 0,0.3147 -0.07354,0.074 -0.238462,-0.074 -0.312002,0 -0.07354,0.074 0.07355,0.2404 0,0.3144 -0.07354,0.074 -0.238462,-0.074 -0.312003,0 -0.07355,0.074 0.07355,0.2405 0,0.3147 -0.147086,0.1478 -0.437963,-0.095 -0.624007,0 -1.29848,0.6546 0.333543,-0.022 -0.312002,0.6292 -0.07354,0.074 -0.238462,-0.074 -0.312003,0 -0.07354,0.074 0.07355,0.2405 0,0.3146 -0.07354,0.074 -0.238464,-0.074 -0.312004,0 -0.147086,0.1477 0.09303,0.4416 0,0.6291 -0.06579,0.1332 -0.246226,0.1825 -0.312003,0.3147 -0.08463,0.1697 0.08538,1.1723 0,1.2584 -0.07354,0.074 -0.238462,-0.074 -0.312002,0 -0.147086,0.1478 0.09303,0.4416 0,0.6292 -0.06578,0.1331 -0.246228,0.1824 -0.312003,0.3147 -0.04652,0.093 0.07355,0.2404 0,0.3145 -0.07354,0.074 -0.238464,-0.074 -0.312004,0 -0.147086,0.1477 0.147087,0.481 0,0.6292 -0.07355,0.074 -0.238462,-0.074 -0.312003,0 -0.147086,0.1478 0.09303,0.4416 0,0.6294 -0.06578,0.1331 -0.246227,0.1824 -0.312002,0.3145 -0.04652,0.093 0.04652,0.2209 0,0.3147 -0.06578,0.1332 -0.246228,0.1823 -0.312005,0.3144 -0.09302,0.1878 0.147087,0.481 0,0.6293 -0.07354,0.074 -0.208001,0 -0.312002,0"
       id="path3693"
       inkscape:connector-curvature="0" />
    <path
       style="fill:#ff0000;fill-rule:evenodd;stroke:#000000;stroke-width:1.72886896px;stroke-linecap:butt;stroke-linejoin:miter;stroke-opacity:1"
       d="m 47.968043,1037.3509 c -0.457091,-0.088 -0.909267,-0.1894 -1.371276,-0.2594 -0.308537,-0.046 -0.713065,0 -1.028457,0 -0.685637,0 -1.371276,0 -2.056913,0 -0.08313,0 -1.017433,-0.016 -1.028457,0 -0.0808,0.062 0.08082,0.1983 0,0.2594 -0.16161,0.1225 -0.524032,-0.1209 -0.685639,0 -0.709303,0.5364 1.083913,-0.021 -0.342818,0.5186 -0.102224,0.038 -0.262014,-0.062 -0.342819,0 -0.161609,0.1225 0.161609,0.3964 0,0.5186 -0.0808,0.062 -0.262013,-0.062 -0.342817,0 -0.08082,0.062 0.05112,0.182 0,0.2595 -0.07229,0.1097 -0.270547,0.1495 -0.34282,0.2591 -0.05111,0.078 0.114269,0.2593 0,0.2593 -0.140714,0 0.365774,-1.3487 -0.342819,0.2593 -0.03613,0.083 0.0808,0.1981 0,0.2595 -0.0808,0.062 -0.262016,-0.062 -0.342818,0 -0.171425,0.1304 0.171425,0.6482 0,0.7776 -0.0808,0.062 -0.262015,-0.062 -0.342822,0 -0.08082,0.062 0,0.1731 0,0.2595 0,0.087 0,0.173 0,0.2593 0,0.7779 0,1.5558 0,2.3339 0,0.3455 0,0.6912 0,1.0371 0,0.086 0,0.1727 0,0.2593 0,0.088 0.11429,0.2593 0,0.2593 -0.114269,0 -0.08082,-0.3204 0,-0.2593 0.180683,0.1368 0.162124,0.3819 0.342822,0.5186 0.0808,0.062 0.24061,-0.038 0.342818,0 1.426729,0.5396 -0.366487,-0.017 0.342819,0.5186 0.0808,0.062 0.262014,-0.062 0.34282,0 0.0808,0.062 -0.08082,0.1982 0,0.2593 0.161609,0.1225 0.524031,-0.1225 0.685636,0 0.0808,0.062 -0.08082,0.1982 0,0.2595 0.16161,0.1225 0.48122,-0.08 0.685639,0 0.14453,0.054 0.198278,0.2044 0.342818,0.2591 0.204429,0.076 0.524032,-0.1225 0.685638,0 0.08082,0.062 -0.0808,0.1982 0,0.2592 0.171424,0.1304 0.857048,-0.1289 1.028456,0 0.0808,0.062 -0.0808,0.1983 0,0.2593 0.161609,0.1225 0.481221,-0.075 0.685639,0 1.426731,0.5397 -0.366486,-0.018 0.342817,0.5187 0.08082,0.062 0.262018,-0.062 0.34282,0 0.0808,0.062 -0.05112,0.182 0,0.2593 0.07229,0.1098 0.270548,0.1496 0.342817,0.2594 0.05112,0.08 -0.08082,0.1982 0,0.2591 0.0808,0.062 0.26202,-0.062 0.342822,0 0.08082,0.062 0,0.1731 0,0.2595 0,0.086 0.114269,0.2591 0,0.2591 -0.114269,0 0,-0.3455 0,-0.2591 0,1.0025 0,1.0654 0,1.5558 0.342818,-0.2595 0.640598,-0.5579 1.028457,-0.7779 0.09142,-0.051 0.291713,0.078 0.342817,0 0.102225,-0.1543 0,-0.3457 0,-0.5188 0.114269,-0.088 0.270547,-0.1495 0.34282,-0.2591 0.102224,-0.1543 -0.102224,-0.364 0,-0.5186 0.228158,-0.3453 0.457478,-0.1736 0.685639,-0.5187 0.102203,-0.1543 -0.161609,-0.3962 0,-0.5187 0.180683,-0.1368 0.543899,-0.097 0.685637,-0.2593 0.126763,-0.1448 -0.102225,-0.3639 0,-0.5183 0.05111,-0.08 0.262015,0.062 0.342817,0 0.08082,-0.062 -0.08082,-0.1984 0,-0.2595 0.180684,-0.1368 0.504957,-0.1225 0.68564,-0.2593 0.0808,-0.062 -0.08082,-0.1984 0,-0.2593 0.0808,-0.062 0.262014,0.062 0.342817,0 0.08082,-0.062 -0.08082,-0.1982 0,-0.2593 0.457095,-0.3457 0.34282,0.4322 0.34282,-0.2593 0.08082,-0.062 0.262016,0.062 0.342819,0 0.16161,-0.1225 -0.161609,-0.3963 0,-0.5186 0.0808,-0.062 0.262017,0.062 0.342818,0 0.161609,-0.1225 -0.102225,-0.3639 0,-0.5187 0.07229,-0.1097 0.270546,-0.1495 0.342819,-0.2593 0.102226,-0.1543 -0.102203,-0.3641 0,-0.5186 0.713367,-1.0792 -0.02366,0.2773 0.685639,-0.2595 0.08082,-0.062 0,-0.1727 0,-0.2591 0,-0.1728 -0.102203,-0.364 0,-0.5186 0.05112,-0.076 0.262016,0.062 0.342818,0 0.08082,-0.062 -0.05112,-0.182 0,-0.2593 0.07229,-0.1098 0.270548,-0.1496 0.34282,-0.2592 0.05111,-0.076 -0.0808,-0.1982 0,-0.2593 0.08082,-0.062 0.262014,0.062 0.34282,0 0.0808,-0.062 0,-0.1731 0,-0.2594 0,-0.088 0,-0.1728 0,-0.2593 0,-1.1237 0,-2.2473 0,-3.371 0,-0.088 0,-0.173 0,-0.2594 0,-0.087 0.0808,-0.198 0,-0.2593 -0.08082,-0.062 -0.262018,0.062 -0.34282,0 -0.171426,-0.1304 0.171425,-0.6484 0,-0.7779 -0.246007,-0.1858 -1.028457,0.4547 -1.028457,-0.2593 0,-0.1728 0.457093,0 0.685637,0 0.114269,0 -0.228544,0 -0.342818,0 -0.342819,0 -0.685639,0 -1.028458,0 -0.803969,0 0.161609,-0.062 -0.685637,0.2593 -0.102225,0.04 -0.262018,-0.062 -0.34282,0 -0.08082,0.062 0.08082,0.1981 0,0.2595 -0.08082,0.062 -0.262015,-0.062 -0.342817,0 -0.08082,0.062 0.0808,0.1982 0,0.2591 -0.08082,0.062 -0.262015,-0.062 -0.342819,0 -0.0808,0.062 0,0.1731 0,0.2593 -0.685638,0.1728 -1.371275,0.3457 -2.056914,0.5187 z"
       id="path3695"
       inkscape:connector-curvature="0" />
    <path
       style="fill:#ff0000;fill-opacity:1;stroke:none;stroke-opacity:1"
       d="m 28.542087,1045.9536 c -0.276894,-0.4262 -1.275061,-1.1558 -2.218148,-1.6214 -0.943089,-0.4657 -1.714705,-0.9584 -1.714705,-1.095 0,-0.1368 -0.631807,-0.6868 -1.404014,-1.2226 l -1.404013,-0.974 0,-2.4691 c 0,-2.4327 0.01628,-2.4836 1.102868,-3.4456 1.273723,-1.1277 2.006866,-1.2413 2.238763,-0.3471 0.08976,0.346 0.277442,0.6291 0.417094,0.6291 0.13965,0 0.298779,0.3041 0.353614,0.6758 0.131129,0.8887 1.109503,1.5306 1.462875,0.9599 0.202061,-0.3265 0.420574,-0.3326 1.078496,-0.03 0.751175,0.345 0.887733,0.2972 1.524314,-0.5345 1.680177,-2.1952 2.364493,-2.6872 3.595214,-2.5845 l 1.174886,0.098 0.09115,2.4399 0.09116,2.44 -1.65117,1.5747 c -0.908145,0.8662 -1.955321,1.8659 -2.327058,2.2216 -0.371737,0.3557 -0.84215,1.3455 -1.045361,2.1997 -0.448854,1.8866 -0.710342,2.0944 -1.365967,1.0855 z"
       id="path3697"
       inkscape:connector-curvature="0" />
    <path
       style="fill:#ff0000;fill-opacity:1;stroke:none;stroke-opacity:1"
       d="m 10.00584,1047.0874 c -0.4752146,-0.5164 -2.2563918,-1.5888 -3.9581718,-2.3831 -3.5042033,-1.6357 -3.7346657,-2.0059 -3.4205576,-5.4945 0.1444403,-1.6042 0.3447139,-2.0335 1.2363047,-2.6496 1.6320984,-1.1278 2.7183258,-0.9698 3.5527259,0.5167 0.386482,0.6885 0.9505562,1.2519 1.2535002,1.2519 1.071356,0 2.0578776,-0.6572 2.0578776,-1.3709 0,-1.0115 1.132261,-1.7245 3.564387,-2.2446 1.14644,-0.2451 2.215917,-0.4474 2.376617,-0.4494 0.51201,-0.01 0.331922,4.2744 -0.194792,4.6303 -0.546178,0.369 -3.725279,5.3687 -4.862923,7.6477 l -0.740941,1.4844 -0.864027,-0.9389 z"
       id="path3699"
       inkscape:connector-curvature="0" />
  </g>
</svg>
